<svg id="Layer_1" data-name="Layer 1" xmlns="http://www.w3.org/2000/svg" viewBox="0 0 253 300"><defs><style>.cls-1{fill:#fff;}.cls-2{fill:#fec514;}.cls-3{fill:#00bfb3;}.cls-4{fill:#f04e98;}.cls-5{fill:#1ba9f5;}.cls-6{fill:#93c90e;}.cls-7{fill:#07c;}</style></defs><title>logo-elastic-horizontal-color-reverse_1</title><g id="logo-elastic-vertical-color-reverse"><path class="cls-1" d="M228.79,106.76a40.27,40.27,0,0,0-26.63-38,57.2,57.2,0,0,0,1.07-11A57.77,57.77,0,0,0,98.6,24,30.69,30.69,0,0,0,51.05,58.92,40.8,40.8,0,0,0,24.21,97,40.29,40.29,0,0,0,51,135.12a57.66,57.66,0,0,0,56.61,68.66,57.42,57.42,0,0,0,46.8-24.08A30.63,30.63,0,0,0,202,144.88a40.79,40.79,0,0,0,26.84-38.12"/><path class="cls-2" d="M104.64,87.76l44.77,20.41L194.57,68.6a50.49,50.49,0,0,0-91.15-38.47l-7.52,39Z"/><path class="cls-3" d="M58.31,135.17a50.62,50.62,0,0,0,91.48,38.53l7.45-38.84-10-19L102.35,95.36Z"/><path class="cls-4" d="M58,57.7,88.7,64.94l6.72-34.88A24.25,24.25,0,0,0,58,57.7"/><path class="cls-5" d="M55.36,65a33.84,33.84,0,0,0-1.47,63.74l43-38.91L89,73Z"/><path class="cls-6" d="M157.65,173.7a24.09,24.09,0,0,0,38.79-19.18,24.34,24.34,0,0,0-1.46-8.41l-30.65-7.17Z"/><path class="cls-7" d="M163.89,130.91l33.75,7.89a34.15,34.15,0,0,0,23.24-32.13,33.78,33.78,0,0,0-21.82-31.56l-44.13,38.67Z"/><path class="cls-1" d="M35.91,292.76l2.88-.3.19,5.85a142,142,0,0,1-19.34,1.59q-10.71,0-15.18-6.2T0,274.41q0-26.1,20.73-26.09,10,0,15,5.6t5,17.61l-.4,5.65H7.54q0,8.24,3,12.21t10.36,4Q28.28,293.35,35.91,292.76Zm-2.68-21.53q0-9.12-2.92-12.89t-9.53-3.77q-6.6,0-9.92,4T7.44,271.23Z"/><path class="cls-1" d="M51.05,299.52V234.23h7.44v65.29Z"/><path class="cls-1" d="M105.34,264.29v25c0,2.48,6.17,2.38,6.17,2.38l-.38,6.57c-5.22,0-9.55.44-12.15-2.08a43.15,43.15,0,0,1-17.85,3.72q-6.84,0-10.41-3.87t-3.57-11.11q0-7.23,3.67-10.66T82.32,270l15.58-1.49v-4.26c0-3.37-.73-5.79-2.18-7.24a8,8,0,0,0-6-2.19l-19.54,0v-6.56h19q8.43,0,12.25,3.87T105.34,264.29ZM74.79,284.53q0,9.12,7.53,9.12a40.21,40.21,0,0,0,13.3-2.28l2.28-.79V274.21L83.22,275.6q-4.47.39-6.45,2.58T74.79,284.53Z"/><path class="cls-1" d="M134.38,255q-10.81,0-10.82,7.54,0,3.48,2.48,4.91t11.31,3q8.84,1.55,12.5,4.31t3.67,10.42q0,7.63-4.91,11.21t-14.33,3.57c-4.1,0-17.79-1.52-17.79-1.52l.4-6.45c7.86.76,13.55,1.32,17.39,1.32s6.76-.61,8.78-1.83,3-3.27,3-6.15-.86-4.83-2.58-5.85-5.49-2-11.31-2.93-10-2.28-12.4-4.07-3.67-5.09-3.67-9.92,1.71-8.39,5.11-10.71A22.23,22.23,0,0,1,134,248.32c4,0,18,1,18,1v6.49C144.65,255.49,138.61,255,134.38,255Z"/><path class="cls-1" d="M189.4,255.76H173.63v23.71q0,8.52,1.24,11.21c.83,1.78,2.79,2.67,5.9,2.67l8.83-.59.5,6.15A67.54,67.54,0,0,1,180,300q-7.74,0-10.71-3.77t-3-14.38V255.76h-7v-6.45h7V234.13h7.34v15.18H189.4Z"/><path class="cls-1" d="M199.75,243v-8.63h7.44V243Zm0,56.55V249.31h7.44v50.21Z"/><path class="cls-1" d="M239.41,248.32a84.32,84.32,0,0,1,11.11,1.19l2.38.3-.29,6.05a115.78,115.78,0,0,0-11.71-.9q-8.43,0-11.46,4t-3,14.88q0,10.86,2.82,15.13T241,293.25l11.71-.89.29,6.15a101.26,101.26,0,0,1-13.79,1.39q-11.6,0-16-5.95t-4.41-20.09q0-14.13,4.76-19.84T239.41,248.32Z"/></g></svg>