<?xml version="1.0" encoding="UTF-8"?>
<svg width="302px" height="180px" viewBox="0 0 302 180" version="1.1" xmlns="http://www.w3.org/2000/svg" xmlns:xlink="http://www.w3.org/1999/xlink">
    <title>amazon-web-services-color</title>
    <g id="Page-1" stroke="none" stroke-width="1" fill="none" fill-rule="evenodd">
        <g id="amazon-web-services-color" transform="translate(0.667983, 0.100000)">
            <path d="M84.7320171,65.3 C84.7320171,69 85.1320171,72 85.8320171,74.2 C86.6320171,76.4 87.6320171,78.8 89.0320171,81.4 C89.5320171,82.2 89.7320171,83 89.7320171,83.7 C89.7320171,84.7 89.1320171,85.7 87.8320171,86.7 L81.5320171,90.9 C80.6320171,91.5 79.7320171,91.8 78.9320171,91.8 C77.9320171,91.8 76.9320171,91.3 75.9320171,90.4 C74.5320171,88.9 73.3320171,87.3 72.3320171,85.7 C71.3320171,84 70.3320171,82.1 69.2320171,79.8 C61.4320171,89 51.6320171,93.6 39.8320171,93.6 C31.4320171,93.6 24.7320171,91.2 19.8320171,86.4 C14.9320171,81.6 12.4320171,75.2 12.4320171,67.2 C12.4320171,58.7 15.4320171,51.8 21.5320171,46.6 C27.6320171,41.4 35.7320171,38.8 46.0320171,38.8 C49.4320171,38.8 52.9320171,39.1 56.6320171,39.6 C60.3320171,40.1 64.1320171,40.9 68.1320171,41.8 L68.1320171,34.5 C68.1320171,26.9 66.5320171,21.6 63.4320171,18.5 C60.2320171,15.4 54.8320171,13.9 47.1320171,13.9 C43.6320171,13.9 40.0320171,14.3 36.3320171,15.2 C32.6320171,16.1 29.0320171,17.2 25.5320171,18.6 C23.9320171,19.3 22.7320171,19.7 22.0320171,19.9 C21.3320171,20.1 20.8320171,20.2 20.4320171,20.2 C19.0320171,20.2 18.3320171,19.2 18.3320171,17.1 L18.3320171,12.2 C18.3320171,10.6 18.5320171,9.4 19.0320171,8.7 C19.5320171,8 20.4320171,7.3 21.8320171,6.6 C25.3320171,4.8 29.5320171,3.3 34.4320171,2.1 C39.3320171,0.8 44.5320171,0.2 50.0320171,0.2 C61.9320171,0.2 70.6320171,2.9 76.2320171,8.3 C81.7320171,13.7 84.5320171,21.9 84.5320171,32.9 L84.5320171,65.3 L84.7320171,65.3 Z M44.1320171,80.5 C47.4320171,80.5 50.8320171,79.9 54.4320171,78.7 C58.0320171,77.5 61.2320171,75.3 63.9320171,72.3 C65.5320171,70.4 66.7320171,68.3 67.3320171,65.9 C67.9320171,63.5 68.3320171,60.6 68.3320171,57.2 L68.3320171,53 C65.4320171,52.3 62.3320171,51.7 59.1320171,51.3 C55.9320171,50.9 52.8320171,50.7 49.7320171,50.7 C43.0320171,50.7 38.1320171,52 34.8320171,54.7 C31.5320171,57.4 29.9320171,61.2 29.9320171,66.2 C29.9320171,70.9 31.1320171,74.4 33.6320171,76.8 C36.0320171,79.3 39.5320171,80.5 44.1320171,80.5 Z M124.432017,91.3 C122.632017,91.3 121.432017,91 120.632017,90.3 C119.832017,89.7 119.132017,88.3 118.532017,86.4 L95.0320171,9.1 C94.4320171,7.1 94.1320171,5.8 94.1320171,5.1 C94.1320171,3.5 94.9320171,2.6 96.5320171,2.6 L106.332017,2.6 C108.232017,2.6 109.532017,2.9 110.232017,3.6 C111.032017,4.2 111.632017,5.6 112.232017,7.5 L129.032017,73.7 L144.632017,7.5 C145.132017,5.5 145.732017,4.2 146.532017,3.6 C147.332017,3 148.732017,2.6 150.532017,2.6 L158.532017,2.6 C160.432017,2.6 161.732017,2.9 162.532017,3.6 C163.332017,4.2 164.032017,5.6 164.432017,7.5 L180.232017,74.5 L197.532017,7.5 C198.132017,5.5 198.832017,4.2 199.532017,3.6 C200.332017,3 201.632017,2.6 203.432017,2.6 L212.732017,2.6 C214.332017,2.6 215.232017,3.4 215.232017,5.1 C215.232017,5.6 215.132017,6.1 215.032017,6.7 C214.932017,7.3 214.732017,8.1 214.332017,9.2 L190.232017,86.5 C189.632017,88.5 188.932017,89.8 188.132017,90.4 C187.332017,91 186.032017,91.4 184.332017,91.4 L175.732017,91.4 C173.832017,91.4 172.532017,91.1 171.732017,90.4 C170.932017,89.7 170.232017,88.4 169.832017,86.4 L154.332017,21.9 L138.932017,86.3 C138.432017,88.3 137.832017,89.6 137.032017,90.3 C136.232017,91 134.832017,91.3 133.032017,91.3 L124.432017,91.3 Z M252.932017,94 C247.732017,94 242.532017,93.4 237.532017,92.2 C232.532017,91 228.632017,89.7 226.032017,88.2 C224.432017,87.3 223.332017,86.3 222.932017,85.4 C222.532017,84.5 222.332017,83.5 222.332017,82.6 L222.332017,77.5 C222.332017,75.4 223.132017,74.4 224.632017,74.4 C225.232017,74.4 225.832017,74.5 226.432017,74.7 C227.032017,74.9 227.932017,75.3 228.932017,75.7 C232.332017,77.2 236.032017,78.4 239.932017,79.2 C243.932017,80 247.832017,80.4 251.832017,80.4 C258.132017,80.4 263.032017,79.3 266.432017,77.1 C269.832017,74.9 271.632017,71.7 271.632017,67.6 C271.632017,64.8 270.732017,62.5 268.932017,60.6 C267.132017,58.7 263.732017,57 258.832017,55.4 L244.332017,50.9 C237.032017,48.6 231.632017,45.2 228.332017,40.7 C225.032017,36.3 223.332017,31.4 223.332017,26.2 C223.332017,22 224.232017,18.3 226.032017,15.1 C227.832017,11.9 230.232017,9.1 233.232017,6.9 C236.232017,4.6 239.632017,2.9 243.632017,1.7 C247.632017,0.5 251.832017,0 256.232017,0 C258.432017,0 260.732017,0.1 262.932017,0.4 C265.232017,0.7 267.332017,1.1 269.432017,1.5 C271.432017,2 273.332017,2.5 275.132017,3.1 C276.932017,3.7 278.332017,4.3 279.332017,4.9 C280.732017,5.7 281.732017,6.5 282.332017,7.4 C282.932017,8.2 283.232017,9.3 283.232017,10.7 L283.232017,15.4 C283.232017,17.5 282.432017,18.6 280.932017,18.6 C280.132017,18.6 278.832017,18.2 277.132017,17.4 C271.432017,14.8 265.032017,13.5 257.932017,13.5 C252.232017,13.5 247.732017,14.4 244.632017,16.3 C241.532017,18.2 239.932017,21.1 239.932017,25.2 C239.932017,28 240.932017,30.4 242.932017,32.3 C244.932017,34.2 248.632017,36.1 253.932017,37.8 L268.132017,42.3 C275.332017,44.6 280.532017,47.8 283.632017,51.9 C286.732017,56 288.232017,60.7 288.232017,65.9 C288.232017,70.2 287.332017,74.1 285.632017,77.5 C283.832017,80.9 281.432017,83.9 278.332017,86.3 C275.232017,88.8 271.532017,90.6 267.232017,91.9 C262.732017,93.3 258.032017,94 252.932017,94 Z" id="Shape" fill="#F1F1F1" fill-rule="nonzero"></path>
            <g id="Group" transform="translate(0.000000, 112.092246)" fill="#FF9900">
                <path d="M271.832017,30.5077537 C238.932017,54.8077537 191.132017,67.7077537 150.032017,67.7077537 C92.4320171,67.7077537 40.5320171,46.4077537 1.33201705,11.0077537 C-1.76798295,8.20775367 1.03201705,4.40775367 4.73201705,6.60775367 C47.1320171,31.2077537 99.4320171,46.1077537 153.532017,46.1077537 C190.032017,46.1077537 230.132017,38.5077537 267.032017,22.9077537 C272.532017,20.4077537 277.232017,26.5077537 271.832017,30.5077537 Z" id="Path"></path>
                <path d="M285.532017,14.9077537 C281.332017,9.50775367 257.732017,12.3077537 247.032017,13.6077537 C243.832017,14.0077537 243.332017,11.2077537 246.232017,9.10775367 C265.032017,-4.09224633 295.932017,-0.292246325 299.532017,4.10775367 C303.132017,8.60775367 298.532017,39.5077537 280.932017,54.3077537 C278.232017,56.6077537 275.632017,55.4077537 276.832017,52.4077537 C280.832017,42.5077537 289.732017,20.2077537 285.532017,14.9077537 Z" id="Path"></path>
            </g>
        </g>
    </g>
</svg>