<?xml version="1.0" encoding="UTF-8" standalone="no"?>
<!DOCTYPE svg PUBLIC "-//W3C//DTD SVG 1.1//EN" "http://www.w3.org/Graphics/SVG/1.1/DTD/svg11.dtd">
<svg width="100%" height="100%" viewBox="0 0 431 238" version="1.1" xmlns="http://www.w3.org/2000/svg" xmlns:xlink="http://www.w3.org/1999/xlink" xml:space="preserve" xmlns:serif="http://www.serif.com/" style="fill-rule:evenodd;clip-rule:evenodd;stroke-linejoin:round;stroke-miterlimit:2;">
    <g transform="matrix(1,0,0,1,0,-341.627)">
        <g id="docker-hub-stacked-color" transform="matrix(1,0,0,1,-77.3375,-810.507)">
            <rect x="77.337" y="1152.13" width="430.3" height="237.3" style="fill:none;"/>
            <g transform="matrix(1,0,0,1,292.487,1270.78)">
                <g transform="matrix(1,0,0,1,-215.15,-118.65)">
                    <g transform="matrix(1,0,0,1,-39.523,-53.8315)">
                        <g transform="matrix(0.86628,0,0,-0.86628,103.819,292.61)">
                            <g transform="matrix(1,0,0,1,0,2.30872)">
                                <path d="M292.132,207.986C291.479,208.511 285.379,213.112 272.522,213.112C269.308,213.112 265.916,212.82 262.392,212.241C259.907,229.298 245.829,237.606 245.175,237.983L241.718,239.973L239.443,236.698C239.273,236.454 235.271,230.63 233.308,222.342C231.003,212.612 232.403,203.472 237.348,195.651C231.376,192.328 221.842,191.46 219.861,191.436L61.266,191.436C57.128,191.436 53.746,188.074 53.73,183.942C53.669,169.355 56.073,155.26 60.682,143.181C66.148,128.856 74.279,118.309 84.848,111.835C96.698,104.575 115.992,100.413 137.782,100.413C147.978,100.413 158.139,101.333 167.167,103.073C181.396,105.818 194.313,110.507 205.557,117.01C215.383,122.696 224.224,129.935 231.736,138.447C244.306,152.661 251.79,168.535 257.356,182.585C258.095,182.554 258.834,182.539 259.574,182.539C273.333,182.539 281.79,188.038 286.463,192.652C291.53,197.655 293.333,202.645 293.522,203.197L294.506,206.079L292.132,207.986Z" style="fill:rgb(36,150,237);fill-rule:nonzero;"/>
                            </g>
                            <g transform="matrix(1,0,0,1,0,2.30872)">
                                <path d="M75.966,196.074L97.217,196.074C98.237,196.074 99.077,196.914 99.077,197.934L99.077,216.868C99.077,217.888 98.237,218.728 97.217,218.728L75.967,218.728C74.947,218.728 74.107,217.888 74.107,216.868L74.107,197.934C74.107,196.914 74.947,196.074 75.967,196.074M105.251,196.074L126.502,196.074C127.522,196.074 128.362,196.914 128.362,197.934L128.362,216.868C128.362,217.888 127.522,218.728 126.502,218.728L105.252,218.728C104.232,218.728 103.392,217.888 103.392,216.868L103.392,197.934C103.392,196.914 104.232,196.074 105.252,196.074M134.99,196.074L156.242,196.074C157.262,196.074 158.102,196.914 158.102,197.934L158.102,216.868C158.102,217.888 157.262,218.728 156.242,218.728L134.99,218.728C133.97,218.728 133.13,217.888 133.13,216.868L133.13,197.934C133.13,196.914 133.97,196.074 134.99,196.074M164.373,196.074L185.624,196.074C186.644,196.074 187.484,196.914 187.484,197.934L187.484,216.868C187.484,217.888 186.644,218.728 185.624,218.728L164.373,218.728C163.353,218.728 162.513,217.888 162.513,216.868L162.513,197.934C162.513,196.914 163.353,196.074 164.373,196.074M105.251,223.316L126.502,223.316C127.522,223.316 128.362,224.156 128.362,225.176L128.362,244.11C128.362,245.13 127.522,245.97 126.502,245.97L105.252,245.97C104.232,245.97 103.392,245.13 103.392,244.11L103.392,225.176C103.392,224.156 104.232,223.316 105.252,223.316M134.99,223.316L156.242,223.316C157.262,223.316 158.102,224.156 158.102,225.176L158.102,244.11C158.102,245.13 157.262,245.97 156.242,245.97L134.99,245.97C133.97,245.97 133.13,245.13 133.13,244.11L133.13,225.176C133.13,224.156 133.97,223.316 134.99,223.316M164.373,223.316L185.624,223.316C186.644,223.316 187.484,224.156 187.484,225.176L187.484,244.11C187.484,245.13 186.644,245.97 185.624,245.97L164.373,245.97C163.353,245.97 162.513,245.13 162.513,244.11L162.513,225.176C162.513,224.156 163.353,223.316 164.373,223.316M164.373,250.558L185.624,250.558C186.644,250.558 187.484,251.398 187.484,252.418L187.484,271.352C187.484,272.372 186.644,273.212 185.624,273.212L164.373,273.212C163.353,273.212 162.513,272.372 162.513,271.352L162.513,252.418C162.513,251.398 163.353,250.558 164.373,250.558M194.015,196.074L215.266,196.074C216.286,196.074 217.126,196.914 217.126,197.934L217.126,216.868C217.126,217.888 216.286,218.728 215.266,218.728L194.016,218.728C192.996,218.728 192.156,217.888 192.156,216.868L192.156,197.934C192.156,196.914 192.996,196.074 194.016,196.074" style="fill:rgb(36,150,237);fill-rule:nonzero;"/>
                            </g>
                        </g>
                        <g transform="matrix(0.743992,0,0,0.743992,32.2192,-228.99)">
                            <g transform="matrix(0.797658,0,0,0.863319,129.336,497.947)">
                                <g transform="matrix(140.411,0,0,129.732,317.215,232.119)">
                                    <path d="M0.552,0.001C0.537,0.001 0.525,-0.004 0.516,-0.014C0.506,-0.023 0.501,-0.035 0.501,-0.05L0.501,-0.296C0.501,-0.334 0.494,-0.365 0.48,-0.389C0.466,-0.413 0.447,-0.431 0.424,-0.443C0.4,-0.454 0.373,-0.46 0.342,-0.46C0.314,-0.46 0.289,-0.454 0.266,-0.443C0.243,-0.432 0.225,-0.417 0.212,-0.398C0.199,-0.379 0.192,-0.357 0.192,-0.332L0.129,-0.332C0.129,-0.374 0.139,-0.412 0.16,-0.445C0.18,-0.478 0.208,-0.504 0.243,-0.523C0.278,-0.542 0.318,-0.552 0.362,-0.552C0.408,-0.552 0.449,-0.542 0.486,-0.523C0.522,-0.503 0.551,-0.474 0.572,-0.436C0.592,-0.398 0.603,-0.351 0.603,-0.296L0.603,-0.05C0.603,-0.035 0.598,-0.023 0.589,-0.014C0.579,-0.004 0.567,0.001 0.552,0.001ZM0.141,0.001C0.126,0.001 0.114,-0.004 0.105,-0.014C0.095,-0.023 0.09,-0.035 0.09,-0.05L0.09,-0.496C0.09,-0.511 0.095,-0.524 0.105,-0.533C0.114,-0.542 0.126,-0.547 0.141,-0.547C0.156,-0.547 0.169,-0.542 0.178,-0.533C0.187,-0.524 0.192,-0.511 0.192,-0.496L0.192,-0.05C0.192,-0.035 0.187,-0.023 0.178,-0.014C0.169,-0.004 0.156,0.001 0.141,0.001ZM0.141,-0.199C0.126,-0.199 0.114,-0.204 0.105,-0.214C0.095,-0.223 0.09,-0.235 0.09,-0.25L0.09,-0.73C0.09,-0.745 0.095,-0.758 0.105,-0.767C0.114,-0.776 0.126,-0.781 0.141,-0.781C0.156,-0.781 0.169,-0.776 0.178,-0.767C0.187,-0.758 0.192,-0.745 0.192,-0.73L0.192,-0.25C0.192,-0.235 0.187,-0.223 0.178,-0.214C0.169,-0.204 0.156,-0.199 0.141,-0.199Z" style="fill:rgb(129,186,248);fill-rule:nonzero;"/>
                                </g>
                                <g transform="matrix(140.411,0,0,129.732,401.181,232.119)">
                                    <path d="M0.32,0.005C0.274,0.005 0.233,-0.005 0.197,-0.025C0.16,-0.044 0.132,-0.073 0.111,-0.111C0.09,-0.149 0.079,-0.196 0.079,-0.251L0.079,-0.497C0.079,-0.512 0.084,-0.524 0.094,-0.534C0.103,-0.543 0.115,-0.548 0.13,-0.548C0.145,-0.548 0.157,-0.543 0.167,-0.534C0.176,-0.524 0.181,-0.512 0.181,-0.497L0.181,-0.251C0.181,-0.214 0.188,-0.183 0.202,-0.159C0.216,-0.134 0.235,-0.116 0.259,-0.105C0.283,-0.093 0.31,-0.087 0.34,-0.087C0.369,-0.087 0.394,-0.093 0.417,-0.104C0.439,-0.115 0.457,-0.131 0.47,-0.15C0.483,-0.169 0.49,-0.191 0.49,-0.215L0.553,-0.215C0.553,-0.174 0.543,-0.136 0.523,-0.103C0.502,-0.07 0.474,-0.043 0.44,-0.024C0.405,-0.005 0.365,0.005 0.32,0.005ZM0.541,0C0.526,0 0.514,-0.005 0.505,-0.015C0.495,-0.024 0.49,-0.036 0.49,-0.051L0.49,-0.497C0.49,-0.512 0.495,-0.525 0.505,-0.534C0.514,-0.543 0.526,-0.548 0.541,-0.548C0.556,-0.548 0.569,-0.543 0.578,-0.534C0.587,-0.525 0.592,-0.512 0.592,-0.497L0.592,-0.051C0.592,-0.036 0.587,-0.024 0.578,-0.015C0.569,-0.005 0.556,0 0.541,0Z" style="fill:rgb(129,186,248);fill-rule:nonzero;"/>
                                </g>
                                <g transform="matrix(140.411,0,0,129.732,485.006,232.119)">
                                    <path d="M0.365,0.004C0.313,0.004 0.266,-0.008 0.225,-0.033C0.184,-0.057 0.151,-0.09 0.127,-0.132C0.103,-0.174 0.091,-0.221 0.09,-0.274L0.09,-0.73C0.09,-0.745 0.095,-0.758 0.105,-0.767C0.114,-0.776 0.126,-0.781 0.141,-0.781C0.156,-0.781 0.169,-0.776 0.178,-0.767C0.187,-0.758 0.192,-0.745 0.192,-0.73L0.192,-0.46C0.215,-0.488 0.244,-0.51 0.277,-0.527C0.31,-0.543 0.346,-0.551 0.385,-0.551C0.434,-0.551 0.477,-0.539 0.516,-0.515C0.555,-0.49 0.585,-0.457 0.608,-0.416C0.63,-0.374 0.641,-0.327 0.641,-0.274C0.641,-0.221 0.629,-0.174 0.605,-0.132C0.58,-0.09 0.547,-0.057 0.506,-0.033C0.465,-0.008 0.418,0.004 0.365,0.004ZM0.365,-0.086C0.399,-0.086 0.429,-0.094 0.456,-0.111C0.483,-0.127 0.504,-0.149 0.52,-0.178C0.535,-0.207 0.543,-0.239 0.543,-0.274C0.543,-0.31 0.535,-0.342 0.52,-0.37C0.504,-0.398 0.483,-0.42 0.456,-0.437C0.429,-0.453 0.399,-0.461 0.365,-0.461C0.332,-0.461 0.302,-0.453 0.275,-0.437C0.248,-0.42 0.226,-0.398 0.211,-0.37C0.196,-0.342 0.188,-0.31 0.188,-0.274C0.188,-0.239 0.196,-0.207 0.211,-0.178C0.226,-0.149 0.248,-0.127 0.275,-0.111C0.302,-0.094 0.332,-0.086 0.365,-0.086Z" style="fill:rgb(129,186,248);fill-rule:nonzero;"/>
                                </g>
                            </g>
                            <g transform="matrix(1.15421,0,0,-1.15224,6.752,701.389)">
                                <g>
                                    <g>
                                        <path d="M44.998,23.316C44.148,21.331 42.933,19.524 41.415,17.988C39.887,16.447 38.078,15.214 36.085,14.355C34.045,13.462 31.864,13.016 29.537,13.016C27.179,13.016 24.981,13.462 22.941,14.356C20.901,15.246 19.131,16.449 17.638,17.963C16.138,19.476 14.952,21.253 14.076,23.293C13.199,25.33 12.761,27.499 12.761,29.793C12.761,32.086 13.199,34.253 14.076,36.293C14.952,38.33 16.138,40.108 17.638,41.623C19.132,43.133 20.901,44.337 22.941,45.231C24.981,46.121 27.179,46.568 29.537,46.568C31.864,46.568 34.046,46.121 36.086,45.231C38.124,44.337 39.902,43.127 41.415,41.598C42.932,40.061 44.148,38.253 44.998,36.268C45.874,34.244 46.313,32.086 46.313,29.792C46.313,27.499 45.873,25.338 44.998,23.316M51.285,79.5C49.85,79.5 48.662,79.028 47.724,78.09C46.782,77.15 46.313,75.963 46.313,74.53L46.313,50.68C41.47,54.6 35.877,56.558 29.537,56.558C22.144,56.558 15.835,53.946 10.61,48.72C5.384,43.492 2.772,37.186 2.772,29.793C2.772,22.401 5.384,16.091 10.61,10.866C15.835,5.64 22.144,3.029 29.537,3.029C36.865,3.029 43.174,5.64 48.464,10.866C53.69,16.029 56.302,22.338 56.302,29.793L56.302,74.53C56.302,75.963 55.816,77.15 54.844,78.09C53.872,79.028 52.686,79.5 51.284,79.5M103.71,23.316C102.859,21.331 101.643,19.523 100.124,17.988C98.597,16.448 96.788,15.214 94.796,14.355C92.756,13.462 90.573,13.016 88.247,13.016C85.889,13.016 83.69,13.462 81.653,14.356C79.613,15.246 77.844,16.449 76.347,17.963C74.848,19.476 73.662,21.253 72.785,23.293C71.909,25.33 71.471,27.499 71.471,29.793C71.471,32.086 71.909,34.253 72.785,36.293C73.662,38.33 74.848,40.108 76.347,41.623C77.844,43.133 79.613,44.337 81.653,45.231C83.69,46.121 85.889,46.568 88.247,46.568C90.573,46.568 92.757,46.121 94.797,45.231C96.834,44.337 98.611,43.127 100.124,41.598C101.642,40.062 102.859,38.253 103.71,36.268C104.585,34.244 105.022,32.086 105.022,29.792C105.022,27.499 104.585,25.338 103.71,23.316M107.174,48.719C101.884,53.945 95.575,56.557 88.247,56.557C80.854,56.557 74.545,53.945 69.322,48.719C64.094,43.491 61.482,37.185 61.482,29.792C61.482,22.4 64.094,16.09 69.322,10.865C74.545,5.639 80.854,3.028 88.247,3.028C95.575,3.028 101.884,5.639 107.174,10.865C112.399,16.028 115.014,22.337 115.014,29.792C114.98,33.487 114.319,36.913 113.029,40.067C111.739,43.222 109.789,46.105 107.174,48.719M217.835,51.587C217.835,52.257 217.702,52.893 217.43,53.497C217.168,54.09 216.804,54.633 216.354,55.1C215.906,55.561 215.369,55.927 214.776,56.177C214.155,56.433 213.488,56.563 212.816,56.557C211.869,56.568 210.939,56.302 210.14,55.794L181.56,37.2L181.56,74.48C181.56,75.88 181.073,77.067 180.101,78.042C179.131,79.011 177.959,79.499 176.588,79.499C175.184,79.499 173.999,79.011 173.029,78.042C172.057,77.067 171.569,75.881 171.569,74.48L171.569,8.047C171.569,6.677 172.057,5.495 173.029,4.51C173.999,3.522 175.184,3.028 176.588,3.028C177.959,3.028 179.131,3.522 180.101,4.51C181.073,5.495 181.56,6.677 181.56,8.047L181.56,25.3L187.391,29.122L209.473,4.317C210.362,3.456 211.479,3.027 212.816,3.027C213.517,3.027 214.171,3.153 214.776,3.409C215.381,3.663 215.906,4.022 216.354,4.484C216.801,4.944 217.159,5.481 217.43,6.086C217.702,6.689 217.835,7.329 217.835,7.996C217.835,9.303 217.372,10.466 216.449,11.486L195.898,34.62L215.924,47.62C217.196,48.482 217.835,49.8 217.835,51.587M134.917,41.67C136.459,43.192 138.275,44.407 140.269,45.253C142.309,46.13 144.492,46.568 146.818,46.568C148.921,46.568 150.863,46.217 152.649,45.518C154.431,44.816 156.138,43.778 157.762,42.411C158.678,41.66 159.828,41.254 161.012,41.263C162.447,41.263 163.632,41.741 164.573,42.698C165.512,43.654 165.984,44.848 165.984,46.281C165.984,47.779 165.41,49.038 164.262,50.059C159.354,54.389 153.542,56.557 146.818,56.557C139.424,56.557 133.115,53.945 127.892,48.72C122.666,43.492 120.052,37.185 120.052,29.792C120.052,22.4 122.666,16.091 127.892,10.865C133.115,5.64 139.424,3.028 146.818,3.028C153.508,3.028 159.323,5.194 164.262,9.528C165.314,10.581 165.839,11.804 165.839,13.208C165.839,14.643 165.368,15.828 164.431,16.77C163.49,17.708 162.302,18.18 160.869,18.18C159.659,18.147 158.607,17.797 157.715,17.128C156.122,15.758 154.431,14.73 152.649,14.044C150.863,13.359 148.921,13.017 146.818,13.017C144.492,13.017 142.309,13.455 140.269,14.331C138.23,15.208 136.445,16.401 134.917,17.915C133.378,19.439 132.153,21.25 131.309,23.245C130.432,25.283 129.994,27.465 129.994,29.792C129.994,32.117 130.432,34.302 131.309,36.342C132.154,38.336 133.379,40.146 134.917,41.67M317.112,53.213C316.22,54.073 315.096,54.748 313.745,55.244C312.308,55.756 310.816,56.101 309.3,56.272C307.801,56.456 306.292,56.551 304.781,56.557C301.595,56.557 298.599,56.047 295.796,55.028C292.976,53.999 290.344,52.513 288.006,50.63L288.006,51.587C288.006,52.955 287.52,54.128 286.549,55.1C285.579,56.071 284.404,56.557 283.036,56.557C281.632,56.557 280.446,56.071 279.474,55.1C278.504,54.128 278.016,52.955 278.016,51.587L278.016,7.998C278.016,6.628 278.504,5.458 279.474,4.485C280.446,3.512 281.632,3.028 283.036,3.028C284.404,3.028 285.578,3.512 286.549,4.485C287.52,5.457 288.006,6.628 288.006,7.998L288.006,29.792C288.006,32.117 288.446,34.302 289.32,36.342C290.197,38.379 291.391,40.154 292.904,41.67C294.435,43.194 296.245,44.41 298.234,45.253C300.272,46.13 302.455,46.568 304.781,46.568C307.139,46.568 309.322,46.17 311.331,45.374C312.125,45.022 312.828,44.848 313.433,44.848C314.106,44.841 314.772,44.972 315.393,45.231C315.987,45.477 316.524,45.843 316.97,46.306C317.415,46.766 317.773,47.3 318.045,47.907C318.316,48.51 318.452,49.164 318.452,49.867C318.452,51.235 318.005,52.352 317.112,53.213M229.755,34.7C230.262,36.45 231.045,38.05 232.095,39.503C233.132,40.937 234.391,42.196 235.825,43.233C237.271,44.272 238.865,45.085 240.555,45.645C242.275,46.217 244.045,46.505 245.861,46.505C247.676,46.505 249.436,46.217 251.141,45.645C252.816,45.085 254.395,44.271 255.823,43.232C257.25,42.188 258.507,40.93 259.551,39.503C260.621,38.049 261.438,36.426 261.967,34.7L229.755,34.7ZM270.666,40.028C269.358,43.199 267.398,46.075 264.789,48.655C259.496,53.881 253.187,56.493 245.861,56.493C238.466,56.493 232.157,53.881 226.934,48.655C221.706,43.427 219.094,37.12 219.094,29.728C219.094,22.336 221.706,16.026 226.934,10.801C232.157,5.575 238.466,2.964 245.861,2.964C252.582,2.964 258.413,5.131 263.353,9.464L263.55,9.644C263.984,10.006 264.351,10.395 264.677,10.884C266.271,13.262 265.701,16.437 263.404,17.976C261.467,19.273 258.934,18.976 257.229,17.427C257.069,17.279 256.599,16.843 256.519,16.777C256.495,16.757 256.472,16.737 256.449,16.717C254.969,15.471 253.367,14.535 251.643,13.909C249.887,13.27 247.963,12.952 245.861,12.952C244.011,12.952 242.235,13.239 240.529,13.812C238.853,14.372 237.274,15.186 235.846,16.226C234.423,17.266 233.174,18.525 232.144,19.956C231.086,21.413 230.279,23.036 229.755,24.759L267.607,24.759C269.007,24.759 270.194,25.227 271.167,26.169C272.138,27.107 272.627,28.296 272.627,29.729C272.627,33.423 271.969,36.856 270.667,40.029" style="fill:rgb(36,150,237);fill-rule:nonzero;"/>
                                    </g>
                                </g>
                            </g>
                        </g>
                    </g>
                </g>
            </g>
        </g>
    </g>
</svg>
