<?xml version="1.0" encoding="UTF-8"?>
<svg width="64px" height="65px" viewBox="0 0 64 65" version="1.1" xmlns="http://www.w3.org/2000/svg" xmlns:xlink="http://www.w3.org/1999/xlink">
    <!-- Generator: Sketch 60.1 (88133) - https://sketch.com -->
    <title>weaveworks-icon</title>
    <desc>Created with Sketch.</desc>
    <g id="Page-1" stroke="none" stroke-width="1" fill="none" fill-rule="evenodd">
        <g id="weaveworks-icon" fill-rule="nonzero">
            <g id="Clipped" transform="translate(0.530869, 2.079040)" fill="#32324B">
                <path d="M18.2648303,34.3326219 L50.8869973,5.2080893 C48.2974026,3.1565922 45.405128,1.5086683 42.2438046,0.3652109 L18.2648303,21.7882216 L18.2648303,34.3326219 Z M8.8817534,30.1287344 L0.0367741,38.0320429 C0.837026935,41.2601825 2.13019883,44.3456453 3.8707195,47.1797021 L8.8817534,42.7067658 L8.8817534,30.1287344 Z" id="Shape"></path>
            </g>
            <g id="Clipped" transform="translate(26.530869, 0.079040)" fill="#00D2FF">
                <path d="M9.6857401,8.1833912 L9.6857401,0.717287 C8.2059717,0.5155004 6.6589411,0.380976 5.1119105,0.380976 C3.4976177,0.380976 1.8833249,0.5155004 0.3362943,0.7509181 L0.3362943,16.5911662 L9.6857401,8.1833912 Z M9.6857401,52.2065011 L9.6857401,20.7614226 L0.3026632,29.1355665 L0.3026632,64.0110172 C1.8496938,64.2464349 3.4639866,64.3810136 5.0782794,64.3810136 C6.95073847,64.3844912 8.81954637,64.215623 10.661042,63.8764928 L35.7498426,41.4781802 C36.5906201,38.5859056 37.0614555,35.5591066 37.0614555,32.3977832 C37.0614555,30.9180148 36.9605622,29.4382464 36.7587756,28.0257402 L9.6857401,52.2065011 Z" id="Shape"></path>
            </g>
            <g id="Clipped" transform="translate(8.530869, 3.079040)" fill="#FF4B19">
                <path d="M27.6857401,39.9579486 L52.8081718,17.4923738 C51.5974522,14.4992059 49.9831594,11.7078246 47.9652934,9.2527543 L27.652109,27.3799172 L27.652109,39.9579486 L27.6857401,39.9579486 Z M18.3362943,35.7876922 L10.2648303,42.9847476 L10.2648303,0.071464 C6.7671959,1.6184946 3.6058725,3.7372539 0.8817534,6.3604797 L0.8817534,52.3678245 C3.0005127,54.4193216 5.3883208,56.1681388 7.9779155,57.580645 L18.3026632,48.3657236 L18.3026632,35.7876922 L18.3362943,35.7876922 Z" id="Shape"></path>
            </g>
        </g>
    </g>
</svg>