<?xml version="1.0" encoding="UTF-8"?>
<svg width="109px" height="105px" viewBox="0 0 109 105" version="1.1" xmlns="http://www.w3.org/2000/svg" xmlns:xlink="http://www.w3.org/1999/xlink">
    <!-- Generator: Sketch 60.1 (88133) - https://sketch.com -->
    <title>calico-icon 2</title>
    <desc>Created with Sketch.</desc>
    <g id="Page-1" stroke="none" stroke-width="1" fill="none" fill-rule="evenodd">
        <g id="calico-icon-2" fill-rule="nonzero">
            <g id="calico-icon">
                <g id="path5630-Clipped" transform="translate(58.000000, 1.000000)" fill="#754C29">
                    <path d="M38.674,41.718 C38.49,44.13 33.977,40.979 32.444,42.715 L0.949,23.466 C1.794,21.309 2.844,19.184 4.106,17.119 C10.748,6.252 25.029,-4.784 32.175,3.172 C37.054,8.606 39.745,27.673 38.674,41.718" id="path5630"></path>
                </g>
                <g id="path5632-Clipped" transform="translate(57.000000, 0.000000)" fill="#000000">
                    <path d="M33.723,45.601 L32.682,44.96 L0.143,25.073 L0.59,23.933 C1.477,21.669 2.578,19.456 3.861,17.358 C9.003,8.943 18.881,0 27.058,0 C29.933,0 32.356,1.076 34.261,3.197 C39.634,9.18 42.193,28.885 41.13,42.829 C41.045,43.94 40.314,45.128 38.518,45.128 C37.903,45.128 37.237,44.994 36.594,44.864 C36.011,44.746 35.41,44.624 34.949,44.624 C34.631,44.624 34.535,44.683 34.534,44.684 L33.723,45.601 Z M34.949,41.705 C35.702,41.705 36.483,41.863 37.173,42.002 C37.552,42.079 37.942,42.158 38.248,42.192 C39.266,27.735 36.304,9.842 32.089,5.147 C30.743,3.648 29.097,2.92 27.058,2.92 C20.203,2.92 11.147,11.035 6.352,18.88 C5.372,20.483 4.507,22.157 3.772,23.869 L33.415,41.986 C33.86,41.799 34.372,41.705 34.949,41.705" id="path5632"></path>
                </g>
                <g id="path5634-Clipped" transform="translate(73.000000, 17.000000)" fill="#000000">
                    <path d="M13.689,16.161 C13.628,16.964 0.408,9.193 0.408,9.193 C0.689,8.476 1.038,7.769 1.458,7.082 C3.668,3.467 8.315,-2.154 10.82,1.12 C11.489,1.995 14.045,11.489 13.689,16.161" id="path5634"></path>
                </g>
                <g id="path5636-Clipped" transform="translate(71.000000, 15.000000)" fill="#000000">
                    <path d="M15.588,19.678 C15.186,19.678 13.965,19.678 1.668,12.451 L0.594,11.82 L1.049,10.66 C1.366,9.852 1.758,9.064 2.213,8.32 C3.309,6.526 7.181,0.673 10.987,0.673 C11.807,0.673 12.993,0.944 13.979,2.233 C15.047,3.629 17.502,13.585 17.144,18.271 C17.083,19.075 16.414,19.678 15.588,19.678 M4.279,10.596 C8.07,12.804 12.047,15.02 14.23,16.104 C13.958,11.532 12.117,4.827 11.613,3.938 C11.343,3.592 11.112,3.592 10.987,3.592 C9.605,3.592 6.845,6.338 4.704,9.843 C4.553,10.09 4.411,10.341 4.279,10.596" id="path5636"></path>
                </g>
                <g id="path5638-Clipped" transform="translate(83.000000, 4.000000)" fill="#3C2415">
                    <path d="M7.723,0.932 L0.153,7.659 C0.153,7.659 8.708,5.835 9.052,4.296 C9.395,2.756 7.723,0.932 7.723,0.932" id="path5638"></path>
                </g>
                <g id="path5640-Clipped" transform="translate(10.000000, 2.000000)" fill="#F7941E">
                    <path d="M1.138,41.691 C1.322,44.103 5.835,40.952 7.368,42.688 L38.863,23.439 C38.018,21.282 36.968,19.157 35.706,17.092 C29.064,6.225 14.783,-4.811 7.637,3.145 C2.758,8.579 0.067,27.646 1.138,41.691" id="path5640"></path>
                </g>
                <g id="path5642-Clipped" transform="translate(14.000000, 8.000000)" fill="#F47729">
                    <path d="M2.106,0.295 L11.072,7.022 C11.072,7.022 0.939,5.198 0.532,3.659 C0.126,2.119 2.106,0.295 2.106,0.295" id="path5642"></path>
                </g>
                <g id="path5644-Clipped" transform="translate(11.000000, 14.000000)" fill="#F47729">
                    <path d="M1.94,0.429 L8.774,5.266 C8.774,5.266 1.05,3.955 0.741,2.848 C0.431,1.741 1.94,0.429 1.94,0.429" id="path5644"></path>
                </g>
                <g id="path5646-Clipped" transform="translate(9.000000, 0.000000)" fill="#000000">
                    <path d="M8.107,46.558 L7.276,45.656 C7.262,45.648 7.159,45.598 6.863,45.598 C6.402,45.598 5.8,45.719 5.218,45.837 C4.575,45.967 3.909,46.102 3.295,46.102 L3.294,46.102 C1.498,46.102 0.767,44.914 0.682,43.802 C-0.381,29.858 2.179,10.152 7.551,4.17 C9.456,2.049 11.879,0.974 14.754,0.974 C22.931,0.974 32.809,9.916 37.951,18.331 C39.234,20.43 40.335,22.642 41.222,24.906 L41.669,26.046 L8.107,46.558 L8.107,46.558 Z M14.754,3.893 C12.715,3.893 11.069,4.622 9.723,6.121 C5.506,10.816 2.544,28.721 3.563,43.165 C3.87,43.131 4.26,43.052 4.64,42.976 C5.857,42.728 7.37,42.527 8.397,42.959 L38.04,24.842 C37.305,23.13 36.44,21.456 35.46,19.853 C30.665,12.008 21.609,3.893 14.754,3.893" id="path5646"></path>
                </g>
                <g id="path5648-Clipped" transform="translate(21.000000, 18.000000)" fill="#000000">
                    <path d="M0.122,16.134 C0.183,16.937 13.403,9.166 13.403,9.166 C13.122,8.449 12.773,7.742 12.353,7.055 C10.143,3.44 5.496,-2.181 2.991,1.093 C2.322,1.968 -0.234,11.462 0.122,16.134" id="path5648"></path>
                </g>
                <g id="path5650-Clipped" transform="translate(19.000000, 16.000000)" fill="#000000">
                    <path d="M2.227,19.652 L2.223,19.652 C1.397,19.652 0.728,19.047 0.667,18.245 C0.309,13.559 2.764,3.603 3.832,2.207 C4.818,0.918 6.004,0.647 6.824,0.647 C10.63,0.647 14.502,6.5 15.598,8.294 C16.053,9.038 16.445,9.826 16.762,10.634 L17.217,11.794 L16.143,12.425 C3.887,19.628 2.633,19.652 2.227,19.652 M6.824,3.566 C6.699,3.566 6.468,3.566 6.151,3.98 C5.687,4.81 3.853,11.507 3.58,16.078 C5.764,14.994 9.741,12.777 13.532,10.57 C13.4,10.314 13.258,10.063 13.108,9.817 C10.966,6.312 8.206,3.566 6.824,3.566" id="path5650"></path>
                </g>
                <g id="path5660-Clipped" transform="translate(90.000000, 88.000000)" fill="#533414">
                    <path d="M4.288,0.033 C3.107,1.13 1.857,2.172 0.537,3.172 C0.871,3.839 1.204,4.492 1.524,5.173 C2.718,3.547 3.649,1.825 4.288,0.033" id="path5660"></path>
                </g>
                <g id="path5664-Clipped" transform="translate(31.000000, 21.000000)" fill="#F7941E">
                    <path d="M59.081,34.831 C59.081,28.465 62.341,22.781 67.448,19.036 C58.004,8.046 41.758,0.786 23.29,0.786 C22.668,0.786 22.053,0.806 21.437,0.822 C22.953,6.648 23.451,13.37 23.29,20.364 C23.29,46.56 13.774,68.907 0.389,77.686 C7.317,80.241 15.085,81.673 23.29,81.673 C46.727,81.673 66.588,69.985 73.5,53.81 C65.055,50.813 59.081,43.448 59.081,34.831" id="path5664"></path>
                </g>
                <g id="path5666-Clipped" transform="translate(29.000000, 20.000000)" fill="#000000">
                    <path d="M25.29,84.133 C17.094,84.133 9.219,82.762 1.884,80.056 C1.367,79.866 1.001,79.4 0.939,78.852 C0.876,78.304 1.127,77.768 1.588,77.466 C14.892,68.74 23.83,46.195 23.83,21.365 C24.002,13.898 23.394,7.458 22.024,2.19 C21.912,1.759 22.003,1.301 22.27,0.945 C22.538,0.589 22.953,0.375 23.399,0.364 L23.673,0.356 C24.21,0.342 24.748,0.327 25.29,0.327 C43.54,0.327 60.461,7.34 70.555,19.086 C70.82,19.394 70.944,19.799 70.898,20.203 C70.852,20.607 70.639,20.974 70.311,21.214 C65.373,24.834 62.54,30.162 62.54,35.831 C62.54,43.626 67.819,50.536 75.988,53.435 C76.368,53.57 76.675,53.855 76.837,54.224 C76.998,54.594 77,55.013 76.842,55.384 C69.494,72.58 48.776,84.133 25.29,84.133 M5.525,78.22 C11.778,80.208 18.413,81.214 25.29,81.214 C46.983,81.214 66.134,70.985 73.533,55.611 C65.031,52.007 59.621,44.392 59.621,35.831 C59.621,29.725 62.409,23.982 67.325,19.849 C57.677,9.427 42.097,3.246 25.29,3.246 L25.278,3.246 C26.414,8.413 26.908,14.509 26.749,21.399 C26.749,46.09 18.501,67.959 5.525,78.22" id="path5666"></path>
                </g>
                <g id="path5668-Clipped" transform="translate(1.000000, 21.000000)" fill="#754C29">
                    <path d="M53.29,20.364 C53.29,13.528 52.632,6.962 51.437,0.822 C23.12,1.57 0.46,19.369 0.46,41.229 C0.46,57.285 12.681,71.155 30.389,77.686 C43.774,68.906 52.684,46.553 53.29,20.364" id="path5668"></path>
                </g>
                <g id="path5670-Clipped" transform="translate(0.000000, 20.000000)" fill="#000000">
                    <path d="M31.389,80.146 C31.218,80.146 31.047,80.117 30.884,80.056 C12.123,73.137 0,58.289 0,42.23 C0,19.53 23.016,1.14 52.398,0.363 C53.09,0.336 53.733,0.843 53.869,1.543 C55.117,7.951 55.749,14.62 55.749,21.365 C55.134,47.956 45.887,70.922 32.19,79.907 C31.948,80.065 31.67,80.146 31.389,80.146 M51.234,3.325 C24.042,4.529 2.919,21.44 2.919,42.23 C2.919,56.856 13.992,70.46 31.196,77.055 C43.78,68.295 52.247,46.553 52.83,21.331 C52.83,15.233 52.293,9.173 51.234,3.325" id="path5670"></path>
                </g>
                <g id="path5672-Clipped" transform="translate(4.000000, 47.000000)" fill="#3C2415">
                    <path d="M1.742,0.511 L10.708,7.238 C10.708,7.238 0.575,5.414 0.168,3.875 C-0.238,2.335 1.742,0.511 1.742,0.511" id="path5672"></path>
                </g>
                <g id="path5674-Clipped" transform="translate(1.000000, 53.000000)" fill="#3C2415">
                    <path d="M2.448,0.162 L12.87,6.889 C12.87,6.889 1.091,5.065 0.619,3.526 C0.146,1.986 2.448,0.162 2.448,0.162" id="path5674"></path>
                </g>
                <g id="path5676-Clipped" transform="translate(68.000000, 63.000000)" fill="#F47729">
                    <path d="M18.766,10.408 C18.766,4.701 14.497,0.075 9.23,0.075 C5.465,0.075 2.219,2.445 0.669,5.878 C8.987,8.159 14.578,12.491 14.578,18.241 C14.578,18.501 14.53,18.755 14.508,19.012 C17.074,17.16 18.766,13.999 18.766,10.408" id="path5676"></path>
                </g>
                <g id="path5678-Clipped" transform="translate(52.000000, 21.000000)" fill="#754C29">
                    <path d="M0.437,0.822 C1.632,6.962 2.29,13.529 2.29,20.364 C2.451,13.37 1.953,6.648 0.437,0.822" id="path5678"></path>
                </g>
                <g id="path5680-Clipped" transform="translate(50.000000, 20.000000)" fill="#000000">
                    <path d="M4.291,22.824 L4.273,22.824 C3.474,22.815 2.831,22.164 2.831,21.365 C2.831,14.806 2.216,8.325 1.005,2.101 C0.854,1.327 1.345,0.573 2.114,0.399 C2.882,0.221 3.652,0.691 3.85,1.454 C5.289,6.985 5.928,13.695 5.75,21.398 C5.731,22.192 5.083,22.824 4.291,22.824" id="path5680"></path>
                </g>
                <g id="path5682-Clipped" transform="translate(90.000000, 40.000000)" fill="#754C29">
                    <path d="M8.448,0.036 C3.341,3.78 0.081,9.465 0.081,15.831 C0.081,24.448 6.055,31.813 14.5,34.81 C16.192,30.849 17.12,26.623 17.12,22.229 C17.12,14.032 13.924,6.408 8.448,0.036" id="path5682"></path>
                </g>
                <g id="path5684-Clipped" transform="translate(88.000000, 38.000000)" fill="#000000">
                    <path d="M17.304,38.644 L16.012,38.186 C6.663,34.868 0.622,26.878 0.622,17.831 C0.622,11.221 3.889,5.036 9.585,0.859 L10.675,0.061 L11.555,1.085 C17.459,7.955 20.579,15.958 20.579,24.23 C20.579,28.708 19.659,33.133 17.842,37.384 L17.304,38.644 Z M10.231,4.061 C5.962,7.639 3.541,12.589 3.541,17.831 C3.541,25.203 8.262,31.783 15.684,34.927 C16.996,31.447 17.66,27.855 17.66,24.23 C17.66,17.089 15.097,10.144 10.231,4.061" id="path5684"></path>
                </g>
                <g id="path5686-Clipped" transform="translate(27.000000, 38.000000)" fill="#000000">
                    <path d="M24.557,9.632 C25.387,15.425 20.608,20.881 13.881,21.819 C7.155,22.756 1.029,18.82 0.198,13.028 C-0.632,7.235 4.148,1.779 10.874,0.841 C17.601,-0.097 23.727,3.839 24.557,9.632" id="path5686"></path>
                </g>
                <g id="path5688-Clipped" transform="translate(30.000000, 43.000000)" fill="#FFFFFF">
                    <path d="M18.77,6.653 C19.374,10.865 15.898,14.833 11.007,15.514 C6.116,16.196 1.661,13.334 1.058,9.122 C0.454,4.91 3.929,0.942 8.821,0.261 C13.712,-0.421 18.166,2.441 18.77,6.653" id="path5688"></path>
                </g>
                <g id="path5690-Clipped" transform="translate(36.000000, 48.000000)" fill="#000000">
                    <path d="M7.238,2.851 C7.445,4.47 6.124,5.973 4.288,6.207 C2.452,6.442 0.796,5.319 0.589,3.7 C0.382,2.081 1.703,0.579 3.539,0.344 C5.375,0.11 7.031,1.232 7.238,2.851" id="path5690"></path>
                </g>
                <g id="path5692-Clipped" transform="translate(25.000000, 38.000000)" fill="#000000">
                    <path d="M4.84,3.542 C4.722,3.542 4.602,3.52 4.485,3.474 L1.09,2.143 C0.59,1.946 0.343,1.382 0.54,0.881 C0.736,0.381 1.299,0.134 1.801,0.331 L5.196,1.663 C5.696,1.859 5.943,2.423 5.746,2.924 C5.596,3.307 5.229,3.542 4.84,3.542" id="path5692"></path>
                </g>
                <g id="path5694-Clipped" transform="translate(27.000000, 34.000000)" fill="#000000">
                    <path d="M5.539,5.243 C5.346,5.243 5.151,5.186 4.981,5.066 L0.91,2.21 C0.47,1.901 0.364,1.294 0.673,0.854 C0.981,0.415 1.587,0.307 2.028,0.617 L6.099,3.473 C6.539,3.782 6.645,4.389 6.336,4.829 C6.147,5.098 5.846,5.243 5.539,5.243" id="path5694"></path>
                </g>
                <g id="path5696-Clipped" transform="translate(59.000000, 38.000000)" fill="#000000">
                    <path d="M0.265,9.632 C-0.565,15.425 4.214,20.881 10.941,21.819 C17.667,22.756 23.793,18.82 24.624,13.028 C25.454,7.235 20.674,1.779 13.948,0.841 C7.221,-0.097 1.095,3.839 0.265,9.632" id="path5696"></path>
                </g>
                <g id="path5698-Clipped" transform="translate(61.000000, 43.000000)" fill="#FFFFFF">
                    <path d="M1.053,6.653 C0.449,10.865 3.925,14.833 8.816,15.514 C13.707,16.196 18.162,13.334 18.765,9.122 C19.369,4.91 15.894,0.942 11.002,0.261 C6.111,-0.421 1.657,2.441 1.053,6.653" id="path5698"></path>
                </g>
                <g id="path5700-Clipped" transform="translate(67.000000, 48.000000)" fill="#000000">
                    <path d="M0.584,2.851 C0.377,4.47 1.698,5.973 3.534,6.207 C5.37,6.442 7.026,5.319 7.233,3.7 C7.44,2.081 6.119,0.579 4.283,0.344 C2.447,0.11 0.791,1.232 0.584,2.851" id="path5700"></path>
                </g>
                <g id="path5702-Clipped" transform="translate(80.000000, 38.000000)" fill="#000000">
                    <path d="M0.983,3.542 C0.594,3.542 0.227,3.307 0.077,2.924 C-0.12,2.423 0.127,1.859 0.627,1.663 L4.022,0.331 C4.522,0.134 5.087,0.381 5.283,0.881 C5.48,1.382 5.233,1.946 4.733,2.143 L1.338,3.474 C1.22,3.52 1.1,3.542 0.983,3.542" id="path5702"></path>
                </g>
                <g id="path5704-Clipped" transform="translate(77.000000, 34.000000)" fill="#000000">
                    <path d="M1.284,5.243 C0.977,5.243 0.676,5.098 0.487,4.829 C0.178,4.389 0.284,3.782 0.724,3.473 L4.795,0.617 C5.236,0.306 5.843,0.415 6.151,0.854 C6.46,1.294 6.353,1.901 5.913,2.21 L1.842,5.066 C1.672,5.186 1.477,5.243 1.284,5.243" id="path5704"></path>
                </g>
                <g id="path5706-Clipped" transform="translate(25.000000, 67.000000)" fill="#FFFFFF">
                    <path d="M57.578,14.241 C57.578,22.93 44.857,29.973 29.164,29.973 C13.472,29.973 0.75,22.93 0.75,14.241 C0.75,5.552 13.472,0.072 29.164,0.072 C44.857,0.072 57.578,5.552 57.578,14.241" id="path5706"></path>
                </g>
                <g id="path5708-Clipped" transform="translate(25.000000, 81.000000)" fill="#E6E7E8">
                    <path d="M29.319,12.952 C19.021,13.012 9.403,10.355 0.75,0.242 C1.445,10.845 14.4,15.512 28.945,15.512 C44.632,15.512 55.982,9.542 57.358,0.242 C49.255,9.079 43.878,12.867 29.319,12.952" id="path5708"></path>
                </g>
                <g id="path5710-Clipped" transform="translate(34.000000, 79.000000)" fill="#000000">
                    <path d="M20.663,13.328 C12.001,13.328 4.102,8.805 0.484,1.748 C0.239,1.27 0.428,0.684 0.906,0.439 C1.384,0.191 1.971,0.382 2.216,0.861 C5.504,7.272 12.725,11.382 20.663,11.382 C20.75,11.382 20.837,11.381 20.925,11.38 C28.644,11.292 35.74,7.233 39.002,1.04 C39.252,0.566 39.84,0.382 40.316,0.633 C40.792,0.883 40.974,1.472 40.724,1.947 C37.079,8.868 29.501,13.228 20.948,13.327 C20.853,13.328 20.758,13.328 20.663,13.328" id="path5710"></path>
                </g>
                <g id="path5712-Clipped" transform="translate(24.000000, 65.000000)" fill="#000000">
                    <path d="M30.164,33.433 C13.413,33.433 0.29,25.882 0.29,16.241 C0.29,7.039 12.575,0.613 30.164,0.613 C47.753,0.613 60.037,7.039 60.037,16.241 C60.037,25.882 46.915,33.433 30.164,33.433 M30.164,3.532 C14.545,3.532 3.209,8.877 3.209,16.241 C3.209,23.978 15.553,30.514 30.164,30.514 C44.774,30.514 57.118,23.978 57.118,16.241 C57.118,8.877 45.782,3.532 30.164,3.532" id="path5712"></path>
                </g>
                <g id="rect5714-Clipped" transform="translate(53.000000, 73.000000)" fill="#000000">
                    <rect id="rect5714" x="0.468" y="0.005" width="2.2780001" height="18.84"></rect>
                </g>
                <g id="path5716-Clipped" transform="translate(46.000000, 63.000000)" fill="#000000">
                    <path d="M16.929,5.014 C16.929,9.61 8.606,12.451 8.606,12.451 C8.606,12.451 0.284,9.61 0.284,5.014 C0.284,0.417 4.01,0.941 8.606,0.941 C13.203,0.941 16.929,0.417 16.929,5.014" id="path5716"></path>
                </g>
                <g id="path5718-Clipped" transform="translate(49.000000, 66.000000)" fill="#A7A9AC">
                    <path d="M11.018,0.952 C11.018,1.465 8.595,1.882 5.606,1.882 C2.617,1.882 0.194,1.465 0.194,0.952 C0.194,0.439 2.617,0.022 5.606,0.022 C8.595,0.022 11.018,0.439 11.018,0.952" id="path5718"></path>
                </g>
                <g id="path5736-Clipped" transform="translate(70.000000, 74.000000)" fill="#E6E7E8">
                    <path d="M3.046,2.008 C3.046,2.785 2.416,3.416 1.639,3.416 C0.861,3.416 0.231,2.785 0.231,2.008 C0.231,1.231 0.861,0.601 1.639,0.601 C2.416,0.601 3.046,1.232 3.046,2.008" id="path5736"></path>
                </g>
                <g id="path5738-Clipped" transform="translate(67.000000, 71.000000)" fill="#E6E7E8">
                    <path d="M3.268,1.536 C3.268,2.313 2.638,2.943 1.86,2.943 C1.083,2.943 0.453,2.313 0.453,1.536 C0.453,0.759 1.083,0.128 1.86,0.128 C2.638,0.128 3.268,0.759 3.268,1.536" id="path5738"></path>
                </g>
                <g id="path5740-Clipped" transform="translate(66.000000, 76.000000)" fill="#E6E7E8">
                    <path d="M3.352,1.517 C3.352,2.294 2.722,2.924 1.945,2.924 C1.167,2.924 0.537,2.294 0.537,1.517 C0.537,0.74 1.167,0.109 1.945,0.109 C2.722,0.11 3.352,0.741 3.352,1.517" id="path5740"></path>
                </g>
                <g id="path5742-Clipped" transform="translate(36.000000, 74.000000)" fill="#E6E7E8">
                    <path d="M3.315,2.128 C3.315,2.905 2.685,3.536 1.907,3.536 C1.13,3.536 0.5,2.905 0.5,2.128 C0.5,1.351 1.13,0.721 1.907,0.721 C2.685,0.721 3.315,1.351 3.315,2.128" id="path5742"></path>
                </g>
                <g id="path5744-Clipped" transform="translate(40.000000, 76.000000)" fill="#E6E7E8">
                    <path d="M3.036,1.517 C3.036,2.294 2.406,2.924 1.629,2.924 C0.851,2.924 0.221,2.294 0.221,1.517 C0.221,0.74 0.851,0.109 1.629,0.109 C2.406,0.11 3.036,0.741 3.036,1.517" id="path5744"></path>
                </g>
                <g id="path5746-Clipped" transform="translate(39.000000, 71.000000)" fill="#E6E7E8">
                    <path d="M3.438,2.005 C3.438,2.782 2.808,3.413 2.031,3.413 C1.253,3.413 0.623,2.782 0.623,2.005 C0.623,1.228 1.253,0.598 2.031,0.598 C2.808,0.598 3.438,1.228 3.438,2.005" id="path5746"></path>
                </g>
                <g id="path5748-Clipped" transform="translate(71.000000, 75.000000)" fill="#000000">
                    <path d="M21.86,2.222 L21.848,2.222 L1.629,1.982 C1.091,1.976 0.661,1.535 0.666937966,0.997 C0.673,0.46 1.147,0.002 1.652,0.036 L21.871,0.276 C22.408,0.282 22.839,0.723 22.8330619,1.261 C22.826,1.794 22.392,2.222 21.86,2.222" id="path5748"></path>
                </g>
                <g id="path5750-Clipped" transform="translate(68.000000, 64.000000)" fill="#000000">
                    <path d="M1.862,9.439 C1.473,9.439 1.107,9.205 0.956,8.821 C0.759,8.321 1.005,7.756 1.506,7.56 L20.527,0.082 C21.028,-0.116 21.591,0.131 21.788,0.631 C21.985,1.131 21.739,1.696 21.238,1.893 L2.217,9.371 C2.101,9.417 1.98,9.439 1.862,9.439" id="path5750"></path>
                </g>
                <g id="path5752-Clipped" transform="translate(16.000000, 75.000000)" fill="#000000">
                    <path d="M0.995,2.222 C0.463,2.222 0.029,1.794 0.0219381076,1.261 C0.016,0.723 0.447,0.282 0.984,0.276 L21.203,0.036 L21.215,0.036 C21.747,0.036 22.182,0.464 22.188062,0.997 C22.194,1.535 21.764,1.976 21.226,1.982 L1.007,2.222 L0.995,2.222 Z" id="path5752"></path>
                </g>
                <g id="path5754-Clipped" transform="translate(19.000000, 64.000000)" fill="#000000">
                    <path d="M20.993,9.439 C20.875,9.439 20.754,9.417 20.638,9.371 L1.617,1.893 C1.116,1.696 0.87,1.131 1.067,0.631 C1.264,0.131 1.827,-0.116 2.328,0.082 L21.349,7.56 C21.85,7.756 22.096,8.321 21.899,8.821 C21.748,9.205 21.382,9.439 20.993,9.439" id="path5754"></path>
                </g>
            </g>
        </g>
    </g>
</svg>