<?xml version="1.0" encoding="UTF-8" standalone="no"?>
<!DOCTYPE svg PUBLIC "-//W3C//DTD SVG 1.1//EN" "http://www.w3.org/Graphics/SVG/1.1/DTD/svg11.dtd">
<svg width="100%" height="100%" viewBox="0 0 250 181" version="1.1" xmlns="http://www.w3.org/2000/svg" xmlns:xlink="http://www.w3.org/1999/xlink" xml:space="preserve" xmlns:serif="http://www.serif.com/" style="fill-rule:evenodd;clip-rule:evenodd;stroke-linejoin:round;stroke-miterlimit:2;">
    <g transform="matrix(1,0,0,1,0,-444.471)">
        <g id="ibm-cloud-kubernetes-stacked-color" transform="matrix(2.499,0,0,1.53218,-198.581,393.194)">
            <rect x="79.464" y="33.467" width="100" height="117.936" style="fill:none;"/>
            <clipPath id="_clip1">
                <rect x="79.464" y="33.467" width="100" height="117.936"/>
            </clipPath>
            <g clip-path="url(#_clip1)">
                <g transform="matrix(1.90627,0,0,1.71434,-106.221,-23.9067)">
                    <g transform="matrix(0.0123992,0,0,0.0224873,113.138,33.4664)">
                        <path d="M0,584.44C0,611.3 14.78,638.17 44.31,658.55L739.03,1137.96C798.11,1178.73 894.8,1178.74 953.89,1137.96L1648.66,658.62C1678.21,638.24 1692.98,611.36 1692.98,584.49L1692.98,1412.62C1692.98,1439.49 1678.21,1466.36 1648.66,1486.75L953.89,1966.09C894.8,2006.86 798.11,2006.85 739.03,1966.09L44.31,1486.67C14.77,1466.29 0,1439.42 0,1412.54L0,584.44Z" style="fill-rule:nonzero;"/>
                        <path d="M0,584.44C0,611.3 14.78,638.17 44.31,658.55L537,998.51L739.1,859.08C798.19,818.31 894.88,818.32 953.96,859.08L1156,998.53L1648.67,658.63C1678.22,638.24 1692.99,611.37 1692.99,584.5L1692.99,584.12C1692.99,557.24 1678.22,530.37 1648.68,509.99L954,30.58C894.88,-10.17 798.2,-10.17 739.11,30.57L44.34,509.91C14.79,530.29 0,557.17 0,584.03L0,1402.23L0,584.44Z" style="fill:rgb(15,111,255);fill-rule:nonzero;"/>
                    </g>
                    <g transform="matrix(0.127323,0,0,0.0959961,92.4742,67.0782)">
                        <g transform="matrix(46.1634,0,0,111.044,134.535,248.779)">
                            <path d="M0.06,0L0.06,-0.07L0.158,-0.07L0.158,-0.628L0.06,-0.628L0.06,-0.698L0.34,-0.698L0.34,-0.628L0.242,-0.628L0.242,-0.07L0.34,-0.07L0.34,0L0.06,0Z" style="fill-rule:nonzero;"/>
                        </g>
                        <g transform="matrix(46.1634,0,0,111.044,153.001,248.779)">
                            <path d="M0.093,-0.698L0.38,-0.698C0.438,-0.698 0.484,-0.682 0.517,-0.649C0.55,-0.616 0.566,-0.573 0.566,-0.518C0.566,-0.492 0.562,-0.47 0.555,-0.452C0.548,-0.434 0.538,-0.419 0.527,-0.408C0.516,-0.396 0.503,-0.387 0.49,-0.382C0.477,-0.376 0.464,-0.372 0.453,-0.37L0.453,-0.364C0.466,-0.363 0.48,-0.36 0.496,-0.354C0.511,-0.348 0.526,-0.339 0.54,-0.326C0.554,-0.313 0.566,-0.296 0.576,-0.276C0.585,-0.255 0.59,-0.231 0.59,-0.202C0.59,-0.173 0.586,-0.147 0.577,-0.122C0.568,-0.097 0.555,-0.076 0.539,-0.058C0.523,-0.04 0.504,-0.026 0.482,-0.016C0.46,-0.005 0.436,0 0.41,0L0.093,0L0.093,-0.698ZM0.177,-0.074L0.384,-0.074C0.42,-0.074 0.448,-0.083 0.469,-0.102C0.49,-0.12 0.5,-0.147 0.5,-0.182L0.5,-0.216C0.5,-0.251 0.49,-0.278 0.469,-0.297C0.448,-0.315 0.42,-0.324 0.384,-0.324L0.177,-0.324L0.177,-0.074ZM0.177,-0.396L0.37,-0.396C0.403,-0.396 0.429,-0.404 0.448,-0.421C0.467,-0.438 0.476,-0.462 0.476,-0.493L0.476,-0.527C0.476,-0.558 0.467,-0.582 0.448,-0.599C0.429,-0.616 0.403,-0.624 0.37,-0.624L0.177,-0.624L0.177,-0.396Z" style="fill-rule:nonzero;"/>
                        </g>
                        <g transform="matrix(46.1634,0,0,111.044,183.145,248.779)">
                            <path d="M0.637,-0.588L0.632,-0.588L0.573,-0.471L0.406,-0.167L0.239,-0.471L0.18,-0.588L0.175,-0.588L0.175,0L0.093,0L0.093,-0.698L0.205,-0.698L0.405,-0.322L0.41,-0.322L0.611,-0.698L0.719,-0.698L0.719,0L0.637,0L0.637,-0.588Z" style="fill-rule:nonzero;"/>
                        </g>
                        <g transform="matrix(46.1634,0,0,111.044,231.525,248.779)">
                            <path d="M0.353,0.012C0.307,0.012 0.266,0.005 0.229,-0.011C0.192,-0.025 0.16,-0.048 0.134,-0.078C0.107,-0.108 0.087,-0.145 0.073,-0.19C0.059,-0.234 0.052,-0.285 0.052,-0.344C0.052,-0.403 0.059,-0.455 0.073,-0.501C0.087,-0.546 0.107,-0.585 0.134,-0.616C0.16,-0.647 0.192,-0.67 0.229,-0.686C0.266,-0.702 0.307,-0.71 0.353,-0.71C0.416,-0.71 0.468,-0.697 0.509,-0.67C0.55,-0.643 0.583,-0.603 0.608,-0.549L0.495,-0.489C0.485,-0.52 0.469,-0.546 0.446,-0.565C0.423,-0.584 0.392,-0.593 0.353,-0.593C0.304,-0.593 0.265,-0.576 0.236,-0.543C0.207,-0.51 0.192,-0.463 0.192,-0.403L0.192,-0.293C0.192,-0.232 0.207,-0.186 0.236,-0.154C0.265,-0.121 0.304,-0.105 0.353,-0.105C0.392,-0.105 0.425,-0.116 0.45,-0.137C0.474,-0.158 0.493,-0.185 0.504,-0.216L0.611,-0.153C0.586,-0.101 0.552,-0.061 0.51,-0.032C0.468,-0.003 0.416,0.012 0.353,0.012Z" style="fill-rule:nonzero;"/>
                        </g>
                        <g transform="matrix(46.1634,0,0,111.044,261.162,248.779)">
                            <path d="M0.202,0C0.158,0 0.126,-0.011 0.105,-0.033C0.084,-0.055 0.074,-0.086 0.074,-0.126L0.074,-0.74L0.202,-0.74L0.202,-0.102L0.271,-0.102L0.271,0L0.202,0Z" style="fill-rule:nonzero;"/>
                        </g>
                        <g transform="matrix(46.1634,0,0,111.044,274.734,248.779)">
                            <path d="M0.281,0.012C0.244,0.012 0.21,0.006 0.181,-0.007C0.151,-0.02 0.126,-0.038 0.105,-0.062C0.084,-0.086 0.067,-0.115 0.056,-0.149C0.045,-0.182 0.039,-0.22 0.039,-0.262C0.039,-0.304 0.045,-0.342 0.056,-0.375C0.067,-0.408 0.084,-0.437 0.105,-0.461C0.126,-0.484 0.151,-0.502 0.181,-0.515C0.21,-0.528 0.244,-0.534 0.281,-0.534C0.318,-0.534 0.352,-0.528 0.382,-0.515C0.412,-0.502 0.438,-0.484 0.459,-0.461C0.48,-0.437 0.496,-0.408 0.507,-0.375C0.518,-0.342 0.524,-0.304 0.524,-0.262C0.524,-0.22 0.518,-0.182 0.507,-0.149C0.496,-0.115 0.48,-0.086 0.459,-0.062C0.438,-0.038 0.412,-0.02 0.382,-0.007C0.352,0.006 0.318,0.012 0.281,0.012ZM0.281,-0.091C0.315,-0.091 0.342,-0.101 0.361,-0.122C0.38,-0.143 0.39,-0.173 0.39,-0.213L0.39,-0.31C0.39,-0.349 0.38,-0.379 0.361,-0.4C0.342,-0.421 0.315,-0.431 0.281,-0.431C0.248,-0.431 0.221,-0.421 0.202,-0.4C0.183,-0.379 0.173,-0.349 0.173,-0.31L0.173,-0.213C0.173,-0.173 0.183,-0.143 0.202,-0.122C0.221,-0.101 0.248,-0.091 0.281,-0.091Z" style="fill-rule:nonzero;"/>
                        </g>
                        <g transform="matrix(46.1634,0,0,111.044,300.724,248.779)">
                            <path d="M0.386,-0.087L0.381,-0.087C0.376,-0.074 0.37,-0.061 0.363,-0.05C0.355,-0.038 0.345,-0.027 0.334,-0.018C0.322,-0.009 0.308,-0.001 0.292,0.004C0.275,0.009 0.256,0.012 0.235,0.012C0.181,0.012 0.14,-0.006 0.111,-0.041C0.082,-0.076 0.068,-0.127 0.068,-0.192L0.068,-0.522L0.196,-0.522L0.196,-0.205C0.196,-0.169 0.203,-0.141 0.217,-0.123C0.231,-0.103 0.253,-0.094 0.284,-0.094C0.297,-0.094 0.309,-0.096 0.322,-0.099C0.334,-0.102 0.345,-0.108 0.354,-0.115C0.363,-0.122 0.371,-0.13 0.377,-0.141C0.383,-0.151 0.386,-0.163 0.386,-0.177L0.386,-0.522L0.514,-0.522L0.514,0L0.386,0L0.386,-0.087Z" style="fill-rule:nonzero;"/>
                        </g>
                        <g transform="matrix(46.1634,0,0,111.044,327.868,248.779)">
                            <path d="M0.398,-0.087L0.393,-0.087C0.384,-0.057 0.366,-0.033 0.34,-0.015C0.314,0.003 0.284,0.012 0.249,0.012C0.183,0.012 0.132,-0.012 0.098,-0.059C0.063,-0.106 0.045,-0.174 0.045,-0.262C0.045,-0.349 0.063,-0.417 0.098,-0.464C0.132,-0.511 0.183,-0.534 0.249,-0.534C0.284,-0.534 0.314,-0.525 0.34,-0.508C0.366,-0.49 0.384,-0.466 0.393,-0.436L0.398,-0.436L0.398,-0.74L0.526,-0.74L0.526,0L0.398,0L0.398,-0.087ZM0.29,-0.094C0.321,-0.094 0.346,-0.101 0.367,-0.116C0.388,-0.131 0.398,-0.152 0.398,-0.179L0.398,-0.345C0.398,-0.37 0.388,-0.391 0.367,-0.406C0.346,-0.421 0.321,-0.429 0.29,-0.429C0.257,-0.429 0.23,-0.418 0.21,-0.396C0.189,-0.373 0.179,-0.343 0.179,-0.306L0.179,-0.216C0.179,-0.179 0.189,-0.149 0.21,-0.127C0.23,-0.105 0.257,-0.094 0.29,-0.094Z" style="fill-rule:nonzero;"/>
                        </g>
                    </g>
                    <g transform="matrix(0.428946,0,0,0.190086,41.4485,59.4282)">
                        <g transform="matrix(13.7026,0,0,56.0788,129.333,224.686)">
                            <path d="M0.307,-0.316L0.214,-0.206L0.214,0L0.082,0L0.082,-0.698L0.214,-0.698L0.214,-0.354L0.219,-0.354L0.318,-0.485L0.491,-0.698L0.643,-0.698L0.4,-0.407L0.663,0L0.506,0L0.307,-0.316Z" style="fill-rule:nonzero;"/>
                        </g>
                        <g transform="matrix(13.7026,0,0,56.0788,138.391,224.686)">
                            <path d="M0.386,-0.087L0.381,-0.087C0.376,-0.074 0.37,-0.061 0.363,-0.05C0.355,-0.038 0.345,-0.027 0.334,-0.018C0.322,-0.009 0.308,-0.001 0.292,0.004C0.275,0.009 0.256,0.012 0.235,0.012C0.181,0.012 0.14,-0.006 0.111,-0.041C0.082,-0.076 0.068,-0.127 0.068,-0.192L0.068,-0.522L0.196,-0.522L0.196,-0.205C0.196,-0.169 0.203,-0.141 0.217,-0.123C0.231,-0.103 0.253,-0.094 0.284,-0.094C0.297,-0.094 0.309,-0.096 0.322,-0.099C0.334,-0.102 0.345,-0.108 0.354,-0.115C0.363,-0.122 0.371,-0.13 0.377,-0.141C0.383,-0.151 0.386,-0.163 0.386,-0.177L0.386,-0.522L0.514,-0.522L0.514,0L0.386,0L0.386,-0.087Z" style="fill-rule:nonzero;"/>
                        </g>
                        <g transform="matrix(13.7026,0,0,56.0788,146.448,224.686)">
                            <path d="M0.074,-0.74L0.202,-0.74L0.202,-0.436L0.206,-0.436C0.215,-0.466 0.233,-0.49 0.259,-0.508C0.285,-0.525 0.315,-0.534 0.35,-0.534C0.417,-0.534 0.468,-0.511 0.503,-0.464C0.538,-0.417 0.555,-0.349 0.555,-0.262C0.555,-0.174 0.538,-0.106 0.503,-0.059C0.468,-0.012 0.417,0.012 0.35,0.012C0.315,0.012 0.285,0.003 0.26,-0.015C0.234,-0.033 0.216,-0.057 0.206,-0.087L0.202,-0.087L0.202,0L0.074,0L0.074,-0.74ZM0.309,-0.094C0.342,-0.094 0.369,-0.105 0.39,-0.127C0.411,-0.149 0.421,-0.179 0.421,-0.216L0.421,-0.306C0.421,-0.343 0.411,-0.373 0.39,-0.396C0.369,-0.418 0.342,-0.429 0.309,-0.429C0.278,-0.429 0.253,-0.421 0.233,-0.406C0.212,-0.391 0.202,-0.37 0.202,-0.345L0.202,-0.179C0.202,-0.152 0.212,-0.131 0.233,-0.116C0.253,-0.101 0.278,-0.094 0.309,-0.094Z" style="fill-rule:nonzero;"/>
                        </g>
                        <g transform="matrix(13.7026,0,0,56.0788,154.67,224.686)">
                            <path d="M0.285,0.012C0.246,0.012 0.212,0.006 0.182,-0.008C0.151,-0.021 0.126,-0.039 0.105,-0.063C0.084,-0.086 0.067,-0.115 0.056,-0.149C0.045,-0.182 0.039,-0.22 0.039,-0.262C0.039,-0.303 0.045,-0.341 0.056,-0.374C0.067,-0.407 0.082,-0.436 0.103,-0.46C0.124,-0.483 0.149,-0.501 0.179,-0.515C0.209,-0.528 0.243,-0.534 0.281,-0.534C0.322,-0.534 0.357,-0.527 0.387,-0.513C0.417,-0.499 0.442,-0.48 0.461,-0.456C0.48,-0.432 0.495,-0.404 0.505,-0.373C0.514,-0.341 0.519,-0.307 0.519,-0.271L0.519,-0.229L0.172,-0.229L0.172,-0.216C0.172,-0.178 0.183,-0.148 0.204,-0.125C0.225,-0.101 0.257,-0.09 0.299,-0.09C0.331,-0.09 0.357,-0.097 0.378,-0.11C0.398,-0.123 0.416,-0.14 0.432,-0.161L0.501,-0.084C0.48,-0.054 0.451,-0.031 0.414,-0.014C0.377,0.004 0.334,0.012 0.285,0.012ZM0.283,-0.438C0.249,-0.438 0.222,-0.427 0.202,-0.404C0.182,-0.381 0.172,-0.352 0.172,-0.316L0.172,-0.308L0.386,-0.308L0.386,-0.317C0.386,-0.353 0.377,-0.382 0.36,-0.405C0.342,-0.427 0.316,-0.438 0.283,-0.438Z" style="fill-rule:nonzero;"/>
                        </g>
                        <g transform="matrix(13.7026,0,0,56.0788,162.316,224.686)">
                            <path d="M0.074,0L0.074,-0.522L0.202,-0.522L0.202,-0.414L0.207,-0.414C0.21,-0.428 0.216,-0.442 0.223,-0.455C0.23,-0.468 0.239,-0.479 0.25,-0.489C0.261,-0.499 0.275,-0.507 0.291,-0.513C0.306,-0.519 0.324,-0.522 0.345,-0.522L0.373,-0.522L0.373,-0.401L0.333,-0.401C0.29,-0.401 0.257,-0.395 0.235,-0.382C0.213,-0.369 0.202,-0.349 0.202,-0.32L0.202,0L0.074,0Z" style="fill-rule:nonzero;"/>
                        </g>
                        <g transform="matrix(13.7026,0,0,56.0788,167.701,224.686)">
                            <path d="M0.074,0L0.074,-0.522L0.202,-0.522L0.202,-0.435L0.207,-0.435C0.218,-0.463 0.235,-0.487 0.258,-0.506C0.28,-0.525 0.312,-0.534 0.353,-0.534C0.407,-0.534 0.448,-0.516 0.477,-0.481C0.506,-0.446 0.52,-0.395 0.52,-0.33L0.52,0L0.392,0L0.392,-0.317C0.392,-0.354 0.385,-0.382 0.372,-0.401C0.359,-0.42 0.337,-0.429 0.306,-0.429C0.293,-0.429 0.28,-0.427 0.268,-0.424C0.255,-0.42 0.244,-0.415 0.235,-0.408C0.225,-0.401 0.217,-0.392 0.211,-0.382C0.205,-0.371 0.202,-0.359 0.202,-0.345L0.202,0L0.074,0Z" style="fill-rule:nonzero;"/>
                        </g>
                        <g transform="matrix(13.7026,0,0,56.0788,175.758,224.686)">
                            <path d="M0.285,0.012C0.246,0.012 0.212,0.006 0.182,-0.008C0.151,-0.021 0.126,-0.039 0.105,-0.063C0.084,-0.086 0.067,-0.115 0.056,-0.149C0.045,-0.182 0.039,-0.22 0.039,-0.262C0.039,-0.303 0.045,-0.341 0.056,-0.374C0.067,-0.407 0.082,-0.436 0.103,-0.46C0.124,-0.483 0.149,-0.501 0.179,-0.515C0.209,-0.528 0.243,-0.534 0.281,-0.534C0.322,-0.534 0.357,-0.527 0.387,-0.513C0.417,-0.499 0.442,-0.48 0.461,-0.456C0.48,-0.432 0.495,-0.404 0.505,-0.373C0.514,-0.341 0.519,-0.307 0.519,-0.271L0.519,-0.229L0.172,-0.229L0.172,-0.216C0.172,-0.178 0.183,-0.148 0.204,-0.125C0.225,-0.101 0.257,-0.09 0.299,-0.09C0.331,-0.09 0.357,-0.097 0.378,-0.11C0.398,-0.123 0.416,-0.14 0.432,-0.161L0.501,-0.084C0.48,-0.054 0.451,-0.031 0.414,-0.014C0.377,0.004 0.334,0.012 0.285,0.012ZM0.283,-0.438C0.249,-0.438 0.222,-0.427 0.202,-0.404C0.182,-0.381 0.172,-0.352 0.172,-0.316L0.172,-0.308L0.386,-0.308L0.386,-0.317C0.386,-0.353 0.377,-0.382 0.36,-0.405C0.342,-0.427 0.316,-0.438 0.283,-0.438Z" style="fill-rule:nonzero;"/>
                        </g>
                        <g transform="matrix(13.7026,0,0,56.0788,183.404,224.686)">
                            <path d="M0.237,0C0.193,0 0.16,-0.012 0.137,-0.035C0.114,-0.058 0.102,-0.09 0.102,-0.133L0.102,-0.42L0.025,-0.42L0.025,-0.522L0.065,-0.522C0.084,-0.522 0.097,-0.527 0.105,-0.536C0.112,-0.545 0.115,-0.558 0.115,-0.576L0.115,-0.665L0.23,-0.665L0.23,-0.522L0.337,-0.522L0.337,-0.42L0.23,-0.42L0.23,-0.102L0.329,-0.102L0.329,0L0.237,0Z" style="fill-rule:nonzero;"/>
                        </g>
                        <g transform="matrix(13.7026,0,0,56.0788,188.474,224.686)">
                            <path d="M0.285,0.012C0.246,0.012 0.212,0.006 0.182,-0.008C0.151,-0.021 0.126,-0.039 0.105,-0.063C0.084,-0.086 0.067,-0.115 0.056,-0.149C0.045,-0.182 0.039,-0.22 0.039,-0.262C0.039,-0.303 0.045,-0.341 0.056,-0.374C0.067,-0.407 0.082,-0.436 0.103,-0.46C0.124,-0.483 0.149,-0.501 0.179,-0.515C0.209,-0.528 0.243,-0.534 0.281,-0.534C0.322,-0.534 0.357,-0.527 0.387,-0.513C0.417,-0.499 0.442,-0.48 0.461,-0.456C0.48,-0.432 0.495,-0.404 0.505,-0.373C0.514,-0.341 0.519,-0.307 0.519,-0.271L0.519,-0.229L0.172,-0.229L0.172,-0.216C0.172,-0.178 0.183,-0.148 0.204,-0.125C0.225,-0.101 0.257,-0.09 0.299,-0.09C0.331,-0.09 0.357,-0.097 0.378,-0.11C0.398,-0.123 0.416,-0.14 0.432,-0.161L0.501,-0.084C0.48,-0.054 0.451,-0.031 0.414,-0.014C0.377,0.004 0.334,0.012 0.285,0.012ZM0.283,-0.438C0.249,-0.438 0.222,-0.427 0.202,-0.404C0.182,-0.381 0.172,-0.352 0.172,-0.316L0.172,-0.308L0.386,-0.308L0.386,-0.317C0.386,-0.353 0.377,-0.382 0.36,-0.405C0.342,-0.427 0.316,-0.438 0.283,-0.438Z" style="fill-rule:nonzero;"/>
                        </g>
                        <g transform="matrix(13.7026,0,0,56.0788,196.12,224.686)">
                            <path d="M0.245,0.012C0.195,0.012 0.153,0.004 0.119,-0.014C0.085,-0.031 0.055,-0.054 0.029,-0.084L0.107,-0.16C0.126,-0.138 0.148,-0.121 0.171,-0.108C0.194,-0.095 0.22,-0.089 0.25,-0.089C0.281,-0.089 0.303,-0.094 0.317,-0.105C0.33,-0.116 0.337,-0.13 0.337,-0.149C0.337,-0.164 0.332,-0.177 0.323,-0.186C0.313,-0.195 0.296,-0.201 0.273,-0.204L0.221,-0.211C0.164,-0.218 0.121,-0.235 0.092,-0.26C0.062,-0.284 0.047,-0.321 0.047,-0.369C0.047,-0.394 0.052,-0.417 0.061,-0.438C0.07,-0.458 0.084,-0.475 0.101,-0.49C0.118,-0.504 0.139,-0.515 0.164,-0.523C0.188,-0.53 0.215,-0.534 0.245,-0.534C0.27,-0.534 0.293,-0.532 0.313,-0.529C0.332,-0.525 0.35,-0.52 0.366,-0.513C0.382,-0.505 0.397,-0.497 0.41,-0.487C0.423,-0.476 0.436,-0.465 0.449,-0.452L0.374,-0.377C0.359,-0.393 0.34,-0.406 0.319,-0.417C0.298,-0.428 0.274,-0.433 0.249,-0.433C0.221,-0.433 0.201,-0.428 0.189,-0.418C0.176,-0.408 0.17,-0.395 0.17,-0.379C0.17,-0.362 0.175,-0.349 0.186,-0.34C0.196,-0.331 0.213,-0.324 0.238,-0.32L0.291,-0.313C0.404,-0.297 0.46,-0.246 0.46,-0.159C0.46,-0.134 0.455,-0.111 0.445,-0.09C0.434,-0.069 0.42,-0.051 0.401,-0.036C0.382,-0.021 0.36,-0.009 0.334,-0.001C0.307,0.008 0.278,0.012 0.245,0.012Z" style="fill-rule:nonzero;"/>
                        </g>
                        <g transform="matrix(13.7026,0,0,56.0788,206.191,224.686)">
                            <path d="M0.299,0.012C0.239,0.012 0.188,0.001 0.147,-0.02C0.105,-0.041 0.069,-0.069 0.039,-0.104L0.128,-0.19C0.152,-0.162 0.179,-0.141 0.209,-0.126C0.238,-0.111 0.271,-0.104 0.307,-0.104C0.348,-0.104 0.378,-0.113 0.399,-0.131C0.42,-0.148 0.43,-0.172 0.43,-0.202C0.43,-0.225 0.423,-0.244 0.41,-0.259C0.397,-0.274 0.372,-0.284 0.335,-0.291L0.269,-0.301C0.13,-0.323 0.06,-0.391 0.06,-0.504C0.06,-0.535 0.066,-0.564 0.078,-0.589C0.089,-0.614 0.106,-0.636 0.128,-0.654C0.15,-0.672 0.177,-0.686 0.208,-0.696C0.239,-0.705 0.274,-0.71 0.313,-0.71C0.366,-0.71 0.412,-0.701 0.451,-0.684C0.49,-0.667 0.524,-0.641 0.552,-0.607L0.462,-0.522C0.445,-0.543 0.424,-0.561 0.399,-0.574C0.374,-0.587 0.343,-0.594 0.306,-0.594C0.268,-0.594 0.24,-0.587 0.221,-0.573C0.202,-0.558 0.192,-0.538 0.192,-0.512C0.192,-0.485 0.2,-0.466 0.215,-0.453C0.23,-0.44 0.255,-0.431 0.289,-0.425L0.354,-0.413C0.425,-0.4 0.477,-0.378 0.511,-0.346C0.544,-0.313 0.561,-0.268 0.561,-0.21C0.561,-0.177 0.555,-0.147 0.544,-0.12C0.532,-0.093 0.515,-0.069 0.493,-0.05C0.47,-0.03 0.443,-0.015 0.411,-0.004C0.378,0.007 0.341,0.012 0.299,0.012Z" style="fill-rule:nonzero;"/>
                        </g>
                        <g transform="matrix(13.7026,0,0,56.0788,214.564,224.686)">
                            <path d="M0.285,0.012C0.246,0.012 0.212,0.006 0.182,-0.008C0.151,-0.021 0.126,-0.039 0.105,-0.063C0.084,-0.086 0.067,-0.115 0.056,-0.149C0.045,-0.182 0.039,-0.22 0.039,-0.262C0.039,-0.303 0.045,-0.341 0.056,-0.374C0.067,-0.407 0.082,-0.436 0.103,-0.46C0.124,-0.483 0.149,-0.501 0.179,-0.515C0.209,-0.528 0.243,-0.534 0.281,-0.534C0.322,-0.534 0.357,-0.527 0.387,-0.513C0.417,-0.499 0.442,-0.48 0.461,-0.456C0.48,-0.432 0.495,-0.404 0.505,-0.373C0.514,-0.341 0.519,-0.307 0.519,-0.271L0.519,-0.229L0.172,-0.229L0.172,-0.216C0.172,-0.178 0.183,-0.148 0.204,-0.125C0.225,-0.101 0.257,-0.09 0.299,-0.09C0.331,-0.09 0.357,-0.097 0.378,-0.11C0.398,-0.123 0.416,-0.14 0.432,-0.161L0.501,-0.084C0.48,-0.054 0.451,-0.031 0.414,-0.014C0.377,0.004 0.334,0.012 0.285,0.012ZM0.283,-0.438C0.249,-0.438 0.222,-0.427 0.202,-0.404C0.182,-0.381 0.172,-0.352 0.172,-0.316L0.172,-0.308L0.386,-0.308L0.386,-0.317C0.386,-0.353 0.377,-0.382 0.36,-0.405C0.342,-0.427 0.316,-0.438 0.283,-0.438Z" style="fill-rule:nonzero;"/>
                        </g>
                        <g transform="matrix(13.7026,0,0,56.0788,222.21,224.686)">
                            <path d="M0.074,0L0.074,-0.522L0.202,-0.522L0.202,-0.414L0.207,-0.414C0.21,-0.428 0.216,-0.442 0.223,-0.455C0.23,-0.468 0.239,-0.479 0.25,-0.489C0.261,-0.499 0.275,-0.507 0.291,-0.513C0.306,-0.519 0.324,-0.522 0.345,-0.522L0.373,-0.522L0.373,-0.401L0.333,-0.401C0.29,-0.401 0.257,-0.395 0.235,-0.382C0.213,-0.369 0.202,-0.349 0.202,-0.32L0.202,0L0.074,0Z" style="fill-rule:nonzero;"/>
                        </g>
                        <g transform="matrix(13.7026,0,0,56.0788,227.705,224.686)">
                            <path d="M0.186,0L0.012,-0.522L0.138,-0.522L0.211,-0.297L0.262,-0.111L0.269,-0.111L0.32,-0.297L0.391,-0.522L0.513,-0.522L0.338,0L0.186,0Z" style="fill-rule:nonzero;"/>
                        </g>
                        <g transform="matrix(13.7026,0,0,56.0788,234.885,224.686)">
                            <path d="M0.138,-0.598C0.111,-0.598 0.092,-0.604 0.081,-0.616C0.069,-0.628 0.063,-0.643 0.063,-0.662L0.063,-0.682C0.063,-0.701 0.069,-0.716 0.081,-0.728C0.092,-0.74 0.111,-0.746 0.138,-0.746C0.164,-0.746 0.183,-0.74 0.195,-0.728C0.207,-0.716 0.213,-0.701 0.213,-0.682L0.213,-0.662C0.213,-0.643 0.207,-0.628 0.195,-0.616C0.183,-0.604 0.164,-0.598 0.138,-0.598ZM0.074,-0.522L0.202,-0.522L0.202,0L0.074,0L0.074,-0.522Z" style="fill-rule:nonzero;"/>
                        </g>
                        <g transform="matrix(13.7026,0,0,56.0788,238.667,224.686)">
                            <path d="M0.28,0.012C0.241,0.012 0.207,0.006 0.177,-0.007C0.147,-0.02 0.122,-0.038 0.102,-0.062C0.081,-0.086 0.066,-0.115 0.055,-0.149C0.044,-0.182 0.039,-0.22 0.039,-0.262C0.039,-0.304 0.044,-0.342 0.055,-0.375C0.066,-0.408 0.081,-0.437 0.102,-0.461C0.122,-0.484 0.147,-0.502 0.177,-0.515C0.207,-0.528 0.241,-0.534 0.28,-0.534C0.333,-0.534 0.376,-0.522 0.411,-0.499C0.445,-0.476 0.47,-0.443 0.485,-0.402L0.38,-0.355C0.374,-0.377 0.363,-0.395 0.347,-0.41C0.33,-0.424 0.308,-0.431 0.28,-0.431C0.244,-0.431 0.217,-0.42 0.2,-0.397C0.182,-0.374 0.173,-0.345 0.173,-0.308L0.173,-0.213C0.173,-0.176 0.182,-0.147 0.2,-0.125C0.217,-0.102 0.244,-0.091 0.28,-0.091C0.311,-0.091 0.334,-0.099 0.351,-0.115C0.368,-0.13 0.381,-0.15 0.39,-0.173L0.488,-0.126C0.471,-0.08 0.444,-0.046 0.409,-0.023C0.374,0.001 0.331,0.012 0.28,0.012Z" style="fill-rule:nonzero;"/>
                        </g>
                        <g transform="matrix(13.7026,0,0,56.0788,245.628,224.686)">
                            <path d="M0.285,0.012C0.246,0.012 0.212,0.006 0.182,-0.008C0.151,-0.021 0.126,-0.039 0.105,-0.063C0.084,-0.086 0.067,-0.115 0.056,-0.149C0.045,-0.182 0.039,-0.22 0.039,-0.262C0.039,-0.303 0.045,-0.341 0.056,-0.374C0.067,-0.407 0.082,-0.436 0.103,-0.46C0.124,-0.483 0.149,-0.501 0.179,-0.515C0.209,-0.528 0.243,-0.534 0.281,-0.534C0.322,-0.534 0.357,-0.527 0.387,-0.513C0.417,-0.499 0.442,-0.48 0.461,-0.456C0.48,-0.432 0.495,-0.404 0.505,-0.373C0.514,-0.341 0.519,-0.307 0.519,-0.271L0.519,-0.229L0.172,-0.229L0.172,-0.216C0.172,-0.178 0.183,-0.148 0.204,-0.125C0.225,-0.101 0.257,-0.09 0.299,-0.09C0.331,-0.09 0.357,-0.097 0.378,-0.11C0.398,-0.123 0.416,-0.14 0.432,-0.161L0.501,-0.084C0.48,-0.054 0.451,-0.031 0.414,-0.014C0.377,0.004 0.334,0.012 0.285,0.012ZM0.283,-0.438C0.249,-0.438 0.222,-0.427 0.202,-0.404C0.182,-0.381 0.172,-0.352 0.172,-0.316L0.172,-0.308L0.386,-0.308L0.386,-0.317C0.386,-0.353 0.377,-0.382 0.36,-0.405C0.342,-0.427 0.316,-0.438 0.283,-0.438Z" style="fill-rule:nonzero;"/>
                        </g>
                    </g>
                </g>
            </g>
        </g>
    </g>
</svg>
