<?xml version="1.0" encoding="UTF-8"?>
<svg width="196px" height="196px" viewBox="0 0 196 196" version="1.1" xmlns="http://www.w3.org/2000/svg" xmlns:xlink="http://www.w3.org/1999/xlink">
    <title>Artboard</title>
    <g id="Artboard" stroke="none" stroke-width="1" fill="none" fill-rule="evenodd">
        <g id="azure-icon" transform="translate(0.000000, 19.000000)" fill="#0089D6" fill-rule="nonzero">
            <path d="M90.6744626,143.882674 C115.855911,139.428874 136.65435,135.743355 136.893224,135.692635 L137.327545,135.600415 L113.553774,107.287663 C100.478211,91.7156456 89.7800158,78.9145281 89.7800158,78.8407359 C89.7800158,78.7010251 114.328441,11.0172534 114.466444,10.7761219 C114.512586,10.6959497 131.218535,39.5736028 154.962762,80.7777964 C177.192542,119.3539 195.519917,151.160037 195.690265,151.458085 L196,152 L120.444997,151.990242 L44.8900099,151.980525 L90.6744626,143.882702 L90.6744626,143.882674 Z M0,135.248649 C0,135.208786 11.2020853,115.739052 24.8935224,91.9825572 L49.7870408,48.788934 L78.7975588,24.4134601 C94.7533436,11.0069525 107.851044,0.0216007866 107.903556,0.000494173686 C107.956067,-0.0184645082 107.746173,0.510460052 107.437122,1.17696157 C107.128073,1.84346307 92.9524699,32.2858403 75.9357829,68.8266862 L44.9963596,135.264586 L22.4981798,135.292827 C10.1241837,135.308376 0,135.288464 0,135.248633 L0,135.248649 Z" id="path21"></path>
        </g>
    </g>
</svg>