<?xml version="1.0" encoding="UTF-8" standalone="no"?>
<!DOCTYPE svg PUBLIC "-//W3C//DTD SVG 1.1//EN" "http://www.w3.org/Graphics/SVG/1.1/DTD/svg11.dtd">
<svg width="100%" height="100%" viewBox="0 0 913 384" version="1.1" xmlns="http://www.w3.org/2000/svg" xmlns:xlink="http://www.w3.org/1999/xlink" xml:space="preserve" xmlns:serif="http://www.serif.com/" style="fill-rule:evenodd;clip-rule:evenodd;stroke-linejoin:round;stroke-miterlimit:2;">
    <g transform="matrix(4.16667,0,0,4.16667,0,0)">
        <path d="M130.873,31.835C126.085,31.835 122.519,34.186 122.519,39.845C122.519,44.108 124.869,47.067 130.615,47.067C135.485,47.067 138.793,44.198 138.793,39.668C138.793,34.536 135.833,31.835 130.873,31.835ZM121.3,71.787C120.167,73.178 119.038,74.655 119.038,76.399C119.038,79.877 123.474,80.924 129.567,80.924C134.616,80.924 141.492,80.571 141.492,75.877C141.492,73.088 138.184,72.915 134.004,72.653L121.3,71.787ZM147.061,32.098C148.625,34.101 150.281,36.886 150.281,40.889C150.281,50.549 142.709,56.205 131.746,56.205C128.957,56.205 126.434,55.858 124.869,55.424L121.996,60.036L130.524,60.557C145.582,61.516 154.456,61.952 154.456,73.523C154.456,83.534 145.668,89.188 130.524,89.188C114.772,89.188 108.767,85.184 108.767,78.31C108.767,74.392 110.508,72.308 113.554,69.432C110.681,68.217 109.725,66.042 109.725,63.692C109.725,61.776 110.681,60.036 112.25,58.381C113.816,56.729 115.556,55.073 117.645,53.159C113.381,51.071 110.16,46.545 110.16,40.103C110.16,30.096 116.775,23.223 130.088,23.223C133.831,23.223 136.095,23.568 138.097,24.093L155.069,24.093L155.069,31.489L147.061,32.098Z" style="fill:rgb(240,81,51);fill-rule:nonzero;"/>
        <path d="M170.38,16.284C165.418,16.284 162.547,13.409 162.547,8.447C162.547,3.49 165.418,0.79 170.38,0.79C175.428,0.79 178.3,3.49 178.3,8.447C178.3,13.409 175.428,16.284 170.38,16.284ZM159.151,68.585L159.151,61.713L163.591,61.105C164.81,60.929 164.983,60.67 164.983,59.361L164.983,33.775C164.983,32.819 164.723,32.207 163.85,31.949L159.151,30.293L160.108,23.247L178.125,23.247L178.125,59.361C178.125,60.756 178.209,60.929 179.518,61.105L183.957,61.713L183.957,68.585L159.151,68.585Z" style="fill:rgb(240,81,51);fill-rule:nonzero;"/>
        <path d="M218.373,65.211C214.629,67.037 209.147,68.69 204.184,68.69C193.828,68.69 189.913,64.517 189.913,54.678L189.913,31.878C189.913,31.357 189.913,31.007 189.214,31.007L183.123,31.007L183.123,23.262C190.784,22.389 193.828,18.559 194.785,9.073L203.054,9.073L203.054,21.435C203.054,22.042 203.054,22.306 203.751,22.306L216.021,22.306L216.021,31.007L203.054,31.007L203.054,51.806C203.054,56.941 204.274,58.941 208.971,58.941C211.411,58.941 213.932,58.334 216.021,57.55L218.373,65.211Z" style="fill:rgb(240,81,51);fill-rule:nonzero;"/>
        <path d="M89.421,42.372L49.627,2.581C47.337,0.289 43.621,0.289 41.328,2.581L33.065,10.845L43.546,21.327C45.983,20.504 48.776,21.056 50.717,22.997C52.669,24.951 53.217,27.768 52.374,30.213L62.476,40.315C64.92,39.473 67.74,40.017 69.691,41.972C72.42,44.7 72.42,49.12 69.691,51.848C66.962,54.578 62.543,54.578 59.813,51.848C57.761,49.795 57.253,46.781 58.293,44.253L48.871,34.831L48.87,59.624C49.536,59.953 50.163,60.393 50.717,60.945C53.445,63.672 53.445,68.091 50.717,70.823C47.989,73.55 43.567,73.55 40.841,70.823C38.113,68.091 38.113,63.672 40.841,60.945C41.516,60.271 42.295,59.762 43.128,59.421L43.128,34.398C42.295,34.058 41.517,33.552 40.841,32.874C38.775,30.809 38.277,27.776 39.337,25.239L29.004,14.904L1.719,42.188C-0.572,44.482 -0.572,48.199 1.719,50.491L41.513,90.282C43.804,92.573 47.52,92.573 49.814,90.282L89.421,50.675C91.713,48.382 91.713,44.664 89.421,42.372Z" style="fill:rgb(240,81,51);fill-rule:nonzero;"/>
    </g>
</svg>
