<?xml version="1.0" encoding="UTF-8" standalone="no"?>
<!DOCTYPE svg PUBLIC "-//W3C//DTD SVG 1.1//EN" "http://www.w3.org/Graphics/SVG/1.1/DTD/svg11.dtd">
<svg width="100%" height="100%" viewBox="0 0 384 384" version="1.1" xmlns="http://www.w3.org/2000/svg" xmlns:xlink="http://www.w3.org/1999/xlink" xml:space="preserve" xmlns:serif="http://www.serif.com/" style="fill-rule:evenodd;clip-rule:evenodd;stroke-linejoin:round;stroke-miterlimit:2;">
    <g transform="matrix(4.16667,0,0,4.16667,0,0)">
        <path d="M90.154,41.965L50.035,1.848C47.726,-0.463 43.979,-0.463 41.666,1.848L33.336,10.179L43.903,20.747C46.359,19.917 49.176,20.474 51.133,22.432C53.102,24.401 53.653,27.242 52.803,29.707L62.988,39.891C65.453,39.042 68.295,39.591 70.264,41.562C73.014,44.312 73.014,48.768 70.264,51.52C67.512,54.271 63.056,54.271 60.303,51.52C58.234,49.449 57.723,46.41 58.772,43.861L49.272,34.362L49.272,59.359C49.941,59.691 50.574,60.133 51.133,60.691C53.883,63.44 53.883,67.896 51.133,70.65C48.383,73.399 43.924,73.399 41.176,70.65C38.426,67.896 38.426,63.44 41.176,60.691C41.856,60.011 42.643,59.498 43.482,59.154L43.482,33.926C42.643,33.582 41.857,33.073 41.176,32.389C39.093,30.307 38.592,27.25 39.66,24.692L29.242,14.272L1.732,41.779C-0.577,44.092 -0.577,47.839 1.732,50.15L41.854,90.268C44.163,92.578 47.909,92.578 50.223,90.268L90.154,50.337C92.466,48.025 92.466,44.276 90.154,41.965Z" style="fill:rgb(3,4,4);fill-rule:nonzero;"/>
    </g>
</svg>
