<?xml version="1.0" encoding="UTF-8" standalone="no"?>
<!DOCTYPE svg PUBLIC "-//W3C//DTD SVG 1.1//EN" "http://www.w3.org/Graphics/SVG/1.1/DTD/svg11.dtd">
<svg width="100%" height="100%" viewBox="0 0 389 103" version="1.1" xmlns="http://www.w3.org/2000/svg" xmlns:xlink="http://www.w3.org/1999/xlink" xml:space="preserve" xmlns:serif="http://www.serif.com/" style="fill-rule:evenodd;clip-rule:evenodd;stroke-linejoin:round;stroke-miterlimit:2;">
    <g transform="matrix(1,0,0,1,-3.06632,-148.46)">
        <g id="kustomize-horizontal-color-white" transform="matrix(0.901936,0,0,0.620948,-30.7781,344.344)">
            <rect x="37.524" y="-315.459" width="430.707" height="164.742" style="fill:none;"/>
            <g transform="matrix(1,0,0,1,-0.700921,0.483121)">
                <g transform="matrix(1.10873,0,0,1.61044,-132.324,-794.925)">
                    <g transform="matrix(0.93236,0,0,0.921286,-32.4839,63.3211)">
                        <path d="M273.015,265.879C273.015,262.888 270.615,260.459 267.659,260.459L208.469,260.459C205.513,260.459 203.113,262.888 203.113,265.879L203.113,335.997C203.113,338.988 205.513,341.417 208.469,341.417L267.659,341.417C270.615,341.417 273.015,338.988 273.015,335.997L273.015,265.879Z" style="fill:rgb(187,205,242);"/>
                    </g>
                    <g transform="matrix(0.93236,0,0,0.921286,-24.4839,71.3211)">
                        <path d="M273.015,265.879C273.015,262.888 270.615,260.459 267.659,260.459L208.469,260.459C205.513,260.459 203.113,262.888 203.113,265.879L203.113,335.997C203.113,338.988 205.513,341.417 208.469,341.417L267.659,341.417C270.615,341.417 273.015,338.988 273.015,335.997L273.015,265.879Z" style="fill:rgb(128,160,226);"/>
                    </g>
                    <g>
                        <g transform="matrix(0.93236,0,0,0.921286,-16.4839,79.3211)">
                            <path d="M273.015,265.879C273.015,262.888 270.615,260.459 267.659,260.459L208.469,260.459C205.513,260.459 203.113,262.888 203.113,265.879L203.113,335.997C203.113,338.988 205.513,341.417 208.469,341.417L267.659,341.417C270.615,341.417 273.015,338.988 273.015,335.997L273.015,265.879Z" style="fill:rgb(62,95,168);"/>
                        </g>
                        <g transform="matrix(1,0,0,1,-109.383,167.849)">
                            <text x="294.31px" y="210.142px" style="font-family:'HelveticaNeue-Medium', 'Helvetica Neue', sans-serif;font-weight:500;font-size:60px;fill:white;">K</text>
                        </g>
                    </g>
                </g>
                <g transform="matrix(1.50098,0,0,0.745784,-189.413,-408.405)">
                    <g transform="matrix(44.32,0,0,129.564,218.008,299.998)">
                        <path d="M0.514,0L0.402,0L0.402,-0.072L0.4,-0.072C0.386,-0.046 0.365,-0.025 0.338,-0.01C0.31,0.006 0.282,0.014 0.253,0.014C0.185,0.014 0.136,-0.003 0.106,-0.037C0.075,-0.07 0.06,-0.121 0.06,-0.189L0.06,-0.517L0.174,-0.517L0.174,-0.2C0.174,-0.155 0.183,-0.123 0.2,-0.104C0.217,-0.085 0.242,-0.076 0.273,-0.076C0.297,-0.076 0.317,-0.08 0.333,-0.087C0.349,-0.094 0.362,-0.104 0.372,-0.117C0.382,-0.129 0.389,-0.144 0.394,-0.161C0.398,-0.178 0.4,-0.197 0.4,-0.217L0.4,-0.517L0.514,-0.517L0.514,0Z" style="fill:white;fill-rule:nonzero;"/>
                    </g>
                    <g transform="matrix(44.32,0,0,129.564,241.453,299.998)">
                        <path d="M0.146,-0.166C0.149,-0.133 0.162,-0.109 0.184,-0.096C0.206,-0.083 0.232,-0.076 0.263,-0.076C0.274,-0.076 0.286,-0.077 0.3,-0.079C0.313,-0.08 0.326,-0.083 0.338,-0.088C0.35,-0.093 0.36,-0.099 0.368,-0.109C0.375,-0.117 0.379,-0.129 0.378,-0.144C0.377,-0.159 0.372,-0.171 0.362,-0.18C0.352,-0.189 0.339,-0.197 0.324,-0.203C0.308,-0.208 0.29,-0.213 0.27,-0.217C0.25,-0.221 0.23,-0.225 0.209,-0.23C0.188,-0.235 0.167,-0.24 0.148,-0.247C0.128,-0.254 0.11,-0.263 0.095,-0.274C0.079,-0.285 0.066,-0.3 0.057,-0.318C0.048,-0.335 0.043,-0.357 0.043,-0.383C0.043,-0.411 0.05,-0.435 0.064,-0.454C0.077,-0.472 0.095,-0.488 0.116,-0.5C0.136,-0.511 0.16,-0.519 0.186,-0.524C0.211,-0.529 0.236,-0.531 0.259,-0.531C0.286,-0.531 0.311,-0.528 0.336,-0.523C0.36,-0.517 0.382,-0.508 0.402,-0.495C0.421,-0.482 0.438,-0.466 0.451,-0.446C0.464,-0.425 0.472,-0.401 0.475,-0.372L0.356,-0.372C0.351,-0.399 0.338,-0.418 0.319,-0.427C0.299,-0.436 0.276,-0.441 0.251,-0.441C0.243,-0.441 0.234,-0.44 0.223,-0.439C0.212,-0.438 0.201,-0.435 0.192,-0.432C0.182,-0.428 0.174,-0.423 0.167,-0.416C0.16,-0.409 0.157,-0.399 0.157,-0.388C0.157,-0.374 0.162,-0.363 0.172,-0.354C0.181,-0.345 0.194,-0.338 0.21,-0.333C0.225,-0.327 0.243,-0.322 0.263,-0.318C0.283,-0.314 0.304,-0.31 0.325,-0.305C0.346,-0.3 0.366,-0.295 0.386,-0.288C0.406,-0.281 0.424,-0.272 0.44,-0.261C0.455,-0.25 0.468,-0.235 0.478,-0.218C0.487,-0.201 0.492,-0.179 0.492,-0.154C0.492,-0.123 0.485,-0.097 0.471,-0.076C0.457,-0.055 0.439,-0.037 0.417,-0.024C0.394,-0.011 0.369,-0.001 0.342,0.005C0.315,0.011 0.288,0.014 0.261,0.014C0.228,0.014 0.198,0.01 0.171,0.003C0.143,-0.004 0.119,-0.016 0.099,-0.031C0.078,-0.046 0.062,-0.064 0.051,-0.087C0.039,-0.109 0.033,-0.135 0.032,-0.166L0.146,-0.166Z" style="fill:white;fill-rule:nonzero;"/>
                    </g>
                    <g transform="matrix(44.32,0,0,129.564,262.461,299.998)">
                        <path d="M0.008,-0.517L0.094,-0.517L0.094,-0.672L0.208,-0.672L0.208,-0.517L0.311,-0.517L0.311,-0.432L0.208,-0.432L0.208,-0.156C0.208,-0.144 0.209,-0.134 0.21,-0.125C0.211,-0.116 0.213,-0.109 0.217,-0.103C0.22,-0.097 0.226,-0.092 0.233,-0.09C0.24,-0.087 0.25,-0.085 0.263,-0.085C0.271,-0.085 0.279,-0.085 0.287,-0.086C0.295,-0.086 0.303,-0.087 0.311,-0.089L0.311,-0.001C0.298,0 0.286,0.002 0.274,0.003C0.262,0.004 0.25,0.005 0.237,0.005C0.207,0.005 0.183,0.002 0.165,-0.004C0.146,-0.009 0.132,-0.018 0.122,-0.029C0.111,-0.04 0.104,-0.053 0.101,-0.07C0.097,-0.087 0.095,-0.106 0.094,-0.127L0.094,-0.432L0.008,-0.432L0.008,-0.517Z" style="fill:white;fill-rule:nonzero;"/>
                    </g>
                    <g transform="matrix(44.32,0,0,129.564,275.225,299.998)">
                        <path d="M0.297,0.014C0.256,0.014 0.219,0.007 0.187,-0.007C0.154,-0.02 0.127,-0.039 0.105,-0.063C0.082,-0.087 0.065,-0.116 0.054,-0.149C0.042,-0.182 0.036,-0.219 0.036,-0.259C0.036,-0.298 0.042,-0.335 0.054,-0.368C0.065,-0.401 0.082,-0.43 0.105,-0.454C0.127,-0.478 0.154,-0.497 0.187,-0.511C0.219,-0.524 0.256,-0.531 0.297,-0.531C0.338,-0.531 0.375,-0.524 0.408,-0.511C0.44,-0.497 0.467,-0.478 0.49,-0.454C0.512,-0.43 0.529,-0.401 0.541,-0.368C0.552,-0.335 0.558,-0.298 0.558,-0.259C0.558,-0.219 0.552,-0.182 0.541,-0.149C0.529,-0.116 0.512,-0.087 0.49,-0.063C0.467,-0.039 0.44,-0.02 0.408,-0.007C0.375,0.007 0.338,0.014 0.297,0.014ZM0.297,-0.076C0.322,-0.076 0.344,-0.081 0.363,-0.092C0.382,-0.103 0.397,-0.117 0.409,-0.134C0.421,-0.151 0.43,-0.171 0.436,-0.193C0.441,-0.214 0.444,-0.236 0.444,-0.259C0.444,-0.281 0.441,-0.303 0.436,-0.325C0.43,-0.347 0.421,-0.367 0.409,-0.384C0.397,-0.401 0.382,-0.414 0.363,-0.425C0.344,-0.436 0.322,-0.441 0.297,-0.441C0.272,-0.441 0.25,-0.436 0.231,-0.425C0.212,-0.414 0.197,-0.401 0.185,-0.384C0.173,-0.367 0.164,-0.347 0.159,-0.325C0.153,-0.303 0.15,-0.281 0.15,-0.259C0.15,-0.236 0.153,-0.214 0.159,-0.193C0.164,-0.171 0.173,-0.151 0.185,-0.134C0.197,-0.117 0.212,-0.103 0.231,-0.092C0.25,-0.081 0.272,-0.076 0.297,-0.076Z" style="fill:white;fill-rule:nonzero;"/>
                    </g>
                    <g transform="matrix(44.32,0,0,129.564,299.513,299.998)">
                        <path d="M0.06,-0.517L0.168,-0.517L0.168,-0.445L0.171,-0.445C0.18,-0.458 0.189,-0.469 0.199,-0.48C0.209,-0.491 0.22,-0.5 0.233,-0.507C0.245,-0.514 0.259,-0.52 0.275,-0.525C0.291,-0.529 0.309,-0.531 0.33,-0.531C0.361,-0.531 0.391,-0.524 0.418,-0.51C0.444,-0.496 0.464,-0.474 0.475,-0.445C0.494,-0.472 0.517,-0.493 0.542,-0.508C0.567,-0.523 0.599,-0.531 0.637,-0.531C0.692,-0.531 0.734,-0.518 0.765,-0.491C0.795,-0.464 0.81,-0.42 0.81,-0.357L0.81,0L0.696,0L0.696,-0.302C0.696,-0.323 0.695,-0.341 0.694,-0.359C0.693,-0.376 0.689,-0.39 0.683,-0.403C0.676,-0.415 0.667,-0.424 0.654,-0.431C0.641,-0.438 0.624,-0.441 0.602,-0.441C0.563,-0.441 0.535,-0.429 0.518,-0.405C0.501,-0.381 0.492,-0.347 0.492,-0.303L0.492,0L0.378,0L0.378,-0.332C0.378,-0.368 0.372,-0.395 0.359,-0.414C0.345,-0.432 0.322,-0.441 0.287,-0.441C0.272,-0.441 0.258,-0.438 0.245,-0.432C0.231,-0.426 0.219,-0.417 0.209,-0.406C0.198,-0.395 0.19,-0.381 0.184,-0.364C0.177,-0.347 0.174,-0.328 0.174,-0.307L0.174,0L0.06,0L0.06,-0.517Z" style="fill:white;fill-rule:nonzero;"/>
                    </g>
                    <g transform="matrix(44.32,0,0,129.564,336.077,299.998)">
                        <path d="M0.063,-0.714L0.177,-0.714L0.177,-0.606L0.063,-0.606L0.063,-0.714ZM0.063,-0.517L0.177,-0.517L0.177,0L0.063,0L0.063,-0.517Z" style="fill:white;fill-rule:nonzero;"/>
                    </g>
                    <g transform="matrix(44.32,0,0,129.564,344.763,299.998)">
                        <path d="M0.042,-0.517L0.462,-0.517L0.462,-0.437L0.166,-0.09L0.477,-0.09L0.477,0L0.022,0L0.022,-0.08L0.308,-0.427L0.042,-0.427L0.042,-0.517Z" style="fill:white;fill-rule:nonzero;"/>
                    </g>
                    <g transform="matrix(44.32,0,0,129.564,364.929,299.998)">
                        <path d="M0.415,-0.304C0.414,-0.322 0.41,-0.339 0.404,-0.356C0.397,-0.373 0.389,-0.387 0.378,-0.4C0.367,-0.412 0.353,-0.422 0.338,-0.43C0.322,-0.437 0.304,-0.441 0.285,-0.441C0.265,-0.441 0.247,-0.438 0.231,-0.431C0.214,-0.424 0.2,-0.414 0.189,-0.402C0.177,-0.389 0.168,-0.375 0.161,-0.358C0.154,-0.341 0.15,-0.323 0.149,-0.304L0.415,-0.304ZM0.149,-0.229C0.149,-0.209 0.152,-0.19 0.158,-0.171C0.163,-0.152 0.172,-0.136 0.183,-0.122C0.194,-0.108 0.209,-0.097 0.226,-0.089C0.243,-0.08 0.264,-0.076 0.288,-0.076C0.321,-0.076 0.348,-0.083 0.369,-0.098C0.389,-0.112 0.404,-0.133 0.414,-0.162L0.522,-0.162C0.516,-0.134 0.506,-0.109 0.491,-0.087C0.476,-0.065 0.459,-0.047 0.438,-0.032C0.417,-0.017 0.394,-0.005 0.369,0.003C0.343,0.01 0.316,0.014 0.288,0.014C0.247,0.014 0.211,0.007 0.18,-0.006C0.149,-0.019 0.122,-0.038 0.101,-0.062C0.079,-0.086 0.063,-0.115 0.052,-0.148C0.041,-0.181 0.035,-0.218 0.035,-0.258C0.035,-0.295 0.041,-0.329 0.053,-0.363C0.064,-0.396 0.081,-0.425 0.103,-0.45C0.124,-0.474 0.15,-0.494 0.181,-0.509C0.212,-0.524 0.246,-0.531 0.285,-0.531C0.326,-0.531 0.362,-0.523 0.395,-0.506C0.427,-0.489 0.454,-0.466 0.475,-0.438C0.496,-0.41 0.512,-0.378 0.522,-0.342C0.531,-0.305 0.534,-0.268 0.529,-0.229L0.149,-0.229Z" style="fill:white;fill-rule:nonzero;"/>
                    </g>
                    <g transform="matrix(44.32,0,0,129.564,387.576,299.998)">
                        <rect x="0.069" y="-0.135" width="0.139" height="0.135" style="fill:white;fill-rule:nonzero;"/>
                    </g>
                    <g transform="matrix(44.32,0,0,129.564,399.897,299.998)">
                        <path d="M0.136,-0.714L0.249,-0.714L0.227,-0.606L0.114,-0.606L0.136,-0.714ZM0.095,-0.517L0.209,-0.517L0.102,0L-0.012,0L0.095,-0.517Z" style="fill:white;fill-rule:nonzero;"/>
                    </g>
                    <g transform="matrix(44.32,0,0,129.564,410.578,299.998)">
                        <path d="M0.3,-0.441C0.271,-0.441 0.245,-0.434 0.224,-0.419C0.202,-0.404 0.184,-0.386 0.169,-0.364C0.154,-0.341 0.143,-0.316 0.137,-0.289C0.13,-0.262 0.126,-0.235 0.126,-0.209C0.126,-0.171 0.135,-0.139 0.155,-0.114C0.173,-0.089 0.204,-0.076 0.245,-0.076C0.274,-0.076 0.3,-0.083 0.322,-0.098C0.343,-0.112 0.361,-0.13 0.376,-0.153C0.391,-0.175 0.402,-0.2 0.409,-0.228C0.416,-0.255 0.419,-0.282 0.419,-0.308C0.419,-0.346 0.409,-0.378 0.391,-0.403C0.372,-0.428 0.341,-0.441 0.3,-0.441ZM0.238,0.014C0.166,0.014 0.11,-0.005 0.071,-0.045C0.032,-0.084 0.012,-0.139 0.012,-0.212C0.012,-0.255 0.019,-0.295 0.033,-0.334C0.047,-0.372 0.067,-0.406 0.093,-0.435C0.118,-0.464 0.149,-0.488 0.186,-0.505C0.222,-0.522 0.262,-0.531 0.307,-0.531C0.379,-0.531 0.435,-0.512 0.474,-0.475C0.513,-0.437 0.533,-0.382 0.533,-0.309C0.533,-0.264 0.526,-0.221 0.513,-0.182C0.5,-0.143 0.48,-0.109 0.455,-0.08C0.429,-0.051 0.398,-0.028 0.362,-0.011C0.325,0.006 0.284,0.014 0.238,0.014Z" style="fill:white;fill-rule:nonzero;"/>
                    </g>
                </g>
            </g>
        </g>
    </g>
</svg>
