<?xml version="1.0" encoding="UTF-8" standalone="no"?>
<!DOCTYPE svg PUBLIC "-//W3C//DTD SVG 1.1//EN" "http://www.w3.org/Graphics/SVG/1.1/DTD/svg11.dtd">
<svg width="100%" height="100%" viewBox="0 0 960 795" version="1.1" xmlns="http://www.w3.org/2000/svg" xmlns:xlink="http://www.w3.org/1999/xlink" xml:space="preserve" xmlns:serif="http://www.serif.com/" style="fill-rule:evenodd;clip-rule:evenodd;stroke-linejoin:round;stroke-miterlimit:2;">
    <g id="Artboard1" transform="matrix(1,0,0,1,-117.186,131.794)">
        <rect x="117.186" y="-131.794" width="960" height="795" style="fill:none;"/>
        <clipPath id="_clip1">
            <rect x="117.186" y="-131.794" width="960" height="795"/>
        </clipPath>
        <g clip-path="url(#_clip1)">
            <g transform="matrix(0.24,0,0,0.24,597.372,265.912)">
                <g transform="matrix(1,0,0,1,-2000,-1656.25)">
                    <clipPath id="_clip2">
                        <rect x="0" y="0" width="4000" height="3312.5"/>
                    </clipPath>
                    <g clip-path="url(#_clip2)">
                        <g transform="matrix(4.16667,0,0,4.16667,0,0)">
                            <path d="M813.384,795C852.139,795 884.655,768.444 893.816,732.543C893.871,732.283 893.917,732.013 893.917,731.739C893.917,729.556 892.145,727.789 889.971,727.789L856.495,727.789C854.906,727.789 853.536,728.73 852.915,730.095L852.906,730.09C846.028,745.056 830.93,755.46 813.384,755.46C789.371,755.46 769.889,735.991 769.889,711.969C769.889,687.952 789.371,668.478 813.384,668.478C830.93,668.478 846.028,678.882 852.906,693.85L852.915,693.843C853.536,695.199 854.906,696.154 856.495,696.154L889.971,696.154C892.145,696.154 893.917,694.384 893.917,692.199C893.917,691.925 893.871,691.671 893.816,691.409C884.664,655.508 852.139,628.942 813.384,628.942C767.541,628.942 730.348,666.126 730.348,711.969C730.348,757.825 767.541,795 813.384,795ZM956.045,632.895L956.045,787.09C956.045,789.269 954.273,791.04 952.099,791.04L920.469,791.04C918.286,791.04 916.514,789.269 916.514,787.09L916.514,632.895L956.045,632.895ZM936.28,577.544C923.182,577.544 912.559,588.169 912.559,601.267C912.559,614.369 923.182,624.99 936.28,624.99C949.387,624.99 960,614.369 960,601.267C960,588.169 949.387,577.544 936.28,577.544ZM566.442,696.154C573.374,671.086 596.337,652.665 623.61,652.665C650.884,652.665 673.828,671.086 680.761,696.154L566.442,696.154ZM623.61,628.942C577.749,628.942 540.574,666.112 540.574,711.969C540.574,757.821 577.749,795 623.61,795C656.026,795 684.076,776.413 697.75,749.326C698.023,748.787 698.179,748.194 698.179,747.55C698.179,745.362 696.407,743.599 694.224,743.599L675.874,743.599C674.568,743.599 673.408,744.239 672.695,745.225C662.018,760.94 644.024,771.275 623.61,771.275C593.533,771.275 568.707,748.888 564.838,719.874L702.572,719.874C704.691,719.874 706.409,718.207 706.518,716.12C706.591,714.746 706.628,713.36 706.628,711.969C706.628,666.112 669.462,628.942 623.61,628.942ZM512.899,581.497L497.088,581.497C494.896,581.497 493.133,583.269 493.133,585.449L493.133,787.09C493.133,789.269 494.896,791.04 497.088,791.04L512.899,791.04C515.081,791.04 516.859,789.269 516.859,787.09L516.859,585.449C516.859,583.269 515.081,581.497 512.899,581.497ZM465.453,743.599L447.099,743.599C445.82,743.599 444.687,744.211 443.975,745.152C433.316,760.908 415.286,771.275 394.84,771.275C362.074,771.275 335.529,744.723 335.529,711.969C335.529,679.215 362.074,652.665 394.84,652.665C415.286,652.665 433.316,663.034 443.975,678.786C444.697,679.731 445.829,680.341 447.099,680.341L465.453,680.341C467.641,680.341 469.413,678.566 469.413,676.388C469.413,675.744 469.248,675.146 468.974,674.611C455.31,647.527 427.242,628.942 394.84,628.942C348.981,628.942 311.811,666.112 311.811,711.969C311.811,757.821 348.981,795 394.84,795C427.242,795 455.31,776.413 468.974,749.326C469.248,748.787 469.413,748.194 469.413,747.55C469.413,745.362 467.641,743.599 465.453,743.599ZM307.911,629.038C283.985,630.166 264.876,641.597 252.5,659.056L252.5,636.841C252.5,634.669 250.728,632.895 248.545,632.895L232.732,632.895C230.547,632.895 228.78,634.669 228.78,636.841L228.78,787.09C228.78,789.269 230.547,791.04 232.732,791.04L248.545,791.04C250.728,791.04 252.5,789.269 252.5,787.09L252.5,711.969C252.5,680.546 276.945,654.837 307.847,652.802C310.032,652.802 311.811,651.028 311.811,648.84L311.811,632.991C311.811,630.824 310.066,629.079 307.911,629.038ZM205.054,787.09L205.054,632.895L181.329,632.895L181.329,787.09C181.329,789.269 183.106,791.04 185.287,791.04L201.099,791.04C203.282,791.04 205.054,789.269 205.054,787.09ZM209.005,601.267C209.005,610.001 201.931,617.082 193.194,617.082C184.462,617.082 177.381,610.001 177.381,601.267C177.381,592.532 184.462,585.449 193.194,585.449C201.931,585.449 209.005,592.532 209.005,601.267ZM153.654,743.599L135.304,743.599C134.018,743.599 132.897,744.211 132.169,745.152C121.517,760.908 103.491,771.275 83.035,771.275C50.277,771.275 23.727,744.723 23.727,711.969C23.727,679.215 50.277,652.665 83.035,652.665C103.491,652.665 121.517,663.034 132.176,678.786C132.897,679.731 134.03,680.341 135.304,680.341L153.654,680.341C155.841,680.341 157.618,678.566 157.618,676.388C157.618,675.744 157.447,675.146 157.184,674.611C143.511,647.527 115.442,628.942 83.035,628.942C37.179,628.942 0,666.112 0,711.969C0,757.821 37.179,795 83.035,795C115.442,795 143.511,776.413 157.184,749.326C157.447,748.787 157.618,748.194 157.618,747.55C157.618,745.362 155.841,743.599 153.654,743.599Z" style="fill:rgb(21,22,22);fill-rule:nonzero;"/>
                            <path d="M476.217,0.658C358.233,0.658 259.225,81.495 231.36,190.781C231.172,191.577 231.044,192.385 231.044,193.232C231.044,199.879 236.433,205.265 243.081,205.265L344.951,205.265C349.802,205.265 353.951,202.369 355.868,198.237L355.884,198.241C376.815,152.679 422.787,121.007 476.217,121.007C549.314,121.007 608.603,180.296 608.603,253.407C608.603,326.521 549.314,385.81 476.217,385.81C422.787,385.81 376.815,354.138 355.884,308.563L355.868,308.589C353.951,304.448 349.802,301.557 344.951,301.557L243.081,301.557C236.433,301.557 231.044,306.929 231.044,313.594C231.044,314.416 231.172,315.202 231.343,315.99C259.2,425.285 358.211,506.151 476.217,506.151C615.789,506.151 728.956,392.979 728.956,253.407C728.956,113.821 615.789,0.658 476.217,0.658ZM416.033,253.407C416.033,220.181 442.983,193.232 476.217,193.232C509.445,193.232 536.386,220.181 536.386,253.407C536.386,286.636 509.445,313.594 476.217,313.594C442.983,313.594 416.033,286.636 416.033,253.407Z" style="fill:rgb(21,22,22);fill-rule:nonzero;"/>
                        </g>
                    </g>
                </g>
            </g>
        </g>
    </g>
</svg>
