<?xml version="1.0" encoding="UTF-8" standalone="no"?>
<!DOCTYPE svg PUBLIC "-//W3C//DTD SVG 1.1//EN" "http://www.w3.org/Graphics/SVG/1.1/DTD/svg11.dtd">
<svg width="100%" height="100%" viewBox="0 0 960 201" version="1.1" xmlns="http://www.w3.org/2000/svg" xmlns:xlink="http://www.w3.org/1999/xlink" xml:space="preserve" xmlns:serif="http://www.serif.com/" style="fill-rule:evenodd;clip-rule:evenodd;stroke-linejoin:round;stroke-miterlimit:2;">
    <g id="Artboard1" transform="matrix(1,0,0,1,-74.4943,-152.154)">
        <rect x="74.494" y="152.154" width="960" height="201" style="fill:none;"/>
        <g transform="matrix(0.24,0,0,0.24,554.494,252.654)">
            <g transform="matrix(1,0,0,1,-2000,-418.75)">
                <clipPath id="_clip1">
                    <rect x="0" y="0" width="4000" height="837.5"/>
                </clipPath>
                <g clip-path="url(#_clip1)">
                    <g transform="matrix(4.16667,0,0,4.16667,0,0)">
                        <path d="M850.893,162.389C879.733,162.389 903.931,142.626 910.748,115.91C910.789,115.717 910.823,115.516 910.823,115.312C910.823,113.687 909.505,112.372 907.887,112.372L882.975,112.372C881.793,112.372 880.773,113.072 880.311,114.089L880.304,114.085C875.186,125.222 863.95,132.964 850.893,132.964C833.023,132.964 818.525,118.476 818.525,100.6C818.525,82.727 833.023,68.236 850.893,68.236C863.95,68.236 875.186,75.978 880.304,87.116L880.311,87.111C880.773,88.121 881.793,88.831 882.975,88.831L907.887,88.831C909.505,88.831 910.823,87.514 910.823,85.888C910.823,85.684 910.789,85.495 910.748,85.3C903.938,58.584 879.733,38.814 850.893,38.814C816.778,38.814 789.101,66.486 789.101,100.6C789.101,134.725 816.778,162.389 850.893,162.389ZM957.057,41.756L957.057,156.502C957.057,158.124 955.738,159.442 954.121,159.442L930.582,159.442C928.958,159.442 927.639,158.124 927.639,156.502L927.639,41.756L957.057,41.756ZM942.348,0.566C932.601,0.566 924.696,8.472 924.696,18.219C924.696,27.97 932.601,35.873 942.348,35.873C952.102,35.873 960,27.97 960,18.219C960,8.472 952.102,0.566 942.348,0.566ZM667.127,88.831C672.286,70.176 689.374,56.468 709.67,56.468C729.966,56.468 747.04,70.176 752.199,88.831L667.127,88.831ZM709.67,38.814C675.542,38.814 647.877,66.475 647.877,100.6C647.877,134.721 675.542,162.389 709.67,162.389C733.793,162.389 754.667,148.557 764.842,128.4C765.046,127.999 765.161,127.557 765.161,127.078C765.161,125.45 763.843,124.138 762.218,124.138L748.563,124.138C747.591,124.138 746.727,124.614 746.197,125.348C738.252,137.042 724.861,144.733 709.67,144.733C687.287,144.733 668.813,128.073 665.934,106.482L768.431,106.482C770.008,106.482 771.286,105.242 771.367,103.689C771.421,102.666 771.449,101.635 771.449,100.6C771.449,66.475 743.791,38.814 709.67,38.814ZM627.282,3.507L615.516,3.507C613.885,3.507 612.573,4.826 612.573,6.448L612.573,156.502C612.573,158.124 613.885,159.442 615.516,159.442L627.282,159.442C628.907,159.442 630.229,158.124 630.229,156.502L630.229,6.448C630.229,4.826 628.907,3.507 627.282,3.507ZM591.975,124.138L578.316,124.138C577.364,124.138 576.521,124.593 575.991,125.293C568.059,137.018 554.641,144.733 539.426,144.733C515.043,144.733 495.289,124.974 495.289,100.6C495.289,76.226 515.043,56.468 539.426,56.468C554.641,56.468 568.059,64.185 575.991,75.906C576.528,76.61 577.371,77.063 578.316,77.063L591.975,77.063C593.602,77.063 594.921,75.743 594.921,74.122C594.921,73.643 594.799,73.198 594.595,72.8C584.426,52.645 563.539,38.814 539.426,38.814C505.3,38.814 477.639,66.475 477.639,100.6C477.639,134.721 505.3,162.389 539.426,162.389C563.539,162.389 584.426,148.557 594.595,128.4C594.799,127.999 594.921,127.557 594.921,127.078C594.921,125.45 593.602,124.138 591.975,124.138ZM474.737,38.886C456.932,39.725 442.712,48.232 433.502,61.224L433.502,44.692C433.502,43.076 432.183,41.756 430.559,41.756L418.791,41.756C417.165,41.756 415.85,43.076 415.85,44.692L415.85,156.502C415.85,158.124 417.165,159.442 418.791,159.442L430.559,159.442C432.183,159.442 433.502,158.124 433.502,156.502L433.502,100.6C433.502,77.217 451.693,58.084 474.689,56.57C476.315,56.57 477.639,55.25 477.639,53.622L477.639,41.827C477.639,40.215 476.341,38.916 474.737,38.886ZM398.194,156.502L398.194,41.756L380.539,41.756L380.539,156.502C380.539,158.124 381.861,159.442 383.484,159.442L395.251,159.442C396.876,159.442 398.194,158.124 398.194,156.502ZM401.134,18.219C401.134,24.719 395.87,29.989 389.368,29.989C382.87,29.989 377.601,24.719 377.601,18.219C377.601,11.719 382.87,6.448 389.368,6.448C395.87,6.448 401.134,11.719 401.134,18.219ZM359.944,124.138L346.288,124.138C345.332,124.138 344.497,124.593 343.955,125.293C336.028,137.018 322.614,144.733 307.392,144.733C283.014,144.733 263.257,124.974 263.257,100.6C263.257,76.226 283.014,56.468 307.392,56.468C322.614,56.468 336.028,64.185 343.961,75.906C344.497,76.61 345.34,77.063 346.288,77.063L359.944,77.063C361.572,77.063 362.894,75.743 362.894,74.122C362.894,73.643 362.766,73.198 362.571,72.8C352.396,52.645 331.508,38.814 307.392,38.814C273.267,38.814 245.6,66.475 245.6,100.6C245.6,134.721 273.267,162.389 307.392,162.389C331.508,162.389 352.396,148.557 362.571,128.4C362.766,127.999 362.894,127.557 362.894,127.078C362.894,125.45 361.572,124.138 359.944,124.138ZM97.392,0.198C50.524,0.198 11.194,32.31 0.125,75.723C0.051,76.039 0,76.36 0,76.696C0,79.337 2.14,81.477 4.781,81.477L45.248,81.477C47.175,81.477 48.823,80.326 49.585,78.684L49.591,78.686C57.906,60.587 76.168,48.006 97.392,48.006C126.429,48.006 149.981,71.558 149.981,100.6C149.981,129.644 126.429,153.196 97.392,153.196C76.168,153.196 57.906,140.614 49.591,122.51L49.585,122.52C48.823,120.875 47.175,119.727 45.248,119.727L4.781,119.727C2.14,119.727 0,121.861 0,124.508C0,124.835 0.051,125.147 0.119,125.46C11.184,168.876 50.515,201 97.392,201C152.836,201 197.791,156.043 197.791,100.6C197.791,45.151 152.836,0.198 97.392,0.198ZM73.485,100.6C73.485,87.402 84.19,76.696 97.392,76.696C110.592,76.696 121.294,87.402 121.294,100.6C121.294,113.8 110.592,124.508 97.392,124.508C84.19,124.508 73.485,113.8 73.485,100.6Z" style="fill:white;fill-rule:nonzero;"/>
                    </g>
                </g>
            </g>
        </g>
    </g>
</svg>
