<svg id="LOGOS" xmlns="http://www.w3.org/2000/svg" viewBox="0 0 317 132"><defs><style>.cls-1{fill:#00bc7f;}.cls-2{fill:#009a69;}</style></defs><path d="M125,60.47V91h-7.45V50.73h10.17L143,81.34V50.73h7.44V91H140.3Z"/><path d="M168.61,91.63c-10.1,0-12.83-5.57-12.83-11.62V72.57c0-6,2.73-11.61,12.83-11.61s12.82,5.56,12.82,11.61V80C181.43,86.06,178.71,91.63,168.61,91.63Zm0-24.38c-3.93,0-5.45,1.75-5.45,5.08v7.93c0,3.32,1.52,5.08,5.45,5.08s5.44-1.76,5.44-5.08V72.33C174.05,69,172.54,67.25,168.61,67.25Z"/><path d="M203.87,91V70.46c0-1.58-.66-2.36-2.35-2.36s-5,1.09-7.69,2.48V91h-7.38V61.56h5.63L192.8,64A29.59,29.59,0,0,1,204.6,61c2.84,0,4.6,1.15,5.57,3.14A28.9,28.9,0,0,1,222,61c4.9,0,6.66,3.45,6.66,8.71V91H221.3V70.46c0-1.58-.67-2.36-2.36-2.36a19.45,19.45,0,0,0-7.68,2.48V91Z"/><path d="M256.56,91h-6.05L250,89a16.15,16.15,0,0,1-8.77,2.6c-5.39,0-7.69-3.69-7.69-8.77,0-6,2.6-8.29,8.59-8.29h7.08V71.48c0-3.26-.91-4.41-5.62-4.41a41.47,41.47,0,0,0-8.17.9l-.91-5.62A38.32,38.32,0,0,1,244.58,61c9.26,0,12,3.26,12,10.65Zm-7.38-11.13h-5.44c-2.42,0-3.09.67-3.09,2.91,0,2,.67,3,3,3a11.57,11.57,0,0,0,5.56-1.51Z"/><path d="M261.1,71.36c0-6.53,2.9-10.4,9.74-10.4a40.19,40.19,0,0,1,7.86.85V49.52l7.38-1V91h-5.87l-.72-2.48a15.49,15.49,0,0,1-9.32,3.09c-5.93,0-9.07-3.51-9.07-10.23ZM278.7,68a32.32,32.32,0,0,0-6.53-.79c-2.66,0-3.69,1.27-3.69,3.93V81.59c0,2.42.9,3.75,3.63,3.75a10.43,10.43,0,0,0,6.59-2.66Z"/><polygon class="cls-1" points="61.83 36.82 32.28 53.89 52.22 65.6 56.25 63.14 66.05 68.61 66.05 57.25 75.44 51.61 75.44 62.99 91.87 53.88 91.87 53.84 61.83 36.82"/><polygon class="cls-2" points="75.44 62.99 75.44 74.29 67.58 78.83 62.08 75.42 62.08 104.91 62.23 104.92 91.87 87.89 91.87 53.88 91.32 53.88 75.44 62.99"/><polygon class="cls-1" points="58.11 73.16 58.11 84.5 49.17 90.17 49.17 67.48 52.56 65.39 32.46 53.88 32.28 53.89 32.28 87.89 62.08 104.91 62.08 75.42 58.11 73.16"/><path d="M125.45,40.86V35.21h-5.18v5.65h-2.64V27.28h2.64V33h5.18V27.28h2.64V40.86Zm12.32,0h-2.09l-.19-.66a5.77,5.77,0,0,1-3,.86c-1.87,0-2.66-1.23-2.66-2.92,0-2,.9-2.75,3-2.75h2.46v-1c0-1.09-.32-1.47-1.95-1.47a14.85,14.85,0,0,0-2.83.3l-.32-1.87a14,14,0,0,1,3.5-.46c3.21,0,4.15,1.09,4.15,3.54Zm-2.55-3.7h-1.89c-.84,0-1.07.22-1.07,1s.23,1,1,1a4.22,4.22,0,0,0,1.93-.5Zm7.91,3.9a12.53,12.53,0,0,1-3.52-.56l.35-1.87a11.94,11.94,0,0,0,3,.42c1.13,0,1.3-.24,1.3-1s-.12-.9-1.78-1.29c-2.49-.58-2.79-1.18-2.79-3.07s.9-2.84,3.82-2.84a14.07,14.07,0,0,1,3.06.34l-.25,1.95a19,19,0,0,0-2.81-.28c-1.11,0-1.3.24-1.3.85,0,.78.06.84,1.44,1.18,2.85.73,3.13,1.09,3.13,3.1S146.21,41.06,143.13,41.06Zm11.7-.2V34c0-.53-.23-.79-.81-.79a7.41,7.41,0,0,0-2.67.83v6.8H148.8V27.08l2.55.39V31.8a9.38,9.38,0,0,1,3.73-.94c1.7,0,2.31,1.15,2.31,2.9v7.1Zm4.71-11.19V27.28h2.55v2.39Zm0,11.19v-9.8h2.55v9.8Zm4.6-9.72c0-2.45,1.48-3.88,5-3.88a16.63,16.63,0,0,1,3.8.44l-.3,2.19a21.49,21.49,0,0,0-3.41-.34c-1.83,0-2.41.6-2.41,2v5.15c0,1.43.58,2,2.41,2a20.45,20.45,0,0,0,3.41-.35l.3,2.2a16.63,16.63,0,0,1-3.8.44c-3.48,0-5-1.43-5-3.88Zm14.41,9.92c-3.5,0-4.45-1.85-4.45-3.86V34.72c0-2,1-3.86,4.45-3.86S183,32.71,183,34.72V37.2C183,39.21,182.05,41.06,178.55,41.06Zm0-8.11c-1.37,0-1.89.59-1.89,1.69v2.64c0,1.1.52,1.69,1.89,1.69s1.88-.59,1.88-1.69V34.64C180.43,33.54,179.91,33,178.55,33Zm11.64.16a21.92,21.92,0,0,0-2.71,1.43v6.32h-2.55v-9.8h2.16l.16,1.09a11.23,11.23,0,0,1,2.69-1.29Zm10.22,4.49c0,2.17-1,3.46-3.38,3.46a14.74,14.74,0,0,1-2.72-.28v4l-2.56.38V31.06h2l.25.83a5.47,5.47,0,0,1,3.22-1c2.06,0,3.15,1.17,3.15,3.4Zm-6.1,1.11a11.85,11.85,0,0,0,2.26.26c.93,0,1.28-.42,1.28-1.31V34.2c0-.81-.31-1.25-1.26-1.25a3.66,3.66,0,0,0-2.28.89Z"/></svg>