<?xml version="1.0" encoding="UTF-8" standalone="no"?>
<!DOCTYPE svg PUBLIC "-//W3C//DTD SVG 1.1//EN" "http://www.w3.org/Graphics/SVG/1.1/DTD/svg11.dtd">
<svg width="100%" height="100%" viewBox="0 0 454 116" version="1.1" xmlns="http://www.w3.org/2000/svg" xmlns:xlink="http://www.w3.org/1999/xlink" xml:space="preserve" xmlns:serif="http://www.serif.com/" style="fill-rule:evenodd;clip-rule:evenodd;stroke-linejoin:round;stroke-miterlimit:2;">
    <g transform="matrix(1,0,0,1,0,-203.982)">
        <g id="gke-horizontal-color" transform="matrix(1.00042,0,0,1.00148,-202.512,-343.524)">
            <rect x="202.427" y="546.698" width="452.912" height="115.03" style="fill:none;"/>
            <g transform="matrix(1.72291,0,0,1.08621,129.849,-18.3904)">
                <g transform="matrix(0.580171,0,0,0.919274,-12.6469,461.813)">
                    <g>
                        <g transform="matrix(1,0,0,1,94.5016,57.156)">
                            <path d="M126.47,58.12L100.17,12.38C98.16,8.815 94.402,6.574 90.31,6.5L37.7,6.5C33.608,6.572 29.849,8.814 27.84,12.38L1.53,58C-0.503,61.537 -0.503,65.903 1.53,69.44L27.83,115.44C29.818,119.055 33.567,121.371 37.69,121.53L90.3,121.53C94.423,121.388 98.179,119.082 100.17,115.47L126.47,69.73C128.517,66.136 128.517,61.714 126.47,58.12Z" style="fill:rgb(66,133,244);fill-rule:nonzero;"/>
                        </g>
                        <g transform="matrix(1,0,0,1,94.5016,57.156)">
                            <path d="M89.63,48.44L64,37L39.5,50.31L38.5,79.64L80.33,121.5L90.33,121.5C94.453,121.358 98.209,119.052 100.2,115.44L120.81,79.59L89.63,48.44Z" style="fill-opacity:0.07;fill-rule:nonzero;"/>
                        </g>
                        <g id="art" transform="matrix(1,0,0,1,94.5016,57.156)">
                            <path d="M89,48L65.35,34.32C64.515,33.842 63.485,33.842 62.65,34.32L39,48C38.165,48.482 37.649,49.376 37.65,50.34L37.65,77.67C37.651,78.631 38.167,79.521 39,80L62.65,93.68C63.484,94.162 64.516,94.162 65.35,93.68L89,80C89.836,79.52 90.353,78.625 90.35,77.66L90.35,50.34C90.351,49.376 89.835,48.482 89,48ZM85.78,75.05L77.52,70.28L77.52,57.72L65.32,64.72L65.32,78.85L76.2,72.57L84.46,77.34L64,89.15L43.54,77.34L51.8,72.57L62.68,78.85L62.68,64.76L50.48,57.76L50.48,70.28L42.22,75.05L42.22,51.43L62.68,39.62L62.68,49.15L51.8,55.44L64,62.44L76.2,55.44L65.32,49.15L65.32,39.62L85.78,51.43L85.78,75.05Z" style="fill:white;fill-rule:nonzero;"/>
                        </g>
                    </g>
                </g>
                <g transform="matrix(1,0,0,1,0,-2.92208)">
                    <g transform="matrix(1.44663,0,0,2.29217,120.216,450.996)">
                        <path d="M12,51.937C9.88,51.937 8.06,51.187 6.526,49.687C4.992,48.187 4.226,46.383 4.226,44.279C4.226,42.175 4.991,40.371 6.526,38.871C8.061,37.371 9.883,36.62 12,36.62C13.961,36.591 15.853,37.352 17.249,38.73L15.772,40.207C14.762,39.23 13.404,38.692 11.999,38.712C10.469,38.712 9.169,39.252 8.103,40.339C7.056,41.379 6.478,42.804 6.506,44.28C6.506,45.826 7.036,47.137 8.103,48.22C9.116,49.283 10.531,49.874 11.999,49.847C13.557,49.847 14.844,49.347 15.869,48.313C16.469,47.713 16.869,46.813 17.009,45.678L12.003,45.678L12.003,43.586L19.047,43.586C19.122,43.958 19.147,44.386 19.147,44.886C19.147,46.942 18.544,48.572 17.334,49.781C15.962,51.216 14.184,51.931 11.989,51.931L12,51.937ZM28.37,50.537C27.41,51.477 26.24,51.937 24.858,51.937C23.476,51.937 22.304,51.467 21.346,50.537C20.388,49.607 19.908,48.424 19.908,47.017C19.908,45.61 20.388,44.437 21.346,43.497C22.304,42.557 23.476,42.097 24.858,42.097C26.24,42.097 27.412,42.567 28.37,43.497C29.328,44.427 29.808,45.613 29.808,47.017C29.808,48.421 29.328,49.597 28.37,50.537ZM22.896,49.157C23.4,49.705 24.114,50.014 24.859,50.006C25.619,50.006 26.273,49.724 26.822,49.156C27.371,48.588 27.644,47.876 27.644,47.016C27.644,46.146 27.374,45.428 26.831,44.866C26.288,44.304 25.633,44.026 24.859,44.026C24.113,44.015 23.396,44.32 22.887,44.866C22.344,45.426 22.074,46.142 22.074,47.016C22.074,47.874 22.347,48.589 22.896,49.156L22.896,49.157ZM39.169,50.537C38.209,51.477 37.039,51.937 35.657,51.937C34.275,51.937 33.103,51.467 32.145,50.537C31.187,49.607 30.707,48.424 30.707,47.017C30.707,45.61 31.187,44.437 32.145,43.497C33.103,42.557 34.275,42.097 35.657,42.097C37.039,42.097 38.211,42.567 39.169,43.497C40.127,44.427 40.607,45.613 40.607,47.017C40.607,48.421 40.127,49.597 39.169,50.537ZM33.695,49.157C34.199,49.705 34.913,50.014 35.658,50.006C36.418,50.006 37.072,49.724 37.621,49.156C38.17,48.588 38.443,47.876 38.443,47.016C38.443,46.146 38.173,45.428 37.63,44.866C37.087,44.304 36.432,44.026 35.658,44.026C34.912,44.015 34.195,44.32 33.686,44.866C33.143,45.426 32.873,46.142 32.873,47.016C32.873,47.874 33.146,48.589 33.695,49.156L33.695,49.157ZM46.268,56.377C45.173,56.377 44.251,56.083 43.504,55.497C42.757,54.911 42.222,54.233 41.898,53.459L43.786,52.676C43.984,53.15 44.286,53.561 44.719,53.91C45.152,54.259 45.659,54.432 46.271,54.432C47.093,54.432 47.739,54.182 48.204,53.685C48.669,53.188 48.904,52.469 48.904,51.535L48.904,50.835L48.829,50.835C48.229,51.582 47.352,51.957 46.233,51.957C44.975,51.957 43.873,51.477 42.926,50.519C41.997,49.604 41.483,48.347 41.506,47.043C41.483,45.731 41.996,44.465 42.926,43.54C43.871,42.577 44.976,42.093 46.233,42.093C46.793,42.093 47.301,42.198 47.755,42.411C48.209,42.624 48.568,42.885 48.829,43.194L48.904,43.194L48.904,42.4L50.96,42.4L50.96,51.257C50.96,52.977 50.522,54.261 49.642,55.117C48.762,55.967 47.64,56.397 46.269,56.397L46.268,56.377ZM46.418,50.005C47.139,50.018 47.83,49.706 48.297,49.156C48.801,48.589 49.053,47.883 49.053,47.034C49.053,46.176 48.801,45.458 48.297,44.884C47.832,44.33 47.141,44.014 46.418,44.026C45.658,44.026 45.01,44.314 44.476,44.884C43.942,45.454 43.672,46.172 43.672,47.034C43.672,47.88 43.939,48.589 44.476,49.156C45.013,49.723 45.659,50.006 46.418,50.006L46.418,50.005ZM54.62,37.14L54.62,51.64L52.453,51.64L52.453,37.14L54.62,37.14ZM60.56,51.936C59.164,51.936 58,51.462 57.066,50.516C56.132,49.57 55.664,48.4 55.664,47.004C55.664,45.56 56.114,44.374 57.018,43.454C57.875,42.552 59.072,42.05 60.316,42.07C60.913,42.07 61.469,42.178 61.979,42.397C62.453,42.591 62.885,42.877 63.249,43.237C63.553,43.539 63.822,43.874 64.053,44.236C64.244,44.545 64.406,44.87 64.539,45.208L64.764,45.768L58.17,48.5C58.67,49.496 59.47,49.995 60.562,49.995C61.558,49.995 62.369,49.542 62.99,48.632L64.67,49.754C64.295,50.314 63.767,50.819 63.082,51.267C62.397,51.715 61.554,51.937 60.558,51.937L60.56,51.936ZM57.814,46.856L62.214,45.026C62.088,44.714 61.86,44.462 61.514,44.27C61.166,44.075 60.773,43.976 60.374,43.982C59.738,43.982 59.144,44.242 58.591,44.765C58.038,45.288 57.771,45.987 57.796,46.857L57.814,46.856Z" style="fill:rgb(95,99,104);fill-rule:nonzero;"/>
                    </g>
                    <g transform="matrix(0.659157,0,0,0.365712,-19.8796,380.958)">
                        <g transform="matrix(31.3987,0,0,89.6707,218.73,624.755)">
                            <path d="M0.614,0L0.516,0L0.256,-0.346L0.181,-0.28L0.181,0L0.098,0L0.098,-0.714L0.181,-0.714L0.181,-0.36L0.505,-0.714L0.603,-0.714L0.316,-0.404L0.614,0Z" style="fill:rgb(85,88,92);fill-rule:nonzero;"/>
                        </g>
                        <g transform="matrix(31.3987,0,0,89.6707,238.002,624.755)">
                            <path d="M0.162,-0.535L0.162,-0.188C0.162,-0.144 0.172,-0.112 0.192,-0.09C0.212,-0.069 0.243,-0.058 0.285,-0.058C0.341,-0.058 0.382,-0.073 0.408,-0.104C0.434,-0.135 0.447,-0.185 0.447,-0.254L0.447,-0.535L0.528,-0.535L0.528,0L0.461,0L0.449,-0.072L0.445,-0.072C0.428,-0.045 0.405,-0.025 0.376,-0.011C0.346,0.003 0.313,0.01 0.275,0.01C0.21,0.01 0.161,-0.006 0.129,-0.037C0.096,-0.068 0.08,-0.117 0.08,-0.185L0.08,-0.535L0.162,-0.535Z" style="fill:rgb(85,88,92);fill-rule:nonzero;"/>
                        </g>
                        <g transform="matrix(31.3987,0,0,89.6707,257.273,624.755)">
                            <path d="M0.335,-0.544C0.405,-0.544 0.46,-0.52 0.499,-0.472C0.538,-0.424 0.557,-0.356 0.557,-0.268C0.557,-0.18 0.538,-0.112 0.498,-0.063C0.459,-0.015 0.405,0.01 0.335,0.01C0.3,0.01 0.268,0.003 0.24,-0.01C0.211,-0.022 0.187,-0.042 0.167,-0.069L0.161,-0.069L0.144,0L0.086,0L0.086,-0.76L0.167,-0.76L0.167,-0.575C0.167,-0.534 0.166,-0.497 0.163,-0.464L0.167,-0.464C0.205,-0.517 0.261,-0.544 0.335,-0.544ZM0.323,-0.476C0.268,-0.476 0.228,-0.46 0.204,-0.428C0.179,-0.397 0.167,-0.343 0.167,-0.268C0.167,-0.193 0.18,-0.139 0.205,-0.107C0.23,-0.074 0.27,-0.058 0.325,-0.058C0.375,-0.058 0.412,-0.076 0.437,-0.113C0.461,-0.149 0.473,-0.201 0.473,-0.269C0.473,-0.339 0.461,-0.391 0.437,-0.425C0.412,-0.459 0.374,-0.476 0.323,-0.476Z" style="fill:rgb(85,88,92);fill-rule:nonzero;"/>
                        </g>
                        <g transform="matrix(31.3987,0,0,89.6707,276.514,624.755)">
                            <path d="M0.312,0.01C0.233,0.01 0.17,-0.014 0.125,-0.063C0.079,-0.111 0.056,-0.178 0.056,-0.263C0.056,-0.349 0.077,-0.418 0.12,-0.469C0.162,-0.52 0.219,-0.545 0.291,-0.545C0.358,-0.545 0.411,-0.523 0.45,-0.479C0.489,-0.435 0.509,-0.376 0.509,-0.304L0.509,-0.253L0.14,-0.253C0.142,-0.19 0.158,-0.142 0.188,-0.11C0.218,-0.077 0.26,-0.061 0.315,-0.061C0.373,-0.061 0.43,-0.073 0.486,-0.097L0.486,-0.025C0.457,-0.013 0.43,-0.004 0.405,0.002C0.379,0.007 0.348,0.01 0.312,0.01ZM0.29,-0.477C0.247,-0.477 0.213,-0.463 0.187,-0.435C0.162,-0.407 0.147,-0.368 0.142,-0.319L0.422,-0.319C0.422,-0.37 0.41,-0.409 0.388,-0.436C0.365,-0.463 0.332,-0.477 0.29,-0.477Z" style="fill:rgb(85,88,92);fill-rule:nonzero;"/>
                        </g>
                        <g transform="matrix(31.3987,0,0,89.6707,294.13,624.755)">
                            <path d="M0.33,-0.545C0.354,-0.545 0.375,-0.543 0.394,-0.539L0.383,-0.464C0.361,-0.469 0.341,-0.471 0.324,-0.471C0.281,-0.471 0.244,-0.454 0.213,-0.418C0.182,-0.383 0.167,-0.34 0.167,-0.287L0.167,0L0.086,0L0.086,-0.535L0.153,-0.535L0.162,-0.436L0.166,-0.436C0.186,-0.471 0.21,-0.498 0.238,-0.517C0.266,-0.535 0.297,-0.545 0.33,-0.545Z" style="fill:rgb(85,88,92);fill-rule:nonzero;"/>
                        </g>
                        <g transform="matrix(31.3987,0,0,89.6707,306.947,624.755)">
                            <path d="M0.452,0L0.452,-0.346C0.452,-0.39 0.442,-0.422 0.422,-0.444C0.403,-0.465 0.371,-0.476 0.329,-0.476C0.273,-0.476 0.232,-0.461 0.206,-0.431C0.18,-0.4 0.167,-0.35 0.167,-0.281L0.167,0L0.086,0L0.086,-0.535L0.152,-0.535L0.165,-0.462L0.169,-0.462C0.186,-0.488 0.209,-0.509 0.239,-0.523C0.269,-0.538 0.302,-0.545 0.339,-0.545C0.403,-0.545 0.452,-0.529 0.484,-0.498C0.517,-0.467 0.533,-0.417 0.533,-0.349L0.533,0L0.452,0Z" style="fill:rgb(85,88,92);fill-rule:nonzero;"/>
                        </g>
                        <g transform="matrix(31.3987,0,0,89.6707,326.219,624.755)">
                            <path d="M0.312,0.01C0.233,0.01 0.17,-0.014 0.125,-0.063C0.079,-0.111 0.056,-0.178 0.056,-0.263C0.056,-0.349 0.077,-0.418 0.12,-0.469C0.162,-0.52 0.219,-0.545 0.291,-0.545C0.358,-0.545 0.411,-0.523 0.45,-0.479C0.489,-0.435 0.509,-0.376 0.509,-0.304L0.509,-0.253L0.14,-0.253C0.142,-0.19 0.158,-0.142 0.188,-0.11C0.218,-0.077 0.26,-0.061 0.315,-0.061C0.373,-0.061 0.43,-0.073 0.486,-0.097L0.486,-0.025C0.457,-0.013 0.43,-0.004 0.405,0.002C0.379,0.007 0.348,0.01 0.312,0.01ZM0.29,-0.477C0.247,-0.477 0.213,-0.463 0.187,-0.435C0.162,-0.407 0.147,-0.368 0.142,-0.319L0.422,-0.319C0.422,-0.37 0.41,-0.409 0.388,-0.436C0.365,-0.463 0.332,-0.477 0.29,-0.477Z" style="fill:rgb(85,88,92);fill-rule:nonzero;"/>
                        </g>
                        <g transform="matrix(31.3987,0,0,89.6707,343.835,624.755)">
                            <path d="M0.259,-0.057C0.273,-0.057 0.287,-0.058 0.3,-0.06C0.314,-0.062 0.324,-0.065 0.332,-0.067L0.332,-0.005C0.323,-0.001 0.31,0.003 0.293,0.006C0.276,0.008 0.261,0.01 0.247,0.01C0.144,0.01 0.092,-0.045 0.092,-0.154L0.092,-0.472L0.015,-0.472L0.015,-0.511L0.092,-0.545L0.126,-0.659L0.173,-0.659L0.173,-0.535L0.328,-0.535L0.328,-0.472L0.173,-0.472L0.173,-0.157C0.173,-0.125 0.181,-0.1 0.196,-0.083C0.211,-0.066 0.232,-0.057 0.259,-0.057Z" style="fill:rgb(85,88,92);fill-rule:nonzero;"/>
                        </g>
                        <g transform="matrix(31.3987,0,0,89.6707,354.919,624.755)">
                            <path d="M0.312,0.01C0.233,0.01 0.17,-0.014 0.125,-0.063C0.079,-0.111 0.056,-0.178 0.056,-0.263C0.056,-0.349 0.077,-0.418 0.12,-0.469C0.162,-0.52 0.219,-0.545 0.291,-0.545C0.358,-0.545 0.411,-0.523 0.45,-0.479C0.489,-0.435 0.509,-0.376 0.509,-0.304L0.509,-0.253L0.14,-0.253C0.142,-0.19 0.158,-0.142 0.188,-0.11C0.218,-0.077 0.26,-0.061 0.315,-0.061C0.373,-0.061 0.43,-0.073 0.486,-0.097L0.486,-0.025C0.457,-0.013 0.43,-0.004 0.405,0.002C0.379,0.007 0.348,0.01 0.312,0.01ZM0.29,-0.477C0.247,-0.477 0.213,-0.463 0.187,-0.435C0.162,-0.407 0.147,-0.368 0.142,-0.319L0.422,-0.319C0.422,-0.37 0.41,-0.409 0.388,-0.436C0.365,-0.463 0.332,-0.477 0.29,-0.477Z" style="fill:rgb(85,88,92);fill-rule:nonzero;"/>
                        </g>
                        <g transform="matrix(31.3987,0,0,89.6707,372.535,624.755)">
                            <path d="M0.431,-0.146C0.431,-0.096 0.413,-0.058 0.375,-0.031C0.338,-0.004 0.286,0.01 0.219,0.01C0.148,0.01 0.093,-0.001 0.053,-0.024L0.053,-0.099C0.079,-0.086 0.107,-0.076 0.136,-0.068C0.165,-0.061 0.194,-0.057 0.221,-0.057C0.264,-0.057 0.296,-0.064 0.319,-0.077C0.342,-0.091 0.353,-0.111 0.353,-0.139C0.353,-0.16 0.344,-0.178 0.326,-0.193C0.308,-0.207 0.273,-0.225 0.22,-0.245C0.17,-0.264 0.135,-0.28 0.114,-0.294C0.093,-0.308 0.077,-0.323 0.067,-0.341C0.057,-0.358 0.052,-0.379 0.052,-0.404C0.052,-0.447 0.069,-0.482 0.105,-0.507C0.14,-0.532 0.189,-0.545 0.251,-0.545C0.309,-0.545 0.365,-0.533 0.42,-0.51L0.391,-0.444C0.337,-0.466 0.289,-0.477 0.245,-0.477C0.207,-0.477 0.178,-0.471 0.158,-0.459C0.139,-0.447 0.129,-0.43 0.129,-0.409C0.129,-0.395 0.133,-0.383 0.14,-0.373C0.147,-0.362 0.159,-0.353 0.175,-0.344C0.192,-0.335 0.223,-0.321 0.269,-0.304C0.333,-0.281 0.375,-0.258 0.398,-0.234C0.42,-0.211 0.431,-0.181 0.431,-0.146Z" style="fill:rgb(85,88,92);fill-rule:nonzero;"/>
                        </g>
                        <g transform="matrix(31.3987,0,0,89.6707,395.67,624.755)">
                            <path d="M0.496,0L0.098,0L0.098,-0.714L0.496,-0.714L0.496,-0.64L0.181,-0.64L0.181,-0.41L0.477,-0.41L0.477,-0.337L0.181,-0.337L0.181,-0.074L0.496,-0.074L0.496,0Z" style="fill:rgb(85,88,92);fill-rule:nonzero;"/>
                        </g>
                        <g transform="matrix(31.3987,0,0,89.6707,413.133,624.755)">
                            <path d="M0.452,0L0.452,-0.346C0.452,-0.39 0.442,-0.422 0.422,-0.444C0.403,-0.465 0.371,-0.476 0.329,-0.476C0.273,-0.476 0.232,-0.461 0.206,-0.431C0.18,-0.4 0.167,-0.35 0.167,-0.281L0.167,0L0.086,0L0.086,-0.535L0.152,-0.535L0.165,-0.462L0.169,-0.462C0.186,-0.488 0.209,-0.509 0.239,-0.523C0.269,-0.538 0.302,-0.545 0.339,-0.545C0.403,-0.545 0.452,-0.529 0.484,-0.498C0.517,-0.467 0.533,-0.417 0.533,-0.349L0.533,0L0.452,0Z" style="fill:rgb(85,88,92);fill-rule:nonzero;"/>
                        </g>
                        <g transform="matrix(31.3987,0,0,89.6707,432.404,624.755)">
                            <path d="M0.524,-0.535L0.524,-0.484L0.425,-0.472C0.434,-0.461 0.442,-0.446 0.449,-0.427C0.456,-0.409 0.46,-0.388 0.46,-0.365C0.46,-0.313 0.442,-0.271 0.406,-0.24C0.37,-0.208 0.321,-0.193 0.259,-0.193C0.243,-0.193 0.228,-0.194 0.214,-0.197C0.179,-0.179 0.162,-0.156 0.162,-0.128C0.162,-0.113 0.168,-0.102 0.18,-0.095C0.192,-0.088 0.213,-0.085 0.242,-0.085L0.337,-0.085C0.395,-0.085 0.439,-0.073 0.47,-0.048C0.502,-0.024 0.517,0.012 0.517,0.058C0.517,0.117 0.493,0.163 0.446,0.194C0.398,0.225 0.329,0.24 0.238,0.24C0.168,0.24 0.114,0.227 0.076,0.201C0.038,0.175 0.019,0.138 0.019,0.091C0.019,0.058 0.029,0.03 0.05,0.006C0.071,-0.017 0.1,-0.034 0.138,-0.042C0.125,-0.048 0.113,-0.058 0.104,-0.071C0.094,-0.084 0.09,-0.099 0.09,-0.116C0.09,-0.136 0.095,-0.153 0.105,-0.167C0.116,-0.182 0.132,-0.196 0.155,-0.21C0.127,-0.221 0.105,-0.241 0.087,-0.268C0.07,-0.295 0.061,-0.327 0.061,-0.362C0.061,-0.42 0.079,-0.466 0.114,-0.497C0.149,-0.529 0.199,-0.545 0.263,-0.545C0.291,-0.545 0.316,-0.542 0.339,-0.535L0.524,-0.535ZM0.097,0.09C0.097,0.119 0.109,0.141 0.134,0.156C0.158,0.171 0.193,0.178 0.239,0.178C0.307,0.178 0.357,0.168 0.39,0.148C0.423,0.127 0.439,0.1 0.439,0.065C0.439,0.036 0.43,0.016 0.412,0.005C0.394,-0.007 0.361,-0.012 0.311,-0.012L0.214,-0.012C0.177,-0.012 0.148,-0.003 0.128,0.014C0.107,0.032 0.097,0.057 0.097,0.09ZM0.141,-0.364C0.141,-0.326 0.152,-0.298 0.173,-0.279C0.194,-0.26 0.223,-0.25 0.261,-0.25C0.34,-0.25 0.38,-0.288 0.38,-0.365C0.38,-0.446 0.34,-0.486 0.26,-0.486C0.222,-0.486 0.192,-0.476 0.172,-0.455C0.151,-0.435 0.141,-0.404 0.141,-0.364Z" style="fill:rgb(85,88,92);fill-rule:nonzero;"/>
                        </g>
                        <g transform="matrix(31.3987,0,0,89.6707,449.606,624.755)">
                            <path d="M0.167,0L0.086,0L0.086,-0.535L0.167,-0.535L0.167,0ZM0.079,-0.68C0.079,-0.699 0.084,-0.712 0.093,-0.721C0.102,-0.73 0.113,-0.734 0.127,-0.734C0.14,-0.734 0.151,-0.729 0.161,-0.721C0.17,-0.712 0.175,-0.698 0.175,-0.68C0.175,-0.662 0.17,-0.648 0.161,-0.639C0.151,-0.63 0.14,-0.626 0.127,-0.626C0.113,-0.626 0.102,-0.63 0.093,-0.639C0.084,-0.648 0.079,-0.662 0.079,-0.68Z" style="fill:rgb(85,88,92);fill-rule:nonzero;"/>
                        </g>
                        <g transform="matrix(31.3987,0,0,89.6707,457.548,624.755)">
                            <path d="M0.452,0L0.452,-0.346C0.452,-0.39 0.442,-0.422 0.422,-0.444C0.403,-0.465 0.371,-0.476 0.329,-0.476C0.273,-0.476 0.232,-0.461 0.206,-0.431C0.18,-0.4 0.167,-0.35 0.167,-0.281L0.167,0L0.086,0L0.086,-0.535L0.152,-0.535L0.165,-0.462L0.169,-0.462C0.186,-0.488 0.209,-0.509 0.239,-0.523C0.269,-0.538 0.302,-0.545 0.339,-0.545C0.403,-0.545 0.452,-0.529 0.484,-0.498C0.517,-0.467 0.533,-0.417 0.533,-0.349L0.533,0L0.452,0Z" style="fill:rgb(85,88,92);fill-rule:nonzero;"/>
                        </g>
                        <g transform="matrix(31.3987,0,0,89.6707,476.819,624.755)">
                            <path d="M0.312,0.01C0.233,0.01 0.17,-0.014 0.125,-0.063C0.079,-0.111 0.056,-0.178 0.056,-0.263C0.056,-0.349 0.077,-0.418 0.12,-0.469C0.162,-0.52 0.219,-0.545 0.291,-0.545C0.358,-0.545 0.411,-0.523 0.45,-0.479C0.489,-0.435 0.509,-0.376 0.509,-0.304L0.509,-0.253L0.14,-0.253C0.142,-0.19 0.158,-0.142 0.188,-0.11C0.218,-0.077 0.26,-0.061 0.315,-0.061C0.373,-0.061 0.43,-0.073 0.486,-0.097L0.486,-0.025C0.457,-0.013 0.43,-0.004 0.405,0.002C0.379,0.007 0.348,0.01 0.312,0.01ZM0.29,-0.477C0.247,-0.477 0.213,-0.463 0.187,-0.435C0.162,-0.407 0.147,-0.368 0.142,-0.319L0.422,-0.319C0.422,-0.37 0.41,-0.409 0.388,-0.436C0.365,-0.463 0.332,-0.477 0.29,-0.477Z" style="fill:rgb(85,88,92);fill-rule:nonzero;"/>
                        </g>
                    </g>
                </g>
            </g>
        </g>
    </g>
</svg>
