<?xml version="1.0" encoding="iso-8859-1"?>
<!-- Generator: Adobe Illustrator 24.2.1, SVG Export Plug-In . SVG Version: 6.00 Build 0)  -->
<svg version="1.1" id="_x30_1" xmlns="http://www.w3.org/2000/svg" xmlns:xlink="http://www.w3.org/1999/xlink" x="0px" y="0px"
	 width="500px" height="500px" viewBox="0 0 500 500" enable-background="new 0 0 500 500" xml:space="preserve">
<g>
	<path fill="#FFFFFF" d="M385.841,239.477l-24.394-105.968c-0.661-2.87-1.983-5.5-3.813-7.714c-1.712-2.072-3.867-3.78-6.354-4.967
		l-98.797-47.174c-2.539-1.215-5.356-1.85-8.173-1.854c0,0-0.705,0.009-0.983,0.023c-0.032,0.001-0.064,0.008-0.096,0.01
		c-2.468,0.135-4.909,0.756-7.138,1.821l-98.736,47.175c-2.346,1.121-4.398,2.702-6.065,4.613c-2.012,2.307-3.461,5.095-4.165,8.153
		l-24.346,105.907c-0.543,2.361-0.597,4.823-0.199,7.211c0.061,0.367,0.13,0.733,0.212,1.096c0.487,2.145,1.344,4.206,2.55,6.051
		c0.335,0.513,0.694,1.01,1.073,1.489l68.341,84.971c2.001,2.485,4.668,4.418,7.632,5.626c2.256,0.919,4.684,1.42,7.125,1.42
		c0.002,0,0.004,0,0.007,0l109.591-0.026c0.004,0,0.008,0,0.012,0c2.558,0,5.1-0.552,7.447-1.556
		c2.832-1.213,5.378-3.087,7.306-5.478l62.729-78.036l5.585-6.947c1.152-1.431,2.07-3.037,2.747-4.739
		c0.32-0.806,0.585-1.633,0.793-2.474C386.431,245.289,386.494,242.311,385.841,239.477z"/>
	<path fill="#0E80C3" d="M361.447,133.508c-0.629-2.733-1.865-5.245-3.561-7.39l-21.432,17.479c0.747,1.257,1.34,2.611,1.711,4.051
		c1.083,1.331,20.029,82.506,20.029,84.356c0.49,2.267,0.438,4.64-0.093,6.896c-0.158,0.675-0.359,1.338-0.603,1.986
		c-0.514,1.363-1.21,2.653-2.083,3.812c-0.015,0.143-4.222,5.496-4.245,5.637c-0.264,1.641-48.09,61.637-49.214,62.761
		c-1.593,1.94-3.655,3.487-5.938,4.532c-1.892,0.865-3.934,1.387-5.991,1.49c-0.003,0-0.007,0-0.01,0
		c-1.287,0.955-57.521,1.532-59.246,1.532c-0.855,0-29.23-0.132-29.999-0.388c-0.002,0-0.004,0-0.006,0
		c-1.988-0.052-3.964-0.485-5.809-1.237c-2.424-0.988-4.62-2.527-6.312-4.488c-2.192-1.114-55.038-66.97-55.409-69.494
		c-0.291-0.4-0.565-0.813-0.822-1.239c-0.924-1.53-1.582-3.224-1.958-4.981c-0.064-0.298-0.117-0.597-0.164-0.897
		c-0.308-1.955-0.273-3.967,0.134-5.904c0-1.91,18.951-83.089,20.099-84.438c0.625-2.409,1.814-4.613,3.427-6.452
		c1.337-1.524,2.965-2.799,4.816-3.726c1.303-1.237,77.089-37.407,79.004-37.498c1.795-0.805,3.75-1.274,5.726-1.375
		c0.026-0.001,0.051-0.006,0.077-0.007c0.227-0.01,0.773-0.018,0.79-0.017c2.258,0.004,4.514,0.486,6.561,1.406
		c1.647,0.103,56.471,26.179,73.855,34.877l20.584-16.787l-92.885-44.351c-2.539-1.215-5.356-1.85-8.173-1.854
		c0,0-0.705,0.009-0.983,0.023c-0.032,0.001-0.064,0.008-0.096,0.01c-2.468,0.135-4.909,0.756-7.138,1.821l-98.736,47.175
		c-2.346,1.121-4.398,2.702-6.065,4.613c-2.012,2.307-3.462,5.095-4.165,8.153l-24.346,105.907
		c-0.543,2.361-0.597,4.823-0.199,7.211c0.061,0.367,0.13,0.733,0.212,1.096c0.487,2.145,1.344,4.206,2.55,6.051
		c0.335,0.513,0.694,1.01,1.073,1.489l68.341,84.971c2.001,2.485,4.668,4.418,7.632,5.626c2.256,0.919,4.684,1.42,7.125,1.42
		c0.002,0,0.004,0,0.007,0l109.591-0.026c0.004,0,0.008,0,0.012,0c2.558,0,5.1-0.552,7.447-1.556
		c2.832-1.213,5.378-3.087,7.306-5.478l62.729-78.036l5.585-6.947c1.152-1.431,2.071-3.037,2.747-4.739
		c0.321-0.806,0.585-1.633,0.793-2.474c0.699-2.822,0.762-5.799,0.109-8.634L361.447,133.508z"/>
	<path fill="#02B0D4" d="M314.884,161.786c-0.048-0.157-0.113-0.307-0.167-0.461l-21.571,17.592
		c3.729,9.042,9.755,33.336,9.755,38.14c0.163,1.132,0.136,2.297-0.061,3.42c-0.059,0.341-0.133,0.679-0.223,1.011
		c-0.186,0.685-0.439,1.343-0.754,1.957c-0.045,0.43-1.498,2.594-1.565,3.017c-0.791,4.924-18.812,28.839-22.185,32.212
		c-0.923,1.039-2.019,1.931-3.202,2.639c-0.981,0.587-2.022,1.048-3.078,1.357c-0.002,0-0.003,0.001-0.005,0.001
		c-3.86,2.864-26.854,4.563-32.03,4.563c-2.565,0-14.217-0.414-16.523-1.182c-0.001,0-0.002,0-0.003,0
		c-1.082-0.157-2.155-0.455-3.177-0.871c-1.342-0.546-2.596-1.298-3.671-2.211c-6.577-3.342-28.433-30.967-29.546-38.54
		c-0.113-0.241-0.219-0.487-0.319-0.738c-0.359-0.9-0.618-1.858-0.773-2.84c-0.026-0.166-0.048-0.333-0.068-0.5
		c-0.13-1.089-0.133-2.2,0.003-3.29c0-5.73,8.163-37.452,11.606-41.501c0.47-1.111,1.137-2.145,1.953-3.05
		c0.677-0.75,1.457-1.411,2.317-1.951c3.909-3.711,33.793-17.869,39.542-18.141c0.928-0.284,1.911-0.448,2.902-0.482
		c0.013,0,0.026-0.002,0.04-0.002c0.123-0.003,0.352-0.006,0.405-0.005c1.138,0.004,2.274,0.178,3.336,0.509
		c4.868,0.304,26.571,10.342,35.835,15.896l20.555-16.763c-13.406-7.18-51.56-25.19-54.836-25.394
		c-1.554-0.625-3.251-0.953-4.949-0.957c-0.035,0-0.423,0.005-0.597,0.011c-0.02,0.001-0.039,0.004-0.058,0.005
		c-1.484,0.067-2.953,0.384-4.314,0.928c-3.832,0.182-56.667,25.345-59.273,27.819c-1.355,0.733-2.559,1.701-3.566,2.838
		c-1.215,1.372-2.143,2.991-2.69,4.751c-2.295,2.699-15.852,59.149-15.852,62.97c-0.272,1.514-0.288,3.075-0.068,4.597
		c0.034,0.234,0.071,0.467,0.116,0.699c0.265,1.37,0.724,2.695,1.365,3.91c0.178,0.338,0.369,0.667,0.571,0.988
		c0.742,5.048,38.094,51.79,42.478,54.017c1.383,1.437,3.108,2.583,4.991,3.349c1.433,0.584,2.958,0.949,4.493,1.054
		c0.001,0,0.003,0,0.004,0c1.538,0.512,21.551,0.785,23.261,0.785c3.451,0,43.064-1.138,45.638-3.048
		c0.002,0,0.005-0.001,0.007-0.001c1.556-0.206,3.098-0.697,4.535-1.423c1.733-0.876,3.312-2.096,4.57-3.585
		c2.249-2.248,35.173-44.204,35.699-47.486c0.045-0.282,2.875-4.04,2.905-4.327c0.594-0.886,1.068-1.861,1.418-2.885
		c0.166-0.49,0.304-0.99,0.413-1.499c0.364-1.69,0.404-3.459,0.077-5.158C330.547,220.829,317.051,164.449,314.884,161.786z"/>
	<path fill="#F9AE41" d="M248.797,215.085c-1.317,1.075-2.905,1.598-4.483,1.598c-2.06,0-4.103-0.892-5.506-2.613
		c-2.478-3.039-2.024-7.511,1.015-9.989l23.336-19.031c-5.22-4.017-11.754-6.411-18.849-6.411c-17.09,0-30.944,13.854-30.944,30.944
		c0,17.09,13.854,30.944,30.944,30.944c8.545,0,16.281-3.464,21.881-9.063c5.6-5.6,9.063-13.336,9.063-21.88
		c0-4.855-1.121-9.447-3.113-13.536L248.797,215.085z"/>
	<path opacity="0.3" fill="#231F20" d="M336.658,311.969l8.949-11.132L249.33,204.56c-2.773-2.772-7.267-2.772-10.041,0
		c-2.772,2.772-2.772,7.267,0,10.04L336.658,311.969z"/>
	<path fill="#454547" d="M442.351,102.66L413,93.424l2.104-1.559c3.15-2.334,3.812-6.781,1.477-9.931
		c-2.333-3.15-6.779-3.812-9.931-1.478l-2.34,1.734l-0.184-30.155c-0.201-1.218-1.23-1.748-2.177-1.045l-12.604,9.687
		c-0.948,0.702-1.255,2.307-1.255,3.588l0.182,29.809l-9.458,7.008l-0.185-30.278c-0.201-1.218-1.23-1.748-2.178-1.045
		l-12.604,9.687c-0.948,0.702-1.255,1.838-1.255,3.588l0.183,29.933l-122.692,90.912c-3.15,2.334-3.812,6.781-1.477,9.931
		c1.392,1.88,3.537,2.873,5.71,2.873c1.468,0,2.95-0.454,4.221-1.396l122.641-90.874l29.382,9.246
		c1.201,0.331,2.851,0.546,3.798-0.156l12.861-9.687c0.948-0.702,0.74-1.841-0.366-2.387l-29.233-9.2l8.938-6.623l29.5,9.283
		c0.784,0.296,2.851,0.546,3.798-0.156l12.861-9.687C443.664,104.345,443.457,103.207,442.351,102.66z"/>
</g>
<g>
	<path fill="#07242D" d="M60.031,448.487H48.96l-21.603-21.843c-0.88,0.109-1.775,0.166-2.684,0.166v21.676h-7.89v-61.23h7.891
		c0,0-0.015,31.758,0,31.758c3.843,0,7.36-1.586,9.855-4.137l9.444-9.647h11.315l-15.354,15.245
		c-1.361,1.362-2.903,2.544-4.585,3.506L60.031,448.487z"/>
	<path fill="#07242D" d="M103.559,405.115v21.854c0,0,0,0.032,0,0.047c0,11.867-9.615,21.471-21.482,21.471
		c-11.866,0-21.473-9.633-21.473-21.501c0-0.015,0-21.87,0-21.87h7.651v21.854c0,7.631,6.192,13.847,13.823,13.847
		c7.629,0,13.815-6.216,13.815-13.847v-21.854H103.559z"/>
	<path fill="#07242D" d="M154.392,426.807c0,11.972-9.706,21.679-21.68,21.679c-5.253,0-10.069-1.868-13.822-4.977v4.977h-7.87
		c0.004-0.495,0.004-61.23,0.004-61.23h7.87l-0.003,22.846c3.752-3.108,8.568-4.977,13.822-4.977
		C144.686,405.124,154.393,414.832,154.392,426.807z M146.544,426.807c0-7.64-6.193-13.832-13.832-13.832
		c-7.464,0-13.833,6.061-13.833,13.809c0,7.747,6.368,13.854,13.833,13.854C140.351,440.638,146.544,434.445,146.544,426.807z"/>
	<path fill="#07242D" d="M201.997,429.625h-34.975c1.317,6.242,6.855,10.952,13.48,10.952c4.324,0,8.177-2.008,10.699-5.135h9.173
		c-3.349,7.67-10.991,13.044-19.872,13.044c-11.961,0-21.688-9.744-21.688-21.719c0-11.974,9.727-21.652,21.688-21.652
		C193.485,405.012,203.793,416.771,201.997,429.625z M193.309,421.714c-2.015-5.092-6.987-8.677-12.806-8.677
		c-5.82,0-10.798,3.587-12.817,8.677H193.309z"/>
	<path fill="#07242D" d="M230.105,419.842v7.229h-22.319v-7.229H230.105z"/>
	<path fill="#07242D" d="M280.938,426.813c0,15.159,0,21.67,0,21.67h-7.891c0,0,0-14.211,0-21.67
		c0-7.731-6.296-13.683-13.719-13.683c-7.424,0-13.747,5.886-13.747,13.683c0,7.463,0,21.67,0,21.67h-7.889v-61.228h7.889v22.848
		c0,0,5.177-4.871,13.747-4.871C269.494,405.233,280.938,413.132,280.938,426.813z"/>
	<path fill="#07242D" d="M330.25,405.115v21.854c0,0,0,0.032,0,0.047c0,11.867-9.615,21.471-21.481,21.471
		c-11.866,0-21.474-9.633-21.474-21.501c0-0.015,0-21.87,0-21.87h7.652v21.854c0,7.631,6.192,13.847,13.822,13.847
		c7.629,0,13.815-6.216,13.815-13.847v-21.854H330.25z"/>
	<path fill="#07242D" d="M381.076,426.757c0,15.199,0,21.729,0,21.729h-7.913c0,0,0-14.249,0-21.729
		c0-7.753-6.312-13.722-13.757-13.722c-7.443,0-13.785,5.902-13.785,13.722c0,7.483,0,21.729,0,21.729h-7.91v-43.371
		c0,0,3.389,0,7.91,0v4.885c0,0,5.192-4.885,13.785-4.885C369.601,405.115,381.076,413.037,381.076,426.757z"/>
	<path fill="#07242D" d="M409.288,440.627v7.858c-5.354,0-10.175-1.924-13.977-5.117c-4.779-4.012-7.816-10.031-7.816-16.758
		v-39.355h7.816v17.859h13.977v7.909h-13.977v13.784C395.417,434.456,401.614,440.627,409.288,440.627z"/>
	<path fill="#07242D" d="M455.072,429.625h-34.975c1.317,6.242,6.855,10.952,13.48,10.952c4.324,0,8.177-2.008,10.699-5.135h9.172
		c-3.349,7.67-10.991,13.044-19.872,13.044c-11.961,0-21.688-9.744-21.688-21.719c0-11.974,9.727-21.652,21.688-21.652
		C446.559,405.012,456.867,416.771,455.072,429.625z M446.383,421.714c-2.015-5.092-6.987-8.677-12.806-8.677
		c-5.82,0-10.798,3.587-12.817,8.677H446.383z"/>
	<path fill="#07242D" d="M483.217,405.115v7.806c-7.409,0.016-13.442,5.892-13.714,13.238v22.326h-7.828v-43.371h7.828v4.949
		C473.227,406.979,478.006,405.122,483.217,405.115z"/>
</g>
</svg>
