<?xml version="1.0" encoding="iso-8859-1"?>
<!-- Generator: Adobe Illustrator 24.2.1, SVG Export Plug-In . SVG Version: 6.00 Build 0)  -->
<svg version="1.1" id="_x30_1" xmlns="http://www.w3.org/2000/svg" xmlns:xlink="http://www.w3.org/1999/xlink" x="0px" y="0px"
	 width="500px" height="135px" viewBox="0 0 500 135" enable-background="new 0 0 500 135" xml:space="preserve">
<g>
	<path fill="#FFFFFF" d="M126.573,86.349L116.474,42.48c-0.274-1.188-0.821-2.277-1.578-3.193c-0.709-0.858-1.601-1.565-2.63-2.056
		l-40.9-19.529c-1.051-0.503-2.217-0.766-3.384-0.768c0,0-0.292,0.004-0.407,0.01c-0.013,0.001-0.026,0.003-0.04,0.004
		c-1.022,0.056-2.032,0.313-2.955,0.754l-40.875,19.53c-0.971,0.464-1.821,1.119-2.511,1.91c-0.833,0.955-1.433,2.109-1.724,3.375
		L9.391,86.36c-0.225,0.977-0.247,1.997-0.083,2.985c0.025,0.152,0.054,0.303,0.088,0.454c0.202,0.888,0.556,1.741,1.056,2.505
		c0.139,0.212,0.287,0.418,0.444,0.617l28.292,35.177c0.828,1.029,1.932,1.829,3.16,2.329c0.934,0.381,1.939,0.588,2.95,0.588
		c0.001,0,0.002,0,0.003,0l45.369-0.011c0.002,0,0.003,0,0.005,0c1.059,0,2.111-0.228,3.083-0.644
		c1.173-0.502,2.226-1.278,3.024-2.268l25.968-32.306l2.312-2.876c0.477-0.592,0.857-1.257,1.137-1.962
		c0.133-0.334,0.242-0.676,0.328-1.024C126.817,88.755,126.843,87.523,126.573,86.349z"/>
	<path fill="#0E80C3" d="M116.474,42.48c-0.261-1.132-0.772-2.171-1.474-3.06l-8.872,7.236c0.309,0.521,0.555,1.081,0.708,1.677
		c0.449,0.551,8.291,34.156,8.291,34.922c0.203,0.938,0.181,1.921-0.038,2.855c-0.066,0.279-0.149,0.554-0.25,0.822
		c-0.213,0.564-0.501,1.098-0.862,1.578c-0.006,0.059-1.748,2.275-1.757,2.334c-0.109,0.679-19.908,25.517-20.374,25.982
		c-0.66,0.803-1.513,1.444-2.458,1.876c-0.783,0.358-1.628,0.574-2.48,0.617c-0.001,0-0.003,0-0.004,0
		c-0.533,0.395-23.813,0.634-24.527,0.634c-0.354,0-12.101-0.055-12.419-0.161c-0.001,0-0.002,0-0.002,0
		c-0.823-0.022-1.641-0.201-2.405-0.512c-1.003-0.409-1.912-1.046-2.613-1.858c-0.907-0.461-22.785-27.724-22.939-28.769
		c-0.12-0.166-0.234-0.337-0.34-0.513c-0.382-0.633-0.655-1.335-0.81-2.062c-0.026-0.123-0.048-0.247-0.068-0.372
		c-0.128-0.809-0.113-1.642,0.055-2.444c0-0.791,7.846-34.397,8.321-34.956c0.259-0.997,0.751-1.91,1.419-2.671
		c0.554-0.631,1.227-1.159,1.994-1.542c0.539-0.512,31.913-15.486,32.706-15.523c0.743-0.333,1.553-0.527,2.371-0.569
		c0.011-0.001,0.021-0.003,0.032-0.003c0.094-0.004,0.32-0.007,0.327-0.007c0.935,0.002,1.869,0.201,2.716,0.582
		c0.682,0.043,23.378,10.838,30.575,14.438l8.521-6.95L71.365,17.701c-1.051-0.503-2.217-0.766-3.384-0.768
		c0,0-0.292,0.004-0.407,0.01c-0.013,0.001-0.026,0.003-0.04,0.004c-1.022,0.056-2.032,0.313-2.955,0.754l-40.875,19.53
		c-0.971,0.464-1.821,1.119-2.511,1.91c-0.833,0.955-1.433,2.109-1.724,3.375L9.391,86.36c-0.225,0.977-0.247,1.997-0.083,2.985
		c0.025,0.152,0.054,0.303,0.088,0.454c0.202,0.888,0.556,1.741,1.056,2.505c0.139,0.212,0.287,0.418,0.444,0.617l28.292,35.177
		c0.828,1.029,1.932,1.829,3.16,2.329c0.934,0.381,1.939,0.588,2.95,0.588c0.001,0,0.002,0,0.003,0l45.369-0.011
		c0.002,0,0.003,0,0.005,0c1.059,0,2.111-0.228,3.083-0.644c1.173-0.502,2.226-1.278,3.024-2.268l25.968-32.306l2.312-2.876
		c0.477-0.592,0.857-1.257,1.137-1.962c0.133-0.334,0.242-0.676,0.328-1.024c0.289-1.168,0.316-2.401,0.045-3.574L116.474,42.48z"/>
	<path fill="#02B0D4" d="M97.198,54.187c-0.02-0.065-0.047-0.127-0.069-0.191l-8.93,7.283c1.544,3.743,4.038,13.801,4.038,15.789
		c0.068,0.469,0.056,0.951-0.025,1.416c-0.024,0.141-0.055,0.281-0.092,0.419c-0.077,0.283-0.182,0.556-0.312,0.81
		c-0.019,0.178-0.62,1.074-0.648,1.249C90.832,83,83.371,92.901,81.975,94.297c-0.382,0.43-0.836,0.799-1.326,1.092
		c-0.406,0.243-0.837,0.434-1.274,0.562c-0.001,0-0.001,0-0.002,0.001c-1.598,1.186-11.117,1.889-13.26,1.889
		c-1.062,0-5.885-0.171-6.84-0.489c0,0-0.001,0-0.001,0c-0.448-0.065-0.892-0.188-1.315-0.36c-0.555-0.226-1.075-0.537-1.52-0.915
		c-2.723-1.383-11.771-12.82-12.232-15.955c-0.047-0.1-0.091-0.202-0.132-0.305c-0.149-0.372-0.256-0.769-0.32-1.176
		c-0.011-0.069-0.02-0.138-0.028-0.207c-0.054-0.451-0.055-0.911,0.001-1.362c0-2.372,3.38-15.505,4.805-17.181
		c0.195-0.46,0.471-0.888,0.809-1.263c0.28-0.31,0.603-0.584,0.959-0.808c1.618-1.536,13.99-7.397,16.37-7.51
		c0.384-0.118,0.791-0.185,1.202-0.199c0.005,0,0.011-0.001,0.016-0.001c0.051-0.001,0.146-0.002,0.167-0.002
		c0.471,0.002,0.941,0.074,1.381,0.211c2.015,0.126,11,4.281,14.835,6.581l8.509-6.94c-5.55-2.972-21.345-10.428-22.701-10.513
		c-0.644-0.259-1.346-0.394-2.049-0.396c-0.015,0-0.175,0.002-0.247,0.005c-0.008,0-0.016,0.002-0.024,0.002
		c-0.614,0.028-1.223,0.159-1.786,0.384c-1.586,0.075-23.459,10.492-24.538,11.517c-0.561,0.304-1.059,0.704-1.476,1.175
		c-0.503,0.568-0.887,1.238-1.114,1.967c-0.95,1.117-6.563,24.487-6.563,26.068c-0.112,0.627-0.119,1.273-0.028,1.903
		c0.014,0.097,0.03,0.193,0.048,0.289c0.11,0.567,0.3,1.116,0.565,1.619c0.074,0.14,0.153,0.276,0.236,0.409
		c0.307,2.09,15.77,21.44,17.585,22.362c0.573,0.595,1.287,1.069,2.066,1.387c0.593,0.242,1.225,0.393,1.86,0.436
		c0.001,0,0.001,0,0.002,0c0.637,0.212,8.922,0.325,9.63,0.325c1.428,0,17.828-0.471,18.893-1.262c0.001,0,0.002,0,0.003,0
		c0.644-0.085,1.283-0.289,1.877-0.589c0.717-0.363,1.371-0.868,1.892-1.484c0.931-0.931,14.561-18.3,14.779-19.659
		c0.019-0.117,1.19-1.673,1.203-1.791c0.246-0.367,0.442-0.77,0.587-1.194c0.069-0.203,0.126-0.41,0.171-0.62
		c0.151-0.699,0.167-1.432,0.032-2.135C103.682,78.63,98.095,55.289,97.198,54.187z"/>
	<path fill="#F9AE41" d="M69.839,76.251c-0.545,0.445-1.203,0.662-1.856,0.662c-0.853,0-1.698-0.369-2.279-1.082
		c-1.026-1.258-0.838-3.109,0.42-4.135l9.661-7.879c-2.161-1.663-4.866-2.654-7.803-2.654c-7.075,0-12.81,5.735-12.81,12.81
		c0,7.075,5.735,12.81,12.81,12.81c3.537,0,6.74-1.434,9.058-3.752c2.318-2.318,3.752-5.521,3.752-9.058
		c0-2.01-0.464-3.911-1.289-5.604L69.839,76.251z"/>
	<path opacity="0.3" fill="#231F20" d="M106.212,116.36l3.705-4.608L70.06,71.894c-1.148-1.148-3.009-1.148-4.157,0
		c-1.148,1.148-1.148,3.009,0,4.156L106.212,116.36z"/>
	<path fill="#454547" d="M149.967,29.71l-12.151-3.824l0.871-0.645c1.304-0.966,1.578-2.807,0.612-4.111
		c-0.966-1.304-2.806-1.578-4.111-0.612l-0.969,0.718l-0.076-12.484c-0.083-0.504-0.509-0.723-0.901-0.433l-5.218,4.01
		c-0.392,0.291-0.52,0.955-0.52,1.486l0.075,12.34l-3.915,2.901l-0.076-12.535c-0.083-0.504-0.509-0.723-0.901-0.433l-5.218,4.01
		c-0.392,0.291-0.52,0.761-0.52,1.486l0.076,12.392L66.232,71.612c-1.304,0.966-1.578,2.807-0.612,4.111
		c0.576,0.778,1.464,1.189,2.364,1.189c0.608,0,1.221-0.188,1.747-0.578l50.771-37.62l12.164,3.828
		c0.497,0.137,1.18,0.226,1.572-0.065l5.324-4.01c0.392-0.291,0.307-0.762-0.152-0.988l-12.102-3.808l3.7-2.742l12.212,3.843
		c0.324,0.122,1.18,0.226,1.572-0.065l5.324-4.01C150.511,30.407,150.425,29.936,149.967,29.71z"/>
</g>
<g>
	<path fill="#07242D" d="M171.347,91.586h-8.367l-16.328-16.509c-0.665,0.082-1.341,0.125-2.028,0.125v16.383h-5.963V45.307h5.964
		c0,0-0.012,24.003,0,24.003c2.904,0,5.562-1.199,7.448-3.127l7.138-7.291h8.552l-11.605,11.522c-1.029,1.03-2.194,1.923-3.465,2.65
		L171.347,91.586z"/>
	<path fill="#07242D" d="M204.245,58.805v16.517c0,0,0,0.024,0,0.035c0,8.969-7.267,16.228-16.236,16.228
		c-8.968,0-16.23-7.281-16.23-16.25c0-0.011,0-16.53,0-16.53h5.783v16.517c0,5.767,4.68,10.466,10.448,10.466
		c5.766,0,10.441-4.698,10.441-10.466V58.805H204.245z"/>
	<path fill="#07242D" d="M242.665,75.2c0,9.049-7.336,16.385-16.386,16.385c-3.97,0-7.61-1.412-10.446-3.762v3.762h-5.948
		c0.003-0.374,0.003-46.278,0.003-46.278h5.948l-0.003,17.267c2.836-2.349,6.476-3.762,10.446-3.762
		C235.329,58.813,242.666,66.15,242.665,75.2z M236.733,75.2c0-5.774-4.681-10.454-10.454-10.454
		c-5.642,0-10.455,4.581-10.455,10.437c0,5.855,4.813,10.471,10.455,10.471C232.053,85.653,236.733,80.973,236.733,75.2z"/>
	<path fill="#07242D" d="M278.645,77.33h-26.434c0.995,4.718,5.181,8.278,10.188,8.278c3.268,0,6.18-1.517,8.087-3.881h6.933
		c-2.531,5.797-8.307,9.859-15.019,9.859c-9.04,0-16.392-7.364-16.392-16.415c0-9.05,7.351-16.365,16.392-16.365
		C272.212,58.728,280.002,67.615,278.645,77.33z M272.078,71.351c-1.523-3.848-5.281-6.558-9.679-6.558
		c-4.398,0-8.161,2.711-9.687,6.558H272.078z"/>
	<path fill="#07242D" d="M299.889,69.936V75.4H283.02v-5.464H299.889z"/>
	<path fill="#07242D" d="M338.309,75.205c0,11.457,0,16.378,0,16.378h-5.964c0,0,0-10.741,0-16.378
		c0-5.843-4.759-10.342-10.369-10.342c-5.611,0-10.39,4.449-10.39,10.342c0,5.641,0,16.378,0,16.378h-5.962V45.307h5.962v17.268
		c0,0,3.913-3.681,10.39-3.681C329.659,58.894,338.309,64.865,338.309,75.205z"/>
	<path fill="#07242D" d="M375.578,58.805v16.517c0,0,0,0.024,0,0.035c0,8.969-7.267,16.228-16.235,16.228s-16.23-7.281-16.23-16.25
		c0-0.011,0-16.53,0-16.53h5.783v16.517c0,5.767,4.68,10.466,10.447,10.466c5.766,0,10.442-4.698,10.442-10.466V58.805H375.578z"/>
	<path fill="#07242D" d="M413.993,75.162c0,11.488,0,16.423,0,16.423h-5.981c0,0,0-10.77,0-16.423
		c0-5.86-4.771-10.371-10.397-10.371c-5.626,0-10.418,4.461-10.418,10.371c0,5.656,0,16.423,0,16.423h-5.979v-32.78
		c0,0,2.561,0,5.979,0v3.692c0,0,3.924-3.692,10.418-3.692C405.32,58.805,413.993,64.793,413.993,75.162z"/>
	<path fill="#07242D" d="M435.315,85.645v5.939c-4.046,0-7.69-1.454-10.564-3.867c-3.612-3.032-5.908-7.581-5.908-12.666V45.307
		h5.908v13.498h10.564v5.978h-10.564v10.418C424.832,80.982,429.516,85.645,435.315,85.645z"/>
	<path fill="#07242D" d="M469.919,77.33h-26.434c0.995,4.718,5.181,8.278,10.188,8.278c3.268,0,6.18-1.517,8.087-3.881h6.933
		c-2.531,5.797-8.307,9.859-15.019,9.859c-9.04,0-16.392-7.364-16.392-16.415c0-9.05,7.351-16.365,16.392-16.365
		C463.485,58.728,471.276,67.615,469.919,77.33z M463.352,71.351c-1.523-3.848-5.281-6.558-9.679-6.558
		c-4.398,0-8.161,2.711-9.687,6.558H463.352z"/>
	<path fill="#07242D" d="M491.191,58.805v5.9c-5.6,0.012-10.16,4.453-10.365,10.005v16.874h-5.917v-32.78h5.917v3.741
		C483.641,60.215,487.252,58.811,491.191,58.805z"/>
</g>
</svg>
