<?xml version="1.0" encoding="UTF-8" standalone="no"?>
<!DOCTYPE svg PUBLIC "-//W3C//DTD SVG 1.1//EN" "http://www.w3.org/Graphics/SVG/1.1/DTD/svg11.dtd">
<svg width="100%" height="100%" viewBox="0 0 2338 830" version="1.1" xmlns="http://www.w3.org/2000/svg" xmlns:xlink="http://www.w3.org/1999/xlink" xml:space="preserve" xmlns:serif="http://www.serif.com/" style="fill-rule:evenodd;clip-rule:evenodd;stroke-linejoin:round;stroke-miterlimit:2;">
    <g transform="matrix(4.16667,0,0,4.16667,0,0)">
        <path d="M30.382,138.231L15.191,138.231L15.191,123.039L30.382,123.039L30.382,138.231ZM15.192,15.984L30.381,15.984L30.381,31.174L15.192,31.174L15.192,15.984ZM99.124,99.894L99.124,54.32L64.27,54.32L64.281,54.31L45.573,35.602L45.573,0.792L0,0.792L0,46.366L34.853,46.366L53.539,65.051L53.55,65.04L53.55,89.174L53.528,89.152L34.831,107.848L0,107.848L0,153.422L45.573,153.422L45.573,118.59L64.27,99.894L99.124,99.894Z" style="fill:white;fill-rule:nonzero;"/>
        <path d="M149.556,147.984C151.985,153.004 157.33,156.405 163.16,156.405C174.011,156.405 180.49,147.66 180.49,136.161C180.49,124.5 174.011,115.754 163.16,115.754C157.168,115.754 151.985,119.317 149.556,124.176L149.556,147.984ZM149.556,199L129.473,199L129.473,99.883L149.556,99.883L149.556,105.875C152.795,101.988 159.921,98.263 167.695,98.263C188.75,98.263 200.734,115.754 200.734,136.161C200.734,156.567 188.75,173.897 167.695,173.897C159.921,173.897 152.795,170.172 149.556,166.285L149.556,199Z" style="fill:white;fill-rule:nonzero;"/>
        <path d="M273.614,172.277L253.532,172.277L253.532,165.637C249.483,170.172 242.519,173.897 234.097,173.897C217.901,173.897 208.67,163.208 208.67,147.174L208.67,99.883L228.752,99.883L228.752,143.125C228.752,150.737 232.478,155.92 240.413,155.92C246.568,155.92 251.912,152.195 253.37,145.878L253.37,99.883L273.614,99.883L273.614,172.277Z" style="fill:white;fill-rule:nonzero;"/>
        <path d="M306.976,147.984C309.406,153.004 314.751,156.405 320.581,156.405C331.432,156.405 337.91,147.66 337.91,136.161C337.91,124.5 331.432,115.754 320.581,115.754C314.588,115.754 309.406,119.317 306.976,124.176L306.976,147.984ZM306.976,199L286.894,199L286.894,99.883L306.976,99.883L306.976,105.875C310.215,101.988 317.341,98.263 325.116,98.263C346.169,98.263 358.155,115.754 358.155,136.161C358.155,156.567 346.169,173.897 325.116,173.897C317.341,173.897 310.215,170.172 306.976,166.285L306.976,199Z" style="fill:white;fill-rule:nonzero;"/>
        <path d="M386.983,147.984C389.413,153.004 394.757,156.405 400.587,156.405C411.439,156.405 417.917,147.66 417.917,136.161C417.917,124.5 411.439,115.754 400.587,115.754C394.595,115.754 389.413,119.317 386.983,124.176L386.983,147.984ZM386.983,199L366.901,199L366.901,99.883L386.983,99.883L386.983,105.875C390.222,101.988 397.348,98.263 405.123,98.263C426.176,98.263 438.162,115.754 438.162,136.161C438.162,156.567 426.176,173.897 405.123,173.897C397.348,173.897 390.222,170.172 386.983,166.285L386.983,199Z" style="fill:white;fill-rule:nonzero;"/>
        <path d="M462.94,128.225L490.959,128.225C490.796,120.613 486.261,114.621 478.001,114.621C470.228,114.621 464.721,119.317 462.94,128.225ZM510.231,148.631C507.64,164.017 496.303,173.897 478.164,173.897C457.109,173.897 443.019,158.511 443.019,136.161C443.019,114.297 457.595,98.263 477.839,98.263C499.056,98.263 510.717,113.001 510.717,134.217L510.717,140.372L462.454,140.372C463.102,151.223 469.256,157.701 478.164,157.701C484.965,157.701 489.987,154.786 491.606,148.631L510.231,148.631Z" style="fill:white;fill-rule:nonzero;"/>
        <path d="M523.835,116.078L512.822,116.078L512.822,99.883L523.835,99.883L523.835,80.286L543.755,80.286L543.755,99.883L559.628,99.883L559.628,116.078L543.755,116.078L543.755,147.822C543.755,153.49 546.833,156.082 552.015,156.082C555.092,156.082 558.494,155.11 560.761,153.652L560.761,171.467C558.007,172.925 553.149,173.735 547.804,173.735C533.066,173.735 523.835,166.447 523.835,150.413L523.835,116.078Z" style="fill:white;fill-rule:nonzero;"/>
    </g>
</svg>
