<?xml version="1.0" encoding="UTF-8" standalone="no"?>
<!DOCTYPE svg PUBLIC "-//W3C//DTD SVG 1.1//EN" "http://www.w3.org/Graphics/SVG/1.1/DTD/svg11.dtd">
<svg width="100%" height="100%" viewBox="0 0 634 975" version="1.1" xmlns="http://www.w3.org/2000/svg" xmlns:xlink="http://www.w3.org/1999/xlink" xml:space="preserve" xmlns:serif="http://www.serif.com/" style="fill-rule:evenodd;clip-rule:evenodd;stroke-linejoin:round;stroke-miterlimit:2;">
    <g transform="matrix(4.16667,0,0,4.16667,0,0)">
        <path d="M46.401,210.799L23.2,210.799L23.2,187.599L46.401,187.599L46.401,210.799ZM23.2,24.099L46.401,24.099L46.401,47.3L23.2,47.3L23.2,24.099ZM151.386,82.649L98.155,82.649L98.172,82.632L69.601,54.062L69.601,0.898L0,0.898L0,70.501L53.23,70.501L81.767,99.038L81.784,99.021L81.784,135.878L81.75,135.845L53.196,164.398L0,164.398L0,234L69.602,234L69.602,180.804L98.155,152.25L151.386,152.25L151.386,82.649Z" style="fill:rgb(251,173,30);fill-rule:nonzero;"/>
    </g>
</svg>
