<?xml version="1.0" encoding="UTF-8" standalone="no"?>
<!DOCTYPE svg PUBLIC "-//W3C//DTD SVG 1.1//EN" "http://www.w3.org/Graphics/SVG/1.1/DTD/svg11.dtd">
<svg width="100%" height="100%" viewBox="0 0 838 830" version="1.1" xmlns="http://www.w3.org/2000/svg" xmlns:xlink="http://www.w3.org/1999/xlink" xml:space="preserve" xmlns:serif="http://www.serif.com/" style="fill-rule:evenodd;clip-rule:evenodd;stroke-linejoin:round;stroke-miterlimit:2;">
    <g transform="matrix(4.16667,0,0,4.16667,0,0)">
        <path d="M30.382,138.231L15.191,138.231L15.191,123.039L30.382,123.039L30.382,138.231ZM15.192,15.984L30.381,15.984L30.381,31.174L15.192,31.174L15.192,15.984ZM99.124,99.894L99.124,54.32L64.27,54.32L64.281,54.31L45.573,35.602L45.573,0.792L0,0.792L0,46.366L34.853,46.366L53.539,65.051L53.55,65.04L53.55,89.174L53.528,89.152L34.831,107.848L0,107.848L0,153.422L45.573,153.422L45.573,118.59L64.27,99.894L99.124,99.894Z" style="fill:rgb(33,33,33);fill-rule:nonzero;"/>
        <path d="M149.556,147.984C151.985,153.004 157.33,156.405 163.16,156.405C174.011,156.405 180.49,147.66 180.49,136.161C180.49,124.5 174.011,115.754 163.16,115.754C157.168,115.754 151.985,119.317 149.556,124.176L149.556,147.984ZM149.556,199L129.473,199L129.473,99.883L149.556,99.883L149.556,105.875C152.795,101.988 159.921,98.263 167.695,98.263C188.75,98.263 200.734,115.754 200.734,136.161C200.734,156.567 188.75,173.897 167.695,173.897C159.921,173.897 152.795,170.172 149.556,166.285L149.556,199Z" style="fill:rgb(33,33,33);fill-rule:nonzero;"/>
    </g>
</svg>
