<?xml version="1.0" encoding="UTF-8" standalone="no"?>
<!DOCTYPE svg PUBLIC "-//W3C//DTD SVG 1.1//EN" "http://www.w3.org/Graphics/SVG/1.1/DTD/svg11.dtd">
<svg width="100%" height="100%" viewBox="0 0 23 23" version="1.1" xmlns="http://www.w3.org/2000/svg" xmlns:xlink="http://www.w3.org/1999/xlink" xml:space="preserve" xmlns:serif="http://www.serif.com/" style="fill-rule:evenodd;clip-rule:evenodd;stroke-linejoin:round;stroke-miterlimit:2;">
    <g transform="matrix(1,0,0,1,0,-237.004)">
        <g id="drone-icon-color" transform="matrix(1,0,0,1,-331.732,-143.597)">
            <rect x="331.732" y="380.601" width="22.5" height="22.3" style="fill:none;"/>
            <g transform="matrix(1,0,0,1,342.982,391.751)">
                <g transform="matrix(1,0,0,1,-11.25,-11.15)">
                    <g id="Combined-Shape" transform="matrix(1,0,0,1,0.100984,0.10056)">
                        <path d="M4.43,2.47L4.32,2.57L8.17,6.37C7.603,7.285 7.309,8.343 7.32,9.42C7.318,9.475 7.317,9.53 7.317,9.585C7.317,12.476 9.696,14.855 12.587,14.855C12.662,14.855 12.736,14.853 12.81,14.85C13.897,14.866 14.965,14.571 15.89,14L19.76,17.85C17.677,20.571 14.427,22.155 11,22.12C10.947,22.121 10.893,22.121 10.84,22.121C4.893,22.121 0,17.228 0,11.281C0,11.271 0,11.26 0,11.25C-0.047,7.778 1.609,4.495 4.43,2.47ZM6.58,1C8.052,0.331 9.653,-0.01 11.27,0C11.307,0 11.343,-0.001 11.38,-0.001C17.316,-0.001 22.2,4.884 22.2,10.819C22.2,10.836 22.2,10.853 22.2,10.87C22.217,12.491 21.876,14.096 21.2,15.57L17.75,12.12C18.306,11.218 18.6,10.179 18.6,9.12C18.603,9.048 18.604,8.977 18.604,8.905C18.604,6.009 16.221,3.625 13.324,3.625C13.25,3.625 13.175,3.627 13.1,3.63C12.04,3.624 10.999,3.919 10.1,4.48L6.58,1ZM13.16,12.25C13.123,12.251 13.086,12.252 13.049,12.252C11.305,12.252 9.869,10.816 9.869,9.072C9.869,9.048 9.869,9.024 9.87,9C9.868,8.959 9.868,8.919 9.868,8.878C9.868,7.134 11.303,5.698 13.048,5.698C13.085,5.698 13.123,5.699 13.16,5.7C13.184,5.699 13.208,5.699 13.231,5.699C14.992,5.699 16.441,7.148 16.441,8.909C16.441,8.939 16.441,8.97 16.44,9C16.442,9.041 16.442,9.082 16.442,9.122C16.442,10.856 15.016,12.282 13.282,12.282C13.242,12.282 13.201,12.282 13.16,12.28L13.16,12.25Z" style="fill:rgb(0,171,228);fill-rule:nonzero;"/>
                    </g>
                </g>
            </g>
        </g>
    </g>
</svg>
