<?xml version="1.0" encoding="UTF-8" standalone="no"?>
<!DOCTYPE svg PUBLIC "-//W3C//DTD SVG 1.1//EN" "http://www.w3.org/Graphics/SVG/1.1/DTD/svg11.dtd">
<svg width="100%" height="100%" viewBox="0 0 44 34" version="1.1" xmlns="http://www.w3.org/2000/svg" xmlns:xlink="http://www.w3.org/1999/xlink" xml:space="preserve" xmlns:serif="http://www.serif.com/" style="fill-rule:evenodd;clip-rule:evenodd;stroke-linejoin:round;stroke-miterlimit:2;">
    <g transform="matrix(1,0,0,1,0,-105.252)">
        <g id="drone-stacked-color" transform="matrix(0.947368,0,0,0.800475,-21.3158,-78.7271)">
            <rect x="22.5" y="229.838" width="45.6" height="42.1" style="fill:none;"/>
            <g transform="matrix(1.05556,0,0,1.24926,45.3,250.888)">
                <g transform="matrix(1,0,0,1,-21.6,-16.85)">
                    <g transform="matrix(1,0,0,1,-1.831e-05,0.00044)">
                        <g id="Group-3" transform="matrix(1,0,0,1,10.4974,0.10056)">
                            <path id="Combined-Shape" d="M4.43,2.47L4.32,2.57L8.17,6.37C7.603,7.285 7.309,8.343 7.32,9.42C7.318,9.475 7.317,9.53 7.317,9.585C7.317,12.476 9.696,14.855 12.587,14.855C12.662,14.855 12.736,14.853 12.81,14.85C13.897,14.866 14.965,14.571 15.89,14L19.76,17.85C17.677,20.571 14.427,22.155 11,22.12C10.947,22.121 10.893,22.121 10.84,22.121C4.893,22.121 0,17.228 0,11.281L0,11.25C-0.047,7.778 1.609,4.495 4.43,2.47ZM6.58,1C8.052,0.331 9.653,-0.01 11.27,0C11.307,0 11.343,-0.001 11.38,-0.001C17.316,-0.001 22.2,4.884 22.2,10.819L22.2,10.87C22.217,12.491 21.876,14.096 21.2,15.57L17.75,12.12C18.306,11.218 18.6,10.179 18.6,9.12C18.603,9.048 18.604,8.977 18.604,8.905C18.604,6.009 16.221,3.625 13.324,3.625C13.25,3.625 13.175,3.627 13.1,3.63C12.04,3.624 10.999,3.919 10.1,4.48L6.58,1ZM13.16,12.25C13.123,12.251 13.086,12.252 13.049,12.252C11.305,12.252 9.869,10.816 9.869,9.072C9.869,9.048 9.869,9.024 9.87,9C9.868,8.959 9.868,8.919 9.868,8.878C9.868,7.134 11.303,5.698 13.048,5.698C13.085,5.698 13.123,5.699 13.16,5.7C13.184,5.699 13.208,5.699 13.231,5.699C14.992,5.699 16.441,7.148 16.441,8.909C16.441,8.939 16.441,8.97 16.44,9C16.442,9.041 16.442,9.082 16.442,9.122C16.442,10.856 15.016,12.282 13.282,12.282C13.242,12.282 13.201,12.282 13.16,12.28L13.16,12.25Z" style="fill:rgb(0,171,228);fill-rule:nonzero;"/>
                        </g>
                        <g id="DRONE" transform="matrix(0.788453,0,0,0.792592,-22.8203,20.6021)">
                            <path d="M29.07,6.52L33.42,6.52C34.721,6.421 36.009,6.842 37,7.69C37.88,8.727 38.309,10.075 38.19,11.43C38.3,12.75 37.87,14.061 37,15.06C36.024,15.899 34.754,16.32 33.47,16.23L29.07,16.23L29.07,6.52ZM33.07,14.06C33.488,14.072 33.903,13.997 34.29,13.84C34.627,13.689 34.886,13.402 35,13.05C35.183,12.53 35.264,11.98 35.24,11.43C35.263,10.863 35.181,10.297 35,9.76C34.879,9.404 34.634,9.102 34.31,8.91C33.921,8.733 33.496,8.651 33.07,8.67L31.91,8.67L31.91,14.06L33.07,14.06ZM40.89,6.52L45.96,6.52C46.918,6.457 47.86,6.794 48.56,7.45C49.169,8.154 49.475,9.071 49.41,10C49.419,10.611 49.252,11.211 48.93,11.73C48.608,12.225 48.159,12.626 47.63,12.89C47.75,12.976 47.851,13.085 47.93,13.21C48.03,13.38 48.117,13.557 48.19,13.74L49.31,16.29L46.31,16.29L45.31,13.95C45.247,13.798 45.147,13.664 45.02,13.56C44.874,13.478 44.707,13.44 44.54,13.45L43.74,13.45L43.74,16.29L40.92,16.29L40.92,6.52L40.89,6.52ZM45.21,11.22C45.573,11.257 45.936,11.141 46.21,10.9C46.455,10.656 46.58,10.315 46.55,9.97C46.55,9.12 46.16,8.7 45.33,8.7L43.68,8.7L43.68,11.25L45.19,11.25L45.21,11.22ZM56.59,16.39C55.247,16.486 53.917,16.059 52.88,15.2C51.97,14.165 51.519,12.804 51.63,11.43C51.504,10.034 51.956,8.645 52.88,7.59C53.911,6.719 55.244,6.287 56.59,6.39C57.939,6.288 59.275,6.719 60.31,7.59C61.23,8.646 61.679,10.035 61.55,11.43C61.664,12.802 61.216,14.163 60.31,15.2C59.265,16.066 57.923,16.493 56.57,16.39L56.59,16.39ZM56.59,13.98C57.179,14.031 57.76,13.805 58.16,13.37C58.533,12.774 58.698,12.07 58.63,11.37C58.694,10.67 58.529,9.968 58.16,9.37C57.257,8.561 55.873,8.561 54.97,9.37C54.61,9.972 54.445,10.671 54.5,11.37C54.441,12.069 54.606,12.77 54.97,13.37C55.381,13.81 55.969,14.042 56.57,14L56.59,13.98ZM64.28,6.52L66.7,6.52L70.36,11.67L70.36,6.52L73.2,6.52L73.2,16.23L70.74,16.23L67.1,11.11L67.1,16.23L64.26,16.23L64.28,6.52ZM76.28,6.52L83.6,6.52L83.6,8.7L79.06,8.7L79.06,10.29L83.06,10.29L83.06,12.49L79.06,12.49L79.06,14.08L83.6,14.08L83.6,16.26L76.23,16.26L76.28,6.52Z" style="fill:rgb(30,55,90);fill-rule:nonzero;"/>
                        </g>
                    </g>
                </g>
            </g>
        </g>
    </g>
</svg>
