<?xml version="1.0" encoding="UTF-8" standalone="no"?>
<!DOCTYPE svg PUBLIC "-//W3C//DTD SVG 1.1//EN" "http://www.w3.org/Graphics/SVG/1.1/DTD/svg11.dtd">
<svg width="100%" height="100%" viewBox="0 0 44 43" version="1.1" xmlns="http://www.w3.org/2000/svg" xmlns:xlink="http://www.w3.org/1999/xlink" xml:space="preserve" xmlns:serif="http://www.serif.com/" style="fill-rule:evenodd;clip-rule:evenodd;stroke-linejoin:round;stroke-miterlimit:2;">
    <g transform="matrix(1,0,0,1,-0.11,-166.928)">
        <g id="drone-stacked-endorsement-color" transform="matrix(0.947368,0,0,1,-21.2058,-62.9093)">
            <rect x="22.5" y="229.838" width="45.6" height="42.1" style="fill:none;"/>
            <g transform="matrix(1.05556,0,0,1,45.3,250.888)">
                <g transform="matrix(1,0,0,1,-21.6,-21.05)">
                    <g transform="matrix(1,0,0,1,0.0101896,2.10942e-15)">
                        <g id="Group-3" transform="matrix(1,0,0,1,10.4872,0.10056)">
                            <path id="Combined-Shape" d="M4.43,2.47L4.32,2.57L8.17,6.37C7.603,7.285 7.309,8.343 7.32,9.42C7.318,9.475 7.317,9.53 7.317,9.585C7.317,12.476 9.696,14.855 12.587,14.855C12.662,14.855 12.736,14.853 12.81,14.85C13.897,14.866 14.965,14.571 15.89,14L19.76,17.85C17.677,20.571 14.427,22.155 11,22.12C10.947,22.121 10.893,22.121 10.84,22.121C4.893,22.121 0,17.228 0,11.281C0,11.271 0,11.26 0,11.25C-0.047,7.778 1.609,4.495 4.43,2.47ZM6.58,1C8.052,0.331 9.653,-0.01 11.27,0C11.307,0 11.343,-0.001 11.38,-0.001C17.316,-0.001 22.2,4.884 22.2,10.819C22.2,10.836 22.2,10.853 22.2,10.87C22.217,12.491 21.876,14.096 21.2,15.57L17.75,12.12C18.306,11.218 18.6,10.179 18.6,9.12C18.603,9.048 18.604,8.977 18.604,8.905C18.604,6.009 16.221,3.625 13.324,3.625C13.25,3.625 13.175,3.627 13.1,3.63C12.04,3.624 10.999,3.919 10.1,4.48L6.58,1ZM13.16,12.25C13.123,12.251 13.086,12.252 13.049,12.252C11.305,12.252 9.869,10.816 9.869,9.072C9.869,9.048 9.869,9.024 9.87,9C9.868,8.959 9.868,8.919 9.868,8.878C9.868,7.134 11.303,5.698 13.048,5.698C13.085,5.698 13.123,5.699 13.16,5.7C13.184,5.699 13.208,5.699 13.231,5.699C14.992,5.699 16.441,7.148 16.441,8.909C16.441,8.939 16.441,8.97 16.44,9C16.442,9.041 16.442,9.082 16.442,9.122C16.442,10.856 15.016,12.282 13.282,12.282C13.242,12.282 13.201,12.282 13.16,12.28L13.16,12.25Z" style="fill:rgb(0,171,228);fill-rule:nonzero;"/>
                        </g>
                        <g transform="matrix(0.788453,0,0,0.792592,-22.8305,20.6021)">
                            <path id="DRONE" d="M29.07,6.52L33.42,6.52C34.721,6.421 36.009,6.842 37,7.69C37.88,8.727 38.309,10.075 38.19,11.43C38.3,12.75 37.87,14.061 37,15.06C36.024,15.899 34.754,16.32 33.47,16.23L29.07,16.23L29.07,6.52ZM33.07,14.06C33.488,14.072 33.903,13.997 34.29,13.84C34.627,13.689 34.886,13.402 35,13.05C35.183,12.53 35.264,11.98 35.24,11.43C35.263,10.863 35.181,10.297 35,9.76C34.879,9.404 34.634,9.102 34.31,8.91C33.921,8.733 33.496,8.651 33.07,8.67L31.91,8.67L31.91,14.06L33.07,14.06ZM40.89,6.52L45.96,6.52C46.918,6.457 47.86,6.794 48.56,7.45C49.169,8.154 49.475,9.071 49.41,10C49.419,10.611 49.252,11.211 48.93,11.73C48.608,12.225 48.159,12.626 47.63,12.89C47.75,12.976 47.851,13.085 47.93,13.21C48.03,13.38 48.117,13.557 48.19,13.74L49.31,16.29L46.31,16.29L45.31,13.95C45.247,13.798 45.147,13.664 45.02,13.56C44.874,13.478 44.707,13.44 44.54,13.45L43.74,13.45L43.74,16.29L40.92,16.29L40.92,6.52L40.89,6.52ZM45.21,11.22C45.573,11.257 45.936,11.141 46.21,10.9C46.455,10.656 46.58,10.315 46.55,9.97C46.55,9.12 46.16,8.7 45.33,8.7L43.68,8.7L43.68,11.25L45.19,11.25L45.21,11.22ZM56.59,16.39C55.247,16.486 53.917,16.059 52.88,15.2C51.97,14.165 51.519,12.804 51.63,11.43C51.504,10.034 51.956,8.645 52.88,7.59C53.911,6.719 55.244,6.287 56.59,6.39C57.939,6.288 59.275,6.719 60.31,7.59C61.23,8.646 61.679,10.035 61.55,11.43C61.664,12.802 61.216,14.163 60.31,15.2C59.265,16.066 57.923,16.493 56.57,16.39L56.59,16.39ZM56.59,13.98C57.179,14.031 57.76,13.805 58.16,13.37C58.533,12.774 58.698,12.07 58.63,11.37C58.694,10.67 58.529,9.968 58.16,9.37C57.257,8.561 55.873,8.561 54.97,9.37C54.61,9.972 54.445,10.671 54.5,11.37C54.441,12.069 54.606,12.77 54.97,13.37C55.381,13.81 55.969,14.042 56.57,14L56.59,13.98ZM64.28,6.52L66.7,6.52L70.36,11.67L70.36,6.52L73.2,6.52L73.2,16.23L70.74,16.23L67.1,11.11L67.1,16.23L64.26,16.23L64.28,6.52ZM76.28,6.52L83.6,6.52L83.6,8.7L79.06,8.7L79.06,10.29L83.06,10.29L83.06,12.49L79.06,12.49L79.06,14.08L83.6,14.08L83.6,16.26L76.23,16.26L76.28,6.52Z" style="fill:rgb(30,55,90);fill-rule:nonzero;"/>
                            <path d="M44.32,24.61C43.961,24.921 43.495,25.083 43.02,25.06C42.334,25.065 41.703,24.676 41.4,24.06L41.4,24.94L40.97,24.94L40.97,17.85L41.48,17.85L41.48,20.85C41.797,20.238 42.431,19.851 43.12,19.85C43.614,19.832 44.095,20.017 44.45,20.36C44.976,20.913 45.254,21.658 45.22,22.42C45.212,23.238 44.89,24.023 44.32,24.61ZM44.05,20.82C43.775,20.539 43.393,20.386 43,20.4C42.633,20.399 42.278,20.531 42,20.77C41.555,21.226 41.332,21.855 41.39,22.49C41.349,23.122 41.582,23.742 42.03,24.19C42.291,24.459 42.655,24.605 43.03,24.59C43.395,24.603 43.752,24.478 44.03,24.24C44.484,23.775 44.717,23.138 44.67,22.49C44.69,21.874 44.468,21.274 44.05,20.82Z" style="fill:rgb(30,55,90);fill-rule:nonzero;"/>
                            <path d="M47.26,26C47.098,26.592 46.554,27.004 45.94,27C45.734,27 45.529,26.973 45.33,26.92L45.33,26.5C45.532,26.528 45.736,26.545 45.94,26.55C46.361,26.524 46.723,26.235 46.84,25.83L47.16,25.04L45.16,20.04L45.69,20.04L47.4,24.4L49,20.05L49.53,20.05L47.26,26Z" style="fill:rgb(30,55,90);fill-rule:nonzero;"/>
                            <path d="M54.61,24.93L54.61,21.78C54.61,21.19 54.42,20.78 53.76,20.78C53.1,20.78 52.7,21.58 52.7,22.19L52.7,24.89L51.48,24.89L51.48,17.85L52.7,17.85L52.7,20.37C53.04,19.941 53.563,19.696 54.11,19.71C54.129,19.709 54.149,19.709 54.168,19.709C55.084,19.709 55.838,20.463 55.838,21.379C55.838,21.433 55.835,21.486 55.83,21.54L55.83,24.93L54.61,24.93Z" style="fill:rgb(30,55,90);fill-rule:nonzero;"/>
                            <path d="M60.52,25C60.087,25.03 59.702,24.711 59.65,24.28C59.308,24.788 58.722,25.081 58.11,25.05C58.043,25.058 57.976,25.062 57.909,25.062C57.02,25.062 56.281,24.348 56.25,23.46C56.269,22.585 56.994,21.875 57.87,21.875C57.913,21.875 57.957,21.876 58,21.88L59.51,21.78L59.51,21.46C59.51,20.98 59.35,20.66 58.63,20.66C58.08,20.66 57.73,20.93 57.71,21.38L56.51,21.38C56.59,20.24 57.51,19.71 58.63,19.71C59.415,19.587 60.194,19.995 60.54,20.71C60.658,21.03 60.712,21.369 60.7,21.71L60.7,23.59C60.7,23.83 60.78,23.91 61,23.91C61.05,23.919 61.1,23.919 61.15,23.91L61.15,24.81C60.967,24.943 60.745,25.01 60.52,25ZM59.52,22.67L58.22,22.77C57.837,22.763 57.511,23.059 57.48,23.44C57.495,23.791 57.788,24.072 58.139,24.072C58.156,24.072 58.173,24.071 58.19,24.07C58.24,24.077 58.29,24.08 58.34,24.08C58.971,24.08 59.49,23.561 59.49,22.93C59.49,22.923 59.49,22.917 59.49,22.91L59.49,22.67L59.52,22.67Z" style="fill:rgb(30,55,90);fill-rule:nonzero;"/>
                            <path d="M64.16,20.93C64.14,20.929 64.121,20.929 64.101,20.929C63.399,20.929 62.821,21.506 62.821,22.209C62.821,22.259 62.824,22.31 62.83,22.36L62.83,24.93L61.59,24.93L61.59,19.84L62.59,19.84L62.7,20.61C62.957,20.065 63.53,19.737 64.13,19.79C64.253,19.779 64.377,19.779 64.5,19.79L64.5,21C64.39,20.963 64.276,20.94 64.16,20.93Z" style="fill:rgb(30,55,90);fill-rule:nonzero;"/>
                            <path d="M68,24.93L68,21.8C68,21.19 67.81,20.85 67.15,20.85C66.754,20.853 66.401,21.106 66.27,21.48C66.127,21.918 66.072,22.381 66.11,22.84L66.11,24.93L64.87,24.93L64.87,19.84L65.87,19.84L65.95,20.5C66.275,20.006 66.829,19.707 67.42,19.707C68.386,19.707 69.18,20.502 69.18,21.467C69.18,21.478 69.18,21.489 69.18,21.5L69.18,24.89L68,24.93Z" style="fill:rgb(30,55,90);fill-rule:nonzero;"/>
                            <path d="M74.34,22.76L70.92,22.76C70.907,23.129 71.04,23.489 71.29,23.76C71.492,23.955 71.759,24.069 72.04,24.08C72.309,24.103 72.576,24.017 72.78,23.84C72.893,23.722 72.976,23.578 73.02,23.42L74.18,23.42C74.12,23.766 73.976,24.093 73.76,24.37C72.859,25.294 71.364,25.33 70.42,24.45C69.894,23.919 69.605,23.197 69.62,22.45C69.594,21.712 69.86,20.993 70.36,20.45C70.777,19.985 71.375,19.723 72,19.73C72.753,19.709 73.462,20.09 73.86,20.73C74.19,21.259 74.348,21.878 74.31,22.5C74.37,22.41 74.34,22.65 74.34,22.76ZM72.83,21C72.627,20.797 72.346,20.692 72.06,20.71C71.728,20.694 71.409,20.844 71.21,21.11C71.029,21.332 70.936,21.614 70.95,21.9L73.15,21.9C73.148,21.573 73.035,21.255 72.83,21Z" style="fill:rgb(30,55,90);fill-rule:nonzero;"/>
                            <path d="M78.45,24.48C77.966,24.896 77.337,25.104 76.7,25.06C76.099,25.085 75.512,24.877 75.06,24.48C74.736,24.167 74.546,23.74 74.53,23.29L75.67,23.29C75.672,23.52 75.765,23.74 75.93,23.9C76.148,24.072 76.423,24.157 76.7,24.14C77.13,24.14 77.7,24.06 77.7,23.5C77.7,23.217 77.473,22.981 77.19,22.97C76.74,22.89 76.19,22.86 75.79,22.78C75.135,22.659 74.646,22.096 74.62,21.43C74.605,20.988 74.802,20.564 75.15,20.29C75.587,19.944 76.133,19.766 76.69,19.79C77.283,19.756 77.862,19.978 78.28,20.4C78.554,20.687 78.714,21.064 78.73,21.46L77.61,21.46C77.609,21.276 77.529,21.101 77.39,20.98C77.206,20.823 76.972,20.738 76.73,20.74C76.55,20.727 76.369,20.755 76.2,20.82C75.969,20.895 75.809,21.108 75.8,21.35C75.8,21.72 76.12,21.83 76.39,21.85L77.47,22.01C78.237,22.056 78.851,22.683 78.88,23.45C78.881,23.837 78.726,24.209 78.45,24.48Z" style="fill:rgb(30,55,90);fill-rule:nonzero;"/>
                            <path d="M83,24.48C82.516,24.896 81.887,25.104 81.25,25.06C80.649,25.085 80.062,24.877 79.61,24.48C79.286,24.167 79.096,23.74 79.08,23.29L80.22,23.29C80.217,23.521 80.311,23.742 80.48,23.9C80.698,24.072 80.973,24.157 81.25,24.14C81.68,24.14 82.25,24.06 82.25,23.5C82.25,23.217 82.023,22.981 81.74,22.97C81.29,22.89 80.79,22.86 80.34,22.78C79.685,22.659 79.196,22.096 79.17,21.43C79.155,20.988 79.352,20.564 79.7,20.29C80.137,19.944 80.683,19.766 81.24,19.79C81.833,19.756 82.412,19.978 82.83,20.4C83.1,20.689 83.26,21.065 83.28,21.46L82.19,21.46C82.188,21.288 82.12,21.123 82,21C81.816,20.843 81.582,20.758 81.34,20.76C81.16,20.746 80.978,20.774 80.81,20.84C80.579,20.915 80.419,21.128 80.41,21.37C80.41,21.74 80.73,21.85 80.99,21.87L82.08,22.03C82.847,22.076 83.461,22.703 83.49,23.47C83.478,23.861 83.3,24.229 83,24.48Z" style="fill:rgb(30,55,90);fill-rule:nonzero;"/>
                        </g>
                    </g>
                </g>
            </g>
        </g>
    </g>
</svg>
