<?xml version="1.0" encoding="UTF-8" standalone="no"?>
<!DOCTYPE svg PUBLIC "-//W3C//DTD SVG 1.1//EN" "http://www.w3.org/Graphics/SVG/1.1/DTD/svg11.dtd">
<svg width="100%" height="100%" viewBox="0 0 311 162" version="1.1" xmlns="http://www.w3.org/2000/svg" xmlns:xlink="http://www.w3.org/1999/xlink" xml:space="preserve" xmlns:serif="http://www.serif.com/" style="fill-rule:evenodd;clip-rule:evenodd;stroke-linejoin:round;stroke-miterlimit:2;">
    <g transform="matrix(1,0,0,1,-1659.76,-3338.17)">
        <g transform="matrix(0.24,0,0,0.24,1815.26,3419.17)">
            <g transform="matrix(1,0,0,1,-647.917,-337.5)">
                <clipPath id="_clip1">
                    <rect x="0" y="0" width="1295.83" height="675"/>
                </clipPath>
                <g clip-path="url(#_clip1)">
                    <g transform="matrix(4.16667,0,0,4.16667,0,0)">
                        <path d="M284.022,81.993C283.754,81.42 283.633,81.132 283.487,80.855C279.597,73.459 275.716,66.058 271.791,58.681C271.395,57.939 271.444,57.499 271.986,56.866C278.173,49.637 284.328,42.381 290.49,35.131C290.706,34.876 290.901,34.605 290.984,34.153C289.182,34.623 287.38,35.089 285.58,35.566C278.104,37.546 270.626,39.521 263.157,41.53C262.46,41.717 262.144,41.512 261.798,40.935C257.553,33.845 253.284,26.768 249.02,19.689C248.799,19.322 248.562,18.965 248.093,18.655C247.75,20.544 247.401,22.432 247.065,24.322C245.877,30.995 244.693,37.668 243.509,44.341C243.38,45.062 243.202,45.778 243.141,46.504C243.081,47.194 242.728,47.447 242.105,47.643C233.294,50.409 224.492,53.202 215.69,55.992C215.303,56.115 214.926,56.272 214.511,56.65C221.712,59.511 228.913,62.373 236.225,65.279C235.959,65.49 235.786,65.653 235.591,65.78C231.089,68.693 226.58,71.594 222.089,74.522C221.552,74.872 221.125,74.921 220.521,74.65C215.144,72.228 209.746,69.852 204.361,67.447C201.943,66.368 199.768,64.933 198.074,62.862C194.245,58.177 195.001,52.848 200.103,49.594C201.773,48.528 203.668,47.729 205.559,47.113C214.188,44.301 222.85,41.59 231.508,38.871C232.233,38.643 232.57,38.319 232.705,37.532C233.858,30.853 235.055,24.182 236.258,17.512C236.902,13.947 237.244,10.288 238.98,7.021C239.646,5.765 240.445,4.533 241.395,3.48C244.831,-0.334 249.628,-0.482 253.262,3.152C254.488,4.378 255.543,5.826 256.454,7.309C260.458,13.837 264.396,20.405 268.313,26.986C268.776,27.763 269.194,27.92 270.051,27.69C279.705,25.103 289.369,22.554 299.033,20.002C301.026,19.475 303.042,19.282 305.088,19.665C309.542,20.499 311.489,23.889 309.982,28.191C309.296,30.153 308.113,31.807 306.782,33.372C300.039,41.301 293.307,49.241 286.541,57.151C285.988,57.797 285.976,58.265 286.359,58.987C290.395,66.594 294.396,74.22 298.412,81.839C299.373,83.663 300.106,85.555 300.128,87.649C300.176,92.412 296.693,96.31 291.96,97.004C289.309,97.393 286.846,96.827 284.362,96.06C278.309,94.188 272.245,92.348 266.178,90.524C265.616,90.355 265.401,90.136 265.302,89.53C264.604,85.26 263.843,81 263.107,76.736C263.086,76.619 263.121,76.492 263.139,76.232C270.046,78.137 276.893,80.026 284.022,81.993Z" style="fill:rgb(226,107,38);"/>
                        <path d="M272.22,144.177C266.761,144.167 261.302,144.142 255.842,144.164C255.122,144.166 254.713,143.956 254.311,143.343C247.848,133.499 241.356,123.674 234.869,113.845C234.662,113.532 234.442,113.23 234.075,112.704C232.678,123.32 231.313,133.699 229.945,144.104L215.649,144.104C215.816,142.711 215.963,141.365 216.139,140.024C217.535,129.365 218.936,118.706 220.337,108.048C221.675,97.865 223.009,87.68 224.367,77.499C224.407,77.195 224.609,76.811 224.857,76.65C229.776,73.442 234.712,70.262 239.648,67.081C239.72,67.034 239.82,67.028 240.075,66.956C238.582,78.343 237.1,89.641 235.618,100.939C235.677,100.979 235.735,101.019 235.794,101.06C243.538,92.476 251.283,83.892 259.194,75.123C259.423,76.443 259.621,77.573 259.815,78.704C260.37,81.94 260.902,85.182 261.496,88.412C261.616,89.063 261.443,89.467 261.009,89.92C256.001,95.161 251.012,100.42 246.019,105.674C245.801,105.903 245.592,106.141 245.344,106.413C245.503,106.668 245.639,106.913 245.8,107.14C254.413,119.229 263.026,131.317 271.646,143.4C271.802,143.619 272.027,143.791 272.22,143.985L272.22,144.177Z" style="fill:rgb(67,66,68);"/>
                        <path d="M102.764,112.751C102.546,111.637 102.39,110.001 101.895,108.473C99.501,101.086 91.921,97.036 84.076,98.862C75.469,100.864 69.319,107.63 68.429,116.412C67.771,122.908 71.269,129.166 77.772,131.515C83.012,133.408 88.057,132.616 92.741,129.807C98.95,126.082 102.318,120.552 102.764,112.751ZM64.97,140.208C64.545,143.386 64.14,146.381 63.746,149.378C63.222,153.362 62.7,157.347 62.199,161.333C62.14,161.798 61.999,162.003 61.499,162C57.573,161.984 53.646,161.988 49.719,161.982C49.63,161.982 49.54,161.933 49.327,161.873C49.565,159.992 49.796,158.106 50.042,156.221C50.909,149.613 51.773,143.004 52.653,136.397C53.658,128.843 54.455,121.251 55.742,113.745C58.022,100.454 69.299,89 82.53,86.148C90.201,84.493 97.542,85.259 104.24,89.575C110.919,93.88 114.75,100.126 115.623,107.984C116.858,119.094 112.769,128.317 104.877,135.947C99.697,140.956 93.496,144.139 86.343,145.215C78.975,146.326 72.049,145.097 65.833,140.753C65.604,140.594 65.361,140.455 64.97,140.208Z" style="fill:rgb(67,66,68);"/>
                        <path d="M58.571,77.049C54.167,80.328 49.921,83.488 45.657,86.662C44.97,85.578 44.354,84.498 43.635,83.493C41.786,80.907 39.488,78.976 36.146,78.741C33.367,78.547 30.99,79.462 29.098,81.512C27.406,83.344 27.185,85.949 28.766,88.019C30.506,90.297 32.411,92.458 34.357,94.567C37.582,98.063 40.952,101.425 44.156,104.94C47.071,108.137 49.395,111.725 50.113,116.097C50.966,121.294 49.93,126.244 47.471,130.813C42.921,139.265 35.757,144.169 26.299,145.704C22.122,146.381 17.956,146.246 13.88,145.046C8.472,143.454 4.706,139.909 2.286,134.903C1.43,133.133 0.776,131.266 0,129.369C4.735,126.835 9.335,124.373 14.003,121.875C14.166,122.264 14.279,122.588 14.431,122.891C15.227,124.484 15.878,126.176 16.864,127.642C19.788,131.989 24.51,133.312 29.301,131.164C30.531,130.611 31.716,129.832 32.726,128.938C35.813,126.197 36.392,122.382 34.107,118.934C32.794,116.953 31.152,115.177 29.553,113.402C25.733,109.159 21.757,105.052 18.025,100.733C15.452,97.756 13.704,94.284 13.151,90.297C12.547,85.943 13.417,81.835 15.683,78.17C21.316,69.059 29.5,64.32 40.326,64.713C46.498,64.936 51.412,67.822 55.227,72.617C56.356,74.036 57.414,75.511 58.571,77.049Z" style="fill:rgb(67,66,68);"/>
                        <path d="M163.144,125.96C162.426,131.448 161.749,136.664 161.045,141.876C161.009,142.14 160.802,142.499 160.577,142.604C149.921,147.539 135.889,146.85 127.138,136.912C122.436,131.573 120.463,125.236 120.758,118.186C121.44,101.866 134.971,87.62 151.152,85.629C160.606,84.466 168.897,87.019 175.302,94.363C179.664,99.366 181.682,105.34 181.384,111.933C181.188,116.288 180.505,120.624 179.963,124.959C179.195,131.099 178.356,137.231 177.545,143.366C177.516,143.584 177.472,143.8 177.423,144.077L164.675,144.077C164.845,142.667 165,141.287 165.179,139.91C166.102,132.824 167.117,125.749 167.926,118.65C168.43,114.229 168.113,109.841 166.091,105.746C163.94,101.394 160.334,99.093 155.591,98.59C145.775,97.55 136.436,104.371 134.342,114.031C132.959,120.408 135.139,126.52 140.217,129.899C145.167,133.192 150.468,133.203 155.862,131.067C158.597,129.985 160.927,128.272 163.144,125.96Z" style="fill:rgb(67,66,68);"/>
                        <path d="M216.823,86.868C216.241,91.288 215.668,95.642 215.082,100.086C212.387,100.086 209.744,100.07 207.102,100.091C204.961,100.108 203.007,101.49 202.364,103.489C202.112,104.271 202.019,105.108 201.911,105.928C200.57,116.077 199.239,126.226 197.908,136.376C197.572,138.935 197.245,141.496 196.909,144.094L183.64,144.094C183.888,142.142 184.122,140.254 184.369,138.368C185.232,131.79 186.095,125.214 186.969,118.639C187.724,112.949 188.397,107.246 189.286,101.577C190.478,93.978 198.039,87.229 205.708,86.895C209.367,86.736 213.039,86.868 216.823,86.868Z" style="fill:rgb(67,66,68);"/>
                        <path d="M287.863,144.094L287.863,138.493L287.831,138.493L285.633,144.094L284.932,144.094L282.734,138.493L282.701,138.493L282.701,144.094L281.594,144.094L281.594,137.385L283.303,137.385L285.306,142.482L287.277,137.385L288.971,137.385L288.971,144.094L287.863,144.094ZM278.125,138.282L278.125,144.094L277.018,144.094L277.018,138.282L274.917,138.282L274.917,137.385L280.226,137.385L280.226,138.282L278.125,138.282Z" style="fill:rgb(67,66,68);fill-rule:nonzero;"/>
                        <path d="M76.345,67.628L79.635,67.628L78.859,62.648L76.345,67.628ZM80.152,70.847L74.678,70.847L72.94,74.252L69.063,74.252L77.613,58.279L81.35,58.279L84.261,74.252L80.668,74.252L80.152,70.847Z" style="fill:rgb(67,66,68);fill-rule:nonzero;"/>
                        <path d="M99.735,61.497L97.785,61.497L97.129,65.184L99.077,65.184C100.253,65.184 101.193,64.41 101.193,62.953C101.193,61.99 100.604,61.497 99.735,61.497ZM95.013,58.279L100.136,58.279C102.814,58.279 104.692,59.876 104.692,62.624C104.692,66.077 102.249,68.402 98.772,68.402L96.564,68.402L95.53,74.252L92.196,74.252L95.013,58.279Z" style="fill:rgb(67,66,68);fill-rule:nonzero;"/>
                        <path d="M116.022,67.628L119.312,67.628L118.536,62.648L116.022,67.628ZM119.828,70.847L114.355,70.847L112.616,74.252L108.74,74.252L117.29,58.279L121.026,58.279L123.938,74.252L120.345,74.252L119.828,70.847Z" style="fill:rgb(67,66,68);fill-rule:nonzero;"/>
                        <path d="M141.467,73.688C140.34,74.205 139.096,74.511 137.85,74.511C133.623,74.511 130.966,71.339 130.966,67.369C130.966,62.295 135.242,58.02 140.317,58.02C141.585,58.02 142.737,58.325 143.676,58.841L143.206,62.672C142.502,61.896 141.373,61.356 139.964,61.356C137.052,61.356 134.468,63.987 134.468,67.04C134.468,69.365 135.924,71.176 138.227,71.176C139.637,71.176 140.998,70.635 141.914,69.884L141.467,73.688Z" style="fill:rgb(67,66,68);fill-rule:nonzero;"/>
                        <path d="M161.852,67.816L154.899,67.816L153.77,74.252L150.436,74.252L153.254,58.279L156.59,58.279L155.463,64.598L162.416,64.598L163.542,58.279L166.878,58.279L164.061,74.252L160.725,74.252L161.852,67.816Z" style="fill:rgb(67,66,68);fill-rule:nonzero;"/>
                        <path d="M174.085,74.252L176.902,58.279L185.759,58.279L185.195,61.497L179.674,61.497L179.112,64.598L184.184,64.598L183.622,67.816L178.547,67.816L177.983,71.034L183.504,71.034L182.94,74.252L174.085,74.252Z" style="fill:rgb(67,66,68);fill-rule:nonzero;"/>
                    </g>
                </g>
            </g>
        </g>
    </g>
</svg>
