<?xml version="1.0" encoding="UTF-8" standalone="no"?>
<!DOCTYPE svg PUBLIC "-//W3C//DTD SVG 1.1//EN" "http://www.w3.org/Graphics/SVG/1.1/DTD/svg11.dtd">
<svg width="100%" height="100%" viewBox="0 0 327 60" version="1.1" xmlns="http://www.w3.org/2000/svg" xmlns:xlink="http://www.w3.org/1999/xlink" xml:space="preserve" xmlns:serif="http://www.serif.com/" style="fill-rule:evenodd;clip-rule:evenodd;stroke-linejoin:round;stroke-miterlimit:2;">
    <g id="Artboard1" transform="matrix(0.988443,0,0,1.00286,-164.179,-147.562)">
        <rect x="166.098" y="147.141" width="330.216" height="59.43" style="fill:none;"/>
        <g transform="matrix(1.01169,0,0,0.997148,-254.59,-74.9877)">
            <g>
                <g transform="matrix(0.793459,0,0,0.439315,295.973,168.89)">
                    <g transform="matrix(57.974,0,0,104.709,243,228.998)">
                        <path d="M0.386,0.017C0.453,0.017 0.51,0.001 0.559,-0.029C0.607,-0.059 0.644,-0.102 0.67,-0.157C0.696,-0.212 0.709,-0.277 0.709,-0.352L0.709,-0.353C0.709,-0.428 0.696,-0.493 0.67,-0.549C0.644,-0.604 0.607,-0.646 0.558,-0.676C0.51,-0.706 0.452,-0.721 0.386,-0.721C0.319,-0.721 0.262,-0.706 0.214,-0.676C0.165,-0.646 0.128,-0.604 0.102,-0.549C0.076,-0.494 0.063,-0.429 0.063,-0.353L0.063,-0.352C0.063,-0.277 0.075,-0.212 0.101,-0.157C0.127,-0.101 0.164,-0.059 0.212,-0.029C0.261,0.002 0.318,0.017 0.386,0.017ZM0.386,-0.064C0.337,-0.064 0.295,-0.076 0.26,-0.1C0.225,-0.124 0.199,-0.157 0.18,-0.2C0.162,-0.244 0.152,-0.294 0.152,-0.352L0.152,-0.353C0.152,-0.412 0.162,-0.462 0.181,-0.505C0.2,-0.548 0.227,-0.582 0.262,-0.605C0.297,-0.628 0.338,-0.64 0.386,-0.64C0.434,-0.64 0.475,-0.628 0.51,-0.605C0.545,-0.582 0.572,-0.548 0.591,-0.505C0.61,-0.462 0.619,-0.412 0.619,-0.353L0.619,-0.352C0.619,-0.294 0.61,-0.244 0.591,-0.2C0.572,-0.157 0.545,-0.124 0.51,-0.1C0.475,-0.076 0.434,-0.064 0.386,-0.064Z" style="fill:rgb(193,39,45);fill-rule:nonzero;"/>
                    </g>
                    <g transform="matrix(57.974,0,0,104.709,285.405,228.998)">
                        <path d="M0.079,0.176L0.164,0.176L0.164,-0.083L0.172,-0.083C0.182,-0.064 0.195,-0.048 0.211,-0.034C0.228,-0.021 0.247,-0.01 0.268,-0.002C0.289,0.005 0.312,0.009 0.336,0.009C0.381,0.009 0.419,-0.002 0.452,-0.024C0.485,-0.047 0.511,-0.078 0.529,-0.119C0.548,-0.16 0.557,-0.208 0.557,-0.263L0.557,-0.264C0.557,-0.318 0.548,-0.366 0.529,-0.407C0.511,-0.447 0.485,-0.479 0.452,-0.502C0.419,-0.524 0.381,-0.536 0.336,-0.536C0.312,-0.536 0.289,-0.532 0.268,-0.524C0.247,-0.517 0.229,-0.506 0.212,-0.492C0.196,-0.479 0.183,-0.462 0.172,-0.442L0.164,-0.442L0.164,-0.526L0.079,-0.526L0.079,0.176ZM0.316,-0.066C0.285,-0.066 0.257,-0.074 0.234,-0.09C0.211,-0.106 0.193,-0.128 0.181,-0.158C0.168,-0.187 0.162,-0.222 0.162,-0.263L0.162,-0.264C0.162,-0.304 0.168,-0.339 0.181,-0.369C0.193,-0.398 0.211,-0.421 0.234,-0.437C0.257,-0.452 0.285,-0.46 0.316,-0.46C0.349,-0.46 0.376,-0.453 0.399,-0.437C0.422,-0.421 0.439,-0.398 0.451,-0.369C0.464,-0.34 0.47,-0.305 0.47,-0.264L0.47,-0.263C0.47,-0.222 0.464,-0.187 0.451,-0.157C0.439,-0.128 0.422,-0.105 0.399,-0.09C0.376,-0.074 0.349,-0.066 0.316,-0.066Z" style="fill:rgb(193,39,45);fill-rule:nonzero;"/>
                    </g>
                    <g transform="matrix(57.974,0,0,104.709,317.251,228.998)">
                        <path d="M0.294,0.009C0.325,0.009 0.353,0.005 0.378,-0.003C0.403,-0.011 0.424,-0.021 0.442,-0.035C0.461,-0.048 0.476,-0.064 0.487,-0.08C0.499,-0.097 0.507,-0.114 0.511,-0.132L0.512,-0.136L0.427,-0.136L0.425,-0.132C0.421,-0.121 0.413,-0.111 0.401,-0.101C0.39,-0.091 0.375,-0.083 0.358,-0.076C0.34,-0.07 0.32,-0.066 0.296,-0.066C0.264,-0.066 0.236,-0.073 0.213,-0.088C0.189,-0.102 0.171,-0.122 0.159,-0.149C0.146,-0.175 0.14,-0.207 0.14,-0.245L0.14,-0.278C0.14,-0.318 0.146,-0.351 0.159,-0.378C0.172,-0.405 0.19,-0.425 0.212,-0.439C0.234,-0.453 0.26,-0.46 0.288,-0.46C0.316,-0.46 0.341,-0.453 0.363,-0.44C0.385,-0.427 0.402,-0.407 0.415,-0.38C0.427,-0.354 0.433,-0.32 0.433,-0.278L0.433,-0.245L0.475,-0.307L0.097,-0.307L0.097,-0.239L0.519,-0.239L0.519,-0.272C0.519,-0.324 0.509,-0.37 0.491,-0.41C0.473,-0.449 0.446,-0.48 0.412,-0.502C0.378,-0.525 0.336,-0.536 0.289,-0.536C0.241,-0.536 0.2,-0.524 0.164,-0.501C0.129,-0.478 0.101,-0.446 0.082,-0.405C0.062,-0.364 0.053,-0.316 0.053,-0.262L0.053,-0.261C0.053,-0.206 0.062,-0.158 0.082,-0.118C0.101,-0.077 0.129,-0.046 0.165,-0.024C0.201,-0.002 0.244,0.009 0.294,0.009Z" style="fill:rgb(193,39,45);fill-rule:nonzero;"/>
                    </g>
                    <g transform="matrix(57.974,0,0,104.709,346.946,228.998)">
                        <path d="M0.079,0L0.164,0L0.164,-0.312C0.164,-0.342 0.17,-0.369 0.181,-0.391C0.192,-0.413 0.208,-0.43 0.229,-0.442C0.249,-0.454 0.273,-0.46 0.301,-0.46C0.343,-0.46 0.374,-0.449 0.394,-0.426C0.414,-0.403 0.424,-0.368 0.424,-0.32L0.424,0L0.509,0L0.509,-0.341C0.509,-0.403 0.493,-0.451 0.462,-0.485C0.43,-0.519 0.384,-0.536 0.325,-0.536C0.286,-0.536 0.255,-0.528 0.229,-0.512C0.204,-0.497 0.185,-0.475 0.172,-0.447L0.164,-0.447L0.164,-0.526L0.079,-0.526L0.079,0Z" style="fill:rgb(193,39,45);fill-rule:nonzero;"/>
                    </g>
                    <g transform="matrix(57.974,0,0,104.709,377.49,228.998)">
                        <path d="M0.374,0.017C0.424,0.017 0.469,0.008 0.509,-0.01C0.548,-0.027 0.581,-0.052 0.607,-0.084C0.633,-0.115 0.65,-0.153 0.658,-0.196L0.658,-0.197L0.569,-0.197L0.568,-0.196C0.561,-0.169 0.549,-0.145 0.53,-0.126C0.512,-0.106 0.49,-0.091 0.463,-0.08C0.436,-0.07 0.406,-0.064 0.374,-0.064C0.328,-0.064 0.289,-0.076 0.256,-0.1C0.223,-0.123 0.198,-0.156 0.18,-0.199C0.162,-0.242 0.153,-0.293 0.153,-0.352L0.153,-0.353C0.153,-0.411 0.162,-0.462 0.18,-0.505C0.198,-0.548 0.223,-0.582 0.256,-0.605C0.289,-0.628 0.328,-0.64 0.373,-0.64C0.406,-0.64 0.435,-0.634 0.462,-0.622C0.488,-0.61 0.511,-0.593 0.529,-0.571C0.548,-0.549 0.561,-0.523 0.569,-0.493L0.569,-0.492L0.658,-0.492L0.658,-0.493C0.651,-0.538 0.635,-0.577 0.608,-0.612C0.582,-0.646 0.549,-0.673 0.508,-0.692C0.468,-0.712 0.423,-0.721 0.373,-0.721C0.309,-0.721 0.254,-0.706 0.208,-0.676C0.161,-0.646 0.126,-0.604 0.1,-0.549C0.075,-0.494 0.063,-0.428 0.063,-0.353L0.063,-0.352C0.063,-0.276 0.075,-0.211 0.1,-0.156C0.126,-0.101 0.161,-0.058 0.208,-0.028C0.255,0.002 0.31,0.017 0.374,0.017Z" style="fill:rgb(34,34,34);fill-rule:nonzero;"/>
                    </g>
                    <g transform="matrix(57.974,0,0,104.709,417.262,228.998)">
                        <path d="M0.294,0.009C0.325,0.009 0.353,0.005 0.378,-0.003C0.403,-0.011 0.424,-0.021 0.442,-0.035C0.461,-0.048 0.476,-0.064 0.487,-0.08C0.499,-0.097 0.507,-0.114 0.511,-0.132L0.512,-0.136L0.427,-0.136L0.425,-0.132C0.421,-0.121 0.413,-0.111 0.401,-0.101C0.39,-0.091 0.375,-0.083 0.358,-0.076C0.34,-0.07 0.32,-0.066 0.296,-0.066C0.264,-0.066 0.236,-0.073 0.213,-0.088C0.189,-0.102 0.171,-0.122 0.159,-0.149C0.146,-0.175 0.14,-0.207 0.14,-0.245L0.14,-0.278C0.14,-0.318 0.146,-0.351 0.159,-0.378C0.172,-0.405 0.19,-0.425 0.212,-0.439C0.234,-0.453 0.26,-0.46 0.288,-0.46C0.316,-0.46 0.341,-0.453 0.363,-0.44C0.385,-0.427 0.402,-0.407 0.415,-0.38C0.427,-0.354 0.433,-0.32 0.433,-0.278L0.433,-0.245L0.475,-0.307L0.097,-0.307L0.097,-0.239L0.519,-0.239L0.519,-0.272C0.519,-0.324 0.509,-0.37 0.491,-0.41C0.473,-0.449 0.446,-0.48 0.412,-0.502C0.378,-0.525 0.336,-0.536 0.289,-0.536C0.241,-0.536 0.2,-0.524 0.164,-0.501C0.129,-0.478 0.101,-0.446 0.082,-0.405C0.062,-0.364 0.053,-0.316 0.053,-0.262L0.053,-0.261C0.053,-0.206 0.062,-0.158 0.082,-0.118C0.101,-0.077 0.129,-0.046 0.165,-0.024C0.201,-0.002 0.244,0.009 0.294,0.009Z" style="fill:rgb(34,34,34);fill-rule:nonzero;"/>
                    </g>
                    <g transform="matrix(57.974,0,0,104.709,446.956,228.998)">
                        <path d="M0.079,0L0.164,0L0.164,-0.312C0.164,-0.342 0.17,-0.369 0.181,-0.391C0.192,-0.413 0.208,-0.43 0.229,-0.442C0.249,-0.454 0.273,-0.46 0.301,-0.46C0.343,-0.46 0.374,-0.449 0.394,-0.426C0.414,-0.403 0.424,-0.368 0.424,-0.32L0.424,0L0.509,0L0.509,-0.341C0.509,-0.403 0.493,-0.451 0.462,-0.485C0.43,-0.519 0.384,-0.536 0.325,-0.536C0.286,-0.536 0.255,-0.528 0.229,-0.512C0.204,-0.497 0.185,-0.475 0.172,-0.447L0.164,-0.447L0.164,-0.526L0.079,-0.526L0.079,0Z" style="fill:rgb(34,34,34);fill-rule:nonzero;"/>
                    </g>
                    <g transform="matrix(57.974,0,0,104.709,477.5,228.998)">
                        <path d="M0.26,0.009C0.3,0.009 0.336,0.003 0.367,-0.011C0.399,-0.024 0.424,-0.043 0.443,-0.067C0.461,-0.091 0.471,-0.118 0.471,-0.149L0.471,-0.15C0.471,-0.188 0.459,-0.218 0.434,-0.241C0.41,-0.263 0.373,-0.28 0.324,-0.292L0.243,-0.312C0.212,-0.319 0.189,-0.329 0.175,-0.341C0.161,-0.353 0.154,-0.367 0.154,-0.385L0.154,-0.386C0.154,-0.402 0.159,-0.416 0.168,-0.427C0.178,-0.439 0.191,-0.448 0.207,-0.455C0.223,-0.462 0.242,-0.465 0.263,-0.465C0.295,-0.465 0.32,-0.458 0.34,-0.445C0.36,-0.432 0.373,-0.415 0.378,-0.395L0.462,-0.395C0.458,-0.423 0.447,-0.448 0.43,-0.469C0.413,-0.49 0.39,-0.507 0.361,-0.518C0.333,-0.53 0.3,-0.536 0.263,-0.536C0.226,-0.536 0.193,-0.529 0.163,-0.516C0.133,-0.502 0.11,-0.484 0.093,-0.461C0.076,-0.438 0.067,-0.412 0.067,-0.382L0.067,-0.382C0.067,-0.344 0.079,-0.314 0.102,-0.291C0.125,-0.269 0.161,-0.251 0.21,-0.24L0.292,-0.22C0.325,-0.212 0.348,-0.202 0.362,-0.19C0.377,-0.177 0.384,-0.162 0.384,-0.144L0.384,-0.143C0.384,-0.127 0.379,-0.113 0.368,-0.101C0.358,-0.089 0.344,-0.079 0.325,-0.072C0.307,-0.065 0.286,-0.062 0.263,-0.062C0.229,-0.062 0.202,-0.068 0.181,-0.082C0.16,-0.095 0.146,-0.112 0.139,-0.134L0.052,-0.134C0.056,-0.105 0.066,-0.08 0.084,-0.059C0.102,-0.037 0.126,-0.02 0.156,-0.009C0.186,0.003 0.221,0.009 0.26,0.009Z" style="fill:rgb(34,34,34);fill-rule:nonzero;"/>
                    </g>
                    <g transform="matrix(57.974,0,0,104.709,504.478,228.998)">
                        <path d="M0.255,0.009C0.294,0.009 0.327,0.002 0.353,-0.014C0.379,-0.029 0.399,-0.051 0.412,-0.079L0.419,-0.079L0.419,0L0.504,0L0.504,-0.526L0.419,-0.526L0.419,-0.215C0.419,-0.184 0.414,-0.158 0.403,-0.135C0.393,-0.113 0.377,-0.096 0.355,-0.084C0.334,-0.072 0.308,-0.066 0.277,-0.066C0.235,-0.066 0.205,-0.077 0.187,-0.101C0.168,-0.124 0.159,-0.159 0.159,-0.206L0.159,-0.526L0.074,-0.526L0.074,-0.186C0.074,-0.144 0.081,-0.109 0.094,-0.08C0.108,-0.051 0.128,-0.029 0.155,-0.013C0.182,0.002 0.216,0.009 0.255,0.009Z" style="fill:rgb(34,34,34);fill-rule:nonzero;"/>
                    </g>
                    <g transform="matrix(57.974,0,0,104.709,535.021,228.998)">
                        <path d="M0.26,0.009C0.3,0.009 0.336,0.003 0.367,-0.011C0.399,-0.024 0.424,-0.043 0.443,-0.067C0.461,-0.091 0.471,-0.118 0.471,-0.149L0.471,-0.15C0.471,-0.188 0.459,-0.218 0.434,-0.241C0.41,-0.263 0.373,-0.28 0.324,-0.292L0.243,-0.312C0.212,-0.319 0.189,-0.329 0.175,-0.341C0.161,-0.353 0.154,-0.367 0.154,-0.385L0.154,-0.386C0.154,-0.402 0.159,-0.416 0.168,-0.427C0.178,-0.439 0.191,-0.448 0.207,-0.455C0.223,-0.462 0.242,-0.465 0.263,-0.465C0.295,-0.465 0.32,-0.458 0.34,-0.445C0.36,-0.432 0.373,-0.415 0.378,-0.395L0.462,-0.395C0.458,-0.423 0.447,-0.448 0.43,-0.469C0.413,-0.49 0.39,-0.507 0.361,-0.518C0.333,-0.53 0.3,-0.536 0.263,-0.536C0.226,-0.536 0.193,-0.529 0.163,-0.516C0.133,-0.502 0.11,-0.484 0.093,-0.461C0.076,-0.438 0.067,-0.412 0.067,-0.382L0.067,-0.382C0.067,-0.344 0.079,-0.314 0.102,-0.291C0.125,-0.269 0.161,-0.251 0.21,-0.24L0.292,-0.22C0.325,-0.212 0.348,-0.202 0.362,-0.19C0.377,-0.177 0.384,-0.162 0.384,-0.144L0.384,-0.143C0.384,-0.127 0.379,-0.113 0.368,-0.101C0.358,-0.089 0.344,-0.079 0.325,-0.072C0.307,-0.065 0.286,-0.062 0.263,-0.062C0.229,-0.062 0.202,-0.068 0.181,-0.082C0.16,-0.095 0.146,-0.112 0.139,-0.134L0.052,-0.134C0.056,-0.105 0.066,-0.08 0.084,-0.059C0.102,-0.037 0.126,-0.02 0.156,-0.009C0.186,0.003 0.221,0.009 0.26,0.009Z" style="fill:rgb(34,34,34);fill-rule:nonzero;"/>
                    </g>
                </g>
                <g transform="matrix(1.58754,0,0,1.58754,412.595,221.057)">
                    <g>
                        <g id="Text">
                            <path id="path38" d="M28.566,12.106C32.845,16.386 32.845,23.324 28.566,27.606L34.059,33.099C41.371,25.79 41.371,13.939 34.059,6.63L34.059,6.628" style="fill:rgb(230,230,230);fill-rule:nonzero;"/>
                            <path id="path40" d="M34.051,6.62C26.74,-0.69 14.889,-0.688 7.581,6.621C0.27,13.931 0.272,25.783 7.581,33.092C14.89,40.401 26.742,40.401 34.052,33.092L28.559,27.596C24.276,31.879 17.337,31.879 13.058,27.596C8.78,23.317 8.78,16.378 13.058,12.098C17.34,7.817 24.276,7.817 28.559,12.098L34.052,6.604" style="fill:rgb(193,39,45);fill-rule:nonzero;"/>
                            <path id="path42" d="M39.146,4.02C39.146,4.02 28.978,19.141 24.438,23.115C24.187,23.334 24.144,23.365 24.046,23.443C21.937,25.185 18.82,24.924 17.034,22.854L16.934,22.734C15.169,20.651 15.467,17.513 17.523,15.712C17.615,15.63 17.634,15.61 17.881,15.407C22.542,11.578 39.145,4.028 39.145,4.028L39.145,4.02L39.146,4.02Z" style="fill:rgb(77,77,77);fill-rule:nonzero;"/>
                        </g>
                    </g>
                </g>
            </g>
        </g>
    </g>
</svg>
