<?xml version="1.0" encoding="UTF-8" standalone="no"?>
<!DOCTYPE svg PUBLIC "-//W3C//DTD SVG 1.1//EN" "http://www.w3.org/Graphics/SVG/1.1/DTD/svg11.dtd">
<svg width="100%" height="100%" viewBox="0 0 43 40" version="1.1" xmlns="http://www.w3.org/2000/svg" xmlns:xlink="http://www.w3.org/1999/xlink" xml:space="preserve" xmlns:serif="http://www.serif.com/" style="fill-rule:evenodd;clip-rule:evenodd;stroke-linejoin:round;stroke-miterlimit:2;">
    <g transform="matrix(1,0,0,1,-424.828,-232.723)">
        <g transform="matrix(1,0,0,1,446.308,252.579)">
            <g transform="matrix(1,0,0,1,-21.48,-19.856)">
                <g id="Text">
                    <path id="path38" d="M28.566,12.106C32.845,16.386 32.845,23.324 28.566,27.606L34.059,33.099C41.371,25.79 41.371,13.939 34.059,6.63L34.059,6.628" style="fill:rgb(230,230,230);fill-rule:nonzero;"/>
                    <path id="path40" d="M34.051,6.62C26.74,-0.69 14.889,-0.688 7.581,6.621C0.27,13.931 0.272,25.783 7.581,33.092C14.89,40.401 26.742,40.401 34.052,33.092L28.559,27.596C24.276,31.879 17.337,31.879 13.058,27.596C8.78,23.317 8.78,16.378 13.058,12.098C17.34,7.817 24.276,7.817 28.559,12.098L34.052,6.604" style="fill:rgb(193,39,45);fill-rule:nonzero;"/>
                    <path id="path42" d="M39.146,4.02C39.146,4.02 28.978,19.141 24.438,23.115C24.187,23.334 24.144,23.365 24.046,23.443C21.937,25.185 18.82,24.924 17.034,22.854L16.934,22.734C15.169,20.651 15.467,17.513 17.523,15.712C17.615,15.63 17.634,15.61 17.881,15.407C22.542,11.578 39.145,4.028 39.145,4.028L39.145,4.02L39.146,4.02Z" style="fill:rgb(77,77,77);fill-rule:nonzero;"/>
                </g>
            </g>
        </g>
    </g>
</svg>
