<?xml version="1.0" encoding="UTF-8"?>
<svg width="485px" height="371px" viewBox="0 0 485 371" version="1.1" xmlns="http://www.w3.org/2000/svg" xmlns:xlink="http://www.w3.org/1999/xlink">
    <!-- Generator: Sketch 60.1 (88133) - https://sketch.com -->
    <title>Group</title>
    <desc>Created with Sketch.</desc>
    <g id="Page-1" stroke="none" stroke-width="1" fill="none" fill-rule="evenodd">
        <g id="Group" transform="translate(0.370000, 0.120000)">
            <path d="M475.17,289.58 C419.69,263.03 338.97,306.15 335.87,307.83 C321.87,315.02 310.77,317.24 306.16,313.72 C301.76,310.36 298.07,301.64 298.04,291.56 L297.98,291.56 L298.04,290.68 C298.04,289.47 298.15,288.24 298.29,287 L301.69,235.43 L301.69,174.11 C301.677768,172.736948 301.499814,171.370394 301.16,170.04 C294.835313,91.6964481 229.397288,31.3484928 150.798858,31.3746289 C72.200429,31.4007819 6.80256627,91.7922578 0.53,170.14 C0.191206043,171.463793 0.0132552662,172.823606 0,174.19 L0,272.26 C0,281.924983 7.83501688,289.76 17.5,289.76 C27.1649831,289.76 35,281.924983 35,272.26 L35,243.67 C35,235.385729 41.7157288,228.67 50,228.67 L50.63,228.67 C58.9142712,228.67 65.63,235.385729 65.63,243.67 L65.63,322.88 C65.63,332.544983 73.4650169,340.38 83.13,340.38 C92.7949831,340.38 100.63,332.544983 100.63,322.88 L100.63,244.68 C100.63,235.843444 107.793444,228.68 116.63,228.68 L117.36,228.68 C126.196556,228.68 133.36,235.843444 133.36,244.68 L133.36,352.88 C133.381995,362.535858 141.204142,370.358005 150.86,370.38 L150.86,370.38 C160.513584,370.352536 168.332536,362.533584 168.36,352.88 L168.36,280.22 C168.36,280.22 167.98,275.46 167.89,274.62 C167.837875,274.128373 167.811172,273.634382 167.81,273.14 L167.81,244.69 C167.81,235.853444 174.973444,228.69 183.81,228.69 L184.53,228.69 C193.366556,228.69 200.53,235.853444 200.53,244.69 L200.53,273.14 C200.527201,273.678128 200.493813,274.215662 200.43,274.75 C200.35,275.47 200.04,281.31 200.04,281.31 L200.04,322.88 C200.04,332.544983 207.875017,340.38 217.54,340.38 C227.204983,340.38 235.04,332.544983 235.04,322.88 L235.04,283.8 C235.04,283.8 234.45,274.56 234.45,273.14 L234.45,244.69 C234.45,235.853444 241.613444,228.69 250.45,228.69 L251.17,228.69 C260.006556,228.69 267.17,235.853444 267.17,244.69 L267.17,272.69 L267.08,274.1 C267.08,274.36 267.02,274.63 267,274.89 C266.995316,274.919817 266.995316,274.950183 267,274.98 C265.72,296.34 268.1,324.77 286.83,339.07 C294.05971,344.553878 302.927544,347.439359 312,347.26 C323.253333,347.26 336.17,343.52 350.75,336.04 C370.01,325.6 427.44,302.04 461.42,318.35 C466.568476,320.92722 472.706963,320.525775 477.475934,317.299974 C482.244904,314.074173 484.90212,308.526076 484.426194,302.788274 C483.950269,297.050473 480.415273,292.015992 475.18,289.62 L475.17,289.58 Z" id="Path" fill="#3BAEE4" fill-rule="nonzero"></path>
            <path d="M102.84,135.39 C99.95,157.7 124.25,173.03 144.55,168.47 C167.92,163.23 171.95,128.47 155.02,114.26 C142.23,103.55 124.15,103.98 112.61,116.32 C106.61,122.67 103.61,129.19 102.84,135.39 L102.84,135.39 Z" id="Path" fill="#FFFFFF"></path>
            <path d="M132.63,150.79 C138.11,151.79 142.04,144.6 137.99,140.55 C134.75,137.31 129.06,137.64 127.99,142.19 C127.08,145.98 128.4,150.05 132.66,150.79 L132.63,150.79 Z" id="Path" fill="#000000" fill-rule="nonzero"></path>
            <path d="M177.13,140.42 C174.83,158.21 194.21,170.42 210.41,166.81 C229.06,162.63 232.27,134.88 218.77,123.56 C208.56,115.01 194.14,115.35 184.93,125.2 C180.18,130.26 177.77,135.47 177.13,140.42 L177.13,140.42 Z" id="Path" fill="#FFFFFF"></path>
            <path d="M197.76,150.13 C202.13,150.9 205.27,145.19 202.04,141.96 C199.45,139.37 194.91,139.64 194.04,143.27 C193.31,146.27 194.36,149.54 197.76,150.13 L197.76,150.13 Z" id="Path" fill="#000000" fill-rule="nonzero"></path>
            <rect id="Rectangle" fill="#3BAEE4" fill-rule="nonzero" x="137.05" y="13.55" width="14.67" height="35.63" rx="7.335"></rect>
            <circle id="Oval" fill="#3BAEE4" fill-rule="nonzero" cx="144.38" cy="12.64" r="12.64"></circle>
        </g>
    </g>
</svg>