<?xml version="1.0" encoding="utf-8"?>
<!DOCTYPE svg PUBLIC "-//W3C//DTD SVG 1.1//EN" "http://www.w3.org/Graphics/SVG/1.1/DTD/svg11.dtd">
<svg version="1.1" id="Icon" xmlns="http://www.w3.org/2000/svg" xmlns:xlink="http://www.w3.org/1999/xlink" x="0px" y="0px" viewBox="176 176 48 48" enable-background="new 176 176 48 48" xml:space="preserve">
<linearGradient id="SVGID_1_" gradientUnits="userSpaceOnUse" x1="341.7617" y1="90.9546" x2="341.7617" y2="92.3311" gradientTransform="matrix(34.7225 0 0 34.7225 -11666.7988 -2982.0781)">
	<stop  offset="0" style="stop-color:#FFFFFF"/>
	<stop  offset="1" style="stop-color:#EAEAEA"/>
</linearGradient>
<g id="bKhdF7_1_">
	<g>
		<g>
			<linearGradient id="SVGID_2_" gradientUnits="userSpaceOnUse" x1="200.8945" y1="184.126" x2="200.8945" y2="213.9478">
				<stop  offset="0" style="stop-color:#F7931E"/>
				<stop  offset="1" style="stop-color:#F7761E"/>
			</linearGradient>
			<path fill-rule="evenodd" clip-rule="evenodd" fill="url(#SVGID_2_)" d="M203.395,184.382c0-0.082-0.007-0.164-0.012-0.256
				c-0.054,0.015-0.078,0.019-0.098,0.029c-1.523,0.744-3.043,1.492-4.57,2.229c-0.163,0.079-0.199,0.172-0.199,0.341
				c0.005,7.945,0.005,15.89,0.005,23.836v0.309c-0.054,0-0.096,0.001-0.132,0.001c0.115,0.482,0.122,0.993,0.106,1.483
				c-0.016,0.53-0.066,1.062-0.084,1.593c0.117,0.004,0.247-0.044,0.356-0.095c0.457-0.214,0.904-0.446,1.361-0.66
				c1.012-0.478,2.026-0.952,3.045-1.413c0.176-0.079,0.226-0.175,0.226-0.357C203.395,202.409,203.396,193.396,203.395,184.382z"/>
		</g>
	</g>
</g>
<g id="bKhdF7_2_">
	<g>
		<g>
			<linearGradient id="SVGID_3_" gradientUnits="userSpaceOnUse" x1="191.1802" y1="193.1562" x2="191.1802" y2="213.9526">
				<stop  offset="0" style="stop-color:#B2B2B2"/>
				<stop  offset="1" style="stop-color:#939393"/>
			</linearGradient>
			<path fill-rule="evenodd" clip-rule="evenodd" fill="url(#SVGID_3_)" d="M198.425,213.952c0.042-0.002,0.085-0.006,0.127-0.013
				c0.008-1.006-0.031-1.979-0.031-3.069c-0.073,0.001-0.146,0.005-0.195-0.002c-1.426-0.206-2.814-0.546-4.15-1.098
				c-1.561-0.646-2.966-1.508-4.081-2.798c-0.57-0.659-0.997-1.405-1.217-2.249c-0.451-1.74,0.054-3.263,1.151-4.615
				c0.703-0.864,1.581-1.533,2.546-2.092c1.177-0.68,2.435-1.151,3.746-1.484c0.442-0.113,0.891-0.203,1.335-0.303v-3.073
				c-0.09,0.004-0.163,0.004-0.232,0.013c-1.656,0.21-3.275,0.578-4.855,1.125c-1.703,0.59-3.307,1.364-4.764,2.431
				c-1.026,0.752-1.938,1.619-2.657,2.675c-0.464,0.681-0.856,1.4-1.059,2.205c-0.112,0.441-0.189,0.892-0.283,1.336v1.14
				c0.012,0.029,0.033,0.057,0.035,0.086c0.126,1.341,0.648,2.525,1.423,3.611c0.8,1.118,1.809,2.024,2.937,2.793
				c1.491,1.014,3.117,1.757,4.831,2.306c1.744,0.56,3.531,0.904,5.354,1.071C198.402,213.947,198.416,213.951,198.425,213.952z"/>
			<linearGradient id="SVGID_4_" gradientUnits="userSpaceOnUse" x1="210.2363" y1="193.1562" x2="210.2363" y2="201.5171">
				<stop  offset="0" style="stop-color:#B2B2B2"/>
				<stop  offset="1" style="stop-color:#A1A1A1"/>
			</linearGradient>
			<path fill-rule="evenodd" clip-rule="evenodd" fill="url(#SVGID_4_)" d="M216.193,201.517c-0.301-0.052-0.601-0.095-0.898-0.156
				c-0.664-0.136-1.327-0.276-1.989-0.423c-1.109-0.243-2.217-0.497-3.328-0.737c-0.784-0.171-1.574-0.329-2.36-0.494
				c-0.293-0.063-0.585-0.134-0.949-0.218c0.896-0.505,1.744-0.983,2.645-1.491c-1.592-0.908-3.27-1.433-5.032-1.754
				c0-1.021,0-2.039,0-3.087c0.196,0.018,0.391,0.027,0.581,0.053c1.399,0.204,2.776,0.513,4.121,0.954
				c1.282,0.418,2.526,0.936,3.689,1.627c0.205,0.122,0.359,0.139,0.575,0.011c0.664-0.395,1.345-0.762,2.019-1.139
				c0.062-0.033,0.124-0.064,0.214-0.109c0.079,0.784,0.16,1.543,0.234,2.304c0.144,1.48,0.286,2.958,0.43,4.437
				c0.007,0.061,0.032,0.118,0.05,0.177C216.193,201.484,216.193,201.5,216.193,201.517z"/>
		</g>
	</g>
</g>
</svg>
