<?xml version="1.0" encoding="UTF-8"?>
<svg width="119px" height="220px" viewBox="0 0 119 220" version="1.1" xmlns="http://www.w3.org/2000/svg" xmlns:xlink="http://www.w3.org/1999/xlink">
    <!-- Generator: Sketch 60.1 (88133) - https://sketch.com -->
    <title>Group</title>
    <desc>Created with Sketch.</desc>
    <g id="Page-1" stroke="none" stroke-width="1" fill="none" fill-rule="evenodd">
        <g id="Group" fill="#54A3DA" fill-rule="nonzero">
            <path d="M33.357,101.739 L52.973,101.739 C53.984,101.739 54.804,100.919 54.804,99.908 L54.804,67.216 C54.804,42.988 74.515,23.277 98.743,23.277 L111.82,23.277 C112.831,23.277 113.651,22.457 113.651,21.446 L113.651,1.831 C113.651,0.82 112.831,0 111.82,0 L98.743,0 C61.679,0 31.526,30.153 31.526,67.216 L31.526,99.909 C31.526,100.394519 31.7189402,100.860139 32.0623481,101.203359 C32.405756,101.546579 32.8714806,101.739 33.357,101.739 L33.357,101.739 Z M87.303,22.887 C84.4074975,23.6322632 81.5925434,24.6612421 78.899,25.959 C75.5812287,27.558501 72.4684288,29.552224 69.628,31.897 C66.8003508,34.2313826 64.2613974,36.8948834 62.065,39.831 C63.0509989,38.7463705 63.9844048,37.6150705 64.862,36.441 C68.8243837,32.0779183 73.590231,28.519066 78.899,25.959 C81.5925434,24.6612421 84.4074975,23.6322632 87.303,22.887 L87.303,22.887 Z M111.819,1.831 L111.819,21.447 L111.819,1.831 Z" id="Shape"></path>
            <path d="M116.728,71.9239996 L59.511,71.9239996 C58.5,71.9239996 57.68,72.744 57.68,73.755 L57.68,93.37 C57.68,94.381 58.5,95.201 59.511,95.201 L113.045,95.201 C113.925831,95.201 114.681792,94.5737664 114.844,93.708 L118.504,74.19 C118.638696,73.644219 118.514782,73.0668149 118.168004,72.6243612 C117.821227,72.1819074 117.290156,71.9236158 116.728,71.9239996 L116.728,71.9239996 Z M110.598,104.616 L92.203,104.616 C91.192,104.616 90.372,105.436 90.372,106.447 L90.372,126.063 C90.372,127.074 91.192,127.894 92.203,127.894 L106.915,127.894 C107.795831,127.894 108.551792,127.266766 108.714,126.401 L112.374,106.883 C112.508642,106.33712 112.384737,105.759647 112.038003,105.317053 C111.691269,104.87446 111.16024,104.616 110.598,104.616 Z M111.819,32.693 L98.742,32.693 C79.706,32.693 64.219,48.18 64.219,67.216 C64.219,68.227 65.039,69.047 66.05,69.047 L85.666,69.047 C86.677,69.047 87.497,68.227 87.497,67.216 C87.497,61.015 92.542,55.97 98.743,55.97 L111.82,55.97 C112.831,55.97 113.651,55.15 113.651,54.139 L113.651,34.523 C113.649346,33.5122241 112.829777,32.6935501 111.819,32.693 Z M111.819,54.139 L98.742,54.139 L111.819,54.139 L111.819,34.523 L111.819,54.139 L111.819,54.139 Z M85.665,98.078 L66.049,98.078 C65.038,98.078 64.218,98.898 64.218,99.909 L64.218,171.833 C64.218,183.569 59.648,194.604 51.348,202.903 C50.6331188,203.618344 50.6331188,204.777656 51.348,205.493 L65.218,219.363 C65.575,219.72 66.044,219.899 66.513,219.899 C66.982,219.899 67.45,219.72 67.807,219.363 C80.503,206.668 87.4940025,189.788 87.4940025,171.834 L87.4940025,99.91 C87.4947965,99.4243995 87.3024505,98.9584151 86.9593601,98.6147619 C86.6162697,98.2711088 86.1506012,98.078 85.665,98.078 Z" id="Shape"></path>
            <path d="M54.803,132.601 C54.803,131.59 53.983,130.77 52.972,130.77 L33.357,130.77 C32.346,130.77 31.526,131.59 31.526,132.601 L31.526,171.832 C31.526,174.836 30.356,177.66 28.232,179.785 C27.8885058,180.128232 27.6955106,180.593911 27.6955106,181.0795 C27.6955106,181.565089 27.8885058,182.030768 28.232,182.374 L42.102,196.244 C42.459,196.601 42.928,196.78 43.397,196.78 C43.866,196.78 44.334,196.601 44.692,196.244 C51.213,189.724 54.804,181.054 54.804,171.832 L54.804,132.601 L54.803,132.601 Z M61.3410003,126.062 L61.3410003,106.446 C61.3410003,105.435 60.521,104.615 59.51,104.615 L5.918,104.615 C5.0371693,104.615 4.28120761,105.242234 4.119,106.108 L0.441,125.724 C0.341165865,126.259401 0.484588752,126.811471 0.832395874,127.230578 C1.180203,127.649686 1.69637111,127.892423 2.241,127.893 L59.511,127.893 C59.9965195,127.893 60.4621388,127.70006 60.8053591,127.356652 C61.1485794,127.013244 61.3410003,126.547519 61.3410003,126.062 L61.3410003,126.062 Z M8.37,95.201 L26.818,95.201 C27.829,95.201 28.649,94.381 28.649,93.37 L28.649,73.754 C28.649,72.743 27.829,71.923 26.818,71.923 L12.048,71.923 C11.1671693,71.923 10.4112076,72.5502336 10.249,73.416 L6.571,93.032 C6.4715706,93.5671732 6.61500671,94.1188617 6.96250919,94.5378349 C7.31001166,94.9568082 7.8256701,95.1997701 8.37,95.201 L8.37,95.201 Z" id="Shape"></path>
        </g>
    </g>
</svg>