<?xml version="1.0" encoding="UTF-8"?>
<svg width="105px" height="105px" viewBox="0 0 105 105" version="1.1" xmlns="http://www.w3.org/2000/svg" xmlns:xlink="http://www.w3.org/1999/xlink">
    <!-- Generator: Sketch 60.1 (88133) - https://sketch.com -->
    <title>Group</title>
    <desc>Created with Sketch.</desc>
    <g id="Page-1" stroke="none" stroke-width="1" fill="none" fill-rule="evenodd">
        <g id="Group" transform="translate(0.800000, 0.200000)" fill-rule="nonzero">
            <circle id="Oval" fill="#FFFFFF" cx="52.15" cy="51.81" r="45.28"></circle>
            <circle id="Oval" fill="#1E4489" cx="52.15" cy="51.92" r="48.56"></circle>
            <path d="M51.96,0 C23.26,0 -7.10542736e-15,23.27 -7.10542736e-15,51.96 C-7.10542736e-15,80.65 23.27,103.92 51.96,103.92 C80.65,103.92 103.92,80.65 103.92,51.96 C103.92,23.27 80.66,0 51.96,0 Z M51.96,94.36 C28.55,94.36 9.57,75.38 9.57,51.97 C9.57,28.56 28.55,9.58 51.96,9.58 C75.37,9.58 94.35,28.56 94.35,51.97 C94.35,75.38 75.38,94.36 51.96,94.36 Z" id="Shape" fill="#727174"></path>
            <path d="M23.2,83.09 C23.37,83.25 23.55,83.41 23.72,83.56 C31.22,90.27 41.11,94.35 51.97,94.35 C75.38,94.35 94.36,75.37 94.36,51.96 C94.36,46.47 93.31,41.23 91.41,36.42 C87.47,37.1 83.39,37.7 79.24,38.29 C79.49,34.61 79.72,30.94 80.01,27.34 C81.72,27.07 83.43,26.77 85.1,26.43 C85.31,26.39 85.51,26.34 85.71,26.3 C82.91,22.62 79.53,19.41 75.69,16.82 C75.66,17.01 75.63,17.2 75.6,17.39 C75.35,19.08 75.14,20.8 74.96,22.53 C71.51,22.99 67.98,23.41 64.45,23.83 C64.77,19.73 65.1,15.69 65.52,11.79 C61.27,10.36 56.71,9.57 51.98,9.57 C28.57,9.57 9.59,28.55 9.59,51.96 C9.59,62.06 13.13,71.33 19.03,78.61 C19.23,78.85 19.43,79.1 19.64,79.34 C19.75,79.47 19.86,79.6 19.98,79.73 C20.37,80.17 20.77,80.61 21.17,81.05 C21.22,81.1 21.27,81.16 21.33,81.21 C21.67,81.56 22.01,81.91 22.36,82.26 C22.62,82.55 22.91,82.82 23.2,83.09 Z M22.91,60.62 C22.9,51.2 25.28,45.22 29.28,40.98 L29.28,40.98 C29.67,44.66 29.52,49.02 28.56,54.39 L28.65,54.4 C26.36,56.65 24.42,59.27 22.91,62.26 C22.9,61.73 22.91,61.19 22.91,60.62 Z M34.1,37.07 C36.7,35.44 39.72,34.17 43.06,33.14 C42.77,37.5 42.36,41.86 41.76,46.17 C39.26,47.19 36.88,48.37 34.67,49.74 C35.1,44.86 34.83,40.7 34.1,37.07 Z M36.04,55.24 C37.47,54.26 39.04,53.37 40.71,52.56 C40.03,56.1 39.2,59.58 38.14,63 C33.85,64.63 29.75,66.6 25.92,69.03 C27.59,62.83 31.13,58.59 36.04,55.24 Z M30.52,79.93 C29.44,79.43 28.38,78.8 27.28,78.01 C26.66,77.23 26.13,76.46 25.67,75.69 C28.73,73.44 32.08,71.56 35.64,69.95 C34.22,73.38 32.53,76.71 30.52,79.93 Z M42.42,67.28 C45.65,66.18 49.01,65.25 52.46,64.46 C51.81,66.03 51.09,67.5 50.28,68.87 C47.17,74.17 43.05,78.03 36.71,79.99 C39.05,75.88 40.91,71.62 42.42,67.28 Z M63.78,74.34 C59.91,78.29 54.38,80.84 45.73,81.44 C48.18,79.78 50.32,77.8 52.14,75.55 C56.68,74.56 60.49,74.21 63.78,74.34 Z M56.12,69.33 C57.11,67.37 57.97,65.32 58.71,63.17 C62.64,62.45 66.66,61.85 70.71,61.33 C69.89,64.25 68.86,66.92 67.54,69.27 C64.2,68.82 60.44,68.78 56.12,69.33 Z M76.98,80.16 C71.87,85.27 64.64,88.72 53.03,89.32 C48.84,89.54 44.56,88.7 40.45,87.06 C41.84,87.09 43.29,87.06 44.82,86.98 C56.76,86.36 64.94,81.92 70.03,75.22 C73.15,76.02 75.8,77.28 78.31,78.71 L78.31,78.71 C77.88,79.21 77.44,79.69 76.98,80.16 Z M78.63,47.21 C78.74,46.08 78.83,44.93 78.92,43.79 C83.35,43.18 87.76,42.57 92.07,41.83 C91.08,45.85 90.19,49.86 89.23,53.74 C86.91,54 84.56,54.26 82.2,54.52 C80.69,54.68 79.18,54.85 77.66,55.01 C78.06,52.46 78.37,49.84 78.63,47.21 Z M76.51,60.64 C78.5,60.41 80.5,60.19 82.49,59.98 C84.23,59.79 85.97,59.61 87.71,59.43 C87.66,59.62 87.61,59.81 87.55,59.99 C86,65.23 84.14,70.05 81.61,74.2 C79.07,72.78 76.25,71.44 73,70.47 C74.55,67.42 75.67,64.11 76.51,60.64 Z M63.16,40.26 C63.53,36.64 63.82,32.98 64.09,29.32 C67.53,28.92 71.02,28.53 74.5,28.09 C74.23,31.74 74.02,35.4 73.79,39 C70.33,39.48 66.86,39.98 63.44,40.55 C63.34,40.57 63.23,40.59 63.13,40.6 C63.14,40.49 63.15,40.37 63.16,40.26 Z M62.45,46.25 C62.99,46.15 63.52,46.06 64.07,45.97 C67.12,45.45 70.25,44.99 73.39,44.55 C73.32,45.36 73.26,46.16 73.19,46.95 C72.9,49.96 72.53,52.88 72.02,55.65 C68.15,56.12 64.28,56.64 60.44,57.28 C61.31,53.74 61.94,50.04 62.45,46.25 Z M49.16,20.14 C49.23,18.32 49.28,16.51 49.35,14.73 C52.86,13.69 56.46,12.69 60.07,11.6 C59.62,15.81 59.29,20.11 58.98,24.43 C57.73,24.59 56.49,24.76 55.26,24.95 C53.12,25.27 51,25.64 48.92,26.05 C49.01,24.07 49.09,22.09 49.16,20.14 Z M48.63,31.69 C50.93,31.19 53.33,30.75 55.79,30.38 C56.71,30.24 57.64,30.13 58.57,30 C58.32,33.36 58.05,36.7 57.72,39.97 C57.66,40.53 57.6,41.08 57.54,41.63 C54.1,42.32 50.75,43.13 47.54,44.11 C48.05,39.96 48.38,35.81 48.63,31.69 Z M46.69,50.12 C49.84,49.04 53.24,48.14 56.8,47.36 C56.22,51.24 55.48,54.95 54.53,58.37 C51.09,59.07 47.7,59.9 44.39,60.88 C45.34,57.33 46.1,53.73 46.69,50.12 Z M42.3,16.99 C42.8,16.81 43.31,16.65 43.82,16.48 C43.78,17.73 43.74,18.97 43.69,20.23 C43.6,22.6 43.51,24.99 43.39,27.38 C39.53,28.45 35.88,29.83 32.57,31.74 C31.44,28.67 30.01,26.02 28.52,23.64 C32.49,20.88 37.17,18.79 42.3,16.99 Z M22.88,28.54 C23.3,28.06 23.75,27.61 24.2,27.16 C25.69,29.5 27.04,31.97 28,34.89 C21.5,40.34 17.44,48.8 17.44,60.91 C17.44,62.16 17.47,63.35 17.53,64.5 C15.93,60.72 15.03,56.84 15.03,53.15 C15.03,41.37 18.09,33.92 22.88,28.54 Z" id="Shape" fill="#19BFD3"></path>
        </g>
    </g>
</svg>