<?xml version="1.0" encoding="UTF-8" standalone="no"?>
<!DOCTYPE svg PUBLIC "-//W3C//DTD SVG 1.1//EN" "http://www.w3.org/Graphics/SVG/1.1/DTD/svg11.dtd">
<svg width="100%" height="100%" viewBox="0 0 214 40" version="1.1" xmlns="http://www.w3.org/2000/svg" xmlns:xlink="http://www.w3.org/1999/xlink" xml:space="preserve" xmlns:serif="http://www.serif.com/" style="fill-rule:evenodd;clip-rule:evenodd;stroke-linejoin:round;stroke-miterlimit:2;">
    <g id="microk8s-color-1" transform="matrix(0.90766,0,0,0.545833,-78.9664,-25.1083)">
        <rect x="87" y="46" width="235" height="72" style="fill:none;"/>
        <g transform="matrix(0.521319,0,0,0.473905,21.7561,-52.4086)">
            <g transform="matrix(109.895,0,0,201.026,118,355.996)">
                <path d="M0.397,-0.096C0.39,-0.112 0.382,-0.132 0.371,-0.157C0.36,-0.182 0.348,-0.208 0.335,-0.237C0.322,-0.266 0.309,-0.295 0.295,-0.326C0.28,-0.356 0.267,-0.385 0.254,-0.412C0.241,-0.439 0.23,-0.463 0.219,-0.484C0.208,-0.505 0.199,-0.522 0.192,-0.533C0.185,-0.454 0.179,-0.369 0.174,-0.278C0.169,-0.186 0.165,-0.093 0.162,0L0.067,0C0.07,-0.06 0.073,-0.121 0.076,-0.182C0.079,-0.243 0.083,-0.303 0.088,-0.362C0.092,-0.421 0.096,-0.478 0.102,-0.534C0.107,-0.59 0.112,-0.643 0.118,-0.693L0.203,-0.693C0.221,-0.664 0.24,-0.629 0.261,-0.589C0.282,-0.549 0.302,-0.507 0.323,-0.464C0.344,-0.42 0.364,-0.376 0.383,-0.333C0.402,-0.289 0.42,-0.249 0.436,-0.213C0.452,-0.249 0.47,-0.289 0.489,-0.333C0.508,-0.376 0.528,-0.42 0.549,-0.464C0.57,-0.507 0.59,-0.549 0.611,-0.589C0.632,-0.629 0.651,-0.664 0.669,-0.693L0.754,-0.693C0.777,-0.47 0.794,-0.239 0.805,0L0.71,0C0.707,-0.093 0.703,-0.186 0.698,-0.278C0.693,-0.369 0.687,-0.454 0.68,-0.533C0.673,-0.522 0.665,-0.505 0.654,-0.484C0.643,-0.463 0.631,-0.439 0.618,-0.412C0.605,-0.385 0.592,-0.356 0.578,-0.326C0.563,-0.295 0.55,-0.266 0.537,-0.237C0.524,-0.208 0.513,-0.182 0.502,-0.157C0.491,-0.132 0.482,-0.112 0.475,-0.096L0.397,-0.096Z" style="fill:rgb(233,85,56);fill-rule:nonzero;"/>
            </g>
            <g transform="matrix(109.895,0,0,201.026,213.718,355.996)">
                <path d="M0.173,0L0.08,0L0.08,-0.52L0.173,-0.52L0.173,0ZM0.126,-0.614C0.109,-0.614 0.095,-0.62 0.084,-0.631C0.072,-0.642 0.066,-0.656 0.066,-0.675C0.066,-0.694 0.072,-0.709 0.084,-0.72C0.095,-0.731 0.109,-0.736 0.126,-0.736C0.143,-0.736 0.157,-0.731 0.169,-0.72C0.18,-0.709 0.186,-0.694 0.186,-0.675C0.186,-0.656 0.18,-0.642 0.169,-0.631C0.157,-0.62 0.143,-0.614 0.126,-0.614Z" style="fill:rgb(233,85,56);fill-rule:nonzero;"/>
            </g>
            <g transform="matrix(109.895,0,0,201.026,241.522,355.996)">
                <path d="M0.306,0.012C0.264,0.012 0.227,0.005 0.196,-0.008C0.164,-0.021 0.137,-0.04 0.116,-0.064C0.094,-0.088 0.078,-0.117 0.067,-0.15C0.056,-0.183 0.051,-0.219 0.051,-0.259C0.051,-0.299 0.057,-0.336 0.069,-0.369C0.08,-0.402 0.097,-0.431 0.118,-0.456C0.139,-0.48 0.166,-0.499 0.197,-0.513C0.228,-0.526 0.262,-0.533 0.3,-0.533C0.323,-0.533 0.347,-0.531 0.37,-0.527C0.393,-0.523 0.416,-0.517 0.437,-0.508L0.416,-0.429C0.402,-0.436 0.386,-0.441 0.368,-0.445C0.349,-0.449 0.33,-0.451 0.309,-0.451C0.257,-0.451 0.217,-0.435 0.19,-0.402C0.162,-0.369 0.148,-0.322 0.148,-0.259C0.148,-0.231 0.151,-0.205 0.158,-0.182C0.164,-0.159 0.174,-0.139 0.188,-0.122C0.201,-0.105 0.219,-0.093 0.24,-0.084C0.261,-0.075 0.287,-0.07 0.318,-0.07C0.343,-0.07 0.365,-0.072 0.385,-0.077C0.405,-0.082 0.421,-0.087 0.432,-0.092L0.445,-0.014C0.44,-0.011 0.432,-0.008 0.422,-0.005C0.412,-0.002 0.401,0.001 0.388,0.004C0.375,0.006 0.362,0.008 0.348,0.01C0.333,0.011 0.319,0.012 0.306,0.012Z" style="fill:rgb(233,85,56);fill-rule:nonzero;"/>
            </g>
            <g transform="matrix(109.895,0,0,201.026,292.623,355.996)">
                <path d="M0.272,-0.531C0.28,-0.531 0.289,-0.531 0.3,-0.53C0.31,-0.529 0.32,-0.527 0.33,-0.526C0.34,-0.524 0.349,-0.522 0.358,-0.521C0.366,-0.519 0.372,-0.517 0.376,-0.516L0.36,-0.435C0.353,-0.438 0.341,-0.441 0.324,-0.445C0.307,-0.448 0.285,-0.45 0.258,-0.45C0.241,-0.45 0.224,-0.448 0.207,-0.445C0.19,-0.441 0.178,-0.438 0.173,-0.437L0.173,0L0.08,0L0.08,-0.498C0.102,-0.506 0.129,-0.514 0.162,-0.521C0.195,-0.528 0.231,-0.531 0.272,-0.531Z" style="fill:rgb(233,85,56);fill-rule:nonzero;"/>
            </g>
            <g transform="matrix(109.895,0,0,201.026,335.042,355.996)">
                <path d="M0.539,-0.26C0.539,-0.219 0.533,-0.181 0.521,-0.148C0.509,-0.115 0.492,-0.086 0.471,-0.062C0.449,-0.038 0.423,-0.02 0.393,-0.007C0.363,0.007 0.33,0.013 0.295,0.013C0.26,0.013 0.227,0.007 0.197,-0.007C0.167,-0.02 0.141,-0.038 0.12,-0.062C0.098,-0.086 0.081,-0.115 0.069,-0.148C0.057,-0.181 0.051,-0.219 0.051,-0.26C0.051,-0.301 0.057,-0.338 0.069,-0.372C0.081,-0.405 0.098,-0.434 0.12,-0.458C0.141,-0.482 0.167,-0.501 0.197,-0.514C0.227,-0.527 0.26,-0.533 0.295,-0.533C0.33,-0.533 0.363,-0.527 0.393,-0.514C0.423,-0.501 0.449,-0.482 0.471,-0.458C0.492,-0.434 0.509,-0.405 0.521,-0.372C0.533,-0.338 0.539,-0.301 0.539,-0.26ZM0.442,-0.26C0.442,-0.319 0.429,-0.365 0.403,-0.4C0.376,-0.434 0.34,-0.451 0.295,-0.451C0.25,-0.451 0.214,-0.434 0.188,-0.4C0.161,-0.365 0.148,-0.319 0.148,-0.26C0.148,-0.201 0.161,-0.155 0.188,-0.121C0.214,-0.086 0.25,-0.069 0.295,-0.069C0.34,-0.069 0.376,-0.086 0.403,-0.121C0.429,-0.155 0.442,-0.201 0.442,-0.26Z" style="fill:rgb(233,85,56);fill-rule:nonzero;"/>
            </g>
            <g transform="matrix(109.895,0,0,201.026,399.88,355.996)">
                <path d="M0.599,-0.693C0.578,-0.67 0.555,-0.645 0.529,-0.618C0.503,-0.59 0.476,-0.562 0.448,-0.533C0.419,-0.503 0.391,-0.475 0.363,-0.447C0.335,-0.419 0.309,-0.393 0.284,-0.369C0.313,-0.349 0.343,-0.324 0.375,-0.295C0.407,-0.266 0.438,-0.234 0.469,-0.201C0.5,-0.168 0.529,-0.134 0.556,-0.099C0.583,-0.064 0.605,-0.031 0.623,0L0.509,0C0.489,-0.031 0.466,-0.063 0.44,-0.095C0.414,-0.126 0.387,-0.157 0.358,-0.186C0.329,-0.215 0.299,-0.241 0.27,-0.266C0.24,-0.291 0.211,-0.312 0.183,-0.329L0.183,0L0.086,0L0.086,-0.693L0.183,-0.693L0.183,-0.387C0.206,-0.409 0.232,-0.434 0.26,-0.462C0.288,-0.489 0.316,-0.517 0.343,-0.545C0.37,-0.573 0.396,-0.6 0.421,-0.626C0.445,-0.651 0.465,-0.674 0.482,-0.693L0.599,-0.693Z" style="fill:rgb(233,85,56);fill-rule:nonzero;"/>
            </g>
            <g transform="matrix(109.895,0,0,201.026,469.004,355.996)">
                <path d="M0.509,-0.18C0.509,-0.152 0.504,-0.126 0.495,-0.103C0.485,-0.079 0.47,-0.058 0.452,-0.041C0.432,-0.023 0.409,-0.009 0.38,0.001C0.351,0.01 0.318,0.015 0.281,0.015C0.238,0.015 0.202,0.009 0.173,-0.004C0.143,-0.016 0.12,-0.031 0.103,-0.05C0.086,-0.069 0.073,-0.089 0.066,-0.112C0.059,-0.134 0.055,-0.155 0.055,-0.175C0.055,-0.194 0.058,-0.213 0.065,-0.231C0.071,-0.248 0.079,-0.265 0.09,-0.28C0.1,-0.295 0.112,-0.309 0.126,-0.322C0.139,-0.334 0.154,-0.345 0.169,-0.354C0.104,-0.391 0.071,-0.446 0.071,-0.519C0.071,-0.544 0.076,-0.569 0.086,-0.592C0.096,-0.615 0.11,-0.635 0.129,-0.652C0.147,-0.669 0.169,-0.683 0.195,-0.694C0.221,-0.704 0.25,-0.709 0.282,-0.709C0.319,-0.709 0.351,-0.703 0.378,-0.692C0.405,-0.681 0.427,-0.666 0.444,-0.649C0.46,-0.631 0.473,-0.611 0.481,-0.59C0.488,-0.569 0.492,-0.548 0.492,-0.528C0.492,-0.509 0.489,-0.491 0.484,-0.474C0.478,-0.456 0.47,-0.441 0.461,-0.426C0.451,-0.411 0.44,-0.398 0.428,-0.387C0.415,-0.376 0.402,-0.366 0.389,-0.357C0.468,-0.32 0.508,-0.261 0.509,-0.18ZM0.149,-0.174C0.149,-0.162 0.151,-0.15 0.156,-0.137C0.16,-0.124 0.167,-0.112 0.178,-0.101C0.189,-0.09 0.202,-0.08 0.219,-0.073C0.236,-0.066 0.257,-0.062 0.282,-0.062C0.305,-0.062 0.325,-0.065 0.342,-0.072C0.359,-0.079 0.372,-0.087 0.383,-0.098C0.394,-0.108 0.402,-0.12 0.407,-0.133C0.412,-0.146 0.415,-0.16 0.415,-0.174C0.415,-0.195 0.411,-0.214 0.403,-0.23C0.395,-0.246 0.384,-0.26 0.369,-0.272C0.354,-0.284 0.335,-0.294 0.315,-0.303C0.294,-0.311 0.27,-0.318 0.243,-0.324C0.213,-0.307 0.19,-0.287 0.174,-0.262C0.157,-0.237 0.149,-0.208 0.149,-0.174ZM0.399,-0.529C0.399,-0.539 0.397,-0.55 0.393,-0.562C0.388,-0.574 0.381,-0.585 0.372,-0.596C0.363,-0.606 0.351,-0.615 0.336,-0.622C0.321,-0.628 0.303,-0.632 0.282,-0.632C0.261,-0.632 0.243,-0.629 0.228,-0.622C0.213,-0.615 0.2,-0.607 0.191,-0.597C0.182,-0.586 0.175,-0.575 0.171,-0.563C0.166,-0.55 0.164,-0.538 0.164,-0.526C0.164,-0.511 0.167,-0.497 0.172,-0.482C0.177,-0.467 0.186,-0.454 0.197,-0.441C0.208,-0.428 0.223,-0.417 0.242,-0.407C0.26,-0.397 0.282,-0.389 0.307,-0.383C0.335,-0.4 0.357,-0.419 0.374,-0.442C0.391,-0.464 0.399,-0.493 0.399,-0.529Z" style="fill:rgb(233,85,56);fill-rule:nonzero;"/>
            </g>
            <g transform="matrix(109.895,0,0,201.026,530.985,355.996)">
                <path d="M0.201,-0.067C0.239,-0.067 0.267,-0.072 0.286,-0.082C0.304,-0.092 0.313,-0.108 0.313,-0.13C0.313,-0.153 0.304,-0.171 0.286,-0.184C0.268,-0.197 0.238,-0.212 0.197,-0.229C0.177,-0.237 0.158,-0.245 0.14,-0.254C0.121,-0.262 0.105,-0.272 0.092,-0.283C0.079,-0.294 0.068,-0.308 0.06,-0.324C0.052,-0.34 0.048,-0.36 0.048,-0.383C0.048,-0.429 0.065,-0.466 0.099,-0.493C0.133,-0.52 0.179,-0.533 0.238,-0.533C0.253,-0.533 0.267,-0.532 0.282,-0.531C0.297,-0.529 0.31,-0.527 0.323,-0.525C0.336,-0.522 0.347,-0.52 0.357,-0.517C0.366,-0.514 0.374,-0.512 0.379,-0.51L0.362,-0.43C0.352,-0.435 0.336,-0.441 0.315,-0.447C0.294,-0.452 0.268,-0.455 0.238,-0.455C0.212,-0.455 0.189,-0.45 0.17,-0.44C0.151,-0.429 0.141,-0.413 0.141,-0.391C0.141,-0.38 0.143,-0.37 0.148,-0.361C0.152,-0.352 0.159,-0.345 0.168,-0.338C0.177,-0.331 0.188,-0.324 0.201,-0.318C0.214,-0.312 0.23,-0.306 0.249,-0.299C0.274,-0.29 0.296,-0.281 0.315,-0.272C0.334,-0.263 0.351,-0.252 0.365,-0.24C0.378,-0.228 0.389,-0.214 0.396,-0.197C0.403,-0.18 0.407,-0.159 0.407,-0.134C0.407,-0.086 0.389,-0.05 0.354,-0.025C0.318,0 0.267,0.012 0.201,0.012C0.155,0.012 0.119,0.008 0.093,0.001C0.067,-0.007 0.049,-0.013 0.04,-0.017L0.057,-0.097C0.068,-0.093 0.085,-0.087 0.108,-0.079C0.131,-0.071 0.162,-0.067 0.201,-0.067Z" style="fill:rgb(233,85,56);fill-rule:nonzero;"/>
            </g>
        </g>
    </g>
</svg>
