<?xml version="1.0" encoding="UTF-8"?>
<svg width="211px" height="140px" viewBox="0 0 211 140" version="1.1" xmlns="http://www.w3.org/2000/svg" xmlns:xlink="http://www.w3.org/1999/xlink">
    <!-- Generator: Sketch 60.1 (88133) - https://sketch.com -->
    <title>XMLID_88_</title>
    <desc>Created with Sketch.</desc>
    <g id="Page-1" stroke="none" stroke-width="1" fill="none" fill-rule="evenodd">
        <g id="XMLID_88_" fill-rule="nonzero">
            <rect id="XMLID_187_" fill="#FBB22E" x="72.594" y="0.699" width="8.194" height="8.185"></rect>
            <rect id="XMLID_186_" fill="#EE404F" x="58.155" y="0.699" width="8.194" height="8.185"></rect>
            <rect id="XMLID_185_" fill="#EE404F" x="72.594" y="15.316" width="8.194" height="8.185"></rect>
            <rect id="XMLID_184_" fill="#9D1C32" x="58.155" y="15.316" width="8.194" height="8.185"></rect>
            <rect id="XMLID_183_" fill="#FBB22E" x="101.466" y="29.735" width="8.194" height="8.185"></rect>
            <rect id="XMLID_182_" fill="#B5782B" x="87.028" y="44.155" width="8.194" height="8.187"></rect>
            <rect id="XMLID_181_" fill="#EE404F" x="87.028" y="29.735" width="8.194" height="8.185"></rect>
            <rect id="XMLID_180_" fill="#EE404F" x="101.466" y="15.316" width="8.194" height="8.185"></rect>
            <rect id="XMLID_179_" fill="#9D1C32" x="87.028" y="15.316" width="8.194" height="8.185"></rect>
            <rect id="XMLID_178_" fill="#FBB22E" x="130.534" y="29.735" width="8.193" height="8.185"></rect>
            <rect id="XMLID_177_" fill="#B5782B" x="159.406" y="29.735" width="8.194" height="8.185"></rect>
            <rect id="XMLID_176_" fill="#EE404F" x="116.098" y="29.735" width="8.191" height="8.185"></rect>
            <rect id="XMLID_175_" fill="#EE404F" x="130.534" y="15.316" width="8.193" height="8.185"></rect>
            <rect id="XMLID_174_" fill="#9D1C32" x="87.028" y="0.699" width="8.194" height="8.185"></rect>
            <rect id="XMLID_173_" fill="#FBB22E" x="72.594" y="29.735" width="8.194" height="8.185"></rect>
            <rect id="XMLID_172_" fill="#FBB22E" x="43.72" y="15.316" width="8.194" height="8.185"></rect>
            <rect id="XMLID_171_" fill="#EE404F" x="58.155" y="29.735" width="8.194" height="8.185"></rect>
            <rect id="XMLID_170_" fill="#B5782B" x="72.594" y="44.155" width="8.194" height="8.187"></rect>
            <rect id="XMLID_169_" fill="#B5782B" x="43.72" y="29.735" width="8.194" height="8.185"></rect>
            <rect id="XMLID_168_" fill="#9D1C32" x="58.155" y="44.155" width="8.194" height="8.187"></rect>
            <rect id="XMLID_167_" fill="#B5782B" x="101.466" y="58.772" width="8.194" height="8.185"></rect>
            <rect id="XMLID_166_" fill="#EE404F" x="87.028" y="58.772" width="8.194" height="8.185"></rect>
            <rect id="XMLID_165_" fill="#EE404F" x="101.466" y="44.155" width="8.194" height="8.187"></rect>
            <rect id="XMLID_164_" fill="#B5782B" x="87.028" y="131.265" width="8.194" height="8.185"></rect>
            <rect id="XMLID_163_" fill="#B5782B" x="72.594" y="131.265" width="8.194" height="8.185"></rect>
            <rect id="XMLID_162_" fill="#EE404F" x="101.466" y="131.265" width="8.194" height="8.185"></rect>
            <rect id="XMLID_161_" fill="#EE404F" x="116.098" y="116.65" width="8.191" height="8.185"></rect>
            <rect id="XMLID_160_" fill="#FBB22E" x="72.594" y="58.772" width="8.194" height="8.185"></rect>
            <rect id="XMLID_159_" fill="#FBB22E" x="72.594" y="116.845" width="8.194" height="8.185"></rect>
            <rect id="XMLID_158_" fill="#EE404F" x="58.155" y="58.772" width="8.194" height="8.185"></rect>
            <rect id="XMLID_157_" fill="#B5782B" x="72.594" y="73.192" width="8.194" height="8.184"></rect>
            <rect id="XMLID_156_" fill="#9D1C32" x="58.155" y="73.192" width="8.194" height="8.184"></rect>
            <rect id="XMLID_155_" fill="#FBB22E" x="101.466" y="87.613" width="8.194" height="8.184"></rect>
            <rect id="XMLID_154_" fill="#B5782B" x="87.028" y="102.23" width="8.194" height="8.185"></rect>
            <rect id="XMLID_153_" fill="#EE404F" x="87.028" y="87.613" width="8.194" height="8.184"></rect>
            <rect id="XMLID_152_" fill="#EE404F" x="101.466" y="73.192" width="8.194" height="8.184"></rect>
            <rect id="XMLID_151_" fill="#9D1C32" x="87.028" y="73.192" width="8.194" height="8.184"></rect>
            <rect id="XMLID_150_" fill="#FBB22E" x="72.594" y="87.613" width="8.194" height="8.184"></rect>
            <rect id="XMLID_149_" fill="#B5782B" x="58.155" y="87.613" width="8.194" height="8.184"></rect>
            <rect id="XMLID_148_" fill="#B5782B" x="29.283" y="44.155" width="8.194" height="8.187"></rect>
            <rect id="XMLID_147_" fill="#FBB22E" x="43.72" y="58.772" width="8.194" height="8.185"></rect>
            <rect id="XMLID_146_" fill="#EE404F" x="58.155" y="116.65" width="8.194" height="8.185"></rect>
            <rect id="XMLID_145_" fill="#EE404F" x="29.283" y="58.772" width="8.194" height="8.185"></rect>
            <rect id="XMLID_144_" fill="#EE404F" x="43.72" y="44.155" width="8.194" height="8.187"></rect>
            <rect id="XMLID_143_" fill="#FBB22E" x="14.845" y="58.772" width="8.193" height="8.185"></rect>
            <rect id="XMLID_142_" fill="#EE404F" x="0.411" y="58.772" width="8.194" height="8.185"></rect>
            <rect id="XMLID_141_" fill="#EE404F" x="14.845" y="73.192" width="8.193" height="8.184"></rect>
            <rect id="XMLID_140_" fill="#9D1C32" x="0.411" y="73.192" width="8.194" height="8.184"></rect>
            <rect id="XMLID_139_" fill="#FBB22E" x="43.72" y="87.613" width="8.194" height="8.184"></rect>
            <rect id="XMLID_138_" fill="#EE404F" x="29.283" y="87.613" width="8.194" height="8.184"></rect>
            <rect id="XMLID_137_" fill="#EE404F" x="43.72" y="73.192" width="8.194" height="8.184"></rect>
            <rect id="XMLID_136_" fill="#EE404F" x="43.72" y="102.23" width="8.194" height="8.185"></rect>
            <rect id="XMLID_135_" fill="#B5782B" x="29.283" y="73.192" width="8.194" height="8.184"></rect>
            <rect id="XMLID_134_" fill="#EE404F" x="14.845" y="102.23" width="8.193" height="8.185"></rect>
            <rect id="XMLID_133_" fill="#9D1C32" x="29.283" y="102.23" width="8.194" height="8.185"></rect>
            <rect id="XMLID_132_" fill="#FBB22E" x="14.845" y="87.613" width="8.193" height="8.184"></rect>
            <rect id="XMLID_131_" fill="#EE404F" x="0.411" y="87.613" width="8.194" height="8.184"></rect>
            <rect id="XMLID_130_" fill="#9D1C32" x="144.97" y="15.316" width="8.194" height="8.185"></rect>
            <rect id="XMLID_129_" fill="#EE404F" x="144.97" y="29.735" width="8.194" height="8.185"></rect>
            <rect id="XMLID_128_" fill="#FBB22E" x="144.97" y="102.23" width="8.194" height="8.185"></rect>
            <rect id="XMLID_127_" fill="#B5782B" x="116.098" y="102.23" width="8.191" height="8.185"></rect>
            <rect id="XMLID_126_" fill="#EE404F" x="144.97" y="116.65" width="8.194" height="8.185"></rect>
            <rect id="XMLID_125_" fill="#9D1C32" x="130.534" y="116.65" width="8.193" height="8.185"></rect>
            <rect id="XMLID_124_" fill="#EE404F" x="130.534" y="102.23" width="8.193" height="8.185"></rect>
            <rect id="XMLID_123_" fill="#EE404F" x="159.406" y="102.23" width="8.194" height="8.185"></rect>
            <rect id="XMLID_122_" fill="#EE404F" x="202.717" y="58.772" width="8.194" height="8.185"></rect>
            <rect id="XMLID_121_" fill="#FBB22E" x="188.278" y="58.772" width="8.194" height="8.185"></rect>
            <rect id="XMLID_120_" fill="#EE404F" x="173.845" y="58.772" width="8.193" height="8.185"></rect>
            <rect id="XMLID_119_" fill="#EE404F" x="188.278" y="73.192" width="8.194" height="8.184"></rect>
            <rect id="XMLID_118_" fill="#9D1C32" x="173.845" y="73.192" width="8.193" height="8.184"></rect>
            <rect id="XMLID_117_" fill="#EE404F" x="116.098" y="87.613" width="8.191" height="8.184"></rect>
            <rect id="XMLID_116_" fill="#9D1C32" x="202.717" y="73.192" width="8.194" height="8.184"></rect>
            <rect id="XMLID_115_" fill="#FBB22E" x="130.534" y="87.613" width="8.193" height="8.184"></rect>
            <rect id="XMLID_114_" fill="#EE404F" x="144.97" y="87.613" width="8.194" height="8.184"></rect>
            <rect id="XMLID_113_" fill="#FBB22E" x="159.406" y="58.772" width="8.194" height="8.185"></rect>
            <rect id="XMLID_112_" fill="#9D1C32" x="144.97" y="58.772" width="8.194" height="8.185"></rect>
            <rect id="XMLID_111_" fill="#FBB22E" x="130.534" y="58.772" width="8.193" height="8.185"></rect>
            <rect id="XMLID_110_" fill="#EE404F" x="116.098" y="58.772" width="8.191" height="8.185"></rect>
            <rect id="XMLID_109_" fill="#9D1C32" x="130.534" y="73.192" width="8.193" height="8.184"></rect>
            <rect id="XMLID_108_" fill="#B5782B" x="116.098" y="73.192" width="8.191" height="8.184"></rect>
            <rect id="XMLID_107_" fill="#FBB22E" x="159.406" y="87.613" width="8.194" height="8.184"></rect>
            <rect id="XMLID_106_" fill="#EE404F" x="173.845" y="87.613" width="8.193" height="8.184"></rect>
            <rect id="XMLID_105_" fill="#EE404F" x="159.406" y="73.192" width="8.194" height="8.184"></rect>
            <rect id="XMLID_104_" fill="#B5782B" x="144.97" y="73.192" width="8.194" height="8.184"></rect>
            <rect id="XMLID_103_" fill="#FBB22E" x="188.278" y="87.613" width="8.194" height="8.184"></rect>
            <rect id="XMLID_102_" fill="#EE404F" x="202.717" y="87.613" width="8.194" height="8.184"></rect>
            <rect id="XMLID_101_" fill="#FBB22E" x="116.098" y="44.155" width="8.191" height="8.187"></rect>
            <rect id="XMLID_100_" fill="#EE404F" x="130.534" y="44.155" width="8.193" height="8.187"></rect>
            <rect id="XMLID_99_" fill="#FBB22E" x="144.97" y="44.155" width="8.194" height="8.187"></rect>
            <rect id="XMLID_98_" fill="#EE404F" x="159.406" y="44.155" width="8.194" height="8.187"></rect>
            <rect id="XMLID_97_" fill="#FBB22E" x="173.845" y="44.155" width="8.193" height="8.187"></rect>
            <rect id="XMLID_96_" fill="#EE404F" x="188.278" y="44.155" width="8.194" height="8.187"></rect>
            <rect id="XMLID_95_" fill="#EE404F" x="173.845" y="102.23" width="8.193" height="8.185"></rect>
            <rect id="XMLID_94_" fill="#FBB22E" x="188.278" y="102.23" width="8.194" height="8.185"></rect>
            <rect id="XMLID_93_" fill="#B5782B" x="72.594" y="102.23" width="8.194" height="8.185"></rect>
            <rect id="XMLID_92_" fill="#9D1C32" x="58.155" y="102.23" width="8.194" height="8.185"></rect>
            <rect id="XMLID_91_" fill="#B5782B" x="101.466" y="116.65" width="8.194" height="8.185"></rect>
            <rect id="XMLID_90_" fill="#EE404F" x="87.028" y="116.65" width="8.194" height="8.185"></rect>
            <rect id="XMLID_89_" fill="#FBB22E" x="101.466" y="102.23" width="8.194" height="8.185"></rect>
        </g>
    </g>
</svg>