<svg height="64" viewBox="-7.69 -4.92 64 64" width="64" xmlns="http://www.w3.org/2000/svg"><path d="m37.986 34.063v-13.966l-12.05 6.996z" fill="#00445e"/><path d="m37.203 18.732-12.065-6.976v13.972zm-13.633 6.996v-13.972l-12.075 6.976zm-.782-15.312-12.06-7.02v14l12.06-6.97" fill="#00aede"/><path d="m37.203 35.408-12.065-6.97v13.967l12.065-6.996m-13.633 6.995v-13.967l-12.075 6.97 12.075 6.996" fill="#00445e"/><path d="m51.637 27.092-12.085-6.996v13.967l12.085-6.97m-42.48-9.706v-13.991l-12.154 7.02 12.154 6.97" fill="#00aede"/><path d="m22.788 43.75-12.06-6.996v13.986l12.06-7" fill="#00445e"/><path d="m9.156 50.74v-13.987l-12.153 6.997 12.154 7" fill="#00aede"/><path d="m22.788 27.092-12.06-6.996v13.967l12.06-6.97" fill="#00445e"/><path d="m37.986 17.387v-13.991l-12.05 7.02 12.05 6.97" fill="#00aede"/><path d="m25.138-4.92v13.967l12.065-7zm-13.642 6.976 12.075 7v-13.976zm25.707 50.028-12.065-6.97v13.962l12.065-7m-13.633 7.004v-13.967l-12.075 6.97z" fill="#00445e"/><path d="m52.416 42.404v-13.967l-12.05 6.97 12.05 6.996m-43.26-8.34v-14l-12.154 7.02 12.154 6.97m-.778 1.355-12.173-6.97v13.967l12.173-7.005m44.038-9.68v-13.964l-12.05 6.976 12.05 6.996m-.78-15.312-12.086-7.02v14l12.085-6.97m0 33.334-12.085-6.996v13.976l12.085-7" fill="#00aede"/><path d="m37.986 50.74v-13.987l-12.05 6.996 12.05 7" fill="#00445e"/><path d="m8.378 18.732-12.173-6.976v13.972z" fill="#00aede"/></svg>