<?xml version="1.0" encoding="UTF-8" standalone="no"?>
<!DOCTYPE svg PUBLIC "-//W3C//DTD SVG 1.1//EN" "http://www.w3.org/Graphics/SVG/1.1/DTD/svg11.dtd">
<svg width="100%" height="100%" viewBox="0 0 210 152" version="1.1" xmlns="http://www.w3.org/2000/svg" xmlns:xlink="http://www.w3.org/1999/xlink" xml:space="preserve" xmlns:serif="http://www.serif.com/" style="fill-rule:evenodd;clip-rule:evenodd;stroke-linejoin:round;stroke-miterlimit:2;">
    <g transform="matrix(1,0,0,1,-66.7709,-320.907)">
        <g id="docker-icon-color" transform="matrix(1,0,0,1,-441.689,-149.963)">
            <rect x="508.459" y="470.871" width="210" height="152" style="fill:none;"/>
            <g transform="matrix(1,0,0,1,613.459,546.871)">
                <g transform="matrix(1,0,0,1,-105,-76)">
                    <g transform="matrix(0.86628,0,0,-0.86628,-45.8345,239.832)">
                        <g transform="matrix(1,0,0,1,0,2.30872)">
                            <path d="M292.132,207.986C291.479,208.511 285.379,213.112 272.522,213.112C269.308,213.112 265.916,212.82 262.392,212.241C259.907,229.298 245.829,237.606 245.175,237.983L241.718,239.973L239.443,236.698C239.273,236.454 235.271,230.63 233.308,222.342C231.003,212.612 232.403,203.472 237.348,195.651C231.376,192.328 221.842,191.46 219.861,191.436L61.266,191.436C57.128,191.436 53.746,188.074 53.73,183.942C53.669,169.355 56.073,155.26 60.682,143.181C66.148,128.856 74.279,118.309 84.848,111.835C96.698,104.575 115.992,100.413 137.782,100.413C147.978,100.413 158.139,101.333 167.167,103.073C181.396,105.818 194.313,110.507 205.557,117.01C215.383,122.696 224.224,129.935 231.736,138.447C244.306,152.661 251.79,168.535 257.356,182.585C258.095,182.554 258.834,182.539 259.574,182.539C273.333,182.539 281.79,188.038 286.463,192.652C291.53,197.655 293.333,202.645 293.522,203.197L294.506,206.079L292.132,207.986Z" style="fill:rgb(36,150,237);fill-rule:nonzero;"/>
                        </g>
                        <g transform="matrix(1,0,0,1,0,2.30872)">
                            <path d="M75.966,196.074L97.217,196.074C98.237,196.074 99.077,196.914 99.077,197.934L99.077,216.868C99.077,217.888 98.237,218.728 97.217,218.728L75.967,218.728C74.947,218.728 74.107,217.888 74.107,216.868L74.107,197.934C74.107,196.914 74.947,196.074 75.967,196.074M105.251,196.074L126.502,196.074C127.522,196.074 128.362,196.914 128.362,197.934L128.362,216.868C128.362,217.888 127.522,218.728 126.502,218.728L105.252,218.728C104.232,218.728 103.392,217.888 103.392,216.868L103.392,197.934C103.392,196.914 104.232,196.074 105.252,196.074M134.99,196.074L156.242,196.074C157.262,196.074 158.102,196.914 158.102,197.934L158.102,216.868C158.102,217.888 157.262,218.728 156.242,218.728L134.99,218.728C133.97,218.728 133.13,217.888 133.13,216.868L133.13,197.934C133.13,196.914 133.97,196.074 134.99,196.074M164.373,196.074L185.624,196.074C186.644,196.074 187.484,196.914 187.484,197.934L187.484,216.868C187.484,217.888 186.644,218.728 185.624,218.728L164.373,218.728C163.353,218.728 162.513,217.888 162.513,216.868L162.513,197.934C162.513,196.914 163.353,196.074 164.373,196.074M105.251,223.316L126.502,223.316C127.522,223.316 128.362,224.156 128.362,225.176L128.362,244.11C128.362,245.13 127.522,245.97 126.502,245.97L105.252,245.97C104.232,245.97 103.392,245.13 103.392,244.11L103.392,225.176C103.392,224.156 104.232,223.316 105.252,223.316M134.99,223.316L156.242,223.316C157.262,223.316 158.102,224.156 158.102,225.176L158.102,244.11C158.102,245.13 157.262,245.97 156.242,245.97L134.99,245.97C133.97,245.97 133.13,245.13 133.13,244.11L133.13,225.176C133.13,224.156 133.97,223.316 134.99,223.316M164.373,223.316L185.624,223.316C186.644,223.316 187.484,224.156 187.484,225.176L187.484,244.11C187.484,245.13 186.644,245.97 185.624,245.97L164.373,245.97C163.353,245.97 162.513,245.13 162.513,244.11L162.513,225.176C162.513,224.156 163.353,223.316 164.373,223.316M164.373,250.558L185.624,250.558C186.644,250.558 187.484,251.398 187.484,252.418L187.484,271.352C187.484,272.372 186.644,273.212 185.624,273.212L164.373,273.212C163.353,273.212 162.513,272.372 162.513,271.352L162.513,252.418C162.513,251.398 163.353,250.558 164.373,250.558M194.015,196.074L215.266,196.074C216.286,196.074 217.126,196.914 217.126,197.934L217.126,216.868C217.126,217.888 216.286,218.728 215.266,218.728L194.016,218.728C192.996,218.728 192.156,217.888 192.156,216.868L192.156,197.934C192.156,196.914 192.996,196.074 194.016,196.074" style="fill:rgb(36,150,237);fill-rule:nonzero;"/>
                        </g>
                    </g>
                </g>
            </g>
        </g>
    </g>
</svg>
