<?xml version="1.0" encoding="UTF-8"?>
<svg width="45px" height="64px" viewBox="0 0 45 64" version="1.1" xmlns="http://www.w3.org/2000/svg" xmlns:xlink="http://www.w3.org/1999/xlink">
    <!-- Generator: Sketch 60.1 (88133) - https://sketch.com -->
    <title>Path</title>
    <desc>Created with Sketch.</desc>
    <g id="Page-1" stroke="none" stroke-width="1" fill="none" fill-rule="evenodd">
        <g id="Artboard" transform="translate(-693.000000, -1067.000000)" fill="#6772E5" fill-rule="nonzero">
            <path d="M710.76,1086.03 C710.76,1083.29 713.04,1082.23 716.724,1082.23 C722.821181,1082.36173 728.804153,1083.90985 734.2,1086.752 L734.2,1070.212 C728.636065,1068.02543 722.701796,1066.93542 716.724,1067.002 C702.524,1067.002 693,1074.44 693,1086.86 C693,1106.292 719.684,1103.136 719.684,1111.512 C719.684,1114.788 716.884,1115.804 712.944,1115.804 C707.134,1115.804 699.63,1113.4 693.744,1110.2 L693.744,1126.956 C699.804019,1129.59278 706.33726,1130.9687 712.946,1131 C727.54,1131 737.6,1123.79 737.6,1111.154 C737.6,1090.182 710.76,1093.928 710.76,1086.034 L710.76,1086.03 Z" id="Path"></path>
        </g>
    </g>
</svg>