<?xml version="1.0" encoding="UTF-8" standalone="no"?>
<!DOCTYPE svg PUBLIC "-//W3C//DTD SVG 1.1//EN" "http://www.w3.org/Graphics/SVG/1.1/DTD/svg11.dtd">
<svg width="100%" height="100%" viewBox="0 0 133 36" version="1.1" xmlns="http://www.w3.org/2000/svg" xmlns:xlink="http://www.w3.org/1999/xlink" xml:space="preserve" xmlns:serif="http://www.serif.com/" style="fill-rule:evenodd;clip-rule:evenodd;stroke-linejoin:round;stroke-miterlimit:2;">
    <g transform="matrix(1,0,0,1,-111,0)">
        <g id="amazon-eks-horizontal-color" transform="matrix(1,0,0,1,-0.819274,52.9039)">
            <rect x="111.819" y="-52.904" width="132.306" height="35.952" style="fill:none;"/>
            <g transform="matrix(0.905585,0,0,0.905585,177.972,-34.9281)">
                <g transform="matrix(1,0,0,1,-73.05,-19.85)">
                    <g transform="matrix(1,0,0,1,13.0156,-10.15)">
                        <g>
                            <g transform="matrix(1.61459,0,0,1.61459,-49.5889,-18.4509)">
                                <path d="M51.189,31.018L53.867,31.018L52.522,27.121L51.189,31.018ZM54.914,34.22L54.207,32.101L50.835,32.101L50.153,34.22L48.666,34.22L51.753,25.781L53.36,25.781L56.4,34.22L54.914,34.22M64.974,34.22L64.974,30.019C64.974,29.646 64.901,29.378 64.755,29.216C64.609,29.053 64.368,28.972 64.037,28.972C63.785,28.972 63.517,29.014 63.233,29.1C62.972,29.175 62.723,29.283 62.49,29.422L62.49,34.22L61.053,34.22L61.053,30.019C61.053,29.646 60.98,29.378 60.834,29.216C60.688,29.053 60.447,28.972 60.116,28.972C59.858,28.976 59.602,29.015 59.355,29.089C59.083,29.165 58.823,29.277 58.581,29.423L58.581,34.221L57.144,34.221L57.144,28.024L58.338,28.024L58.471,28.645C58.876,28.369 59.26,28.167 59.62,28.037C59.97,27.91 60.338,27.844 60.71,27.843C61.465,27.843 61.985,28.122 62.258,28.683C63.07,28.122 63.85,27.843 64.596,27.843C65.171,27.843 65.619,27.997 65.936,28.311C66.253,28.625 66.411,29.076 66.411,29.671L66.411,34.226L64.974,34.226M69.847,33.379C70.077,33.379 70.318,33.329 70.571,33.226C70.838,33.118 71.086,32.968 71.307,32.784L71.307,31.615C70.887,31.526 70.516,31.482 70.202,31.482C69.378,31.482 68.967,31.81 68.967,32.468C68.967,32.752 69.044,32.973 69.205,33.131C69.365,33.289 69.581,33.369 69.868,33.369L69.847,33.379ZM71.49,34.219L71.379,33.622C71.099,33.864 70.78,34.057 70.436,34.195C70.09,34.333 69.747,34.401 69.408,34.401C68.84,34.401 68.38,34.231 68.026,33.89C67.673,33.548 67.496,33.116 67.496,32.563C67.496,31.963 67.712,31.484 68.159,31.126C68.606,30.768 69.176,30.59 69.906,30.59C70.348,30.59 70.807,30.651 71.318,30.772L71.318,30.054C71.318,29.639 71.23,29.352 71.051,29.189C70.872,29.027 70.56,28.946 70.113,28.946C69.48,28.946 68.754,29.079 67.933,29.347L67.933,28.337C68.239,28.182 68.613,28.06 69.055,27.972C69.494,27.884 69.94,27.84 70.388,27.839C71.198,27.839 71.795,28.002 72.178,28.326C72.562,28.65 72.755,29.158 72.755,29.848L72.755,34.22L71.501,34.22M73.679,34.22L73.679,33.159L77.139,29.116L73.794,29.116L73.794,28.011L78.676,28.011L78.676,29.07L75.218,33.112L78.714,33.112L78.714,34.218L73.683,34.218M82.314,33.269C83.337,33.269 83.849,32.551 83.849,31.114C83.849,29.685 83.337,28.971 82.314,28.971C81.292,28.971 80.78,29.685 80.78,31.114C80.78,32.551 81.292,33.269 82.314,33.269ZM82.314,34.403C81.373,34.403 80.637,34.113 80.11,33.531C79.583,32.95 79.321,32.147 79.321,31.114C79.321,30.08 79.584,29.279 80.112,28.704C80.641,28.129 81.375,27.839 82.317,27.839C83.259,27.839 83.993,28.127 84.521,28.704C85.049,29.281 85.313,30.086 85.313,31.114C85.313,32.142 85.047,32.951 84.521,33.531C83.995,34.112 83.259,34.403 82.317,34.403M90.608,34.22L90.608,30.117C90.608,29.719 90.527,29.429 90.365,29.246C90.202,29.062 89.942,28.971 89.585,28.971C89.049,28.971 88.502,29.148 87.941,29.506L87.941,34.219L86.504,34.219L86.504,28.021L87.698,28.021L87.844,28.703C88.618,28.128 89.392,27.838 90.232,27.838C90.824,27.838 91.275,27.993 91.584,28.307C91.892,28.621 92.048,29.072 92.048,29.667L92.048,34.221L90.611,34.221M94.93,34.22L94.93,25.78L99.911,25.78L99.911,26.425L95.649,26.425L95.649,29.521L99.302,29.521L99.302,30.166L95.649,30.166L95.649,33.563L99.911,33.563L99.911,34.209L94.93,34.209M101.348,34.209L101.348,25.78L102.067,25.78L102.067,29.689L105.94,25.78L106.866,25.78L102.773,29.896L107.195,34.207L106.208,34.207L102.056,30.164L102.056,34.207L101.337,34.207M109.533,29.959C108.909,29.715 108.45,29.425 108.157,29.089C107.864,28.752 107.718,28.337 107.718,27.839C107.718,27.176 107.959,26.62 108.442,26.201C108.925,25.782 109.561,25.574 110.348,25.574C110.727,25.577 111.105,25.62 111.475,25.702C111.868,25.788 112.24,25.908 112.589,26.062L112.589,26.683C111.76,26.391 111.026,26.244 110.385,26.244C109.759,26.244 109.279,26.38 108.947,26.653C108.616,26.926 108.448,27.313 108.448,27.816C108.448,28.1 108.499,28.33 108.6,28.504C108.702,28.677 108.868,28.835 109.1,28.979C109.332,29.123 109.662,29.274 110.093,29.436L111.397,29.935C111.983,30.162 112.408,30.441 112.676,30.769C112.945,31.097 113.078,31.51 113.078,32.005C113.099,32.681 112.804,33.33 112.28,33.758C111.75,34.205 111.048,34.428 110.18,34.428C109.279,34.428 108.475,34.258 107.77,33.917L107.77,33.296C108.621,33.605 109.406,33.76 110.12,33.76C110.784,33.76 111.332,33.602 111.734,33.285C112.137,32.968 112.337,32.538 112.337,31.994C112.343,31.677 112.225,31.371 112.007,31.141C111.789,30.906 111.435,30.695 110.948,30.508L109.536,29.96" style="fill:rgb(35,42,58);fill-rule:nonzero;"/>
                            </g>
                            <g transform="matrix(0.04322,0,0,-0.04322,-23.1201,60.1246)">
                                <clipPath id="_clip1">
                                    <path d="M555.71,840.593L593.257,840.593L593.257,729.852L701.372,840.593L750.937,840.593L632.306,718.582L758.437,577.795L710.39,577.795L593.258,709.191L593.258,577.795L555.713,577.795L555.71,840.593Z"/>
                                </clipPath>
                                <g clip-path="url(#_clip1)">
                                    <path d="M555.71,840.593L593.257,840.593L593.257,729.852L701.372,840.593L750.937,840.593L632.306,718.582L758.437,577.795L710.39,577.795L593.258,709.191L593.258,577.795L555.713,577.795L555.713,840.594" style="fill:url(#_Linear2);fill-rule:nonzero;"/>
                                </g>
                                <clipPath id="_clip3">
                                    <path d="M673.317,944.887L858.225,838.132C861.372,836.309 863.317,832.938 863.32,829.3L863.32,615.785C863.32,612.145 865.277,608.777 868.427,606.955L1033.44,511.681C1040.24,507.751 1048.74,512.676 1048.74,520.511L1048.74,936.359C1048.74,939.999 1046.79,943.363 1043.65,945.189L683.533,1153.11C676.731,1157.03 668.22,1152.11 668.22,1144.26L668.22,953.718C668.22,950.07 670.168,946.714 673.327,944.887L673.317,944.887Z"/>
                                </clipPath>
                                <g clip-path="url(#_clip3)">
                                    <path d="M673.317,944.887L858.225,838.132C861.372,836.309 863.317,832.938 863.32,829.3L863.32,615.785C863.32,612.145 865.277,608.777 868.427,606.955L1033.44,511.681C1040.24,507.751 1048.74,512.676 1048.74,520.511L1048.74,936.359C1048.74,939.999 1046.79,943.363 1043.65,945.189L683.533,1153.11C676.731,1157.03 668.22,1152.11 668.22,1144.26L668.22,953.718C668.22,950.07 670.168,946.714 673.327,944.887" style="fill:url(#_Linear4);fill-rule:nonzero;"/>
                                </g>
                                <clipPath id="_clip5">
                                    <path d="M832.423,562.269L647.515,455.514C644.365,453.688 640.468,453.688 637.316,455.514L426.607,577.167C423.454,578.992 421.505,582.368 421.5,586.011L421.5,829.321C421.507,832.961 423.457,836.332 426.608,838.153L611.517,944.902C614.669,946.718 616.619,950.09 616.621,953.728L616.621,1144.28C616.621,1152.12 608.114,1157.03 601.313,1153.12L241.191,945.189C238.038,943.363 236.105,939.999 236.105,936.359L236.105,478.948C236.105,475.3 238.049,471.944 241.191,470.104L637.316,241.413C640.467,239.586 644.364,239.586 647.515,241.413L1007.64,449.323C1014.44,453.252 1014.44,463.068 1007.64,466.993L842.627,562.269C839.462,564.096 835.576,564.096 832.423,562.269Z"/>
                                </clipPath>
                                <g clip-path="url(#_clip5)">
                                    <path d="M832.423,562.269L647.515,455.514C644.365,453.688 640.468,453.688 637.316,455.514L426.607,577.167C423.454,578.992 421.505,582.368 421.5,586.011L421.5,829.321C421.507,832.961 423.457,836.332 426.608,838.153L611.517,944.902C614.669,946.718 616.619,950.09 616.621,953.728L616.621,1144.28C616.621,1152.12 608.114,1157.03 601.313,1153.12L241.191,945.189C238.038,943.363 236.105,939.999 236.105,936.359L236.105,478.948C236.105,475.3 238.049,471.944 241.191,470.104L637.316,241.413C640.467,239.586 644.364,239.586 647.515,241.413L1007.64,449.323C1014.44,453.252 1014.44,463.068 1007.64,466.993L842.627,562.269C839.462,564.096 835.576,564.096 832.423,562.269" style="fill:url(#_Linear6);fill-rule:nonzero;"/>
                                </g>
                            </g>
                        </g>
                    </g>
                </g>
            </g>
        </g>
    </g>
    <defs>
        <linearGradient id="_Linear2" x1="0" y1="0" x2="1" y2="0" gradientUnits="userSpaceOnUse" gradientTransform="matrix(-161.295,265.77,-265.77,-161.295,728.973,584.55)"><stop offset="0" style="stop-color:rgb(79,102,185);stop-opacity:1"/><stop offset="1" style="stop-color:rgb(72,79,171);stop-opacity:1"/></linearGradient>
        <linearGradient id="_Linear4" x1="0" y1="0" x2="1" y2="0" gradientUnits="userSpaceOnUse" gradientTransform="matrix(-365.622,629.53,-629.53,-365.622,1088.98,547.15)"><stop offset="0" style="stop-color:rgb(79,102,185);stop-opacity:1"/><stop offset="1" style="stop-color:rgb(72,79,171);stop-opacity:1"/></linearGradient>
        <linearGradient id="_Linear6" x1="0" y1="0" x2="1" y2="0" gradientUnits="userSpaceOnUse" gradientTransform="matrix(-398.654,703.83,-703.83,-398.654,725.572,289.976)"><stop offset="0" style="stop-color:rgb(76,104,187);stop-opacity:1"/><stop offset="1" style="stop-color:rgb(81,128,201);stop-opacity:1"/></linearGradient>
    </defs>
</svg>
