<?xml version="1.0" encoding="UTF-8" standalone="no"?>
<!DOCTYPE svg PUBLIC "-//W3C//DTD SVG 1.1//EN" "http://www.w3.org/Graphics/SVG/1.1/DTD/svg11.dtd">
<svg width="100%" height="100%" viewBox="0 0 310 85" version="1.1" xmlns="http://www.w3.org/2000/svg" xmlns:xlink="http://www.w3.org/1999/xlink" xml:space="preserve" xmlns:serif="http://www.serif.com/" style="fill-rule:evenodd;clip-rule:evenodd;stroke-linejoin:round;stroke-miterlimit:2;">
    <g transform="matrix(1,0,0,1,0,-242.087)">
        <g id="ceph-horizontal-black" transform="matrix(1.00032,0,0,1.00212,-51.5166,-272.968)">
            <rect x="51.5" y="513.965" width="309.9" height="84.82" style="fill:none;"/>
            <g transform="matrix(0.999677,0,0,0.997882,206.45,556.375)">
                <g transform="matrix(1,0,0,1,-155,-42.5)">
                    <clipPath id="_clip1">
                        <rect x="0" y="0" width="310" height="85"/>
                    </clipPath>
                    <g clip-path="url(#_clip1)">
                        <g transform="matrix(1,0,0,1,0.05,0.09)">
                            <path d="M43.19,0C37.36,0 31.71,1.14 26.38,3.395C21.246,5.56 16.582,8.703 12.65,12.65C8.707,16.586 5.563,21.249 3.392,26.38C1.143,31.698 -0.011,37.416 0,43.19C0,46.52 0.377,49.84 1.13,53.06C1.864,56.195 2.947,59.237 4.36,62.13C6.96,67.45 11.18,72.76 15.95,76.74C19.06,75.04 20.82,73.16 21.19,71.16C21.56,69.23 20.71,67.16 18.53,64.64C13.36,58.71 10.52,51.09 10.52,43.19C10.52,25.18 25.17,10.52 43.19,10.52L43.49,10.52C61.5,10.52 76.16,25.18 76.16,43.19C76.16,51.09 73.31,58.71 68.15,64.63C65.99,67.14 65.12,69.3 65.49,71.24C65.88,73.25 67.65,75.1 70.73,76.74C75.5,72.77 79.72,67.46 82.32,62.13C83.73,59.24 84.82,56.19 85.55,53.06C86.3,49.84 86.68,46.52 86.68,43.19C86.68,37.37 85.54,31.71 83.28,26.38C81.112,21.249 77.971,16.586 74.03,12.65C70.094,8.707 65.431,5.564 60.3,3.395C54.982,1.145 49.264,-0.01 43.49,0L43.19,0ZM43.19,17.47C41.97,17.47 40.75,17.57 39.56,17.72C36.05,18.22 32.61,19.48 29.6,21.35C26.708,23.16 24.2,25.522 22.22,28.3C20.19,31.173 18.764,34.429 18.03,37.87C17.25,41.58 17.3,45.48 18.17,49.16C18.98,52.54 20.5,55.8 22.58,58.57C23.14,59.32 23.76,60.01 24.42,60.73L25.09,61.46L25.19,61.56C27.48,64.22 28.65,67.09 28.65,70.08C28.65,74.6 26.14,78.75 22.19,80.88C24.48,82.15 26.9,83.22 29.38,84.05C30.21,84.32 31.05,84.58 31.89,84.8C32.39,84.49 34.1,83.21 35.78,80.89C37.38,78.68 39.27,75.01 39.17,70.09C39.07,67.14 38.51,64.25 37.4,61.53C36.3,58.84 34.72,56.37 32.7,54.19L32.25,53.68C31.49,52.8 30.71,51.89 30.08,50.82C29.3,49.51 28.74,48.13 28.41,46.72C27.892,44.527 27.858,42.247 28.31,40.04C28.747,38.009 29.59,36.086 30.79,34.39C31.95,32.76 33.46,31.34 35.16,30.28C36.93,29.17 38.96,28.43 41.04,28.14C41.73,28.04 42.46,27.99 43.18,27.99L43.49,27.99C44.22,27.99 44.94,28.09 45.64,28.14C47.72,28.43 49.75,29.17 51.52,30.28C53.22,31.34 54.73,32.76 55.89,34.39C57.087,36.087 57.927,38.009 58.36,40.04C58.83,42.23 58.8,44.54 58.26,46.72C57.93,48.13 57.36,49.51 56.59,50.82C55.96,51.89 55.18,52.8 54.42,53.68L53.97,54.19C51.95,56.37 50.37,58.84 49.27,61.53C48.154,64.249 47.554,67.152 47.5,70.09C47.4,75.01 49.29,78.68 50.89,80.89C52.56,83.21 54.28,84.49 54.78,84.8C55.62,84.58 56.46,84.32 57.29,84.05C59.77,83.22 62.19,82.15 64.48,80.88C60.53,78.75 58.02,74.6 58.02,70.08C58.02,67.13 59.15,64.35 61.47,61.57C61.47,61.47 61.57,61.47 61.57,61.46L62.24,60.73C62.9,60.01 63.52,59.32 64.08,58.57C66.16,55.8 67.68,52.54 68.49,49.16C69.36,45.48 69.41,41.58 68.63,37.87C67.91,34.46 66.46,31.15 64.44,28.3C62.46,25.522 59.952,23.16 57.06,21.35C54.025,19.468 50.634,18.232 47.1,17.72C45.897,17.551 44.684,17.468 43.47,17.47L43.15,17.47L43.19,17.47ZM43.35,35.08C38.65,35.08 34.82,38.9 34.82,43.6C34.82,48.31 38.65,52.13 43.35,52.13C48.05,52.13 51.87,48.31 51.87,43.6C51.87,38.9 48.05,35.08 43.35,35.08ZM306.9,21.56C304.9,19.55 302.4,18.45 297.6,18.45L289.1,18.45C284.7,18.45 282.4,19.46 275.6,25.05L275.6,4.472C272.379,2.674 268.907,1.37 265.3,0.602L265.2,0.602L265.2,72.6L275.6,72.6L275.6,30.73C276.3,30.35 277.1,30.1 277.7,29.72C280.6,28.46 283,27.82 285.7,27.82L292.8,27.82C296.2,27.82 297.2,28.2 298.3,29.22C299.3,30.23 299.7,31.87 299.7,34.53L299.7,72.6L310.1,72.6L310.1,33.77C310.1,26.31 309.1,23.64 306.9,21.54M244.6,62.11C243.7,62.99 242.4,63.37 239.1,63.37L231.3,63.37C228.1,63.37 225.3,62.48 221.4,60.59C221.3,60.46 221,60.33 220.8,60.21L220.8,30.73C224.8,28.71 227.6,27.82 230.9,27.82L239.1,27.82C242.4,27.82 243.7,28.2 244.6,29.09C246.1,30.61 246.5,33.52 246.5,45.53C246.5,57.68 246.1,60.59 244.6,62.11ZM241.5,18.45L234.3,18.45C229.8,18.45 227.6,19.46 220.8,25.05L220.8,18.56L210.4,18.56L210.4,84.5L220.8,84.5L220.8,66.15C227.6,71.72 229.8,72.73 234.3,72.73L241.5,72.73C247.3,72.73 250.3,71.72 252.5,69.44C255.4,66.53 256.8,62.36 256.8,45.53C256.8,28.71 255.4,24.66 252.5,21.76C250.3,19.46 247.3,18.45 241.5,18.45M168.9,40.73L193.6,40.73C193.6,31.62 192.9,29.59 192.1,28.71C191.4,28.08 190.5,27.7 187.4,27.7L175,27.7C171.9,27.7 171.2,27.95 170.3,28.71C169.4,29.72 169,31.49 168.9,40.73ZM168.9,48.95C169,59.58 169.7,61.73 170.4,62.48C171.2,63.24 171.9,63.5 175,63.5L189,63.5C191.3,63.5 192.1,63.12 192.7,62.48C193.3,61.73 193.6,60.59 193.7,55.78L203.8,55.78C203.7,64.13 202.8,67.17 200.2,69.95C198.4,71.59 196.1,72.6 191.3,72.6L173.8,72.6C168.5,72.6 165.4,71.72 163.1,69.44C159.7,66.03 158.7,61.73 158.7,45.53C158.7,29.34 159.7,25.15 163.1,21.66C165.4,19.46 168.5,18.56 173.8,18.56L188.6,18.56C194,18.56 197.4,19.55 199.4,21.56C202.8,25.05 203.8,29.22 203.8,45.03L203.8,47.81C203.8,48.57 203.6,48.95 202.7,48.95L168.9,48.95M151.3,52.87C151.3,64.13 150.3,67.17 147.7,69.95C146,71.47 143.5,72.6 138.8,72.6L122.4,72.6C117,72.6 113.8,71.72 111.6,69.44C108.1,66.03 107.1,61.73 107.1,45.53C107.1,29.34 108.1,25.15 111.6,21.66C113.8,19.46 117,18.56 122.4,18.56L138.7,18.56C143.6,18.56 145.8,19.55 147.5,21.26C150.1,23.86 151.1,27.44 151.1,37.56L141,37.56C140.8,30.61 140.5,29.34 139.8,28.71C139.2,28.2 138.4,27.82 136.2,27.82L123.6,27.82C120.5,27.82 119.7,28.2 118.9,28.84C118.1,29.85 117.6,31.75 117.6,45.53C117.6,59.32 118.1,61.22 118.9,62.23C119.7,62.99 120.5,63.24 123.6,63.24L136.2,63.24C138.4,63.24 139.4,63.12 140.1,62.36C140.8,61.73 141.2,59.7 141.2,52.87L151.3,52.87" style="fill-rule:nonzero;"/>
                        </g>
                    </g>
                </g>
            </g>
        </g>
    </g>
</svg>
