<?xml version="1.0" encoding="UTF-8" standalone="no"?>
<!DOCTYPE svg PUBLIC "-//W3C//DTD SVG 1.1//EN" "http://www.w3.org/Graphics/SVG/1.1/DTD/svg11.dtd">
<svg width="100%" height="100%" viewBox="0 0 103 142" version="1.1" xmlns="http://www.w3.org/2000/svg" xmlns:xlink="http://www.w3.org/1999/xlink" xml:space="preserve" xmlns:serif="http://www.serif.com/" style="fill-rule:evenodd;clip-rule:evenodd;stroke-linejoin:round;stroke-miterlimit:2;">
    <g id="ceph-stacked-color" transform="matrix(1,0,0,1.00212,210.753,-572.727)">
        <rect x="-210.753" y="571.518" width="103" height="141.7" style="fill:none;"/>
        <g transform="matrix(1,0,0,0.997887,-159.253,642.368)">
            <g transform="matrix(1,0,0,1,-51.5,-71)">
                <clipPath id="_clip1">
                    <rect x="0" y="0" width="103" height="142"/>
                </clipPath>
                <g clip-path="url(#_clip1)">
                    <g id="g3031" transform="matrix(1.25,0,0,-1.25,-4.02627,146.871)">
                        <g id="path3043" transform="matrix(0.1,0,0,0.1,-0.0112641,-0.00097525)">
                            <path d="M666.264,551.168C641.27,564.466 626.994,579.454 623.835,595.728C620.788,611.486 627.817,629.012 645.345,649.324C687.233,697.381 710.305,759.117 710.305,823.171C710.305,969.24 591.462,1088.1 445.378,1088.1C445.14,1088.1 444.209,1088.08 444.209,1088.08C444.209,1088.08 443.256,1088.1 443.006,1088.1C296.917,1088.1 178.091,969.24 178.091,823.171C178.091,759.117 201.158,697.381 243.061,649.303C260.72,628.856 267.58,612.04 264.652,596.425C261.612,580.168 247.304,564.972 222.09,551.188C183.43,583.411 149.243,626.461 128.154,669.64C116.717,693.073 107.913,717.82 101.977,743.19C95.866,769.266 92.804,796.177 92.804,823.171C92.804,870.412 102.048,916.298 120.316,959.508C137.972,1001.2 163.208,1038.66 195.379,1070.8C227.513,1102.96 264.975,1128.2 306.677,1145.85C349.878,1164.12 395.74,1173.37 443.006,1173.37L445.378,1173.37C492.644,1173.37 538.513,1164.12 581.72,1145.85C623.409,1128.2 660.868,1102.96 693.017,1070.8C725.16,1038.66 750.42,1001.2 768.067,959.508C786.337,916.298 795.601,870.412 795.601,823.171C795.601,796.177 792.507,769.266 786.414,743.19C780.483,717.82 771.675,693.073 760.223,669.64C739.135,626.444 704.977,583.398 666.264,551.168" style="fill:rgb(240,92,86);fill-rule:nonzero;"/>
                        </g>
                        <g id="path3045" transform="matrix(0.1,0,0,0.1,-0.0112641,-0.00097525)">
                            <path d="M537.041,485.646C532.971,488.206 519.067,498.55 505.513,517.327C492.511,535.27 477.212,565.035 478.012,604.896C478.513,628.887 483.323,652.247 492.336,674.302C501.283,696.167 514.114,716.203 530.459,733.831L530.559,733.965C531.762,735.365 532.954,736.758 534.17,738.138C540.339,745.296 546.714,752.685 551.798,761.332C558.068,771.962 562.631,783.132 565.345,794.559C569.52,812.206 569.766,830.938 566.029,848.708C562.581,865.045 555.635,880.876 545.936,894.524C536.54,907.748 524.302,919.284 510.528,927.873C496.172,936.841 479.68,942.843 462.881,945.225C457.194,946.04 451.333,946.457 445.446,946.457L442.933,946.457C437.058,946.457 431.185,946.04 425.515,945.225C408.726,942.843 392.237,936.841 377.865,927.873C364.093,919.284 351.831,907.748 342.442,894.524C332.746,880.876 325.832,865.045 322.354,848.708C318.628,830.938 318.853,812.206 323.059,794.559C325.762,783.132 330.326,771.962 336.582,761.332C341.693,752.685 348.058,745.296 354.229,738.138C355.442,736.758 356.623,735.365 357.849,733.965L357.922,733.831C374.295,716.203 387.113,696.167 396.061,674.302C405.068,652.247 409.895,628.887 410.372,604.896C411.182,565.035 395.88,535.27 382.893,517.327C369.312,498.55 355.419,488.206 351.345,485.646C344.527,487.469 337.726,489.518 331.041,491.757C310.917,498.505 291.318,507.139 272.693,517.475C304.711,534.7 325.06,568.328 325.06,604.976C325.06,629.227 315.634,652.49 297.05,674.086C296.774,674.415 296.488,674.681 296.275,674.896C296.237,674.951 296.177,674.984 296.132,675.044C294.306,677.075 292.499,679.059 290.721,680.99C285.382,686.853 280.322,692.393 275.803,698.459C258.941,720.979 246.589,747.389 240.069,774.819C232.983,804.644 232.586,836.279 238.916,866.303C244.741,893.984 256.514,920.831 272.919,943.928C288.79,966.274 309.475,985.751 332.733,1000.25C357.099,1015.45 385.029,1025.62 413.493,1029.67C423.133,1031.06 433.008,1031.73 442.873,1031.73L445.506,1031.73C455.373,1031.73 465.276,1031.06 474.902,1029.67C503.377,1025.62 531.291,1015.45 555.66,1000.25C578.918,985.751 599.611,966.274 615.484,943.928C631.879,920.831 643.652,893.984 649.501,866.303C655.807,836.279 655.401,804.644 648.334,774.819C641.797,747.389 629.46,720.979 612.576,698.459C608.049,692.393 603.009,686.853 597.65,680.99C595.895,679.059 594.095,677.075 592.264,675.044C592.201,674.997 592.159,674.951 592.096,674.896C591.883,674.681 591.582,674.402 591.324,674.043C572.487,651.5 563.321,628.899 563.321,604.976C563.321,568.328 583.671,534.7 615.723,517.475C597.091,507.139 577.489,498.505 557.365,491.757C550.683,489.518 543.854,487.469 537.041,485.646" style="fill:rgb(240,92,86);fill-rule:nonzero;"/>
                        </g>
                        <g id="path3047" transform="matrix(0.1,0,0,0.1,-0.0112641,-0.00097525)">
                            <path d="M444.184,750.695C406.069,750.695 375.042,781.714 375.042,819.839C375.042,857.971 406.069,888.99 444.184,888.99C482.3,888.99 513.312,857.971 513.312,819.839C513.312,781.714 482.3,750.695 444.184,750.695" style="fill:rgb(240,92,86);fill-rule:nonzero;"/>
                        </g>
                        <g id="path3049" transform="matrix(0.1,0,0,0.1,-0.0112641,-0.00097525)">
                            <path d="M211.643,168.267C211.643,122.764 207.568,110.183 196.607,99.205C190.112,92.708 179.949,88.247 160.848,88.247L93.828,88.247C72.297,88.247 59.313,91.905 50.363,100.83C36.16,115.056 32.098,132.117 32.098,197.912C32.098,263.717 36.16,280.787 50.363,294.995C59.313,303.93 72.297,307.575 93.828,307.575L160.455,307.575C180.343,307.575 189.278,303.53 196.188,296.612C206.743,286.058 210.818,271.433 210.818,230.421L169.798,230.421C168.976,258.852 167.356,263.717 164.911,266.157C162.469,268.59 159.226,269.811 149.885,269.811L99.109,269.811C86.523,269.811 83.273,268.59 80.434,265.746C76.372,261.696 74.336,253.972 74.336,197.912C74.336,141.869 76.372,134.146 80.434,130.084C83.273,127.24 86.523,126.019 99.109,126.019L150.282,126.019C159.226,126.019 163.304,126.829 166.127,129.672C168.976,132.524 170.606,140.651 170.606,168.267L211.643,168.267" style="fill:rgb(51,60,70);fill-rule:nonzero;"/>
                        </g>
                        <g id="path3051" transform="matrix(0.1,0,0,0.1,-0.0112641,-0.00097525)">
                            <path d="M283.133,217.825L383.051,217.825C383.051,254.782 380.606,262.91 376.972,266.568C374.517,269 370.874,270.618 358.291,270.618L307.906,270.618C295.319,270.618 292.07,269.399 288.815,266.157C285.156,262.491 283.549,255.198 283.133,217.825ZM283.133,184.102C283.549,141.055 285.969,132.524 289.231,129.274C292.486,126.019 295.319,125.204 307.906,125.204L364.773,125.204C374.124,125.204 376.972,126.829 379.415,129.274C382.239,132.117 383.051,136.99 383.884,156.486L424.893,156.486C424.086,122.373 420.831,110.183 409.857,99.205C402.959,92.299 393.618,88.247 374.124,88.247L303.043,88.247C281.51,88.247 268.513,91.905 259.576,100.83C245.348,115.056 241.31,132.117 241.31,197.912C241.31,263.717 245.348,280.787 259.576,294.995C268.513,303.93 281.51,307.575 303.043,307.575L363.153,307.575C384.694,307.575 398.493,303.53 406.63,295.403C420.831,281.185 424.893,264.116 424.893,199.941L424.893,188.975C424.893,185.74 423.679,184.102 420.011,184.102L283.133,184.102" style="fill:rgb(51,60,70);fill-rule:nonzero;"/>
                        </g>
                        <g id="path3053" transform="matrix(0.1,0,0,0.1,-0.0112641,-0.00097525)">
                            <path d="M590.24,130.891C586.592,127.24 581.288,125.615 567.91,125.615L536.206,125.615C523.204,125.615 511.908,129.281 496.398,137.17C495.453,137.652 494.55,138.1 493.559,138.602L493.559,258.037C509.814,266.157 521.181,270.214 534.597,270.214L567.91,270.214C581.288,270.214 586.592,268.59 590.24,264.938C596.327,258.852 597.957,247.079 597.957,197.912C597.957,148.75 596.327,136.99 590.24,130.891ZM578.034,308.007L548.406,308.007C530.113,308.007 521.181,303.93 493.559,281.185L493.559,307.575L451.321,307.575L451.321,39.754L493.559,39.754L493.559,114.233C521.181,91.905 530.113,87.843 548.406,87.843L578.034,87.843C601.618,87.843 613.391,91.905 622.731,101.233C634.5,113.019 640.197,129.672 640.197,197.912C640.197,266.157 634.5,282.823 622.731,294.588C613.391,303.93 601.618,308.007 578.034,308.007" style="fill:rgb(51,60,70);fill-rule:nonzero;"/>
                        </g>
                        <g id="path3055" transform="matrix(0.1,0,0,0.1,-0.0112641,-0.00097525)">
                            <path d="M843.31,295.403C835.183,303.53 824.63,308.007 805.532,308.007L771.014,308.007C752.731,308.007 743.802,303.93 716.166,281.185L716.166,364.786C703.057,371.983 689.371,377.259 674.227,380.507C674.118,380.502 674.037,380.436 673.925,380.399L673.925,88.247L716.166,88.247L716.166,258.037C719.26,259.584 722.149,260.931 724.935,262.182C736.792,267.506 746.344,270.214 757.193,270.214L785.631,270.214C799.844,270.214 803.908,268.59 808.376,264.116C812.439,260.059 814.057,253.569 814.057,243.001L814.057,88.247L856.323,88.247L856.323,245.845C856.323,276.313 851.842,286.872 843.31,295.403" style="fill:rgb(51,60,70);fill-rule:nonzero;"/>
                        </g>
                    </g>
                </g>
            </g>
        </g>
    </g>
</svg>
