<?xml version="1.0" encoding="iso-8859-1"?>
<!-- Generator: Adobe Illustrator 24.2.1, SVG Export Plug-In . SVG Version: 6.00 Build 0)  -->
<svg version="1.1" id="_x30_1" xmlns="http://www.w3.org/2000/svg" xmlns:xlink="http://www.w3.org/1999/xlink" x="0px" y="0px"
	 width="265px" height="135px" viewBox="0 0 265 135" enable-background="new 0 0 265 135" xml:space="preserve">
<g>
	<g>
		<polygon id="XMLID_6_" fill="#F69421" points="65.31,69.727 119.563,38.397 65.311,7.067 11.045,38.405 		"/>
		<g>
			<g>
				<path fill="#FFFFFF" d="M89.429,55.625c-0.132-0.262-0.269-0.521-0.408-0.776c-2.661-4.871-6.665-8.713-11.58-11.11
					c-12.817-6.251-28.828-0.923-36.446,12.131l-1.317-0.769c8.018-13.739,24.899-19.332,38.431-12.732
					c5.201,2.536,9.437,6.599,12.25,11.749c0.157,0.288,0.311,0.582,0.46,0.878L89.429,55.625z"/>
			</g>
			<g>
				<path fill="#FFFFFF" d="M102.846,47.693c-0.289-0.355-0.587-0.72-0.813-1.086c-4.437-7.177-10.298-12.577-17.422-16.051
					c-20.377-9.937-45.41-2.214-56.989,17.582l-1.317-0.77c11.981-20.479,37.884-28.467,58.975-18.183
					c7.387,3.603,13.46,9.194,18.05,16.619c0.174,0.281,0.429,0.594,0.698,0.925L102.846,47.693z"/>
			</g>
		</g>
		<g id="XMLID_5_">
			<path fill="#FFFFFF" d="M65.31,70.485c-0.131,0-0.261-0.034-0.379-0.101L10.667,39.061c-0.234-0.135-0.379-0.385-0.379-0.656
				c0-0.27,0.144-0.521,0.379-0.656L64.932,6.411c0.234-0.135,0.523-0.135,0.757,0l54.253,31.33
				c0.234,0.135,0.379,0.385,0.379,0.656s-0.144,0.521-0.379,0.656l-54.253,31.33C65.571,70.451,65.44,70.485,65.31,70.485z
				 M12.56,38.405L65.31,68.853l52.739-30.455L65.311,7.942L12.56,38.405z"/>
		</g>
	</g>
	<g>
		<polygon fill="#08B1D5" points="65.796,133.242 11.049,101.642 11.049,38.406 65.796,70.022 		"/>
		<g>
			<g>
				<path fill="#FFFFFF" d="M67.627,114.873c-31.155-9.281-49.72-39.593-41.386-67.57l0.066-0.2l1.46,0.441l-0.065,0.197
					c-8.094,27.167,10.011,56.629,40.36,65.671L67.627,114.873z"/>
			</g>
			<g>
				<path fill="#FFFFFF" d="M41.382,55.718c-1.284,7.677,0.271,15.794,4.454,22.784c5.392,9.009,14.487,15.229,25.609,17.513
					l-0.307,1.494c-11.546-2.372-20.997-8.844-26.611-18.225c-4.438-7.415-6.043-16.05-4.585-24.192L41.382,55.718z"/>
			</g>
		</g>
		<g>
			<path fill="#FFFFFF" d="M65.796,134c-0.131,0-0.261-0.034-0.379-0.101L10.67,102.298c-0.234-0.135-0.379-0.385-0.379-0.656
				V38.406c0-0.271,0.144-0.521,0.379-0.656c0.234-0.135,0.523-0.135,0.757,0l54.747,31.615c0.234,0.135,0.379,0.385,0.379,0.656
				v63.221c0,0.271-0.144,0.521-0.379,0.656C66.057,133.966,65.926,134,65.796,134z M11.806,101.204l53.232,30.726V70.459
				l-53.232-30.74V101.204z"/>
		</g>
	</g>
	<g>
		<polygon fill="#0D819B" points="65.796,133.255 119.571,101.655 119.571,38.419 65.304,70.034 		"/>
		<g>
			<g>
				<path fill="#FFFFFF" d="M65.069,112.621c28.828-9.88,45.717-38.457,37.848-64.87l-0.063-0.19l1.457-0.449l0.067,0.204
					c8.125,27.275-9.317,56.77-39.066,66.832L65.069,112.621z"/>
			</g>
			<g>
				<path fill="#FFFFFF" d="M64.825,94.52c9.453-3.067,16.591-8.359,20.826-15.5c4.038-6.808,5.286-14.997,3.626-23.388l1.445-0.552
					c1.811,8.849,0.516,17.512-3.758,24.718c-4.5,7.587-12.093,13.166-22.138,16.323L64.825,94.52z"/>
			</g>
		</g>
		<g>
			<path fill="#FFFFFF" d="M65.796,134c-0.129,0-0.258-0.033-0.374-0.099c-0.235-0.134-0.382-0.382-0.384-0.653L64.547,70.04
				c-0.002-0.272,0.141-0.524,0.376-0.661l54.267-31.615c0.234-0.136,0.524-0.137,0.759-0.002c0.235,0.135,0.38,0.386,0.38,0.657
				v63.236c0,0.269-0.142,0.517-0.374,0.653l-53.776,31.588C66.061,133.965,65.928,134,65.796,134z M66.065,70.468l0.478,61.457
				l52.271-30.704V39.737L66.065,70.468z"/>
		</g>
	</g>
	<g>
		<path fill="#F0DF36" d="M55.403,63.324c-0.047,0.077-0.026,0.335-0.026,0.335c-0.008,0.108-0.02,0.333-0.026,0.441
			c-0.341,6.221,3.34,11.953,9.477,14.715l0.126,0.064c0.002-0.001,0.004-0.002,0.007-0.003c0.051,0.023,0.084-0.035,0.084-0.035
			c7.55-3.682,10.565-8.617,10.153-15.177l-0.008-0.159c-0.083-0.177-0.166-0.353-0.258-0.525c-1.037-1.945-2.635-3.564-4.711-4.576
			c-5.223-2.547-11.607-0.341-14.813,4.91"/>
		<path fill="#FFFFFF" d="M64.878,79.693l-0.392-0.197c-6.357-2.861-10.253-8.925-9.897-15.438c0.005-0.099,0.015-0.28,0.023-0.401
			c-0.027-0.459,0.092-0.655,0.138-0.73l1.303,0.792c0.002-0.003,0.004-0.006,0.005-0.009l-1.301-0.795
			c3.46-5.667,10.251-7.903,15.798-5.198c2.153,1.05,3.899,2.745,5.049,4.902c0.098,0.184,0.188,0.372,0.276,0.561l0.063,0.135
			l0.015,0.307c0.445,7.075-2.883,12.116-10.475,15.849c-0.123,0.094-0.269,0.151-0.421,0.166L64.878,79.693z M56.136,63.587
			c0,0.005,0.001,0.009,0.001,0.01l0.005,0.059l-0.004,0.061c-0.008,0.103-0.019,0.315-0.025,0.42
			c-0.319,5.819,3.146,11.251,8.843,13.897c6.866-3.42,9.881-7.978,9.482-14.324l-0.001-0.018c-0.057-0.119-0.115-0.238-0.177-0.355
			c-0.998-1.872-2.51-3.342-4.372-4.25C65.092,56.75,59.207,58.685,56.136,63.587z M56.136,63.502L56.136,63.502L56.136,63.502z"/>
	</g>
</g>
<g>
	<path fill="#07242D" d="M148.402,84.94v5.832c-3.973,0-7.552-1.431-10.375-3.801c-3.547-2.976-5.799-7.443-5.799-12.434V45.33
		h5.799v13.253h10.375v5.87h-10.375V74.68C138.106,80.359,142.707,84.94,148.402,84.94z"/>
	<path fill="#07242D" d="M169.084,58.582v5.794c-5.501,0.011-9.979,4.374-10.178,9.823v16.573h-5.813v-32.19h5.813v3.675
		C161.668,59.964,165.215,58.588,169.084,58.582z"/>
	<path fill="#07242D" d="M172.819,51.118v-5.805h5.802v5.805H172.819z M172.819,90.772v-32.19h5.802v32.19H172.819z"/>
	<path fill="#07242D" d="M214.201,58.582l-16.084,32.19l-16.1-32.19h6.591l9.509,19.008l9.49-19.008H214.201z"/>
	<path fill="#07242D" d="M248.996,58.582c0,0,0,35.193,0,37.519c0,8.988-7.372,16.163-16.106,16.158
		c-4.09,0-7.88-1.551-10.757-4.128l4.172-4.172c1.78,1.507,4.076,2.424,6.585,2.419c5.652,0,10.228-4.62,10.228-10.277v-8.993
		c-2.804,2.321-6.383,3.664-10.228,3.664c-8.75,0.005-16.119-7.055-16.119-16.108c0-0.191,0-16.081,0-16.081h5.876
		c0,0,0.003,15.65,0.003,16.081c0,5.63,4.584,10.282,10.241,10.277c5.652,0,10.228-4.625,10.228-10.277V58.582H248.996z"/>
</g>
</svg>
