<svg id="Layer_1" data-name="Layer 1" xmlns="http://www.w3.org/2000/svg" viewBox="0 0 580 550"><defs><style>.cls-1{fill:#fff;}</style></defs><title>MongoDB_LogoStacked_White_RGB</title><path class="cls-1" d="M414.55,506.9c2.8,2.24,8.39,3.16,13.32,3.16,6.39,0,12.65-1.18,18.78-6.71s10.52-14.35,10.52-28.18c0-13.3-5.06-24.1-15.45-30.42-5.86-3.68-13.45-5.13-22.1-5.13-2.53,0-5.07.13-6.53.79a3.46,3.46,0,0,0-1.2,1.84c-.26,2.37-.26,20.41-.26,31.08,0,10.93,0,26.2.26,28,.14,1.58.93,4.35,2.66,5.53M388,433.69c2.26,0,10.86.4,14.86.4,7.46,0,12.65-.4,26.63-.4,11.72,0,21.57,3.16,28.63,9.22,8.52,7.37,13,17.64,13,30.15,0,17.78-8.12,28.05-16.24,33.84-8.13,6.06-18.65,9.48-33.7,9.48-8,0-21.7-.26-33.16-.39h-.15c-.53-1,1-5.16,1.92-5.27,3.09-.35,3.93-.47,5.37-1.06,2.41-1,3-2.23,3.25-6.57.4-8.17.27-17.91.27-29,0-7.9.13-23.31-.14-28.18-.39-4.08-2.12-5.14-5.59-5.93a74.43,74.43,0,0,0-7.45-1.18c-.27-.79,1.78-4.35,2.45-5.14"/><path class="cls-1" d="M504.19,440.38c-.53.13-1.2,1.45-1.2,2.11-.13,4.73-.27,17.11-.27,25.67a.86.86,0,0,0,.67.66c1.73.13,6,.26,9.59.26,5.06,0,8-.66,9.59-1.45,4.26-2.1,6.25-6.71,6.25-11.71,0-11.46-8-15.81-19.84-15.81a34.59,34.59,0,0,0-4.79.27m30.23,52.67c0-11.59-8.53-18.17-24.11-18.17a59.05,59.05,0,0,0-6.79.13c-.4.13-.8.39-.8.66,0,8.29-.13,21.59.27,26.86.27,2.24,1.87,5.4,3.86,6.32,2.13,1.18,6.93,1.45,10.25,1.45,9.19,0,17.32-5.14,17.32-17.25m-54.28-59.12c1.2,0,4.74.39,13.79.39,8.53,0,15.45-.26,23.71-.26,10.25,0,24.37,3.68,24.37,19,0,7.5-5.33,13.56-12.25,16.46-.4.13-.4.39,0,.52,9.85,2.51,18.51,8.56,18.51,20.15,0,11.32-7.06,18.43-17.31,22.91-6.26,2.77-14,3.69-21.85,3.69-6,0-22-.66-31-.53-.93-.39.86-4.61,1.65-5.26a25.25,25.25,0,0,0,6-.95c3.2-.79,3.58-1.82,4-6.56.26-4.08.26-18.7.26-29.1,0-14.22.14-23.83,0-28.57-.13-3.69-1.46-4.88-4-5.53-2-.4-5.33-.79-8-1.19-.67-.66,1.38-4.61,2.05-5.13"/><path class="cls-1" d="M2.53,516.33a5.62,5.62,0,0,1-.41-2.67,3.33,3.33,0,0,1,.4-1.77,44.31,44.31,0,0,0,5.11-1C10,510.26,10.88,509,11,506c.38-7.1.4-20.41.26-29.78v-.27a3.7,3.7,0,0,0-1.23-3.35A26.51,26.51,0,0,0,3,469.47c-1.12-.33-1.73-.92-1.7-1.61s.73-1.5,2.19-1.78c3.85-.39,14-2.8,17.93-4.64a2.62,2.62,0,0,1,.54,1.9c0,.41-.07.84-.11,1.3-.11,1.32-.24,2.82-.24,4.31a1,1,0,0,0,1,.86,1,1,0,0,0,.68-.29c7.56-5.92,14.33-8,17.81-8,5.72,0,10.17,2.73,13.61,8.36a.94.94,0,0,0,.78.45.88.88,0,0,0,.72-.39c7-5.27,13.84-8.42,18.45-8.42,10.9,0,17.41,8.16,17.41,21.83,0,3.93,0,8.9-.07,13.55,0,4.08-.07,7.9-.07,10.54a3.63,3.63,0,0,0,2.15,2.78,28.17,28.17,0,0,0,6.81,1.67l.11,0a10.11,10.11,0,0,1-.68,4.45c-.73,0-1.73-.05-3-.12-2.27-.11-5.37-.27-9-.27-7.24,0-11,.14-14.64.38a11,11,0,0,1,0-4.43,39,39,0,0,0,4.42-1c2.3-.76,3-1.8,3.1-4.87.06-2.17.47-21.34-.27-25.89a11.58,11.58,0,0,0-12-10.24,21.14,21.14,0,0,0-12,4.57,1.76,1.76,0,0,0-.44,1.13v.09c.52,2.46.52,5.32.52,9.65,0,2.47,0,5.1,0,7.7,0,5.28-.06,10.27,0,14,0,2.57,1.56,3.18,2.81,3.68l1.75.41c1.05.25,2.13.51,3.74.77a7.09,7.09,0,0,1-.06,3.31,2.6,2.6,0,0,1-.47,1.13c-4-.14-8.16-.26-14.12-.26-1.81,0-4.76.08-7.37.15-2.11.06-4.1.11-5.24.12a5.19,5.19,0,0,1-.39-2.3,4,4,0,0,1,.41-2.14l1.6-.29c1.4-.25,2.61-.47,3.77-.75,2-.6,2.71-1.7,2.86-4.21.38-5.86.68-22.74-.15-27-1.41-6.78-5.27-10.22-11.47-10.22-3.64,0-8.23,1.75-12,4.56a3.66,3.66,0,0,0-1.11,2.71c0,2,0,4.41,0,7,0,8.48-.06,19,.15,23.6A3.73,3.73,0,0,0,25,511c.58.16,1.58.33,2.74.52.66.11,1.39.23,2.14.37a9.46,9.46,0,0,1-.35,4.46c-1.16,0-2.58-.08-4.22-.15-2.49-.11-5.6-.25-9.13-.25-4.16,0-7.06.14-9.39.25-1.56.07-2.91.14-4.26.15"/><path class="cls-1" d="M136.19,467.08a11.31,11.31,0,0,0-6.37,1.79c-4.62,2.81-7,8.43-7,16.68,0,15.44,7.74,26.23,18.81,26.23a11.84,11.84,0,0,0,8.14-2.87c3.4-2.78,5.21-8.45,5.21-16.39,0-15.22-7.56-25.44-18.81-25.44m2.13,50.43c-20,0-27.13-14.68-27.13-28.41,0-9.59,3.92-17.09,11.66-22.29a35.54,35.54,0,0,1,18-5.33c15.27,0,25.93,11,25.93,26.7,0,10.69-4.26,19.13-12.32,24.4-3.86,2.37-10.57,4.93-16.14,4.93"/><path class="cls-1" d="M339.88,467.08a11.28,11.28,0,0,0-6.37,1.79c-4.62,2.81-7,8.42-7,16.68,0,15.44,7.73,26.23,18.81,26.23a11.83,11.83,0,0,0,8.14-2.87c3.4-2.78,5.21-8.45,5.21-16.38,0-15.22-7.56-25.45-18.81-25.45M342,517.51c-20,0-27.14-14.67-27.14-28.41,0-9.59,3.93-17.09,11.67-22.29a35.54,35.54,0,0,1,18-5.33c15.27,0,25.94,11,25.94,26.7,0,10.69-4.27,19.13-12.33,24.4-3.86,2.37-10.57,4.93-16.14,4.93"/><path class="cls-1" d="M272.52,466.55c-6.16,0-10.15,4.88-10.15,12.41s3.43,16.49,13.08,16.49c1.66,0,4.67-.73,6.16-2.38,2.24-2.06,3.71-6.32,3.71-10.82,0-9.83-4.79-15.7-12.8-15.7m-.8,52a10.19,10.19,0,0,0-5,1.24c-4.88,3.13-7.15,6.26-7.15,9.86a10.52,10.52,0,0,0,4.15,8.48c3.43,2.91,8,4.32,14.13,4.32,12,0,17.32-6.43,17.32-12.8,0-4.44-2.23-7.41-6.81-9.09-3.52-1.29-9.42-2-16.64-2m.8,30.56c-7.18,0-12.35-1.52-16.78-4.92a15.72,15.72,0,0,1-6.22-11.65,9.12,9.12,0,0,1,2.35-5.92c1.26-1.42,4.15-4.08,10.85-8.69a.57.57,0,0,0-.07-1.08c-5.52-2.11-7.19-5.58-7.69-7.46a2.53,2.53,0,0,0-.05-.29,1.72,1.72,0,0,1,.69-2.15c.77-.55,2-1.29,3.33-2.06a44.13,44.13,0,0,0,5.35-3.49.84.84,0,0,0,.23-.74.85.85,0,0,0-.45-.63c-8.17-2.74-12.28-8.81-12.28-18.05a18,18,0,0,1,7.55-14.79c3.28-2.6,11.53-5.72,16.87-5.72h.31c5.49.13,8.59,1.28,12.88,2.87a20.58,20.58,0,0,0,7.61,1.21c4.55,0,6.54-1.44,8.24-3.1a7.2,7.2,0,0,1,.44,2.36,8.93,8.93,0,0,1-1.48,5.41,6.68,6.68,0,0,1-5.12,2.22,5.74,5.74,0,0,1-.6,0,17.4,17.4,0,0,1-3.09-.51l-.51.17c-.16.24-.06.51.07.84a.91.91,0,0,1,.08.2,36.46,36.46,0,0,1,.74,5.05c0,9.69-3.82,13.92-7.95,17a27.13,27.13,0,0,1-13.74,5.32h0l-1.59.13-1.55.13h-.12c-.9.26-3.25,1.37-3.25,3.45,0,1.72,1.07,3.86,6.13,4.24l3.28.23c6.68.47,15,1,19,2.38a13.12,13.12,0,0,1,8.76,12.63c0,8.7-6.18,16.87-16.53,21.87a36,36,0,0,1-15.64,3.52"/><path class="cls-1" d="M241.94,511.69a23.85,23.85,0,0,1-7.59-2,3.47,3.47,0,0,1-.94-1.84c-.26-4.08-.26-15.93-.26-23.7,0-6.32-1.07-11.85-3.73-15.8a16,16,0,0,0-13.58-7.11c-5.2,0-12.12,3.55-17.85,8.43-.13.13-1,1-1-.34s.22-3.93.34-5.59a2.89,2.89,0,0,0-.87-2.44c-3.73,1.85-14.23,4.34-18.11,4.74-2.83.55-3.55,3.27-.53,4.22h0a26.09,26.09,0,0,1,6.87,3c1.2.93,1.07,2.24,1.07,3.3.13,8.82.13,22.38-.27,29.76-.13,2.89-.93,3.94-3.06,4.47l.19-.06a41.59,41.59,0,0,1-4.93.92c-.66.66-.66,4.48,0,5.27,1.33,0,8.13-.4,13.72-.4,7.72,0,11.72.4,13.71.4.8-.93,1.07-4.48.54-5.27a28.46,28.46,0,0,1-5.46-.79c-2.13-.53-2.67-1.58-2.8-3.95-.26-6.19-.26-19.36-.26-28.31,0-2.5.66-3.69,1.46-4.35a17.53,17.53,0,0,1,10.92-4,12,12,0,0,1,8.12,2.77,11.26,11.26,0,0,1,3.73,7.37c.53,5,.4,15,.4,23.7,0,4.74-.4,5.93-2.13,6.46a21.62,21.62,0,0,1-5.46,1.05c-.8.79-.53,4.48,0,5.27,3.46,0,7.46-.4,13.32-.4,7.32,0,12,.4,13.84.4.8-.93,1.07-4.35.54-5.27"/><path class="cls-1" d="M568.37,516.33a10.34,10.34,0,1,1,10.34-10.49A10.22,10.22,0,0,1,568.37,516.33Zm0-19.75a9.41,9.41,0,1,0,9.35,9.44A9.25,9.25,0,0,0,568.4,496.58Zm2.53,15.94-2.67-5.75h-2.15v5.75h-1.57V499.45h3.86c2.88,0,4.07,1.28,4.07,3.66a3.17,3.17,0,0,1-2.59,3.49l2.76,5.92Zm-4.82-7.11h2.26c1.83,0,2.53-.64,2.53-2.3s-.67-2.23-2.73-2.23h-2.06Z"/><path class="cls-1" d="M364.58,148.28C345.06,62.21,299,33.91,294,23.09c-5.45-7.64-10.93-21.18-10.93-21.18-.1-.23-.24-.63-.41-1-.56,7.61-.85,10.58-8.06,18.27C263.45,27.89,206.14,76,201.48,173.76c-4.35,91.18,65.89,145.54,75.41,152.47L278,327l0-.06c.06.45,3,21.7,5.07,44.22l7.44,0a438.75,438.75,0,0,1,7.85-47.36l.57-.39a121.44,121.44,0,0,0,12.13-9.92l.44-.39c20.19-18.65,56.48-61.79,56.13-130.6A209.55,209.55,0,0,0,364.58,148.28ZM282.25,274.73s0-127.92,4.28-127.9c3.29,0,7.56,165,7.56,165C288.17,311.14,282.25,284.69,282.25,274.73Z"/></svg>