<svg id="Layer_1" data-name="Layer 1" xmlns="http://www.w3.org/2000/svg" viewBox="0 0 580 550"><defs><style>.cls-1{fill:#fff;}.cls-2{fill:#10aa50;}.cls-3{fill:#b8c4c2;}.cls-4{fill:#12924f;}</style></defs><title>MongoDB_StackedLogo_FullColorWhite_RGB</title><path class="cls-1" d="M414.55,506.42c2.8,2.24,8.39,3.16,13.32,3.16,6.39,0,12.65-1.19,18.78-6.72s10.52-14.35,10.52-28.18c0-13.3-5.06-24.09-15.45-30.41-5.86-3.69-13.45-5.14-22.1-5.14-2.53,0-5.07.13-6.53.79a3.45,3.45,0,0,0-1.2,1.85c-.26,2.36-.26,20.4-.26,31.07,0,10.93,0,26.2.26,28.05.14,1.58.93,4.34,2.66,5.53M388,433.21c2.26,0,10.86.39,14.86.39,7.46,0,12.65-.39,26.63-.39,11.72,0,21.57,3.16,28.63,9.21,8.52,7.38,13,17.65,13,30.16,0,17.77-8.12,28-16.24,33.84-8.13,6.05-18.65,9.48-33.7,9.48-8,0-21.7-.27-33.16-.4h-.15c-.53-1,1-5.16,1.92-5.26,3.09-.35,3.93-.47,5.37-1.07,2.41-1,3-2.23,3.25-6.57.4-8.17.27-17.91.27-29,0-7.9.13-23.31-.14-28.18-.39-4.08-2.12-5.13-5.59-5.92a73.86,73.86,0,0,0-7.45-1.19c-.27-.79,1.78-4.34,2.45-5.13"/><path class="cls-1" d="M504.19,439.89c-.53.13-1.2,1.45-1.2,2.11-.13,4.74-.27,17.11-.27,25.67a.84.84,0,0,0,.67.66c1.73.13,6,.27,9.59.27,5.06,0,8-.66,9.59-1.45,4.26-2.11,6.25-6.72,6.25-11.72,0-11.46-8-15.8-19.84-15.8a35.91,35.91,0,0,0-4.79.26m30.23,52.67c0-11.59-8.53-18.17-24.11-18.17a61.41,61.41,0,0,0-6.79.13c-.4.13-.8.4-.8.66,0,8.3-.13,21.59.27,26.86.27,2.24,1.87,5.4,3.86,6.32,2.13,1.19,6.93,1.45,10.25,1.45,9.19,0,17.32-5.14,17.32-17.25m-54.28-59.12c1.2,0,4.74.39,13.79.39,8.53,0,15.45-.26,23.71-.26,10.25,0,24.37,3.69,24.37,19,0,7.51-5.33,13.56-12.25,16.46-.4.13-.4.4,0,.53,9.85,2.5,18.51,8.56,18.51,20.14,0,11.33-7.06,18.44-17.31,22.91-6.26,2.77-14,3.69-21.85,3.69-6,0-22-.66-31-.52-.93-.4.86-4.62,1.65-5.27a24.76,24.76,0,0,0,6-1c3.2-.79,3.58-1.82,4-6.56.26-4.08.26-18.69.26-29.1,0-14.22.14-23.83,0-28.57-.13-3.69-1.46-4.87-4-5.53-2-.4-5.33-.79-8-1.19-.67-.66,1.38-4.6,2.05-5.13"/><path class="cls-1" d="M2.53,515.84a5.6,5.6,0,0,1-.41-2.66,3.34,3.34,0,0,1,.4-1.78,42.25,42.25,0,0,0,5.11-1c2.36-.59,3.25-1.86,3.39-4.87.38-7.1.4-20.42.26-29.79v-.27a3.7,3.7,0,0,0-1.23-3.35A26.51,26.51,0,0,0,3,469c-1.12-.33-1.73-.92-1.7-1.6s.73-1.5,2.19-1.78c3.85-.4,14-2.81,17.93-4.64a2.58,2.58,0,0,1,.54,1.89c0,.41-.07.85-.11,1.3-.11,1.32-.24,2.82-.24,4.32a1,1,0,0,0,1,.85.92.92,0,0,0,.68-.29c7.56-5.92,14.33-8,17.81-8,5.72,0,10.17,2.74,13.61,8.36a.92.92,0,0,0,.78.45.9.9,0,0,0,.72-.38c7-5.28,13.84-8.43,18.45-8.43,10.9,0,17.41,8.17,17.41,21.83,0,3.93,0,8.91-.07,13.55,0,4.08-.07,7.9-.07,10.55a3.61,3.61,0,0,0,2.15,2.77,28.11,28.11,0,0,0,6.81,1.68H101a10.15,10.15,0,0,1-.68,4.46c-.73,0-1.73-.06-3-.12-2.27-.12-5.37-.28-9-.28-7.24,0-11,.15-14.64.38a11,11,0,0,1,0-4.43,39.4,39.4,0,0,0,4.42-1c2.3-.77,3-1.81,3.1-4.87.06-2.18.47-21.35-.27-25.9a11.58,11.58,0,0,0-12-10.23,21.18,21.18,0,0,0-12,4.56,1.76,1.76,0,0,0-.44,1.13v.09c.52,2.46.52,5.32.52,9.66,0,2.47,0,5.09,0,7.69,0,5.29-.06,10.27,0,14,0,2.57,1.56,3.19,2.81,3.68l1.75.41c1.05.25,2.13.51,3.74.77a7.09,7.09,0,0,1-.06,3.31,2.53,2.53,0,0,1-.47,1.13c-4-.13-8.16-.25-14.12-.25-1.81,0-4.76.07-7.37.14-2.11.06-4.1.11-5.24.12a5.16,5.16,0,0,1-.39-2.3,4,4,0,0,1,.41-2.14l1.6-.29c1.4-.25,2.61-.46,3.77-.75,2-.6,2.71-1.7,2.86-4.21.38-5.86.68-22.74-.15-27C44.75,472.4,40.89,469,34.69,469c-3.64,0-8.23,1.75-12,4.57a3.62,3.62,0,0,0-1.11,2.71c0,2,0,4.4,0,7,0,8.48-.06,19,.15,23.59A3.74,3.74,0,0,0,25,510.5c.58.16,1.58.32,2.74.52l2.14.36a9.45,9.45,0,0,1-.35,4.46c-1.16,0-2.58-.07-4.22-.15-2.49-.11-5.6-.25-9.13-.25-4.16,0-7.06.14-9.39.25-1.56.08-2.91.14-4.26.15"/><path class="cls-1" d="M136.19,466.59a11.39,11.39,0,0,0-6.37,1.79c-4.62,2.81-7,8.43-7,16.68,0,15.45,7.74,26.23,18.81,26.23a11.8,11.8,0,0,0,8.14-2.87C153.19,505.65,155,500,155,492c0-15.22-7.56-25.45-18.81-25.45M138.32,517c-20,0-27.13-14.67-27.13-28.41,0-9.59,3.92-17.09,11.66-22.29a35.54,35.54,0,0,1,18-5.33c15.27,0,25.93,11,25.93,26.7,0,10.69-4.26,19.13-12.32,24.4-3.86,2.37-10.57,4.93-16.14,4.93"/><path class="cls-1" d="M339.88,466.59a11.36,11.36,0,0,0-6.37,1.79c-4.62,2.81-7,8.43-7,16.68,0,15.45,7.73,26.23,18.81,26.23a11.78,11.78,0,0,0,8.14-2.87c3.4-2.77,5.21-8.44,5.21-16.38,0-15.22-7.56-25.45-18.81-25.45M342,517c-20,0-27.14-14.67-27.14-28.4,0-9.6,3.93-17.1,11.67-22.3a35.54,35.54,0,0,1,18-5.33c15.27,0,25.94,11,25.94,26.7,0,10.69-4.27,19.13-12.33,24.4C354.29,514.46,347.58,517,342,517"/><path class="cls-1" d="M272.52,466.07c-6.16,0-10.15,4.87-10.15,12.41S265.8,495,275.45,495c1.66,0,4.67-.74,6.16-2.38,2.24-2.06,3.71-6.32,3.71-10.82,0-9.83-4.79-15.7-12.8-15.7m-.8,52a10.08,10.08,0,0,0-5,1.24c-4.88,3.13-7.15,6.25-7.15,9.85a10.55,10.55,0,0,0,4.15,8.49c3.43,2.9,8,4.31,14.13,4.31,12,0,17.32-6.43,17.32-12.8,0-4.44-2.23-7.41-6.81-9.09-3.52-1.29-9.42-2-16.64-2m.8,30.55c-7.18,0-12.35-1.52-16.78-4.92a15.71,15.71,0,0,1-6.22-11.64,9.14,9.14,0,0,1,2.35-5.93c1.26-1.42,4.15-4.08,10.85-8.69a.55.55,0,0,0,.35-.52.54.54,0,0,0-.42-.55c-5.52-2.12-7.19-5.58-7.69-7.47,0-.06,0-.17-.05-.29a1.73,1.73,0,0,1,.69-2.15c.77-.55,2-1.28,3.33-2.06a44.13,44.13,0,0,0,5.35-3.49.83.83,0,0,0,.23-.74.82.82,0,0,0-.45-.62c-8.17-2.75-12.28-8.82-12.28-18.06a18,18,0,0,1,7.55-14.79c3.28-2.6,11.53-5.72,16.87-5.72h.31c5.49.13,8.59,1.29,12.88,2.87a20.37,20.37,0,0,0,7.61,1.22c4.55,0,6.54-1.45,8.24-3.1a7,7,0,0,1,.44,2.35,8.91,8.91,0,0,1-1.48,5.41,6.69,6.69,0,0,1-5.12,2.23,5.74,5.74,0,0,1-.6,0,17.84,17.84,0,0,1-3.09-.52l-.51.18c-.16.23-.06.5.07.83a1,1,0,0,1,.08.21,36,36,0,0,1,.74,5.05c0,9.69-3.82,13.91-7.95,17A27.21,27.21,0,0,1,274.08,500h0l-1.59.13-1.55.13-.12,0c-.9.25-3.25,1.37-3.25,3.44,0,1.72,1.07,3.86,6.13,4.24,1,.08,2.13.16,3.28.23,6.68.47,15,1,19,2.38a13.12,13.12,0,0,1,8.76,12.63c0,8.7-6.18,16.88-16.53,21.87a35.82,35.82,0,0,1-15.64,3.52"/><path class="cls-1" d="M241.94,511.2a23.85,23.85,0,0,1-7.59-2,3.53,3.53,0,0,1-.94-1.85c-.26-4.08-.26-15.93-.26-23.7,0-6.32-1.07-11.85-3.73-15.8a16,16,0,0,0-13.58-7.11c-5.2,0-12.12,3.56-17.85,8.43-.13.13-1,1-1-.33s.22-3.93.34-5.59a2.87,2.87,0,0,0-.87-2.44c-3.73,1.84-14.23,4.34-18.11,4.74-2.83.54-3.55,3.27-.53,4.21h0a25.74,25.74,0,0,1,6.87,3c1.2.92,1.07,2.24,1.07,3.29.13,8.82.13,22.39-.27,29.76-.13,2.9-.93,3.95-3.06,4.48l.19-.07a41.59,41.59,0,0,1-4.93.92c-.66.66-.66,4.48,0,5.27,1.33,0,8.13-.4,13.72-.4,7.72,0,11.72.4,13.71.4.8-.92,1.07-4.48.54-5.27a27.69,27.69,0,0,1-5.46-.79c-2.13-.52-2.67-1.58-2.8-4-.26-6.19-.26-19.35-.26-28.31,0-2.5.66-3.69,1.46-4.34a17.48,17.48,0,0,1,10.92-3.95,12,12,0,0,1,8.12,2.76,11.3,11.3,0,0,1,3.73,7.38c.53,5,.4,15,.4,23.7,0,4.74-.4,5.92-2.13,6.45a21.62,21.62,0,0,1-5.46,1.05c-.8.79-.53,4.48,0,5.27,3.46,0,7.46-.4,13.32-.4,7.32,0,12,.4,13.84.4.8-.92,1.07-4.35.54-5.27"/><path class="cls-1" d="M568.37,515.84a10.34,10.34,0,1,1,10.34-10.48A10.22,10.22,0,0,1,568.37,515.84Zm0-19.75a9.41,9.41,0,1,0,9.35,9.44A9.26,9.26,0,0,0,568.4,496.09ZM570.93,512l-2.67-5.76h-2.15V512h-1.57V499h3.86c2.88,0,4.07,1.28,4.07,3.66a3.17,3.17,0,0,1-2.59,3.48l2.76,5.93Zm-4.82-7.12h2.26c1.83,0,2.53-.64,2.53-2.29s-.67-2.24-2.73-2.24h-2.06Z"/><path class="cls-2" d="M365.46,147.75C346,61.7,305.3,38.8,294.93,22.6,289.29,13.78,283.59.4,283.59.4,283,8,282,12.86,275.53,18.66c-13,11.63-68.45,56.79-73.12,154.56-4.34,91.16,67,147.38,76.47,153.18,7.25,3.56,16.07.07,20.4-3.19,34.37-23.61,81.4-86.55,66.18-175.46"/><path class="cls-3" d="M286.55,277.85c-1.8,22.57-3.08,35.71-7.65,48.58,0,0,3,21.48,5.08,44.23l7.43,0A417.81,417.81,0,0,1,299.52,323C289.92,318.29,286.91,297.65,286.55,277.85Z"/><path class="cls-4" d="M299.54,323h0c-9.72-4.49-12.54-25.55-13-45.18a927,927,0,0,0,2.09-97.27c-.5-17,.25-157.65-4.19-178.24,1.8,4,6.14,13.49,10.48,20.25,10.37,16.2,51,39.11,70.53,125.17C380.65,236.43,333.9,299.27,299.54,323Z"/></svg>