<?xml version="1.0" encoding="UTF-8" standalone="no"?>
<!DOCTYPE svg PUBLIC "-//W3C//DTD SVG 1.1//EN" "http://www.w3.org/Graphics/SVG/1.1/DTD/svg11.dtd">
<svg width="100%" height="100%" viewBox="0 0 300 196" version="1.1" xmlns="http://www.w3.org/2000/svg" xmlns:xlink="http://www.w3.org/1999/xlink" xml:space="preserve" xmlns:serif="http://www.serif.com/" style="fill-rule:evenodd;clip-rule:evenodd;stroke-linejoin:round;stroke-miterlimit:2;">
    <g transform="matrix(1,0,0,1,0,-420.37)">
        <g id="aks-stacked-color" transform="matrix(0.721154,0,0,0.56588,-107.151,248.47)">
            <rect x="148.583" y="303.775" width="414.891" height="344.949" style="fill:none;"/>
            <g transform="matrix(1.38667,0,0,1.76716,-82.8023,-277.399)">
                <g transform="matrix(1.91979,0,0,0.333013,-866.198,416.882)">
                    <g transform="matrix(17.7103,0,0,102.098,536.427,320.649)">
                        <path d="M0.614,0L0.516,0L0.256,-0.346L0.181,-0.28L0.181,0L0.098,0L0.098,-0.714L0.181,-0.714L0.181,-0.36L0.505,-0.714L0.603,-0.714L0.316,-0.404L0.614,0Z" style="fill:rgb(26,26,31);fill-rule:nonzero;"/>
                    </g>
                    <g transform="matrix(17.7103,0,0,102.098,547.297,320.649)">
                        <path d="M0.162,-0.535L0.162,-0.188C0.162,-0.144 0.172,-0.112 0.192,-0.09C0.212,-0.069 0.243,-0.058 0.285,-0.058C0.341,-0.058 0.382,-0.073 0.408,-0.104C0.434,-0.135 0.447,-0.185 0.447,-0.254L0.447,-0.535L0.528,-0.535L0.528,0L0.461,0L0.449,-0.072L0.445,-0.072C0.428,-0.045 0.405,-0.025 0.376,-0.011C0.346,0.003 0.313,0.01 0.275,0.01C0.21,0.01 0.161,-0.006 0.129,-0.037C0.096,-0.068 0.08,-0.117 0.08,-0.185L0.08,-0.535L0.162,-0.535Z" style="fill:rgb(26,26,31);fill-rule:nonzero;"/>
                    </g>
                    <g transform="matrix(17.7103,0,0,102.098,558.167,320.649)">
                        <path d="M0.335,-0.544C0.405,-0.544 0.46,-0.52 0.499,-0.472C0.538,-0.424 0.557,-0.356 0.557,-0.268C0.557,-0.18 0.538,-0.112 0.498,-0.063C0.459,-0.015 0.405,0.01 0.335,0.01C0.3,0.01 0.268,0.003 0.24,-0.01C0.211,-0.022 0.187,-0.042 0.167,-0.069L0.161,-0.069L0.144,0L0.086,0L0.086,-0.76L0.167,-0.76L0.167,-0.575C0.167,-0.534 0.166,-0.497 0.163,-0.464L0.167,-0.464C0.205,-0.517 0.261,-0.544 0.335,-0.544ZM0.323,-0.476C0.268,-0.476 0.228,-0.46 0.204,-0.428C0.179,-0.397 0.167,-0.343 0.167,-0.268C0.167,-0.193 0.18,-0.139 0.205,-0.107C0.23,-0.074 0.27,-0.058 0.325,-0.058C0.375,-0.058 0.412,-0.076 0.437,-0.113C0.461,-0.149 0.473,-0.201 0.473,-0.269C0.473,-0.339 0.461,-0.391 0.437,-0.425C0.412,-0.459 0.374,-0.476 0.323,-0.476Z" style="fill:rgb(26,26,31);fill-rule:nonzero;"/>
                    </g>
                    <g transform="matrix(17.7103,0,0,102.098,569.02,320.649)">
                        <path d="M0.312,0.01C0.233,0.01 0.17,-0.014 0.125,-0.063C0.079,-0.111 0.056,-0.178 0.056,-0.263C0.056,-0.349 0.077,-0.418 0.12,-0.469C0.162,-0.52 0.219,-0.545 0.291,-0.545C0.358,-0.545 0.411,-0.523 0.45,-0.479C0.489,-0.435 0.509,-0.376 0.509,-0.304L0.509,-0.253L0.14,-0.253C0.142,-0.19 0.158,-0.142 0.188,-0.11C0.218,-0.077 0.26,-0.061 0.315,-0.061C0.373,-0.061 0.43,-0.073 0.486,-0.097L0.486,-0.025C0.457,-0.013 0.43,-0.004 0.405,0.002C0.379,0.007 0.348,0.01 0.312,0.01ZM0.29,-0.477C0.247,-0.477 0.213,-0.463 0.187,-0.435C0.162,-0.407 0.147,-0.368 0.142,-0.319L0.422,-0.319C0.422,-0.37 0.41,-0.409 0.388,-0.436C0.365,-0.463 0.332,-0.477 0.29,-0.477Z" style="fill:rgb(26,26,31);fill-rule:nonzero;"/>
                    </g>
                    <g transform="matrix(17.7103,0,0,102.098,578.956,320.649)">
                        <path d="M0.33,-0.545C0.354,-0.545 0.375,-0.543 0.394,-0.539L0.383,-0.464C0.361,-0.469 0.341,-0.471 0.324,-0.471C0.281,-0.471 0.244,-0.454 0.213,-0.418C0.182,-0.383 0.167,-0.34 0.167,-0.287L0.167,0L0.086,0L0.086,-0.535L0.153,-0.535L0.162,-0.436L0.166,-0.436C0.186,-0.471 0.21,-0.498 0.238,-0.517C0.266,-0.535 0.297,-0.545 0.33,-0.545Z" style="fill:rgb(26,26,31);fill-rule:nonzero;"/>
                    </g>
                    <g transform="matrix(17.7103,0,0,102.098,586.185,320.649)">
                        <path d="M0.452,0L0.452,-0.346C0.452,-0.39 0.442,-0.422 0.422,-0.444C0.403,-0.465 0.371,-0.476 0.329,-0.476C0.273,-0.476 0.232,-0.461 0.206,-0.431C0.18,-0.4 0.167,-0.35 0.167,-0.281L0.167,0L0.086,0L0.086,-0.535L0.152,-0.535L0.165,-0.462L0.169,-0.462C0.186,-0.488 0.209,-0.509 0.239,-0.523C0.269,-0.538 0.302,-0.545 0.339,-0.545C0.403,-0.545 0.452,-0.529 0.484,-0.498C0.517,-0.467 0.533,-0.417 0.533,-0.349L0.533,0L0.452,0Z" style="fill:rgb(26,26,31);fill-rule:nonzero;"/>
                    </g>
                    <g transform="matrix(17.7103,0,0,102.098,597.055,320.649)">
                        <path d="M0.312,0.01C0.233,0.01 0.17,-0.014 0.125,-0.063C0.079,-0.111 0.056,-0.178 0.056,-0.263C0.056,-0.349 0.077,-0.418 0.12,-0.469C0.162,-0.52 0.219,-0.545 0.291,-0.545C0.358,-0.545 0.411,-0.523 0.45,-0.479C0.489,-0.435 0.509,-0.376 0.509,-0.304L0.509,-0.253L0.14,-0.253C0.142,-0.19 0.158,-0.142 0.188,-0.11C0.218,-0.077 0.26,-0.061 0.315,-0.061C0.373,-0.061 0.43,-0.073 0.486,-0.097L0.486,-0.025C0.457,-0.013 0.43,-0.004 0.405,0.002C0.379,0.007 0.348,0.01 0.312,0.01ZM0.29,-0.477C0.247,-0.477 0.213,-0.463 0.187,-0.435C0.162,-0.407 0.147,-0.368 0.142,-0.319L0.422,-0.319C0.422,-0.37 0.41,-0.409 0.388,-0.436C0.365,-0.463 0.332,-0.477 0.29,-0.477Z" style="fill:rgb(26,26,31);fill-rule:nonzero;"/>
                    </g>
                    <g transform="matrix(17.7103,0,0,102.098,606.991,320.649)">
                        <path d="M0.259,-0.057C0.273,-0.057 0.287,-0.058 0.3,-0.06C0.314,-0.062 0.324,-0.065 0.332,-0.067L0.332,-0.005C0.323,-0.001 0.31,0.003 0.293,0.006C0.276,0.008 0.261,0.01 0.247,0.01C0.144,0.01 0.092,-0.045 0.092,-0.154L0.092,-0.472L0.015,-0.472L0.015,-0.511L0.092,-0.545L0.126,-0.659L0.173,-0.659L0.173,-0.535L0.328,-0.535L0.328,-0.472L0.173,-0.472L0.173,-0.157C0.173,-0.125 0.181,-0.1 0.196,-0.083C0.211,-0.066 0.232,-0.057 0.259,-0.057Z" style="fill:rgb(26,26,31);fill-rule:nonzero;"/>
                    </g>
                    <g transform="matrix(17.7103,0,0,102.098,613.244,320.649)">
                        <path d="M0.312,0.01C0.233,0.01 0.17,-0.014 0.125,-0.063C0.079,-0.111 0.056,-0.178 0.056,-0.263C0.056,-0.349 0.077,-0.418 0.12,-0.469C0.162,-0.52 0.219,-0.545 0.291,-0.545C0.358,-0.545 0.411,-0.523 0.45,-0.479C0.489,-0.435 0.509,-0.376 0.509,-0.304L0.509,-0.253L0.14,-0.253C0.142,-0.19 0.158,-0.142 0.188,-0.11C0.218,-0.077 0.26,-0.061 0.315,-0.061C0.373,-0.061 0.43,-0.073 0.486,-0.097L0.486,-0.025C0.457,-0.013 0.43,-0.004 0.405,0.002C0.379,0.007 0.348,0.01 0.312,0.01ZM0.29,-0.477C0.247,-0.477 0.213,-0.463 0.187,-0.435C0.162,-0.407 0.147,-0.368 0.142,-0.319L0.422,-0.319C0.422,-0.37 0.41,-0.409 0.388,-0.436C0.365,-0.463 0.332,-0.477 0.29,-0.477Z" style="fill:rgb(26,26,31);fill-rule:nonzero;"/>
                    </g>
                    <g transform="matrix(17.7103,0,0,102.098,623.18,320.649)">
                        <path d="M0.431,-0.146C0.431,-0.096 0.413,-0.058 0.375,-0.031C0.338,-0.004 0.286,0.01 0.219,0.01C0.148,0.01 0.093,-0.001 0.053,-0.024L0.053,-0.099C0.079,-0.086 0.107,-0.076 0.136,-0.068C0.165,-0.061 0.194,-0.057 0.221,-0.057C0.264,-0.057 0.296,-0.064 0.319,-0.077C0.342,-0.091 0.353,-0.111 0.353,-0.139C0.353,-0.16 0.344,-0.178 0.326,-0.193C0.308,-0.207 0.273,-0.225 0.22,-0.245C0.17,-0.264 0.135,-0.28 0.114,-0.294C0.093,-0.308 0.077,-0.323 0.067,-0.341C0.057,-0.358 0.052,-0.379 0.052,-0.404C0.052,-0.447 0.069,-0.482 0.105,-0.507C0.14,-0.532 0.189,-0.545 0.251,-0.545C0.309,-0.545 0.365,-0.533 0.42,-0.51L0.391,-0.444C0.337,-0.466 0.289,-0.477 0.245,-0.477C0.207,-0.477 0.178,-0.471 0.158,-0.459C0.139,-0.447 0.129,-0.43 0.129,-0.409C0.129,-0.395 0.133,-0.383 0.14,-0.373C0.147,-0.362 0.159,-0.353 0.175,-0.344C0.192,-0.335 0.223,-0.321 0.269,-0.304C0.333,-0.281 0.375,-0.258 0.398,-0.234C0.42,-0.211 0.431,-0.181 0.431,-0.146Z" style="fill:rgb(26,26,31);fill-rule:nonzero;"/>
                    </g>
                    <g transform="matrix(17.7103,0,0,102.098,636.229,320.649)">
                        <path d="M0.501,-0.19C0.501,-0.127 0.478,-0.078 0.433,-0.043C0.387,-0.008 0.325,0.01 0.247,0.01C0.162,0.01 0.097,-0.001 0.052,-0.023L0.052,-0.103C0.081,-0.091 0.113,-0.081 0.147,-0.074C0.182,-0.067 0.216,-0.063 0.25,-0.063C0.305,-0.063 0.347,-0.073 0.375,-0.094C0.403,-0.115 0.417,-0.145 0.417,-0.182C0.417,-0.207 0.412,-0.227 0.402,-0.243C0.392,-0.259 0.376,-0.273 0.352,-0.287C0.329,-0.3 0.294,-0.315 0.246,-0.332C0.18,-0.356 0.132,-0.384 0.104,-0.417C0.075,-0.449 0.061,-0.492 0.061,-0.544C0.061,-0.599 0.082,-0.643 0.123,-0.675C0.164,-0.708 0.219,-0.724 0.287,-0.724C0.358,-0.724 0.423,-0.711 0.483,-0.685L0.457,-0.613C0.398,-0.638 0.341,-0.65 0.285,-0.65C0.241,-0.65 0.207,-0.64 0.182,-0.622C0.157,-0.603 0.145,-0.576 0.145,-0.543C0.145,-0.518 0.15,-0.498 0.159,-0.482C0.168,-0.466 0.183,-0.452 0.205,-0.439C0.226,-0.426 0.26,-0.411 0.304,-0.395C0.379,-0.368 0.431,-0.34 0.459,-0.309C0.487,-0.278 0.501,-0.239 0.501,-0.19Z" style="fill:rgb(26,26,31);fill-rule:nonzero;"/>
                    </g>
                    <g transform="matrix(17.7103,0,0,102.098,645.949,320.649)">
                        <path d="M0.312,0.01C0.233,0.01 0.17,-0.014 0.125,-0.063C0.079,-0.111 0.056,-0.178 0.056,-0.263C0.056,-0.349 0.077,-0.418 0.12,-0.469C0.162,-0.52 0.219,-0.545 0.291,-0.545C0.358,-0.545 0.411,-0.523 0.45,-0.479C0.489,-0.435 0.509,-0.376 0.509,-0.304L0.509,-0.253L0.14,-0.253C0.142,-0.19 0.158,-0.142 0.188,-0.11C0.218,-0.077 0.26,-0.061 0.315,-0.061C0.373,-0.061 0.43,-0.073 0.486,-0.097L0.486,-0.025C0.457,-0.013 0.43,-0.004 0.405,0.002C0.379,0.007 0.348,0.01 0.312,0.01ZM0.29,-0.477C0.247,-0.477 0.213,-0.463 0.187,-0.435C0.162,-0.407 0.147,-0.368 0.142,-0.319L0.422,-0.319C0.422,-0.37 0.41,-0.409 0.388,-0.436C0.365,-0.463 0.332,-0.477 0.29,-0.477Z" style="fill:rgb(26,26,31);fill-rule:nonzero;"/>
                    </g>
                    <g transform="matrix(17.7103,0,0,102.098,655.885,320.649)">
                        <path d="M0.33,-0.545C0.354,-0.545 0.375,-0.543 0.394,-0.539L0.383,-0.464C0.361,-0.469 0.341,-0.471 0.324,-0.471C0.281,-0.471 0.244,-0.454 0.213,-0.418C0.182,-0.383 0.167,-0.34 0.167,-0.287L0.167,0L0.086,0L0.086,-0.535L0.153,-0.535L0.162,-0.436L0.166,-0.436C0.186,-0.471 0.21,-0.498 0.238,-0.517C0.266,-0.535 0.297,-0.545 0.33,-0.545Z" style="fill:rgb(26,26,31);fill-rule:nonzero;"/>
                    </g>
                    <g transform="matrix(17.7103,0,0,102.098,663.114,320.649)">
                        <path d="M0.203,0L0,-0.535L0.087,-0.535L0.202,-0.218C0.228,-0.144 0.243,-0.095 0.248,-0.073L0.252,-0.073C0.256,-0.09 0.267,-0.126 0.286,-0.18C0.305,-0.235 0.348,-0.353 0.414,-0.535L0.501,-0.535L0.298,0L0.203,0Z" style="fill:rgb(26,26,31);fill-rule:nonzero;"/>
                    </g>
                    <g transform="matrix(17.7103,0,0,102.098,671.987,320.649)">
                        <path d="M0.167,0L0.086,0L0.086,-0.535L0.167,-0.535L0.167,0ZM0.079,-0.68C0.079,-0.699 0.084,-0.712 0.093,-0.721C0.102,-0.73 0.113,-0.734 0.127,-0.734C0.14,-0.734 0.151,-0.729 0.161,-0.721C0.17,-0.712 0.175,-0.698 0.175,-0.68C0.175,-0.662 0.17,-0.648 0.161,-0.639C0.151,-0.63 0.14,-0.626 0.127,-0.626C0.113,-0.626 0.102,-0.63 0.093,-0.639C0.084,-0.648 0.079,-0.662 0.079,-0.68Z" style="fill:rgb(26,26,31);fill-rule:nonzero;"/>
                    </g>
                    <g transform="matrix(17.7103,0,0,102.098,676.466,320.649)">
                        <path d="M0.3,0.01C0.222,0.01 0.162,-0.014 0.12,-0.062C0.077,-0.109 0.056,-0.177 0.056,-0.264C0.056,-0.354 0.078,-0.423 0.121,-0.472C0.164,-0.521 0.225,-0.545 0.305,-0.545C0.331,-0.545 0.357,-0.542 0.382,-0.537C0.408,-0.531 0.428,-0.525 0.443,-0.517L0.418,-0.448C0.4,-0.455 0.381,-0.461 0.359,-0.466C0.338,-0.471 0.319,-0.473 0.303,-0.473C0.194,-0.473 0.14,-0.404 0.14,-0.265C0.14,-0.199 0.153,-0.149 0.18,-0.114C0.206,-0.079 0.246,-0.061 0.298,-0.061C0.342,-0.061 0.388,-0.071 0.435,-0.09L0.435,-0.018C0.399,0 0.354,0.01 0.3,0.01Z" style="fill:rgb(26,26,31);fill-rule:nonzero;"/>
                    </g>
                    <g transform="matrix(17.7103,0,0,102.098,684.898,320.649)">
                        <path d="M0.312,0.01C0.233,0.01 0.17,-0.014 0.125,-0.063C0.079,-0.111 0.056,-0.178 0.056,-0.263C0.056,-0.349 0.077,-0.418 0.12,-0.469C0.162,-0.52 0.219,-0.545 0.291,-0.545C0.358,-0.545 0.411,-0.523 0.45,-0.479C0.489,-0.435 0.509,-0.376 0.509,-0.304L0.509,-0.253L0.14,-0.253C0.142,-0.19 0.158,-0.142 0.188,-0.11C0.218,-0.077 0.26,-0.061 0.315,-0.061C0.373,-0.061 0.43,-0.073 0.486,-0.097L0.486,-0.025C0.457,-0.013 0.43,-0.004 0.405,0.002C0.379,0.007 0.348,0.01 0.312,0.01ZM0.29,-0.477C0.247,-0.477 0.213,-0.463 0.187,-0.435C0.162,-0.407 0.147,-0.368 0.142,-0.319L0.422,-0.319C0.422,-0.37 0.41,-0.409 0.388,-0.436C0.365,-0.463 0.332,-0.477 0.29,-0.477Z" style="fill:rgb(26,26,31);fill-rule:nonzero;"/>
                    </g>
                </g>
                <g transform="matrix(0.43146,0,0,0.324557,171.181,395.229)">
                    <g transform="matrix(97.3439,0,0,129.407,204.678,291.102)">
                        <path d="M0.537,0L0.466,-0.198L0.193,-0.198L0.123,0L0,0L0.267,-0.717L0.394,-0.717L0.661,0L0.537,0ZM0.435,-0.299L0.368,-0.493C0.363,-0.506 0.357,-0.527 0.348,-0.555C0.339,-0.583 0.333,-0.603 0.33,-0.616C0.321,-0.576 0.308,-0.532 0.292,-0.485L0.227,-0.299L0.435,-0.299Z" style="fill:rgb(26,26,31);fill-rule:nonzero;"/>
                    </g>
                    <g transform="matrix(97.3439,0,0,129.407,269.035,291.102)">
                        <path d="M0.443,0L0.033,0L0.033,-0.071L0.306,-0.452L0.05,-0.452L0.05,-0.54L0.435,-0.54L0.435,-0.46L0.168,-0.088L0.443,-0.088L0.443,0Z" style="fill:rgb(26,26,31);fill-rule:nonzero;"/>
                    </g>
                    <g transform="matrix(97.3439,0,0,129.407,315.568,291.102)">
                        <path d="M0.463,0L0.447,-0.071L0.441,-0.071C0.425,-0.046 0.402,-0.026 0.373,-0.012C0.343,0.003 0.31,0.01 0.272,0.01C0.207,0.01 0.158,-0.007 0.125,-0.039C0.093,-0.072 0.077,-0.121 0.077,-0.187L0.077,-0.54L0.193,-0.54L0.193,-0.207C0.193,-0.166 0.201,-0.135 0.218,-0.114C0.235,-0.093 0.262,-0.083 0.298,-0.083C0.346,-0.083 0.381,-0.097 0.404,-0.126C0.427,-0.155 0.438,-0.203 0.438,-0.271L0.438,-0.54L0.553,-0.54L0.553,0L0.463,0Z" style="fill:rgb(26,26,31);fill-rule:nonzero;"/>
                    </g>
                    <g transform="matrix(97.3439,0,0,129.407,377.359,291.102)">
                        <path d="M0.356,-0.55C0.379,-0.55 0.398,-0.548 0.413,-0.545L0.402,-0.438C0.386,-0.442 0.369,-0.444 0.351,-0.444C0.305,-0.444 0.268,-0.429 0.24,-0.399C0.211,-0.369 0.197,-0.33 0.197,-0.282L0.197,0L0.082,0L0.082,-0.54L0.172,-0.54L0.187,-0.445L0.193,-0.445C0.211,-0.477 0.234,-0.503 0.263,-0.521C0.292,-0.54 0.323,-0.55 0.356,-0.55Z" style="fill:rgb(26,26,31);fill-rule:nonzero;"/>
                    </g>
                    <g transform="matrix(97.3439,0,0,129.407,417.38,291.102)">
                        <path d="M0.318,0.01C0.234,0.01 0.168,-0.015 0.121,-0.064C0.073,-0.113 0.05,-0.18 0.05,-0.266C0.05,-0.354 0.072,-0.424 0.116,-0.474C0.16,-0.525 0.22,-0.55 0.297,-0.55C0.368,-0.55 0.424,-0.528 0.466,-0.485C0.507,-0.442 0.528,-0.382 0.528,-0.306L0.528,-0.244L0.168,-0.244C0.17,-0.192 0.184,-0.151 0.21,-0.123C0.237,-0.095 0.275,-0.081 0.323,-0.081C0.355,-0.081 0.385,-0.084 0.412,-0.09C0.44,-0.096 0.469,-0.106 0.501,-0.12L0.501,-0.027C0.473,-0.014 0.445,-0.004 0.416,0.001C0.387,0.007 0.355,0.01 0.318,0.01ZM0.297,-0.463C0.26,-0.463 0.231,-0.451 0.209,-0.428C0.187,-0.405 0.174,-0.371 0.17,-0.327L0.415,-0.327C0.414,-0.372 0.404,-0.406 0.383,-0.428C0.362,-0.451 0.333,-0.463 0.297,-0.463Z" style="fill:rgb(26,26,31);fill-rule:nonzero;"/>
                    </g>
                </g>
                <g transform="matrix(7.28982,0,0,7.28982,250.562,320.081)">
                    <path d="M5.8,1.22L2.94,1.75L2.94,5.65L5.8,6.26L8.67,5.11L8.67,2.2L5.8,1.22Z" style="fill:url(#_Linear1);fill-rule:nonzero;"/>
                    <path d="M5.91,6.2L8.53,5.14C8.59,5.116 8.635,5.063 8.65,5L8.65,2.36C8.645,2.28 8.594,2.21 8.52,2.18L5.87,1.28L5.75,1.28L3.15,1.76C3.067,1.781 3.006,1.854 3,1.94L3,5.47C2.998,5.561 3.061,5.641 3.15,5.66L5.78,6.21C5.824,6.216 5.868,6.212 5.91,6.2Z" style="fill:none;fill-rule:nonzero;"/>
                    <path d="M2.94,1.75L2.94,5.65L5.83,6.26L5.83,1.26L2.94,1.75ZM4.16,5.35L3.35,5.19L3.35,2.19L4.16,2.06L4.16,5.35ZM5.42,5.58L4.49,5.43L4.49,2L5.42,1.84L5.42,5.58Z" style="fill:rgb(52,26,110);fill-rule:nonzero;"/>
                    <path d="M11.99,1.27L9.13,1.8L9.13,5.7L11.99,6.31L14.85,5.15L14.85,2.25L11.99,1.27Z" style="fill:url(#_Linear2);fill-rule:nonzero;"/>
                    <path d="M9.13,1.8L9.13,5.7L12,6.31L12,1.31L9.13,1.8ZM10.34,5.4L9.53,5.24L9.53,2.24L10.34,2.11L10.34,5.4ZM11.6,5.63L10.67,5.48L10.67,2.05L11.6,1.88L11.6,5.63Z" style="fill:rgb(52,26,110);fill-rule:nonzero;"/>
                    <path d="M2.87,6.6L0.01,7.13L0.01,11.03L2.87,11.64L5.74,10.49L5.74,7.58L2.87,6.6Z" style="fill:url(#_Linear3);fill-rule:nonzero;"/>
                    <path d="M0,7.13L0,11L2.89,11.61L2.89,6.61L0,7.13ZM1.21,10.74L0.4,10.57L0.4,7.57L1.21,7.43L1.21,10.74ZM2.48,11L1.55,10.85L1.55,7.38L2.48,7.22L2.48,11Z" style="fill:rgb(52,26,110);fill-rule:nonzero;"/>
                    <path d="M9.04,6.56L6.18,7.09L6.18,10.99L9.04,11.61L11.9,10.45L11.9,7.54L9.04,6.56Z" style="fill:url(#_Linear4);fill-rule:nonzero;"/>
                    <path d="M6.18,7.09L6.18,11L9.06,11.61L9.06,6.61L6.18,7.09ZM7.39,10.7L6.58,10.53L6.58,7.53L7.39,7.39L7.39,10.7ZM8.65,10.92L7.72,10.77L7.72,7.34L8.65,7.18L8.65,10.92Z" style="fill:rgb(52,26,110);fill-rule:nonzero;"/>
                    <path d="M15.21,6.61L12.35,7.14L12.35,11.04L15.21,11.65L18.08,10.5L18.08,7.59L15.21,6.61Z" style="fill:url(#_Linear5);fill-rule:nonzero;"/>
                    <path d="M12.35,7.14L12.35,11L15.24,11.61L15.24,6.61L12.35,7.14ZM13.57,10.75L12.76,10.58L12.76,7.58L13.57,7.44L13.57,10.75ZM14.83,10.97L13.9,10.82L13.9,7.39L14.83,7.23L14.83,10.97Z" style="fill:rgb(52,26,110);fill-rule:nonzero;"/>
                    <path d="M5.73,12.04L2.87,12.56L2.87,16.46L5.73,17.08L8.6,15.92L8.6,13.02L5.73,12.04Z" style="fill:url(#_Linear6);fill-rule:nonzero;"/>
                    <path d="M5.84,17L8.45,16C8.525,15.973 8.575,15.9 8.57,15.82L8.57,13.22C8.585,13.125 8.53,13.032 8.44,13L5.8,12.1C5.761,12.085 5.719,12.085 5.68,12.1L3.08,12.57C2.987,12.585 2.919,12.666 2.92,12.76L2.92,16.3C2.918,16.391 2.981,16.471 3.07,16.49L5.7,17C5.746,17.015 5.794,17.015 5.84,17Z" style="fill:none;fill-rule:nonzero;"/>
                    <path d="M2.87,12.56L2.87,16.46L5.76,17.08L5.76,12L2.87,12.56ZM4.09,16.17L3.28,16L3.28,13L4.09,12.86L4.09,16.17ZM5.35,16.4L4.42,16.25L4.42,12.81L5.35,12.65L5.35,16.4Z" style="fill:rgb(52,26,110);fill-rule:nonzero;"/>
                    <path d="M11.91,12.08L9.05,12.61L9.05,16.51L11.91,17.12L14.78,15.97L14.78,13.06L11.91,12.08Z" style="fill:url(#_Linear7);fill-rule:nonzero;"/>
                    <path d="M9.05,12.61L9.05,16.51L11.94,17.12L11.94,12.12L9.05,12.61ZM10.27,16.22L9.46,16.05L9.46,13.05L10.27,12.91L10.27,16.22ZM11.53,16.44L10.6,16.29L10.6,12.86L11.53,12.7L11.53,16.44Z" style="fill:rgb(52,26,110);fill-rule:nonzero;"/>
                </g>
            </g>
        </g>
    </g>
    <defs>
        <linearGradient id="_Linear1" x1="0" y1="0" x2="1" y2="0" gradientUnits="userSpaceOnUse" gradientTransform="matrix(5.73,0,0,5.73,2.94,3.74)"><stop offset="0" style="stop-color:rgb(183,122,244);stop-opacity:1"/><stop offset="1" style="stop-color:rgb(119,58,220);stop-opacity:1"/></linearGradient>
        <linearGradient id="_Linear2" x1="0" y1="0" x2="1" y2="0" gradientUnits="userSpaceOnUse" gradientTransform="matrix(5.72,0,0,5.72,9.13,3.79)"><stop offset="0" style="stop-color:rgb(183,122,244);stop-opacity:1"/><stop offset="1" style="stop-color:rgb(119,58,220);stop-opacity:1"/></linearGradient>
        <linearGradient id="_Linear3" x1="0" y1="0" x2="1" y2="0" gradientUnits="userSpaceOnUse" gradientTransform="matrix(5.72,0,0,5.72,0.01,9.12)"><stop offset="0" style="stop-color:rgb(183,122,244);stop-opacity:1"/><stop offset="1" style="stop-color:rgb(119,58,220);stop-opacity:1"/></linearGradient>
        <linearGradient id="_Linear4" x1="0" y1="0" x2="1" y2="0" gradientUnits="userSpaceOnUse" gradientTransform="matrix(5.72,0,0,5.72,6.18,9.08)"><stop offset="0" style="stop-color:rgb(183,122,244);stop-opacity:1"/><stop offset="1" style="stop-color:rgb(119,58,220);stop-opacity:1"/></linearGradient>
        <linearGradient id="_Linear5" x1="0" y1="0" x2="1" y2="0" gradientUnits="userSpaceOnUse" gradientTransform="matrix(5.73,0,0,5.73,12.35,9.13)"><stop offset="0" style="stop-color:rgb(183,122,244);stop-opacity:1"/><stop offset="1" style="stop-color:rgb(119,58,220);stop-opacity:1"/></linearGradient>
        <linearGradient id="_Linear6" x1="0" y1="0" x2="1" y2="0" gradientUnits="userSpaceOnUse" gradientTransform="matrix(5.73,0,0,5.73,2.87,14.56)"><stop offset="0" style="stop-color:rgb(183,122,244);stop-opacity:1"/><stop offset="1" style="stop-color:rgb(119,58,220);stop-opacity:1"/></linearGradient>
        <linearGradient id="_Linear7" x1="0" y1="0" x2="1" y2="0" gradientUnits="userSpaceOnUse" gradientTransform="matrix(5.73,0,0,5.73,9.05,14.6)"><stop offset="0" style="stop-color:rgb(183,122,244);stop-opacity:1"/><stop offset="1" style="stop-color:rgb(119,58,220);stop-opacity:1"/></linearGradient>
    </defs>
</svg>
