<svg xmlns="http://www.w3.org/2000/svg" width="474.551" height="28.244" viewBox="0 0 474.551 28.244">
  <g id="Group_5" data-name="Group 5" transform="translate(-78.155 -286.378)">
    <g id="Group_1" data-name="Group 1">
      <path id="Path_1" data-name="Path 1" d="M112.267,286.941h21.486v2.2H124.3v24.9h-2.581v-24.9h-9.452Z" fill="#fff"/>
      <path id="Path_2" data-name="Path 2" d="M136.3,286.941h2.58V298.71h16.1V286.941h2.581v27.106h-2.581V300.912h-16.1v13.135H136.3Z" fill="#fff"/>
      <path id="Path_3" data-name="Path 3" d="M163.03,286.941h18.716v2.2H165.612v9.795h15.109v2.2H165.612v10.7h16.324v2.2H163.03Z" fill="#fff"/>
    </g>
    <g id="Group_2" data-name="Group 2">
      <path id="Path_4" data-name="Path 4" d="M325.125,286.947h17.2v2.2H327.706v9.794h12.983v2.2H327.706v12.908h-2.581Z" fill="#fff"/>
      <path id="Path_5" data-name="Path 5" d="M356.864,286.378c8.5,0,12.755,6.681,12.755,14.122s-4.252,14.122-12.755,14.122c-8.542,0-12.794-6.681-12.794-14.122S348.322,286.378,356.864,286.378Zm0,26.042c7.137,0,10.174-6,10.174-11.92S364,288.579,356.864,288.579c-7.175,0-10.212,6-10.212,11.921S349.689,312.42,356.864,312.42Z" fill="#fff"/>
      <path id="Path_6" data-name="Path 6" d="M373.383,286.947h2.581v16.78c0,6.264,2.923,8.693,7.934,8.693,5.05,0,7.972-2.429,7.972-8.693v-16.78h2.582V304.3c0,5.581-3,10.326-10.554,10.326-7.478,0-10.515-4.745-10.515-10.326Z" fill="#fff"/>
      <path id="Path_7" data-name="Path 7" d="M399.619,286.947H402.5l15.792,22.93h.076v-22.93h2.582v27.106h-2.885l-15.793-22.93H402.2v22.93h-2.582Z" fill="#fff"/>
      <path id="Path_8" data-name="Path 8" d="M426.387,286.947h9.376c8.2.19,12.453,4.594,12.453,13.553s-4.252,13.363-12.453,13.553h-9.376Zm2.581,24.9h5.505c7.782,0,11.161-3.227,11.161-11.351s-3.379-11.351-11.161-11.351h-5.505Z" fill="#fff"/>
      <path id="Path_9" data-name="Path 9" d="M460.33,286.947h2.885l10.63,27.106h-2.771l-3.3-8.428H455.434l-3.266,8.428H449.4Zm-4.1,16.476H466.9l-5.239-13.894Z" fill="#fff"/>
      <path id="Path_10" data-name="Path 10" d="M470.812,286.947H492.3v2.2h-9.452v24.9h-2.582v-24.9h-9.452Z" fill="#fff"/>
      <path id="Path_11" data-name="Path 11" d="M495.035,286.947h2.582v27.106h-2.582Z" fill="#fff"/>
      <path id="Path_12" data-name="Path 12" d="M514.624,286.378c8.5,0,12.755,6.681,12.755,14.122s-4.251,14.122-12.755,14.122c-8.542,0-12.794-6.681-12.794-14.122S506.082,286.378,514.624,286.378Zm0,26.042c7.137,0,10.174-6,10.174-11.92s-3.037-11.921-10.174-11.921c-7.175,0-10.212,6-10.212,11.921S507.449,312.42,514.624,312.42Z" fill="#fff"/>
      <path id="Path_13" data-name="Path 13" d="M531.371,286.947h2.885l15.792,22.93h.076v-22.93h2.582v27.106h-2.885l-15.793-22.93h-.075v22.93h-2.582Z" fill="#fff"/>
    </g>
    <g id="Group_3" data-name="Group 3">
      <path id="Path_14" data-name="Path 14" d="M189.086,286.941H197.4v20.071h11.945v6.917h-20.26Z" fill="#fff"/>
      <path id="Path_15" data-name="Path 15" d="M214.786,286.941H223.1v26.988h-8.316Z" fill="#fff"/>
      <path id="Path_16" data-name="Path 16" d="M229.3,286.941h8.5l7.862,14.439h.076V286.941H253.6v26.988h-8.089l-8.278-14.741h-.076v14.741H229.3Z" fill="#fff"/>
      <path id="Path_17" data-name="Path 17" d="M284.33,303.5c0,7.522-3.968,11.075-12.284,11.075s-12.322-3.553-12.322-11.075V286.941h8.316v14.7c0,2.721-.038,6.2,4.044,6.2,3.931,0,3.931-3.478,3.931-6.2v-14.7h8.315Z" fill="#fff"/>
      <path id="Path_18" data-name="Path 18" d="M297.558,299.566l-8.883-12.625h9.752l4.082,7.333,4.006-7.333h9.223l-8.655,12.7,9.638,14.287H306.7l-4.611-8.051-4.763,8.051H287.8Z" fill="#fff"/>
    </g>
    <g id="Group_4" data-name="Group 4">
      <path id="Path_19" data-name="Path 19" d="M83.587,308.636V297.793H78.155v16.266H94.427v-5.423Z" fill="#fff" opacity="0.8"/>
      <path id="Path_20" data-name="Path 20" d="M105.267,286.941H78.159v8.135h5.421v-2.688H99.846v16.248H97.139v5.423h8.128Z" fill="#fff"/>
    </g>
  </g>
</svg>
