<svg xmlns="http://www.w3.org/2000/svg" width="316.036" height="103.956" viewBox="0 0 316.036 103.956">
  <g id="Group_5" data-name="Group 5" transform="translate(-142.923 -248.143)">
    <g id="Group_1" data-name="Group 1">
      <path id="Path_1" data-name="Path 1" d="M264.333,248.535h18.233V250.4h-8.022v21.132h-2.19V250.4h-8.021Z" fill="#1a1818"/>
      <path id="Path_2" data-name="Path 2" d="M284.727,248.535h2.19v9.986h13.659v-9.986h2.19v23h-2.19V260.389H286.917v11.146h-2.19Z" fill="#1a1818"/>
      <path id="Path_3" data-name="Path 3" d="M307.409,248.535H323.29V250.4H309.6v8.312h12.822v1.868H309.6v9.084h13.853v1.868H307.409Z" fill="#1a1818"/>
    </g>
    <g id="Group_2" data-name="Group 2">
      <path id="Path_4" data-name="Path 4" d="M264.333,328.615h14.593v1.869h-12.4V338.8H277.54v1.869H266.523v10.952h-2.19Z" fill="#1a1818"/>
      <path id="Path_5" data-name="Path 5" d="M291.265,328.132c7.216,0,10.824,5.67,10.824,11.984S298.481,352.1,291.265,352.1c-7.248,0-10.856-5.669-10.856-11.983S284.017,328.132,291.265,328.132Zm0,22.1c6.056,0,8.634-5.09,8.634-10.115S297.321,330,291.265,330c-6.088,0-8.665,5.09-8.665,10.115S285.177,350.231,291.265,350.231Z" fill="#1a1818"/>
      <path id="Path_6" data-name="Path 6" d="M305.283,328.615h2.19v14.239c0,5.315,2.48,7.377,6.733,7.377,4.285,0,6.764-2.062,6.764-7.377V328.615h2.191v14.722c0,4.736-2.545,8.762-8.955,8.762-6.346,0-8.923-4.026-8.923-8.762Z" fill="#1a1818"/>
      <path id="Path_7" data-name="Path 7" d="M327.546,328.615h2.448l13.4,19.458h.065V328.615h2.19v23H343.2l-13.4-19.457h-.064v19.457h-2.19Z" fill="#1a1818"/>
      <path id="Path_8" data-name="Path 8" d="M350.26,328.615h7.956c6.959.162,10.567,3.9,10.567,11.5s-3.608,11.339-10.567,11.5H350.26Zm2.19,21.133h4.671c6.6,0,9.471-2.739,9.471-9.632s-2.867-9.632-9.471-9.632H352.45Z" fill="#1a1818"/>
      <path id="Path_9" data-name="Path 9" d="M379.063,328.615h2.448l9.02,23h-2.352l-2.8-7.151H374.908l-2.771,7.151h-2.352ZM375.584,342.6h9.052l-4.446-11.79Z" fill="#1a1818"/>
      <path id="Path_10" data-name="Path 10" d="M387.957,328.615H406.19v1.869h-8.021v21.132h-2.191V330.484h-8.021Z" fill="#1a1818"/>
      <path id="Path_11" data-name="Path 11" d="M408.512,328.615h2.19v23h-2.19Z" fill="#1a1818"/>
      <path id="Path_12" data-name="Path 12" d="M425.134,328.132c7.216,0,10.824,5.67,10.824,11.984S432.35,352.1,425.134,352.1c-7.248,0-10.856-5.669-10.856-11.983S417.886,328.132,425.134,328.132Zm0,22.1c6.056,0,8.633-5.09,8.633-10.115S431.19,330,425.134,330c-6.088,0-8.665,5.09-8.665,10.115S419.046,350.231,425.134,350.231Z" fill="#1a1818"/>
      <path id="Path_13" data-name="Path 13" d="M439.345,328.615h2.448l13.4,19.458h.064V328.615h2.19v23H455l-13.4-19.457h-.065v19.457h-2.19Z" fill="#1a1818"/>
    </g>
    <g id="Group_3" data-name="Group 3">
      <path id="Path_14" data-name="Path 14" d="M264.333,278.386h12.681v30.605h18.213v10.547H264.333Z" fill="#1a1818"/>
      <path id="Path_15" data-name="Path 15" d="M303.523,278.386H316.2v41.152h-12.68Z" fill="#1a1818"/>
      <path id="Path_16" data-name="Path 16" d="M325.654,278.386h12.968L350.611,300.4h.115V278.386h11.988v41.152H350.38L337.758,297.06h-.116v22.478H325.654Z" fill="#1a1818"/>
      <path id="Path_17" data-name="Path 17" d="M409.568,303.631c0,11.469-6.051,16.887-18.731,16.887s-18.79-5.418-18.79-16.887V278.386h12.68v22.42c0,4.15-.057,9.453,6.167,9.453,5.995,0,5.995-5.3,5.995-9.453v-22.42h12.679Z" fill="#1a1818"/>
      <path id="Path_18" data-name="Path 18" d="M429.738,297.636l-13.545-19.25h14.87l6.225,11.181,6.109-11.181h14.064l-13.2,19.366,14.7,21.786H443.685l-7.031-12.276-7.262,12.276H414.867Z" fill="#1a1818"/>
    </g>
    <g id="Group_4" data-name="Group 4">
      <path id="Path_19" data-name="Path 19" d="M163.651,330.924V289.55H142.923v62.066h62.091V330.924Z" fill="#464749"/>
      <path id="Path_20" data-name="Path 20" d="M246.376,248.143H142.937v31.04h20.684V268.924h62.072v62H215.362v20.692h31.014Z" fill="#1a1818"/>
    </g>
  </g>
</svg>
