<?xml version="1.0" encoding="UTF-8"?>
<svg width="64px" height="64px" viewBox="0 0 64 64" version="1.1" xmlns="http://www.w3.org/2000/svg" xmlns:xlink="http://www.w3.org/1999/xlink">
    <!-- Generator: Sketch 63.1 (92452) - https://sketch.com -->
    <title>elastic-search-logo-white-64px</title>
    <desc>Created with Sketch.</desc>
    <g id="elastic-search-logo-white-64px" stroke="none" stroke-width="1" fill="none" fill-rule="evenodd">
        <rect id="bounding-box" x="0" y="0" width="64" height="64"></rect>
        <path d="M55.7246,14.7075 L55.7276,14.7015 C50.7746,8.7735 43.3286,4.9995 34.9996,4.9995 C24.4006,4.9995 15.2326,11.1115 10.8136,19.9995 L46.0056,19.9995 C48.5306,19.9995 50.9886,19.1295 52.9206,17.5035 C53.9246,16.6585 54.8636,15.7385 55.7246,14.7075" id="Fill-1" fill="#FFFFFF"></path>
        <path d="M8,32 C8,34.422 8.324,36.767 8.922,39 L42,39 C45.866,39 49,35.866 49,32 C49,28.134 45.866,25 42,25 L8.922,25 C8.324,27.233 8,29.578 8,32" id="Fill-4" fill="#FFFFFF"></path>
        <path d="M55.7246,49.2925 L55.7276,49.2985 C50.7746,55.2265 43.3286,59.0005 34.9996,59.0005 C24.4006,59.0005 15.2326,52.8885 10.8136,44.0005 L46.0056,44.0005 C48.5306,44.0005 50.9886,44.8705 52.9206,46.4965 C53.9246,47.3415 54.8636,48.2615 55.7246,49.2925" id="Fill-6" fill="#FFFFFF"></path>
    </g>
</svg>