<svg enable-background="new 0 0 886.1 301.1" viewBox="0 0 886.1 301.1" xmlns="http://www.w3.org/2000/svg"><g fill="#fff"><path d="m869.7 81.1c-10.9-10.7-25.4-16-43.3-16.1-16.4-.1-32 6.5-43.5 18.2-12 12.2-18.1 28-18.1 47.5 0 19.9 5.5 35.4 16.5 46.4 11 11.1 26 16.6 44.9 16.6 20.2 0 35.5-4.1 45.7-12.4l-11.2-22.2c-6.9 6.9-16.9 10.3-30.1 10.3-10.6 0-19-2.7-25.3-8.2s-9.6-13.2-10.2-23.1h88.7c1.3-5.3 2.3-10.7 2.4-16.1.3-16.5-5.6-30.2-16.5-40.9zm-73.7 35.3c4-18.2 14.3-27.2 30.8-27.2 18.1 0 28.1 9.1 30.1 27.2z"/><path d="m408.9 101.7c3-3.8 6.9-6.7 11.3-8.9 4.3-2.1 8.9-3.5 13.6-3.6 9.2-.1 15.8 2.4 19.9 7.3s6.1 12.6 6.1 23.2v71.7h29v-76.1c0-15.8-4.3-28.2-12.8-37s-20.3-13.3-35.1-13.3c-15.4 0-27.1 4.7-34.9 14l-5.2-11.6h-20.9v124h29z"/><path d="m607.6 176.2c10.6-11.6 16-27.4 15.9-47.2 0-19.8-5.3-35.5-15.7-46.9s-25-17.1-43.9-17.1c-17.9 0-32.4 5.9-43.3 17.8s-16.4 27.3-16.4 46.2c0 19.5 5.3 35.2 15.7 47s25.1 17.7 44 17.7c18.6 0 33.1-5.8 43.7-17.5zm-22.2-16.8c-5 6.9-13 10.8-21.5 10.7-19.7-.3-29.5-13.7-29.5-41 0-12.8 2.7-22.6 8-29.8 5-6.9 13-10.8 21.5-10.6 19.6.4 29.3 13.5 29.4 40.4.1 13.1-2.6 23.1-7.9 30.3z"/><path d="m326.5 191.4h29.3v-124.1h-45.2v23.7h15.9z"/><path d="m284.9 193.7c10.8 0 18.5-4.2 22.9-12.8-9.1-2.9-13.7-12.1-13.7-27.3v-139.5l-29 7v145.3c.1 18.2 6.7 27.3 19.8 27.3z"/><path d="m341.4 52.8c9.3 0 16.8-7.5 16.8-16.8s-7.5-16.8-16.8-16.8-16.8 7.5-16.8 16.8 7.5 16.8 16.8 16.8z"/><path d="m708.6 190.8c5.8-2 9.8-4.3 12.2-6.9v7.5h28.9v-177.3l-29 7v49.7c-8-3.9-16.8-5.8-25.7-5.8-16.3-.1-31.8 6.5-42.8 18.5-11.3 12.4-17.1 28.3-17.1 47.9s5 34.9 14.9 45.9 23.5 16.6 40.8 16.5c6.1-.1 12.1-1.1 17.8-3zm-43.3-60.2c0-13.2 3.2-23.3 9.4-30.4s15.1-10.7 26.8-10.6c7.1.1 13.9 2.8 19.3 7.4v64.8c-1.2 1.7-3.9 3.3-7.9 5-3.2 1.4-6.7 2.4-10.3 2.5-24.8.6-37.3-12.9-37.3-38.7z"/><path d="m188.8 241-21.1 43.7h11.5l3.5-7.5h14.8l.6 7.5h11.2l-3.8-43.7zm-2.1 27.7 8.9-19 1.4 19z"/><path d="m237 254.1-7.9 11.5h-1.7l5-24.6h-9.4l-8.8 43.7h9.4l2.5-12.5h1.6l4.5 12.5h11l-6.8-15.9 11-14.7z"/><path d="m266.3 253.8c-6.7 0-9.5.6-11.8 2.7-1.6 1.5-2.3 3.2-3 6.7h9.5c.7-2.7 1.5-3.3 4.3-3.3 2.5 0 3.8.8 3.8 2.4 0 .5-.1 1-.2 1.6l-1.2 6h-.2c-.6-3.1-1.9-3.8-7.4-3.8-4.6 0-7.8 1.2-9.8 3.5-1.6 1.9-2.8 6-2.8 9.4 0 4.3 2.5 6 8.5 6 5.4 0 7.7-1.2 9.8-5.3h.2l-1.3 5h9.4l4-19.9c.2-.9.4-3.6.4-4.7 0-1.4-.5-2.8-1.2-3.6-1.9-2.1-4.7-2.7-11-2.7zm-.3 23.2c-.7 1-1.8 1.4-4.1 1.4-3.6 0-4.6-.5-4.6-2.1 0-3.1 1.5-4.3 5.2-4.3 3.1 0 4.4.6 4.4 1.9-.1.9-.5 2.5-.9 3.1z"/><path d="m323.3 253.8c-4.9 0-8.2 2-9.7 6.2h-.2c.1-.5.2-1.1.2-1.4 0-3.1-2.7-4.8-7.4-4.8-4.6 0-7.5 1.6-9.3 5.1h-.1l1.2-4.8h-9.4l-6.1 30.6h9.4l3.6-18.1c.7-3.5 2.3-5 5.6-5 1.9 0 2.8.7 2.8 2.2 0 .5-.1 1.2-.4 2.8l-3.6 18.1h9.4l3.6-18.1c.2-1.3.8-2.7 1.2-3.2.8-1 2.5-1.8 4.3-1.8 2 0 3 .8 2.9 2.4 0 .9-.2 2.8-.4 3.5l-3.4 17.2h9.4l4.1-20.5c.3-1.5.5-3.1.5-4.3-.3-4-3.1-6.1-8.2-6.1z"/><path d="m354.1 253.8c-6.7 0-9.5.6-11.8 2.7-1.6 1.5-2.3 3.2-3 6.7h9.5c.7-2.7 1.5-3.3 4.3-3.3 2.5 0 3.8.8 3.8 2.4 0 .5-.1 1-.2 1.6l-1.2 6h-.2c-.6-3.1-1.9-3.8-7.4-3.8-4.6 0-7.8 1.2-9.8 3.5-1.6 1.9-2.8 6-2.8 9.4 0 4.3 2.5 6 8.5 6 5.4 0 7.7-1.2 9.8-5.3h.2l-1.3 5h9.4l4-19.9c.2-.9.4-3.6.4-4.7 0-1.4-.5-2.8-1.2-3.6-1.9-2.1-4.7-2.7-11-2.7zm-.4 23.2c-.7 1-1.8 1.4-4.1 1.4-3.6 0-4.6-.5-4.6-2.1 0-3.1 1.5-4.3 5.2-4.3 3.1 0 4.4.6 4.4 1.9 0 .9-.4 2.5-.9 3.1z"/><path d="m377.5 248.4h9.3l1.5-7.4h-9.4z"/><path d="m370.2 284.7h9.4l6.1-30.6h-9.4z"/><path d="m433.2 240.6c-5.1 0-7.6.1-9.8.5-4.2.8-7.5 2.9-9.6 6.2-1.4 2.1-2.3 4.9-3.6 10.9-1.5 6.8-2.7 15.1-2.7 17.5 0 2.9.9 5.5 2.4 6.8 2.4 2.1 4.8 2.6 11.9 2.6 8.5 0 11.3-.5 14.2-2.4 3.1-2.1 4.2-4.6 5.7-11.5.1-.3.2-.9.3-1.6h-6.2c-1.6 8.9-2.6 9.7-12.4 9.7-7.4 0-9.1-.9-9.1-4.9 0-2.4.3-4.5 1.7-11.4 1.4-7.2 1.7-8.8 2.3-10.8 1.5-4.8 3.6-5.8 13.2-5.8 5.9 0 7.4.8 7.4 3.7 0 1.1-.1 2-.6 4.8h6.3c.6-3.7.8-5.2.8-6.5 0-2.3-.5-3.9-1.5-5.2-1.8-2-4.2-2.6-10.7-2.6z"/><path d="m446.3 284.7h5.6l8.8-43.7h-5.7z"/><path d="m488.8 255.5c-1.6-1.3-4-1.8-9.1-1.8-3.1 0-5.5.2-7.1.7-3.5 1.1-5.9 3.5-7.3 7.5-1.5 4.4-3 12.2-3 15.4 0 2.7.7 4.9 2.2 6 1.6 1.2 4.1 1.8 9.2 1.8 9.8 0 12.8-2.4 15.3-11.7 1.2-4.5 2.1-9.6 2-12.2-.1-2.5-.9-4.6-2.2-5.7zm-6.1 19.1c-1.2 4.5-3 5.6-8.2 5.6-5.1 0-6.3-.8-6.3-4.2 0-2.2 1.3-8.7 2.4-12.5 1.2-3.9 2.8-5 8-5 5.1 0 6.3.8 6.3 4.1 0 2-1 7.8-2.2 12z"/><path d="m516.7 271.2c-1.4 6.9-3.6 9-9.5 9-3.4 0-4.8-.9-4.8-3.2 0-.7.1-1.8.4-3.3l4-19.5h-5.7l-4.1 20.4c-.3 1.5-.4 2.9-.4 4.1 0 4.3 2.8 6.5 8.2 6.5 5.1 0 8.3-1.6 10.4-5.1l.1.1-1.3 4.7h5.7l6.1-30.6h-5.7z"/><path d="m553.5 258.1-.1.1c-.5-3.1-2.9-4.5-8-4.5-7.6 0-11.2 3.2-13.3 11.5-1.2 4.8-2 9.8-2 12.6 0 5 3 7.3 9.4 7.3 4.9 0 7.8-1.4 9.9-4.9l.1.1-1.1 4.5h5.6l8.8-43.7h-5.8zm-3.6 16.6c-1.2 4.1-3.3 5.5-8 5.5-4.4 0-5.8-1.1-5.8-4.6 0-2.4 1-7.8 2.2-11.6 1.3-4.1 3.2-5.4 7.8-5.4 4.4 0 6.2 1.3 6.1 4.8-.1 2.2-1.1 7.3-2.3 11.3z"/><path d="m608 240.6c-5.1 0-7.6.1-9.8.5-4.2.8-7.5 2.9-9.6 6.2-1.4 2.1-2.3 4.9-3.6 10.9-1.5 6.8-2.7 15.1-2.7 17.5 0 2.9.9 5.5 2.4 6.8 2.4 2.1 4.8 2.6 11.9 2.6 8.5 0 11.3-.5 14.2-2.4 3.1-2.1 4.2-4.6 5.7-11.5.1-.3.2-.9.3-1.6h-6.2c-1.6 8.9-2.6 9.7-12.4 9.7-7.4 0-9.1-.9-9.1-4.9 0-2.4.3-4.5 1.7-11.4 1.4-7.2 1.7-8.8 2.3-10.8 1.5-4.8 3.6-5.8 13.2-5.8 5.9 0 7.4.8 7.4 3.7 0 1.1-.1 2-.6 4.8h6.3c.6-3.7.8-5.2.8-6.5 0-2.3-.5-3.9-1.5-5.2-1.8-2-4.2-2.6-10.7-2.6z"/><path d="m648.5 255.5c-1.6-1.3-4-1.8-9.1-1.8-3.2 0-5.5.2-7.1.7-3.5 1.1-5.9 3.5-7.3 7.5-1.5 4.4-3 12.2-3 15.4 0 2.7.7 4.9 2.2 6 1.6 1.2 4.1 1.8 9.2 1.8 9.8 0 12.8-2.4 15.3-11.7 1.2-4.5 2-9.6 2-12.2 0-2.5-.9-4.6-2.2-5.7zm-6.1 19.1c-1.2 4.5-3 5.6-8.2 5.6-5.1 0-6.3-.8-6.3-4.2 0-2.2 1.3-8.7 2.4-12.5 1.2-3.9 2.8-5 8-5 5.1 0 6.2.8 6.3 4.1.1 2-1 7.8-2.2 12z"/><path d="m694.1 253.7c-5.1 0-8.2 1.6-10.6 5.4h-.1c-.1-3.5-2.7-5.4-7.7-5.4-4.8 0-7.7 1.4-10.1 5.1l-.1-.1 1.1-4.7h-5.7l-6.1 30.6h5.7l3.5-17.6c1.2-6.1 3.8-8.5 9.2-8.5 3.2 0 4.8 1 4.8 2.9 0 .5-.2 2.3-.6 3.6l-3.9 19.5h5.7l3.6-17.8c.5-2.4 1-4.1 1.7-5.2 1.2-1.9 3.9-3 7.5-3 3.3 0 4.6.9 4.6 3.2 0 .6-.2 2.2-.4 3.3l-3.9 19.5h5.7l4-20.1c.4-2 .6-3.1.6-4.3-.1-4.4-2.8-6.4-8.5-6.4z"/><path d="m727.6 253.7c-4.9 0-7.7 1.3-10 4.8l-.1-.1 1.2-4.3h-5.7l-8.8 43.7h5.7l3.5-17.3.1-.1c.5 3.3 2.9 4.7 8.3 4.7 7.4 0 10.8-2.9 13-10.9 1.3-4.6 2.2-9.8 2.2-12.8 0-5.3-3-7.7-9.4-7.7zm1.4 20.2c-1.3 4.6-3.3 6.2-8.1 6.2-4.3 0-6.1-1.4-6.1-4.9 0-2.4 1.4-9.2 2.4-11.9 1.4-3.6 3.2-4.7 7.8-4.7 4.4 0 5.8 1.1 5.8 4.5.2 2.1-.8 7-1.8 10.8z"/><path d="m762.8 271.2c-1.4 6.9-3.6 9-9.5 9-3.4 0-4.8-.9-4.8-3.2 0-.7.1-1.8.4-3.3l4-19.5h-5.7l-4.1 20.4c-.3 1.5-.4 2.9-.4 4.1 0 4.3 2.8 6.5 8.2 6.5 5.1 0 8.3-1.6 10.4-5.1l.1.1-1.3 4.7h5.7l6.1-30.6h-5.7z"/><path d="m788.6 247h-5.7l-1.4 7.1h-3.8l-1 4.7h3.9l-3.5 17.5c-.4 2.2-.5 2.8-.5 3.8 0 3.4 2.3 5 7.5 5 4.8 0 7.3-1.2 9.3-4.3 1-1.6 1.4-2.9 2.2-7.5h-4.9c-.2 1.6-.5 2.8-.9 4-.8 2.3-1.7 2.9-4.2 2.9-2.2 0-2.9-.5-2.9-2.2 0-.5.1-1.4.3-2.4l3.4-16.9h11.1l.9-4.7h-11.1z"/><path d="m799.2 284.7h5.6l6.2-30.6h-5.7z"/><path d="m806.8 246.7h5.6l1.2-5.7h-5.7z"/><path d="m835.1 253.7c-4.9 0-8.2 1.6-10.2 5.2l-.1-.1 1.1-4.7h-5.7l-6.1 30.6h5.7l3.6-18.3c1.1-5.5 3.9-7.8 9.5-7.8 3.7 0 5.1.9 5.1 3.4 0 .9-.1 1.4-.6 3.7l-3.8 18.9h5.7l4.1-20.4c.5-2.8.6-3.5.6-4.8 0-3.7-3-5.7-8.9-5.7z"/><path d="m873.2 258.7-.1.1c-.8-3.7-3-5-8-5-3 0-5.6.6-7.5 1.6-3.1 1.7-4.7 4.3-6.1 9.6-1.3 5-2.1 9.8-2.1 12.3 0 5.2 3.1 7.7 9.2 7.7 5.1 0 8-1.4 9.9-4.6h.1l-1.3 6.6c-1 5-3 6.6-8.4 6.6-4.5 0-5.9-.7-5.9-2.8 0-.8.1-1.2.3-2.6h-5.4c-.4 2.2-.6 3.1-.6 4.4 0 4.1 3 5.8 10.1 5.8 10.3 0 13.9-2.9 15.8-12.4l6.4-31.8h-5.7zm-3.7 15.4c-1.2 4.3-3.5 6-8.3 6-4.4 0-5.8-1.1-5.8-4.4 0-2 1-7.5 2-11.3 1.2-4.3 3.2-5.8 8-5.8 4.6 0 6.1 1.2 6.1 4.8 0 1.8-1 7.2-2 10.7z"/><path d="m159.9 83.4-26.7 16.5-.2 16.7-13.1-8.5-17.7 11c1.4 27.9 1.2 26.8 1.3 26.8l-43.5 29.6-7-46.7 48.4-28-18.4-12.1-33.5 17.6-9.8-64.2 57.7-22.5-41.4-19.6-56 17.9 12.9 60.3 18.9 14.5-14.2 6.9 9.7 45.6 13.2 12.2-9.4 5.8 7.6 35.2 29.7 30.9c-5.6-36.4-5.5-35.2-5.3-35.2v-.1l34.6-25 .1.1c7.7-5.5 6.8-4.9 6.8-4.9l.5 11 15.2 12.6-.6-34.8 32.7-23.7-.9 16.1 11.3 7.8 2.8-33.5 26.3-19z"/></g></svg>