<?xml version="1.0" encoding="UTF-8"?>
<svg width="193px" height="230px" viewBox="0 0 193 230" version="1.1" xmlns="http://www.w3.org/2000/svg" xmlns:xlink="http://www.w3.org/1999/xlink">
    <title>linode-stacked-color-black</title>
    <g id="Page-1" stroke="none" stroke-width="1" fill="none" fill-rule="evenodd">
        <g id="linode-stacked-color-black" transform="translate(0.799400, 0.000000)" fill-rule="nonzero">
            <path d="M191.578,101.7032 L159.7619,84.1091 L132.9078,100.4976 L132.5758,117.253 L119.5244,108.6569 L101.7731,119.4719 L101.0043,101.1615 L82.6939,88.9313 L100.1657,79.8984 C100.0259,79.8984 100.1657,81.6456 97.5799,19.9003 L56.2591,0 L-2.84217094e-14,17.4718 L12.5622,77.9766 L31.4492,92.6005 L17.0874,99.4145 L26.4697,145.0158 L39.6609,157.4033 L30.2261,163.1515 L37.5468,198.4095 L67.144,229.7539 C67.2838,229.5792 70.254,227.2904 105.215,199.4928 L104.2016,175.539 L119.1924,188.2585 C119.4021,188.0488 122.4072,185.8299 149.8728,163.9902 L150.9386,146.2738 L162.2603,154.1361 C162.4525,153.9264 165.0208,151.9521 187.1751,134.3406 L191.578,101.7033 L191.578,101.7032 Z" id="Path" fill="#231F20"></path>
            <polygon id="Path" fill="#000000" points="165.1782 120.5553 191.578 101.7032 159.7619 84.1091 132.9078 100.4977"></polygon>
            <polygon id="Path" fill="#004B16" points="162.2604 154.1011 165.1782 120.5553 132.9078 100.4977 132.2439 133.2572"></polygon>
            <polygon id="Path" fill="#004B16" points="119.1925 188.2235 119.1925 153.4721 86.5901 128.7495 89.1585 162.8894"></polygon>
            <polygon id="Path" fill="#000000" points="119.1925 153.4721 151.9346 130.0075 119.5244 108.657 86.5901 128.7495"></polygon>
            <polygon id="Path" fill="#004B16" points="67.1441 229.7189 61.9375 194.2163 30.2262 163.1165 37.5469 198.3746"></polygon>
            <polygon id="Path" fill="#000000" points="61.9375 194.2163 103.7125 164.4094 71.3373 138.0445 30.2262 163.1165"></polygon>
            <polygon id="Path" fill="#004B16" points="59.2293 175.7661 52.3455 128.8019 17.0175 99.4319 26.4698 144.9808"></polygon>
            <polygon id="Path" fill="#000000" points="52.3455 128.8019 101.0044 101.1616 64.6631 76.8059 17.0175 99.4319"></polygon>
            <polygon id="Path" fill="#004B16" points="49.0433 106.3682 39.6085 42.0546 2.84217094e-14 17.4892 12.5622 77.9765"></polygon>
            <polygon id="Path" fill="#000000" points="39.6085 42.0546 97.51 19.8654 56.2591 0 0 17.4892"></polygon>
            <path d="M187.1752,134.3055 C162.6798,153.7516 162.1381,154.101 162.2604,154.101 C165.3005,118.9827 165.0384,120.5552 165.1782,120.5552 C193.1331,100.55 191.3859,101.7032 191.5781,101.7032 L187.1752,134.3055 Z" id="Path" fill="#1CB35C"></path>
            <path d="M149.8729,163.9552 C119.5594,188.0663 119.0702,188.2235 119.1925,188.2235 C118.8955,151.8473 119.0702,153.4721 119.1925,153.4721 C154.1361,128.4875 151.8123,130.0075 151.9346,130.0075 L149.8729,163.9552 Z" id="Path" fill="#1CB35C"></path>
            <path d="M105.2152,199.4578 C67.3712,229.5442 67.0218,229.7189 67.1441,229.7189 C61.7803,193.133 61.9023674,194.2162 61.9023674,194.2162 C106.4032,162.4875 103.5903,164.4093 103.7126,164.4093 L105.2152,199.4577 L105.2152,199.4578 Z" id="Path" fill="#1CB35C"></path>
            <path d="M97.51,19.8654 C100.1657,81.6631 99.9561,79.8635 100.0958,79.8635 C50.0217,105.879 48.921,106.3682 49.0433,106.3682 C39.3989,40.6219 39.4862,42.0546 39.6085,42.0546 L97.51,19.8654 L97.51,19.8654 Z" id="Path" fill="#1CB35C"></path>
            <path d="M101.0044,101.1616 C103.0137,148.0034 102.7516,146.3786 102.9438,146.3786 C59.5963,175.5041 59.1071,175.7661 59.2644,175.7661 C52.2757,127.5789 52.2757,128.802 52.3805,128.802 L101.0045,101.1616 L101.0044,101.1616 Z" id="Path" fill="#1CB35C"></path>
        </g>
    </g>
</svg>