<svg viewBox="0 0 689.1767 532.9624" xmlns="http://www.w3.org/2000/svg"><path d="m446.3774 101.7032-31.8161-17.5941-26.8541 16.3885-.332 16.7554-13.0514-8.5961-17.7513 10.815-.7688-18.3104-18.3104-12.2302 17.4718-9.0329c-.1398 0 0 1.7472-2.5858-59.9981l-41.3208-19.9003-56.2591 17.4718 12.5622 60.5048 18.887 14.6239-14.3618 6.814 9.3823 45.6013 13.1912 12.3875-9.4348 5.7482 7.3207 35.258 29.5972 31.3444c.1398-.1747 3.11-2.4635 38.071-30.2611l-1.0134-23.9538 14.9908 12.7195c.2097-.2097 3.2148-2.4286 30.6804-24.2683l1.0658-17.7164 11.3217 7.8623c.1922-.2097 2.7605-2.184 24.9148-19.7955l4.4029-32.6373z" fill="#231f20"/><path d="m419.9776 120.5553 26.3998-18.8521-31.8161-17.5941-26.8541 16.3886z"/><path d="m417.0598 154.1011 2.9178-33.5458-32.2704-20.0576-.6639 32.7595z" fill="#004b16"/><path d="m373.9919 188.2235v-34.7514l-32.6024-24.7226 2.5684 34.1399z" fill="#004b16"/><path d="m373.9919 153.4721 32.7421-23.4646-32.4102-21.3505-32.9343 20.0925z"/><path d="m321.9435 229.7189-5.2066-35.5026-31.7113-31.0998 7.3207 35.2581z" fill="#004b16"/><path d="m316.7369 194.2163 41.775-29.8069-32.3752-26.3649-41.1111 25.072z"/><path d="m314.0287 175.7661-6.8838-46.9642-35.328-29.37 9.4523 45.5489z" fill="#004b16"/><path d="m307.1449 128.8019 48.6589-27.6403-36.3413-24.3557-47.6456 22.626z"/><path d="m303.8427 106.3682-9.4348-64.3136-39.6085-24.5654 12.5622 60.4873z" fill="#004b16"/><path d="m294.4079 42.0546 57.9015-22.1892-41.2509-19.8654-56.2591 17.4892z"/><path d="m441.9746 134.3055c-24.4954 19.4461-25.0371 19.7955-24.9148 19.7955 3.0401-35.1183 2.778-33.5458 2.9178-33.5458 27.9549-20.0052 26.2077-18.852 26.3999-18.852z" fill="#1cb35c"/><path d="m404.6723 163.9552c-30.3135 24.1111-30.8027 24.2683-30.6804 24.2683-.297-36.3762-.1223-34.7514 0-34.7514 34.9436-24.9846 32.6198-23.4646 32.7421-23.4646z" fill="#1cb35c"/><path d="m360.0145 199.4578c-37.8439 30.0864-38.1933 30.2611-38.071 30.2611-5.3638-36.5859-5.2415-35.5027-5.2415-35.5027 44.5006-31.7287 41.6877-29.8069 41.81-29.8069l1.5026 35.0484z" fill="#1cb35c"/><path d="m352.3094 19.8654c2.6557 61.7977 2.4461 59.9981 2.5858 59.9981-50.0741 26.0155-51.1748 26.5047-51.0525 26.5047-9.6444-65.7463-9.5571-64.3136-9.4348-64.3136l57.9015-22.1891z" fill="#1cb35c"/><path d="m355.8038 101.1616c2.0093 46.8418 1.7472 45.217 1.9394 45.217-43.3475 29.1255-43.8367 29.3875-43.6794 29.3875-6.9887-48.1872-6.9887-46.9641-6.8839-46.9641l48.624-27.6404z" fill="#1cb35c"/><path d="m40.1761 250.9471 28.9682-6.9887v139.5645c0 15.2931 4.5601 24.4081 13.6804 27.3433-4.4728 8.514-12.1202 12.7666-22.9405 12.7544-13.1388 0-19.7082-9.1203-19.7082-27.3608v-145.3127zm90.5562 170.3149v-124.0846h-45.182v23.7616h15.8644v100.3229h29.3176zm-31.1696-155.359c0 9.2827 7.5251 16.8078 16.8078 16.8078s16.8078-7.5251 16.8078-16.8078c-.0105-9.2793-7.5286-16.8079-16.8078-16.8079s-16.7991 7.5286-16.8078 16.8079zm164.0775 155.394v-76.142c.0122-15.8416-4.2579-28.182-12.8068-37.0227s-20.1974-13.2611-34.9435-13.2611c-15.4101 0-27.0585 4.6597-34.9436 13.9774l-5.2415-11.6013h-20.8613v124.0496h28.9857v-89.7001c3.0191-3.8054 6.8839-6.8559 11.2868-8.9106 4.2037-2.2347 8.8687-3.4664 13.628-3.5992 9.1902 0 15.812 2.4461 19.8654 7.3032 4.0535 4.8572 6.0802 12.5971 6.0802 23.1676v71.7391h28.9507zm31.292-15.3752c10.4604 11.7882 25.1191 17.6814 43.9764 17.6814 18.4974 0 33.0566-5.8233 43.6794-17.4718 10.6229-11.6484 15.9343-27.373 15.9343-47.1738-.0576-19.8479-5.2992-35.4904-15.7246-46.9292s-25.0667-17.1573-43.924-17.1573c-17.9261 0-32.3525 5.9456-43.2776 17.8387-10.9251 11.893-16.3996 27.3084-16.3885 46.2478.0114 19.5212 5.2642 35.1759 15.7246 46.9641zm22.3988-76.771c4.9585-6.9153 13.0374-10.9059 21.5427-10.6403 19.6261.0122 29.44 13.4935 29.44 40.4472.0122 13.1388-2.633 23.2549-7.9322 30.3485-4.9288 6.9363-13.0025 10.9426-21.5078 10.6753-19.696-.0122-29.5448-13.6856-29.5448-41.0237 0-12.7544 2.668-22.6906 8.0021-29.8069zm207.3376 92.1462v-177.3386l-28.9682 6.9887v49.7247c-7.9951-3.9346-16.8078-5.9229-25.7185-5.8006-16.2854-.3704-31.9227 6.3789-42.8233 18.4851-11.3916 12.3228-17.0874 28.292-17.0874 47.9076 0 19.626 4.962 34.9261 14.8859 45.8984 9.924 10.9723 23.5397 16.4584 40.849 16.4584 6.0347.0035 12.0276-.9941 17.7338-2.9527 5.7535-1.9796 9.8314-4.2806 12.2302-6.9014v7.5303h28.8983zm-28.8983-29.6671c-1.2405 1.6948-3.8787 3.3022-7.9322 5.0493-3.2323 1.4659-6.7109 2.308-10.2559 2.481-24.8798 0-37.3197-12.8994-37.3197-38.7.0471-13.2087 3.1746-23.3475 9.3823-30.4184 6.2077-7.0708 15.1358-10.6054 26.7842-10.6054 7.111.1537 13.9477 2.7728 19.3413 7.408v64.7854zm165.2306-39.6085c.0122-16.6104-5.4338-30.2838-16.3361-41.0237-10.9024-10.7399-25.3516-16.109-43.3475-16.109-16.3938-.2184-32.1446 6.3667-43.5047 18.1881-12.0905 12.1376-18.1357 27.9776-18.1357 47.5232 0 19.8707 5.5036 35.3506 16.5108 46.44 11.0073 11.0893 25.9753 16.6331 44.9025 16.6331 20.2446-.0122 35.4625-4.1461 45.6538-12.405l-11.2343-22.1892c-6.8839 6.8716-16.9302 10.3084-30.1388 10.3084-10.5879.0122-19.0093-2.7256-25.2642-8.2117s-9.6496-13.1737-10.186-23.0627h88.6518c1.3488-5.2677 2.163-10.6595 2.4286-16.0915zm-59.2119-32.9343c18.0658.0122 28.1069 9.0906 30.1213 27.2385h-60.959c4.0185-18.1584 14.2972-27.2385 30.8377-27.2385z"/><g fill="#b2b2b2"><path d="m268.3993 501.5132c-.124.7207-.248 1.3105-.3096 1.5732-1.3584 6.8799-2.5938 9.3691-5.6826 11.4658-2.9023 1.9658-5.6826 2.4248-14.2061 2.4248-7.042 0-9.5127-.5244-11.8594-2.6211-1.4824-1.2451-2.4092-3.9316-2.4092-6.8145 0-2.3584 1.2969-10.6797 2.7178-17.4941 1.2969-5.9629 2.2236-8.7803 3.583-10.877 2.1611-3.2754 5.4355-5.3721 9.6348-6.1582 2.2246-.3936 4.7568-.5244 9.8213-.5244 6.4854 0 8.8945.5898 10.501 2.6211 1.0498 1.3105 1.5439 2.9482 1.5439 5.2412 0 1.3105-.1855 2.752-.8027 6.4863h-6.3008c.4941-2.8828.6182-3.7344.6182-4.8477 0-2.9492-1.5449-3.7354-7.4121-3.7354-9.5127 0-11.6738.9834-13.1562 5.8311-.6182 2.0312-.9883 3.6045-2.3477 10.8115-1.3594 6.9453-1.668 9.042-1.668 11.4004 0 3.9971 1.7295 4.9141 9.0801 4.9141 9.8213 0 10.8096-.7861 12.415-9.6973h6.2393z"/><path d="m277.1103 516.5835h-5.6826l8.7705-43.7031h5.6826z"/><path d="m312.6259 487.3608c1.3594 1.1143 2.1621 3.2109 2.1621 5.7002 0 2.5557-.8652 7.666-2.0381 12.1875-2.4707 9.3691-5.4971 11.7285-15.2568 11.7285-5.0645 0-7.5977-.5244-9.2031-1.7695-1.4209-1.1143-2.1621-3.2764-2.1621-5.9629 0-3.21 1.4824-11.0068 2.9648-15.3975 1.3594-4.0615 3.7676-6.5518 7.2891-7.5342 1.6055-.5244 3.9531-.7207 7.1025-.7207 5.127 0 7.5977.458 9.1416 1.7686zm-18.1592 8.0596c-1.1738 3.7998-2.4092 10.2861-2.4092 12.5146 0 3.4072 1.1738 4.1934 6.3008 4.1934 5.1875 0 6.9795-1.1797 8.2148-5.6348 1.1738-4.1934 2.2236-9.96 2.2236-11.9912 0-3.2754-1.2354-4.0615-6.3008-4.0615-5.1885 0-6.8564 1.0479-8.0293 4.9795z"/><path d="m342.2138 516.5835h-5.6816l1.2969-4.6523-.124-.0654c-2.1611 3.5381-5.374 5.1113-10.4385 5.1113-5.374 0-8.1533-2.2285-8.1533-6.4873 0-1.1787.124-2.5547.4326-4.0625l4.1387-20.4424h5.6816l-3.9531 19.5254c-.3086 1.5068-.4316 2.6211-.4316 3.3418 0 2.293 1.4199 3.2109 4.8174 3.2109 5.8682 0 8.0303-2.0967 9.4502-8.9766l3.3975-17.1016h5.6826l-6.1152 30.5986z"/><path d="m375.1366 516.5835h-5.5596l1.1123-4.4551-.124-.0654c-2.1611 3.5381-5.0029 4.9141-9.9443 4.9141-6.4238 0-9.3887-2.3594-9.3887-7.3389 0-2.752.8037-7.7969 2.0381-12.5801 2.1006-8.3213 5.7451-11.4658 13.3418-11.4658 5.127 0 7.5361 1.376 8.0303 4.5205l.124-.0654 3.459-17.167h5.6816zm-15.6885-20.6396c-1.1738 3.8008-2.1621 9.1738-2.1621 11.5977 0 3.4727 1.4199 4.5869 5.8057 4.5869 4.6943 0 6.7949-1.4414 8.0303-5.5039 1.2354-3.9971 2.2236-9.1074 2.2236-11.2695 0-3.5381-1.6064-4.8486-6.0537-4.8486-4.6943 0-6.6094 1.3105-7.8438 5.4375z"/><path d="m435.3622 501.5132c-.123.7207-.2461 1.3105-.3086 1.5732-1.3584 6.8799-2.5938 9.3691-5.6826 11.4658-2.9033 1.9658-5.6826 2.4248-14.2061 2.4248-7.042 0-9.5127-.5244-11.8594-2.6211-1.4824-1.2451-2.4092-3.9316-2.4092-6.8145 0-2.3584 1.2969-10.6797 2.7178-17.4941 1.2969-5.9629 2.2236-8.7803 3.582-10.877 2.1621-3.2754 5.4355-5.3721 9.6367-6.1582 2.2227-.3936 4.7559-.5244 9.8203-.5244 6.4863 0 8.8945.5898 10.501 2.6211 1.0498 1.3105 1.5439 2.9482 1.5439 5.2412 0 1.3105-.1855 2.752-.8027 6.4863h-6.3008c.4941-2.8828.6182-3.7344.6182-4.8477 0-2.9492-1.5439-3.7354-7.4121-3.7354-9.5127 0-11.6748.9834-13.1572 5.8311-.6172 2.0312-.9883 3.6045-2.3467 10.8115-1.3584 6.9453-1.668 9.042-1.668 11.4004 0 3.9971 1.7295 4.9141 9.0801 4.9141 9.8213 0 10.8096-.7861 12.415-9.6973h6.2383z"/><path d="m465.8778 487.3608c1.3594 1.1143 2.1621 3.2109 2.1621 5.7002 0 2.5557-.8652 7.666-2.0381 12.1875-2.4707 9.3691-5.4971 11.7285-15.2568 11.7285-5.0645 0-7.5977-.5244-9.2031-1.7695-1.4209-1.1143-2.1621-3.2764-2.1621-5.9629 0-3.21 1.4824-11.0068 2.9648-15.3975 1.3594-4.0615 3.7676-6.5518 7.2891-7.5342 1.6055-.5244 3.9531-.7207 7.1025-.7207 5.127 0 7.5977.458 9.1416 1.7686zm-18.1592 8.0596c-1.1738 3.7998-2.4092 10.2861-2.4092 12.5146 0 3.4072 1.1738 4.1934 6.3008 4.1934 5.1875 0 6.9795-1.1797 8.2148-5.6348 1.1738-4.1934 2.2236-9.96 2.2236-11.9912 0-3.2754-1.2354-4.0615-6.3008-4.0615-5.1885 0-6.8564 1.0479-8.0293 4.9795z"/><path d="m482.6181 485.9849-1.0498 4.6523.0615.0654c2.4092-3.6689 5.3125-5.1104 10.1309-5.1104 5.0029 0 7.6582 1.8994 7.7207 5.4375h.123c2.4707-3.8652 5.5596-5.4375 10.624-5.4375 5.6826 0 8.3389 2.0312 8.3389 6.5518 0 1.1797-.123 2.293-.5557 4.3242l-4.0146 20.1152h-5.6836l3.8916-19.5254c.2471-1.0479.4326-2.6865.4326-3.2764 0-2.293-1.3594-3.21-4.6328-3.21-3.582 0-6.2383 1.1133-7.4736 3.0137-.6797 1.0488-1.2354 2.752-1.7295 5.1768l-3.582 17.8213h-5.6836l3.8916-19.46c.3096-1.3105.5557-3.1445.5557-3.6035 0-1.9658-1.6055-2.9482-4.7559-2.9482-5.4355 0-7.9678 2.3584-9.2031 8.4521l-3.5205 17.5596h-5.6826l6.1152-30.5986h5.6816z"/><path d="m533.456 485.9849-1.1738 4.3242.123.0664c2.2861-3.4727 5.0654-4.7832 10.0068-4.7832 6.3623 0 9.3271 2.4238 9.3271 7.666 0 2.9482-.8652 8.124-2.1621 12.7764-2.2852 8.0586-5.6826 10.9424-13.0332 10.9424-5.373 0-7.7822-1.3105-8.2764-4.6523l-.124.0654-3.459 17.2979h-5.6826l8.7715-43.7031h5.6826zm-1.3594 9.2383c-1.0498 2.6865-2.4082 9.501-2.4082 11.9258 0 3.4717 1.7285 4.9141 6.0527 4.9141 4.7559 0 6.8564-1.5732 8.0918-6.2246 1.0498-3.8662 1.9141-8.7148 1.9141-10.8115 0-3.4072-1.4199-4.5205-5.8057-4.5205-4.6328 0-6.4238 1.1133-7.8447 4.7168z"/><path d="m579.288 516.5835h-5.6816l1.2969-4.6523-.124-.0654c-2.1611 3.5381-5.374 5.1113-10.4385 5.1113-5.374 0-8.1533-2.2285-8.1533-6.4873 0-1.1787.124-2.5547.4326-4.0625l4.1387-20.4424h5.6816l-3.9531 19.5254c-.3086 1.5068-.4316 2.6211-.4316 3.3418 0 2.293 1.4199 3.2109 4.8174 3.2109 5.8682 0 8.0303-2.0967 9.4502-8.9766l3.3975-17.1016h5.6826l-6.1152 30.5986z"/><path d="m609.4941 490.7026h-11.0566l-3.3975 16.9043c-.1846.9834-.3086 1.9004-.3086 2.3594 0 1.7031.6797 2.2275 2.9033 2.2275 2.4707 0 3.3975-.6553 4.2002-2.9492.4326-1.1787.7412-2.4238.9268-3.9961h4.9414c-.8652 4.5859-1.2354 5.8965-2.2236 7.4688-1.915 3.0801-4.5098 4.2598-9.2656 4.2598-5.127 0-7.4736-1.5732-7.4736-4.9805 0-1.0479.0615-1.6377.4941-3.7998l3.5205-17.4941h-3.8906l.9883-4.7178h3.8291l1.4209-7.0762h5.6826l-1.4209 7.0762h11.0566l-.9268 4.7178z"/><path d="m615.7333 516.5835h-5.6826l6.1143-30.5986h5.6836l-6.1152 30.5986zm7.5977-38.002h-5.6836l1.1738-5.7012h5.6826l-1.1729 5.7012z"/><path d="m635.4989 485.9849-1.1123 4.7178.124.0654c2.0381-3.5381 5.25-5.1758 10.1914-5.1758 5.8672 0 8.8945 1.9648 8.8945 5.8311 0 1.3105-.124 2.0312-.6182 4.7832l-4.1377 20.377h-5.6836l3.8301-18.9355c.4941-2.293.5557-2.8828.5557-3.7344 0-2.4902-1.3584-3.4072-5.0645-3.4072-5.5596 0-8.3389 2.293-9.4502 7.7969l-3.6445 18.2803h-5.6826l6.1143-30.5986h5.6836z"/><path d="m681.454 517.8286c-1.9141 9.5-5.5586 12.3828-15.8125 12.3828-7.041 0-10.0684-1.7686-10.0684-5.8311 0-1.3105.124-2.2275.5566-4.3896h5.4355c-.2471 1.376-.3086 1.834-.3086 2.6211 0 2.1621 1.3584 2.8174 5.8672 2.8174 5.4355 0 7.4121-1.5732 8.4004-6.5527l1.2969-6.5518h-.0615c-1.915 3.2109-4.8174 4.5859-9.8828 4.5859-6.1143 0-9.2031-2.5547-9.2031-7.7314 0-2.5547.8027-7.2725 2.1006-12.3174 1.4199-5.3076 3.0264-7.8623 6.0527-9.6318 1.915-1.0479 4.4473-1.6377 7.4736-1.6377 5.0654 0 7.2275 1.376 8.0303 5.0449l.123-.0654.6797-4.5869h5.6826l-6.3623 31.8438zm-15.6885-21.4912c-1.0498 3.7344-2.0381 9.3037-2.0381 11.2695 0 3.2764 1.4199 4.3896 5.8057 4.3896 4.7559 0 7.042-1.6377 8.2764-5.9619.9883-3.5381 2.0391-8.9111 2.0391-10.7451 0-3.6045-1.4824-4.7832-6.0537-4.7832-4.8174 0-6.8564 1.5068-8.0293 5.8311z"/><path d="m31.3099 500.2913h-10.9585l9.4583-19.1125h.1305zm.5219 8.6101.6523 7.5667h12.0022l-3.9791-44.1604h-17.8728l-22.6344 44.1604h12.2629l3.7835-7.5667zm34.7674-36.5937h-10.176l-9.3275 44.1604h10.1103l2.6744-12.5241h1.7611l4.7619 12.5241h11.8067l-7.3058-16.0467 11.8718-14.8722h-11.089l-8.6104 11.6108h-1.7611l5.2837-24.8524zm29.1574 31.3752c3.3267 0 5.4973.2647 4.9574 2.8049-.6942 3.2667-2.0875 3.7835-6.3271 3.7835-1.5656 0-4.4254.0019-3.7181-3.3267.5955-2.8033 2.609-3.2617 5.0879-3.2617zm2.8049 12.785h10.1106l4.1092-19.308c2.2833-10.6322-1.8262-11.9369-12.1978-11.9369-7.2404 0-14.2198-.0651-16.3073 9.5234h10.1106c.5869-2.8049 2.283-3.3267 4.8269-3.3267 4.4355 0 4.24 1.8265 3.5877 4.6968l-1.0437 4.892h-.4568c-.3911-3.5223-4.8269-3.4572-7.6969-3.4572-7.3058 0-11.6607 2.2865-13.2415 9.7192-1.6796 7.8962 2.0871 9.5888 9.132 9.5888 3.5223 0 8.2841-.7174 9.9148-4.9574h.3263l-1.1742 4.566zm20.8733-30.9187-6.5881 30.9189h10.1106l3.7181-17.5469c.7825-3.7181 2.0221-5.9357 6.1967-5.9357 3.5223 0 3.2613 1.9567 2.8049 4.7615l-3.9791 18.7211h10.1106l3.7181-17.5469c.6523-3.3267 2.0221-5.9357 5.9357-5.9357s3.3918 2.3481 2.8703 5.6097l-3.7835 17.8729h10.1106l4.5009-21.1345c1.5653-7.175-1.5005-10.1103-8.6104-10.1103-3.9137 0-8.4146 1.6307-9.9148 6.0662h-.4565c.5869-5.2837-3.7181-6.0662-8.0886-6.0662-3.4572 0-7.4362 1.0434-9.4583 4.6965h-.3914l.9133-4.3705h-9.7192zm61.6418 18.1337c3.2613 0 5.4729.2597 4.9574 2.8049-.6603 3.2601-2.0871 3.7835-6.3271 3.7835-1.5002 0-4.4254.0019-3.7181-3.3267.5955-2.8033 2.609-3.2617 5.0879-3.2617zm2.8049 12.785h10.1106l4.1092-19.308c2.2833-10.6322-1.8262-11.9369-12.1978-11.9369-7.2404 0-14.2852-.0651-16.3073 9.5234h10.1106c.5869-2.8049 2.283-3.3267 4.8269-3.3267 4.4355 0 4.24 1.8265 3.5877 4.6968l-.9133 4.892h-.4568c-.3914-3.5223-4.8269-3.4572-7.6969-3.4572-7.3058 0-11.6607 2.2865-13.2415 9.7192-1.6796 7.8962 2.0871 9.5888 9.132 9.5888 3.5223 0 8.2841-.7174 9.9802-4.9574h.326l-1.3697 4.566zm31.2449-30.9189h-10.1106l-6.523 30.9189h10.1106zm-3.3921-14.2197c-3.1309 0-5.6748 2.5439-5.6748 5.6748s2.5439 5.6748 5.6748 5.6748 5.6751-2.5439 5.6751-5.6748-2.5439-5.6748-5.6751-5.6748z"/></g></svg>