<?xml version="1.0" encoding="iso-8859-1"?>
<!-- Generator: Adobe Illustrator 24.2.1, SVG Export Plug-In . SVG Version: 6.00 Build 0)  -->
<svg version="1.1" id="_x30_1" xmlns="http://www.w3.org/2000/svg" xmlns:xlink="http://www.w3.org/1999/xlink" x="0px" y="0px"
	 width="500px" height="135px" viewBox="0 0 500 135" enable-background="new 0 0 500 135" xml:space="preserve">
<g>
	<polygon fill="#02B0D4" points="71.153,8.189 31.4,62.284 71.153,112.569 110.419,62.923 	"/>
	<path fill="#F0DE34" d="M46.731,131.015c0.001,0,0.002,0,0.003,0l48.846-0.011c0.002,0,0.004,0,0.005,0
		c1.14,0,2.273-0.246,3.319-0.694l-27.752-17.741l-27.598,17.813C44.561,130.792,45.643,131.015,46.731,131.015z"/>
	<path fill="#F9AE41" d="M110.419,62.923l-39.266,49.646l27.752,17.741c1.262-0.541,2.397-1.376,3.256-2.442l27.959-34.782
		l2.489-3.097c0.513-0.638,0.923-1.354,1.224-2.112c0.143-0.359,0.261-0.728,0.353-1.103L110.419,62.923z"/>
	<path fill="#F9AE41" d="M8.078,86.64c0.217,0.956,0.599,1.875,1.137,2.697c0.149,0.229,0.309,0.45,0.478,0.664l30.461,37.873
		c0.892,1.108,2.08,1.969,3.402,2.508l27.598-17.813L31.4,62.284L8.078,86.64z"/>
	<path fill="#99D5EB" d="M20.78,32.099c-0.897,1.028-1.543,2.271-1.856,3.634L8.072,82.937c-0.242,1.052-0.266,2.15-0.089,3.214
		c0.027,0.164,0.058,0.327,0.095,0.488L31.4,62.284L20.78,32.099z"/>
	<path fill="#99D5EB" d="M134.188,86.774c0.311-1.258,0.34-2.585,0.049-3.848l-10.873-47.232c-0.295-1.279-0.884-2.452-1.7-3.438
		l-11.244,30.667L134.188,86.774z"/>
	<polygon fill="#FFFFFF" points="72.248,66.082 87.37,50.696 77.474,50.696 65.252,63.747 65.252,37.194 57.554,37.194 
		57.554,86.967 65.252,86.967 65.252,72.05 66.469,70.866 78.926,86.967 88.988,86.967 	"/>
	<g>
		<path fill="#0E80C3" d="M56.624,27.961L71.153,8.189c-0.004,0-0.008,0-0.013,0c-0.017,0-0.035,0.001-0.052,0.001
			C70.964,8.191,70.84,8.194,70.715,8.2c-0.014,0.001-0.028,0.003-0.043,0.004c-1.1,0.06-2.188,0.337-3.182,0.812L23.483,30.043
			c-1.046,0.5-1.96,1.204-2.703,2.056L31.4,62.284L56.624,27.95V27.961z"/>
		<path fill="#0E80C3" d="M118.832,30.042L74.797,9.016c-1.132-0.542-2.387-0.825-3.643-0.827l39.266,54.733l11.244-30.667
			C120.901,31.333,119.94,30.571,118.832,30.042z"/>
	</g>
</g>
<g>
	<path fill="#07242D" d="M179,91.55h-8.361l-16.315-16.496c-0.664,0.083-1.34,0.126-2.027,0.126v16.37h-5.959V45.307h5.959
		c0,0-0.011,23.984,0,23.984c2.902,0,5.558-1.198,7.443-3.125l7.132-7.286h8.545l-11.596,11.514
		c-1.027,1.028-2.192,1.921-3.462,2.646L179,91.55z"/>
	<path fill="#07242D" d="M211.871,58.794v16.505c0,0,0,0.024,0,0.035c0,8.961-7.261,16.215-16.223,16.215
		c-8.961,0-16.217-7.276-16.217-16.237c0-0.012,0-16.518,0-16.518h5.778v16.505c0,5.762,4.677,10.457,10.439,10.457
		c5.762,0,10.433-4.695,10.433-10.457V58.794H211.871z"/>
	<path fill="#07242D" d="M250.26,75.176c0,9.042-7.33,16.373-16.373,16.373c-3.967,0-7.605-1.411-10.438-3.758v3.758h-5.944
		c0.004-0.373,0.004-46.242,0.004-46.242h5.944l-0.003,17.254c2.834-2.348,6.471-3.758,10.439-3.758
		C242.93,58.802,250.261,66.133,250.26,75.176z M244.333,75.176c0-5.769-4.677-10.445-10.446-10.445
		c-5.637,0-10.447,4.578-10.447,10.429c0,5.851,4.81,10.462,10.447,10.462C239.656,85.622,244.333,80.946,244.333,75.176z"/>
	<path fill="#07242D" d="M286.212,77.306h-26.414c0.994,4.714,5.176,8.271,10.181,8.271c3.265,0,6.176-1.516,8.081-3.878h6.927
		c-2.529,5.792-8.3,9.851-15.007,9.851c-9.033,0-16.379-7.358-16.379-16.402s7.345-16.353,16.379-16.353
		C279.783,58.717,287.568,67.597,286.212,77.306z M279.65,71.331c-1.521-3.845-5.277-6.553-9.672-6.553s-8.155,2.71-9.679,6.553
		H279.65z"/>
	<path fill="#07242D" d="M307.437,69.917v5.459h-16.855v-5.459H307.437z"/>
	<path fill="#07242D" d="M345.923,75.176c0,9.042-7.33,16.373-16.373,16.373c-3.967,0-7.605-1.411-10.438-3.758v3.758h-5.944
		c0.004-0.373,0.004-46.242,0.004-46.242h5.944l-0.003,17.254c2.834-2.348,6.471-3.758,10.438-3.758
		C338.593,58.802,345.924,66.133,345.923,75.176z M339.996,75.176c0-5.769-4.677-10.445-10.446-10.445
		c-5.637,0-10.447,4.578-10.447,10.429c0,5.851,4.81,10.462,10.447,10.462C335.318,85.622,339.996,80.946,339.996,75.176z"/>
	<path fill="#07242D" d="M381.874,77.306H355.46c0.994,4.714,5.176,8.271,10.181,8.271c3.265,0,6.176-1.516,8.081-3.878h6.927
		c-2.529,5.792-8.3,9.851-15.007,9.851c-9.033,0-16.379-7.358-16.379-16.402s7.345-16.353,16.379-16.353
		C375.445,58.717,383.23,67.597,381.874,77.306z M375.312,71.331c-1.521-3.845-5.277-6.553-9.672-6.553s-8.155,2.71-9.679,6.553
		H375.312z"/>
	<path fill="#07242D" d="M419.609,75.139c0,11.479,0,16.41,0,16.41h-5.976c0,0,0-10.761,0-16.41c0-5.855-4.767-10.363-10.389-10.363
		c-5.622,0-10.41,4.458-10.41,10.363c0,5.652,0,16.41,0,16.41h-5.975V58.794c0,0,2.56,0,5.975,0v3.69c0,0,3.921-3.69,10.41-3.69
		C410.942,58.794,419.609,64.777,419.609,75.139z"/>
	<path fill="#07242D" d="M447.468,82.559l4.194,4.194c-2.964,2.964-7.058,4.797-11.581,4.797c-4.522,0-8.616-1.833-11.581-4.797
		c-2.964-2.964-4.797-7.058-4.797-11.581c0-4.522,1.833-8.616,4.797-11.581c2.964-2.964,7.058-4.797,11.581-4.797
		c4.522,0,8.616,1.833,11.581,4.797l-4.194,4.194c-1.89-1.891-4.502-3.061-7.386-3.061s-5.497,1.17-7.386,3.061
		c-1.891,1.89-3.06,4.502-3.06,7.386c0,2.885,1.169,5.497,3.06,7.387c1.89,1.89,4.502,3.059,7.386,3.059
		S445.577,84.449,447.468,82.559z"/>
	<path fill="#07242D" d="M488.639,75.182c0,11.448,0,16.366,0,16.366h-5.96c0,0,0-10.733,0-16.366
		c0-5.838-4.756-10.334-10.361-10.334c-5.607,0-10.382,4.446-10.382,10.334c0,5.637,0,16.366,0,16.366h-5.958v-46.24h5.958v17.255
		c0,0,3.909-3.679,10.382-3.679C479.996,58.884,488.639,64.85,488.639,75.182z"/>
</g>
</svg>
