<?xml version="1.0" encoding="iso-8859-1"?>
<!-- Generator: Adobe Illustrator 24.2.1, SVG Export Plug-In . SVG Version: 6.00 Build 0)  -->
<svg version="1.1" id="_x30_1" xmlns="http://www.w3.org/2000/svg" xmlns:xlink="http://www.w3.org/1999/xlink" x="0px" y="0px"
	 width="500px" height="500px" viewBox="0 0 500 500" enable-background="new 0 0 500 500" xml:space="preserve">
<g>
	<polygon fill="#02B0D4" points="249.803,50.676 153.781,181.341 249.803,302.803 344.649,182.884 	"/>
	<path fill="#F0DE34" d="M190.812,347.359c0.002,0,0.005,0,0.007,0l117.987-0.028c0.004,0,0.009,0,0.013,0
		c2.754,0,5.491-0.594,8.017-1.675l-67.034-42.852l-66.662,43.026C185.57,346.819,188.184,347.359,190.812,347.359z"/>
	<path fill="#F9AE41" d="M344.649,182.884l-94.846,119.92l67.034,42.852c3.049-1.306,5.79-3.324,7.865-5.898l67.535-84.015
		l6.013-7.48c1.24-1.541,2.229-3.27,2.958-5.102c0.345-0.867,0.629-1.758,0.854-2.664L344.649,182.884z"/>
	<path fill="#F9AE41" d="M97.446,240.172c0.524,2.309,1.447,4.528,2.745,6.515c0.361,0.552,0.747,1.087,1.156,1.604l73.577,91.482
		c2.154,2.676,5.025,4.756,8.217,6.057l66.662-43.026l-96.022-121.462L97.446,240.172z"/>
	<path fill="#99D5EB" d="M128.127,108.43c-2.166,2.483-3.727,5.485-4.484,8.778L97.432,231.229
		c-0.585,2.542-0.642,5.192-0.215,7.764c0.066,0.395,0.14,0.789,0.228,1.18l56.335-58.831L128.127,108.43z"/>
	<path fill="#99D5EB" d="M402.061,240.497c0.752-3.038,0.82-6.244,0.117-9.295l-26.263-114.087c-0.711-3.09-2.135-5.922-4.105-8.305
		l-27.161,74.075L402.061,240.497z"/>
	<polygon fill="#FFFFFF" points="252.446,190.514 288.974,153.35 265.069,153.35 235.549,184.874 235.549,120.736 216.954,120.736 
		216.954,240.961 235.549,240.961 235.549,204.93 238.488,202.07 268.577,240.961 292.882,240.961 	"/>
	<g>
		<path fill="#0E80C3" d="M214.707,98.434l35.095-47.757c-0.01,0-0.02-0.001-0.031-0.001c-0.042,0-0.084,0.003-0.126,0.003
			c-0.301,0.002-0.601,0.007-0.901,0.023c-0.034,0.002-0.068,0.008-0.103,0.01c-2.657,0.145-5.286,0.813-7.685,1.961l-106.301,50.79
			c-2.526,1.207-4.735,2.909-6.53,4.967l25.654,72.912l60.926-82.934V98.434z"/>
		<path fill="#0E80C3" d="M364.97,103.461L258.603,52.673c-2.733-1.308-5.766-1.992-8.799-1.996l94.846,132.207l27.161-74.075
			C369.967,106.579,367.647,104.74,364.97,103.461z"/>
	</g>
</g>
<g>
	<path fill="#07242D" d="M58.535,449.324H46.976L24.42,426.517c-0.919,0.114-1.853,0.174-2.802,0.174v22.632H13.38v-63.931h8.239
		c0,0-0.016,33.158,0,33.158c4.013,0,7.684-1.656,10.29-4.32l9.86-10.073h11.814l-16.032,15.918
		c-1.42,1.421-3.031,2.655-4.787,3.659L58.535,449.324z"/>
	<path fill="#07242D" d="M103.981,404.038v22.819c0,0,0,0.033,0,0.049c0,12.39-10.039,22.418-22.429,22.418
		c-12.389,0-22.421-10.059-22.421-22.448c0-0.017,0-22.837,0-22.837h7.989v22.819c0,7.967,6.466,14.457,14.433,14.457
		c7.966,0,14.424-6.491,14.424-14.457v-22.819H103.981z"/>
	<path fill="#07242D" d="M157.054,426.687c0,12.501-10.133,22.636-22.636,22.636c-5.485,0-10.514-1.95-14.431-5.196v5.196h-8.218
		c0.005-0.516,0.005-63.931,0.005-63.931h8.217l-0.004,23.854c3.918-3.246,8.947-5.196,14.432-5.196
		C146.921,404.05,157.056,414.185,157.054,426.687z M148.86,426.687c0-7.976-6.466-14.441-14.442-14.441
		c-7.793,0-14.443,6.329-14.443,14.418c0,8.089,6.649,14.464,14.443,14.464C142.395,441.128,148.86,434.664,148.86,426.687z"/>
	<path fill="#07242D" d="M206.759,429.631h-36.518c1.375,6.517,7.157,11.435,14.075,11.435c4.514,0,8.538-2.095,11.172-5.362h9.577
		c-3.496,8.008-11.475,13.619-20.748,13.619c-12.489,0-22.644-10.173-22.644-22.676c0-12.503,10.155-22.608,22.644-22.608
		C197.872,403.932,208.634,416.209,206.759,429.631z M197.687,421.371c-2.103-5.316-7.296-9.06-13.371-9.06
		c-6.076,0-11.275,3.746-13.382,9.06H197.687z"/>
	<path fill="#07242D" d="M236.104,419.416v7.548h-23.302v-7.548H236.104z"/>
	<path fill="#07242D" d="M289.311,426.687c0,12.501-10.133,22.636-22.636,22.636c-5.485,0-10.514-1.95-14.431-5.196v5.196h-8.218
		c0.005-0.516,0.005-63.931,0.005-63.931h8.218l-0.004,23.854c3.918-3.246,8.946-5.196,14.431-5.196
		C279.178,404.05,289.313,414.185,289.311,426.687z M281.117,426.687c0-7.976-6.467-14.441-14.442-14.441
		c-7.794,0-14.443,6.329-14.443,14.418c0,8.089,6.649,14.464,14.443,14.464C274.65,441.128,281.117,434.664,281.117,426.687z"/>
	<path fill="#07242D" d="M339.015,429.631h-36.518c1.375,6.517,7.157,11.435,14.075,11.435c4.514,0,8.538-2.095,11.172-5.362h9.577
		c-3.496,8.008-11.475,13.619-20.748,13.619c-12.489,0-22.644-10.173-22.644-22.676c0-12.503,10.155-22.608,22.644-22.608
		C330.127,403.932,340.89,416.209,339.015,429.631z M329.943,421.371c-2.103-5.316-7.296-9.06-13.371-9.06
		s-11.275,3.746-13.382,9.06H329.943z"/>
	<path fill="#07242D" d="M391.185,426.636c0,15.871,0,22.688,0,22.688h-8.262c0,0,0-14.878,0-22.688
		c0-8.095-6.591-14.327-14.363-14.327c-7.772,0-14.393,6.163-14.393,14.327c0,7.814,0,22.688,0,22.688h-8.26v-45.285
		c0,0,3.539,0,8.26,0v5.101c0,0,5.421-5.101,14.393-5.101C379.203,404.038,391.185,412.31,391.185,426.636z"/>
	<path fill="#07242D" d="M429.7,436.894l5.799,5.798c-4.098,4.097-9.758,6.632-16.01,6.632s-11.912-2.534-16.01-6.632
		c-4.097-4.098-6.632-9.758-6.632-16.01c0-6.252,2.534-11.912,6.632-16.01c4.098-4.097,9.758-6.632,16.01-6.632
		s11.912,2.534,16.01,6.632l-5.799,5.799c-2.613-2.615-6.224-4.231-10.212-4.231s-7.599,1.617-10.212,4.231
		c-2.615,2.613-4.23,6.224-4.23,10.212c0,3.988,1.616,7.599,4.23,10.213c2.612,2.613,6.224,4.229,10.212,4.229
		S427.087,439.507,429.7,436.894z"/>
	<path fill="#07242D" d="M486.62,426.695c0,15.827,0,22.626,0,22.626h-8.24c0,0,0-14.838,0-22.626
		c0-8.072-6.575-14.287-14.324-14.287c-7.751,0-14.353,6.146-14.353,14.287c0,7.793,0,22.626,0,22.626h-8.238v-63.929h8.238v23.856
		c0,0,5.405-5.086,14.353-5.086C474.671,404.162,486.62,412.411,486.62,426.695z"/>
</g>
</svg>
