<?xml version="1.0" encoding="UTF-8" standalone="no"?>
<svg
   xmlns:dc="http://purl.org/dc/elements/1.1/"
   xmlns:cc="http://creativecommons.org/ns#"
   xmlns:rdf="http://www.w3.org/1999/02/22-rdf-syntax-ns#"
   xmlns:svg="http://www.w3.org/2000/svg"
   xmlns="http://www.w3.org/2000/svg"
   viewBox="0 0 232.53333 264.33334"
   height="264.33334"
   width="232.53333"
   xml:space="preserve"
   id="svg2"
   version="1.1"><metadata
     id="metadata8"><rdf:RDF><cc:Work
         rdf:about=""><dc:format>image/svg+xml</dc:format><dc:type
           rdf:resource="http://purl.org/dc/dcmitype/StillImage" /></cc:Work></rdf:RDF></metadata><defs
     id="defs6" /><g
     transform="matrix(1.3333333,0,0,-1.3333333,0,264.33333)"
     id="g10"><g
       transform="scale(0.1)"
       id="g12"><path
         id="path14"
         style="fill:#2a9940;fill-opacity:1;fill-rule:nonzero;stroke:none"
         d="m 13.5313,495.602 c 9.3203,-16.172 22.4648,-28.782 37.625,-37.34 L 820.836,13.8906 l 0.023,0.0196 C 835.875,5.07031 853.34,0 872.012,0 890.68,0 908.168,5.07031 923.16,13.9102 l 769.71,444.3788 c 15.15,8.551 28.25,21.141 37.59,37.313 9.35,16.168 13.7,33.82 13.53,51.25 V 1435.6 l -0.03,0.02 c 0.15,17.39 -4.2,35.08 -13.52,51.24 -9.35,16.17 -22.49,28.77 -37.62,37.34 l -769.711,444.37 v 0.03 c -14.988,8.84 -32.457,13.91 -51.121,13.91 -18.648,0 -36.113,-5.07 -51.105,-13.91 v -0.03 L 51.2031,1524.2 C 36.043,1515.63 22.9023,1503.03 13.5547,1486.86 4.23438,1470.7 -0.117188,1453.01 0.03125,1435.62 L 0.00390625,1435.6 V 546.852 C -0.160156,529.422 4.18359,511.77 13.5078,495.602" /><path
         id="path16"
         style="fill:#ffffff;fill-opacity:1;fill-rule:nonzero;stroke:none"
         d="m 625.563,652.91 c 0,-54.66 -44.301,-98.988 -98.985,-98.988 -54.66,0 -98.984,44.328 -98.984,98.988 l 0.023,-0.031 0.098,679.491 c 0,52.64 46.515,96.17 112.387,96.17 47.164,0 101.609,-19.02 134.925,-60.33 l 29.914,-35.79 413.529,-494.881 v 492.071 h -0.05 c 0,54.65 44.33,98.98 99.01,98.98 54.66,0 98.96,-44.33 98.96,-98.98 h -0.02 l -0.1,-679.438 c 0,-52.652 -46.53,-96.184 -112.39,-96.184 -47.19,0 -101.6,19 -134.92,60.332 L 625.52,1145 V 652.879 l 0.043,0.031" /></g></g></svg>