<?xml version="1.0" encoding="UTF-8" standalone="no"?>
<svg
   xmlns:dc="http://purl.org/dc/elements/1.1/"
   xmlns:cc="http://creativecommons.org/ns#"
   xmlns:rdf="http://www.w3.org/1999/02/22-rdf-syntax-ns#"
   xmlns:svg="http://www.w3.org/2000/svg"
   xmlns="http://www.w3.org/2000/svg"
   viewBox="0 0 667.38666 264.33334"
   height="264.33334"
   width="667.38666"
   xml:space="preserve"
   id="svg2"
   version="1.1"><metadata
     id="metadata8"><rdf:RDF><cc:Work
         rdf:about=""><dc:format>image/svg+xml</dc:format><dc:type
           rdf:resource="http://purl.org/dc/dcmitype/StillImage" /></cc:Work></rdf:RDF></metadata><defs
     id="defs6" /><g
     transform="matrix(1.3333333,0,0,-1.3333333,0,264.33333)"
     id="g10"><g
       transform="scale(0.1)"
       id="g12"><path
         id="path14"
         style="fill:#ffffff;fill-opacity:1;fill-rule:nonzero;stroke:none"
         d="m 4777.04,1331.99 h -130.49 l -143.73,-227.88 -139.94,227.88 h -135.21 l 201.4,-329.06 -203.3,-340.399 h 128.61 l 142.78,229.77 139.93,-229.77 h 135.22 l -203.3,331.895 208.03,337.564" /><path
         id="path16"
         style="fill:#ffffff;fill-opacity:1;fill-rule:nonzero;stroke:none"
         d="M 4059.1,1331.99 V 876.219 L 3796.24,1331.99 H 3687.5 V 662.531 h 108.74 V 1115.45 L 4059.1,662.531 h 109.7 v 669.459 h -109.7" /><path
         id="path18"
         style="fill:#ffffff;fill-opacity:1;fill-rule:nonzero;stroke:none"
         d="m 3481.74,662.531 h 116.31 V 1331.99 H 3481.74 V 662.531" /><path
         id="path20"
         style="fill:#ffffff;fill-opacity:1;fill-rule:nonzero;stroke:none"
         d="m 3392.29,1093.71 v 37.82 c 0,129.54 -95.5,213.7 -262.88,213.7 -166.41,0 -261.91,-84.16 -261.91,-213.7 V 862.988 c 0,-129.547 96.45,-213.699 262.86,-213.699 166.43,0 261.93,84.152 261.93,213.699 V 1019.95 H 3125.63 V 912.16 h 150.36 v -42.551 c 0,-69.98 -52.95,-112.527 -146.58,-112.527 -92.65,0 -145.61,42.547 -145.61,112.527 v 255.301 c 0,69.97 52.96,112.52 146.56,112.52 92.68,0 145.63,-42.55 145.63,-112.52 v -31.2 h 116.3" /><path
         id="path22"
         style="fill:#ffffff;fill-opacity:1;fill-rule:nonzero;stroke:none"
         d="M 2667.8,1331.99 V 876.219 L 2404.93,1331.99 H 2296.19 V 662.531 h 108.74 V 1115.45 L 2667.8,662.531 h 109.69 V 1331.99 H 2667.8" /><path
         id="path24"
         style="fill:#2a9940;fill-opacity:1;fill-rule:nonzero;stroke:none"
         d="m 13.5313,495.602 c 9.3203,-16.172 22.4648,-28.782 37.625,-37.34 L 820.836,13.8906 l 0.023,0.0196 C 835.875,5.07031 853.34,0 872.012,0 890.68,0 908.168,5.07031 923.16,13.9102 l 769.71,444.3788 c 15.15,8.551 28.25,21.141 37.59,37.313 9.35,16.168 13.7,33.82 13.53,51.25 V 1435.6 l -0.03,0.02 c 0.15,17.39 -4.2,35.08 -13.52,51.24 -9.35,16.17 -22.49,28.77 -37.62,37.34 l -769.711,444.37 v 0.03 c -14.988,8.84 -32.457,13.91 -51.121,13.91 -18.648,0 -36.113,-5.07 -51.105,-13.91 v -0.03 L 51.2031,1524.2 C 36.043,1515.63 22.9023,1503.03 13.5547,1486.86 4.23438,1470.7 -0.117188,1453.01 0.03125,1435.62 L 0.00390625,1435.6 V 546.852 C -0.160156,529.422 4.18359,511.77 13.5078,495.602" /><path
         id="path26"
         style="fill:#ffffff;fill-opacity:1;fill-rule:nonzero;stroke:none"
         d="m 625.563,652.91 c 0,-54.66 -44.301,-98.988 -98.985,-98.988 -54.66,0 -98.984,44.328 -98.984,98.988 l 0.023,-0.031 0.098,679.491 c 0,52.64 46.515,96.17 112.387,96.17 47.164,0 101.609,-19.02 134.925,-60.33 l 29.914,-35.79 413.529,-494.881 v 492.071 h -0.05 c 0,54.65 44.33,98.98 99.01,98.98 54.66,0 98.96,-44.33 98.96,-98.98 h -0.02 l -0.1,-679.438 c 0,-52.652 -46.53,-96.184 -112.39,-96.184 -47.19,0 -101.6,19 -134.92,60.332 L 625.52,1145 V 652.879 l 0.043,0.031" /><path
         id="path28"
         style="fill:#959595;fill-opacity:1;fill-rule:nonzero;stroke:none"
         d="m 4979.69,767.738 c 11,-10.758 16.39,-24.168 16.39,-39.75 0,-15.437 -5.39,-28.949 -16.39,-39.937 -10.85,-10.949 -24.17,-16.571 -39.82,-16.571 -15.53,0 -28.78,5.622 -39.76,16.571 -10.78,10.988 -16.32,24.5 -16.32,39.937 0,15.582 5.54,28.992 16.32,39.75 11.14,11.192 24.32,16.684 39.76,16.684 15.59,0 28.84,-5.492 39.82,-16.684 m 6.63,6.481 c -12.86,12.703 -28.25,18.992 -46.45,18.992 -17.81,0 -33.34,-6.289 -45.91,-18.992 -12.87,-12.739 -19.1,-28.137 -19.1,-46.231 0,-18.058 6.17,-33.539 18.87,-46.207 12.61,-12.859 28.16,-19.25 46.14,-19.25 18.2,0 33.59,6.391 46.45,19.25 12.62,12.739 19.12,28.27 19.12,46.207 0,18.223 -6.5,33.492 -19.12,46.231 m -36.73,-43.059 c -2.54,-1.101 -6.57,-1.601 -12.03,-1.601 h -11.29 v 26.082 h 10.78 c 6.98,0 12.05,-0.993 15.2,-2.789 3.21,-1.801 4.75,-5.262 4.75,-10.461 0,-5.539 -2.41,-9.18 -7.41,-11.231 m -35.97,-38.629 h 12.65 v 28.168 h 10 c 6.62,0 11.36,-0.64 14.05,-2.34 4.43,-2.589 6.68,-8.148 6.68,-16.39 v -5.77 l 0.29,-2.16 c 0.15,-0.48 0.15,-0.668 0.19,-0.898 0.07,-0.352 0.09,-0.45 0.28,-0.61 h 11.72 l -0.42,0.809 c -0.35,0.531 -0.54,1.762 -0.56,3.648 -0.18,2.032 -0.18,3.762 -0.18,5.352 v 5.34 c 0,3.582 -1.34,7.25 -3.92,11.172 -2.65,3.777 -6.83,6.019 -12.48,7.007 4.47,0.75 7.97,1.93 10.41,3.379 4.78,3.024 6.99,7.91 6.99,14.184 0,9.008 -3.56,15.18 -11.07,18.187 -4.13,1.711 -10.62,2.571 -19.61,2.571 h -25.02 v -71.649" /><path
         id="path30"
         style="fill:#959595;fill-opacity:1;fill-rule:nonzero;stroke:none"
         d="m 1717.16,259.301 c 11.01,-10.762 16.39,-24.172 16.39,-39.75 0,-15.442 -5.38,-28.949 -16.39,-39.949 -10.85,-10.942 -24.16,-16.563 -39.82,-16.563 -15.53,0 -28.77,5.621 -39.76,16.563 -10.77,11 -16.32,24.507 -16.32,39.949 0,15.578 5.55,28.988 16.32,39.75 11.14,11.179 24.33,16.679 39.76,16.679 15.59,0 28.85,-5.5 39.82,-16.679 m 6.64,6.48 c -12.87,12.699 -28.26,18.989 -46.46,18.989 -17.8,0 -33.34,-6.29 -45.91,-18.989 -12.87,-12.742 -19.09,-28.14 -19.09,-46.23 0,-18.071 6.16,-33.539 18.86,-46.211 12.61,-12.871 28.17,-19.25 46.14,-19.25 18.2,0 33.59,6.379 46.46,19.25 12.61,12.73 19.12,28.269 19.12,46.211 0,18.211 -6.51,33.488 -19.12,46.23 m -36.73,-43.062 c -2.54,-1.098 -6.58,-1.598 -12.04,-1.598 h -11.29 v 26.078 h 10.78 c 6.99,0 12.06,-0.988 15.2,-2.801 3.21,-1.789 4.76,-5.257 4.76,-10.449 0,-5.551 -2.41,-9.179 -7.41,-11.23 m -35.98,-38.629 h 12.65 v 28.172 h 10.01 c 6.61,0 11.36,-0.641 14.05,-2.34 4.42,-2.602 6.68,-8.152 6.68,-16.391 v -5.781 l 0.28,-2.148 c 0.16,-0.481 0.16,-0.672 0.2,-0.903 0.06,-0.347 0.08,-0.461 0.28,-0.609 h 11.72 l -0.43,0.801 c -0.34,0.539 -0.54,1.769 -0.56,3.66 -0.17,2.031 -0.17,3.75 -0.17,5.347 v 5.34 c 0,3.582 -1.34,7.242 -3.92,11.172 -2.66,3.77 -6.84,6.02 -12.48,7.012 4.46,0.738 7.97,1.93 10.4,3.379 4.78,3.008 6.99,7.91 6.99,14.179 0,9.008 -3.56,15.168 -11.06,18.192 -4.14,1.699 -10.62,2.566 -19.61,2.566 h -25.03 V 184.09" /></g></g></svg>