<?xml version="1.0" encoding="UTF-8" standalone="no"?>
<svg
   xmlns:dc="http://purl.org/dc/elements/1.1/"
   xmlns:cc="http://creativecommons.org/ns#"
   xmlns:rdf="http://www.w3.org/1999/02/22-rdf-syntax-ns#"
   xmlns:svg="http://www.w3.org/2000/svg"
   xmlns="http://www.w3.org/2000/svg"
   viewBox="0 0 232.53333 264.33334"
   height="264.33334"
   width="232.53333"
   xml:space="preserve"
   id="svg2"
   version="1.1"><metadata
     id="metadata8"><rdf:RDF><cc:Work
         rdf:about=""><dc:format>image/svg+xml</dc:format><dc:type
           rdf:resource="http://purl.org/dc/dcmitype/StillImage" /></cc:Work></rdf:RDF></metadata><defs
     id="defs6" /><g
     transform="matrix(1.3333333,0,0,-1.3333333,0,264.33333)"
     id="g10"><g
       transform="scale(0.1)"
       id="g12"><path
         id="path14"
         style="fill:#ffffff;fill-opacity:1;fill-rule:nonzero;stroke:none"
         d="M 625.52,652.879 V 1145 l 443.44,-530.68 c 33.32,-41.332 87.73,-60.332 134.92,-60.332 65.86,0 112.39,43.532 112.39,96.184 l 0.1,679.438 h 0.02 c 0,54.65 -44.3,98.98 -98.96,98.98 -54.68,0 -99.01,-44.33 -99.01,-98.98 h 0.05 V 837.539 l -413.529,494.881 -29.914,35.79 c -33.316,41.31 -87.761,60.33 -134.925,60.33 -65.872,0 -112.387,-43.53 -112.387,-96.17 l -0.098,-679.491 -0.023,0.031 c 0,-54.66 44.324,-98.988 98.984,-98.988 54.684,0 98.985,44.328 98.985,98.988 z M 13.5078,495.602 C 4.18359,511.77 -0.160156,529.422 0.00390625,546.852 V 1435.6 l 0.02734375,0.02 c -0.148438,17.39 4.20313,35.08 13.52345,51.24 9.3476,16.17 22.4883,28.77 37.6484,37.34 l 769.6799,444.37 v 0.03 c 14.992,8.84 32.457,13.91 51.105,13.91 18.664,0 36.133,-5.07 51.121,-13.91 v -0.03 L 1692.82,1524.2 c 15.13,-8.57 28.27,-21.17 37.62,-37.34 9.32,-16.16 13.67,-33.85 13.52,-51.24 l 0.03,-0.02 V 546.852 c 0.17,-17.43 -4.18,-35.082 -13.53,-51.25 -9.34,-16.172 -22.44,-28.762 -37.59,-37.313 L 923.16,13.9102 C 908.168,5.07031 890.68,0 872.012,0 853.34,0 835.875,5.07031 820.859,13.9102 L 820.836,13.8906 51.1563,458.262 c -15.1602,8.558 -28.3047,21.168 -37.625,37.34" /></g></g></svg>