<?xml version="1.0" encoding="UTF-8" standalone="no"?>
<svg
   xmlns:dc="http://purl.org/dc/elements/1.1/"
   xmlns:cc="http://creativecommons.org/ns#"
   xmlns:rdf="http://www.w3.org/1999/02/22-rdf-syntax-ns#"
   xmlns:svg="http://www.w3.org/2000/svg"
   xmlns="http://www.w3.org/2000/svg"
   viewBox="0 0 361.23999 416.45334"
   height="416.45334"
   width="361.23999"
   xml:space="preserve"
   id="svg2"
   version="1.1"><metadata
     id="metadata8"><rdf:RDF><cc:Work
         rdf:about=""><dc:format>image/svg+xml</dc:format><dc:type
           rdf:resource="http://purl.org/dc/dcmitype/StillImage" /></cc:Work></rdf:RDF></metadata><defs
     id="defs6" /><g
     transform="matrix(1.3333333,0,0,-1.3333333,0,416.45333)"
     id="g10"><g
       transform="scale(0.1)"
       id="g12"><path
         id="path14"
         style="fill:#2a9940;fill-opacity:1;fill-rule:nonzero;stroke:none"
         d="m 376.16,1636.5 c 9.324,-16.17 22.469,-28.78 37.629,-37.34 l 769.681,-444.37 0.02,0.02 c 15.02,-8.84 32.48,-13.91 51.15,-13.91 18.67,0 36.16,5.07 51.15,13.91 l 769.71,444.38 c 15.15,8.55 28.25,21.14 37.59,37.31 9.35,16.17 13.7,33.82 13.53,51.25 v 888.75 l -0.02,0.02 c 0.14,17.39 -4.21,35.07 -13.53,51.25 -9.35,16.16 -22.48,28.75 -37.62,37.33 l -769.71,444.38 v 0.02 c -14.99,8.84 -32.45,13.91 -51.12,13.91 -18.65,0 -36.11,-5.07 -51.11,-13.91 v -0.02 L 413.832,2665.1 c -15.156,-8.58 -28.301,-21.17 -37.644,-37.33 -9.325,-16.18 -13.672,-33.86 -13.528,-51.25 l -0.023,-0.02 v -888.75 c -0.168,-17.43 4.179,-35.08 13.5,-51.25" /><path
         id="path16"
         style="fill:#ffffff;fill-opacity:1;fill-rule:nonzero;stroke:none"
         d="m 988.191,1793.81 c 0,-54.66 -44.3,-98.99 -98.984,-98.99 -54.656,0 -98.984,44.33 -98.984,98.99 l 0.027,-0.03 0.098,679.49 c 0,52.64 46.511,96.17 112.386,96.17 47.164,0 101.606,-19.02 134.926,-60.33 l 29.91,-35.79 413.53,-494.88 v 492.06 h -0.05 c 0,54.66 44.33,98.99 99.01,98.99 54.66,0 98.96,-44.33 98.96,-98.99 H 1679 l -0.1,-679.43 c 0,-52.65 -46.53,-96.18 -112.39,-96.18 -47.18,0 -101.6,19 -134.92,60.33 l -443.442,530.67 v -492.11 l 0.043,0.03" /><path
         id="path18"
         style="fill:#959595;fill-opacity:1;fill-rule:nonzero;stroke:none"
         d="m 2683.5,118.441 c 11.01,-10.75 16.4,-24.1597 16.4,-39.7496 0,-15.4297 -5.39,-28.9414 -16.4,-39.9414 -10.84,-10.9492 -24.16,-16.5703 -39.81,-16.5703 -15.54,0 -28.78,5.6211 -39.77,16.5703 -10.78,11 -16.32,24.5117 -16.32,39.9414 0,15.5899 5.54,28.9996 16.32,39.7496 11.14,11.188 24.33,16.68 39.77,16.68 15.58,0 28.83,-5.492 39.81,-16.68 m 6.64,6.481 c -12.87,12.699 -28.27,19 -46.45,19 -17.81,0 -33.35,-6.301 -45.92,-19 -12.86,-12.731 -19.09,-28.1407 -19.09,-46.2306 0,-18.0625 6.16,-33.5312 18.86,-46.2109 12.61,-12.8594 28.17,-19.25 46.15,-19.25 18.18,0 33.58,6.3906 46.45,19.25 12.61,12.7383 19.12,28.2812 19.12,46.2109 0,18.2188 -6.51,33.4996 -19.12,46.2306 m -36.73,-43.0626 c -2.55,-1.0899 -6.58,-1.5899 -12.03,-1.5899 h -11.3 V 106.34 h 10.78 c 6.99,0 12.05,-0.988 15.2,-2.789 3.21,-1.801 4.76,-5.2619 4.76,-10.4612 0,-5.539 -2.41,-9.1796 -7.41,-11.2304 m -35.97,-38.6289 h 12.64 v 28.1797 h 10.01 c 6.61,0 11.35,-0.6485 14.05,-2.3516 4.42,-2.5898 6.68,-8.1484 6.68,-16.3867 v -5.7735 l 0.28,-2.1562 c 0.16,-0.4727 0.16,-0.6719 0.2,-0.9024 0.06,-0.3476 0.09,-0.4492 0.28,-0.6093 h 11.72 l -0.42,0.8008 c -0.36,0.5507 -0.55,1.7695 -0.58,3.6679 -0.16,2.0196 -0.16,3.75 -0.16,5.3516 v 5.3398 c 0,3.5782 -1.34,7.2383 -3.92,11.1602 -2.66,3.7812 -6.83,6.0195 -12.48,7.0078 4.46,0.75 7.97,1.9414 10.4,3.3828 4.79,3.0195 6.99,7.918 6.99,14.1797 0,9.0199 -3.56,15.1799 -11.06,18.1989 -4.14,1.7 -10.63,2.559 -19.61,2.559 h -25.02 V 43.2305" /><path
         id="path20"
         style="fill:#959595;fill-opacity:1;fill-rule:nonzero;stroke:none"
         d="m 2079.79,1400.2 c 11.01,-10.76 16.4,-24.17 16.4,-39.75 0,-15.44 -5.39,-28.95 -16.4,-39.95 -10.85,-10.94 -24.16,-16.56 -39.82,-16.56 -15.53,0 -28.77,5.62 -39.76,16.56 -10.77,11 -16.32,24.51 -16.32,39.95 0,15.58 5.55,28.99 16.32,39.75 11.14,11.18 24.33,16.68 39.76,16.68 15.59,0 28.85,-5.5 39.82,-16.68 m 6.64,6.48 c -12.87,12.7 -28.26,18.99 -46.46,18.99 -17.8,0 -33.34,-6.29 -45.91,-18.99 -12.86,-12.74 -19.09,-28.14 -19.09,-46.23 0,-18.07 6.16,-33.54 18.86,-46.21 12.61,-12.87 28.17,-19.25 46.14,-19.25 18.2,0 33.59,6.38 46.46,19.25 12.61,12.73 19.12,28.27 19.12,46.21 0,18.21 -6.51,33.49 -19.12,46.23 m -36.73,-43.06 c -2.54,-1.1 -6.58,-1.6 -12.03,-1.6 h -11.3 v 26.08 h 10.78 c 6.99,0 12.06,-0.99 15.2,-2.8 3.21,-1.79 4.76,-5.26 4.76,-10.45 0,-5.55 -2.41,-9.18 -7.41,-11.23 m -35.98,-38.63 h 12.65 v 28.17 h 10.01 c 6.61,0 11.36,-0.64 14.05,-2.34 4.42,-2.6 6.68,-8.15 6.68,-16.39 v -5.78 l 0.28,-2.15 c 0.16,-0.48 0.16,-0.67 0.2,-0.9 0.06,-0.35 0.09,-0.46 0.28,-0.61 h 11.72 l -0.43,0.8 c -0.34,0.54 -0.54,1.77 -0.56,3.66 -0.17,2.03 -0.17,3.75 -0.17,5.35 v 5.34 c 0,3.58 -1.34,7.24 -3.92,11.17 -2.66,3.77 -6.83,6.02 -12.48,7.01 4.46,0.74 7.97,1.93 10.41,3.38 4.78,3.01 6.98,7.91 6.98,14.18 0,9.01 -3.56,15.17 -11.06,18.19 -4.14,1.7 -10.62,2.57 -19.61,2.57 h -25.03 v -71.65" /><path
         id="path22"
         style="fill:#201f1e;fill-opacity:1;fill-rule:nonzero;stroke:none"
         d="M 2480.86,682.699 H 2350.37 L 2206.64,454.82 2066.7,682.699 h -135.22 l 201.41,-329.07 -203.3,-340.3985 h 128.6 L 2200.97,243 2340.91,13.2305 h 135.22 l -203.3,331.8905 208.03,337.578" /><path
         id="path24"
         style="fill:#201f1e;fill-opacity:1;fill-rule:nonzero;stroke:none"
         d="M 1762.92,682.699 V 226.93 L 1500.05,682.699 H 1391.31 V 13.2305 h 108.74 V 466.148 L 1762.92,13.2305 h 109.69 V 682.699 h -109.69" /><path
         id="path26"
         style="fill:#201f1e;fill-opacity:1;fill-rule:nonzero;stroke:none"
         d="m 1185.55,13.2305 h 116.31 V 682.699 H 1185.55 V 13.2305" /><path
         id="path28"
         style="fill:#201f1e;fill-opacity:1;fill-rule:nonzero;stroke:none"
         d="m 1096.1,444.422 v 37.808 c 0,129.54 -95.5,213.7 -262.87,213.7 -166.417,0 -261.921,-84.16 -261.921,-213.7 V 213.691 C 571.309,84.1484 667.758,0 834.18,0 1000.6,0 1096.1,84.1484 1096.1,213.691 V 370.66 H 829.453 V 262.859 h 150.348 v -42.55 c 0,-69.977 -52.949,-112.528 -146.571,-112.528 -92.66,0 -145.609,42.551 -145.609,112.528 v 255.312 c 0,69.961 52.949,112.52 146.559,112.52 92.672,0 145.621,-42.559 145.621,-112.52 V 444.422 H 1096.1" /><path
         id="path30"
         style="fill:#201f1e;fill-opacity:1;fill-rule:nonzero;stroke:none"
         d="M 371.609,682.699 V 226.93 L 108.738,682.699 H 0 V 13.2305 H 108.738 V 466.148 L 371.609,13.2305 H 481.297 V 682.699 H 371.609" /></g></g></svg>