<?xml version="1.0" encoding="UTF-8" standalone="no"?>
<!DOCTYPE svg PUBLIC "-//W3C//DTD SVG 1.1//EN" "http://www.w3.org/Graphics/SVG/1.1/DTD/svg11.dtd">
<svg width="100%" height="100%" viewBox="0 0 558 690" version="1.1" xmlns="http://www.w3.org/2000/svg" xmlns:xlink="http://www.w3.org/1999/xlink" xml:space="preserve" xmlns:serif="http://www.serif.com/" style="fill-rule:evenodd;clip-rule:evenodd;stroke-linejoin:round;stroke-miterlimit:2;">
    <g transform="matrix(1,0,0,1,0.000270803,-2.4307)">
        <g transform="matrix(4.16667,0,0,4.16667,0,0)">
            <path d="M84.474,148.857C69.718,148.857 56.856,141.579 49.15,128.234C46.041,122.847 38.022,108.567 37.618,107.843C36.165,105.236 37.102,101.945 39.71,100.492C42.315,99.039 45.607,99.974 47.061,102.582C47.159,102.759 55.442,117.514 58.511,122.828C66.123,136.012 80.062,141.048 95.799,136.29C98.649,135.429 101.672,137.043 102.536,139.902C103.399,142.759 101.783,145.776 98.925,146.639C93.988,148.129 89.135,148.857 84.474,148.857Z" style="fill-rule:nonzero;"/>
        </g>
        <g transform="matrix(4.16667,0,0,4.16667,0,0)">
            <path d="M106.756,156.857L106.771,156.857L106.756,156.857ZM85.646,166C65.042,166 45.811,156.359 36.134,139.598L14.018,101.292C13.301,100.052 13.106,98.576 13.478,97.192C13.849,95.807 14.754,94.627 15.996,93.91L31.06,85.213C33.646,83.721 36.951,84.606 38.442,87.191C39.935,89.776 39.05,93.081 36.465,94.573L26.081,100.568L45.494,134.194C56.019,152.422 81.041,160.024 104.008,152.097C122.354,136.171 128.284,110.7 117.76,92.472L99.176,60.284C97.683,57.699 98.568,54.393 101.154,52.901C103.74,51.409 107.044,52.295 108.536,54.879L127.121,87.067C140.368,110.012 133.106,141.795 110.231,160.995C109.747,161.402 109.197,161.719 108.604,161.935C101.039,164.688 93.248,166 85.646,166Z" style="fill-rule:nonzero;"/>
        </g>
        <g transform="matrix(4.16667,0,0,4.16667,0,0)">
            <path d="M84.022,131.332C75.486,131.332 68.251,125.649 64.576,119.284L0.725,8.691C-0.767,6.106 0.117,2.801 2.703,1.308C5.288,-0.184 8.592,0.702 10.085,3.286L73.937,113.879C75.678,116.895 80.615,122.07 86.827,120.065C89.665,119.151 92.712,120.71 93.628,123.551C94.543,126.392 92.983,129.438 90.142,130.354C88.051,131.027 86.002,131.332 84.022,131.332Z" style="fill-rule:nonzero;"/>
        </g>
        <g transform="matrix(4.16667,0,0,4.16667,0,0)">
            <path d="M70.196,74.263C69.727,74.263 69.257,74.202 68.797,74.079C67.413,73.708 66.231,72.803 65.516,71.561L47.599,40.527C46.106,37.942 46.991,34.637 49.576,33.144C52.162,31.653 55.466,32.537 56.959,35.123L72.174,61.476L81.852,55.888C84.437,54.394 87.741,55.281 89.234,57.866C90.727,60.451 89.841,63.757 87.256,65.249L72.898,73.539C72.069,74.017 71.136,74.263 70.196,74.263Z" style="fill-rule:nonzero;"/>
        </g>
    </g>
</svg>
