<svg xmlns="http://www.w3.org/2000/svg" width="2.14911in" height="1.7463in" viewBox="0 0 154.73587 125.7336">
  <defs>
    <style>
      .bef08d39-0593-420a-a65c-1d51173f27fe {
        fill: #55565b;
      }

      .a0784222-c722-41ad-9a37-afc4076a356d {
        fill: #00abc7;
      }
    </style>
  </defs>
  <title>sysdig_Vert_Color_Logo_RGB_MED</title>
  <g id="aedf6ec4-1c7c-48cf-af61-d2daed9b53bc" data-name="Layer 1">
    <g>
      <g>
        <path class="bef08d39-0593-420a-a65c-1d51173f27fe" d="M22.75081,108.68381a8.09025,8.09025,0,0,1-3.08574,6.85128,12.12467,12.12467,0,0,1-7.63613,2.1966A18.977,18.977,0,0,1,0,113.49531l3.39938-5.23018q4.602,3.34759,8.83891,3.34723,3.34647,0,3.34722-2.09193v-.10467q0-1.1495-1.72613-1.9351-.62746-.26074-4.07918-1.30746Q1.41174,103.7155,1.41212,97.753v-.10467a8.04731,8.04731,0,0,1,3.03322-6.59017,11.05877,11.05877,0,0,1,7.21744-2.30126,18.34833,18.34833,0,0,1,10.46038,3.24293l-3.0336,5.4913q-4.44609-2.61414-7.5836-2.6149-2.92929,0-2.92892,1.9351V96.916q0,1.04691,1.72614,1.883.67905.31345,3.97488,1.46427a20.24889,20.24889,0,0,1,5.70065,2.71958,6.83958,6.83958,0,0,1,2.7721,5.59635Z"/>
        <path class="bef08d39-0593-420a-a65c-1d51173f27fe" d="M42.08245,117.88851q-1.62166,4.34065-3.60872,6.06718a8.35684,8.35684,0,0,1-5.596,1.77791,13.7135,13.7135,0,0,1-7.06062-1.93511l2.66743-5.75279a6.69262,6.69262,0,0,0,3.39938,1.09811,2.91738,2.91738,0,0,0,2.7721-1.83043L23.67268,89.17556h8.4206l6.38045,19.08957,6.11933-19.08957h8.2634Z"/>
        <path class="bef08d39-0593-420a-a65c-1d51173f27fe" d="M75.25244,108.68381a8.09025,8.09025,0,0,1-3.08574,6.85128,12.12466,12.12466,0,0,1-7.63612,2.1966,18.977,18.977,0,0,1-12.029-4.23638l3.39938-5.23018q4.602,3.34759,8.83891,3.34723,3.34647,0,3.34723-2.09193v-.10467q0-1.1495-1.72614-1.9351-.62746-.26074-4.07918-1.30746-8.36845-2.4577-8.36807-8.42022v-.10467A8.04733,8.04733,0,0,1,56.947,91.05814a11.05877,11.05877,0,0,1,7.21744-2.30126,18.34833,18.34833,0,0,1,10.46038,3.24293l-3.03359,5.4913q-4.44611-2.61414-7.58361-2.6149-2.92929,0-2.92892,1.9351V96.916q0,1.04691,1.72614,1.883.67905.31345,3.97489,1.46427a20.24894,20.24894,0,0,1,5.70064,2.71958,6.83955,6.83955,0,0,1,2.7721,5.59635Z"/>
        <path class="bef08d39-0593-420a-a65c-1d51173f27fe" d="M99.50957,117.20871v-2.45809a12.64253,12.64253,0,0,1-8.73424,2.98107,11.847,11.847,0,0,1-8.83891-3.71339q-3.92236-4.07937-3.92236-10.774v-.10467q0-6.69408,3.87021-10.77364a11.90941,11.90941,0,0,1,8.89106-3.71339,14.19893,14.19893,0,0,1,8.73424,2.61491V79.0292h7.94976v38.17951Zm.10467-14.0691a8.02529,8.02529,0,0,0-1.98726-5.596,6.21931,6.21931,0,0,0-4.81187-2.14445,6.2879,6.2879,0,0,0-4.81151,2.09192,7.9723,7.9723,0,0,0-2.03977,5.6485v.10467a7.89977,7.89977,0,0,0,2.03977,5.59635,6.47043,6.47043,0,0,0,9.62338,0,8.025,8.025,0,0,0,1.98726-5.59635Z"/>
        <path class="bef08d39-0593-420a-a65c-1d51173f27fe" d="M112.27121,86.08982V79.0292h8.36807v7.06062Zm.209,31.11889V89.17556h7.94977v28.03315Z"/>
        <path class="bef08d39-0593-420a-a65c-1d51173f27fe" d="M154.73587,110.88041q0,7.7937-3.92236,11.34914-3.76592,3.4519-11.71568,3.4519a26.11785,26.11785,0,0,1-12.39511-2.92892l2.71958-6.48511a19.03884,19.03884,0,0,0,9.46656,2.56275q8.00172,0,8.00191-6.59016v-.31364a14.29,14.29,0,0,1-9.15254,2.98107,11.97821,11.97821,0,0,1-8.68209-3.39938,12.88171,12.88171,0,0,1-3.76554-9.6759v-.10467a12.788,12.788,0,0,1,3.81806-9.67553,11.91428,11.91428,0,0,1,8.62957-3.39938,15.62014,15.62014,0,0,1,9.04787,2.61491V89.17556h7.94977Zm-7.8451-9.15292a6.05365,6.05365,0,0,0-1.98725-4.65469,7.37783,7.37783,0,0,0-9.728,0,6.1289,6.1289,0,0,0-1.93511,4.65469v.10467a6.189,6.189,0,0,0,1.93511,4.7072,6.90914,6.90914,0,0,0,4.864,1.77829,6.7993,6.7993,0,0,0,4.864-1.83043,6.05276,6.05276,0,0,0,1.98725-4.65506Z"/>
      </g>
      <g>
        <path class="a0784222-c722-41ad-9a37-afc4076a356d" d="M75.12816,64.99424a17.44815,17.44815,0,0,1-15.48362-9.03991c-1.36322-2.36108-4.87809-8.62044-5.05509-8.938a2.369,2.369,0,1,1,4.13907-2.30564c.04308.07748,3.67417,6.54489,5.01936,8.87458,3.33624,5.77881,9.44633,7.98627,16.3449,5.901a2.36909,2.36909,0,0,1,1.36989,4.53582A21.914,21.914,0,0,1,75.12816,64.99424Z"/>
        <g>
          <path class="a0784222-c722-41ad-9a37-afc4076a356d" d="M75.6419,72.50912c-9.03155,0-17.46132-4.22624-21.70292-11.573L44.24452,44.14507a2.36875,2.36875,0,0,1,.86695-3.236l6.60335-3.81246a2.36893,2.36893,0,1,1,2.3691,4.103l-4.55184,2.62791L58.042,58.56705c4.61329,7.99027,15.58147,11.32217,25.64863,7.84767,8.042-6.98072,10.64124-18.14593,6.02828-26.13621L81.57266,26.16912A2.36893,2.36893,0,0,1,85.67567,23.8L93.8219,37.90941c5.80686,10.05781,2.62391,23.98953-7.40351,32.40594a2.36506,2.36506,0,0,1-.71333.41177A29.44815,29.44815,0,0,1,75.6419,72.50912ZM84.89521,68.501h0Z"/>
          <path class="a0784222-c722-41ad-9a37-afc4076a356d" d="M74.93024,57.3127a10.24237,10.24237,0,0,1-8.52394-5.28121L38.41762,3.55383a2.36893,2.36893,0,0,1,4.103-2.3691L70.50931,49.66239c.76342,1.32181,2.92747,3.59,5.65023,2.71141a2.36908,2.36908,0,1,1,1.45338,4.50976A8.71771,8.71771,0,0,1,74.93024,57.3127Z"/>
          <path class="a0784222-c722-41ad-9a37-afc4076a356d" d="M68.86957,32.29692a2.36951,2.36951,0,0,1-2.0515-1.18455L58.96438,17.50893a2.36893,2.36893,0,0,1,4.103-2.3691l6.66947,11.55194,4.24193-2.44925a2.36893,2.36893,0,1,1,2.3691,4.103l-6.29377,3.63379A2.36991,2.36991,0,0,1,68.86957,32.29692Z"/>
        </g>
      </g>
    </g>
  </g>
</svg>
