<?xml version="1.0" encoding="UTF-8" standalone="no"?>
<!DOCTYPE svg PUBLIC "-//W3C//DTD SVG 1.1//EN" "http://www.w3.org/Graphics/SVG/1.1/DTD/svg11.dtd">
<svg width="100%" height="100%" viewBox="0 0 32 36" version="1.1" xmlns="http://www.w3.org/2000/svg" xmlns:xlink="http://www.w3.org/1999/xlink" xml:space="preserve" xmlns:serif="http://www.serif.com/" style="fill-rule:evenodd;clip-rule:evenodd;stroke-linejoin:round;stroke-miterlimit:2;">
    <g transform="matrix(1,0,0,1,-40.9628,0)">
        <g id="amazon-eks-icon-color" transform="matrix(0.241864,0,0,1,13.9177,52.9039)">
            <rect x="111.819" y="-52.904" width="132.306" height="35.952" style="fill:none;"/>
            <g transform="matrix(4.13456,0,0,1,177.972,-34.9039)">
                <g transform="matrix(1,0,0,1,-16,-18)">
                    <g transform="matrix(0.0391394,0,0,-0.0391394,-9.141,45.2861)">
                        <g>
                            <clipPath id="_clip1">
                                <path d="M555.71,840.593L593.257,840.593L593.257,729.852L701.372,840.593L750.937,840.593L632.306,718.582L758.437,577.795L710.39,577.795L593.258,709.191L593.258,577.795L555.713,577.795L555.71,840.593Z"/>
                            </clipPath>
                            <g clip-path="url(#_clip1)">
                                <path d="M555.71,840.593L593.257,840.593L593.257,729.852L701.372,840.593L750.937,840.593L632.306,718.582L758.437,577.795L710.39,577.795L593.258,709.191L593.258,577.795L555.713,577.795L555.713,840.594" style="fill:url(#_Linear2);fill-rule:nonzero;"/>
                            </g>
                        </g>
                        <g>
                            <clipPath id="_clip3">
                                <path d="M673.317,944.887L858.225,838.132C861.372,836.309 863.317,832.938 863.32,829.3L863.32,615.785C863.32,612.145 865.277,608.777 868.427,606.955L1033.44,511.681C1040.24,507.751 1048.74,512.676 1048.74,520.511L1048.74,936.359C1048.74,939.999 1046.79,943.363 1043.65,945.189L683.533,1153.11C676.731,1157.03 668.22,1152.11 668.22,1144.26L668.22,953.718C668.22,950.07 670.168,946.714 673.327,944.887L673.317,944.887Z"/>
                            </clipPath>
                            <g clip-path="url(#_clip3)">
                                <path d="M673.317,944.887L858.225,838.132C861.372,836.309 863.317,832.938 863.32,829.3L863.32,615.785C863.32,612.145 865.277,608.777 868.427,606.955L1033.44,511.681C1040.24,507.751 1048.74,512.676 1048.74,520.511L1048.74,936.359C1048.74,939.999 1046.79,943.363 1043.65,945.189L683.533,1153.11C676.731,1157.03 668.22,1152.11 668.22,1144.26L668.22,953.718C668.22,950.07 670.168,946.714 673.327,944.887" style="fill:url(#_Linear4);fill-rule:nonzero;"/>
                            </g>
                        </g>
                        <g>
                            <clipPath id="_clip5">
                                <path d="M832.423,562.269L647.515,455.514C644.365,453.688 640.468,453.688 637.316,455.514L426.607,577.167C423.454,578.992 421.505,582.368 421.5,586.011L421.5,829.321C421.507,832.961 423.457,836.332 426.608,838.153L611.517,944.902C614.669,946.718 616.619,950.09 616.621,953.728L616.621,1144.28C616.621,1152.12 608.114,1157.03 601.313,1153.12L241.191,945.189C238.038,943.363 236.105,939.999 236.105,936.359L236.105,478.948C236.105,475.3 238.049,471.944 241.191,470.104L637.316,241.413C640.467,239.586 644.364,239.586 647.515,241.413L1007.64,449.323C1014.44,453.252 1014.44,463.068 1007.64,466.993L842.627,562.269C839.462,564.096 835.576,564.096 832.423,562.269Z"/>
                            </clipPath>
                            <g clip-path="url(#_clip5)">
                                <path d="M832.423,562.269L647.515,455.514C644.365,453.688 640.468,453.688 637.316,455.514L426.607,577.167C423.454,578.992 421.505,582.368 421.5,586.011L421.5,829.321C421.507,832.961 423.457,836.332 426.608,838.153L611.517,944.902C614.669,946.718 616.619,950.09 616.621,953.728L616.621,1144.28C616.621,1152.12 608.114,1157.03 601.313,1153.12L241.191,945.189C238.038,943.363 236.105,939.999 236.105,936.359L236.105,478.948C236.105,475.3 238.049,471.944 241.191,470.104L637.316,241.413C640.467,239.586 644.364,239.586 647.515,241.413L1007.64,449.323C1014.44,453.252 1014.44,463.068 1007.64,466.993L842.627,562.269C839.462,564.096 835.576,564.096 832.423,562.269" style="fill:url(#_Linear6);fill-rule:nonzero;"/>
                            </g>
                        </g>
                    </g>
                </g>
            </g>
        </g>
    </g>
    <defs>
        <linearGradient id="_Linear2" x1="0" y1="0" x2="1" y2="0" gradientUnits="userSpaceOnUse" gradientTransform="matrix(-161.295,265.77,-265.77,-161.295,728.973,584.55)"><stop offset="0" style="stop-color:rgb(79,102,185);stop-opacity:1"/><stop offset="1" style="stop-color:rgb(72,79,171);stop-opacity:1"/></linearGradient>
        <linearGradient id="_Linear4" x1="0" y1="0" x2="1" y2="0" gradientUnits="userSpaceOnUse" gradientTransform="matrix(-365.622,629.53,-629.53,-365.622,1088.98,547.15)"><stop offset="0" style="stop-color:rgb(79,102,185);stop-opacity:1"/><stop offset="1" style="stop-color:rgb(72,79,171);stop-opacity:1"/></linearGradient>
        <linearGradient id="_Linear6" x1="0" y1="0" x2="1" y2="0" gradientUnits="userSpaceOnUse" gradientTransform="matrix(-398.654,703.83,-703.83,-398.654,725.572,289.976)"><stop offset="0" style="stop-color:rgb(76,104,187);stop-opacity:1"/><stop offset="1" style="stop-color:rgb(81,128,201);stop-opacity:1"/></linearGradient>
    </defs>
</svg>
