<?xml version="1.0" encoding="utf-8"?>
<!-- Generator: Adobe Illustrator 24.1.0, SVG Export Plug-In . SVG Version: 6.00 Build 0)  -->
<svg version="1.1" id="LOGOS" xmlns="http://www.w3.org/2000/svg" xmlns:xlink="http://www.w3.org/1999/xlink" x="0px" y="0px"
	 viewBox="0 0 180 258" style="enable-background:new 0 0 180 258;" xml:space="preserve">
<style type="text/css">
	.st0{fill:#FFFFFF;}
</style>
<path class="st0" d="M62.2,194.6h6.8l-10.3,34.4H49l-10.2-34.4h6.8l8.3,28.6L62.2,194.6z"/>
<path class="st0" d="M87.7,228.9h-5.2l-0.5-1.7c-2.2,1.4-4.8,2.2-7.5,2.2c-4.6,0-6.6-3.2-6.6-7.5c0-5.1,2.2-7.1,7.3-7.1h6v-2.6
	c0-2.8-0.8-3.8-4.8-3.8c-2.4,0-4.7,0.3-7,0.8l-0.8-4.8c2.8-0.8,5.7-1.2,8.6-1.2c7.9,0,10.2,2.8,10.2,9.1L87.7,228.9z M81.4,219.4
	h-4.6c-2.1,0-2.6,0.6-2.6,2.5s0.6,2.5,2.5,2.5c1.7,0,3.3-0.5,4.7-1.3L81.4,219.4z"/>
<path class="st0" d="M97.6,203.8v17.6c0,1.4,0.6,2,2,2c2.3-0.3,4.5-1,6.6-2.1v-17.4h6.3v25.1h-4.8l-0.6-2.1c-3.1,1.6-6.6,2.5-10,2.6
	c-4.2,0-5.7-2.9-5.7-7.4v-18.2H97.6z"/>
<path class="st0" d="M115.8,228.9v-35.4l6.3-0.9v36.3H115.8z"/>
<path class="st0" d="M140.9,228.5c-1.8,0.6-3.6,1-5.5,1c-4.6,0-6.9-2.2-6.9-6.7v-14h-3.8v-5h3.8v-6.2l6.3-0.9v7.1h6.4l-0.4,5h-6V222
	c-0.1,1.1,0.6,2.1,1.7,2.2c0.2,0,0.4,0,0.5,0c1.1,0,2.1-0.2,3.1-0.5L140.9,228.5z"/>
<path class="st0" d="M45.5,186.1v-4.8H41v4.8h-2.3v-11.6H41v4.9h4.4v-4.9h2.3v11.6H45.5z M56,186.1h-1.8l-0.2-0.6
	c-0.8,0.5-1.7,0.7-2.6,0.7c-1.6,0-2.3-1.1-2.3-2.5c0-1.7,0.8-2.4,2.5-2.4h2.1v-0.9c0-0.9-0.3-1.3-1.7-1.3c-0.8,0-1.6,0.1-2.4,0.3
	l-0.3-1.6c1-0.3,2-0.4,3-0.4c2.7,0,3.5,0.9,3.5,3L56,186.1z M53.8,183h-1.6c-0.7,0-0.9,0.2-0.9,0.8s0.2,0.8,0.9,0.8
	c0.6,0,1.1-0.2,1.7-0.4V183z M60.5,186.3c-1,0-2-0.2-3-0.5l0.3-1.6c0.8,0.2,1.7,0.4,2.6,0.4c1,0,1.1-0.2,1.1-0.8s-0.1-0.8-1.5-1.1
	c-2.1-0.5-2.4-1-2.4-2.6s0.8-2.4,3.2-2.4c0.9,0,1.8,0.1,2.6,0.3l-0.2,1.7c-0.8-0.1-1.6-0.2-2.4-0.2c-1,0-1.1,0.2-1.1,0.7
	s0.1,0.7,1.2,1c2.4,0.6,2.7,0.9,2.7,2.6S63.2,186.3,60.5,186.3L60.5,186.3z M70.6,186.2v-5.8c0-0.4-0.2-0.7-0.7-0.7
	c-0.8,0.1-1.6,0.3-2.3,0.7v5.8h-2.2v-11.8l2.2,0.3v3.7c1-0.5,2.1-0.8,3.2-0.8c1.4,0,2,1,2,2.5v6.1L70.6,186.2z M74.6,176.6v-2.1h2.2
	v2.1H74.6z M74.6,186.2v-8.4h2.2v8.4H74.6z M78.5,177.9c0-2.1,1.3-3.3,4.2-3.3c1.1,0,2.2,0.1,3.2,0.4l-0.2,1.9
	c-1-0.2-1.9-0.3-2.9-0.3c-1.6,0-2.1,0.5-2.1,1.7v4.4c0,1.2,0.5,1.7,2.1,1.7c1,0,1.9-0.1,2.9-0.3l0.2,1.9c-1.1,0.3-2.1,0.4-3.2,0.4
	c-3,0-4.2-1.2-4.2-3.3V177.9z M90.8,186.3c-3,0-3.8-1.6-3.8-3.3v-2.1c0-1.7,0.8-3.3,3.8-3.3s3.8,1.6,3.8,3.3v2.1
	C94.6,184.7,93.8,186.3,90.8,186.3L90.8,186.3z M90.8,179.4c-1.2,0-1.6,0.5-1.6,1.4v2.2c0,0.9,0.4,1.4,1.6,1.4s1.6-0.5,1.6-1.4v-2.2
	C92.4,179.9,92,179.4,90.8,179.4L90.8,179.4z M100.7,179.5c-0.8,0.3-1.6,0.8-2.3,1.2v5.4h-2.2v-8.4h1.8l0.1,0.9
	c0.7-0.5,1.5-0.8,2.3-1.1L100.7,179.5z M109.4,183.4c0,1.9-0.9,3-2.9,3c-0.8,0-1.6-0.1-2.3-0.2v3.4l-2.2,0.3v-12h1.7l0.2,0.7
	c0.8-0.6,1.8-0.9,2.8-0.9c1.8,0,2.7,1,2.7,2.9V183.4z M104.2,184.3c0.6,0.1,1.3,0.2,1.9,0.2c0.8,0,1.1-0.4,1.1-1.1v-3
	c0-0.7-0.3-1.1-1.1-1.1c-0.7,0-1.4,0.3-2,0.8L104.2,184.3z"/>
<path class="st0" d="M25.7,28.5l64.1,128.6l64.5-128.6H25.7z M97.4,54.3h7.5v7.5h-7.5V54.3z M82.5,84.2h-7.5v-7.5h7.4L82.5,84.2z
	 M82.5,73h-7.5v-7.5h7.4L82.5,73z M82.5,61.8h-7.5v-7.5h7.4L82.5,61.8z M93.7,95.3h-7.5v-7.5h7.4L93.7,95.3z M93.7,84.2h-7.5v-7.5
	h7.4L93.7,84.2z M93.7,73h-7.5v-7.5h7.4L93.7,73z M93.7,61.8h-7.5v-7.5h7.4L93.7,61.8z M97.4,65.5h7.5V73h-7.5L97.4,65.5z
	 M97.5,84.2v-7.5h7.4v7.4L97.5,84.2z"/>
</svg>
