<svg id="LOGOS" xmlns="http://www.w3.org/2000/svg" viewBox="0 0 268 132"><path d="M145,51.23h7.92l-12,40.29H129.66l-12-40.29h7.93l9.73,33.57Z"/><path d="M175,91.52h-6.05l-.54-2a16.15,16.15,0,0,1-8.77,2.6c-5.39,0-7.69-3.69-7.69-8.77,0-6,2.61-8.29,8.59-8.29h7.08V72c0-3.27-.91-4.42-5.62-4.42a41.48,41.48,0,0,0-8.17.91l-.91-5.62a38.32,38.32,0,0,1,10.1-1.4c9.26,0,12,3.27,12,10.65Zm-7.38-11.13h-5.44c-2.42,0-3.09.66-3.09,2.9,0,2.06.67,3,3,3a11.57,11.57,0,0,0,5.56-1.51Z"/><path d="M186.57,62.06V82.62c0,1.58.67,2.36,2.36,2.36s5-1.09,7.68-2.48V62.06H204V91.52h-5.62L197.64,89a29.59,29.59,0,0,1-11.79,3.08c-4.9,0-6.66-3.45-6.66-8.71V62.06Z"/><path d="M207.92,91.52V50l7.38-1V91.52Z"/><path d="M237.32,91a20.4,20.4,0,0,1-6.48,1.15c-5.38,0-8.1-2.54-8.1-7.8V67.93h-4.42V62.06h4.42V54.74l7.38-1v8.35h7.56l-.49,5.87h-7.07V83.35c0,1.57.72,2.6,2.66,2.6a14.3,14.3,0,0,0,3.69-.6Z"/><path d="M30,39.78l32.2,64.64L94.64,39.78Zm36,13h3.75V56.5H66Zm-7.46,15H54.83V64h3.74Zm0-5.62H54.83V58.38h3.74Zm0-5.62H54.83V52.76h3.74Zm5.62,16.87H60.45V69.62h3.74Zm0-5.63H60.45V64h3.74Zm0-5.62H60.45V58.38h3.74Zm0-5.62H60.45V52.76h3.74ZM66,58.38h3.75v3.74H66Zm0,9.36V64h3.74v3.74Z"/><path d="M125.47,41.35V35.7H120.3v5.65h-2.64V27.77h2.64v5.7h5.17v-5.7h2.65V41.35Zm12.33,0h-2.1l-.19-.66a5.78,5.78,0,0,1-3,.87c-1.86,0-2.66-1.23-2.66-2.92,0-2,.9-2.76,3-2.76h2.45v-1c0-1.08-.31-1.46-2-1.46a14.94,14.94,0,0,0-2.83.3l-.31-1.87a13.46,13.46,0,0,1,3.5-.47c3.2,0,4.15,1.09,4.15,3.55Zm-2.56-3.7h-1.89c-.83,0-1.06.22-1.06,1s.23,1,1,1a4.15,4.15,0,0,0,1.93-.5Zm7.91,3.91a12.59,12.59,0,0,1-3.52-.57l.36-1.87a11.94,11.94,0,0,0,3,.42c1.13,0,1.3-.24,1.3-1s-.13-.91-1.78-1.29c-2.5-.58-2.79-1.19-2.79-3.08s.9-2.84,3.81-2.84a13.41,13.41,0,0,1,3.06.35l-.25,1.95a18.71,18.71,0,0,0-2.81-.28c-1.11,0-1.3.24-1.3.84,0,.79.07.85,1.45,1.19,2.85.72,3.12,1.08,3.12,3.1S146.23,41.56,143.15,41.56Zm11.71-.21V34.51c0-.52-.23-.78-.82-.78a7.27,7.27,0,0,0-2.66.82v6.8h-2.56V27.58l2.56.38V32.3a9.36,9.36,0,0,1,3.73-.95c1.7,0,2.31,1.15,2.31,2.9v7.1Zm4.7-11.18v-2.4h2.56v2.4Zm0,11.18v-9.8h2.56v9.8Zm4.6-9.72c0-2.45,1.49-3.88,5-3.88a16.47,16.47,0,0,1,3.79.44l-.29,2.2a21.49,21.49,0,0,0-3.42-.34c-1.82,0-2.41.6-2.41,2v5.15c0,1.43.59,2,2.41,2a21.49,21.49,0,0,0,3.42-.34l.29,2.19a16.47,16.47,0,0,1-3.79.45c-3.48,0-5-1.43-5-3.89Zm14.41,9.93c-3.5,0-4.44-1.86-4.44-3.87V35.22c0-2,.94-3.87,4.44-3.87S183,33.2,183,35.22v2.47C183,39.7,182.07,41.56,178.57,41.56Zm0-8.11c-1.36,0-1.89.58-1.89,1.69v2.63c0,1.11.53,1.69,1.89,1.69s1.89-.58,1.89-1.69V35.14C180.46,34,179.93,33.45,178.57,33.45Zm11.64.16a19.4,19.4,0,0,0-2.7,1.43v6.31H185v-9.8h2.16l.17,1.09A11.54,11.54,0,0,1,190,31.35Zm10.22,4.48c0,2.18-1,3.47-3.37,3.47a14.63,14.63,0,0,1-2.72-.29v4l-2.56.38V31.55h2l.25.83a5.55,5.55,0,0,1,3.23-1c2.05,0,3.14,1.17,3.14,3.4Zm-6.09,1.11a11.85,11.85,0,0,0,2.26.26c.92,0,1.28-.42,1.28-1.31V34.69c0-.8-.32-1.24-1.26-1.24a3.68,3.68,0,0,0-2.28.88Z"/></svg>