<?xml version="1.0" encoding="utf-8"?>
<!-- Generator: Adobe Illustrator 24.1.0, SVG Export Plug-In . SVG Version: 6.00 Build 0)  -->
<svg version="1.1" id="LOGOS" xmlns="http://www.w3.org/2000/svg" xmlns:xlink="http://www.w3.org/1999/xlink" x="0px" y="0px"
	 viewBox="0 0 268 132" style="enable-background:new 0 0 268 132;" xml:space="preserve">
<style type="text/css">
	.st0{fill:#FFFFFF;}
</style>
<path class="st0" d="M145,51.2h7.9l-12,40.3h-11.3l-12-40.3h7.9l9.7,33.6L145,51.2z"/>
<path class="st0" d="M175,91.5h-6.1l-0.5-2c-2.6,1.7-5.7,2.6-8.8,2.6c-5.4,0-7.7-3.7-7.7-8.8c0-6,2.6-8.3,8.6-8.3h7.1V72
	c0-3.3-0.9-4.4-5.6-4.4c-2.7,0-5.5,0.3-8.2,0.9l-0.9-5.6c3.3-0.9,6.7-1.4,10.1-1.4c9.3,0,12,3.3,12,10.6L175,91.5z M167.6,80.4h-5.4
	c-2.4,0-3.1,0.7-3.1,2.9c0,2.1,0.7,3,3,3c2,0,3.9-0.5,5.6-1.5L167.6,80.4z"/>
<path class="st0" d="M186.6,62.1v20.6c0,1.6,0.7,2.4,2.4,2.4s5-1.1,7.7-2.5V62.1h7.4v29.5h-5.6l-0.7-2.5c-3.7,1.8-7.7,2.9-11.8,3.1
	c-4.9,0-6.7-3.4-6.7-8.7V62.1H186.6z"/>
<path class="st0" d="M207.9,91.5V50l7.4-1v42.5H207.9z"/>
<path class="st0" d="M237.3,91c-2.1,0.7-4.3,1.1-6.5,1.2c-5.4,0-8.1-2.5-8.1-7.8V67.9h-4.4v-5.9h4.4v-7.3l7.4-1v8.4h7.6l-0.5,5.9
	h-7.1v15.4c0,1.6,0.7,2.6,2.7,2.6c1.3,0,2.5-0.2,3.7-0.6L237.3,91z"/>
<path class="st0" d="M30,39.8l32.2,64.6l32.4-64.6H30z M66,52.8h3.8v3.7H66V52.8z M58.5,67.8h-3.7V64h3.7L58.5,67.8z M58.5,62.2
	h-3.7v-3.8h3.7L58.5,62.2z M58.5,56.5h-3.7v-3.8h3.7L58.5,56.5z M64.2,73.4h-3.7v-3.8h3.7L64.2,73.4z M64.2,67.8h-3.7V64h3.7
	L64.2,67.8z M64.2,62.2h-3.7v-3.8h3.7L64.2,62.2z M64.2,56.5h-3.7v-3.8h3.7L64.2,56.5z M66,58.4h3.8v3.7H66V58.4z M66,67.7V64h3.7
	v3.7H66z"/>
<path class="st0" d="M125.5,41.3v-5.6h-5.2v5.7h-2.6V27.8h2.6v5.7h5.2v-5.7h2.6v13.6H125.5z M137.8,41.3h-2.1l-0.2-0.7
	c-0.9,0.6-1.9,0.9-3,0.9c-1.9,0-2.7-1.2-2.7-2.9c0-2,0.9-2.8,3-2.8h2.4v-1c0-1.1-0.3-1.5-2-1.5c-1,0-1.9,0.1-2.8,0.3l-0.3-1.9
	c1.1-0.3,2.3-0.5,3.5-0.5c3.2,0,4.1,1.1,4.1,3.5L137.8,41.3z M135.2,37.6h-1.9c-0.8,0-1.1,0.2-1.1,1s0.2,1,1,1
	c0.7,0,1.3-0.2,1.9-0.5L135.2,37.6z M143.2,41.6c-1.2,0-2.4-0.2-3.5-0.6l0.4-1.9c1,0.3,2,0.4,3,0.4c1.1,0,1.3-0.2,1.3-1
	s-0.1-0.9-1.8-1.3c-2.5-0.6-2.8-1.2-2.8-3.1s0.9-2.8,3.8-2.8c1,0,2.1,0.1,3.1,0.4l-0.2,1.9c-0.9-0.2-1.9-0.3-2.8-0.3
	c-1.1,0-1.3,0.2-1.3,0.8c0,0.8,0.1,0.8,1.4,1.2c2.9,0.7,3.1,1.1,3.1,3.1S146.2,41.6,143.2,41.6L143.2,41.6z M154.9,41.3v-6.8
	c0-0.5-0.2-0.8-0.8-0.8c-0.9,0.1-1.8,0.4-2.7,0.8v6.8h-2.6V27.6l2.6,0.4v4.3c1.2-0.6,2.4-0.9,3.7-1c1.7,0,2.3,1.2,2.3,2.9v7.1H154.9
	z M159.6,30.2v-2.4h2.6v2.4H159.6z M159.6,41.3v-9.8h2.6v9.8H159.6z M164.2,31.6c0-2.5,1.5-3.9,5-3.9c1.3,0,2.5,0.1,3.8,0.4
	l-0.3,2.2c-1.1-0.2-2.3-0.3-3.4-0.3c-1.8,0-2.4,0.6-2.4,2v5.2c0,1.4,0.6,2,2.4,2c1.1,0,2.3-0.1,3.4-0.3L173,41
	c-1.2,0.3-2.5,0.4-3.8,0.5c-3.5,0-5-1.4-5-3.9V31.6z M178.6,41.6c-3.5,0-4.4-1.9-4.4-3.9v-2.5c0-2,0.9-3.9,4.4-3.9s4.4,1.8,4.4,3.9
	v2.5C183,39.7,182.1,41.6,178.6,41.6L178.6,41.6z M178.6,33.4c-1.4,0-1.9,0.6-1.9,1.7v2.6c0,1.1,0.5,1.7,1.9,1.7s1.9-0.6,1.9-1.7
	v-2.6C180.5,34,179.9,33.5,178.6,33.4L178.6,33.4z M190.2,33.6c-0.9,0.4-1.8,0.9-2.7,1.4v6.3H185v-9.8h2.2l0.2,1.1
	c0.8-0.5,1.7-1,2.7-1.3L190.2,33.6z M200.4,38.1c0,2.2-1,3.5-3.4,3.5c-0.9,0-1.8-0.1-2.7-0.3v4l-2.6,0.4V31.5h2l0.2,0.8
	c0.9-0.7,2.1-1,3.2-1c2.1,0,3.1,1.2,3.1,3.4L200.4,38.1z M194.3,39.2c0.7,0.2,1.5,0.2,2.3,0.3c0.9,0,1.3-0.4,1.3-1.3v-3.5
	c0-0.8-0.3-1.2-1.3-1.2c-0.8,0-1.6,0.3-2.3,0.9V39.2z"/>
</svg>
