<?xml version="1.0" encoding="UTF-8"?>
<svg width="457px" height="467px" viewBox="0 0 457 467" version="1.1" xmlns="http://www.w3.org/2000/svg" xmlns:xlink="http://www.w3.org/1999/xlink">
    <!-- Generator: Sketch 60.1 (88133) - https://sketch.com -->
    <title>Group</title>
    <desc>Created with Sketch.</desc>
    <g id="Page-1" stroke="none" stroke-width="1" fill="none" fill-rule="evenodd">
        <g id="Group" transform="translate(228.500000, 233.500000) scale(-1, 1) rotate(-180.000000) translate(-228.500000, -233.500000) " fill-rule="nonzero">
            <path d="M228.6,233.4 L447.2,233.4 C447.2,109.9 349.3,9.8 228.6,9.8 L228.6,233.4 Z" id="Path" fill="#5A0046" opacity="0.7446"></path>
            <path d="M234.5,0.4 L240.4,0.6 L246.2,1 L252,1.5 L263.4,3 L274.6,5.1 L285.6,7.7 L296.4,10.8 L307,14.5 L317.4,18.7 L327.5,23.4 L337.3,28.5 L346.9,34.1 L356.2,40.2 L365.1,46.7 L373.7,53.6 L382,60.9 L389.9,68.6 L397.5,76.7 L404.7,85.2 L411.5,94 L417.9,103.1 L423.8,112.6 L429.3,122.4 L434.3,132.4 L438.9,142.7 L443,153.3 L446.6,164.1 L449.7,175.2 L452.2,186.5 L454.2,198 L455.7,209.7 L456.6,221.5 L456.9,233.5 L456.7,235.4 L456.1,237.2 L455.2,238.8 L454,240.2 L452.6,241.4 L451,242.3 L449.2,242.9 L447.3,243.1 L228.6,243.1 L226.7,242.9 L224.9,242.3 L223.3,241.4 L221.9,240.2 L220.7,238.8 L219.8,237.2 L219.2,235.4 L219,233.5 L219,9.8 L219.2,7.9 L219.8,6.1 L220.7,4.5 L221.9,3.1 L223.3,1.9 L224.9,1 L226.7,0.4 L228.6,0.2 L234.5,0.4 Z M228.6,233.4 L447.2,233.4 L446.9,221.9 L446.1,210.5 L444.7,199.3 L442.8,188.3 L440.4,177.5 L437.5,166.9 L434.1,156.5 L430.2,146.3 L425.8,136.4 L421,126.8 L415.7,117.4 L410,108.3 L403.9,99.5 L397.4,91.1 L390.5,83 L383.3,75.2 L375.7,67.8 L367.8,60.8 L359.5,54.2 L350.9,48 L342,42.2 L332.8,36.8 L323.4,31.9 L313.7,27.4 L303.8,23.4 L293.6,19.9 L283.2,16.9 L272.6,14.4 L261.8,12.4 L250.9,11 L239.8,10.1 L228.6,9.8 L228.6,233.4 Z" id="Shape" fill="#FFFFFF"></path>
            <path d="M228.6,233.4 L228.6,457 C349.3,457 447.2,356.9 447.2,233.4 L228.6,233.4 Z" id="Path" fill="#AD8100" opacity="0.7633"></path>
            <path d="M449.1,224.1 L450.9,224.7 L452.5,225.6 L453.9,226.8 L455.1,228.2 L456,229.8 L456.6,231.6 L456.8,233.5 L456.5,245.5 L455.6,257.3 L454.1,269 L452.1,280.5 L449.6,291.8 L446.5,302.9 L442.9,313.7 L438.8,324.3 L434.2,334.6 L429.2,344.6 L423.7,354.4 L417.8,363.9 L411.4,373 L404.6,381.8 L397.4,390.3 L389.8,398.4 L381.9,406.1 L373.6,413.4 L365,420.3 L356.1,426.8 L346.8,432.9 L337.2,438.5 L327.4,443.6 L317.3,448.3 L306.9,452.5 L296.3,456.2 L285.5,459.3 L274.5,461.9 L263.3,464 L251.9,465.5 L246.1,466 L240.3,466.4 L234.4,466.6 L228.5,466.7 L226.6,466.5 L224.8,465.9 L223.2,465 L221.8,463.8 L220.6,462.4 L219.7,460.8 L219.1,459 L218.9,457.1 L218.9,233.4 L219.1,231.5 L219.7,229.7 L220.6,228.1 L221.8,226.7 L223.2,225.5 L224.8,224.6 L226.6,224 L228.5,223.8 L447.1,223.8 L449.1,224.1 Z M228.6,233.4 L228.6,457 L239.8,456.7 L250.9,455.8 L261.8,454.4 L272.6,452.4 L283.2,449.9 L293.6,446.9 L303.8,443.4 L313.7,439.4 L323.4,434.9 L332.8,430 L342,424.6 L350.9,418.8 L359.5,412.6 L367.8,406 L375.7,399 L383.3,391.6 L390.5,383.8 L397.4,375.7 L403.9,367.3 L410,358.5 L415.7,349.4 L421,340 L425.8,330.4 L430.2,320.5 L434.1,310.3 L437.5,299.9 L440.4,289.3 L442.8,278.5 L444.7,267.5 L446.1,256.3 L446.9,244.9 L447.2,233.4 L228.6,233.4 L228.6,233.4 Z" id="Shape" fill="#FFFFFF"></path>
            <path d="M228.6,233.4 L228.6,9.8 C107.9,9.8 10,109.9 10,233.4 L228.6,233.4 Z" id="Path" fill="#001563" opacity="0.7643"></path>
            <path d="M230.5,0.5 L232.3,1.1 L233.9,2 L235.3,3.2 L236.5,4.6 L237.4,6.2 L238,8 L238.2,9.9 L238.2,233.5 L238,235.4 L237.4,237.2 L236.5,238.8 L235.3,240.2 L233.9,241.4 L232.3,242.3 L230.5,242.9 L228.6,243.1 L10,243.1 L8.1,242.9 L6.3,242.3 L4.7,241.4 L3.3,240.2 L2.1,238.8 L1.2,237.2 L0.6,235.4 L0.4,233.5 L0.7,221.5 L1.6,209.7 L3.1,198 L5.1,186.5 L7.6,175.2 L10.7,164.1 L14.3,153.3 L18.4,142.7 L23,132.4 L28,122.4 L33.5,112.6 L39.4,103.1 L45.8,94 L52.6,85.2 L59.8,76.7 L67.4,68.6 L75.3,60.9 L83.6,53.6 L92.2,46.7 L101.1,40.2 L110.4,34.1 L120,28.5 L129.8,23.4 L139.9,18.7 L150.3,14.5 L160.9,10.8 L171.7,7.7 L182.7,5.1 L193.9,3 L205.3,1.5 L211,1 L216.8,0.6 L222.7,0.4 L228.6,0.3 L230.5,0.5 Z M217.3,10.1 L206.2,11 L195.3,12.4 L184.5,14.4 L174,16.8 L163.6,19.8 L153.4,23.3 L143.5,27.3 L133.8,31.8 L124.4,36.7 L115.2,42.1 L106.3,47.9 L97.7,54.1 L89.4,60.7 L81.5,67.7 L74,75.3 L66.8,83.1 L59.9,91.2 L53.4,99.6 L47.3,108.4 L41.6,117.5 L36.3,126.9 L31.5,136.5 L27.1,146.4 L23.2,156.6 L19.8,167 L16.9,177.6 L14.5,188.4 L12.6,199.4 L11.2,210.6 L10.4,222 L10,233.4 L228.6,233.4 L228.6,9.8 L217.3,10.1 Z" id="Shape" fill="#FFFFFF"></path>
            <path d="M228.6,233.4 L10,233.4 C10,356.9 107.9,457 228.6,457 L228.6,233.4 Z" id="Path" fill="#005C0C" opacity="0.7899"></path>
            <path d="M230.5,224.1 L232.3,224.7 L233.9,225.6 L235.3,226.8 L236.5,228.2 L237.4,229.8 L238,231.6 L238.2,233.5 L238.2,457 L238,458.9 L237.4,460.7 L236.5,462.3 L235.3,463.7 L233.9,464.9 L232.3,465.8 L230.5,466.4 L228.6,466.6 L222.7,466.5 L216.8,466.3 L211,465.9 L205.2,465.4 L193.8,463.9 L182.6,461.8 L171.6,459.2 L160.8,456.1 L150.2,452.4 L139.8,448.2 L129.7,443.5 L119.9,438.4 L110.3,432.8 L101,426.7 L92.1,420.2 L83.5,413.3 L75.2,406 L67.3,398.3 L59.7,390.2 L52.5,381.7 L45.7,372.9 L39.3,363.8 L33.4,354.3 L27.9,344.5 L22.9,334.5 L18.3,324.2 L14.2,313.6 L10.6,302.8 L7.5,291.7 L5,280.4 L3,268.9 L1.5,257.2 L0.6,245.4 L0.3,233.4 L0.5,231.5 L1.1,229.7 L2,228.1 L3.2,226.7 L4.6,225.5 L6.2,224.6 L8,224 L9.9,223.8 L228.5,223.8 L230.5,224.1 Z M10,233.4 L10.3,244.9 L11.1,256.3 L12.5,267.5 L14.4,278.5 L16.8,289.3 L19.7,299.9 L23.1,310.3 L27,320.5 L31.4,330.4 L36.2,340 L41.5,349.4 L47.2,358.5 L53.3,367.3 L59.8,375.7 L66.7,383.8 L73.9,391.6 L81.5,399 L89.4,406 L97.7,412.6 L106.3,418.8 L115.2,424.6 L124.4,430 L133.8,434.9 L143.5,439.4 L153.4,443.4 L163.6,446.9 L174,449.9 L184.6,452.4 L195.4,454.4 L206.3,455.8 L217.4,456.7 L228.6,457 L228.6,233.4 L10,233.4 Z" id="Shape" fill="#FFFFFF"></path>
            <path d="M402.3,233.4 C402.3,331.5 324.5,411 228.6,411 C132.7,411 54.9,331.5 54.9,233.4 C54.9,135.3 132.7,55.8 228.6,55.8 C324.5,55.8 402.3,135.3 402.3,233.4 Z" id="Path" fill="#FFFFFF"></path>
            <path d="M239.9,354.7 C247.9,354.7 256,354.3 264.2,353.5 C272.4,352.7 280.9,351.6 289.6,350.2 C298.3,348.8 306.4,347.1 313.8,345.3 C321.2,343.5 328,341.3 334.1,339 L308.2,264.9 C300.1,275.8 291.1,284.2 281.1,290.2 C271.1,296.2 260.7,299.2 249.8,299.2 C243.3,299.2 238.7,297.9 235.8,295.3 C232.9,292.7 231.5,289.4 231.5,285.5 C231.5,281.8 234.3,278.3 239.9,274.9 C245.5,271.5 254.1,267.6 265.8,263.2 C296.3,252 316,240.9 324.9,229.8 C333.6,218.9 338,205.5 338,189.5 C338,164.6 328.5,145.4 309.6,132.1 C290.7,118.8 262.5,112.2 225,112.2 C205.5,112.2 187,113.5 169.4,116.2 C151.8,118.9 134.6,123.4 117.7,129.9 L143.1,208.4 C150.3,197.1 159.4,188 170.4,181.1 C181.3,174.2 191.8,170.8 202,170.8 C207,170.8 211.2,172.1 214.6,174.6 C218,177.1 219.6,180.3 219.6,184.1 C219.6,188.6 217.3,192.5 212.6,195.9 C207.9,199.2 200.7,202.8 190.8,206.6 C166.6,215.7 149.9,225.6 140.9,236.3 C132,247.1 127.5,260.3 127.5,275.9 C127.5,302.1 136.9,321.8 155.8,335 C174.7,348.2 202.8,354.7 239.9,354.7 Z" id="Path" fill="#000000"></path>
        </g>
    </g>
</svg>