<svg xmlns="http://www.w3.org/2000/svg" viewBox="0 0 142.5323 180"><title>r-Artboard 11</title><path d="M60.8532,173.0248l-.1989,1.0451H58.3531L57.2247,180h-1.136l1.1284-5.93H54.9044l.1989-1.0451Zm8.512,0L68.038,180h-1.136l.9292-4.8833-2.8319,3.3091h-.6784L62.75,175.107,61.8191,180H60.683l1.3273-6.9752H63.036l1.8915,3.9955,3.41-3.9955ZM71.2008,42.3335,78.4862,3.9884H33.476L0,180H51.1166l13.8029-72.5717C73.0581,64.6346,97.61,47.51,132.55,52.8L142.5323.3A70.8107,70.8107,0,0,0,71.2008,42.3335Z" fill="#fff"/></svg>