<?xml version="1.0" encoding="UTF-8"?>
<svg width="602px" height="342px" viewBox="0 0 602 342" version="1.1" xmlns="http://www.w3.org/2000/svg" xmlns:xlink="http://www.w3.org/1999/xlink">
    <!-- Generator: Sketch 51.2 (57519) - http://www.bohemiancoding.com/sketch -->
    <title>logo-vertical-monochrome</title>
    <desc>Created with Sketch.</desc>
    <defs></defs>
    <g id="logo-vertical-monochrome" stroke="none" stroke-width="1" fill="none" fill-rule="evenodd">
        <g id="logo-vertical" transform="translate(180.000000, 0.000000)">
            <g id="snyk-wordmark---black" transform="translate(0.000000, 200.000000)" fill="#000000" fill-rule="nonzero">
                <path d="M217.745006,95.9369698 L202.463068,69.4280703 L200.925832,69.4280703 L200.925832,95.9369698 L181.846016,95.9369698 L181.846016,29.93522 L200.925832,0.180332651 L200.925832,61.7639329 C204.72371,57.1203671 217.518942,39.4928504 217.518942,39.4928504 L241.074828,39.4928504 L218.739688,63.0713443 L241.843446,95.9820533 L217.745006,95.9820533 L217.745006,95.9369698 Z M157.114596,39.6731831 L176.01356,39.6731831 L153.859272,95.7566375 C147.258199,112.61774 137.808716,124.02378 123.702312,124.02378 C118.276772,124.02378 113.710276,122.626202 111.313996,121.273707 L118.909752,109.552085 C120.040073,109.687334 121.215606,109.732418 122.39114,109.732418 C128.901788,109.732418 133.784774,103.420775 136.949672,95.9369698 L113.710276,39.6731831 L135.095946,39.6731831 L143.460321,64.7845045 C145.087982,69.5633199 146.263516,78.6701189 146.263516,78.6701189 C146.263516,78.6701189 147.75554,69.8789018 149.292776,65.1000868 L157.114596,39.6731831 Z M91.6464135,95.9369698 L91.6464135,63.792675 C91.6464135,56.4441194 88.3910892,52.9727158 82.1969311,52.9727158 C79.1676714,52.9727158 76.0027729,53.8292962 73.8325571,55.136708 L73.8325571,95.9369698 L54.7527412,95.9369698 L54.7527412,40.214181 L73.4256415,38.6813535 L72.9735133,47.7881524 L73.6064928,47.7881524 C77.6304351,42.3781728 84.4575728,38.275605 92.5958828,38.275605 C102.361855,38.275605 110.816655,44.3167488 110.816655,58.6081112 L110.816655,95.9369698 L91.6464135,95.9369698 Z M20.5266264,97.1542155 C12.3883164,97.1542155 5.78724268,95.7566375 0.1356385,93.0516477 L1.85372617,80.0676968 C7.82182017,82.9981023 14.5585323,84.3956803 20.2101365,84.3956803 C24.3245044,84.3956803 27.0372744,82.9981023 27.0372744,80.5185283 C27.0372744,73.3953889 1.31117217,75.1085487 1.31117217,56.4892029 C1.31117217,44.5872476 12.2526779,38.3206882 25.9521664,38.3206882 C32.7793042,38.3206882 39.8325063,40.1690979 44.3990024,41.7920917 L42.5452763,54.5506269 C37.7527159,52.702217 31.2420679,50.9890568 25.8165279,50.9890568 C22.4707782,50.9890568 19.7580082,52.161219 19.7580082,54.3252107 C19.7580082,61.3581844 46.0266646,59.960606 46.0266646,78.1291208 C46.0266646,90.2114083 35.2660101,97.1542155 20.5266264,97.1542155 Z" id="snyk-wordmark"></path>
            </g>
            <g id="snyk-dog---monochrome" fill-rule="evenodd" stroke-width="1">
                <g id="dog" transform="translate(56.466667, 20.570000)">
                    <path d="M94.2713922,14.0548818 L95.1217338,15.6273995 C96.9790712,19.0505606 113.234092,49.3834745 113.233206,60.3426601 L113.233206,60.9851585 L105.864028,80.7312735 C107.062139,91.4946504 109.445088,114.881589 107.646152,119.450758 C106.535643,122.276876 102.302436,128.09083 98.6815567,132.798988 L96.7808873,132.802776 L98.7494191,150.886599 L92.8148701,155.178247 L90.3844357,132.815525 L88.213714,132.819851 C87.9994216,133.546976 87.7651276,134.262363 87.5088493,134.958042 C86.1493658,138.652177 83.7469907,141.451579 80.6741852,143.109716 C80.4941623,151.965655 72.2511292,156.743455 64.4845362,156.743455 C56.6535387,156.743455 48.341445,151.969495 48.158318,143.116627 C45.0793052,141.455419 42.6738265,138.656017 41.3127908,134.958042 C41.0679296,134.292334 40.8428871,133.608949 40.6360164,132.914675 L38.5129214,132.918907 L36.0735026,155.416331 L30.1389533,151.272141 L32.1270957,132.931634 L30.2600441,132.935355 C26.6108496,128.206218 22.2962345,122.305723 21.1751071,119.448135 C19.376171,114.878093 21.6662087,91.4946504 22.8660893,80.7295256 L15.3632958,60.9860326 L15.3632958,60.3426601 C15.3632958,49.3834745 31.7483916,19.0505606 33.6083836,15.6273995 L33.7579854,15.3564648 C35.5481627,11.8432718 36.9407505,9.26387345 37.3856525,8.44351776 L42.0390902,0 C42.0390902,0 46.2890282,29.344181 46.2859245,29.3702934 L48.5773369,45.2228177 L50.7201363,62.7821703 C53.320255,61.9626921 56.969982,61.0148094 60.8858298,60.6257342 C61.9527475,58.0100576 63.1110889,56.2633913 64.3852134,56.2633913 C66.8276179,56.2633913 69.2618262,58.61451 71.4517066,61.1265169 C73.8675141,61.5646097 76.0679297,62.1511421 77.8282939,62.6926573 L80.2427508,45.2235857 L86.7709103,0 L91.3281287,8.44351776 C91.715523,9.15885571 92.8171766,11.211696 94.2713922,14.0548818 Z" id="Shape-Copy-45" fill="#FFFFFF" fill-rule="nonzero"></path>
                    <path d="M64.4571185,200.799615 L0,155.320814 L0,49.2690771 C0,49.2690771 23.8336663,40.4208206 64.5447223,40.4208206 C105.255778,40.4208206 128.91515,49.2690771 128.91515,49.2690771 L128.91515,155.320814 L64.4571185,200.799615 Z" id="Shape-Copy-44" fill="#FFFFFF" fill-rule="nonzero"></path>
                    <path d="M110.803863,48.5164926 C111.976965,52.1989493 112.720069,55.4797439 112.720069,57.9097153 L112.720069,58.9047039 L105.767457,77.6103169 C107.385586,92.3759763 108.922725,110.644928 107.216092,115.02571 C106.372795,117.192351 103.834553,121.103138 99.7015607,126.623907 L104.186901,168.071752 L124.845182,153.266926 L124.845182,52.3439478 C124.845182,52.3439478 119.939028,50.4856361 110.803863,48.5164926 Z" id="Shape" fill="#000000" fill-rule="nonzero"></path>
                    <path d="M51.6010472,57.9697147 C55.0635763,56.9155604 59.6916925,55.8697396 64.4166624,55.8697396 C69.1508172,55.8697396 73.8089913,56.9213936 77.2890541,57.9755479 L79.4357053,54.452256 L80.8676409,44.4523738 C80.8676409,44.4523738 70.8624603,43.9215467 64.5285455,43.9215467 C58.6388231,43.9215467 53.1356814,44.1240443 48.0266354,44.4640403 L49.460241,54.452256 L51.6010472,57.9697147 Z" id="Shape" fill="#000000" fill-rule="nonzero"></path>
                    <path d="M21.6773495,115.024877 C19.969881,110.645761 21.509525,92.3768096 23.127654,77.6111502 L16.1750428,58.9055372 L16.1750428,57.9105486 C16.1750428,55.4847438 16.9139718,52.2081158 18.0854036,48.5314924 C8.95023869,50.4964693 4.04742463,52.3447811 4.04742463,52.3447811 L4.04742463,153.269426 L24.7883654,168.132585 L29.266191,126.727239 C25.0897815,121.152304 22.5256566,117.206518 21.6773495,115.024877 Z" id="Shape" fill="#000000" fill-rule="nonzero"></path>
                    <path d="M104.029096,113.790724 C105.145421,110.919925 104.504181,97.3492515 102.309938,77.4836519 L102.27821,77.1811555 L109.298452,58.2922107 L109.298452,57.9097153 C109.298452,49.6681457 98.6261476,27.6150719 92.3172816,15.8860433 L89.2396637,10.1602773 L82.7195554,55.6280755 L78.8053195,62.0588333 L77.8317704,61.7330037 C75.1056654,60.8196811 69.7402901,59.2855327 64.4158278,59.2855327 C59.3668975,59.2855327 54.3672297,60.6121838 51.0591659,61.7271705 L50.0889564,62.0571667 L46.1722159,55.6289088 L39.6512729,10.1611107 L36.5744899,15.8868766 C30.2664585,27.6159052 19.5924846,49.6673124 19.5924846,57.9105486 L19.5924846,58.293044 L26.6160663,77.1819888 L26.5826684,77.4844852 C24.3884253,97.3500848 23.7455154,110.917425 24.8635107,113.788224 C25.8662831,116.364028 29.8498195,121.873963 33.1854364,126.254745 L28.3794763,170.708388 L33.1695724,174.137514 L37.6432232,132.753835 C37.7392422,135.96463 38.142522,142.667885 39.77735,148.813646 L36.7598483,176.711651 L64.4442157,196.552251 L97.6784818,172.736698 L100.591615,170.648389 L95.7789757,126.156412 C99.1029032,121.79063 103.033003,116.345695 104.029096,113.790724 Z M92.3373203,28.006734 C97.7227343,38.9449386 103.373662,51.9314524 103.761077,57.3530554 L100.742741,65.4737931 C93.4878783,55.2922461 91.2093056,38.7449409 91.0164325,37.2324587 L92.3373203,28.006734 Z M83.6087751,88.5885213 C90.1280479,88.5885213 85.2511174,94.113456 84.6800132,94.7376155 L72.3486674,94.7376155 C73.4716726,93.3367986 77.7148777,88.5885213 83.6087751,88.5885213 Z M80.0928094,99.9842203 C79.9976254,100.669212 79.4123266,101.163373 78.7401938,101.172539 C78.9389114,102.072529 79.6728304,102.795854 80.6397004,102.932519 C81.8854424,103.10835 83.0376704,102.239194 83.2096698,100.994209 C83.3382517,100.080886 82.900739,99.2225626 82.1651499,98.7617348 L86.0793859,98.7617348 L86.0793859,98.9550658 C86.0793859,101.792532 83.7757644,104.094172 80.932767,104.094172 C78.0897692,104.094172 75.7861482,101.793366 75.7861482,98.9550658 L75.7861482,98.7617348 L79.7563253,98.7617348 C79.7346166,98.7759011 79.7170829,98.7967344 79.6937041,98.8109007 C79.9909458,99.1092306 80.1554306,99.5325589 80.0928094,99.9842203 Z M67.4842611,159.971848 C68.2390538,160.467675 69.0322544,160.867671 69.8605229,161.181833 C68.5571692,162.665149 66.7645358,163.414307 64.4458857,163.414307 C62.1272355,163.414307 60.3354371,162.663483 59.0320834,161.177667 C59.8611869,160.863504 60.656892,160.461842 61.4116852,159.963514 C62.4703992,160.837671 63.6535201,160.853504 64.4467207,160.853504 C65.2432608,160.853504 66.4255471,160.847671 67.4842611,159.971848 Z M47.1182121,99.9842203 C47.023028,100.669212 46.4385642,101.163373 45.7672662,101.172539 C45.9668188,102.072529 46.6982331,102.795854 47.6659376,102.932519 C48.9108451,103.10835 50.0605685,102.239194 50.2367424,100.994209 C50.3619843,100.080886 49.9261416,99.2225626 49.1930576,98.7617348 L53.1072931,98.7617348 L53.1072931,98.9550658 C53.1072931,101.792532 50.8011671,104.094172 47.9581697,104.094172 C45.1176768,104.094172 42.8098808,101.793366 42.8098808,98.9550658 L42.8098808,98.7617348 L46.7817279,98.7617348 C46.7600192,98.7759011 46.7399805,98.7967344 46.7191068,98.8109007 C47.018853,99.1092306 47.1833378,99.5325589 47.1182121,99.9842203 Z M44.2150981,94.7376155 C43.640654,94.1126226 38.7653932,88.5885213 45.2863363,88.5885213 C51.1802337,88.5885213 55.4192642,93.3367986 56.5456089,94.7376155 L44.2150981,94.7376155 Z M25.2125189,57.3530554 C25.6016046,51.9314524 31.2500271,38.9457719 36.636276,28.006734 L38.0715515,38.0107829 C37.5263305,41.7515722 35.0214868,56.4197329 28.3068358,65.6704574 L25.2125189,57.3530554 Z M44.8179305,150.651124 C41.9273409,142.733717 41.893943,131.654681 41.893943,131.186353 L41.8964478,130.428862 L41.4230323,129.838869 C37.1447593,124.536432 29.9575278,115.086542 28.8762703,112.309909 L28.8386976,112.199076 C27.8768376,108.861616 29.6076846,88.9301839 30.9227276,77.1503224 L30.9778341,76.6428281 L29.5266947,72.7395411 L30.0777603,72.1595476 C33.76823,68.299593 36.9084691,62.7413253 39.4116429,55.6472422 L41.1500044,50.7214667 L42.0651073,57.0988916 L48.3338963,67.3879371 L50.0413644,66.6579458 C50.1098301,66.6287793 57.295392,63.5513156 64.4174974,63.5513156 L64.4467207,63.5513156 L64.4467207,66.9646088 L64.4158278,66.9646088 C58.1069613,66.9646088 51.4557662,69.7629093 51.3881355,69.792909 L46.9553973,71.6978865 L40.7684332,61.5421726 C38.671879,66.3587826 36.2263166,70.3712354 33.4651439,73.522865 L34.4662464,76.2178332 L34.3209655,77.5294846 C32.4498473,94.2742873 31.6190741,108.942448 32.1041789,111.176588 C32.7771469,112.72657 36.1653654,117.482348 39.8800486,122.338124 L45.6795967,120.646477 L54.7705096,110.284933 L56.1982702,137.137116 C56.1114357,137.253782 54.0165515,140.191247 54.0165515,141.869561 C54.0165515,143.694539 56.6992391,146.071178 59.3426842,147.976156 C59.3802567,147.90199 59.4011304,147.816158 59.4420429,147.746158 C60.3788545,146.091178 61.5828495,145.790348 62.13475,147.062833 C62.4445155,147.781158 62.3484964,149.927799 62.3484964,149.927799 L62.3860693,149.949466 L62.3818943,152.494436 C62.2883802,152.706933 60.0423704,157.728541 54.5133454,157.728541 C52.3742091,157.726874 47.1516099,157.038549 44.8179305,150.651124 Z M64.519361,169.362571 C60.4231065,169.362571 54.4415401,167.368427 53.8428825,161.967658 C54.0666485,161.979324 54.2845699,161.995157 54.5125104,161.995157 C54.9775764,161.995157 55.4342929,161.967658 55.8851648,161.920992 C57.712031,165.451783 61.0551623,166.573437 64.4458857,166.573437 C67.8332694,166.573437 71.1647115,165.439283 72.9890724,161.918492 C73.4441193,161.965991 73.9100203,161.994324 74.3826005,161.994324 C74.6097064,161.994324 74.8284628,161.978491 75.0497242,161.966824 C74.4602508,167.368427 68.5596738,169.362571 64.519361,169.362571 Z M87.472079,129.838869 L86.9969934,130.428862 L86.9986634,131.186353 C86.9986634,131.654681 86.9652655,142.735384 84.0738407,150.651124 C81.7409964,157.038549 76.5175626,157.727707 74.3826005,157.727707 C68.8652651,157.727707 66.6008861,152.610268 66.5023624,152.396103 L66.5023624,149.954466 L66.5457795,149.926966 C66.5457795,149.926966 66.4480909,147.780325 66.7570217,147.062 C67.3097572,145.789515 68.5162568,146.090344 69.4513984,147.745325 C69.4906409,147.815324 69.5140196,147.90199 69.5490871,147.975322 C72.1967072,146.070345 74.8777248,143.693706 74.8777248,141.868728 C74.8777248,140.19208 72.7878502,137.261282 72.6976757,137.13795 L74.1254367,110.284099 L83.2138444,120.645644 L92.5251834,123.363945 C90.73756,125.723084 88.9349074,128.025557 87.472079,129.838869 Z" id="Shape" fill="#000000" fill-rule="nonzero"></path>
                </g>
            </g>
        </g>
    </g>
</svg>