<?xml version="1.0" encoding="UTF-8" standalone="no"?>
<!DOCTYPE svg PUBLIC "-//W3C//DTD SVG 1.1//EN" "http://www.w3.org/Graphics/SVG/1.1/DTD/svg11.dtd">
<svg width="100%" height="100%" viewBox="0 0 296 290" version="1.1" xmlns="http://www.w3.org/2000/svg" xmlns:xlink="http://www.w3.org/1999/xlink" xml:space="preserve" xmlns:serif="http://www.serif.com/" style="fill-rule:evenodd;clip-rule:evenodd;stroke-linejoin:round;stroke-miterlimit:2;">
    <g transform="matrix(1,0,0,1,0,-589)">
        <g id="knative-stacked-color" transform="matrix(1.00063,0,0,1.00076,-94.5788,-145.715)">
            <rect x="94.519" y="734.156" width="295.312" height="289.78" style="fill:none;"/>
            <g transform="matrix(0.999365,0,0,0.99924,126.18,565.229)">
                <g transform="matrix(0.746887,0,0,0.746887,9.67007,165.935)">
                    <path d="M138.414,4.669L33.749,55.073C32.762,55.548 32.044,56.448 31.801,57.516L5.951,170.773C5.707,171.841 5.963,172.963 6.646,173.819L79.077,264.645C79.759,265.501 80.796,266 81.891,266L198.061,266C199.156,266 200.193,265.501 200.876,264.645L273.307,173.819C273.99,172.963 274.246,171.841 274.002,170.773L248.152,57.516C247.908,56.448 247.191,55.548 246.204,55.073L141.538,4.669C140.552,4.194 139.401,4.194 138.414,4.669Z" style="fill:rgb(7,102,174);fill-rule:nonzero;"/>
                    <path d="M264.363,5.032L223.213,20.009C222.815,20.154 222.481,20.434 222.269,20.801L200.374,58.725C200.162,59.092 200.086,59.521 200.16,59.938L207.764,103.065C207.838,103.481 208.056,103.859 208.38,104.131L241.926,132.28C242.25,132.552 242.66,132.701 243.083,132.701L286.875,132.701C287.298,132.701 287.708,132.552 288.032,132.28L321.578,104.131C321.902,103.859 322.121,103.481 322.194,103.065L329.798,59.938C329.872,59.521 329.796,59.092 329.585,58.725L307.689,20.801C307.477,20.434 307.143,20.154 306.745,20.009L265.595,5.032C265.197,4.887 264.761,4.887 264.363,5.032Z" style="fill:rgb(102,148,201);fill-rule:nonzero;"/>
                    <path d="M257.2,53.902C257.984,53.143 258.816,52.433 259.69,51.778C260.548,51.139 261.466,50.583 262.431,50.118C263.43,49.644 264.479,49.281 265.558,49.037C266.756,48.772 267.979,48.642 269.206,48.651C271.181,48.614 273.141,48.996 274.957,49.771C276.583,50.484 278.028,51.552 279.185,52.899C280.365,54.301 281.245,55.929 281.772,57.685C282.369,59.662 282.662,61.719 282.641,63.785L282.641,89.069L272.024,89.069L272.024,63.785C272.139,61.938 271.591,60.11 270.48,58.631C269.324,57.354 267.642,56.678 265.924,56.798C264.466,56.79 263.026,57.12 261.716,57.762C260.332,58.457 259.068,59.37 257.973,60.465L257.973,89.069L247.317,89.069L247.317,49.269L253.88,49.269C255.09,49.183 256.205,49.959 256.544,51.123L257.2,53.902Z" style="fill:white;fill-rule:nonzero;"/>
                    <path d="M103.794,97.348L126.275,97.348L126.275,141.717L126.722,141.717C128.955,137.845 131.337,134.273 133.571,130.699L156.351,97.348L184.192,97.348L150.991,140.078L185.978,197.698L159.478,197.698L134.912,154.371L126.275,164.943L126.275,197.698L103.794,197.698L103.794,97.348Z" style="fill:white;fill-rule:nonzero;"/>
                </g>
                <g transform="matrix(1.02353,0,0,0.576764,-526.529,256.643)">
                    <g transform="matrix(78.1609,0,0,138.705,476.548,349.383)">
                        <path d="M0.664,0L0.492,0L0.305,-0.301L0.241,-0.255L0.241,0L0.09,0L0.09,-0.714L0.241,-0.714L0.241,-0.387L0.301,-0.471L0.494,-0.714L0.662,-0.714L0.413,-0.398L0.664,0Z" style="fill:rgb(7,102,174);fill-rule:nonzero;"/>
                    </g>
                    <g transform="matrix(78.1609,0,0,138.705,528.452,349.383)">
                        <path d="M0.582,0L0.433,0L0.433,-0.319C0.433,-0.358 0.426,-0.388 0.412,-0.407C0.398,-0.427 0.376,-0.437 0.345,-0.437C0.304,-0.437 0.273,-0.423 0.255,-0.395C0.236,-0.367 0.227,-0.321 0.227,-0.257L0.227,0L0.078,0L0.078,-0.546L0.192,-0.546L0.212,-0.476L0.22,-0.476C0.237,-0.502 0.26,-0.522 0.289,-0.536C0.318,-0.549 0.351,-0.556 0.388,-0.556C0.452,-0.556 0.5,-0.539 0.533,-0.505C0.566,-0.47 0.582,-0.421 0.582,-0.356L0.582,0Z" style="fill:rgb(7,102,174);fill-rule:nonzero;"/>
                    </g>
                    <g transform="matrix(78.1609,0,0,138.705,579.821,349.383)">
                        <path d="M0.425,0L0.396,-0.074L0.392,-0.074C0.367,-0.043 0.341,-0.021 0.315,-0.009C0.288,0.004 0.254,0.01 0.211,0.01C0.159,0.01 0.117,-0.005 0.087,-0.035C0.057,-0.065 0.042,-0.108 0.042,-0.163C0.042,-0.221 0.062,-0.264 0.103,-0.291C0.143,-0.319 0.204,-0.334 0.286,-0.337L0.381,-0.34L0.381,-0.364C0.381,-0.419 0.353,-0.447 0.296,-0.447C0.252,-0.447 0.201,-0.434 0.142,-0.407L0.093,-0.508C0.156,-0.541 0.225,-0.557 0.302,-0.557C0.375,-0.557 0.431,-0.541 0.47,-0.509C0.509,-0.477 0.529,-0.429 0.529,-0.364L0.529,0L0.425,0ZM0.381,-0.253L0.323,-0.251C0.28,-0.25 0.248,-0.242 0.227,-0.228C0.205,-0.213 0.195,-0.191 0.195,-0.162C0.195,-0.12 0.219,-0.099 0.267,-0.099C0.302,-0.099 0.329,-0.109 0.35,-0.129C0.371,-0.149 0.381,-0.175 0.381,-0.208L0.381,-0.253Z" style="fill:rgb(7,102,174);fill-rule:nonzero;"/>
                    </g>
                    <g transform="matrix(78.1609,0,0,138.705,627.03,349.383)">
                        <path d="M0.308,-0.109C0.334,-0.109 0.365,-0.115 0.402,-0.126L0.402,-0.015C0.365,0.001 0.319,0.01 0.265,0.01C0.206,0.01 0.162,-0.005 0.135,-0.035C0.108,-0.066 0.094,-0.111 0.094,-0.171L0.094,-0.434L0.023,-0.434L0.023,-0.497L0.105,-0.547L0.148,-0.662L0.243,-0.662L0.243,-0.546L0.396,-0.546L0.396,-0.434L0.243,-0.434L0.243,-0.171C0.243,-0.15 0.249,-0.134 0.261,-0.124C0.273,-0.114 0.289,-0.109 0.308,-0.109Z" style="fill:rgb(7,102,174);fill-rule:nonzero;"/>
                    </g>
                    <g transform="matrix(78.1609,0,0,138.705,660.959,349.383)">
                        <path d="M0.072,-0.687C0.072,-0.736 0.099,-0.76 0.153,-0.76C0.207,-0.76 0.234,-0.736 0.234,-0.687C0.234,-0.664 0.227,-0.646 0.214,-0.633C0.2,-0.62 0.18,-0.614 0.153,-0.614C0.099,-0.614 0.072,-0.638 0.072,-0.687ZM0.227,0L0.078,0L0.078,-0.546L0.227,-0.546L0.227,0Z" style="fill:rgb(7,102,174);fill-rule:nonzero;"/>
                    </g>
                    <g transform="matrix(78.1609,0,0,138.705,684.812,349.383)">
                        <path d="M0.208,0L0,-0.546L0.156,-0.546L0.261,-0.235C0.273,-0.195 0.28,-0.158 0.283,-0.123L0.286,-0.123C0.288,-0.154 0.295,-0.192 0.308,-0.235L0.413,-0.546L0.569,-0.546L0.361,0L0.208,0Z" style="fill:rgb(7,102,174);fill-rule:nonzero;"/>
                    </g>
                    <g transform="matrix(78.1609,0,0,138.705,729.273,349.383)">
                        <path d="M0.304,-0.45C0.273,-0.45 0.248,-0.44 0.23,-0.42C0.212,-0.4 0.202,-0.372 0.199,-0.335L0.408,-0.335C0.408,-0.372 0.398,-0.4 0.379,-0.42C0.361,-0.44 0.336,-0.45 0.304,-0.45ZM0.325,0.01C0.237,0.01 0.169,-0.014 0.119,-0.063C0.07,-0.111 0.045,-0.18 0.045,-0.269C0.045,-0.361 0.068,-0.431 0.114,-0.481C0.159,-0.531 0.222,-0.556 0.303,-0.556C0.38,-0.556 0.44,-0.534 0.483,-0.49C0.526,-0.446 0.548,-0.386 0.548,-0.308L0.548,-0.236L0.196,-0.236C0.197,-0.194 0.21,-0.16 0.233,-0.137C0.257,-0.113 0.29,-0.101 0.332,-0.101C0.365,-0.101 0.396,-0.104 0.425,-0.111C0.455,-0.118 0.485,-0.129 0.517,-0.144L0.517,-0.029C0.491,-0.016 0.463,-0.006 0.434,0C0.404,0.007 0.368,0.01 0.325,0.01Z" style="fill:rgb(7,102,174);fill-rule:nonzero;"/>
                    </g>
                </g>
            </g>
        </g>
    </g>
</svg>
