<?xml version="1.0" encoding="UTF-8" standalone="no"?>
<!DOCTYPE svg PUBLIC "-//W3C//DTD SVG 1.1//EN" "http://www.w3.org/Graphics/SVG/1.1/DTD/svg11.dtd">
<svg width="100%" height="100%" viewBox="0 0 242 196" version="1.1" xmlns="http://www.w3.org/2000/svg" xmlns:xlink="http://www.w3.org/1999/xlink" xml:space="preserve" xmlns:serif="http://www.serif.com/" style="fill-rule:evenodd;clip-rule:evenodd;stroke-linejoin:round;stroke-miterlimit:2;">
    <g transform="matrix(1,0,0,1,-4.10182,0)">
        <g id="knative-icon-color" transform="matrix(1,0,0,1,-156.759,-89.1564)">
            <rect x="160.86" y="89.156" width="241.965" height="195.451" style="fill:none;"/>
            <clipPath id="_clip1">
                <rect x="160.86" y="89.156" width="241.965" height="195.451"/>
            </clipPath>
            <g clip-path="url(#_clip1)">
                <g transform="matrix(0.746887,0,0,0.746887,156.483,85.9352)">
                    <path d="M138.414,4.669L33.749,55.073C32.762,55.548 32.044,56.448 31.801,57.516L5.951,170.773C5.707,171.841 5.963,172.963 6.646,173.819L79.077,264.645C79.759,265.501 80.796,266 81.891,266L198.061,266C199.156,266 200.193,265.501 200.876,264.645L273.307,173.819C273.99,172.963 274.246,171.841 274.002,170.773L248.152,57.516C247.908,56.448 247.191,55.548 246.204,55.073L141.538,4.669C140.552,4.194 139.401,4.194 138.414,4.669Z" style="fill:rgb(7,102,174);fill-rule:nonzero;"/>
                    <path d="M264.363,5.032L223.213,20.009C222.815,20.154 222.481,20.434 222.269,20.801L200.374,58.725C200.162,59.092 200.086,59.521 200.16,59.938L207.764,103.065C207.838,103.481 208.056,103.859 208.38,104.131L241.926,132.28C242.25,132.552 242.66,132.701 243.083,132.701L286.875,132.701C287.298,132.701 287.708,132.552 288.032,132.28L321.578,104.131C321.902,103.859 322.121,103.481 322.194,103.065L329.798,59.938C329.872,59.521 329.796,59.092 329.585,58.725L307.689,20.801C307.477,20.434 307.143,20.154 306.745,20.009L265.595,5.032C265.197,4.887 264.761,4.887 264.363,5.032Z" style="fill:rgb(102,148,201);fill-rule:nonzero;"/>
                    <path d="M257.2,53.902C257.984,53.143 258.816,52.433 259.69,51.778C260.548,51.139 261.466,50.583 262.431,50.118C263.43,49.644 264.479,49.281 265.558,49.037C266.756,48.772 267.979,48.642 269.206,48.651C271.181,48.614 273.141,48.996 274.957,49.771C276.583,50.484 278.028,51.552 279.185,52.899C280.365,54.301 281.245,55.929 281.772,57.685C282.369,59.662 282.662,61.719 282.641,63.785L282.641,89.069L272.024,89.069L272.024,63.785C272.139,61.938 271.591,60.11 270.48,58.631C269.324,57.354 267.642,56.678 265.924,56.798C264.466,56.79 263.026,57.12 261.716,57.762C260.332,58.457 259.068,59.37 257.973,60.465L257.973,89.069L247.317,89.069L247.317,49.269L253.88,49.269C255.09,49.183 256.205,49.959 256.544,51.123L257.2,53.902Z" style="fill:white;fill-rule:nonzero;"/>
                    <path d="M103.794,97.348L126.275,97.348L126.275,141.717L126.722,141.717C128.955,137.845 131.337,134.273 133.571,130.699L156.351,97.348L184.192,97.348L150.991,140.078L185.978,197.698L159.478,197.698L134.912,154.371L126.275,164.943L126.275,197.698L103.794,197.698L103.794,97.348Z" style="fill:white;fill-rule:nonzero;"/>
                </g>
            </g>
        </g>
    </g>
</svg>
