<?xml version="1.0" encoding="UTF-8" standalone="no"?>
<!DOCTYPE svg PUBLIC "-//W3C//DTD SVG 1.1//EN" "http://www.w3.org/Graphics/SVG/1.1/DTD/svg11.dtd">
<svg width="100%" height="100%" viewBox="0 0 394 260" version="1.1" xmlns="http://www.w3.org/2000/svg" xmlns:xlink="http://www.w3.org/1999/xlink" xml:space="preserve" xmlns:serif="http://www.serif.com/" style="fill-rule:evenodd;clip-rule:evenodd;stroke-linejoin:round;stroke-miterlimit:2;">
    <g transform="matrix(1,0,0,1,0,-517.23)">
        <g id="ibm-cloud-stacked-color-editable" transform="matrix(0.389978,0,0,0.485564,21.3815,373.923)">
            <rect x="-54.827" y="295.136" width="1009.8" height="534.224" style="fill:none;"/>
            <g transform="matrix(2.05284,0,0,2.47811,-377.668,-962.129)">
                <g id="IBM_Cloud" transform="matrix(1.02448,0,0,0.681601,-165.308,568.88)">
                    <path d="M314.989,224.676L314.989,217.455L325.098,217.455L325.098,159.898L314.989,159.898L314.989,152.678L343.871,152.678L343.871,159.898L333.762,159.898L333.762,217.455L343.871,217.455L343.871,224.676L314.989,224.676ZM359.652,152.678L389.256,152.678C401.118,152.678 408.441,160.001 408.441,171.245C408.441,181.972 401.531,185.788 396.786,186.511L396.786,187.129C401.943,187.439 410.917,191.874 410.917,203.84C410.917,215.702 402.975,224.676 392.351,224.676L359.652,224.676L359.652,152.678ZM368.316,183.829L388.225,183.829C395.032,183.829 399.158,180.218 399.158,173.824L399.158,170.316C399.158,163.921 395.032,160.311 388.225,160.311L368.316,160.311L368.316,183.829ZM368.316,217.043L389.669,217.043C397.095,217.043 401.634,213.123 401.634,205.903L401.634,202.396C401.634,195.175 397.095,191.255 389.669,191.255L368.316,191.255L368.316,217.043ZM483.019,164.024L482.503,164.024L476.418,176.092L459.191,207.45L442.069,176.092L435.983,164.127L435.467,164.127L435.467,224.676L427.009,224.676L427.009,152.678L438.356,152.678L458.985,191.462L459.398,191.462L480.131,152.678L491.478,152.678L491.478,224.676L483.019,224.676L483.019,164.024ZM526.443,189.193C526.443,164.849 538.925,151.44 558.316,151.44C571.52,151.44 579.979,156.804 585.239,168.357L571.727,175.371C569.869,169.388 566.053,165.365 558.316,165.365C549.137,165.365 543.051,171.554 543.051,182.901L543.051,194.454C543.051,205.799 549.137,211.989 558.316,211.989C566.053,211.989 570.488,207.141 572.654,201.261L585.445,208.688C580.081,219.621 571.52,225.913 558.316,225.913C538.925,225.913 526.443,213.536 526.443,189.193L526.443,189.193ZM610.716,224.676C600.298,224.676 595.553,219.415 595.553,209.823L595.553,148.345L610.819,148.345L610.819,212.814L617.627,212.814L617.627,224.676L610.716,224.676ZM623.403,197.547C623.403,180.116 632.893,169.285 648.777,169.285C664.663,169.285 674.152,180.116 674.152,197.547C674.152,214.98 664.663,225.913 648.777,225.913C632.893,225.913 623.403,214.98 623.403,197.547L623.403,197.547ZM658.268,203.118L658.268,192.08C658.268,185.273 654.761,181.353 648.777,181.353C642.795,181.353 639.288,185.273 639.288,192.08L639.288,203.118C639.288,209.925 642.795,213.845 648.777,213.845C654.761,213.845 658.268,209.925 658.268,203.118L658.268,203.118ZM716.959,215.599L716.443,215.599C714.587,221.066 710.151,225.913 701.28,225.913C690.243,225.913 684.363,218.177 684.363,204.562L684.363,170.523L699.63,170.523L699.63,203.221C699.63,209.823 701.796,213.535 707.366,213.535C712.11,213.535 716.959,210.854 716.959,205.697L716.959,170.523L732.225,170.523L732.225,224.676L716.959,224.676L716.959,215.599ZM779.673,215.599L779.157,215.599C777.61,221.478 771.628,225.913 764.613,225.913C750.895,225.913 743.777,215.909 743.777,197.547C743.777,179.187 750.895,169.285 764.613,169.285C771.628,169.285 777.61,173.617 779.157,179.6L779.673,179.6L779.673,148.345L794.939,148.345L794.939,224.676L779.673,224.676L779.673,215.599ZM779.673,205.593L779.673,189.605C779.673,184.654 775.444,181.662 769.668,181.662C763.892,181.662 759.662,186.098 759.662,192.906L759.662,202.292C759.662,209.1 763.892,213.535 769.668,213.535C775.444,213.535 779.673,210.544 779.673,205.593L779.673,205.593Z" style="fill-rule:nonzero;"/>
                </g>
                <g id="Layer_1-2" transform="matrix(1.49095,0,0,0.991952,254.976,258.352)">
                    <g id="pkI8Hz.tif">
                        <path d="M96.4,265.8C96.4,262.1 96.4,258.4 96.3,254.6C96.3,252.9 97.3,252 98.5,251.1L100,251.1C101.7,252.1 102.2,253.5 102.2,255.4C102.1,259.9 102.2,264.4 102.2,268.9C102.2,269.8 102.4,270.8 101.7,271.6C100.2,269.9 101.2,267.9 100.9,266.1C100.8,263.7 100.9,261.2 101.4,258.8C101.3,260.6 101,260.8 97.8,259.7C97.6,261 97.9,262.3 97.7,263.6C97.5,264.4 97.9,265.6 96.4,265.8Z" style="fill:rgb(51,217,221);fill-rule:nonzero;"/>
                        <path d="M51.3,389.8C39.5,388.5 30.9,382.5 25.2,372.2C25.4,370.5 26.6,371.4 27.2,371.6C28.7,372.2 30.1,373 31.4,373.9C31.3,373.3 30.2,372.5 31.5,372C36.4,378.2 42.5,382.4 50.3,384C51.3,384.8 52.5,383.9 53.5,384.5C53.4,385.8 52.3,385.4 51.5,385.6C51.6,385.5 51.8,385.6 51.9,385.7C55.3,388.8 59.5,388.8 63.7,388.6C64.3,388.6 64.9,388.6 65.5,388.9C65.8,389 66,389.3 66.1,389.5C66.1,389.8 65.8,390.1 65.5,390.1C60.9,389.9 56.1,390.2 51.3,389.8Z" style="fill:rgb(0,98,254);fill-rule:nonzero;"/>
                        <path d="M41.8,306.6C41,306.6 40.1,306.3 39.5,305.8L27,298.6C25.2,297.5 23.8,296.1 25.1,294C26.3,291.8 28.1,292.4 29.8,293.4C34.1,295.9 38.4,298.3 42.7,300.8C44.1,301.6 45,302.8 44.5,304.5C44.3,305.8 43.1,306.7 41.8,306.6Z" style="fill:rgb(12,158,239);fill-rule:nonzero;"/>
                        <path d="M53.5,384.6C52.5,384.3 51.3,385 50.4,384C62.9,384.5 75.4,384.1 87.9,384.3C88.8,384.3 89.8,384.4 90.7,384.5C92.3,385.3 94,384.6 95.6,384.9C96.3,385.1 97,385.5 97.6,386.1C99.9,388 102.5,389.2 105.6,388.6C106.5,388.7 107.5,388.5 108,389.6C107.4,390.5 106.4,390.1 105.6,390.1L94.5,390.1C93.7,389.9 93,389.8 92.2,389.9C88.3,390.3 84.8,389.8 81.9,386.8C81,385.9 79.8,386.1 78.7,386C70.7,385.4 62.7,385.5 54.7,385.4C54.3,385.2 53.8,384.9 53.5,384.6Z" style="fill:rgb(6,118,252);fill-rule:nonzero;"/>
                        <path d="M95.9,385C94.2,384.7 92.3,385.7 90.7,384.4C97.5,384.2 104.3,384.2 111.1,384.4C113,385.1 115,384.7 117,384.7C118.2,384.6 119.4,385 120.4,385.8C122.3,387.7 125,388.7 127.7,388.5C128.4,388.4 130.1,387.9 129.7,389.9C123.2,389.9 116.7,390.1 110.2,389.7C109.4,389.8 108.6,389.6 108,389.2L105.4,389.2C102.4,387.4 99.5,385.4 95.9,385Z" style="fill:rgb(0,128,249);fill-rule:nonzero;"/>
                        <path d="M64.1,270.4C65.5,272.7 66.9,275 68.2,277.3C69.2,279 69.1,280.8 67.3,281.8C65.5,282.8 64,281.9 63,280.2C61,276.6 59,273.1 57,269.5C57.5,267.4 58.9,268.3 59.9,268.7C61.4,269.3 62.8,269.9 64.1,270.4Z" style="fill:rgb(32,188,230);fill-rule:nonzero;"/>
                        <path d="M135.7,384.5C141.2,384.4 146.7,383.4 151.8,381.4C154.6,381.5 156.5,383 156.6,385C153.2,387.3 149.2,388.8 145.1,389.4C145,389.2 145,388.9 145.2,388.7C145.5,388.5 145.8,388.5 146.7,388.5C145.4,388.5 144.2,387.9 143.4,387C142.1,385.6 140.1,385 138.2,385.5C137.3,385.7 136,386.2 135.7,384.5Z" style="fill:rgb(2,144,243);fill-rule:nonzero;"/>
                        <path d="M129.9,389.7C129.3,389.2 128.5,389 127.7,389.3C124.9,389.8 122,388.8 120.1,386.7C118.6,385.1 116.9,385.1 115,385.1C113.7,385.1 112.2,385.7 111.1,384.6C115.5,384.4 119.8,384.4 124.2,384.6C124.4,384.9 124.7,385 125.1,384.9C128.8,384.5 132.2,385 135,387.9C136,389 137.6,388.5 139,388.6C140.1,388.7 141.5,388.1 142,389.8L140.6,389.9C137,390.2 133.5,390.2 129.9,389.7Z" style="fill:rgb(1,133,247);fill-rule:nonzero;"/>
                        <path d="M142,389.7C141.4,389.2 140.6,389 139.8,389.2C136.9,389.6 134.4,389 132.4,386.7C130.9,385 129,384.8 126.8,385C125.9,385.1 124.9,385.4 124.2,384.4C128,384.2 131.9,384.2 135.7,384.4C136,385 136.7,385.2 137.3,384.9C140.8,383.4 142.9,385.5 145.4,387.4C146.9,388.5 145.6,388.7 145.2,389.2C144.2,389.8 143.1,389.9 142,389.7Z" style="fill:rgb(1,138,245);fill-rule:nonzero;"/>
                        <path d="M171.2,298.6L163.9,302.8C160.7,302.4 159.5,301.5 159,299.1C161.5,297.3 164.2,295.8 167,294.5C169,295.1 170.6,296.6 171.2,298.6Z" style="fill:rgb(47,213,221);fill-rule:nonzero;"/>
                        <path d="M31.6,372C30.9,373.4 32.7,373.7 32.8,375.3C31.2,374.4 29.8,373.6 28.4,372.9C27.4,372.4 26.5,371.3 25.2,372.3C23.8,369.9 22.4,367.6 22.1,364.8C21.4,362.7 22.6,362.7 23.8,363.5C25.1,364.3 26.3,365 27.8,364.7C28.3,367.5 30.6,369.4 31.6,372Z" style="fill:rgb(1,102,254);fill-rule:nonzero;"/>
                        <path d="M156.6,385C155.9,382.6 153.3,382.7 151.8,381.4L160.1,376.2C161.4,377.5 163.8,377.9 163.9,380.4C161.7,382.2 159.5,384.1 156.6,385Z" style="fill:rgb(7,151,241);fill-rule:nonzero;"/>
                        <path d="M167,330.8L163.9,326.6C164.2,324.1 166.1,323.4 168.1,322.8C170.7,325.6 172.8,328.8 174.3,332.2C173.6,333.7 172.5,333.1 171.5,332.7C170,332.1 168.5,331.3 167,330.8Z" style="fill:rgb(36,195,228);fill-rule:nonzero;"/>
                        <path d="M27.9,364.6C26.4,366.5 25.3,365 24,364.1C23.2,363.5 22.1,362.4 22.1,364.6C21.3,362.5 20.9,360.2 21,357.9C20.7,355.1 20.8,355 24.5,355C26,355 26.6,355.8 26.5,357.3C26.3,358.2 26.4,359 26.7,359.8L27.9,364.6Z" style="fill:rgb(1,106,254);fill-rule:nonzero;"/>
                        <path d="M129.9,389.7L140.6,389.8C139.4,390.2 138.2,390.3 137,390.1L55.2,390.1C53.9,390.1 52.6,390.3 51.3,389.8L66.1,389.7C67.7,388.6 69.4,389.1 71.1,389.1C73.1,389 75.1,389.1 77.1,389C82.9,388.7 88.5,389.7 94.3,389.7C98.2,389.7 102.2,389.7 106.1,389.8C106.8,389.8 107.5,389.9 108,389.3C115.3,389.7 122.6,389.9 129.9,389.7Z" style="fill:rgb(6,124,250);fill-rule:nonzero;"/>
                        <path d="M177.1,358C176.8,360.3 176.4,362.6 174.9,364.6C172.9,364.3 170.8,364.4 170,361.9C171.2,358.4 172,354.7 172.3,351C173.2,351 173.3,351.7 173.3,352.2C173.2,354.4 174.4,355.7 176.3,356.4C176.9,356.5 177.2,357.1 177.1,357.6C177.2,357.8 177.2,357.9 177.1,358Z" style="fill:rgb(23,173,235);fill-rule:nonzero;"/>
                        <path d="M156,313.4C160.3,315.2 164.2,318.1 167.1,321.7C167.6,323.9 165.5,324 164.4,324.9C163.6,325.5 162.9,324.4 162.4,323.8C160.2,321.2 158.1,318.4 155.8,315.8C154.6,314.3 154.7,313.9 156,313.4Z" style="fill:rgb(40,199,227);fill-rule:nonzero;"/>
                        <path d="M64.1,270.4C62.6,271.4 61.5,270.2 60.4,269.5C59.3,268.8 58.3,268.3 57.2,269.5C56.5,268.5 55.9,267.5 55.3,266.4C54.6,265 55.1,263.3 56.5,262.6C58.1,261.7 59.4,262.3 60.3,263.6C61.7,265.9 62.8,268.2 64.1,270.4Z" style="fill:rgb(36,193,229);fill-rule:nonzero;"/>
                        <path d="M135.6,268.3C136.5,266.7 137.3,265.1 138.3,263.6C139.2,262.3 140.6,261.6 142.1,262.6C143.5,263.3 144,265 143.3,266.4C143.3,266.5 143.2,266.6 143.1,266.7C142.2,268.2 141.4,269.7 140.5,271.1C138.3,271.1 136.8,270 135.6,268.3Z" style="fill:rgb(54,227,218);fill-rule:nonzero;"/>
                        <path d="M135.6,268.3L140.5,271.1C139.3,273.2 138.4,275.5 136.9,277.4C134.8,277.6 132.9,276.5 132,274.6L135.6,268.3Z" style="fill:rgb(50,220,220);fill-rule:nonzero;"/>
                        <path d="M96.4,265.8C97.7,263.5 96.4,260.9 97.2,258.3C98.4,258.6 99.1,260.1 100.3,259.8C101.9,259.5 100.7,257.8 101.7,256.5L101.7,265.7C101.5,266 101.4,266.3 101.4,266.7C101.2,268.8 100.7,269.1 98.8,268.3C98.4,268.1 98.2,267.7 97.7,267.7C97.4,269.1 98.1,270.7 96.9,271.9C95.7,270 96.5,267.9 96.4,265.8Z" style="fill:rgb(45,211,222);fill-rule:nonzero;"/>
                        <path d="M159,299.1C160,301.2 162,301.9 163.9,302.8C162.2,303.9 160.4,305 158.6,306C157,306.8 155.4,307.1 154.3,305.1C153.4,303.4 154,301.9 155.5,300.8C156.7,300.2 157.9,299.7 159,299.1Z" style="fill:rgb(46,208,224);fill-rule:nonzero;"/>
                        <path d="M163.9,380.3C163.3,378.3 160.5,378.3 160.1,376.1L165,370.9C166.3,372.3 168.3,372.9 169.3,374.6C167.8,376.8 166,378.7 163.9,380.3Z" style="fill:rgb(12,158,239);fill-rule:nonzero;"/>
                        <path d="M175.9,336.4C178.2,342.4 178.7,349 177.6,355.4C176.4,354.3 176.8,352.8 176.7,351.5C176.7,349.7 176.8,347.8 176.7,346C176.2,344.3 174.5,344 173.3,343.3C172.6,344 173.1,345.1 172.2,345.6L170.7,338.7C170.1,337.2 170.6,336.7 172,337.3C173.4,337.9 174.8,337.7 175.9,336.4Z" style="fill:rgb(33,188,230);fill-rule:nonzero;"/>
                        <path d="M175.9,336.4C175.5,338.5 174.4,339 172.5,337.9C172.2,337.7 170.5,336.3 170.7,338.5C169.5,335.9 168.2,333.3 167,330.7C168.7,330.1 169.8,331.3 171.2,331.9C172.2,332.3 173.2,333.1 174.3,332.2C175.1,333.5 175.6,334.9 175.9,336.4Z" style="fill:rgb(34,191,229);fill-rule:nonzero;"/>
                        <path d="M177.5,344.8C177.5,348.3 177.6,351.9 177.6,355.4C177.7,356.3 177.5,357.2 177.1,358C177.1,357.8 177.1,357.5 177,357.5C173.8,356.5 172.5,354.2 172.4,351L172.4,350.4C172.7,348.7 172.7,346.7 175.4,348C176.3,348.4 176.2,347.4 176.3,346.8C176.6,346.2 176.1,345 177.5,344.8Z" style="fill:rgb(28,180,232);fill-rule:nonzero;"/>
                        <path d="M58.7,302.2C62.4,297.5 67,293.6 72.3,290.8C73.6,290.3 73.8,290.9 73.3,291.9C72.7,292.8 72.1,293.6 71.3,294.2C69.1,296.4 66.7,298.4 64.2,300.2C63.1,301.2 61.8,302 60.5,302.7C59.6,303.3 59.6,303.2 58.7,302.2Z" style="fill:rgb(36,177,236);fill-rule:nonzero;"/>
                        <path d="M131.9,274.6C133.4,275.8 135,276.8 136.8,277.4C136.2,278.5 135.7,279.7 135,280.8C134.1,282.2 132.7,282.8 131.2,281.9C129.7,281 129,279.7 130,277.9C130.6,276.8 131.3,275.7 131.9,274.6Z" style="fill:rgb(50,215,221);fill-rule:nonzero;"/>
                        <path d="M156,313.4C154.7,314.3 155.8,314.8 156.3,315.3C158.3,317.7 160.3,320 162.3,322.4C164.5,325 165.5,324.9 167.1,321.6C167.6,321.8 168,322.2 168.1,322.7C166.7,323.9 164.8,324.7 163.9,326.5L158.2,321.3C156.6,318.2 154.1,315.8 152.1,313.1C151.4,312.2 150.6,311.4 152.7,311.7C153.6,312.7 155.2,312.1 156,313.4Z" style="fill:rgb(49,200,228);fill-rule:nonzero;"/>
                        <path d="M169.2,374.7C167.7,373.6 165.3,373.4 164.9,371L167.9,366.2C169.6,367.2 171,368.6 172.3,370.1C171.4,371.6 170.8,373.4 169.2,374.7Z" style="fill:rgb(16,163,238);fill-rule:nonzero;"/>
                        <path d="M80.1,287.2C81.6,286.4 83.2,285.9 84.8,285.6C86.2,285.3 86.5,285.9 85.5,286.8C83.2,288.9 81.1,291.2 79.2,293.6L72.9,297.2C71.5,296.2 72.7,295.5 73.2,294.8C74.8,292.9 76.5,291.2 78.3,289.6C79,288.9 80.2,288.5 80.1,287.2Z" style="fill:rgb(53,189,234);fill-rule:nonzero;"/>
                        <path d="M172.4,370C170.5,369.3 168.9,367.9 168,366.1C168.7,364.7 169.4,363.3 170.1,361.9C171.3,363.5 173.3,363.6 175,364.6C174.2,366.5 173.9,368.6 172.4,370Z" style="fill:rgb(20,167,237);fill-rule:nonzero;"/>
                        <path d="M21.1,352.4C21.1,350.3 21.5,348.2 22.2,346.3C24.3,348 25.9,350.3 26.6,352.9C27.1,354.6 26.5,355.8 24.4,355.4L23.6,355.4C20.7,355.5 20.7,355.5 21.1,352.4Z" style="fill:rgb(6,119,253);fill-rule:nonzero;"/>
                        <path d="M64.2,304.5L60.4,309.2C57.5,310.3 55.8,313.1 53.1,314.5C52.6,314.8 52.2,315.4 51.6,315.4C50.6,315.5 50.6,315 51,314.3C51.1,313.5 51.5,312.7 52,312.2C54.7,309.6 57.6,307.1 60.6,304.9C61.4,304.4 62,303.6 63,303.6C63.6,303.7 64,304 64.2,304.5Z" style="fill:rgb(57,175,241);fill-rule:nonzero;"/>
                        <path d="M177.5,344.8C176.9,345.3 177,346.1 177,346.7C177,348.8 177.1,350.3 174.3,348.4C172.3,347.1 173.4,350 172.4,350.4L172.2,345.4C172.4,341.8 172.5,341.7 175.7,343.7C176.3,344.1 177.2,344.1 177.5,344.8Z" style="fill:rgb(30,183,231);fill-rule:nonzero;"/>
                        <path d="M86.5,290.9C86.1,291.3 85.5,291.4 84.9,291.3C83.6,290.9 83.6,290.2 84.3,289.3C84.7,288.8 85.1,288.4 85.5,288C86.3,287.1 87.2,286.3 88.2,285.7C88.6,285.8 88.2,285.2 88.2,285.5C88.2,285.6 88.1,285.6 88,285.6C87.6,285.6 87.1,285.4 86.9,285.1C88.9,284.3 91,284 93.1,284C93.7,283.8 94.3,283.5 94.8,284.1C95.1,284.4 94.8,284.8 94.5,285C92,287.1 89.8,289.8 86.5,290.9Z" style="fill:rgb(70,200,233);fill-rule:nonzero;"/>
                        <path d="M64.2,304.5L63,304C62.6,303.3 62.9,302.6 63.1,301.8C63.4,301.2 63.8,300.8 64.3,300.4C66.6,298.8 68.7,297 70.9,295.2C71.7,294.9 72.6,294.4 73.4,295.1C73.1,295.8 72.2,296.3 72.9,297.2C69.9,299.4 66.9,301.9 64.2,304.5Z" style="fill:rgb(51,180,237);fill-rule:nonzero;"/>
                        <path d="M86.9,285.1L89.2,285.1C87.7,286.7 86.4,288.1 85,289.4C84.3,290.1 83.8,290.6 84.8,291.4L79.1,293.6C80.1,290.4 82.7,288.5 85,286.4C85.9,285.6 85.1,285.8 84.7,285.6C85.4,285.1 86.2,285 86.9,285.1Z" style="fill:rgb(60,194,233);fill-rule:nonzero;"/>
                        <path d="M128.4,292.5C129.9,292.9 131.2,293.8 132.1,295.1C131.4,297.1 129.5,298.4 127.4,298.2L123.2,295.6C124.9,294.6 126.4,293.2 128.4,292.5Z" style="fill:rgb(225,247,250);fill-rule:nonzero;"/>
                        <path d="M171.2,298.6L167,294.5C167.7,294.1 168.3,293.7 169,293.3C170.7,292.1 172.3,292.1 173.5,294C174.6,295.9 173.8,297.2 172.2,298.2C171.9,298.3 171.6,298.5 171.2,298.6Z" style="fill:rgb(52,219,220);fill-rule:nonzero;"/>
                        <path d="M97,272L97,266.5C99,267.9 101,269.6 101.7,265.8C101.7,267.8 101.7,269.7 101.8,271.7C100.2,273.8 98.9,273.9 97,272Z" style="fill:rgb(43,207,224);fill-rule:nonzero;"/>
                        <path d="M50.9,314.4C51,315 51.2,315.5 51.8,314.9C53.7,313 56.3,312 57.9,309.8C58.5,308.9 59.3,308.5 60.3,309.3L57.7,313.5C55.7,314.2 54.4,315.7 53,317.1C52.2,317.9 51.3,318.6 50.4,319.2C49.9,319.5 49.2,319.8 49.3,318.6C49.5,316.9 50.1,315.6 50.9,314.4Z" style="fill:rgb(64,175,242);fill-rule:nonzero;"/>
                        <path d="M53,348.9C54.3,352.4 53.8,353.7 50.5,355.3C49.9,355.6 49.5,355.5 49.3,355C48.7,354.2 48.3,353.1 48.3,352.1C49.5,349.3 50.7,348.5 53,348.9Z" style="fill:rgb(229,241,254);fill-rule:nonzero;"/>
                        <path d="M152.6,311.7C152.3,311.9 151.4,311.6 152.2,312.5C154,314.5 155.8,316.6 157.4,318.8C157.9,319.5 158.9,320.2 158.1,321.3L153.9,318.7C152.7,316.3 150.5,314.5 149.2,312.2C148.8,311.5 147.7,310.2 149.9,310.7C150.9,310.8 151.9,311.1 152.6,311.7Z" style="fill:rgb(61,203,230);fill-rule:nonzero;"/>
                        <path d="M86.5,290.9L94.7,284.2L93.2,284C94.8,283.2 96.4,283.6 98,283.6C98.2,284 98.1,284.5 97.7,284.8C95.6,286.4 94.3,288.9 91.7,289.8L86.5,290.9Z" style="fill:rgb(79,204,234);fill-rule:nonzero;"/>
                        <path d="M91.8,289.8L98.1,283.6L101.8,283.6C102.4,284.5 101.9,285.1 101.3,285.6C99.4,287.1 97.8,289.3 95,289.4C93.9,290 92.8,289.7 91.8,289.8Z" style="fill:rgb(89,208,234);fill-rule:nonzero;"/>
                        <path d="M47.3,348.4L46.8,345.8C47.2,344.5 48.3,343.9 49.2,343.2C50.4,342.5 51,341.2 50.8,339.9L50.8,336.2C51,335.1 50.4,333.7 52,333.2L52,343.2C52.5,346.3 51.3,348.2 48.6,349C48.1,349.1 47.5,348.9 47.3,348.4Z" style="fill:rgb(209,232,253);fill-rule:nonzero;"/>
                        <path d="M130.9,309.6C134.5,308 138.3,308.4 142,309.1C141.9,309.3 141.6,309.5 141.4,309.6C140.9,309.8 140.3,309.8 139.8,309.8L137.1,309.8C136.5,309.7 135.9,309.8 135.6,309.3C136.4,311.3 138.5,312.4 139.4,314.4L136.3,314.4C133.7,313.9 131.7,312.1 130.9,309.6Z" style="fill:rgb(121,216,238);fill-rule:nonzero;"/>
                        <path d="M49.3,318.4C51.2,318.7 51.8,316.9 53,316C54.1,315.1 55.1,314.2 56.1,313.2C56.7,312.6 57.2,313.1 57.8,313.3L55.7,317.5C53.5,318.7 51.5,320.1 49.6,321.7C48.8,322.3 48,323 48.4,321.1C48.3,320.2 48.6,319.2 49.3,318.4Z" style="fill:rgb(71,175,244);fill-rule:nonzero;"/>
                        <path d="M64.6,300.8L63.6,301.8C61.7,304.8 58.6,306.4 55.8,308.4C55.1,308.9 54.1,309 54.7,307.5C55.8,305.5 57.2,303.7 58.8,302.1C59.7,303.4 60.3,302 60.9,301.7C62,301.1 63.1,300.3 64.1,299.6C64.4,300 64.6,300.4 64.6,300.8Z" style="fill:rgb(42,173,239);fill-rule:nonzero;"/>
                        <path d="M128.4,292.5C126.9,293.9 125.5,295.6 123.2,295.6L120.6,294C121.8,292.4 123.5,291.1 125.3,290.4C126.6,290.5 127.4,291.6 128.4,292.5Z" style="fill:rgb(216,244,249);fill-rule:nonzero;"/>
                        <path d="M54.6,307.6C54.7,308.3 54.9,308.5 55.5,308C58.1,305.9 60.8,303.9 63.5,301.9C63.5,302.6 63.4,303.4 63,304C59.5,306.5 56.1,309.2 53,312.1C52.7,312.4 52.4,312.8 52,312.2C52.3,310.4 53.6,309.1 54.6,307.6Z" style="fill:rgb(48,173,240);fill-rule:nonzero;"/>
                        <path d="M24.8,355.2C27.3,354.9 26.5,353.4 25.8,352.1C24.6,350.2 23.1,348.4 22.2,346.3C22.2,345.7 22.3,345.2 22.7,344.7C24.7,345.3 26.7,348.2 26.9,350.5L26.8,359.8C25.9,359 26.3,358.1 26.3,357.1C26.3,356 25.8,355.5 24.7,355.6C24.5,355.5 24.5,355.4 24.5,355.3C24.7,355.3 24.7,355.2 24.8,355.2Z" style="fill:rgb(30,134,253);fill-rule:nonzero;"/>
                        <path d="M51.4,336.4L51.4,338.5C49.8,339.9 48.8,342 46.2,341.7C45.4,338.3 45.4,334.7 46.2,331.2L46.5,331.4C46.7,331.9 46.9,332.4 46.8,332.9L46.8,336.3C46.8,336.8 46.8,337.4 46.9,337.9C48.5,337.5 49.5,335.2 51.4,336.4Z" style="fill:rgb(174,214,252);fill-rule:nonzero;"/>
                        <path d="M47.3,348.4C50.1,348.3 52,346.2 52,343.2C52.9,345 52.4,347.1 53,349C50.7,348.9 49.8,350.9 48.3,352.2C47.7,351 47.3,349.7 47.3,348.4Z" style="fill:rgb(217,235,254);fill-rule:nonzero;"/>
                        <path d="M48.3,321.2C48.4,321.5 48.3,322.3 48.9,321.5C50.3,319.8 52.5,319.2 53.9,317.4C54.4,316.8 55,317.2 55.5,317.5C55.4,318.3 55.1,319 54.6,319.6C53.1,321.8 50.5,322.7 48.6,324.5C48.4,324.7 48,325 47.7,324.7C47.1,324.2 47.4,323.6 47.6,323C47.7,322.4 47.9,321.7 48.3,321.2Z" style="fill:rgb(82,178,245);fill-rule:nonzero;"/>
                        <path d="M103.2,289.3L98,289.2C98,288.2 98.8,288.3 99.4,288.1L101,288.1C104,288.6 105.5,286.1 107.8,284.7C108,284.7 107.7,284.5 107.6,284.6C106.9,285 106.3,285.1 106.3,284C108.4,283.6 110,285.4 112,285.1C109.5,287.4 107.3,290.4 103.2,289.3Z" style="fill:rgb(127,220,237);fill-rule:nonzero;"/>
                        <path d="M51.4,336.4C49.3,336.4 48.1,338.2 46.2,339.5L46.2,336.4C46.9,335 48.2,334.3 49.3,333.4C50.2,332.8 50.8,332 51,330.9C51.2,330.4 51.4,329.9 52,330.1C52,331.1 52,332.2 51.9,333.2C51.1,334.2 51.6,335.3 51.4,336.4Z" style="fill:rgb(152,204,251);fill-rule:nonzero;"/>
                        <path d="M139.9,309.2L141.5,309.2C143.4,309.8 145,311.1 146,312.8C146.6,313.7 147.1,314.6 146.1,315.6L143.5,315C142.9,314.4 142,314.9 141.4,314.5C141.8,313.9 141.7,313.1 141.3,312.5C140.7,311.5 139.4,310.7 139.9,309.2Z" style="fill:rgb(99,211,235);fill-rule:nonzero;"/>
                        <path d="M149.9,310.7C148.9,310.8 149,311.2 149.6,311.8C150.9,313.4 152.1,315.1 153.5,316.7C154,317.3 154.6,317.9 154,318.7L150.9,317.1C150.2,314.9 148.3,313.5 146.8,311.9C146.4,311.4 145.9,310.9 146.3,310.3C146.7,309.7 147.4,309.9 147.9,310.2C148.6,310.1 149.3,310.3 149.9,310.7Z" style="fill:rgb(74,206,231);fill-rule:nonzero;"/>
                        <path d="M128.9,315.5L125.2,316.5C123.3,315.7 121.8,314.2 121,312.3C122.1,311.5 123.3,310.9 124.7,310.8C125.6,312.7 127.1,314.4 128.9,315.5Z" style="fill:rgb(158,224,243);fill-rule:nonzero;"/>
                        <path d="M73.4,295.1L70.8,295.6C70.7,295.2 70.8,294.9 71.1,294.6C73.3,292.5 75.5,290.4 77.6,288.2L80.1,287.1C80.9,287.3 81.6,287.4 80.5,288.3C78.1,290.6 75.8,292.8 73.4,295.1Z" style="fill:rgb(45,186,233);fill-rule:nonzero;"/>
                        <path d="M114.7,322.8C114.1,323.6 113,323.9 112.6,324.9C110.4,324.6 108.7,322.9 108.4,320.7C109,319.7 109.7,318.8 111,318.6C112,320.2 113.2,321.7 114.7,322.8Z" style="fill:rgb(216,240,251);fill-rule:nonzero;"/>
                        <path d="M108.5,320.7C109.7,322.3 110.8,323.9 112.7,324.9C112.3,325.9 111.2,326.2 110.6,327C108.4,326.5 107.4,324.9 106.9,322.8C107,321.8 107.6,321 108.5,320.7Z" style="fill:rgb(226,244,252);fill-rule:nonzero;"/>
                        <path d="M99.6,288.8C99,288.8 98.4,288.7 98,289.3L94.9,289.4C97.7,288.2 100,286.2 101.7,283.6C103.1,283.4 104.5,283.6 105.9,284C106,284.1 106.1,284.3 106.1,284.4C106.1,284.6 106,284.6 106,284.6C103.3,285.3 101.8,287.5 99.6,288.8Z" style="fill:rgb(101,212,235);fill-rule:nonzero;"/>
                        <path d="M130.9,309.6C132.8,311.1 133.9,313.4 136.1,314.4L134.6,314.4C132.5,315 130.7,314.8 129.7,312.5C129.3,311.5 127.8,311.5 127.8,310.3C128.8,309.5 129.9,309.8 130.9,309.6Z" style="fill:rgb(132,218,240);fill-rule:nonzero;"/>
                        <path d="M77.6,288.2C77.9,288.3 78.7,288.5 78.2,288.8C75.6,290.5 73.9,293.2 71.4,295C71,294.8 70.6,294.5 70.9,294C71.6,293.2 72.3,292.5 72.9,291.7C73.5,290.9 72.9,290.9 72.4,290.8C73.9,289.7 75.7,288.8 77.6,288.2Z" style="fill:rgb(40,184,233);fill-rule:nonzero;"/>
                        <path d="M128.9,315.5C126.5,315.2 124.7,313.2 124.7,310.8L126.3,310.3C128.4,311.3 129.3,313.6 131,315C130.5,315.6 129.7,315.4 128.9,315.5Z" style="fill:rgb(147,221,242);fill-rule:nonzero;"/>
                        <path d="M103.2,289.3C105,289.5 106.8,288.9 108,287.6C109.1,286.5 110.7,286 112.1,285.2C112.9,285.2 113.6,285.2 113.8,286.2C111.8,287.6 110.3,290.1 107.4,289.9C106,289.7 104.5,290.2 103.2,289.3Z" style="fill:rgb(140,224,239);fill-rule:nonzero;"/>
                        <path d="M146.1,315.6C146.2,312.3 143.3,311.1 141.5,309.2L142.1,309.1C142.8,309 143.6,309.3 144.1,309.8C146.9,311 148.8,313.6 149.3,316.6C148.2,316.4 147.1,316.1 146.1,315.6Z" style="fill:rgb(90,209,234);fill-rule:nonzero;"/>
                        <path d="M141.5,314.4C142.2,314.5 143.1,314.2 143.6,315C142.2,315.1 140.8,314.9 139.4,314.5C137.3,313.4 136.2,311.5 135,309.6C135.6,309.1 136.2,309.3 136.7,309.3C138.6,310.7 140.8,311.8 141.5,314.4Z" style="fill:rgb(113,214,237);fill-rule:nonzero;"/>
                        <path d="M119.5,319.2C119.2,319.8 118.6,320.2 117.9,320.2C115.3,320.4 114.7,318.2 113.7,316.5C114.1,315.6 115,315.3 115.8,315C117.6,315.9 119.1,317.1 119.5,319.2Z" style="fill:rgb(190,232,248);fill-rule:nonzero;"/>
                        <path d="M47.7,323.1L47.9,324.4C50,322.5 52.3,320.9 54.7,319.6C54.5,320.7 54.2,321.8 53.6,322.7C51.7,323.6 50.3,325 48.6,326.3C48.2,326.6 47.7,327.2 47.3,326.8C46.9,326.5 47,325.7 47.2,325.2C47.1,324.5 47.3,323.8 47.7,323.1Z" style="fill:rgb(90,180,246);fill-rule:nonzero;"/>
                        <path d="M26.9,350.6C25.5,348.6 24.6,346.3 22.7,344.8C22.8,343.8 23.1,342.9 23.7,342.2C25.7,343.9 27.3,345.8 27.4,348.6C27.5,349.3 27.4,350 26.9,350.6Z" style="fill:rgb(46,142,252);fill-rule:nonzero;"/>
                        <path d="M53.5,323.3C53.4,324.6 53.1,325.8 52.5,326.9C50.4,328.2 48.9,330.5 46.3,331L46.1,331.1C46.3,330 45.9,328.9 46.7,327.9C48.8,326.9 50.3,325 52.2,323.8C52.7,323.6 52.9,323.1 53.5,323.3Z" style="fill:rgb(113,188,248);fill-rule:nonzero;"/>
                        <path d="M53.5,323.3C51.9,325.7 48.8,326.4 47.1,328.9C46.8,329.3 46.9,328.2 46.7,327.9C46.6,327 46.7,326.1 47.2,325.3C47.6,325.4 46.6,327.2 48,326C49.2,325 50.5,324.1 51.7,323.1C52.3,322.6 52.8,322.3 53.6,322.8C53.6,323 53.6,323.2 53.5,323.3Z" style="fill:rgb(103,185,248);fill-rule:nonzero;"/>
                        <path d="M125.2,290.4C123.9,291.9 122.3,293.2 120.5,294.1C119.5,294 118.6,293.6 117.9,293C119.6,291.8 121.2,290.3 123.1,289.3C123.9,289.4 124.7,289.8 125.2,290.4Z" style="fill:rgb(204,241,247);fill-rule:nonzero;"/>
                        <path d="M113.7,316.5C115.4,317.4 116,319.6 117.9,320.2C117.5,321.1 116.5,321.3 115.8,321.8C113.9,321 112.3,319.9 112.1,317.6C112.4,316.9 113,316.5 113.7,316.5Z" style="fill:rgb(197,235,249);fill-rule:nonzero;"/>
                        <path d="M131,315C128.4,314.5 127.8,311.9 126.3,310.3L127.9,310.3C128.8,310.9 130.2,310.9 130.5,312.2C131.1,314.6 132.9,314.6 134.7,314.5C133.6,315.2 132.3,314.8 131,315Z" style="fill:rgb(139,219,240);fill-rule:nonzero;"/>
                        <path d="M149.3,316.5C147.9,314 146.4,311.5 144.1,309.7C145.4,309.6 146.7,309.3 147.8,310.1C146.8,310.1 145.9,310.1 147.1,311.4C148.3,312.5 149.4,313.7 150.4,315C150.8,315.7 151.4,316.2 150.8,317.1L149.3,316.5Z" style="fill:rgb(82,207,232);fill-rule:nonzero;"/>
                        <path d="M51.5,340C52,341.9 50.8,342.8 49.5,343.8C48.6,344.5 47.7,345.1 46.8,345.8C46.4,345.2 46.2,344.4 46.3,343.7C47.5,341.7 48.9,340.1 51.5,340Z" style="fill:rgb(195,224,252);fill-rule:nonzero;"/>
                        <path d="M30.4,332.1C30.6,331.2 31.4,331 32,330.5C33.9,331.5 35,333.6 34.6,335.7C34.4,336.2 34,336.6 33.5,336.7C31.5,336 31,334.1 30.4,332.1Z" style="fill:rgb(156,205,252);fill-rule:nonzero;"/>
                        <path d="M29.6,342.8C29.5,343.7 29.1,344.6 28.5,345.4C27.1,343.4 25.4,341.6 25.3,339C25.4,338.3 25.7,337.8 26.2,337.4C28.4,338.5 29.1,340.6 29.6,342.8Z" style="fill:rgb(89,167,252);fill-rule:nonzero;"/>
                        <path d="M112.2,317.6C113.1,319.3 114.8,320.2 115.9,321.8L114.8,322.8C112.3,322.5 111.5,320.8 111.2,318.6L112.2,317.6Z" style="fill:rgb(206,237,250);fill-rule:nonzero;"/>
                        <path d="M121,312.3C122.6,313.5 124,314.9 125.2,316.5C124.4,317.1 123.5,317.4 122.6,317.5C120.9,316.5 119.9,314.7 119.9,312.7C120.2,312.4 120.6,312.3 121,312.3Z" style="fill:rgb(164,225,244);fill-rule:nonzero;"/>
                        <path d="M105.9,284.6L105.9,284L106.4,284C106.7,284.8 107.7,284.2 108.2,285C106,286.5 104.4,289.2 101.1,288.7C100.5,287.8 101.2,287.5 101.7,287.1C103,286.2 104.4,285.3 105.9,284.6Z" style="fill:rgb(115,217,236);fill-rule:nonzero;"/>
                        <path d="M115.3,286.2C116.2,286 117.1,286.4 117.4,287.2C116.1,288.4 114.5,289.2 113.4,290.7C113.2,291.1 112.6,291.2 112.2,291L112.1,290.9C111.4,290.8 110.6,291.1 110,290.4C110.7,287.7 113.2,287.1 115.3,286.2Z" style="fill:rgb(157,229,241);fill-rule:nonzero;"/>
                        <path d="M34.7,335.8C34.4,333.8 33,332.3 32.1,330.6C32.5,329.9 33,329.4 33.7,329.1C35.5,330.2 36.5,332.2 36.3,334.3C36,335 35.4,335.5 34.7,335.8Z" style="fill:rgb(174,213,252);fill-rule:nonzero;"/>
                        <path d="M120,312.8L122.7,317.6C122.5,318 122.1,318.2 121.7,318.1C119.7,317.9 118.6,316.7 118,313.9C118.4,313.3 119.2,312.9 120,312.8Z" style="fill:rgb(173,228,246);fill-rule:nonzero;"/>
                        <path d="M117.9,313.8C119.4,315 119.4,317.5 121.6,318L119.5,319.1L115.8,314.9C116.5,314.6 117,313.9 117.9,313.8Z" style="fill:rgb(180,229,246);fill-rule:nonzero;"/>
                        <path d="M46.3,331.1C48.4,329.8 49.7,327.3 52.5,327C52.6,327.9 52.4,328.8 52,329.6C50.7,330 49.8,330.9 48.7,331.6C47.9,332.1 47.4,333 46.2,332.7L46.3,331.1Z" style="fill:rgb(121,191,248);fill-rule:nonzero;"/>
                        <path d="M25.3,339C26.2,341.2 28.2,342.9 28.5,345.4C28.3,345.8 28.2,346.2 28,346.6C26.3,345.1 24.8,343.5 24.2,341.2C24.3,340.3 24.7,339.5 25.3,339Z" style="fill:rgb(73,158,251);fill-rule:nonzero;"/>
                        <path d="M34.2,328.5L35.8,327.4C38,327.5 39.2,329.5 39,332.1L37.4,333.2C36.1,331.8 35.1,330.2 34.2,328.5Z" style="fill:rgb(201,228,252);fill-rule:nonzero;"/>
                        <path d="M120,287.8L122.1,288.8C120.8,290.7 119.2,292.2 116.9,292.5C116.3,292.5 115.7,292.6 115.3,292C116,289.5 118.4,289.1 120,287.8Z" style="fill:rgb(184,236,245);fill-rule:nonzero;"/>
                        <path d="M24.2,341C25.4,342.9 27.3,344.2 28,346.4C28.1,347.1 27.9,347.8 27.4,348.4L23.7,342C23.7,341.7 23.9,341.3 24.2,341Z" style="fill:rgb(61,151,251);fill-rule:nonzero;"/>
                        <path d="M38.9,332.2C38.1,330.5 37.9,328.3 35.7,327.5L37.3,326.5C39.5,327.2 40.5,328.8 40.4,331.2L38.9,332.2Z" style="fill:rgb(215,235,253);fill-rule:nonzero;"/>
                        <path d="M112.1,290.9C113.4,290.3 113.8,288.8 115.1,288.1C115.8,287.6 116.6,287.3 117.4,287.2L118.4,287.3C118,289.7 115.4,290.2 114.2,291.9L112.1,290.9Z" style="fill:rgb(167,231,242);fill-rule:nonzero;"/>
                        <path d="M116.8,292.5L122,288.8C122.4,288.8 122.8,289 123,289.3C121.6,291 120.1,292.7 117.8,293C117.5,293 117.1,292.8 116.8,292.5Z" style="fill:rgb(193,238,246);fill-rule:nonzero;"/>
                        <path d="M115.3,286.2C113.7,287.8 111.5,288.6 110.1,290.4C109.2,290.3 108.2,290.6 107.5,289.9C109.1,289.5 110.3,288.4 111.5,287.3C112.2,286.7 113.1,286.3 114,286.1L115.3,286.2Z" style="fill:rgb(147,226,240);fill-rule:nonzero;"/>
                        <path d="M31.1,340.1C31,340.5 31,340.9 30.5,341C28.2,340.4 27.5,338.4 26.9,336.4C27.2,335.8 27.3,335.2 27.9,334.8C29.8,335.9 31,337.9 31.1,340.1Z" style="fill:rgb(112,180,252);fill-rule:nonzero;"/>
                        <path d="M114.2,291.9C114.6,289.5 117.3,289.2 118.4,287.3L120,287.8C119.1,289.9 116.6,290.3 115.3,292L114.2,291.9Z" style="fill:rgb(175,234,243);fill-rule:nonzero;"/>
                        <path d="M46.3,332.7L49.7,330.1C50.4,329.6 51.1,329.1 52,329.6L52,330.1C51.6,330.3 51.4,330.7 51.5,331.1C49.8,332.2 48.7,334.4 46.3,334.2L46.3,332.7Z" style="fill:rgb(130,195,249);fill-rule:nonzero;"/>
                        <path d="M34.2,328.5C35.9,329.5 37,331.3 37.3,333.2L36.2,334.2L33.6,329L34.2,328.5Z" style="fill:rgb(187,221,252);fill-rule:nonzero;"/>
                        <path d="M40.5,331.2C39.7,329.5 39.1,327.6 37.4,326.5C38.1,326 39,324.8 39.6,326.3C40.1,327.7 43,329 40.5,331.2Z" style="fill:rgb(229,242,254);fill-rule:nonzero;"/>
                        <path d="M51.5,340C49.5,340.9 48,342.3 46.3,343.6C46.3,342.9 46.3,342.2 46.2,341.5C48.3,341 49.4,338.8 51.4,338.3C51.5,339 51.5,339.5 51.5,340Z" style="fill:rgb(182,218,252);fill-rule:nonzero;"/>
                        <path d="M127.3,298.2C129.1,297.6 130.7,296.5 132,295.1C132.3,295.4 132.9,295.7 132.8,296C132.6,297.7 128.9,299.2 127.3,298.2Z" style="fill:rgb(238,250,252);fill-rule:nonzero;"/>
                        <path d="M26.9,336.4C28.1,337.9 28.9,339.7 30.5,341L29.6,342.8L26.2,337.4C26.4,337 26.7,336.7 26.9,336.4Z" style="fill:rgb(99,172,252);fill-rule:nonzero;"/>
                        <path d="M31.1,340.1L27.9,334.8C28.2,334.4 28.6,334.1 28.9,333.7C30.6,335.2 32.2,336.8 31.5,339.5L31.1,340.1Z" style="fill:rgb(122,186,252);fill-rule:nonzero;"/>
                        <path d="M30.4,332.1L33.6,336.8L32.6,338C30.7,337 30.2,334.9 29.3,333.2L30.4,332.1Z" style="fill:rgb(141,197,251);fill-rule:nonzero;"/>
                        <path d="M106.9,322.8C108.2,324.1 109,325.9 110.6,327C108.7,328.2 108.1,326.3 107.3,325.4C106.9,324.8 105,323.9 106.9,322.8Z" style="fill:rgb(241,249,253);fill-rule:nonzero;"/>
                        <path d="M29.4,333.2C30.9,334.5 31.5,336.5 32.7,338L31.6,339.5C31.7,337.1 29.4,335.9 29,333.7L29.4,333.2Z" style="fill:rgb(134,192,251);fill-rule:nonzero;"/>
                        <path d="M24.8,355.2L24.8,355.7C23.2,355.9 20.9,354.8 21.1,357.9C20.6,356.1 20.6,354.2 21.1,352.4C20.6,355.6 22.8,355.4 24.8,355.2Z" style="fill:rgb(30,130,254);fill-rule:nonzero;"/>
                        <path d="M94.3,389.7L77.1,389.7C74.4,389.3 71.6,389.6 68.9,389.5C68,389.4 67,389.7 66.1,389.3L65.6,389.3C65,388.7 64,388.5 63.5,387.9C62.1,386.2 60.1,385.8 58,385.8C56.9,385.8 55.4,386.4 54.7,384.7C63.4,384.4 72,384.8 80.6,385.1C81.4,385.1 82.1,385.4 82.6,386C84.7,388.3 87.2,389.8 90.6,389.3C91.7,389.1 93.1,388.8 94.3,389.7Z" style="fill:rgb(0,106,254);fill-rule:nonzero;"/>
                        <path d="M54.7,384.6C55.8,385.5 57.1,385.1 58.2,385C61.9,384.5 63.8,386.7 65.7,389.2C63.9,389.1 62.1,389.1 60.2,389.3C56.4,390 53.9,387.7 51.3,385.6C51.9,384.6 53.1,385.5 53.6,384.6L54.7,384.6Z" style="fill:rgb(1,103,254);fill-rule:nonzero;"/>
                        <path d="M66.1,389.2C69.7,389.5 73.4,388.7 77,389.7L66.1,389.7L66.1,389.2Z" style="fill:rgb(1,103,254);fill-rule:nonzero;"/>
                        <path d="M95.9,385C100,384.2 102.9,386.3 105.3,389.2C101.3,389.8 98.3,388 95.9,385Z" style="fill:rgb(6,124,250);fill-rule:nonzero;"/>
                        <path d="M70.8,294L71.3,295L70.8,295.5C69.2,297.9 66.7,299.1 64.5,300.7C64.1,300.5 63.9,300.1 64,299.7L70.8,294Z" style="fill:rgb(42,179,235);fill-rule:nonzero;"/>
                        <path d="M141.5,314.4C140,312.6 138,311.2 136.8,309.2L139.9,309.2L141.4,311.5C142,312.5 142.6,313.4 141.5,314.4Z" style="fill:rgb(105,212,236);fill-rule:nonzero;"/>
                        <path d="M46.2,334.3C48.2,333.7 49.2,331.3 51.4,331.2C51.6,333.5 49.3,333.7 48.3,335C47.7,335.6 47,336.1 46.2,336.4L46.2,334.3Z" style="fill:rgb(144,200,250);fill-rule:nonzero;"/>
                        <path d="M105.9,284.6C105.2,286 103.7,286.5 102.5,287.3C101.9,287.7 101.2,287.9 101.2,288.8L99.6,288.8C101.3,286.8 102.6,284.3 105.9,284.6Z" style="fill:rgb(105,213,235);fill-rule:nonzero;"/>
                    </g>
                </g>
            </g>
        </g>
    </g>
</svg>
