<svg xmlns="http://www.w3.org/2000/svg" width="360.184" height="97.406" viewBox="0 0 360.184 97.406">
  <g id="Group_3" data-name="Group 3" transform="translate(-107.908 -383.297)">
    <path id="Path_1" data-name="Path 1" d="M177.281,424.988H147.014A1.414,1.414,0,0,0,145.6,426.4v14.8a1.416,1.416,0,0,0,1.414,1.416h11.807V461s-2.651.9-9.98.9c-8.648,0-20.728-3.16-20.728-29.723s12.579-30.065,24.388-30.065c10.223,0,14.627,1.8,17.429,2.667a1.425,1.425,0,0,0,1.7-1.388L175,389.1a1.319,1.319,0,0,0-.54-1.105c-1.139-.812-8.081-4.7-25.62-4.7-20.207,0-40.933,8.6-40.933,49.922s23.73,47.484,43.727,47.484c16.557,0,26.6-7.075,26.6-7.075a1.215,1.215,0,0,0,.459-1.072V426.4A1.414,1.414,0,0,0,177.281,424.988Z" fill="#fff"/>
    <path id="Path_2" data-name="Path 2" d="M333.264,388.249a1.409,1.409,0,0,0-1.4-1.423H314.818a1.417,1.417,0,0,0-1.412,1.423l.005,32.934H286.846V388.249a1.412,1.412,0,0,0-1.406-1.423H268.4a1.415,1.415,0,0,0-1.408,1.423v89.177a1.419,1.419,0,0,0,1.408,1.427H285.44a1.416,1.416,0,0,0,1.406-1.427V439.282h26.565l-.047,38.144a1.421,1.421,0,0,0,1.412,1.427h17.082a1.415,1.415,0,0,0,1.406-1.427Z" fill="#fff"/>
    <g id="Group_2" data-name="Group 2">
      <g id="Group_1" data-name="Group 1">
        <path id="Path_3" data-name="Path 3" d="M209.44,399.951a10.989,10.989,0,1,0-10.99,11.1A11.037,11.037,0,0,0,209.44,399.951Z" fill="#fff"/>
        <path id="Path_4" data-name="Path 4" d="M208.222,458.614V417.45a1.417,1.417,0,0,0-1.41-1.421H189.823a1.625,1.625,0,0,0-1.476,1.586v58.976c0,1.733,1.08,2.249,2.477,2.249h15.307c1.679,0,2.091-.825,2.091-2.277Z" fill="#fff"/>
      </g>
    </g>
    <path id="Path_5" data-name="Path 5" d="M398.032,416.163H381.121a1.418,1.418,0,0,0-1.407,1.426v43.727a19.111,19.111,0,0,1-10.395,3.143c-6.1,0-7.716-2.767-7.716-8.738V417.589a1.417,1.417,0,0,0-1.406-1.426H343.033a1.421,1.421,0,0,0-1.409,1.426v41.02c0,17.735,9.884,22.074,23.482,22.074,11.154,0,20.149-6.163,20.149-6.163a35.937,35.937,0,0,0,.621,3.633,1.493,1.493,0,0,0,1.245.772l10.919-.049a1.42,1.42,0,0,0,1.409-1.424l-.005-59.863A1.42,1.42,0,0,0,398.032,416.163Z" fill="#fff"/>
    <path id="Path_6" data-name="Path 6" d="M444.254,414.16a31.794,31.794,0,0,0-16.138,4.286v-30.2a1.413,1.413,0,0,0-1.406-1.423H409.619a1.415,1.415,0,0,0-1.408,1.423v89.177a1.419,1.419,0,0,0,1.411,1.427h11.857a1.414,1.414,0,0,0,1.237-.758,27.824,27.824,0,0,0,.72-4.111s6.988,6.622,20.218,6.622c15.531,0,24.438-7.878,24.438-35.366S453.866,414.16,444.254,414.16Zm-6.67,50.245a20.286,20.286,0,0,1-9.845-2.84V433.324a22.535,22.535,0,0,1,8.741-2.836c6.09-.545,11.958,1.294,11.958,15.822C448.438,461.629,445.79,464.653,437.584,464.4Z" fill="#fff"/>
    <path id="Path_7" data-name="Path 7" d="M257.2,416.021H244.418l-.019-16.888c0-.64-.33-.959-1.069-.959H225.91c-.678,0-1.041.3-1.041.949v17.452s-8.731,2.108-9.321,2.278a1.416,1.416,0,0,0-1.02,1.359v10.967a1.415,1.415,0,0,0,1.409,1.425h8.932v26.384c0,19.6,13.746,21.522,23.021,21.522a38.894,38.894,0,0,0,10.146-1.67,1.319,1.319,0,0,0,.8-1.279l.014-12.065a1.439,1.439,0,0,0-1.413-1.423c-.744,0-2.65.3-4.612.3-6.279,0-8.407-2.92-8.407-6.7s0-25.073,0-25.073H257.2a1.416,1.416,0,0,0,1.41-1.425V417.442A1.414,1.414,0,0,0,257.2,416.021Z" fill="#fff"/>
  </g>
</svg>
