<svg xmlns="http://www.w3.org/2000/svg" xmlns:xlink="http://www.w3.org/1999/xlink" viewBox="0 0 406.81 80.08"><defs><style>.cls-1{fill:url(#linear-gradient);}.cls-2{fill:url(#linear-gradient-2);}.cls-3{fill:#253858;}</style><linearGradient id="linear-gradient" x1="22.91" y1="48.46" x2="27.15" y2="26.61" gradientUnits="userSpaceOnUse"><stop offset="0.15" stop-color="#0052cc"/><stop offset="0.5" stop-color="#0e64de"/><stop offset="1" stop-color="#2684ff"/></linearGradient><linearGradient id="linear-gradient-2" x1="-891.63" y1="60.1" x2="-887.38" y2="38.24" gradientTransform="translate(-859.89 81.77) rotate(180)" xlink:href="#linear-gradient"/></defs><title>Jira Align-blue-rgb</title><g id="Layer_2" data-name="Layer 2"><g id="Layer_1-2" data-name="Layer 1"><path class="cls-1" d="M0,7.75A18.68,18.68,0,0,0,18.67,26.39H36V43.74H54.64v-33A3,3,0,0,0,51.7,7.75Z"/><path class="cls-2" d="M54.64,62.39A18.67,18.67,0,0,0,36,43.74H18.67V26.39H0V59.44a3,3,0,0,0,3,3Z"/><path class="cls-3" d="M100,4.58h7.92V44.79c0,10.65-4.66,18-15.57,18a28.23,28.23,0,0,1-9.51-1.49V53.59A22.19,22.19,0,0,0,91,55.09c6.68,0,9-4.05,9-9.77Z"/><path class="cls-3" d="M122.22,1.5a4.94,4.94,0,0,1,5.28,5.28,5.28,5.28,0,0,1-10.56,0A4.94,4.94,0,0,1,122.22,1.5Zm-3.87,16.89h7.57v44h-7.57Z"/><path class="cls-3" d="M144.93,62.39h-7.39v-44h7.39v7.74c2.55-5.19,6.95-8.88,15.57-8.35v7.39c-9.68-1-15.57,1.93-15.57,11.26Z"/><path class="cls-3" d="M196,54.47c-2.82,5.81-8.1,8.8-14.88,8.8-11.7,0-17.59-9.94-17.59-22.88,0-12.41,6.15-22.88,18.47-22.88,6.43,0,11.36,2.91,14,8.62V18.39h7.56v44H196Zm-12.85,1.76c6.77,0,12.85-4.31,12.85-14.08V38.63c0-9.77-5.55-14.08-12-14.08-8.54,0-12.94,5.63-12.94,15.84C171.06,51,175.29,56.23,183.12,56.23Z"/><path class="cls-3" d="M231.78,49.37l-4.84,13h-8.89l22.8-57.81h10l22.79,57.81h-8.89l-4.84-13.11a70.5,70.5,0,0,1-14.34,1.58A71.83,71.83,0,0,1,231.78,49.37Zm25.79-6.69L245.86,11l-11.7,31.77a70.3,70.3,0,0,0,11.44,1A77.5,77.5,0,0,0,257.57,42.68Z"/><path class="cls-3" d="M290.74,62.65c-7.21,0-11.79-3.43-11.79-11.52V0h7.57V50.25c0,4,2.64,5.36,5.89,5.36a21.06,21.06,0,0,0,2.2-.08V62.3A15.82,15.82,0,0,1,290.74,62.65Z"/><path class="cls-3" d="M305.79,1.5a4.94,4.94,0,0,1,5.28,5.28,5.28,5.28,0,1,1-10.56,0A4.94,4.94,0,0,1,305.79,1.5Zm-3.87,16.89h7.56v44h-7.56Z"/><path class="cls-3" d="M350.58,54.47c-2.82,5.81-8.1,8.8-14.87,8.8-11.62,0-17.43-9.94-17.43-22.88,0-12.41,6.07-22.88,18.31-22.88,6.42,0,11.35,2.91,14,8.62V18.39H358v40c0,12.94-6.07,21.65-21.82,21.65a44.29,44.29,0,0,1-15.67-2.38V70.31A48.75,48.75,0,0,0,335.79,73c11,0,14.79-5.9,14.79-14.08Zm-12.85,1.76c6.78,0,12.85-4.31,12.85-14.08V38.63c0-9.77-5.55-14.08-12-14.08-8.54,0-12.94,5.63-12.94,15.84C325.67,51,329.9,56.23,337.73,56.23Z"/><path class="cls-3" d="M406.81,62.39h-7.57V35.81c0-7.92-3.17-11.43-10.38-11.43-7,0-11.88,4.66-11.88,13.55V62.39h-7.57v-44H377v7.22a15.43,15.43,0,0,1,13.9-8.1c10.12,0,15.93,7,15.93,19.1Z"/></g></g></svg>