<svg xmlns="http://www.w3.org/2000/svg" xmlns:xlink="http://www.w3.org/1999/xlink" width="442.371" height="270.927" viewBox="0 0 442.371 270.927">
  <defs>
    <linearGradient id="linear-gradient" y1="0.5" x2="1" y2="0.5" gradientUnits="objectBoundingBox">
      <stop offset="0.005" stop-color="#fff"/>
      <stop offset="0.192" stop-color="#e8e8e8"/>
      <stop offset="0.541" stop-color="#c2c2c2"/>
      <stop offset="0.823" stop-color="#ababab"/>
      <stop offset="1" stop-color="#a3a3a3"/>
    </linearGradient>
    <clipPath id="clip-path">
      <path id="Path_15" data-name="Path 15" d="M243.841,226.869a5.073,5.073,0,0,0-5.075,0l-42.03,24.254a5.075,5.075,0,0,0-2.54,4.4v48.546a5.08,5.08,0,0,0,2.538,4.4l42.03,24.274a5.078,5.078,0,0,0,5.078,0l42.021-24.274a5.079,5.079,0,0,0,2.537-4.4V255.518a5.073,5.073,0,0,0-2.539-4.4Z" fill="none" clip-rule="evenodd"/>
    </clipPath>
    <linearGradient id="linear-gradient-2" x1="-0.039" y1="0.5" x2="1.03" y2="0.5" gradientUnits="objectBoundingBox">
      <stop offset="0" stop-color="#a3a3a3"/>
      <stop offset="0.177" stop-color="#ababab"/>
      <stop offset="0.459" stop-color="#c2c2c2"/>
      <stop offset="0.808" stop-color="#e8e8e8"/>
      <stop offset="0.995" stop-color="#fff"/>
    </linearGradient>
  </defs>
  <g id="Group_9" data-name="Group 9" transform="translate(-78.306 -164.017)">
    <g id="Group_1" data-name="Group 1">
      <path id="Path_1" data-name="Path 1" d="M296.953,434.944a8.376,8.376,0,0,1-4.19-1.121l-13.338-7.892c-1.991-1.114-1.018-1.509-.362-1.738a26.561,26.561,0,0,0,6.031-2.743,1.025,1.025,0,0,1,.992.076l10.247,6.084a1.315,1.315,0,0,0,1.237,0l39.95-23.058a1.26,1.26,0,0,0,.61-1.082v-46.1a1.288,1.288,0,0,0-.62-1.1l-39.933-23.039a1.255,1.255,0,0,0-1.231,0l-39.923,23.045a1.286,1.286,0,0,0-.634,1.1v46.1a1.224,1.224,0,0,0,.631,1.068l10.943,6.323c5.938,2.969,9.574-.527,9.574-4.04V361.3a1.15,1.15,0,0,1,1.161-1.151h5.066a1.153,1.153,0,0,1,1.157,1.151v45.52c0,7.925-4.316,12.469-11.829,12.469-2.309,0-4.127,0-9.2-2.5l-10.476-6.031a8.436,8.436,0,0,1-4.19-7.288v-46.1a8.416,8.416,0,0,1,4.19-7.281L292.763,327a8.754,8.754,0,0,1,8.4,0l39.946,23.085a8.43,8.43,0,0,1,4.2,7.281v46.1a8.454,8.454,0,0,1-4.2,7.288L301.16,433.823A8.381,8.381,0,0,1,296.953,434.944Z" fill="#fff"/>
      <path id="Path_2" data-name="Path 2" d="M309.293,403.182c-17.481,0-21.144-8.025-21.144-14.755a1.149,1.149,0,0,1,1.155-1.152h5.165a1.158,1.158,0,0,1,1.148.979c.779,5.258,3.1,7.912,13.676,7.912,8.416,0,12-1.9,12-6.369,0-2.575-1.015-4.485-14.1-5.766-10.93-1.081-17.691-3.5-17.691-12.241,0-8.06,6.794-12.867,18.185-12.867,12.8,0,19.131,4.441,19.934,13.972a1.155,1.155,0,0,1-1.151,1.257h-5.185a1.151,1.151,0,0,1-1.122-.9c-1.243-5.533-4.269-7.3-12.476-7.3-9.188,0-10.257,3.2-10.257,5.6,0,2.906,1.261,3.752,13.668,5.394,12.277,1.622,18.108,3.921,18.108,12.549C329.21,398.2,321.952,403.182,309.293,403.182Z" fill="#fff"/>
    </g>
    <g id="Group_2" data-name="Group 2">
      <path id="Path_3" data-name="Path 3" d="M366.9,354.831a7.7,7.7,0,1,1-7.7-7.7A7.72,7.72,0,0,1,366.9,354.831Zm-14.155-.022a6.457,6.457,0,1,0,6.435-6.435A6.459,6.459,0,0,0,352.744,354.809Zm3.563-4.3h2.975c1.019,0,3.016,0,3.016,2.282a1.985,1.985,0,0,1-1.633,2.118c1.185.081,1.264.856,1.427,1.955a8.515,8.515,0,0,0,.448,2.281h-1.831c-.044-.406-.329-2.607-.329-2.728-.119-.49-.285-.733-.9-.733h-1.506v3.461h-1.672Zm1.632,3.788h1.343a1.162,1.162,0,0,0,1.3-1.221c0-1.183-.816-1.183-1.264-1.183h-1.383Z" fill="#fff"/>
    </g>
    <path id="Path_4" data-name="Path 4" d="M173.243,254.567a5.108,5.108,0,0,0-2.558-4.445L128.33,225.747a4.978,4.978,0,0,0-2.332-.674h-.438a5.048,5.048,0,0,0-2.338.674L80.867,250.122a5.132,5.132,0,0,0-2.561,4.445L78.4,320.2a2.514,2.514,0,0,0,1.277,2.21,2.461,2.461,0,0,0,2.541,0L107.389,308a5.153,5.153,0,0,0,2.56-4.438V272.895a5.1,5.1,0,0,1,2.555-4.429l10.718-6.173a5.092,5.092,0,0,1,2.564-.687,5.012,5.012,0,0,1,2.544.687l10.715,6.173a5.1,5.1,0,0,1,2.558,4.429V303.56A5.166,5.166,0,0,0,144.167,308l25.165,14.414a2.49,2.49,0,0,0,2.557,0,2.556,2.556,0,0,0,1.271-2.21Z" fill="#fff" fill-rule="evenodd"/>
    <path id="Path_5" data-name="Path 5" d="M377.04,164.341a2.558,2.558,0,0,0-3.805,2.234v65a1.789,1.789,0,0,1-2.685,1.551l-10.608-6.112a5.118,5.118,0,0,0-5.112,0l-42.372,24.453A5.116,5.116,0,0,0,309.9,255.9v48.916a5.119,5.119,0,0,0,2.558,4.432l42.369,24.471a5.116,5.116,0,0,0,5.119,0l42.376-24.471a5.119,5.119,0,0,0,2.558-4.432V182.879a5.118,5.118,0,0,0-2.624-4.468Zm-3.931,124.4a1.276,1.276,0,0,1-.64,1.106l-14.548,8.386a1.277,1.277,0,0,1-1.277,0L342.1,289.849a1.276,1.276,0,0,1-.64-1.106v-16.8a1.283,1.283,0,0,1,.639-1.109l14.548-8.4a1.278,1.278,0,0,1,1.28,0l14.548,8.4a1.284,1.284,0,0,1,.638,1.109Z" fill="#fff" fill-rule="evenodd"/>
    <g id="Group_3" data-name="Group 3">
      <path id="Path_6" data-name="Path 6" d="M518.131,271.505a5.116,5.116,0,0,0,2.546-4.424V255.227a5.115,5.115,0,0,0-2.548-4.425l-42.1-24.443a5.114,5.114,0,0,0-5.127-.007L428.547,250.8a5.115,5.115,0,0,0-2.558,4.43v48.9a5.115,5.115,0,0,0,2.584,4.446l42.093,23.985a5.112,5.112,0,0,0,5.017.028l25.46-14.151a2.558,2.558,0,0,0,.032-4.455L458.55,289.526a2.559,2.559,0,0,1-1.286-2.219V271.981a2.556,2.556,0,0,1,1.281-2.216l13.266-7.648a2.555,2.555,0,0,1,2.554,0l13.272,7.648a2.556,2.556,0,0,1,1.281,2.216v12.058a2.558,2.558,0,0,0,3.843,2.213Z" fill="#fff" fill-rule="evenodd"/>
      <path id="Path_7" data-name="Path 7" d="M472.842,269.214a.979.979,0,0,1,.982,0l8.131,4.691a.983.983,0,0,1,.49.851v9.388a.984.984,0,0,1-.49.851l-8.131,4.69a.979.979,0,0,1-.982,0l-8.124-4.69a.985.985,0,0,1-.491-.851v-9.388a.984.984,0,0,1,.491-.851Z" fill="#fff" fill-rule="evenodd"/>
    </g>
    <g id="Group_8" data-name="Group 8">
      <path id="Path_8" data-name="Path 8" d="M238.756,226.869a5.073,5.073,0,0,1,5.075,0l42.03,24.254a5.074,5.074,0,0,1,2.539,4.4v48.546a5.079,5.079,0,0,1-2.537,4.4l-42.031,24.274a5.078,5.078,0,0,1-5.078,0l-42.02-24.274a5.08,5.08,0,0,1-2.538-4.4V255.518a5.075,5.075,0,0,1,2.539-4.4Z" fill-rule="evenodd" fill="url(#linear-gradient)"/>
      <g id="Group_7" data-name="Group 7">
        <g id="Group_6" data-name="Group 6" clip-path="url(#clip-path)">
          <g id="Group_4" data-name="Group 4">
            <path id="Path_9" data-name="Path 9" d="M238.707,226.869l-42.07,24.254a5.169,5.169,0,0,0-2.637,4.4v48.548a5,5,0,0,0,1.182,3.183l47.3-80.908A5.117,5.117,0,0,0,238.707,226.869Z" fill="none"/>
            <path id="Path_10" data-name="Path 10" d="M242.746,333.165a5.092,5.092,0,0,0,.986-.428l41.931-24.274a4.9,4.9,0,0,0,2.337-4.4V255.52a5.266,5.266,0,0,0-1.066-3.269Z" fill="none"/>
            <path id="Path_11" data-name="Path 11" d="M285.649,251.123l-41.843-24.254a5.027,5.027,0,0,0-1.327-.528l-47.3,80.908a5.337,5.337,0,0,0,1.428,1.214L238.7,332.737a4.973,4.973,0,0,0,4.042.428l44.188-80.914A4.462,4.462,0,0,0,285.649,251.123Z" fill="#4b4b4b" opacity="0.66"/>
          </g>
          <g id="Group_5" data-name="Group 5">
            <path id="Path_12" data-name="Path 12" d="M197.114,250.848l-.477.275a5.169,5.169,0,0,0-2.637,4.4v48.548a5.15,5.15,0,0,0,2.61,4.4L238.7,332.737a4.978,4.978,0,0,0,3.656.539Z" fill="none"/>
            <path id="Path_13" data-name="Path 13" d="M288,255.52a4.909,4.909,0,0,0-2.351-4.4l-41.843-24.254a5.042,5.042,0,0,0-1.166-.486L288,303.876Z" fill="none"/>
            <path id="Path_14" data-name="Path 14" d="M243.732,332.737l41.931-24.274a4.9,4.9,0,0,0,2.337-4.4v-.19l-45.36-77.493a5.118,5.118,0,0,0-3.933.486l-41.593,23.979,45.246,82.428A5.055,5.055,0,0,0,243.732,332.737Z" fill="url(#linear-gradient-2)"/>
          </g>
        </g>
      </g>
    </g>
  </g>
</svg>
