<svg xmlns="http://www.w3.org/2000/svg" xmlns:xlink="http://www.w3.org/1999/xlink" width="442.413" height="270.953" viewBox="0 0 442.413 270.953">
  <defs>
    <linearGradient id="linear-gradient" y1="0.5" x2="1" y2="0.5" gradientUnits="objectBoundingBox">
      <stop offset="0.005"/>
      <stop offset="0.192" stop-color="#161616"/>
      <stop offset="0.541" stop-color="#3c3c3c"/>
      <stop offset="0.823" stop-color="#535353"/>
      <stop offset="1" stop-color="#5c5c5c"/>
    </linearGradient>
    <clipPath id="clip-path">
      <path id="Path_15" data-name="Path 15" d="M243.841,226.869a5.073,5.073,0,0,0-5.075,0l-42.03,24.254a5.075,5.075,0,0,0-2.54,4.4v48.546a5.08,5.08,0,0,0,2.538,4.4l42.03,24.274a5.078,5.078,0,0,0,5.078,0l42.021-24.274a5.079,5.079,0,0,0,2.537-4.4V255.518a5.073,5.073,0,0,0-2.539-4.4Z" fill="none" clip-rule="evenodd"/>
    </clipPath>
    <linearGradient id="linear-gradient-2" x1="-0.039" y1="0.5" x2="1.03" y2="0.5" gradientUnits="objectBoundingBox">
      <stop offset="0" stop-color="#5c5c5c"/>
      <stop offset="0.177" stop-color="#535353"/>
      <stop offset="0.459" stop-color="#3c3c3c"/>
      <stop offset="0.808" stop-color="#161616"/>
      <stop offset="0.995"/>
    </linearGradient>
  </defs>
  <g id="Group_10" data-name="Group 10" transform="translate(-78.018 -164.274)">
    <g id="Group_9" data-name="Group 9">
      <g id="Group_1" data-name="Group 1">
        <path id="Path_1" data-name="Path 1" d="M296.686,435.227a8.372,8.372,0,0,1-4.19-1.122l-13.34-7.892c-1.991-1.114-1.019-1.509-.362-1.738a26.635,26.635,0,0,0,6.032-2.744,1.023,1.023,0,0,1,.991.076l10.248,6.085a1.317,1.317,0,0,0,1.238,0l39.953-23.061a1.259,1.259,0,0,0,.611-1.081V357.642a1.29,1.29,0,0,0-.62-1.1L297.31,333.5a1.255,1.255,0,0,0-1.231,0l-39.927,23.048a1.283,1.283,0,0,0-.634,1.094V403.75a1.226,1.226,0,0,0,.63,1.068l10.945,6.323c5.938,2.97,9.574-.527,9.574-4.04V361.577a1.15,1.15,0,0,1,1.162-1.151h5.066a1.153,1.153,0,0,1,1.158,1.151V407.1c0,7.925-4.316,12.47-11.831,12.47-2.309,0-4.127,0-9.2-2.5l-10.477-6.031a8.442,8.442,0,0,1-4.19-7.289V357.642a8.421,8.421,0,0,1,4.19-7.282L292.5,327.273a8.754,8.754,0,0,1,8.4,0l39.95,23.087a8.432,8.432,0,0,1,4.2,7.282V403.75a8.458,8.458,0,0,1-4.2,7.289l-39.95,23.066A8.382,8.382,0,0,1,296.686,435.227Z" fill="#679e63"/>
        <path id="Path_2" data-name="Path 2" d="M309.027,403.461c-17.483,0-21.146-8.025-21.146-14.756a1.148,1.148,0,0,1,1.155-1.152H294.2a1.158,1.158,0,0,1,1.148.979c.78,5.258,3.105,7.913,13.678,7.913,8.417,0,12-1.9,12-6.37,0-2.575-1.015-4.486-14.1-5.766-10.932-1.082-17.693-3.5-17.693-12.242,0-8.062,6.794-12.869,18.187-12.869,12.8,0,19.132,4.442,19.935,13.974a1.155,1.155,0,0,1-1.151,1.257h-5.185a1.152,1.152,0,0,1-1.122-.9c-1.244-5.534-4.269-7.3-12.477-7.3-9.19,0-10.258,3.2-10.258,5.6,0,2.906,1.261,3.752,13.668,5.394,12.279,1.623,18.111,3.921,18.111,12.551C328.946,398.475,321.687,403.461,309.027,403.461Z" fill="#679e63"/>
      </g>
      <g id="Group_2" data-name="Group 2">
        <path id="Path_3" data-name="Path 3" d="M366.638,355.106a7.7,7.7,0,1,1-7.7-7.7A7.721,7.721,0,0,1,366.638,355.106Zm-14.156-.022a6.458,6.458,0,1,0,6.436-6.436A6.459,6.459,0,0,0,352.482,355.084Zm3.563-4.3h2.976c1.018,0,3.015,0,3.015,2.283a1.984,1.984,0,0,1-1.632,2.118c1.184.081,1.264.856,1.426,1.956a8.491,8.491,0,0,0,.449,2.281h-1.832c-.043-.407-.328-2.608-.328-2.729-.12-.49-.286-.733-.9-.733h-1.506v3.462h-1.672Zm1.632,3.789h1.344a1.162,1.162,0,0,0,1.3-1.221c0-1.183-.817-1.183-1.265-1.183h-1.383Z" fill="#679e63"/>
      </g>
      <path id="Path_4" data-name="Path 4" d="M172.964,254.833a5.109,5.109,0,0,0-2.558-4.446L128.047,226.01a4.978,4.978,0,0,0-2.332-.674h-.438a5.055,5.055,0,0,0-2.339.674L80.579,250.387a5.132,5.132,0,0,0-2.561,4.446l.093,65.641a2.514,2.514,0,0,0,1.277,2.21,2.463,2.463,0,0,0,2.542,0L107.1,308.269a5.156,5.156,0,0,0,2.562-4.439V273.162a5.1,5.1,0,0,1,2.554-4.429l10.719-6.174a5.093,5.093,0,0,1,2.565-.687,5.012,5.012,0,0,1,2.544.687l10.716,6.174a5.1,5.1,0,0,1,2.558,4.429V303.83a5.169,5.169,0,0,0,2.564,4.439l25.167,14.415a2.492,2.492,0,0,0,2.558,0,2.556,2.556,0,0,0,1.271-2.21Z" fill="#333" fill-rule="evenodd"/>
      <path id="Path_5" data-name="Path 5" d="M376.781,164.6a2.558,2.558,0,0,0-3.806,2.234v65.006a1.79,1.79,0,0,1-2.685,1.551l-10.61-6.112a5.118,5.118,0,0,0-5.112,0l-42.376,24.456a5.115,5.115,0,0,0-2.559,4.43v48.921a5.122,5.122,0,0,0,2.558,4.433l42.373,24.473a5.116,5.116,0,0,0,5.119,0l42.381-24.473a5.124,5.124,0,0,0,2.558-4.433V183.138A5.118,5.118,0,0,0,402,178.669Zm-3.932,124.414a1.276,1.276,0,0,1-.64,1.106l-14.55,8.387a1.282,1.282,0,0,1-1.277,0l-14.549-8.387a1.274,1.274,0,0,1-.64-1.106v-16.8a1.28,1.28,0,0,1,.639-1.108l14.549-8.4a1.278,1.278,0,0,1,1.28,0l14.549,8.4a1.282,1.282,0,0,1,.639,1.108Z" fill="#333" fill-rule="evenodd"/>
      <g id="Group_3" data-name="Group 3">
        <path id="Path_6" data-name="Path 6" d="M517.884,271.772a5.117,5.117,0,0,0,2.547-4.424V255.493a5.12,5.12,0,0,0-2.548-4.426l-42.1-24.445a5.114,5.114,0,0,0-5.127-.007l-42.36,24.455a5.118,5.118,0,0,0-2.558,4.431v48.908a5.115,5.115,0,0,0,2.584,4.445l42.1,23.988a5.114,5.114,0,0,0,5.018.028l25.462-14.153a2.559,2.559,0,0,0,.032-4.455L458.3,289.8a2.557,2.557,0,0,1-1.286-2.22V272.248a2.556,2.556,0,0,1,1.28-2.216l13.267-7.649a2.557,2.557,0,0,1,2.555,0l13.274,7.649a2.556,2.556,0,0,1,1.28,2.216v12.059a2.558,2.558,0,0,0,3.844,2.213Z" fill="#333" fill-rule="evenodd"/>
        <path id="Path_7" data-name="Path 7" d="M472.591,269.481a.979.979,0,0,1,.982,0l8.132,4.691a.984.984,0,0,1,.49.851v9.389a.983.983,0,0,1-.49.851l-8.132,4.691a.979.979,0,0,1-.982,0l-8.125-4.691a.983.983,0,0,1-.49-.851v-9.389a.984.984,0,0,1,.49-.851Z" fill="#679e63" fill-rule="evenodd"/>
      </g>
      <g id="Group_8" data-name="Group 8">
        <path id="Path_8" data-name="Path 8" d="M238.756,226.869a5.073,5.073,0,0,1,5.075,0l42.03,24.254a5.074,5.074,0,0,1,2.539,4.4v48.546a5.079,5.079,0,0,1-2.537,4.4l-42.031,24.274a5.078,5.078,0,0,1-5.078,0l-42.02-24.274a5.08,5.08,0,0,1-2.538-4.4V255.518a5.075,5.075,0,0,1,2.539-4.4Z" fill-rule="evenodd" fill="url(#linear-gradient)"/>
        <g id="Group_7" data-name="Group 7">
          <g id="Group_6" data-name="Group 6" clip-path="url(#clip-path)">
            <g id="Group_4" data-name="Group 4">
              <path id="Path_9" data-name="Path 9" d="M238.707,226.869l-42.07,24.254a5.169,5.169,0,0,0-2.637,4.4v48.548a5,5,0,0,0,1.182,3.183l47.3-80.908A5.117,5.117,0,0,0,238.707,226.869Z" fill="none"/>
              <path id="Path_10" data-name="Path 10" d="M242.746,333.165a5.092,5.092,0,0,0,.986-.428l41.931-24.274a4.9,4.9,0,0,0,2.337-4.4V255.52a5.266,5.266,0,0,0-1.066-3.269Z" fill="none"/>
              <path id="Path_11" data-name="Path 11" d="M285.649,251.123l-41.843-24.254a5.027,5.027,0,0,0-1.327-.528l-47.3,80.908a5.337,5.337,0,0,0,1.428,1.214L238.7,332.737a4.973,4.973,0,0,0,4.042.428l44.188-80.914A4.462,4.462,0,0,0,285.649,251.123Z" fill="#b4b4b4" opacity="0.66"/>
            </g>
            <g id="Group_5" data-name="Group 5">
              <path id="Path_12" data-name="Path 12" d="M197.114,250.848l-.477.275a5.169,5.169,0,0,0-2.637,4.4v48.548a5.15,5.15,0,0,0,2.61,4.4L238.7,332.737a4.978,4.978,0,0,0,3.656.539Z" fill="none"/>
              <path id="Path_13" data-name="Path 13" d="M288,255.52a4.909,4.909,0,0,0-2.351-4.4l-41.843-24.254a5.042,5.042,0,0,0-1.166-.486L288,303.876Z" fill="none"/>
              <path id="Path_14" data-name="Path 14" d="M243.732,332.737l41.931-24.274a4.9,4.9,0,0,0,2.337-4.4v-.19l-45.36-77.493a5.118,5.118,0,0,0-3.933.486l-41.593,23.979,45.246,82.428A5.055,5.055,0,0,0,243.732,332.737Z" fill="url(#linear-gradient-2)"/>
            </g>
          </g>
        </g>
      </g>
    </g>
  </g>
</svg>
