<svg xmlns="http://www.w3.org/2000/svg" xmlns:xlink="http://www.w3.org/1999/xlink" width="442.371" height="270.927" viewBox="0 0 442.371 270.927">
  <defs>
    <linearGradient id="linear-gradient" x1="0.681" y1="0.175" x2="0.278" y2="0.897" gradientUnits="objectBoundingBox">
      <stop offset="0" stop-color="#3f873f"/>
      <stop offset="0.33" stop-color="#3e8a3d"/>
      <stop offset="0.637" stop-color="#3e9537"/>
      <stop offset="0.934" stop-color="#3da82d"/>
      <stop offset="1" stop-color="#3dae2b"/>
    </linearGradient>
    <clipPath id="clip-path">
      <path id="Path_19" data-name="Path 19" d="M244.12,226.607a5.092,5.092,0,0,0-5.088,0L196.9,250.921a5.089,5.089,0,0,0-2.545,4.408v48.666A5.094,5.094,0,0,0,196.9,308.4l42.134,24.333a5.086,5.086,0,0,0,5.09,0L286.245,308.4a5.094,5.094,0,0,0,2.544-4.408V255.327a5.088,5.088,0,0,0-2.545-4.406Z" fill="url(#linear-gradient)" clip-rule="evenodd"/>
    </clipPath>
    <linearGradient id="linear-gradient-3" x1="0.432" y1="0.552" x2="1.591" y2="-0.183" gradientUnits="objectBoundingBox">
      <stop offset="0.138" stop-color="#3f873f"/>
      <stop offset="0.397" stop-color="#519f44"/>
      <stop offset="0.711" stop-color="#63b649"/>
      <stop offset="0.908" stop-color="#6abf4b"/>
    </linearGradient>
    <linearGradient id="linear-gradient-4" x1="-57.151" y1="0.5" x2="68.852" y2="0.5" gradientUnits="objectBoundingBox">
      <stop offset="0.092" stop-color="#6abf4b"/>
      <stop offset="0.289" stop-color="#63b649"/>
      <stop offset="0.603" stop-color="#519f44"/>
      <stop offset="0.862" stop-color="#3f873f"/>
    </linearGradient>
    <linearGradient id="linear-gradient-5" x1="-0.045" x2="1.016" xlink:href="#linear-gradient-4"/>
    <linearGradient id="linear-gradient-6" x1="-347.794" x2="1" xlink:href="#linear-gradient-4"/>
    <linearGradient id="linear-gradient-7" x1="-1.037" x2="1.006" xlink:href="#linear-gradient-4"/>
    <linearGradient id="linear-gradient-8" x1="1.303" y1="-2.11" x2="0.044" y2="2.012" xlink:href="#linear-gradient"/>
  </defs>
  <g id="Group_8" data-name="Group 8" transform="translate(-78.306 -164.017)">
    <g id="Group_1" data-name="Group 1">
      <path id="Path_1" data-name="Path 1" d="M296.953,434.944a8.376,8.376,0,0,1-4.19-1.121l-13.338-7.892c-1.991-1.114-1.018-1.509-.362-1.738a26.561,26.561,0,0,0,6.031-2.743,1.025,1.025,0,0,1,.992.076l10.247,6.084a1.315,1.315,0,0,0,1.237,0l39.95-23.058a1.26,1.26,0,0,0,.61-1.082v-46.1a1.288,1.288,0,0,0-.62-1.1l-39.933-23.039a1.255,1.255,0,0,0-1.231,0l-39.923,23.045a1.286,1.286,0,0,0-.634,1.1v46.1a1.224,1.224,0,0,0,.631,1.068l10.943,6.323c5.938,2.969,9.574-.527,9.574-4.04V361.3a1.15,1.15,0,0,1,1.161-1.151h5.066a1.153,1.153,0,0,1,1.157,1.151v45.52c0,7.925-4.316,12.469-11.829,12.469-2.309,0-4.127,0-9.2-2.5l-10.476-6.031a8.436,8.436,0,0,1-4.19-7.288v-46.1a8.416,8.416,0,0,1,4.19-7.281L292.763,327a8.754,8.754,0,0,1,8.4,0l39.946,23.085a8.43,8.43,0,0,1,4.2,7.281v46.1a8.454,8.454,0,0,1-4.2,7.288L301.16,433.823A8.381,8.381,0,0,1,296.953,434.944Z" fill="#679e63"/>
      <path id="Path_2" data-name="Path 2" d="M309.293,403.182c-17.481,0-21.144-8.025-21.144-14.755a1.149,1.149,0,0,1,1.155-1.152h5.165a1.158,1.158,0,0,1,1.148.979c.779,5.258,3.1,7.912,13.676,7.912,8.416,0,12-1.9,12-6.369,0-2.575-1.015-4.485-14.1-5.766-10.93-1.081-17.691-3.5-17.691-12.241,0-8.06,6.794-12.867,18.185-12.867,12.8,0,19.131,4.441,19.934,13.972a1.155,1.155,0,0,1-1.151,1.257h-5.185a1.151,1.151,0,0,1-1.122-.9c-1.243-5.533-4.269-7.3-12.476-7.3-9.188,0-10.257,3.2-10.257,5.6,0,2.906,1.261,3.752,13.668,5.394,12.277,1.622,18.108,3.921,18.108,12.549C329.21,398.2,321.952,403.182,309.293,403.182Z" fill="#679e63"/>
    </g>
    <g id="Group_2" data-name="Group 2">
      <path id="Path_3" data-name="Path 3" d="M366.9,354.831a7.7,7.7,0,1,1-7.7-7.7A7.72,7.72,0,0,1,366.9,354.831Zm-14.155-.022a6.457,6.457,0,1,0,6.435-6.435A6.459,6.459,0,0,0,352.744,354.809Zm3.563-4.3h2.975c1.019,0,3.016,0,3.016,2.282a1.985,1.985,0,0,1-1.633,2.118c1.185.081,1.264.856,1.427,1.955a8.515,8.515,0,0,0,.448,2.281h-1.831c-.044-.406-.329-2.607-.329-2.728-.119-.49-.285-.733-.9-.733h-1.506v3.461h-1.672Zm1.632,3.788h1.343a1.162,1.162,0,0,0,1.3-1.221c0-1.183-.816-1.183-1.264-1.183h-1.383Z" fill="#679e63"/>
    </g>
    <path id="Path_4" data-name="Path 4" d="M173.243,254.567a5.108,5.108,0,0,0-2.558-4.445L128.33,225.747a4.978,4.978,0,0,0-2.332-.674h-.438a5.048,5.048,0,0,0-2.338.674L80.867,250.122a5.132,5.132,0,0,0-2.561,4.445L78.4,320.2a2.514,2.514,0,0,0,1.277,2.21,2.461,2.461,0,0,0,2.541,0L107.389,308a5.153,5.153,0,0,0,2.56-4.438V272.895a5.1,5.1,0,0,1,2.555-4.429l10.718-6.173a5.092,5.092,0,0,1,2.564-.687,5.012,5.012,0,0,1,2.544.687l10.715,6.173a5.1,5.1,0,0,1,2.558,4.429V303.56A5.166,5.166,0,0,0,144.167,308l25.165,14.414a2.49,2.49,0,0,0,2.557,0,2.556,2.556,0,0,0,1.271-2.21Z" fill="#333" fill-rule="evenodd"/>
    <path id="Path_5" data-name="Path 5" d="M377.04,164.341a2.558,2.558,0,0,0-3.805,2.234v65a1.789,1.789,0,0,1-2.685,1.551l-10.608-6.112a5.118,5.118,0,0,0-5.112,0l-42.372,24.453A5.116,5.116,0,0,0,309.9,255.9v48.916a5.119,5.119,0,0,0,2.558,4.432l42.369,24.471a5.116,5.116,0,0,0,5.119,0l42.376-24.471a5.119,5.119,0,0,0,2.558-4.432V182.879a5.118,5.118,0,0,0-2.624-4.468Zm-3.931,124.4a1.276,1.276,0,0,1-.64,1.106l-14.548,8.386a1.277,1.277,0,0,1-1.277,0L342.1,289.849a1.276,1.276,0,0,1-.64-1.106v-16.8a1.283,1.283,0,0,1,.639-1.109l14.548-8.4a1.278,1.278,0,0,1,1.28,0l14.548,8.4a1.284,1.284,0,0,1,.638,1.109Z" fill="#333" fill-rule="evenodd"/>
    <g id="Group_3" data-name="Group 3">
      <path id="Path_6" data-name="Path 6" d="M518.131,271.505a5.116,5.116,0,0,0,2.546-4.424V255.227a5.115,5.115,0,0,0-2.548-4.425l-42.1-24.443a5.114,5.114,0,0,0-5.127-.007L428.547,250.8a5.115,5.115,0,0,0-2.558,4.43v48.9a5.115,5.115,0,0,0,2.584,4.446l42.093,23.985a5.112,5.112,0,0,0,5.017.028l25.46-14.151a2.558,2.558,0,0,0,.032-4.455L458.55,289.526a2.559,2.559,0,0,1-1.286-2.219V271.981a2.556,2.556,0,0,1,1.281-2.216l13.266-7.648a2.555,2.555,0,0,1,2.554,0l13.272,7.648a2.556,2.556,0,0,1,1.281,2.216v12.058a2.558,2.558,0,0,0,3.843,2.213Z" fill="#333" fill-rule="evenodd"/>
      <path id="Path_7" data-name="Path 7" d="M472.842,269.214a.979.979,0,0,1,.982,0l8.131,4.691a.983.983,0,0,1,.49.851v9.388a.984.984,0,0,1-.49.851l-8.131,4.69a.979.979,0,0,1-.982,0l-8.124-4.69a.985.985,0,0,1-.491-.851v-9.388a.984.984,0,0,1,.491-.851Z" fill="#679e63" fill-rule="evenodd"/>
    </g>
    <g id="Group_7" data-name="Group 7">
      <path id="Path_8" data-name="Path 8" d="M244.12,226.607a5.092,5.092,0,0,0-5.088,0L196.9,250.921a5.089,5.089,0,0,0-2.545,4.408v48.666A5.094,5.094,0,0,0,196.9,308.4l42.134,24.333a5.086,5.086,0,0,0,5.09,0L286.245,308.4a5.094,5.094,0,0,0,2.544-4.408V255.327a5.088,5.088,0,0,0-2.545-4.406Z" fill-rule="evenodd" fill="url(#linear-gradient)"/>
      <g id="Group_6" data-name="Group 6" clip-path="url(#clip-path)">
        <g id="Group_4" data-name="Group 4">
          <path id="Path_9" data-name="Path 9" d="M238.944,226.607l-42.222,24.314A5.259,5.259,0,0,0,194,255.329v48.666a4.922,4.922,0,0,0,1.313,3.238l47.44-81.152A5.17,5.17,0,0,0,238.944,226.607Z" fill="none"/>
          <path id="Path_10" data-name="Path 10" d="M242.988,333.229a5.019,5.019,0,0,0,1.186-.493L286.351,308.4A5.2,5.2,0,0,0,289,303.995V255.327a5.029,5.029,0,0,0-1.54-3.534Z" fill="none"/>
          <path id="Path_11" data-name="Path 11" d="M286.327,250.921l-42.252-24.314a5.065,5.065,0,0,0-1.322-.526l-47.44,81.152a5.808,5.808,0,0,0,1.42,1.17l42.324,24.333a5.142,5.142,0,0,0,3.931.493l44.472-81.436A5.567,5.567,0,0,0,286.327,250.921Z" fill="url(#linear-gradient-3)"/>
        </g>
        <g id="Group_5" data-name="Group 5">
          <path id="Path_12" data-name="Path 12" d="M289,303.995V255.327a5.211,5.211,0,0,0-2.673-4.406l-42.252-24.314a5.085,5.085,0,0,0-1.55-.571l46.317,79.128A4.661,4.661,0,0,0,289,303.995Z" fill="none"/>
          <path id="Path_13" data-name="Path 13" d="M196.722,250.921A5.259,5.259,0,0,0,194,255.329v48.666a5.281,5.281,0,0,0,2.733,4.408l42.324,24.333a5.13,5.13,0,0,0,3.256.633l-45.337-82.594Z" fill="none"/>
          <path id="Path_14" data-name="Path 14" d="M237.627,217.669l-.579.331h.773Z" fill="url(#linear-gradient-4)"/>
          <path id="Path_15" data-name="Path 15" d="M286.351,308.4a5.325,5.325,0,0,0,2.491-3.239l-46.317-79.128a5.166,5.166,0,0,0-3.581.571l-41.968,24.168,45.337,82.594a5.083,5.083,0,0,0,1.861-.633Z" fill="url(#linear-gradient-5)"/>
          <path id="Path_16" data-name="Path 16" d="M290.279,307.62l-.279-.477v.639Z" fill="url(#linear-gradient-6)"/>
          <path id="Path_17" data-name="Path 17" d="M286.351,308.4l-42.177,24.333a5.083,5.083,0,0,1-1.861.633l.84,1.53L290,307.782v-.639l-1.158-1.979A5.325,5.325,0,0,1,286.351,308.4Z" fill="url(#linear-gradient-7)"/>
          <path id="Path_18" data-name="Path 18" d="M286.351,308.4l-42.177,24.333a5.083,5.083,0,0,1-1.861.633l.84,1.53L290,307.782v-.639l-1.158-1.979A5.325,5.325,0,0,1,286.351,308.4Z" fill="url(#linear-gradient-8)"/>
        </g>
      </g>
    </g>
  </g>
</svg>
