<?xml version="1.0" encoding="UTF-8" standalone="no"?>
<!DOCTYPE svg PUBLIC "-//W3C//DTD SVG 1.1//EN" "http://www.w3.org/Graphics/SVG/1.1/DTD/svg11.dtd">
<svg width="100%" height="100%" viewBox="0 0 151 150" version="1.1" xmlns="http://www.w3.org/2000/svg" xmlns:xlink="http://www.w3.org/1999/xlink" xml:space="preserve" xmlns:serif="http://www.serif.com/" style="fill-rule:evenodd;clip-rule:evenodd;stroke-linejoin:round;stroke-miterlimit:2;">
    <g transform="matrix(1,0,0,1,-284.064,-645.085)">
        <g id="concourse-icon-color" transform="matrix(1.00157,0,0,1.00124,-103.367,44.361)">
            <rect x="386.822" y="599.978" width="150" height="148.828" style="fill:none;"/>
            <g transform="matrix(0.998428,0,0,0.998759,462.203,674.885)">
                <g transform="matrix(1,0,0,1,-75.5,-75)">
                    <clipPath id="_clip1">
                        <rect x="0" y="0" width="151" height="150"/>
                    </clipPath>
                    <g clip-path="url(#_clip1)">
                        <g transform="matrix(1.00157,0,0,1.00124,-387.432,-600.724)">
                            <g id="concourse-icon-color1" serif:id="concourse-icon-color">
                                <rect x="386.822" y="599.978" width="150" height="148.828" style="fill:none;"/>
                                <g transform="matrix(0.585016,0,0,0.585211,386.822,599.978)">
                                    <g>
                                        <g>
                                            <g>
                                                <path d="M145.959,150.375C155.75,149.56 163.028,140.962 162.213,131.171C161.398,121.379 152.8,114.102 143.008,114.916C133.217,115.731 125.939,124.329 126.754,134.121C127.569,143.913 136.167,151.19 145.959,150.375ZM166.688,150.126C162.849,154.364 158.099,157.676 152.796,159.813L152.754,159.932C156.776,175.395 163.071,190.176 171.435,203.79C164.12,207.677 156.157,210.196 147.937,211.223L146.775,211.374L145.394,211.479L142.626,211.69C140.926,211.69 139.262,211.846 137.483,211.743C130.486,211.595 123.549,210.411 116.899,208.228C113.79,207.234 110.757,206.02 107.821,204.594C105.161,203.318 102.582,201.883 100.097,200.294C97.979,198.946 95.936,197.483 93.977,195.913C92.175,194.558 90.764,193.184 89.539,192.113C87.198,189.866 85.907,188.509 85.907,188.509C85.907,188.509 86.994,190.018 89.031,192.588C90.105,193.821 91.343,195.399 92.97,197.016C94.746,198.887 96.623,200.659 98.592,202.326C100.935,204.316 103.396,206.163 105.963,207.855C108.844,209.773 111.857,211.483 114.98,212.975C118.34,214.601 121.813,215.985 125.37,217.116C129.082,218.285 132.875,219.18 136.718,219.793C138.632,220.165 140.701,220.288 142.7,220.534L145.48,220.699L146.863,220.78L148.451,220.805C152.294,220.844 156.135,220.605 159.944,220.091C166.478,219.192 172.877,217.498 179,215.046C181.331,218.218 183.779,221.301 186.343,224.298L185.989,224.517L182.929,226.41L182.507,226.67L182.4,226.736L182.373,226.753C181.859,227.01 183.045,226.422 182.911,226.488L182.856,226.516L182.63,226.632L181.701,227.103L179.744,228.098L178.716,228.619L178.189,228.887L177.922,229.022L177.822,229.073C177.73,229.112 178.51,228.79 178.163,228.934L178.026,228.994L175.755,229.991L173.366,231.041L173.06,231.176L173.021,231.192C173.548,231.004 173.146,231.149 173.253,231.111L173.177,231.146L173.02,231.208L172.387,231.456L171.1,231.959C159.417,236.455 146.95,238.558 134.439,238.142L132.813,238.083L130.975,237.938L127.29,237.643C125.005,237.281 122.719,237.123 120.374,236.61C111.103,234.933 102.13,231.894 93.749,227.59C91.716,226.574 89.755,225.507 87.895,224.348C85.981,223.271 84.222,222.044 82.486,220.87C79.239,218.628 76.13,216.192 73.177,213.573C70.664,211.353 68.273,208.997 66.016,206.517C63.925,204.352 62.35,202.254 60.96,200.59C59.609,198.898 58.674,197.472 57.973,196.542L56.928,195.095L57.826,196.64C58.428,197.634 59.218,199.158 60.398,200.99C61.615,202.797 62.99,205.073 64.872,207.471C66.907,210.222 69.09,212.861 71.411,215.377C74.167,218.374 77.103,221.201 80.201,223.843C81.867,225.237 83.567,226.697 85.436,228.019C87.25,229.421 89.182,230.744 91.196,232.024C95.33,234.7 99.65,237.077 104.123,239.138C108.78,241.268 113.586,243.053 118.504,244.479C120.946,245.277 123.593,245.767 126.141,246.414L129.785,247.083L131.598,247.415L133.623,247.704C138.612,248.378 143.643,248.692 148.677,248.643C157.714,248.54 166.7,247.285 175.419,244.908L176.751,244.538L177.406,244.357L178.321,244.065L180.805,243.264L183.164,242.502L185.724,241.514L187.772,240.724L188.744,240.347L188.981,240.256L189.04,240.234L189.663,239.926L189.776,239.871L190.222,239.654L193.459,238.082L197.503,236.117C200.252,238.747 203.084,241.298 206.022,243.737C206.022,243.737 220.022,258.153 227.733,252.224C234.982,246.652 226.631,229.175 226.631,229.175C215.413,197.203 194.447,169.555 166.688,150.126ZM117.853,126.433L117.772,126.335C102.581,121.857 86.814,119.638 70.978,119.752C71.448,111.138 73.554,102.691 77.183,94.864L77.672,93.8L78.313,92.573L79.6,90.113C80.499,88.672 81.249,87.176 82.279,85.722C86.112,79.866 90.791,74.61 96.166,70.126C98.656,68.017 101.293,66.087 104.057,64.353C106.548,62.774 109.132,61.349 111.796,60.084C114.062,59.002 116.385,58.044 118.755,57.214C120.863,56.406 122.771,55.934 124.327,55.464C127.473,54.662 129.311,54.286 129.311,54.286C129.311,54.286 127.455,54.408 124.195,54.775C122.58,55.032 120.587,55.246 118.353,55.769C115.825,56.286 113.328,56.939 110.871,57.727C107.941,58.66 105.071,59.769 102.276,61.05C99.124,62.477 96.077,64.126 93.158,65.985C89.997,67.973 86.983,70.185 84.138,72.603C81.18,75.132 78.412,77.875 75.856,80.81C74.525,82.236 73.326,83.926 72.059,85.491L70.446,87.761L69.646,88.891L68.782,90.224C66.713,93.463 64.881,96.847 63.299,100.35C60.459,106.665 58.44,113.317 57.291,120.145L57.245,120.42C53.383,120.774 49.538,121.268 45.707,121.902L45.716,119.889L45.732,116.29L45.732,115.638C45.787,115.066 45.657,116.382 45.672,116.235L45.677,116.173L45.699,115.92L45.792,114.883L45.984,112.7L46.086,111.551L46.138,110.964L46.164,110.667L46.17,110.592L46.174,110.554C46.189,110.455 46.048,111.287 46.111,110.917L46.132,110.767L46.489,108.314L46.865,105.731L46.913,105.399L46.919,105.358C46.797,105.906 46.89,105.486 46.865,105.598L46.881,105.515L46.912,105.349L47.038,104.681L47.294,103.326C49.669,91.035 54.491,79.347 61.472,68.956L62.383,67.608L63.48,66.127L65.682,63.158C67.199,61.411 68.543,59.556 70.222,57.839C76.556,50.864 83.887,44.865 91.977,40.036C93.914,38.851 95.859,37.752 97.827,36.788C99.755,35.734 101.727,34.894 103.642,34.043C107.264,32.476 110.977,31.131 114.762,30.013C117.977,29.059 121.241,28.28 124.541,27.679C127.485,27.053 130.099,26.829 132.247,26.532C134.401,26.276 136.104,26.238 137.262,26.137L139.044,26.018L137.262,25.955C136.099,25.938 134.387,25.804 132.209,25.831C130.035,25.906 127.373,25.865 124.343,26.192C120.931,26.46 117.536,26.912 114.173,27.547C110.171,28.298 106.218,29.289 102.336,30.518C100.271,31.195 98.132,31.86 96.021,32.746C93.87,33.542 91.725,34.477 89.572,35.509C85.113,37.598 80.808,40.002 76.691,42.704C72.417,45.526 68.356,48.657 64.541,52.073C62.571,53.721 60.753,55.707 58.854,57.525L56.356,60.261L55.115,61.626L53.798,63.19C50.582,67.064 47.65,71.166 45.025,75.463C40.324,83.181 36.628,91.468 34.026,100.122L33.634,101.448L33.441,102.1L33.204,103.03L32.567,105.562L31.964,107.966C31.787,108.892 31.614,109.791 31.446,110.663L31.031,112.819L30.834,113.84L30.786,114.09L30.774,114.152L30.705,114.843L30.692,114.968L30.64,115.461L30.258,119.039C29.908,122.321 29.674,124.528 29.581,125.402C25.857,126.413 22.16,127.542 18.502,128.823C18.502,128.823 -1.064,133.397 0.045,143.059C1.089,152.145 20.368,153.988 20.368,153.988C53.551,160.844 88.049,157.117 119.004,143.333C117.346,137.859 116.953,132.081 117.853,126.433ZM255.649,115.934C255.215,110.832 254.407,105.768 253.232,100.783C252.728,98.265 251.852,95.718 251.164,93.179L249.959,89.676L249.357,87.934L248.614,86.029C246.75,81.352 244.55,76.816 242.033,72.456C237.503,64.637 231.993,57.427 225.638,51.002L224.659,50.024L224.179,49.542L223.474,48.893L221.556,47.124L219.733,45.443L217.613,43.697L215.918,42.302L215.116,41.64L214.921,41.478L214.872,41.438L214.297,41.048L214.194,40.976L213.787,40.694L210.825,38.649L206.855,35.905C207.88,31.827 208.746,27.704 209.454,23.536C210.163,19.369 214.917,4.198 205.923,0.496C197.467,-2.985 186.528,12.995 186.528,12.995C164.476,38.722 151.05,70.719 148.14,104.478C153.731,105.677 158.977,108.128 163.484,111.648L163.608,111.624C174.594,100.776 183.966,88.407 191.438,74.896C198.606,79.393 204.872,85.19 209.913,91.988L210.612,92.926L211.384,94.076L212.928,96.382C213.764,97.862 214.717,99.235 215.503,100.836C218.813,107.002 221.19,113.625 222.557,120.488C223.218,123.685 223.65,126.925 223.851,130.183C224.046,133.126 224.064,136.077 223.902,139.022C223.768,141.529 223.498,144.027 223.094,146.505C222.793,148.742 222.296,150.647 221.964,152.238C221.158,155.381 220.609,157.172 220.609,157.172C220.609,157.172 221.391,155.484 222.626,152.446C223.173,150.904 223.938,149.052 224.547,146.84C225.303,144.374 225.925,141.868 226.408,139.334C226.991,136.316 227.389,133.264 227.601,130.197C227.855,126.746 227.864,123.282 227.628,119.829C227.394,116.103 226.893,112.397 226.13,108.742C225.324,104.935 224.24,101.192 222.885,97.544C222.269,95.694 221.358,93.831 220.59,91.972L219.367,89.47L218.758,88.227L218,86.831C216.145,83.465 214.049,80.237 211.729,77.173C207.621,71.769 202.852,66.903 197.531,62.689C199.179,59.012 200.689,55.277 202.061,51.483L202.682,51.816L205.834,53.548L206.269,53.788L206.379,53.848L206.407,53.863C206.883,54.184 205.79,53.441 205.911,53.524L205.964,53.559L206.175,53.699L207.042,54.276L208.867,55.494L209.827,56.133L210.319,56.46L210.566,56.625L210.629,56.666L210.66,56.687C210.74,56.748 210.077,56.227 210.371,56.461L210.493,56.552L212.481,58.035L214.571,59.6L214.839,59.801L214.872,59.826C214.449,59.457 214.774,59.739 214.686,59.664L214.883,59.824L215.41,60.254L216.482,61.127C226.139,69.092 234.098,78.917 239.885,90.017L240.632,91.463L241.409,93.134L242.963,96.489C243.771,98.657 244.757,100.725 245.462,103.02C248.559,111.919 250.322,121.226 250.693,130.641C250.807,132.909 250.844,135.143 250.747,137.332C250.747,139.529 250.545,141.664 250.376,143.752C250.02,147.682 249.425,151.587 248.596,155.445C247.897,158.725 247.021,161.965 245.971,165.15C245.113,168.035 244.059,170.439 243.293,172.466C242.484,174.475 241.701,175.989 241.236,177.059L240.488,178.68L241.396,177.145C241.967,176.132 242.902,174.695 243.921,172.767C244.892,170.821 246.203,168.503 247.365,165.686C248.762,162.561 249.988,159.363 251.037,156.105C252.293,152.232 253.312,148.286 254.09,144.289C254.486,142.153 254.918,139.955 255.154,137.679C255.484,135.409 255.687,133.077 255.812,130.693C256.109,125.776 256.054,120.844 255.649,115.934Z" style="fill-rule:nonzero;"/>
                                            </g>
                                        </g>
                                    </g>
                                </g>
                            </g>
                        </g>
                    </g>
                </g>
            </g>
        </g>
    </g>
</svg>
