<?xml version="1.0" encoding="UTF-8" standalone="no"?>
<!DOCTYPE svg PUBLIC "-//W3C//DTD SVG 1.1//EN" "http://www.w3.org/Graphics/SVG/1.1/DTD/svg11.dtd">
<svg width="100%" height="100%" viewBox="0 0 701 476" version="1.1" xmlns="http://www.w3.org/2000/svg" xmlns:xlink="http://www.w3.org/1999/xlink" xml:space="preserve" xmlns:serif="http://www.serif.com/" style="fill-rule:evenodd;clip-rule:evenodd;stroke-linejoin:round;stroke-miterlimit:2;">
    <g transform="matrix(1,0,0,1,-48.125,-3316.22)">
        <g transform="matrix(1.62474,0,0,1.83174,0,3284.6)">
            <g transform="matrix(2.56451,0,0,2.2747,-54.7779,-51.2308)">
                <path d="M147.769,41.684C146.975,41.684 146.415,41.779 145.85,41.919L145.85,42.013L145.941,42.013C146.319,42.76 146.975,43.278 147.439,43.933C147.816,44.682 148.144,45.428 148.518,46.177C148.564,46.132 148.609,46.083 148.609,46.083C149.269,45.617 149.596,44.868 149.596,43.743C149.313,43.414 149.269,43.089 149.033,42.76C148.753,42.293 148.144,42.059 147.769,41.684Z" style="fill:rgb(94,137,163);"/>
            </g>
        </g>
        <g transform="matrix(1.62474,0,0,1.83174,0,3284.6)">
            <g transform="matrix(2.56451,0,0,2.2747,-54.7779,-51.2308)">
                <path d="M73.307,134.068L66.824,134.068C66.595,123.125 65.963,112.835 64.93,103.196L64.874,103.196L55.002,134.068L50.066,134.068L40.254,103.196L40.197,103.196C39.469,112.453 39.011,122.743 38.821,134.068L32.91,134.068C33.292,120.295 34.248,107.384 35.778,95.333L43.813,95.333L53.167,123.794L53.224,123.794L62.635,95.333L70.324,95.333C72.007,109.447 73.002,122.362 73.307,134.068Z" style="fill:rgb(12,118,145);fill-rule:nonzero;"/>
            </g>
        </g>
        <g transform="matrix(1.62474,0,0,1.83174,0,3284.6)">
            <g transform="matrix(2.56451,0,0,2.2747,-54.7779,-51.2308)">
                <path d="M101.426,105.489C98.786,119.814 95.303,130.224 90.981,136.718C87.613,141.722 83.923,144.224 79.906,144.224C78.835,144.224 77.514,143.901 75.947,143.26L75.947,139.807C76.712,139.919 77.611,139.979 78.644,139.979C80.518,139.979 82.029,139.461 83.178,138.427C84.554,137.167 85.243,135.751 85.243,134.182C85.243,133.11 84.706,130.911 83.636,127.584L76.521,105.489L82.89,105.489L87.997,122.014C89.144,125.766 89.623,128.386 89.431,129.878C92.224,122.418 94.175,114.288 95.286,105.489L101.426,105.489Z" style="fill:rgb(12,118,145);fill-rule:nonzero;"/>
            </g>
        </g>
        <g transform="matrix(1.62474,0,0,1.83174,0,3284.6)">
            <g transform="matrix(2.56451,0,0,2.2747,-54.7779,-51.2308)">
                <path d="M187.73,134.068L169.311,134.068L169.311,95.333L175.509,95.333L175.509,129.304L187.73,129.304L187.73,134.068Z" style="fill:rgb(243,146,31);fill-rule:nonzero;"/>
            </g>
        </g>
        <g transform="matrix(1.62474,0,0,1.83174,0,3284.6)">
            <g transform="matrix(2.56451,0,0,2.2747,-54.7779,-51.2308)">
                <path d="M141.423,126.319C139.854,123.794 139.068,119.742 139.068,114.155C139.068,104.401 142.034,99.521 147.963,99.521C151.063,99.521 153.338,100.688 154.793,103.02C156.36,105.546 157.146,109.563 157.146,115.072C157.146,124.904 154.18,129.822 148.251,129.822C145.152,129.822 142.876,128.656 141.423,126.319ZM164.491,135.002L157.371,131.491C158.005,130.972 158.607,130.41 159.152,129.761C162.175,126.207 163.688,120.947 163.688,113.983C163.688,101.168 158.657,94.757 148.596,94.757C143.661,94.757 139.815,96.382 137.061,99.637C134.037,103.195 132.527,108.435 132.527,115.36C132.527,122.169 133.865,127.164 136.543,130.337C138.992,133.205 142.684,134.641 147.62,134.641C149.463,134.641 151.154,134.414 152.691,133.96L161.963,139.356L164.491,135.002Z" style="fill:rgb(243,146,31);"/>
            </g>
        </g>
        <g transform="matrix(1.62474,0,0,1.83174,0,3284.6)">
            <g transform="matrix(2.56451,0,0,2.2747,-54.7779,-51.2308)">
                <path d="M129.826,123.331C129.826,126.616 128.619,129.313 126.213,131.423C123.805,133.524 120.57,134.577 116.519,134.577C112.73,134.577 109.058,133.365 105.501,130.961L107.165,127.633C110.226,129.164 112.996,129.927 115.483,129.927C117.816,129.927 119.642,129.408 120.963,128.382C122.281,127.349 123.071,125.908 123.071,124.08C123.071,121.78 121.467,119.814 118.524,118.165C115.807,116.674 110.377,113.561 110.377,113.561C107.435,111.415 105.96,109.112 105.96,105.318C105.96,102.18 107.06,99.644 109.257,97.715C111.459,95.781 114.3,94.814 117.779,94.814C121.375,94.814 124.645,95.774 127.59,97.686L126.094,101.01C123.574,99.942 121.089,99.406 118.639,99.406C116.651,99.406 115.119,99.883 114.051,100.843C112.977,101.795 112.313,103.02 112.313,104.513C112.313,106.807 113.952,108.797 116.978,110.478C119.729,111.97 125.292,115.143 125.292,115.143C128.317,117.285 129.826,119.569 129.826,123.331Z" style="fill:rgb(243,146,31);fill-rule:nonzero;"/>
            </g>
        </g>
        <g transform="matrix(1.62474,0,0,1.83174,0,3284.6)">
            <g transform="matrix(2.56451,0,0,2.2747,-54.7779,-51.2308)">
                <path d="M195.508,82.357C191.762,82.263 188.861,82.637 186.428,83.668C185.726,83.948 184.604,83.948 184.508,84.838C184.885,85.212 184.93,85.819 185.26,86.337C185.82,87.272 186.801,88.534 187.692,89.191C188.675,89.94 189.658,90.686 190.689,91.341C192.513,92.469 194.573,93.122 196.349,94.246C197.382,94.9 198.408,95.742 199.441,96.446C199.954,96.82 200.279,97.429 200.937,97.661L200.937,97.519C200.607,97.099 200.515,96.491 200.189,96.02C199.722,95.555 199.253,95.132 198.784,94.666C197.426,92.841 195.739,91.251 193.918,89.94C192.419,88.908 189.141,87.504 188.535,85.777C188.535,85.777 188.486,85.727 188.44,85.681C189.47,85.587 190.689,85.212 191.671,84.927C193.26,84.507 194.711,84.602 196.349,84.182C197.099,83.994 197.848,83.758 198.6,83.528L198.6,83.104C197.753,82.263 197.147,81.138 196.258,80.343C193.873,78.285 191.249,76.274 188.535,74.587C187.082,73.65 185.21,73.045 183.665,72.247C183.106,71.966 182.171,71.827 181.842,71.356C180.999,70.327 180.529,68.971 179.922,67.753C178.566,65.181 177.253,62.328 176.085,59.609C175.243,57.784 174.728,55.961 173.698,54.275C168.875,46.317 163.635,41.499 155.585,36.771C153.853,35.786 151.794,35.365 149.596,34.851C148.424,34.801 147.255,34.711 146.085,34.665C145.335,34.336 144.585,33.445 143.931,33.025C141.262,31.341 134.385,27.691 132.418,32.51C131.154,35.554 134.29,38.549 135.367,40.093C136.162,41.169 137.193,42.387 137.752,43.603C138.08,44.399 138.174,45.242 138.503,46.084C139.251,48.143 139.952,50.437 140.937,52.357C141.45,53.34 142.011,54.371 142.666,55.256C143.044,55.774 143.697,56.005 143.838,56.85C143.185,57.784 143.134,59.189 142.76,60.36C141.076,65.649 141.73,72.201 144.118,76.085C144.865,77.255 146.646,79.83 149.033,78.844C151.139,78.004 150.671,75.336 151.279,72.997C151.419,72.431 151.325,72.06 151.605,71.686L151.605,71.781C152.26,73.09 152.917,74.35 153.525,75.665C154.978,77.956 157.503,80.343 159.611,81.933C160.731,82.779 161.621,84.227 163.025,84.744L163.025,84.602L162.933,84.602C162.651,84.182 162.231,83.994 161.856,83.668C161.014,82.825 160.08,81.795 159.422,80.859C157.457,78.239 155.723,75.336 154.182,72.341C153.431,70.886 152.777,69.297 152.168,67.846C151.888,67.288 151.888,66.443 151.419,66.163C150.715,67.191 149.688,68.082 149.174,69.341C148.284,71.356 148.191,73.837 147.861,76.412C147.675,76.461 147.769,76.412 147.675,76.505C146.179,76.131 145.664,74.587 145.101,73.28C143.697,69.953 143.461,64.617 144.68,60.779C145.006,59.799 146.414,56.71 145.85,55.774C145.567,54.881 144.632,54.371 144.118,53.666C143.511,52.777 142.852,51.655 142.435,50.671C141.311,48.05 140.746,45.148 139.533,42.528C138.971,41.309 137.986,40.045 137.193,38.924C136.302,37.659 135.32,36.771 134.617,35.275C134.385,34.758 134.057,33.916 134.43,33.356C134.522,32.981 134.712,32.84 135.087,32.745C135.692,32.231 137.426,32.884 138.033,33.166C139.766,33.865 141.217,34.525 142.666,35.506C143.322,35.975 144.024,36.863 144.865,37.1L145.85,37.1C147.347,37.424 149.033,37.191 150.438,37.613C152.917,38.408 155.163,39.579 157.177,40.842C163.306,44.728 168.361,50.252 171.776,56.85C172.339,57.924 172.575,58.908 173.089,60.029C174.072,62.328 175.29,64.668 176.271,66.912C177.253,69.112 178.191,71.356 179.597,73.184C180.297,74.166 183.106,74.68 184.37,75.196C185.304,75.616 186.757,75.991 187.6,76.505C189.191,77.486 190.779,78.611 192.279,79.689C193.026,80.251 195.367,81.42 195.508,82.357Z" style="fill:rgb(12,118,145);"/>
            </g>
        </g>
        <g transform="matrix(1.62474,0,0,1.83174,0,3284.6)">
            <g transform="matrix(2.56451,0,0,2.2747,-54.7779,-51.2308)">
                <path d="M192.154,134.064L193.181,134.064L193.181,130.123L194.525,130.123L194.525,129.319L190.758,129.319L190.758,130.123L192.154,130.123L192.154,134.064ZM199.969,134.064L200.937,134.064L200.937,129.319L199.481,129.319L198.296,132.553L197.006,129.319L195.603,129.319L195.603,134.064L196.519,134.064L196.519,130.452L196.571,130.452L197.922,134.064L198.62,134.064L199.969,130.452L199.969,134.064Z" style="fill:rgb(243,146,31);fill-rule:nonzero;"/>
            </g>
        </g>
    </g>
</svg>
