<?xml version="1.0" encoding="UTF-8"?>
<svg width="248px" height="205px" viewBox="0 0 248 205" version="1.1" xmlns="http://www.w3.org/2000/svg" xmlns:xlink="http://www.w3.org/1999/xlink">
    <!-- Generator: Sketch 60.1 (88133) - https://sketch.com -->
    <title>Group</title>
    <desc>Created with Sketch.</desc>
    <g id="Page-1" stroke="none" stroke-width="1" fill="none" fill-rule="evenodd">
        <g id="Group" transform="translate(0.260601, 0.380059)" fill-rule="nonzero">
            <path d="M221.142039,18.5142111 C220.439339,-4.02051894 188.977339,-2.55523894 182.385239,4.99441106 C175.793239,12.5440611 177.645439,24.2743711 191.702839,25.4217211 C205.760339,26.5690711 209.007139,15.4514411 202.858139,10.6598511 C196.709139,5.86826106 186.028239,10.0904011 189.982139,17.3553711 C192.723339,20.7108511 199.028439,20.0633711 200.100839,17.2109911 C201.554639,12.5705511 196.037139,10.2826711 192.814839,12.9775311 L192.814839,12.9775311 C201.082739,10.2046111 200.573839,20.3254811 193.957839,18.2594611 C187.341739,16.1934511 190.632639,9.15436106 197.781739,9.88314106 C210.983639,12.9483911 201.381839,26.6205811 189.542039,22.8118211 C177.702239,19.0030611 179.275339,-2.11458894 204.564739,2.69042106 C211.338339,3.95566106 218.255639,12.1247111 217.129239,18.8512711 C190.925939,25.0002811 183.347439,36.0641711 174.018539,46.6661411 C167.774139,55.1905911 156.679939,86.4662011 206.522339,84.3596211 C199.835439,98.3779911 174.234939,114.654701 152.076139,130.520471 C132.589139,143.038211 79.1448392,174.464281 92.4403392,197.531091 C93.3373392,200.136651 120.134539,214.968831 120.573939,188.517431 C119.962339,176.907711 123.649339,168.002151 136.233939,151.370241 C155.607639,130.572941 184.919839,115.149831 219.542039,102.022751 C230.444139,96.5063911 256.096539,84.8646811 243.487439,70.0652311 C226.508039,54.2642711 203.971839,81.9362411 184.762039,59.5037711 C167.006039,35.6704511 213.976839,34.1596811 240.755939,33.3732711 C226.090739,28.5590711 232.829839,21.2831111 221.142039,18.5142111 L221.142039,18.5142111 Z" id="path4608-3" fill="#000000"></path>
            <path d="M116.846439,79.5464311 C108.219639,69.7463211 97.3688392,60.6875611 86.2016392,51.7342811 C83.1339392,48.6430411 89.5283392,42.2027611 95.9873392,49.0303211 C107.448039,62.1109211 111.980839,69.9189411 116.846439,79.5464311 Z" id="path4639-2" fill="#000000"></path>
            <path d="M117.046439,83.0431611 C107.260739,76.8483311 81.4738392,63.0254511 67.9888392,55.6172911 C64.9212392,52.5260511 72.6031392,47.3733711 81.8949392,53.8146511 C95.4157392,64.1912911 110.893239,76.1196311 117.046439,83.0431611 Z" id="path4639-3-2" fill="#000000"></path>
            <path d="M121.127439,88.0287911 C105.245039,81.3872911 71.6262392,70.0672511 54.4322392,64.3845211 C45.1679392,59.9351811 53.9085392,53.8635611 66.9079392,59.8324711 C87.7010392,69.0845311 110.735039,81.4853011 121.127439,88.0287911 Z" id="path4639-3-6-8" fill="#000000"></path>
            <path d="M124.218439,92.3407511 C108.244939,86.7007711 60.4266392,78.3475711 41.0436402,72.7936011 C31.7794402,68.3442611 38.3349402,61.7263611 54.5209392,66.7848011 C75.8219392,72.7983411 115.594439,87.9515111 124.218439,92.3407511 Z" id="path4639-3-6-7-9" fill="#000000"></path>
            <path d="M128.938439,96.1940211 C71.6017392,88.4612311 47.4262392,90.0105011 33.4086402,86.7023711 C19.3910402,83.3942511 24.6093402,76.9860111 44.2844402,77.8297111 C60.7502392,77.7774111 103.274139,88.5044911 128.938439,96.1940211 Z" id="path4639-3-6-7-5-7" fill="#000000"></path>
            <path d="M131.575739,97.9863811 C114.692139,96.6060511 65.1657392,99.8856311 28.6547402,98.9428511 C10.1594402,97.8598411 13.1692402,88.9345411 39.8967402,90.2754311 C62.2028392,90.7589511 124.075739,97.0603411 131.575739,97.9863811 L131.575739,97.9863811 Z" id="path4639-3-6-7-3-3" fill="#000000"></path>
            <path d="M134.473339,100.619121 C117.533439,100.662721 59.1872392,107.192161 22.7262402,109.321511 C4.20524016,109.796891 -2.81645984,101.551511 29.9809402,101.413741 C52.2486392,100.020701 126.922039,100.326741 134.473339,100.619081 L134.473339,100.619121 Z" id="path4639-3-6-7-3-5-61" fill="#000000"></path>
            <path d="M130.921139,104.410081 C113.981239,104.453681 61.9443392,115.103441 20.9766402,123.413271 C-7.20125984,129.039051 -6.49735984,118.347231 20.1195402,114.089141 C52.1730392,106.901901 123.369839,104.117701 130.921139,104.410041 L130.921139,104.410081 Z" id="path4639-3-6-7-3-5-6-29" fill="#000000"></path>
            <path d="M128.424339,107.569361 C113.056439,111.181111 70.0370392,122.954401 30.2825402,135.876581 C2.92884016,144.675361 2.41024016,133.972951 28.3689402,126.710771 C59.3951392,115.919241 119.978439,108.139051 128.424339,107.569361 L128.424339,107.569361 Z" id="path4639-3-6-7-3-5-6-2-3" fill="#000000"></path>
            <path d="M129.467639,112.487351 C114.577539,118.121591 73.6862392,132.891051 34.7540402,147.757321 C8.05844016,158.387001 3.46904016,145.297781 32.3532402,137.969461 C68.2559392,128.322081 122.430439,113.627281 129.467639,112.487351 Z" id="path4639-3-6-7-3-5-6-2-9-19" fill="#000000"></path>
            <path d="M131.227039,118.831861 C116.952339,125.881061 58.6263392,155.870461 41.0163402,164.263651 C14.5738402,174.337401 14.6618402,159.178721 43.3448402,150.118801 C78.1449392,137.041221 124.333239,120.647661 131.227039,118.831861 L131.227039,118.831861 Z" id="path4639-3-6-7-3-5-6-2-9-1-4" fill="#000000"></path>
            <path d="M136.267939,125.096981 C122.757439,133.504501 67.6114392,168.973841 50.2622392,178.059611 C26.7069402,187.519911 31.2956402,170.992621 59.2297392,160.033641 C92.7873392,144.034701 129.554239,127.494321 136.267939,125.096981 L136.267939,125.096981 Z" id="path4639-3-6-7-3-5-6-2-9-1-2-78" fill="#000000"></path>
            <path d="M146.029339,127.560351 C133.407139,137.250641 89.8544392,173.186221 73.4785392,183.927451 C41.9497402,202.988541 51.2069392,179.395781 77.9335392,165.753681 C109.762839,146.545101 139.582639,130.603691 146.029339,127.560351 L146.029339,127.560351 Z" id="path4639-3-6-7-3-5-6-2-9-1-2-7-4" fill="#000000"></path>
            <path d="M155.995439,136.100041 C147.614139,149.131091 139.305239,161.646411 137.392039,186.079211 C134.890039,211.925601 117.922039,195.990821 127.585139,175.106851 C134.477439,159.223661 148.530739,143.887261 155.995439,136.100041 Z" id="path4639-0-5" fill="#000000"></path>
            <path d="M158.252239,135.719501 C156.470639,148.653561 156.157339,170.707841 157.041039,185.831081 C157.790239,194.353531 143.377039,206.844231 143.501239,180.372351 C145.914339,163.149521 154.143639,145.693601 158.252239,135.719501 Z" id="path4639-0-9-0" fill="#000000"></path>
            <path d="M163.524739,135.064151 C164.706139,148.066781 168.029339,167.974521 171.761439,181.792671 C174.507839,196.751051 161.721139,196.082931 161.173039,180.294961 C159.639739,162.971631 161.771539,145.707881 163.524739,135.064151 Z" id="path4639-0-9-3-3" fill="#000000"></path>
            <path d="M179.443739,35.0845011 C166.436439,36.2137511 140.406939,41.4213011 127.090939,43.8111511 C109.455339,44.7477911 117.784939,36.9530511 127.112939,35.8049711 C144.442339,34.3410711 168.482839,34.6401011 179.443739,35.0845011 L179.443739,35.0845011 Z" id="path4639-6-6" fill="#000000"></path>
            <path d="M177.661239,37.5399611 C159.030039,40.4220411 132.440739,50.3765311 127.072339,55.6696211 C110.621439,70.6910211 109.312339,51.5674811 122.394139,48.3435711 C148.418139,39.5394211 173.336739,38.1748511 177.661239,37.5399611 L177.661239,37.5399611 Z" id="path4639-6-0-1" fill="#000000"></path>
            <path d="M176.798039,39.6358111 C160.572339,46.9076811 141.817939,59.5978411 137.997739,66.0973211 C125.981939,84.8562011 116.239839,66.8474611 129.398039,59.5190011 C152.267439,44.2955011 172.784039,41.3654611 176.798039,39.6358111 Z" id="path4639-6-0-6-0" fill="#000000"></path>
            <path d="M171.089839,45.8123411 C163.970539,51.8404711 150.255039,59.3461811 147.675739,74.4144211 C146.104639,86.5664911 128.564239,83.5492811 139.839139,69.2802011 C150.451939,56.7394711 162.375139,50.1795211 171.089839,45.8123411 L171.089839,45.8123411 Z" id="path4639-6-2-63" fill="#000000"></path>
            <path d="M169.646339,50.7797911 C164.860739,57.9915911 157.732039,68.5054011 157.034139,76.4948411 C156.968139,85.3885811 142.829739,90.6535011 150.900839,74.2814211 C156.277339,62.3997411 162.862239,57.7793011 169.646339,50.7797911 L169.646339,50.7797911 Z" id="path4639-6-2-6-2" fill="#000000"></path>
            <path d="M166.301439,60.8608311 C162.671339,69.6250711 165.555239,77.2066211 167.038839,78.2565711 C173.808439,84.7086311 164.858239,89.3571011 161.504739,77.9886011 C160.123439,71.7543311 163.054239,65.3014111 166.301439,60.8608311 L166.301439,60.8608311 Z" id="path4639-6-2-1-0" fill="#000000"></path>
            <path d="M203.670639,86.7247511 C188.493239,99.5446011 177.639739,104.336411 167.915639,109.257291 C142.663039,120.574631 151.940639,126.279471 169.925339,114.631661 C194.924539,100.029821 200.174939,89.7239211 203.670639,86.7247511 L203.670639,86.7247511 Z" id="path4639-6-0-8-6" fill="#000000"></path>
            <path d="M195.795039,90.0967111 C180.403639,97.4915911 167.828839,101.514211 156.405539,106.062581 C132.604339,113.686081 139.850939,121.435821 158.626139,110.425481 C181.746139,99.1399711 191.811539,92.4090511 195.795039,90.0967111 Z" id="path4639-6-0-8-7-1" fill="#000000"></path>
            <path d="M194.348839,88.8882311 C178.152339,94.2968111 165.880939,97.6138411 153.977839,100.695401 C129.409139,105.277311 133.825139,110.461631 154.539839,104.272021 C178.891539,95.9716211 190.107139,90.6833611 194.348839,88.8882311 Z" id="path4639-6-0-8-7-9-5" fill="#000000"></path>
            <path d="M190.982339,88.0522411 C174.274239,91.5773111 159.551239,94.7791411 155.223539,94.6982611 C132.030839,95.6455211 133.879539,101.155231 155.165539,97.3698111 C180.305239,91.9024011 186.563439,89.3516211 190.982339,88.0522411 L190.982339,88.0522411 Z" id="path4639-6-0-8-7-9-2-5" fill="#000000"></path>
            <path d="M186.418139,87.9694711 C176.694739,88.8925611 158.734839,89.9953911 153.249339,89.6980611 C140.675039,88.7767911 132.539139,94.1147711 149.849439,92.8536211 C177.479239,90.1441611 183.989439,88.9194111 186.418139,87.9694711 L186.418139,87.9694711 Z" id="path4639-6-0-8-7-9-2-0-4" fill="#000000"></path>
            <path d="M122.850039,157.743531 C104.156939,173.187471 98.6264392,184.293701 101.271939,192.705601 C101.827039,194.713291 104.834339,198.663051 104.913839,196.347481 C103.978939,183.338401 111.960839,170.511301 122.850039,157.743531 Z" id="path4637-9" fill="#FFFFFF"></path>
            <ellipse id="path4635-5" fill="#FFFFFF" transform="translate(222.409998, 27.273130) rotate(-29.483258) translate(-222.409998, -27.273130) " cx="222.409998" cy="27.2731303" rx="1" ry="1.5477997"></ellipse>
        </g>
    </g>
</svg>