<?xml version="1.0" encoding="UTF-8" standalone="no"?>
<!DOCTYPE svg PUBLIC "-//W3C//DTD SVG 1.1//EN" "http://www.w3.org/Graphics/SVG/1.1/DTD/svg11.dtd">
<svg width="100%" height="100%" viewBox="0 0 277 275" version="1.1" xmlns="http://www.w3.org/2000/svg" xmlns:xlink="http://www.w3.org/1999/xlink" xml:space="preserve" xmlns:serif="http://www.serif.com/" style="fill-rule:evenodd;clip-rule:evenodd;stroke-miterlimit:2;">
    <g transform="matrix(1,0,0,1,-2376.37,-745.436)">
        <g transform="matrix(1.466,0,0,1.436,1379.37,383.062)">
            <g transform="matrix(0.163711,0,0,0.167131,774.557,348.102)">
                <g transform="matrix(1,0,0,1,-577.083,-572.917)">
                    <clipPath id="_clip1">
                        <rect x="0" y="0" width="1154.17" height="1145.83"/>
                    </clipPath>
                    <g clip-path="url(#_clip1)">
                        <g transform="matrix(4.16667,0,0,4.16667,0,0)">
                            <path d="M95.896,62.596L99.966,164.696L173.721,70.58C174.841,69.152 176.486,68.231 178.288,68.022C180.097,67.813 181.904,68.336 183.32,69.472L229.33,106.386L214.356,40.776L95.896,62.596Z" style="fill:rgb(81,114,184);fill-rule:nonzero;"/>
                            <path d="M102.546,183.43L167.97,183.43L127.8,151.204L102.546,183.43Z" style="fill:rgb(35,61,153);fill-rule:nonzero;"/>
                            <path d="M180.176,84.368L136.181,140.51L183.06,178.119L227.529,122.357L180.176,84.368Z" style="fill:rgb(51,87,167);fill-rule:nonzero;"/>
                            <path d="M83.565,52.746C83.567,52.743 83.57,52.739 83.572,52.737L122.263,4.22L59.869,34.267L44.459,101.783L83.565,52.746Z" style="fill:rgb(193,218,242);fill-rule:nonzero;"/>
                            <path d="M45.319,122.494L86.759,174.458L82.813,75.478L45.319,122.494Z" style="fill:rgb(120,154,208);fill-rule:nonzero;"/>
                            <path d="M202.308,29.18L142.647,0.449L105.516,47.01L202.308,29.18Z" style="fill:rgb(166,192,228);fill-rule:nonzero;"/>
                            <path d="M1.598,272.434L1.598,227.669L7.342,227.669L7.342,251.082L27.821,227.669L34.22,227.669L16.832,247.367L35.874,272.434L29.1,272.434L13.179,251.643L7.342,258.293L7.342,272.434L1.598,272.434Z" style="fill:rgb(81,114,184);fill-rule:nonzero;"/>
                            <path d="M1.598,272.434L1.598,227.669L7.342,227.669L7.342,251.082L27.821,227.669L34.22,227.669L16.832,247.367L35.874,272.434L29.1,272.434L13.179,251.643L7.342,258.293L7.342,272.434L1.598,272.434Z" style="fill:none;stroke:rgb(81,114,184);stroke-width:3.2px;"/>
                            <path d="M41.618,262.664L41.618,240.468L47.051,240.468L47.051,262.863C47.051,264.669 47.834,266.065 49.402,267.052C50.97,268.039 52.803,268.532 54.902,268.532C57.02,268.532 58.858,268.039 60.416,267.052C61.973,266.065 62.753,264.669 62.753,262.863L62.753,240.468L68.184,240.468L68.184,262.664C68.184,265.993 66.817,268.616 64.082,270.53C61.347,272.444 58.281,273.402 54.886,273.402C51.49,273.402 48.43,272.455 45.705,270.561C42.98,268.668 41.618,266.035 41.618,262.664Z" style="fill:rgb(81,114,184);fill-rule:nonzero;"/>
                            <path d="M41.618,262.664L41.618,240.468L47.051,240.468L47.051,262.863C47.051,264.669 47.834,266.065 49.402,267.052C50.97,268.039 52.803,268.532 54.902,268.532C57.02,268.532 58.858,268.039 60.416,267.052C61.973,266.065 62.753,264.669 62.753,262.863L62.753,240.468L68.184,240.468L68.184,262.664C68.184,265.993 66.817,268.616 64.082,270.53C61.347,272.444 58.281,273.402 54.886,273.402C51.49,273.402 48.43,272.455 45.705,270.561C42.98,268.668 41.618,266.035 41.618,262.664Z" style="fill:none;stroke:rgb(81,114,184);stroke-width:3.2px;"/>
                            <path d="M82.888,267.564L87.437,267.564C91.945,267.564 95.186,266.581 97.159,264.614C99.133,262.648 100.12,259.478 100.12,255.104C100.12,252.238 99.47,249.732 98.172,247.588C96.874,245.443 94.863,244.37 92.143,244.37C88.528,244.37 85.443,244.883 82.888,245.908L82.888,267.564ZM77.456,272.434L77.456,224.423L82.888,224.423L82.888,241.226C86.172,240.096 89.279,239.52 92.209,239.5C94.557,239.5 96.625,239.969 98.412,240.905C100.2,241.842 101.592,243.09 102.59,244.65C103.588,246.211 104.331,247.896 104.819,249.706C105.307,251.516 105.552,253.379 105.552,255.293C105.552,260.913 104.09,265.175 101.167,268.079C98.243,270.983 93.639,272.434 87.354,272.434L77.456,272.434Z" style="fill:rgb(81,114,184);fill-rule:nonzero;"/>
                            <path d="M82.888,267.564L87.437,267.564C91.945,267.564 95.186,266.581 97.159,264.614C99.133,262.648 100.12,259.478 100.12,255.104C100.12,252.238 99.47,249.732 98.172,247.588C96.874,245.443 94.863,244.37 92.143,244.37C88.528,244.37 85.443,244.883 82.888,245.908L82.888,267.564ZM77.456,272.434L77.456,224.423L82.888,224.423L82.888,241.226C86.172,240.096 89.279,239.52 92.209,239.5C94.557,239.5 96.625,239.969 98.412,240.905C100.2,241.842 101.592,243.09 102.59,244.65C103.588,246.211 104.331,247.896 104.819,249.706C105.307,251.516 105.552,253.379 105.552,255.293C105.552,260.913 104.09,265.175 101.167,268.079C98.243,270.983 93.639,272.434 87.354,272.434L77.456,272.434Z" style="fill:none;stroke:rgb(81,114,184);stroke-width:3.2px;"/>
                            <path d="M117.976,254.266L135.239,254.266C134.948,251.379 134.157,249.008 132.867,247.152C131.576,245.298 129.703,244.37 127.248,244.37C124.813,244.37 122.742,245.277 121.036,247.09C119.329,248.902 118.309,251.295 117.976,254.266ZM112.358,256.387C112.358,251.249 113.72,247.15 116.447,244.091C119.173,241.03 122.773,239.5 127.248,239.5C136.155,239.5 140.61,245.786 140.61,258.355L117.789,258.355C117.997,260.999 118.965,263.355 120.693,265.427C122.42,267.497 125.052,268.532 128.591,268.532C132.69,268.532 136.207,267.856 139.142,266.503L139.142,271.529C135.937,272.757 132.649,273.381 129.276,273.402C126.342,273.402 123.778,272.945 121.582,272.033C119.386,271.121 117.625,269.866 116.298,268.269C114.97,266.673 113.982,264.879 113.332,262.887C112.682,260.897 112.358,258.73 112.358,256.387Z" style="fill:rgb(81,114,184);fill-rule:nonzero;"/>
                            <path d="M117.976,254.266L135.239,254.266C134.948,251.379 134.157,249.008 132.867,247.152C131.576,245.298 129.703,244.37 127.248,244.37C124.813,244.37 122.742,245.277 121.036,247.09C119.329,248.902 118.309,251.295 117.976,254.266ZM112.358,256.387C112.358,251.249 113.72,247.15 116.447,244.091C119.173,241.03 122.773,239.5 127.248,239.5C136.155,239.5 140.61,245.786 140.61,258.355L117.789,258.355C117.997,260.999 118.965,263.355 120.693,265.427C122.42,267.497 125.052,268.532 128.591,268.532C132.69,268.532 136.207,267.856 139.142,266.503L139.142,271.529C135.937,272.757 132.649,273.381 129.276,273.402C126.342,273.402 123.778,272.945 121.582,272.033C119.386,271.121 117.625,269.866 116.298,268.269C114.97,266.673 113.982,264.879 113.332,262.887C112.682,260.897 112.358,258.73 112.358,256.387Z" style="fill:none;stroke:rgb(81,114,184);stroke-width:3.2px;"/>
                            <path d="M147.321,245.338L147.321,240.468L152.284,240.468L152.284,232.881C152.284,230.373 153.054,228.356 154.595,226.833C156.135,225.309 158.029,224.548 160.277,224.548L168.143,224.548L168.143,229.417L163.148,229.417C160.942,229.417 159.485,229.865 158.778,230.76C158.07,231.654 157.716,233.309 157.716,235.723L157.716,240.468L166.176,240.468L166.176,245.338L157.716,245.338L157.716,272.434L152.284,272.434L152.284,245.338L147.321,245.338Z" style="fill:rgb(35,61,153);fill-rule:nonzero;"/>
                            <path d="M147.321,245.338L147.321,240.468L152.284,240.468L152.284,232.881C152.284,230.373 153.054,228.356 154.595,226.833C156.135,225.309 158.029,224.548 160.277,224.548L168.143,224.548L168.143,229.417L163.148,229.417C160.942,229.417 159.485,229.865 158.778,230.76C158.07,231.654 157.716,233.309 157.716,235.723L157.716,240.468L166.176,240.468L166.176,245.338L157.716,245.338L157.716,272.434L152.284,272.434L152.284,245.338L147.321,245.338Z" style="fill:none;stroke:rgb(35,61,153);stroke-width:3.2px;"/>
                            <rect x="175.26" y="224.485" width="5.432" height="47.949" style="fill:rgb(35,61,153);fill-rule:nonzero;"/>
                            <rect x="175.26" y="224.485" width="5.432" height="47.949" style="fill:none;stroke:rgb(35,61,153);stroke-width:3.2px;"/>
                            <path d="M198.247,247.85C196.116,250.172 195.052,253.038 195.052,256.452C195.052,259.865 196.116,262.731 198.247,265.052C200.377,267.372 203.209,268.532 206.742,268.532C210.234,268.532 213.056,267.372 215.206,265.052C217.358,262.731 218.434,259.865 218.434,256.452C218.434,253.038 217.358,250.172 215.206,247.85C213.056,245.53 210.234,244.37 206.742,244.37C203.209,244.37 200.377,245.53 198.247,247.85ZM194.407,268.501C191.216,265.234 189.62,261.219 189.62,256.452C189.62,251.685 191.221,247.669 194.423,244.401C197.626,241.135 201.732,239.5 206.742,239.5C211.703,239.5 215.797,241.144 219.025,244.432C222.251,247.721 223.865,251.727 223.865,256.452C223.865,261.176 222.251,265.181 219.025,268.47C215.797,271.759 211.703,273.402 206.742,273.402C201.711,273.402 197.6,271.768 194.407,268.501Z" style="fill:rgb(35,61,153);fill-rule:nonzero;"/>
                            <path d="M198.247,247.85C196.116,250.172 195.052,253.038 195.052,256.452C195.052,259.865 196.116,262.731 198.247,265.052C200.377,267.372 203.209,268.532 206.742,268.532C210.234,268.532 213.056,267.372 215.206,265.052C217.358,262.731 218.434,259.865 218.434,256.452C218.434,253.038 217.358,250.172 215.206,247.85C213.056,245.53 210.234,244.37 206.742,244.37C203.209,244.37 200.377,245.53 198.247,247.85ZM194.407,268.501C191.216,265.234 189.62,261.219 189.62,256.452C189.62,251.685 191.221,247.669 194.423,244.401C197.626,241.135 201.732,239.5 206.742,239.5C211.703,239.5 215.797,241.144 219.025,244.432C222.251,247.721 223.865,251.727 223.865,256.452C223.865,261.176 222.251,265.181 219.025,268.47C215.797,271.759 211.703,273.402 206.742,273.402C201.711,273.402 197.6,271.768 194.407,268.501Z" style="fill:none;stroke:rgb(35,61,153);stroke-width:3.2px;"/>
                            <path d="M228.454,240.468L234.197,240.468L241.502,265.785L248.933,240.468L254.288,240.468L261.631,265.807L269.005,240.468L274.749,240.468L264.698,272.434L258.578,272.434L251.75,247.86L244.95,272.434L238.479,272.434L228.454,240.468Z" style="fill:rgb(35,61,153);fill-rule:nonzero;"/>
                            <path d="M228.454,240.468L234.197,240.468L241.502,265.785L248.933,240.468L254.288,240.468L261.631,265.807L269.005,240.468L274.749,240.468L264.698,272.434L258.578,272.434L251.75,247.86L244.95,272.434L238.479,272.434L228.454,240.468Z" style="fill:none;stroke:rgb(35,61,153);stroke-width:3.2px;"/>
                        </g>
                    </g>
                </g>
            </g>
        </g>
    </g>
</svg>
