<?xml version="1.0" encoding="UTF-8" standalone="no"?>
<!DOCTYPE svg PUBLIC "-//W3C//DTD SVG 1.1//EN" "http://www.w3.org/Graphics/SVG/1.1/DTD/svg11.dtd">
<svg width="100%" height="100%" viewBox="0 0 277 275" version="1.1" xmlns="http://www.w3.org/2000/svg" xmlns:xlink="http://www.w3.org/1999/xlink" xml:space="preserve" xmlns:serif="http://www.serif.com/" style="fill-rule:evenodd;clip-rule:evenodd;stroke-linejoin:round;stroke-miterlimit:2;">
    <g transform="matrix(1,0,0,1,-2653.37,-505.637)">
        <g transform="matrix(1.466,0,0,1.436,1379.37,383.062)">
            <g transform="matrix(0.163711,0,0,0.167131,963.506,181.111)">
                <g transform="matrix(1,0,0,1,-577.083,-572.917)">
                    <clipPath id="_clip1">
                        <rect x="0" y="0" width="1154.17" height="1145.83"/>
                    </clipPath>
                    <g clip-path="url(#_clip1)">
                        <g transform="matrix(4.16667,0,0,4.16667,0,0)">
                            <path d="M95.896,62.595L99.966,164.695L173.721,70.579C174.841,69.151 176.485,68.23 178.288,68.021C180.097,67.812 181.903,68.335 183.319,69.471L229.33,106.385L214.355,40.775L95.896,62.595Z" style="fill:rgb(99,100,102);fill-rule:nonzero;"/>
                            <path d="M102.545,183.429L167.97,183.429L127.8,151.203L102.545,183.429Z" style="fill:rgb(35,31,32);fill-rule:nonzero;"/>
                            <path d="M180.176,84.367L136.181,140.509L183.06,178.118L227.528,122.356L180.176,84.367Z" style="fill:rgb(76,76,78);fill-rule:nonzero;"/>
                            <path d="M83.564,52.745C83.567,52.742 83.569,52.738 83.572,52.736L122.263,4.219L59.869,34.266L44.459,101.782L83.564,52.745Z" style="fill:rgb(209,211,212);fill-rule:nonzero;"/>
                            <path d="M45.319,122.493L86.758,174.457L82.813,75.477L45.319,122.493Z" style="fill:rgb(147,149,152);fill-rule:nonzero;"/>
                            <path d="M202.308,29.179L142.646,0.448L105.516,47.009L202.308,29.179Z" style="fill:rgb(187,189,192);fill-rule:nonzero;"/>
                            <path d="M37.763,226.069L27.095,226.069L8.94,246.826L8.94,226.069L0,226.069L0,274.032L8.94,274.032L8.94,258.893L13.095,254.161L28.311,274.032L39.095,274.032L18.897,247.442L37.763,226.069Z" style="fill:rgb(99,100,102);fill-rule:nonzero;"/>
                            <path d="M61.154,262.862C61.154,264.127 60.663,265.003 59.56,265.701C58.252,266.53 56.728,266.932 54.901,266.932C53.094,266.932 51.573,266.529 50.253,265.698C49.144,265 48.648,264.125 48.648,262.862L48.648,238.868L40.02,238.868L40.02,262.663C40.02,266.573 41.626,269.672 44.793,271.873C47.778,273.947 51.174,275 54.886,275C58.599,275 62.001,273.936 64.998,271.839C68.173,269.617 69.782,266.529 69.782,262.663L69.782,238.868L61.154,238.868L61.154,262.862Z" style="fill:rgb(99,100,102);fill-rule:nonzero;"/>
                            <path d="M87.437,265.965L84.486,265.965L84.486,247.027C86.647,246.323 89.216,245.968 92.143,245.968C94.313,245.968 95.794,246.745 96.805,248.415C97.944,250.296 98.522,252.547 98.522,255.103C98.522,259.016 97.684,261.835 96.031,263.481C94.377,265.13 91.485,265.965 87.437,265.965ZM103.937,243.788C102.792,241.998 101.184,240.552 99.154,239.488C97.144,238.434 94.807,237.9 92.198,237.9C89.75,237.918 87.164,238.304 84.486,239.053L84.486,222.823L75.857,222.823L75.857,274.032L87.354,274.032C94.047,274.032 99.073,272.41 102.293,269.212C105.516,266.01 107.15,261.327 107.15,255.292C107.15,253.248 106.885,251.227 106.362,249.289C105.833,247.33 105.018,245.479 103.937,243.788Z" style="fill:rgb(99,100,102);fill-rule:nonzero;"/>
                            <path d="M127.248,245.968C129.19,245.968 130.559,246.634 131.555,248.064C132.417,249.303 133.031,250.846 133.391,252.667L119.87,252.667C120.303,250.859 121.072,249.382 122.2,248.184C123.604,246.692 125.255,245.968 127.248,245.968ZM142.208,258.354C142.208,249.023 139.612,237.9 127.248,237.9C122.318,237.9 118.283,239.625 115.253,243.026C112.271,246.373 110.759,250.868 110.759,256.386C110.759,258.886 111.113,261.241 111.812,263.383C112.522,265.558 113.618,267.546 115.068,269.29C116.557,271.081 118.542,272.501 120.969,273.508C123.351,274.498 126.146,275 129.287,275C132.836,274.976 136.344,274.311 139.713,273.02L140.74,272.628L140.74,264.005L138.473,265.051C135.764,266.3 132.439,266.932 128.59,266.932C125.522,266.932 123.34,266.105 121.92,264.402C120.784,263.041 120.034,261.574 119.65,259.953L142.208,259.953L142.208,258.354Z" style="fill:rgb(99,100,102);fill-rule:nonzero;"/>
                            <path d="M153.471,225.695C151.623,227.522 150.686,229.939 150.686,232.88L150.686,238.868L145.723,238.868L145.723,246.935L150.686,246.935L150.686,274.032L159.314,274.032L159.314,246.935L167.774,246.935L167.774,238.868L159.314,238.868L159.314,235.722C159.314,232.955 159.815,232.022 160.031,231.75C160.168,231.577 160.796,231.014 163.147,231.014L169.741,231.014L169.741,222.948L160.276,222.948C157.604,222.948 155.313,223.873 153.471,225.695Z" style="fill:rgb(35,31,32);fill-rule:nonzero;"/>
                            <rect x="173.661" y="222.886" width="8.629" height="51.146" style="fill:rgb(35,31,32);fill-rule:nonzero;"/>
                            <path d="M206.742,266.932C203.648,266.932 201.255,265.964 199.424,263.969C197.558,261.936 196.65,259.477 196.65,256.451C196.65,253.424 197.558,250.964 199.425,248.93C201.255,246.936 203.648,245.968 206.742,245.968C209.798,245.968 212.183,246.938 214.034,248.936C215.919,250.969 216.835,253.427 216.835,256.451C216.835,259.473 215.919,261.93 214.034,263.964C212.183,265.962 209.798,266.932 206.742,266.932ZM206.742,237.9C201.312,237.9 196.782,239.711 193.281,243.281C189.791,246.843 188.021,251.273 188.021,256.451C188.021,261.627 189.785,266.056 193.264,269.617C196.754,273.188 201.288,275 206.742,275C212.125,275 216.642,273.178 220.165,269.588C223.681,266.006 225.464,261.585 225.464,256.451C225.464,251.316 223.681,246.896 220.165,243.311C216.641,239.721 212.124,237.9 206.742,237.9Z" style="fill:rgb(35,31,32);fill-rule:nonzero;"/>
                            <path d="M267.806,238.868L261.634,260.076L255.489,238.868L247.736,238.868L241.515,260.064L235.399,238.868L226.277,238.868L237.305,274.032L246.166,274.032L251.753,253.841L257.363,274.032L265.871,274.032L276.927,238.868L267.806,238.868Z" style="fill:rgb(35,31,32);fill-rule:nonzero;"/>
                        </g>
                    </g>
                </g>
            </g>
        </g>
    </g>
</svg>
