<?xml version="1.0" encoding="UTF-8"?>
<svg width="628px" height="628px" viewBox="0 0 628 628" version="1.1" xmlns="http://www.w3.org/2000/svg" xmlns:xlink="http://www.w3.org/1999/xlink">
    <title>ansible-stacked</title>
    <g id="Page-1" stroke="none" stroke-width="1" fill="none" fill-rule="evenodd">
        <g id="ansible-stacked" transform="translate(0.885000, 0.500000)" fill-rule="nonzero">
            <path d="M627.104,313.552 C627.104,486.727 486.729,627.099 313.552,627.099 C140.389,627.099 0,486.727 0,313.552 C0,140.389 140.389,0 313.552,0 C486.73,0 627.104,140.389 627.104,313.552" id="Path" fill="#FFFFFF"></path>
            <path d="M318.83,191.54 L399.972,391.806 L277.409,295.264 L318.83,191.54 Z M462.976,437.94 L338.166,137.571 C334.604,128.91 327.477,124.325 318.831,124.325 C310.168,124.325 302.526,128.91 298.963,137.571 L161.973,467.037 L208.835,467.037 L263.063,331.197 L424.89,461.938 C431.4,467.199 436.095,469.581 442.202,469.581 C454.427,469.581 465.113,460.413 465.113,447.185 C465.113,445.031 464.351,441.613 462.976,437.94 L462.976,437.94 Z" id="Shape" fill="#1A1918"></path>
        </g>
    </g>
</svg>