<?xml version="1.0" encoding="utf-8"?>
<!-- Generator: Adobe Illustrator 21.0.2, SVG Export Plug-In . SVG Version: 6.00 Build 0)  -->
<svg version="1.1" id="Layer_1" xmlns="http://www.w3.org/2000/svg" xmlns:xlink="http://www.w3.org/1999/xlink" x="0px" y="0px"
	 viewBox="0 0 142 128" style="enable-background:new 0 0 142 128;" xml:space="preserve">
<style type="text/css">
	.st0{fill-rule:evenodd;clip-rule:evenodd;fill:#159ECB;}
	.st1{fill-rule:evenodd;clip-rule:evenodd;fill:#0EB399;}
	.st2{fill-rule:evenodd;clip-rule:evenodd;fill:#3DB664;}
	.st3{fill-rule:evenodd;clip-rule:evenodd;fill:#17BDCB;}
</style>
<polygon class="st0" points="42.9,110.1 46.4,105.8 72,105.8 85.4,122.4 83.1,128 49.9,128 50.7,122.4 "/>
<polygon class="st1" points="52.5,52.5 64.5,31.5 78.4,31.5 141,105.5 136.1,128 109.3,128 111,121.7 "/>
<polygon class="st2" points="66.8,26.2 72.5,15.7 89.3,1.9 118.3,24.8 114.6,28.7 119.6,35.7 119.6,43.3 105.2,55.1 80.9,26.2 "/>
<polygon class="st3" points="21,74.2 28.9,74.2 49.3,56.7 76.3,88.8 68.7,100.6 43.7,100.6 26.5,122.9 22.6,128 0.2,128 0.2,100.6 
	"/>
</svg>
