<?xml version="1.0" encoding="UTF-8" standalone="no"?>
<!DOCTYPE svg PUBLIC "-//W3C//DTD SVG 1.1//EN" "http://www.w3.org/Graphics/SVG/1.1/DTD/svg11.dtd">
<svg width="100%" height="100%" viewBox="0 0 2088 611" version="1.1" xmlns="http://www.w3.org/2000/svg" xmlns:xlink="http://www.w3.org/1999/xlink" xml:space="preserve" xmlns:serif="http://www.serif.com/" style="fill-rule:evenodd;clip-rule:evenodd;stroke-linejoin:round;stroke-miterlimit:2;">
    <g>
        <path d="M402.343,8.228C399.776,3.811 394.231,0.535 388.832,0.625L314.152,0.625C314.152,0.625 314.149,238.493 314.152,299.823C314.152,312.753 327.325,312.753 328.018,312.753C333.56,312.753 335.87,310.442 338.18,308.133L397.973,248.34C402.263,244.051 404.626,238.24 404.626,232.178L404.626,15.355C404.626,12.925 403.716,10.497 402.343,8.228Z" style="fill:white;fill-rule:nonzero;"/>
        <path d="M1212.15,611L1276.2,611L1276.2,213.092C1276.41,209.589 1276.2,206.059 1276.2,202.503C1276.2,105.241 1197.57,26.395 1100.3,26.395C1003.04,26.395 924.194,105.241 924.194,202.503C924.194,299.766 1003.04,378.612 1100.3,378.612L1109.21,378.612L1173.99,314.112L1100.3,314.112C1038.66,314.112 988.693,264.144 988.693,202.503C988.693,140.863 1038.66,90.894 1100.3,90.894C1161.94,90.894 1212.15,140.863 1212.15,202.503L1212.15,611Z" style="fill:white;fill-rule:nonzero;"/>
        <path d="M1617.22,26.396L1617.22,204.69C1617.22,266.94 1566.75,317.662 1504.51,317.662C1442.26,317.662 1391.74,266.94 1391.74,204.69L1391.74,26.396L1329.32,26.396L1329.32,204.826C1329.32,301.637 1407.7,380.24 1504.51,380.24C1601.32,380.24 1679.77,301.881 1679.77,205.07L1679.77,26.396L1617.22,26.396Z" style="fill:white;fill-rule:nonzero;"/>
        <path d="M805.513,315.548L693.825,315.548C631.837,315.548 581.586,265.022 581.586,203.034C581.586,171.969 594.209,144.127 614.603,123.805L614.623,123.825C683.945,53.589 805.949,102.868 805.513,203.034C805.514,234.099 805.513,315.548 805.513,315.548ZM860.583,142.866C790.862,-41.262 520.685,3.45 516.601,203.034C516.714,245.913 531.429,284.359 557.108,315.674C587.24,352.252 631.76,376.536 682.014,379.847C685.875,380.1 689.769,380.237 693.678,380.24L871.075,380.24C871.075,380.24 871.075,203.019 871.075,203.034C871.072,182.593 867.531,162.083 860.583,142.866Z" style="fill:white;fill-rule:nonzero;"/>
        <path d="M2021.81,315.548L1910.12,315.548C1848.13,315.548 1797.88,265.022 1797.88,203.034C1797.88,171.969 1810.5,144.127 1830.9,123.805L1830.92,123.825C1900.24,53.589 2022.24,102.868 2021.81,203.034L2021.81,315.548ZM2076.88,142.866C2007.16,-41.262 1736.98,3.45 1732.9,203.034C1733.01,245.913 1747.72,284.359 1773.4,315.674C1803.54,352.252 1848.05,376.536 1898.31,379.847C1902.17,380.1 1906.06,380.237 1909.97,380.24L2087.37,380.24C2087.37,380.24 2087.37,203.019 2087.37,203.034C2087.37,182.593 2083.82,162.083 2076.88,142.866Z" style="fill:white;fill-rule:nonzero;"/>
        <path d="M7.672,402.522C3.242,399.954 -0.083,394.398 0.001,388.986L0.001,315.058L299.886,315.058C312.846,315.058 312.859,327.017 312.86,327.711C312.865,333.267 310.552,335.584 308.238,337.902L248.297,397.836C244.002,402.14 238.244,404.579 232.168,404.585L14.819,404.585C12.383,404.588 9.948,403.896 7.672,402.522Z" style="fill:white;fill-rule:nonzero;"/>
        <path d="M314.152,0.625L314.152,9.245L314.152,0.625Z" style="fill:white;fill-rule:nonzero;"/>
        <path d="M308.499,0.625L173.099,0.625C167.038,0.625 161.224,3.034 156.939,7.319L97.143,67.115C94.834,69.423 92.526,71.732 92.526,77.273C92.526,77.273 92.526,91.13 105.455,91.13L308.499,91.13L308.499,0.625Z" style="fill:white;fill-rule:nonzero;"/>
        <path d="M90.667,309.404L90.667,105.85C90.667,92.891 76.775,92.891 76.775,92.891C71.22,92.891 68.906,95.205 66.592,97.52L6.652,157.459C2.355,161.756 0,167.583 0,173.659L0,309.404L90.667,309.404Z" style="fill:white;fill-rule:nonzero;"/>
    </g>
</svg>
