<?xml version="1.0" encoding="UTF-8"?>
<svg width="232px" height="64px" viewBox="0 0 232 64" version="1.1" xmlns="http://www.w3.org/2000/svg" xmlns:xlink="http://www.w3.org/1999/xlink">
    <!-- Generator: Sketch 63.1 (92452) - https://sketch.com -->
    <title>logstash-logo-white-horizontal</title>
    <desc>Created with Sketch.</desc>
    <g id="logstash-logo-white-horizontal" stroke="none" stroke-width="1" fill="none" fill-rule="evenodd">
        <rect id="bounding-box" x="0" y="0" width="232" height="64"></rect>
        <g id="group" transform="translate(6.000000, 5.000000)" fill="#FFFFFF">
            <path d="M0,0 L2,0 C13.046,0 22,8.954 22,20 L22,55 L21,55 C9.402,55 0,45.598 0,34 L0,34 L0,0 Z" id="Combined-Shape"></path>
            <polygon id="Fill-7" points="27.0001 55 46.0001 55 46.0001 34 27.0001 34"></polygon>
        </g>
        <path d="M89.1643339,46 L89.1643339,41.16 L77.2690513,41.16 L77.2690513,18 L72,18 L72,46 L89.1643339,46 Z M101.339036,46.6 C106.807672,46.6 111.398134,42.84 111.398134,36.48 C111.398134,30.04 106.807672,26.32 101.339036,26.32 C95.8703992,26.32 91.2799378,30.04 91.2799378,36.48 C91.2799378,42.88 95.8703992,46.6 101.339036,46.6 Z M101.339036,42.2 C98.3851737,42.2 96.3094868,39.92 96.3094868,36.48 C96.3094868,33 98.3851737,30.76 101.339036,30.76 C104.292898,30.76 106.328668,33 106.328668,36.48 C106.328668,39.92 104.292898,42.2 101.339036,42.2 Z M123.572836,54 C129.560394,54 132.953344,50.4 132.953344,44 L132.953344,26.92 L128.083463,26.92 L128.083463,28.92 L127.923795,28.92 C126.885951,27.56 125.448937,26.32 122.495075,26.32 C118.104199,26.32 113.952825,29.8 113.952825,35.84 C113.952825,41.84 118.024365,45.36 122.534992,45.36 C125.129601,45.36 127.045619,44.32 127.963712,42.64 L127.963712,45.16 C127.963712,48.32 126.287195,50 123.692587,50 C121.656817,50 119.940384,48.96 119.58113,47.56 L114.511664,48.68 C115.469673,51.88 118.982374,54 123.572836,54 Z M123.532919,41 C121.097978,41 118.982374,39.16 118.982374,35.84 C118.982374,32.48 121.097978,30.68 123.532919,30.68 C126.247278,30.68 128.163297,32.64 128.163297,35.84 C128.163297,39 126.247278,41 123.532919,41 Z M144.52929,46.6 C149.199585,46.6 152.353033,44.08 152.353033,40.2 C152.353033,32.52 142.174184,35.8 142.174184,32.04 C142.174184,30.96 143.052359,30.12 144.609124,30.12 C146.125972,30.12 147.323484,30.96 147.562986,32.2 L152.233281,31.2 C151.43494,28.28 148.401244,26.32 144.489373,26.32 C140.138414,26.32 137.184552,28.76 137.184552,32.4 C137.184552,40.12 147.363401,36.84 147.363401,40.56 C147.363401,41.96 146.365474,42.88 144.649041,42.88 C142.892691,42.88 141.415759,41.92 141.016589,40.44 L136.38621,41.32 C137.424054,44.68 140.417833,46.6 144.52929,46.6 Z M163.889062,46.4 C165.326076,46.4 166.48367,46.16 167.16226,45.88 L166.643339,41.88 C166.204251,42.08 165.645412,42.24 164.886988,42.24 C163.010886,42.24 162.052877,41.44 162.052877,38.88 L162.052877,31.2 L166.962675,31.2 L166.962675,26.92 L162.052877,26.92 L162.052877,20.88 L157.023328,21.88 L157.023328,26.92 L153.75013,26.92 L153.75013,31.2 L157.023328,31.2 L157.023328,39.68 C157.023328,44.72 159.897356,46.4 163.889062,46.4 Z M175.904095,46.56 C178.179368,46.56 180.45464,45.56 181.372732,44.12 L181.5324,44.12 L181.5324,46 L186.28253,46 L186.28253,33.92 C186.28253,29.04 183.448419,26.32 178.378953,26.32 C174.027994,26.32 170.914463,28.32 169.796786,31.8 L174.826335,32.2 C175.265422,31.16 176.343183,30.32 178.059616,30.32 C180.095386,30.32 181.292898,31.52 181.292898,33.6 L181.292898,35 C180.654225,34.64 179.017626,34.28 177.381026,34.28 C172.31156,34.28 169.237947,36.64 169.237947,40.6 C169.237947,44.08 171.992224,46.56 175.904095,46.56 Z M177.341109,42.64 C175.425091,42.64 174.307413,41.68 174.307413,40.2 C174.307413,38.72 175.624676,37.76 177.939865,37.76 C179.416796,37.76 180.813893,38.12 181.372732,38.6 L181.372732,39.84 C181.372732,41.32 179.49663,42.64 177.341109,42.64 Z M197.579057,46.6 C202.249352,46.6 205.402799,44.08 205.402799,40.2 C205.402799,32.52 195.22395,35.8 195.22395,32.04 C195.22395,30.96 196.102125,30.12 197.658891,30.12 C199.175739,30.12 200.37325,30.96 200.612753,32.2 L205.283048,31.2 C204.484707,28.28 201.451011,26.32 197.539139,26.32 C193.18818,26.32 190.234318,28.76 190.234318,32.4 C190.234318,40.12 200.413167,36.84 200.413167,40.56 C200.413167,41.96 199.415241,42.88 197.698808,42.88 C195.942457,42.88 194.465526,41.92 194.066356,40.44 L189.435977,41.32 C190.473821,44.68 193.4676,46.6 197.579057,46.6 Z M213.785381,46 L213.785381,35.04 C213.785381,32.48 215.581649,30.76 217.777087,30.76 C219.812856,30.76 220.970451,32.08 220.970451,34.72 L220.970451,46 L226,46 L226,33.8 C226,29.12 223.445308,26.32 219.333852,26.32 C216.938828,26.32 214.783307,27.6 213.785381,29.04 L213.785381,18 L208.755832,18 L208.755832,46 L213.785381,46 Z" id="Logstash" fill="#FFFFFF" fill-rule="nonzero"></path>
    </g>
</svg>