<?xml version="1.0" encoding="UTF-8" standalone="no"?>
<!DOCTYPE svg PUBLIC "-//W3C//DTD SVG 1.1//EN" "http://www.w3.org/Graphics/SVG/1.1/DTD/svg11.dtd">
<svg width="100%" height="100%" viewBox="0 0 93 187" version="1.1" xmlns="http://www.w3.org/2000/svg" xmlns:xlink="http://www.w3.org/1999/xlink" xml:space="preserve" xmlns:serif="http://www.serif.com/" style="fill-rule:evenodd;clip-rule:evenodd;stroke-linejoin:round;stroke-miterlimit:2;">
    <g transform="matrix(1,0,0,1,-102.2,-81.2723)">
        <path d="M194,126.8C189.3,119 184.6,111.2 179.8,103.5C177.3,99.5 174.8,95.5 172.3,91.5C172,91 171.6,90.6 171.3,90.1C166.8,83.2 157.9,78.6 149.1,83C141.4,86.7 138.1,96 141.8,103.8C141.8,103.9 141.9,103.9 141.9,104C143.4,106.9 145.9,109.4 148.2,111.9C155.3,119.5 162.7,126.8 169.7,134.4C178.1,143.4 177.6,157.5 168.6,165.8C166.7,167.6 164.4,169.1 161.9,170.1L161.4,170.1L161.4,134.9C148.9,141.4 137.6,150.1 128.2,160.6C113.5,177 104.8,197.5 102.2,212.4L126.1,200.2C134.1,196.2 142,192.2 150.3,188L150.3,256.3L161.3,267.5L161.3,182C161.3,182 161.5,181.9 162.4,181.4C165.7,179.8 169,178 172.1,176C186.9,165.6 190.5,145.3 180.1,130.5C179.1,129.1 178.1,127.8 176.9,126.6C168.7,118 160.4,109.5 152.3,100.9C149.9,98.4 150,95.2 152.3,93C154.6,90.8 157.8,91 160.2,93.5L163.6,97C166.3,99.9 169,102.8 171.8,105.7C178.7,113 185.7,120.2 192.6,127.4C192.9,127.8 193.4,128.1 193.8,128.4L194.2,128.1C194.4,127.7 194.2,127.2 194,126.8ZM150.6,175.1C150.5,175.7 150.1,176.2 149.6,176.4C145.2,178.7 140.8,181 136.4,183.3L120.3,191.6C127.3,176.9 137.7,164.1 150.5,154.2C150.6,154.4 150.7,154.5 150.7,154.6C150.7,161.4 150.7,168.3 150.6,175.1Z" style="fill:rgb(199,44,72);fill-rule:nonzero;"/>
    </g>
</svg>
