<?xml version="1.0" encoding="UTF-8" standalone="no"?>
<!DOCTYPE svg PUBLIC "-//W3C//DTD SVG 1.1//EN" "http://www.w3.org/Graphics/SVG/1.1/DTD/svg11.dtd">
<svg width="100%" height="100%" viewBox="0 0 535 81" version="1.1" xmlns="http://www.w3.org/2000/svg" xmlns:xlink="http://www.w3.org/1999/xlink" xml:space="preserve" xmlns:serif="http://www.serif.com/" style="fill-rule:evenodd;clip-rule:evenodd;stroke-linejoin:round;stroke-miterlimit:2;">
    <g transform="matrix(1,0,0,1,-32.8265,-106)">
        <g transform="matrix(3.28606,0,0,3.28606,32.8265,106)">
            <g id="g920">
                <g id="g1133">
                    <rect id="rect1112" x="52.75" y="0.41" width="9.11" height="23.63" style="fill:rgb(199,44,72);"/>
                    <path id="path1114" d="M41.71,0.74L23.22,10.66C22.954,10.8 22.636,10.8 22.37,10.66L3.88,0.74C3.474,0.522 3.021,0.409 2.56,0.41C1.248,0.325 0.095,1.328 0,2.64L0,24L9.1,24L9.1,13.84C9.162,13.349 9.606,12.989 10.1,13.03C10.231,13.048 10.356,13.093 10.47,13.16L20.83,18.73C21.874,19.269 23.116,19.269 24.16,18.73L35.1,13.09C35.536,12.843 36.099,12.996 36.35,13.43C36.411,13.538 36.452,13.657 36.47,13.78L36.47,24L45.57,24L45.57,2.64C45.475,1.348 44.354,0.353 43.06,0.41C42.589,0.404 42.125,0.517 41.71,0.74Z" style="fill:rgb(199,44,72);fill-rule:nonzero;"/>
                    <path id="path1116" d="M107.28,0.41L98,0.41L98,11.17C97.948,11.669 97.5,12.041 97,12C96.886,11.982 96.775,11.948 96.67,11.9L72.76,0.68C72.389,0.501 71.982,0.409 71.57,0.41C70.254,0.319 69.095,1.324 69,2.64L69,24L78.16,24L78.16,13.27C78.217,12.777 78.667,12.418 79.16,12.47C79.276,12.477 79.389,12.511 79.49,12.57L103.49,23.77C103.863,23.941 104.269,24.03 104.68,24.03C105.985,24.104 107.124,23.104 107.22,21.8L107.28,0.41Z" style="fill:rgb(199,44,72);fill-rule:nonzero;"/>
                    <rect id="path1118" x="114.44" y="0.41" width="4.19" height="23.59" style="fill:rgb(199,44,72);fill-rule:nonzero;"/>
                    <path id="path1120" d="M143.29,24.47C132,24.47 124,19.76 124,12.23C124,4.7 132.07,0 143.29,0C154.51,0 162.61,4.7 162.61,12.23C162.61,19.76 154.71,24.47 143.29,24.47ZM143.29,3.13C134.91,3.13 128.45,6.35 128.45,12.23C128.45,18.11 134.91,21.33 143.29,21.33C151.67,21.33 158.18,18.16 158.18,12.23C158.18,6.3 151.68,3.13 143.29,3.13Z" style="fill:rgb(199,44,72);fill-rule:nonzero;"/>
                </g>
            </g>
        </g>
    </g>
</svg>
