<?xml version="1.0" encoding="UTF-8" standalone="no"?>
<!DOCTYPE svg PUBLIC "-//W3C//DTD SVG 1.1//EN" "http://www.w3.org/Graphics/SVG/1.1/DTD/svg11.dtd">
<svg width="100%" height="100%" viewBox="0 0 682 754" version="1.1" xmlns="http://www.w3.org/2000/svg" xmlns:xlink="http://www.w3.org/1999/xlink" xml:space="preserve" xmlns:serif="http://www.serif.com/" style="fill-rule:evenodd;clip-rule:evenodd;stroke-linejoin:round;stroke-miterlimit:2;">
    <g id="kapitan-stacked" transform="matrix(1,0,0,1,755.712,-718.564)">
        <rect x="-755.712" y="718.564" width="681.782" height="753.728" style="fill:none;"/>
        <clipPath id="_clip1">
            <rect x="-755.712" y="718.564" width="681.782" height="753.728"/>
        </clipPath>
        <g clip-path="url(#_clip1)">
            <g transform="matrix(1.65655,0,0,1.84871,-416.071,654.833)">
                <g transform="matrix(0.787898,0,0,0.706004,0.928481,175.979)">
                    <g transform="matrix(1,0,0,1,-200,-200)">
                        <clipPath id="_clip2">
                            <rect x="0" y="0" width="400" height="400"/>
                        </clipPath>
                        <g clip-path="url(#_clip2)">
                            <g id="svgg">
                                <circle cx="199.689" cy="200" r="199.776" style="fill:url(#_Linear3);"/>
                                <g id="wrinkles-colour">
                                    <g transform="matrix(0.80662,0,0,0.691045,-45.3803,66.6355)">
                                        <rect x="240.299" y="215.027" width="13.488" height="10.006" style="fill:rgb(198,184,154);"/>
                                    </g>
                                    <g transform="matrix(0.80662,0,0,0.691045,46.4691,66.4335)">
                                        <rect x="240.299" y="215.027" width="13.488" height="10.006" style="fill:rgb(198,184,154);"/>
                                    </g>
                                </g>
                                <g id="eye-colour">
                                    <g transform="matrix(0.83826,0,0,1.01512,87.9933,-4.77034)">
                                        <ellipse cx="170.85" cy="215.183" rx="11.544" ry="8.152" style="fill:rgb(34,76,112);"/>
                                    </g>
                                    <g transform="matrix(0.83826,0,0,1.01512,25.7661,-4.99127)">
                                        <ellipse cx="170.85" cy="215.183" rx="11.544" ry="8.152" style="fill:rgb(34,76,112);"/>
                                    </g>
                                </g>
                                <g id="nose-colour" transform="matrix(1,0,0,0.933933,0,16.7625)">
                                    <rect x="190.234" y="217.546" width="17.188" height="36.173" style="fill:rgb(237,193,187);"/>
                                </g>
                                <path id="face" d="M116.751,183.049C116.751,183.049 116.432,201.635 111.75,210.463C108.687,216.236 107.746,230.81 109.186,237.542C111.342,247.624 131.898,261.351 142.76,278.897C145.95,284.05 151.167,295.291 155.87,296.074C167.616,298.03 196.62,299.666 203.876,302.465C206.675,303.545 242.55,293.331 245.366,292.25C252.636,289.46 252.192,273.279 268.863,283.969C272.877,286.542 277.044,273.75 280.234,268.597C291.096,251.051 291.226,245.987 291.296,235.677C291.375,224.155 285.191,206.288 284.726,200C283.905,188.895 280.305,169.236 277.978,177.045C277.978,177.045 229.569,192.819 183.03,191.112C147.383,189.804 132.844,188.411 122.764,178.535L118.319,177.086L116.751,183.049ZM173.433,207.92C176.964,209.788 177.695,214.848 174.876,217.923C171.24,221.89 163.167,220.678 161.354,215.893C159.463,210.902 162.694,207.031 168.75,207.031C171.12,207.031 172.106,207.218 173.433,207.92M235.933,207.92C239.464,209.788 240.195,214.848 237.376,217.923C233.74,221.89 225.667,220.678 223.854,215.893C221.963,210.902 225.194,207.031 231.25,207.031C233.62,207.031 234.606,207.218 235.933,207.92M158.203,216.992C158.203,217.314 157.983,217.584 157.715,217.591C157.446,217.597 155.381,217.851 153.125,218.153C150.614,218.49 148.882,218.564 148.659,218.343C148.039,217.729 148.659,217.507 152.42,216.995C157.523,216.3 158.203,216.3 158.203,216.992M246.129,216.814C250.682,217.38 251.172,217.512 251.172,218.172C251.172,218.858 251.563,218.859 246.484,218.164C244.229,217.855 242.163,217.597 241.895,217.591C241.108,217.571 241.335,216.406 242.125,216.406C242.521,216.406 244.323,216.59 246.129,216.814M159.281,219.228C159.079,219.834 151.671,222 150.863,221.69C149.88,221.313 150.752,220.829 154.297,219.783C158.044,218.678 159.519,218.514 159.281,219.228M245.134,219.758C248.842,220.826 249.743,221.308 248.747,221.69C247.939,222 240.53,219.834 240.329,219.228C240.09,218.513 241.259,218.642 245.134,219.758M205.109,220.588C207.321,221.895 207.422,222.566 207.422,235.918C207.422,251.773 207.526,251.571 199.355,251.553C192.222,251.537 190.234,250.561 190.234,247.07C190.234,244.17 192.366,242.617 196.387,242.587L197.656,242.578L197.656,233.184C197.656,223.006 197.767,222.376 199.85,220.738C201.13,219.731 203.541,219.662 205.109,220.588" style="fill:rgb(238,228,208);"/>
                                <path id="beard" d="M116.794,155.922C116.793,157.929 116.437,161.943 116.002,164.844C108.882,212.412 105.409,241.935 104.848,259.68L104.617,266.992L105.97,271.484C119.86,317.61 174.815,361.895 208.753,354.311C244.112,346.41 282.776,308.857 294.03,271.484L295.383,266.992L295.152,259.68C294.643,243.576 291.676,217.281 285.953,178.142C284.261,166.576 283.984,163.842 283.984,158.708C283.984,155.423 283.878,152.734 283.749,152.734C283.619,152.734 282.625,153.533 281.539,154.51C271.95,163.131 252.015,166.524 207.813,167.058C156.263,167.681 129.526,163.938 119.43,154.687L116.797,152.275L116.794,155.922M127.332,185.147C140.277,193.931 161.165,197.461 200.195,197.461C243.3,197.461 265.923,192.919 277.061,182.03C280.394,178.771 280.243,178.324 280.229,191.406C280.212,207.297 277.169,229.975 273.583,240.935C271.595,247.012 259.833,268.982 255.269,275.145C254.754,275.841 254.56,275.772 251.289,273.738C236.721,264.676 225.333,260.109 214.6,259.024C211.173,258.678 210.502,258.718 208.594,259.383C205.393,260.497 194.27,260.499 191.339,259.385C189.521,258.694 188.922,258.654 185.573,259C174.56,260.138 163.404,264.598 148.711,273.738C145.44,275.772 145.246,275.841 144.731,275.145C140.167,268.982 128.405,247.012 126.417,240.935C121.953,227.291 118.21,191.662 120.055,180.381L120.357,178.535L122.764,181.108C124.088,182.523 126.143,184.34 127.332,185.147M117.152,213.458C118.788,214.304 119.285,215.832 118.69,218.19C118.385,219.396 118.196,223.072 118.184,228.013C118.161,236.973 118.131,237.069 115.177,237.369C110.438,237.852 109.178,235.717 109.186,227.217C109.196,214.976 111.706,210.642 117.152,213.458M285.746,213.453C288.471,214.592 289.538,218.558 289.531,227.52C289.525,234.806 288.628,236.785 285.071,237.363C280.793,238.057 280.106,236.964 280.371,229.883C280.508,226.248 280.398,222.506 280.074,219.69C279.371,213.588 281.216,211.56 285.746,213.453M199.414,279.804C202.937,279.826 207.027,279.619 208.789,279.329C213.849,278.498 215.156,278.784 216.04,280.919C217.299,283.957 215.418,287.062 211.856,287.824C200.389,290.277 185.698,288.848 183.754,285.089C181.597,280.916 184.423,278.284 190.039,279.235C191.758,279.526 195.977,279.782 199.414,279.804" style="fill:rgb(91,91,92);"/>
                                <g id="anchor-colour" transform="matrix(0.63485,0,0,0.83019,70.4361,14.2791)">
                                    <rect x="176.354" y="84.089" width="54.851" height="49.226" style="fill:rgb(243,222,127);"/>
                                </g>
                                <g id="hat-band-colour" transform="matrix(1.01013,0,0,0.786181,-3.38587,34.1338)">
                                    <rect x="118.932" y="145.989" width="165.266" height="26.297" style="fill:rgb(243,222,127);"/>
                                </g>
                                <path id="hat-board" d="M116.794,155.922C116.793,157.929 116.437,161.943 116.002,164.844C114.148,177.228 124.866,186.303 142.278,191.763C169.127,200.183 234.785,198.726 256.978,192.023C271.162,187.739 285,181.231 284.162,164.859C284.09,163.439 283.984,163.842 283.984,158.708C283.984,155.423 283.878,152.734 283.749,152.734C283.619,152.734 282.625,153.533 281.539,154.51C271.95,163.131 252.015,166.524 207.813,167.058C156.263,167.681 129.526,163.938 119.43,154.687L116.797,152.275L116.794,155.922M120.357,178.535L122.764,181.108" style="fill:rgb(70,70,70);"/>
                                <path id="hat" d="M191.992,44.762C191.133,44.847 188.408,45.108 185.938,45.341C131.663,50.458 91.694,89.968 100.322,129.974C102.869,141.785 105.089,145.162 113.672,150.285C124.346,156.656 127.519,156.95 189.258,157.289C268.484,157.724 275.331,157.238 287.587,150.319C295.353,145.935 296.669,144.362 298.975,136.719C311.93,93.773 274.636,52.558 216.406,45.469C211.777,44.906 195.343,44.43 191.992,44.762ZM201.746,84.591C204.719,86.002 205.148,90.116 202.569,92.48L201.183,93.75L205.787,93.75C210.663,93.75 211.328,93.969 211.328,95.572C211.328,96.914 210.193,97.266 205.862,97.266L201.906,97.266L202.139,105.957C202.489,119.06 202.565,119.657 203.843,119.343C207.871,118.352 213.37,111.568 211.982,109.302C211.34,108.253 215.338,104.735 216.615,105.225C217.634,105.616 217.265,111.482 216.211,111.641C215.678,111.721 215.037,112.591 214.194,114.375C212.232,118.532 206.842,123.045 203.839,123.047C203.479,123.047 202.663,123.486 202.024,124.023C200.577,125.241 199.212,125.265 197.784,124.098C197.177,123.601 195.889,122.971 194.922,122.697C190.804,121.529 187.579,118.575 185.417,113.991C184.573,112.201 183.931,111.331 183.398,111.25C182.348,111.092 181.978,105.332 182.993,104.943C184.238,104.465 187.691,107.857 187.726,109.594C187.787,112.637 191.087,117.182 194.349,118.715C197.219,120.064 197.118,120.242 197.407,113.379C197.55,109.995 197.779,104.985 197.915,102.246L198.164,97.266L193.836,97.266C188.645,97.266 187.529,96.667 188.686,94.506C189.051,93.823 189.543,93.75 193.792,93.75L198.493,93.75L197.125,92.46C193.068,88.633 196.816,82.251 201.746,84.591ZM198.437,87.306C197.715,88.175 197.846,89.902 198.679,90.512C199.72,91.273 200.858,90.985 201.526,89.791C202.641,87.799 199.874,85.574 198.437,87.306Z" style="fill:white;"/>
                            </g>
                        </g>
                    </g>
                </g>
                <g transform="matrix(0.457587,0,0,0.275254,-237.728,18.7049)">
                    <g transform="matrix(277.039,0,0,412.684,48.9774,1455.77)">
                        <path d="M0.263,-0.331L0.176,-0.24L0.176,0L0.083,0L0.083,-0.711L0.176,-0.711L0.176,-0.359L0.492,-0.711L0.605,-0.711L0.326,-0.397L0.627,0L0.515,0L0.263,-0.331Z" style="fill:rgb(51,51,51);fill-rule:nonzero;"/>
                    </g>
                    <g transform="matrix(277.039,0,0,412.684,222.668,1455.77)">
                        <path d="M0.395,0C0.389,-0.01 0.385,-0.029 0.382,-0.056C0.34,-0.012 0.29,0.01 0.231,0.01C0.179,0.01 0.137,-0.005 0.103,-0.034C0.07,-0.064 0.053,-0.101 0.053,-0.146C0.053,-0.201 0.074,-0.244 0.116,-0.275C0.158,-0.305 0.217,-0.32 0.292,-0.32L0.38,-0.32L0.38,-0.362C0.38,-0.393 0.371,-0.419 0.352,-0.437C0.333,-0.456 0.305,-0.465 0.269,-0.465C0.236,-0.465 0.209,-0.457 0.188,-0.441C0.166,-0.425 0.155,-0.405 0.155,-0.382L0.064,-0.382C0.064,-0.408 0.073,-0.434 0.092,-0.458C0.111,-0.483 0.136,-0.502 0.168,-0.517C0.2,-0.531 0.236,-0.538 0.274,-0.538C0.335,-0.538 0.382,-0.523 0.417,-0.492C0.451,-0.462 0.469,-0.42 0.471,-0.367L0.471,-0.124C0.471,-0.075 0.477,-0.036 0.489,-0.008L0.489,0L0.395,0ZM0.245,-0.069C0.273,-0.069 0.3,-0.076 0.325,-0.091C0.351,-0.105 0.369,-0.125 0.38,-0.148L0.38,-0.256L0.31,-0.256C0.199,-0.256 0.144,-0.224 0.144,-0.159C0.144,-0.131 0.153,-0.109 0.172,-0.093C0.191,-0.077 0.215,-0.069 0.245,-0.069Z" style="fill:rgb(51,51,51);fill-rule:nonzero;"/>
                    </g>
                    <g transform="matrix(277.039,0,0,412.684,373.362,1455.77)">
                        <path d="M0.515,-0.258C0.515,-0.178 0.496,-0.113 0.459,-0.064C0.423,-0.015 0.373,0.01 0.31,0.01C0.246,0.01 0.195,-0.011 0.159,-0.051L0.159,0.203L0.068,0.203L0.068,-0.528L0.151,-0.528L0.155,-0.47C0.192,-0.515 0.243,-0.538 0.309,-0.538C0.372,-0.538 0.422,-0.514 0.459,-0.466C0.496,-0.418 0.515,-0.352 0.515,-0.267L0.515,-0.258ZM0.424,-0.269C0.424,-0.328 0.412,-0.375 0.386,-0.41C0.361,-0.444 0.326,-0.461 0.282,-0.461C0.227,-0.461 0.186,-0.437 0.159,-0.389L0.159,-0.136C0.186,-0.088 0.227,-0.064 0.283,-0.064C0.326,-0.064 0.36,-0.081 0.386,-0.115C0.412,-0.15 0.424,-0.201 0.424,-0.269Z" style="fill:rgb(51,51,51);fill-rule:nonzero;"/>
                    </g>
                    <g transform="matrix(277.039,0,0,412.684,528.79,1455.77)">
                        <path d="M0.167,0L0.076,0L0.076,-0.528L0.167,-0.528L0.167,0ZM0.069,-0.668C0.069,-0.683 0.073,-0.695 0.082,-0.706C0.091,-0.716 0.104,-0.721 0.122,-0.721C0.14,-0.721 0.153,-0.716 0.162,-0.706C0.171,-0.695 0.176,-0.683 0.176,-0.668C0.176,-0.654 0.171,-0.642 0.162,-0.632C0.153,-0.622 0.14,-0.617 0.122,-0.617C0.104,-0.617 0.091,-0.622 0.082,-0.632C0.073,-0.642 0.069,-0.654 0.069,-0.668Z" style="fill:rgb(51,51,51);fill-rule:nonzero;"/>
                    </g>
                    <g transform="matrix(277.039,0,0,412.684,596.021,1455.77)">
                        <path d="M0.191,-0.656L0.191,-0.528L0.29,-0.528L0.29,-0.458L0.191,-0.458L0.191,-0.131C0.191,-0.11 0.195,-0.094 0.204,-0.083C0.213,-0.073 0.228,-0.067 0.249,-0.067C0.259,-0.067 0.274,-0.069 0.292,-0.073L0.292,0C0.268,0.007 0.245,0.01 0.223,0.01C0.182,0.01 0.152,-0.002 0.131,-0.027C0.111,-0.051 0.101,-0.086 0.101,-0.131L0.101,-0.458L0.004,-0.458L0.004,-0.528L0.101,-0.528L0.101,-0.656L0.191,-0.656Z" style="fill:rgb(51,51,51);fill-rule:nonzero;"/>
                    </g>
                    <g transform="matrix(277.039,0,0,412.684,686.519,1455.77)">
                        <path d="M0.395,0C0.389,-0.01 0.385,-0.029 0.382,-0.056C0.34,-0.012 0.29,0.01 0.231,0.01C0.179,0.01 0.137,-0.005 0.103,-0.034C0.07,-0.064 0.053,-0.101 0.053,-0.146C0.053,-0.201 0.074,-0.244 0.116,-0.275C0.158,-0.305 0.217,-0.32 0.292,-0.32L0.38,-0.32L0.38,-0.362C0.38,-0.393 0.371,-0.419 0.352,-0.437C0.333,-0.456 0.305,-0.465 0.269,-0.465C0.236,-0.465 0.209,-0.457 0.188,-0.441C0.166,-0.425 0.155,-0.405 0.155,-0.382L0.064,-0.382C0.064,-0.408 0.073,-0.434 0.092,-0.458C0.111,-0.483 0.136,-0.502 0.168,-0.517C0.2,-0.531 0.236,-0.538 0.274,-0.538C0.335,-0.538 0.382,-0.523 0.417,-0.492C0.451,-0.462 0.469,-0.42 0.471,-0.367L0.471,-0.124C0.471,-0.075 0.477,-0.036 0.489,-0.008L0.489,0L0.395,0ZM0.245,-0.069C0.273,-0.069 0.3,-0.076 0.325,-0.091C0.351,-0.105 0.369,-0.125 0.38,-0.148L0.38,-0.256L0.31,-0.256C0.199,-0.256 0.144,-0.224 0.144,-0.159C0.144,-0.131 0.153,-0.109 0.172,-0.093C0.191,-0.077 0.215,-0.069 0.245,-0.069Z" style="fill:rgb(51,51,51);fill-rule:nonzero;"/>
                    </g>
                    <g transform="matrix(277.039,0,0,412.684,837.213,1455.77)">
                        <path d="M0.154,-0.528L0.157,-0.462C0.197,-0.513 0.25,-0.538 0.315,-0.538C0.427,-0.538 0.483,-0.475 0.484,-0.349L0.484,0L0.394,0L0.394,-0.35C0.393,-0.388 0.385,-0.416 0.367,-0.434C0.35,-0.452 0.324,-0.461 0.288,-0.461C0.258,-0.461 0.233,-0.454 0.21,-0.438C0.188,-0.422 0.171,-0.402 0.159,-0.376L0.159,0L0.068,0L0.068,-0.528L0.154,-0.528Z" style="fill:rgb(51,51,51);fill-rule:nonzero;"/>
                    </g>
                </g>
            </g>
        </g>
    </g>
    <defs>
        <linearGradient id="_Linear3" x1="0" y1="0" x2="1" y2="0" gradientUnits="userSpaceOnUse" gradientTransform="matrix(2.44655e-14,399.552,-399.552,2.44655e-14,199.924,0.224)"><stop offset="0" style="stop-color:rgb(168,255,224);stop-opacity:1"/><stop offset="1" style="stop-color:rgb(91,203,255);stop-opacity:1"/></linearGradient>
    </defs>
</svg>
