<?xml version="1.0" encoding="UTF-8"?>
<svg width="502px" height="63px" viewBox="0 0 502 63" version="1.1" xmlns="http://www.w3.org/2000/svg" xmlns:xlink="http://www.w3.org/1999/xlink">
    <!-- Generator: Sketch 54.1 (76490) - https://sketchapp.com -->
    <title>gravitational-logo-inverse</title>
    <desc>Created with Sketch.</desc>
    <defs>
        <path d="M106.624131,49.3599045 C104.685061,50.2678692 102.557811,50.9744432 100.242381,51.4807641 C97.9257824,51.9870852 95.2597067,52.2408148 92.2429857,52.2408148 C89.1537977,52.2408148 86.3346069,51.7606633 83.7854134,50.8026352 C81.2385573,49.8411941 79.0493598,48.4951763 77.2166521,46.7657198 C75.3862821,45.0339882 73.9591542,42.9700183 72.9341002,40.5760866 C71.9113837,38.1821549 71.40061,35.5356313 71.40061,32.6342408 C71.40061,29.664582 71.9300848,26.9816491 72.9902035,24.5877174 C74.0491534,22.1915099 75.5031636,20.1548476 77.352235,18.4800056 C79.2001374,16.8028879 81.3799845,15.5080714 83.8929447,14.5978312 C86.4082426,13.687591 89.1386032,13.2324709 92.0840264,13.2324709 C95.1346435,13.2324709 97.9257824,13.6625592 100.457444,14.5204608 C102.987936,15.3760866 105.025187,16.5036467 106.568028,17.9020031 L101.883403,22.8309538 C100.913283,21.7819018 99.5574535,20.8898664 97.8159135,20.1548476 C96.0767113,19.4209665 94.1832247,19.053457 92.1354544,19.053457 C90.1250862,19.053457 88.3028977,19.4038995 86.670058,20.1047844 C85.0360495,20.8033939 83.6451551,21.763697 82.4950375,22.9856946 C81.3449198,24.20883 80.4542801,25.6424583 79.8254555,27.2865796 C79.1989686,28.9284254 78.8857252,30.7113582 78.8857252,32.6342408 C78.8857252,34.6276669 79.1989686,36.4549738 79.8254555,38.1138867 C80.4542801,39.7739375 81.3519329,41.2155301 82.5184138,42.4375277 C83.6872326,43.6606631 85.1061784,44.6130019 86.7775893,45.2956821 C88.4478312,45.9783622 90.3413176,46.3197023 92.4580485,46.3197023 C95.3660694,46.3197023 97.8977307,45.8827869 100.05537,45.0089563 L100.05537,35.5697655 L92.0279231,35.5697655 L92.0279231,30.1174266 L106.624131,30.1174266 L106.624131,49.3599045 Z M114.905272,14.1791212 L128.150326,14.1791212 C129.945631,14.1791212 131.686002,14.3634447 133.372608,14.7298165 C135.061551,15.0973261 136.561145,15.7014978 137.870222,16.5411945 C139.181637,17.3786155 140.232405,18.4788684 141.021358,19.8408152 C141.812648,21.2039001 142.208878,22.8628127 142.208878,24.8198291 C142.208878,27.5118647 141.428107,29.7055436 139.866565,31.4008658 C138.305023,33.0973261 136.177773,34.2430907 133.484815,34.8370225 L143.662888,51.2987166 L135.476482,51.2987166 L126.644887,35.5697659 L121.689096,35.5697659 L121.689096,51.2987166 L114.905272,51.2987166 L114.905272,14.1791212 Z M127.238647,30.1674903 C128.207598,30.1674903 129.176549,30.0980846 130.146668,29.9581351 C131.115619,29.8193233 131.98522,29.5576294 132.755472,29.1753285 C133.528061,28.7907519 134.165067,28.2400569 134.667659,27.5232425 C135.172589,26.8075663 135.425054,25.8893614 135.425054,24.7697659 C135.425054,23.7571236 135.19129,22.9265295 134.723762,22.280259 C134.256235,21.6339884 133.662475,21.118565 132.942483,20.7328506 C132.224828,20.3482743 131.408992,20.0854424 130.492639,19.9454929 C129.578622,19.8066811 128.69032,19.7361376 127.827732,19.7361376 L121.689096,19.7361376 L121.689096,30.1674903 L127.238647,30.1674903 Z M166.480975,13.3107716 L172.342314,13.3107716 L188.73633,51.558938 L180.994322,51.558938 L177.447652,42.8081927 L160.941636,42.8081927 L157.5023,51.558938 L149.923626,51.558938 L166.480975,13.3107716 Z M175.08165,36.9743625 L169.224978,21.4143556 L163.256305,36.9743625 L175.08165,36.9743625 Z M183.87787,13.3107716 L191.355182,13.3107716 L201.700945,42.7519178 L201.912741,42.7519178 L212.359798,13.3107716 L219.574668,13.3107716 L204.509542,51.558938 L198.726596,51.558938 L183.87787,13.3107716 Z M226.027761,13.3107716 L232.873116,13.3107716 L232.873116,51.558938 L226.027761,51.558938 L226.027761,13.3107716 Z M249.138118,19.252462 L237.343915,19.252462 L237.343915,13.3107716 L267.777676,13.3107716 L267.777676,19.252462 L255.983473,19.252462 L255.983473,51.558938 L249.138118,51.558938 L249.138118,19.252462 Z M279.288961,13.3107716 L285.1503,13.3107716 L301.544316,51.558938 L293.802308,51.558938 L290.255638,42.8081927 L273.749623,42.8081927 L270.310286,51.558938 L262.731612,51.558938 L279.288961,13.3107716 Z M287.889636,36.9743625 L282.032964,21.4143556 L276.064291,36.9743625 L287.889636,36.9743625 Z M308.384818,19.9454929 L297.007375,19.9454929 L297.007375,14.1791212 L326.36573,14.1791212 L326.36573,19.9454929 L314.988286,19.9454929 L314.988286,51.2987166 L308.384818,51.2987166 L308.384818,19.9454929 Z M333.320806,14.1791212 L339.924274,14.1791212 L339.924274,51.2987166 L333.320806,51.2987166 L333.320806,14.1791212 Z M346.335094,32.6342408 C346.335094,29.664582 346.832289,26.9816491 347.827815,24.5877174 C348.825617,22.1915099 350.205701,20.1548476 351.969204,18.4800056 C353.734984,16.8028879 355.830709,15.5080714 358.258655,14.5978312 C360.688877,13.687591 363.337546,13.2324709 366.204662,13.2324709 C369.104772,13.2324709 371.777333,13.687591 374.223484,14.5978312 C376.671909,15.5080714 378.785839,16.8028879 380.567546,18.4800056 C382.351529,20.1548476 383.740715,22.1915099 384.736241,24.5877174 C385.734043,26.9816491 386.233513,29.664582 386.233513,32.6342408 C386.233513,35.5356313 385.734043,38.1821549 384.736241,40.5760866 C383.740715,42.9700183 382.351529,45.0339882 380.567546,46.7657198 C378.785839,48.4951763 376.671909,49.8411941 374.223484,50.8026352 C371.777333,51.7606633 369.104772,52.2408148 366.204662,52.2408148 C363.337546,52.2408148 360.688877,51.7606633 358.258655,50.8026352 C355.830709,49.8411941 353.734984,48.4951763 351.969204,46.7657198 C350.205701,45.0339882 348.825617,42.9700183 347.827815,40.5760866 C346.832289,38.1821549 346.335094,35.5356313 346.335094,32.6342408 Z M353.516537,32.6342408 C353.516537,34.6276669 353.821452,36.4549738 354.431283,38.1138867 C355.043389,39.7739375 355.917177,41.2155301 357.052646,42.4375277 C358.19039,43.6606631 359.535204,44.6130019 361.089363,45.2956821 C362.645797,45.9783622 364.367204,46.3197023 366.254722,46.3197023 C368.144516,46.3197023 369.875025,45.9783622 371.447387,45.2956821 C373.018612,44.6130019 374.37139,43.6606631 375.506859,42.4375277 C376.644603,41.2155301 377.518391,39.7739375 378.128222,38.1138867 C378.740329,36.4549738 379.047519,34.6276669 379.047519,32.6342408 C379.047519,30.7113582 378.740329,28.9284254 378.128222,27.2865796 C377.518391,25.6424583 376.653705,24.20883 375.534165,22.9856946 C374.4169,21.763697 373.072086,20.8033939 371.497448,20.1047844 C369.925085,19.4038995 368.17751,19.053457 366.254722,19.053457 C364.33421,19.053457 362.595736,19.4038995 361.039302,20.1047844 C359.485143,20.8033939 358.149432,21.763697 357.029891,22.9856946 C355.910351,24.20883 355.043389,25.6424583 354.431283,27.2865796 C353.821452,28.9284254 353.516537,30.7113582 353.516537,32.6342408 Z M392.67132,14.1791212 L401.42285,14.1791212 L418.671054,41.9642034 L418.780277,41.9642034 L418.780277,14.1791212 L425.383745,14.1791212 L425.383745,51.2987166 L416.996294,51.2987166 L399.379461,22.6215991 L399.274788,22.6215991 L399.274788,51.2987166 L392.67132,51.2987166 L392.67132,14.1791212 Z M449.906349,13.2938247 L455.767688,13.2938247 L472.161704,51.5419911 L464.419697,51.5419911 L460.873027,42.7912458 L444.367011,42.7912458 L440.927674,51.5419911 L433.349,51.5419911 L449.906349,13.2938247 Z M458.507024,36.9574156 L452.650352,21.3974087 L446.68168,36.9574156 L458.507024,36.9574156 Z M477.893601,13.3107716 L484.741005,13.3107716 L484.741005,45.5093874 L501.106821,45.5093874 L501.106821,51.558938 L477.893601,51.558938 L477.893601,13.3107716 Z M59.9030767,40.3955777 C60.3388183,40.7031362 60.4950872,41.2873628 60.2776695,41.7793665 C59.0324988,45.56229 56.8859495,49.1607679 54.2406981,52.1436811 C53.8679169,52.5743527 53.3388664,52.7274605 52.840617,52.5125722 L45.1548929,49.8676595 C43.2565626,51.4058992 41.1095599,52.635685 38.8071948,53.5274703 L37.2825515,61.4008754 C37.1892429,61.8928791 36.7535009,62.3544407 36.2239977,62.4157734 C34.2332648,62.7851118 32.2411728,63 30.1879323,63 C28.1337857,63 26.1425997,62.784664 24.1514135,62.4157734 C23.6219103,62.3544407 23.1866214,61.8928791 23.0933131,61.4008754 L21.5686697,53.5274703 C19.2663043,52.635685 17.0567944,51.4058992 15.2209717,49.8676595 L7.53524744,52.5125722 C7.03745094,52.7279077 6.50840061,52.5743527 6.13471353,52.1436811 C3.48991483,49.1607679 1.34291268,45.56229 0.0981949631,41.7793665 C-0.119675932,41.2873628 0.0361402597,40.7031362 0.471429099,40.3955777 L6.56954943,35.1679805 C6.35167852,33.998632 6.28962383,32.737956 6.28962383,31.5077223 C6.28962383,30.2779365 6.35213146,29.0163651 6.56954943,27.847912 L0.47097614,22.6194194 C0.0356873054,22.3118611 -0.120128886,21.7280821 0.0977420103,21.2356306 C1.34245973,17.4531549 3.4894619,13.854677 6.13426057,10.8717636 C6.50794767,10.4410923 7.036998,10.2875369 7.53479447,10.5028726 L15.2205187,13.1473375 C17.0563415,11.6095456 19.2658513,10.3797597 21.5682166,9.48752701 L23.09286,1.6145696 C23.1861685,1.12256572 23.6219103,0.661004299 24.1509606,0.599671696 C28.1337857,-0.199890565 32.2407199,-0.199890565 36.2235448,0.599671696 C36.7530482,0.661004299 37.1887898,1.12256572 37.2820988,1.6145696 L38.8062888,9.48707935 C41.1086541,10.379312 43.2561093,11.6090979 45.1539871,13.1468898 L52.839711,10.5024249 C53.3379604,10.2866416 53.8670109,10.4406447 54.2397921,10.8713159 C56.8850437,13.8542293 59.0315928,17.4527072 60.2767635,21.2351828 C60.4950872,21.7276343 60.3388183,22.3114133 59.9030767,22.6189718 L53.8045032,27.8474642 C54.022374,29.0163651 54.084429,30.2774889 54.084429,31.5072748 C54.084429,32.7375084 54.022374,33.998632 53.8045032,35.1675329 L59.9030767,40.3955777 Z M49.3728007,30.9199142 L33.1570462,30.9199142 C32.9314748,30.9199142 32.725381,31.0466088 32.6257309,31.2467231 C32.526534,31.4463898 32.5514464,31.6854526 32.6895973,31.86184 L35.6854356,35.6895316 L35.6840765,35.6913222 C35.7669672,35.7839926 35.818604,35.9048672 35.818604,36.0373814 C35.818604,36.170791 35.7669672,36.2907702 35.6840765,36.3834408 L35.6849825,36.3852314 C35.680453,36.3901557 35.6754703,36.3946326 35.6709408,36.3991097 C35.6650525,36.4058244 35.6591641,36.4116449 35.6532758,36.4174647 C34.3238556,37.8039396 32.4608554,38.6120077 30.5104354,38.6120077 C26.6064246,38.6120077 23.4307637,35.4728528 23.4307637,31.6142709 C23.4307637,27.7552415 26.6068775,24.6160867 30.5104354,24.6160867 C31.8394025,24.6160867 33.1380218,24.9863206 34.2654245,25.6873927 C34.5344793,25.8543786 34.8882363,25.7823015 35.0676059,25.5239882 L41.5480197,16.2130723 C41.732825,15.9471484 41.6648819,15.5840774 41.3967329,15.4005272 C38.0901686,13.1482328 34.2142406,11.9573955 30.1888381,11.9573955 C19.2830635,11.9573955 10.4110527,20.726167 10.4110527,31.5041408 C10.4110527,42.2821148 19.2830635,51.0504389 30.1888381,51.0504389 C41.0932536,51.0504389 49.9648116,42.2816674 49.9648116,31.5041408 C49.9643587,31.1813613 49.6998338,30.9199142 49.3728007,30.9199142 Z" id="path-1"></path>
    </defs>
    <g id="Website" stroke="none" stroke-width="1" fill="none" fill-rule="evenodd">
        <g id="Homepage-Copy" transform="translate(-801.000000, -290.000000)">
            <g id="logo/gravitational" transform="translate(801.000000, 290.000000)">
                <mask id="mask-2" fill="white">
                    <use xlink:href="#path-1"></use>
                </mask>
                <g id="Combined-Shape" fill-rule="nonzero"></g>
                <g id="swatch/white" mask="url(#mask-2)" fill="#FFFFFF" fill-rule="evenodd">
                    <g transform="translate(0.027676, 0.000000)">
                        <rect x="0" y="0" width="504" height="63"></rect>
                    </g>
                </g>
            </g>
        </g>
    </g>
</svg>