<?xml version="1.0" encoding="UTF-8"?>
<svg width="218px" height="226px" viewBox="0 0 218 226" version="1.1" xmlns="http://www.w3.org/2000/svg" xmlns:xlink="http://www.w3.org/1999/xlink">
    <title>TraefikLabs-vertical-logo-white</title>
    <g id="TraefikLabs-vertical-logo-white" stroke="none" stroke-width="1" fill="none" fill-rule="evenodd">
        <path d="M111.296703,185.911308 C111.961202,185.911308 112.533418,186.133155 113.013348,186.576764 C113.466412,186.980096 113.713551,187.520895 113.754741,188.199164 L113.76092,188.406769 L113.76092,210.321109 L126.359849,198.958012 C126.766843,198.612048 127.201607,198.439024 127.664145,198.439024 C128.256141,198.439024 128.774159,198.666678 129.218197,199.121903 C129.680687,199.577182 129.911946,200.087064 129.91197,200.651551 C129.911949,201.104802 129.736533,201.522062 129.385723,201.903332 L129.245947,202.044621 L119.172358,210.922044 L130.189481,222.33977 C130.596467,222.758604 130.8,223.232066 130.8,223.760157 C130.8,224.342884 130.559466,224.861868 130.078477,225.317119 C129.615936,225.772373 129.07942,226 128.468921,226 C127.886132,226 127.378287,225.793498 126.945388,225.380493 L126.803864,225.235176 L113.76092,211.577607 L113.76092,223.476815 C113.76092,224.25318 113.502488,224.872423 112.985661,225.334544 C112.487271,225.778181 111.896598,226 111.213642,226 C110.530671,226 109.949224,225.787425 109.46931,225.362274 C109.033014,224.958967 108.795037,224.402893 108.755375,223.694051 L108.749425,223.476815 L108.749425,188.406769 C108.749425,187.630429 108.998611,187.020429 109.496997,186.576764 C110.013832,186.133155 110.613731,185.911308 111.296703,185.911308 Z M101.273714,197.937916 C101.938213,197.937916 102.51043,198.167979 102.99036,198.628018 C103.443424,199.046288 103.690563,199.607117 103.731753,200.310507 L103.737931,200.525801 L103.737931,223.383364 C103.737931,224.188483 103.4795,224.830661 102.962673,225.309897 C102.464283,225.769966 101.87361,226 101.190654,226 C100.507682,226 99.9262354,225.779552 99.4463215,225.338655 C99.0100253,224.920411 98.7720489,224.343741 98.7323862,223.608645 L98.7264368,223.383364 L98.7264368,200.525801 C98.7264368,199.720708 98.975622,199.088115 99.4740083,198.628018 C99.9908432,198.167979 100.590743,197.937916 101.273714,197.937916 Z M94.5411636,185.911308 L94.5408046,185.914308 L94.6106548,185.917122 C95.5120115,185.990291 96.2206897,186.744979 96.2206897,187.665188 C96.2206897,188.617912 95.4610472,189.393211 94.5144128,189.418435 L91.9135125,189.419069 C91.1369431,189.419105 90.5319528,189.492206 90.0985378,189.638372 C89.6650996,189.766335 89.2768226,190.115027 88.9337067,190.59015 C88.6086252,191.047067 88.4912383,191.914777 88.3648319,192.791957 C88.2663153,193.57284 88.2125854,194.610456 88.2036392,195.904807 L88.2022989,196.300815 L88.2021609,197.937308 L92.712766,197.937916 C93.54303,197.937916 94.216092,198.610978 94.216092,199.441242 C94.216092,200.271506 93.54303,200.944568 92.712766,200.944568 L88.2021609,200.944308 L88.2022989,223.476815 C88.2022989,224.182602 87.9887193,224.758535 87.5615868,225.204615 L87.4270405,225.334544 C86.9286503,225.778181 86.3379773,226 85.6550215,226 C84.9720499,226 84.3906032,225.787425 83.9106893,225.362274 C83.4743932,224.958967 83.2364167,224.402893 83.196754,223.694051 L83.1908046,223.476815 L83.1901609,200.944308 L79.1814869,200.944568 C78.3512229,200.944568 77.6781609,200.271506 77.6781609,199.441242 C77.6781609,198.610978 78.3512229,197.937916 79.1814869,197.937916 L83.1901609,197.937308 L83.1908046,194.95758 C83.1908046,191.686336 83.8770556,189.365375 85.2495808,187.994692 C86.5534615,186.675252 88.3300115,185.982494 90.5792343,185.916517 L90.9383027,185.911308 L94.5411636,185.911308 Z M64.9397296,197.937918 C67.5507261,197.937918 69.9776686,198.610696 71.7867721,199.832244 C73.2216922,200.801148 74.3873862,202.293728 74.8582938,203.765099 C75.1286805,204.609907 75.1697839,204.922083 75.172349,206.149142 C75.1737283,206.912649 75.1530904,207.427641 75.1111981,207.666257 C74.6878139,210.077951 73.6793429,211.74872 71.9289158,212.938415 C70.5207179,213.895494 68.7521465,214.45552 66.439075,214.676725 C65.2746957,214.788074 63.145039,214.777557 61.7654077,214.6536 C60.594527,214.548426 59.1567606,214.36336 58.5434102,214.238914 C58.0300119,214.134727 56.2719226,213.836349 56.2574471,213.850958 C56.2510726,213.857502 56.1674195,214.391914 56.071575,215.038828 C55.9185447,216.071734 55.8968668,216.329465 55.893656,217.1542 L55.8934205,217.495507 C55.8959272,218.043665 55.9172652,218.19937 56.0014833,218.526821 C56.3215414,219.771218 57.0268636,220.603621 58.3064974,221.247142 C59.5653102,221.880194 60.8849467,222.154137 62.8788959,222.196369 C63.7616674,222.215245 64.2137506,222.202083 64.7660307,222.142662 C66.1048705,221.998363 66.7149566,221.840045 68.4937018,221.175371 C68.9367265,221.009799 69.3888551,220.859149 69.498437,220.840577 C69.7332696,220.800779 70.1712346,220.882966 70.4264874,221.014776 C70.887212,221.252617 71.2742987,221.88694 71.2718867,222.40008 C71.2692571,222.999563 71.0702959,223.362671 70.486397,223.834888 C69.0902772,224.963972 67.3076964,225.65639 65.1797852,225.896203 C64.4209996,225.981736 62.6885716,225.994335 61.8517666,225.920471 C59.4951842,225.712419 57.8590568,225.30272 56.3638218,224.546338 C55.1971285,223.956145 54.306977,223.223957 53.6421416,222.307607 C53.4787825,222.082439 53.3400211,221.8926 53.3337808,221.885659 C53.3275241,221.878747 53.2189533,222.008806 53.0924684,222.174636 C52.5333758,222.907708 51.6784056,223.695649 50.8428909,224.24785 C49.6367001,225.045035 47.9050873,225.653191 46.1529265,225.895042 C45.6303898,225.967136 43.896696,226.026622 43.4521317,225.987671 C40.3813472,225.718576 38.0348516,224.777054 36.3281548,223.12918 C34.5917326,221.452549 33.8466581,219.266678 34.1407021,216.711606 C34.4790722,213.771306 35.8536946,211.69493 38.2637649,210.483595 C40.1212595,209.549981 41.9743037,209.194846 44.9920582,209.194118 C47.1361551,209.193197 48.9327807,209.371663 51.6729696,209.856249 C52.3505368,209.976077 52.9371568,210.074172 52.9765718,210.074255 C53.033889,210.074255 53.0793458,209.85506 53.2036698,208.978692 C53.4286106,207.393078 53.468927,206.845947 53.4076445,206.210785 C53.3363134,205.471435 53.24322,205.119277 52.9676557,204.546293 C52.2566744,203.067981 50.5689225,202.163493 47.8586902,201.808358 C47.0835875,201.706798 45.2946983,201.692585 44.5182345,201.781777 C43.2173507,201.931274 42.4914116,202.121759 40.8724293,202.738358 C39.9252407,203.099116 39.9209119,203.100231 39.5430887,203.077686 C38.8935712,203.039003 38.4501675,202.740091 38.1657705,202.149235 C38.0486462,201.905919 38.0280518,201.805473 38.0280473,201.47762 C38.0280473,200.985449 38.1541495,200.724169 38.5932433,200.306663 C39.5779019,199.370387 41.2348657,198.573054 42.9072353,198.230712 C43.9780687,198.011516 44.5051917,197.965432 45.9160137,197.967635 C47.3758534,197.971506 48.3093117,198.053702 49.6066256,198.298908 C51.7644472,198.706708 53.4029103,199.425522 54.6384067,200.506356 C55.0049988,200.827048 55.557784,201.458237 55.7946496,201.826552 C55.8670462,201.939136 55.9416263,202.031259 55.9603781,202.031259 C55.9791417,202.031259 56.0989011,201.895983 56.2265302,201.730688 C58.0973406,199.307546 61.2482219,197.935993 64.9397296,197.937918 Z M136.93908,185.911308 C137.261248,185.911308 137.529721,186.032789 137.744499,186.275751 C137.928595,186.484004 138.033792,186.740315 138.060092,187.044685 L138.066667,187.200875 L138.066667,224.710434 L138.060092,224.866623 C138.033792,225.170993 137.928595,225.427304 137.744499,225.635557 C137.529721,225.878519 137.261248,226 136.93908,226 C136.581117,226 136.303695,225.887864 136.106814,225.663591 C135.93806,225.471358 135.841629,225.21047 135.817521,224.880926 L135.811494,224.710434 L135.811494,187.200875 L135.817521,187.030382 C135.841629,186.700839 135.93806,186.43995 136.106814,186.247717 C136.303695,186.023444 136.581117,185.911308 136.93908,185.911308 Z M154.32705,197.937916 C160.418999,197.937916 163.51749,201.15289 163.622523,207.582837 L163.625287,207.924224 L163.625287,224.549475 L163.619038,224.71912 C163.594039,225.047025 163.494046,225.306617 163.319058,225.497895 C163.114905,225.721053 162.827235,225.832632 162.456048,225.832632 C162.084861,225.832632 161.787911,225.711755 161.565199,225.47 C161.374303,225.262783 161.265219,225.007745 161.237948,224.704888 L161.231131,224.549475 L161.231131,220.644215 L161.062983,220.981183 C160.255775,222.529401 159.133305,223.737429 157.695573,224.605264 C156.155147,225.535088 154.401288,226 152.433996,226 C150.726535,226 149.167549,225.646667 147.757038,224.940001 C146.346527,224.233335 145.223686,223.275616 144.388515,222.066845 C143.553344,220.858074 143.1172,219.509829 143.080081,218.022111 C143.042962,215.976499 143.544065,214.395798 144.583389,213.28001 C145.622713,212.164221 147.367292,211.364572 149.817127,210.881064 C152.160447,210.418578 155.403738,210.17728 159.547001,210.157172 L160.117569,210.155801 L161.231131,210.155801 L161.231131,207.812645 L161.227532,207.440273 C161.179556,204.990261 160.651813,203.189649 159.644306,202.038439 C158.586422,200.829668 156.92536,200.225282 154.661119,200.225282 C152.879421,200.225282 151.292596,200.457738 149.900644,200.92265 C148.508692,201.387562 147.404411,201.917562 146.587799,202.512649 C146.439324,202.624228 146.133095,202.838088 145.669111,203.154228 C145.205127,203.470368 144.82466,203.628438 144.527711,203.628438 C144.26788,203.628438 144.035888,203.526157 143.831735,203.321596 C143.627582,203.117035 143.525505,202.865982 143.525505,202.568439 C143.525505,201.861772 144.175083,201.117913 145.474238,200.336861 C146.773393,199.555809 148.193183,198.960722 149.73361,198.551599 C151.274036,198.142477 152.805183,197.937916 154.32705,197.937916 Z M33.5620211,197.937916 C34.1864143,197.937916 34.6742399,198.162424 35.0254894,198.611358 C35.3962165,199.060347 35.5816092,199.584135 35.5816092,200.182724 C35.5816092,200.743951 35.4157274,201.230326 35.0840303,201.641849 C34.7522916,202.034716 34.2742236,202.231133 33.6498262,202.23111 C31.0155649,202.231133 29.2172831,202.885871 27.7538273,204.195318 C26.3393262,205.478085 25.5874799,207.18268 25.5586207,209.309107 L25.5586207,223.383364 C25.5586207,224.188483 25.3001894,224.830661 24.7833624,225.309897 C24.2849722,225.769966 23.6942992,226 23.0113433,226 C22.3283718,226 21.7469251,225.779552 21.2670111,225.338655 C20.8055441,224.896281 20.5659398,224.276675 20.5481913,223.479835 L20.5471264,223.383364 L20.5471264,200.525801 C20.5471264,199.720708 20.7963117,199.088115 21.2946979,198.628018 C21.8115329,198.167979 22.4114322,197.937916 23.0944038,197.937916 C23.758903,197.937916 24.3311195,198.167979 24.8110492,198.628018 C25.2894849,199.069711 25.5382859,199.670377 25.5574245,200.430018 L25.5586207,200.525801 L25.5586207,204.055019 C26.0464337,202.315315 27.0220807,200.865545 28.4855615,199.705702 C29.9685323,198.527206 31.4936329,197.937916 33.5620211,197.937916 Z M7.73043889,189.920177 C8.34509913,189.920177 8.87670484,190.119245 9.32525602,190.517382 C9.79040038,190.932105 10.0229885,191.487836 10.0229885,192.184574 L10.022,197.937177 L15.5357545,197.937916 C16.3198927,197.937916 16.9638106,198.53827 17.0329369,199.304408 L17.0390805,199.441242 C17.0390805,200.22538 16.4387258,200.869298 15.6725878,200.938424 L15.5357545,200.944568 L10.022,200.944177 L10.0229885,215.610494 L10.0243289,216.006501 C10.0332751,217.300852 10.087005,218.338468 10.1855215,219.119351 C10.311928,219.996531 10.4293149,220.864241 10.7543964,221.321158 C11.0975123,221.796281 11.4857893,222.144973 11.9192274,222.272936 C12.2984656,222.400832 12.809066,222.472787 13.4510314,222.488801 L13.7342022,222.492239 L16.3351025,222.492873 C17.2817369,222.518098 18.0413793,223.293397 18.0413793,224.24612 C18.0413793,225.115206 17.4092559,225.836652 16.5796981,225.975769 L16.4313445,225.994186 L16.3614943,225.997 L16.3618533,226 L12.7589924,226 L12.3999239,225.994791 C10.1507012,225.928814 8.37415113,225.236056 7.07027049,223.916616 C5.7526463,222.60076 5.06749237,220.409129 5.01478826,217.341716 L5.01149425,216.953728 L5.011,200.944177 L1.50332594,200.944568 C0.719187728,200.944568 0.0752698526,200.344213 0.00614360175,199.578075 L3.55271368e-15,199.441242 C3.64874291e-15,198.657103 0.600354641,198.013186 1.36649264,197.944059 L1.50332594,197.937916 L5.115,197.937177 L5.51264368,192.184574 C5.51264013,191.454658 5.72860672,190.890632 6.16053991,190.492495 C6.59246245,190.11095 7.11576448,189.920177 7.73043889,189.920177 Z M169.817059,185.911308 C170.19175,185.911308 170.482136,186.023132 170.688216,186.246778 C170.864856,186.438476 170.965793,186.698636 170.991027,187.02726 L170.997336,187.197277 L170.997336,203.69123 L171.156616,203.346805 C171.976619,201.649798 173.150639,200.329539 174.678677,199.386029 C176.308583,198.379618 178.266344,197.876413 180.55196,197.876413 C182.949984,197.876413 185.066989,198.454167 186.902976,199.609676 C188.738962,200.765184 190.162789,202.386624 191.174455,204.473994 C192.186121,206.561364 192.691954,209.002842 192.691954,211.798427 C192.691954,214.631287 192.186121,217.119358 191.174455,219.26264 C190.162789,221.405922 188.738962,223.064636 186.902976,224.238781 C185.066989,225.412927 182.949984,226 180.55196,226 C178.266344,226 176.308583,225.496795 174.678677,224.490384 C173.150639,223.546874 171.976619,222.210235 171.156616,220.480466 L170.997336,220.129271 L170.997336,224.546296 L170.992725,224.702019 C170.946621,225.455516 170.554732,225.832265 169.817059,225.832265 C169.442368,225.832265 169.151982,225.720441 168.945902,225.496795 C168.769262,225.305097 168.668324,225.044937 168.64309,224.716313 L168.636782,224.546296 L168.636782,187.197277 L168.641392,187.041555 C168.687497,186.288057 169.079386,185.911308 169.817059,185.911308 Z M208.438814,197.937916 C209.818011,197.937916 211.141294,198.123881 212.408663,198.49581 C213.676033,198.86774 214.7943,199.388441 215.763465,200.057914 C216.471701,200.578616 216.984241,201.034229 217.301083,201.424755 C217.617925,201.815281 217.776347,202.215106 217.776347,202.624228 C217.776347,202.884579 217.683158,203.117035 217.49678,203.321596 C217.310402,203.526157 217.086748,203.628438 216.825819,203.628438 C216.527615,203.628438 216.043032,203.349491 215.372072,202.791596 C214.402907,202.047737 213.387147,201.434053 212.324793,200.950545 C211.262439,200.467037 209.929838,200.225282 208.326988,200.225282 C206.239555,200.225282 204.552836,200.718089 203.266828,201.703702 C201.980821,202.689316 201.337817,203.981771 201.337817,205.581068 C201.337817,206.548085 201.542833,207.338435 201.952864,207.952119 C202.362895,208.565803 203.061812,209.095802 204.049615,209.542118 C205.037418,209.988433 206.444571,210.416152 208.271074,210.825275 C210.843089,211.457555 212.818695,212.099133 214.197891,212.75001 C215.577087,213.400887 216.555571,214.181939 217.133343,215.093166 C217.711114,216.004393 218,217.166673 218,218.580006 C218,220.811583 217.077429,222.606143 215.232288,223.963686 C213.387147,225.321229 210.936278,226 207.879681,226 C206.425933,226 204.972186,225.786141 203.518438,225.358422 C202.064691,224.930703 200.760046,224.344914 199.604503,223.601054 C198.858991,223.117546 198.355771,222.717722 198.094842,222.401582 C197.833913,222.085442 197.703448,221.72281 197.703448,221.313688 C197.703448,221.053337 197.796637,220.820881 197.983015,220.61632 C198.169393,220.411759 198.393046,220.309478 198.653975,220.309478 C198.840353,220.309478 199.091964,220.411759 199.408806,220.61632 C199.725648,220.820881 199.939983,220.960355 200.05181,221.034741 C201.132801,221.815793 202.260388,222.457371 203.434568,222.959476 C204.608749,223.461581 206.090453,223.712633 207.879681,223.712633 C210.302593,223.712633 212.166372,223.266318 213.471017,222.373687 C214.775663,221.481056 215.427985,220.216496 215.427985,218.580006 C215.427985,217.612989 215.195013,216.81334 214.729068,216.18106 C214.263123,215.54878 213.498974,215.000184 212.43662,214.535272 C211.374266,214.07036 209.855286,213.614746 207.879681,213.168431 C204.59943,212.424572 202.251069,211.476151 200.834597,210.32317 C199.418125,209.170188 198.709889,207.645277 198.709889,205.748436 C198.709889,203.442473 199.613822,201.564229 201.421687,200.113704 C203.229553,198.663178 205.568595,197.937916 208.438814,197.937916 Z M180.357782,199.94235 C177.333198,199.94235 174.999414,200.967977 173.35643,203.019229 C171.713446,205.070481 170.891954,207.960882 170.891954,211.690432 C170.891954,215.457277 171.713446,218.366326 173.35643,220.417578 C174.999414,222.468831 177.351868,223.494457 180.413793,223.494457 C183.401037,223.494457 185.734821,222.450183 187.415145,220.361635 C189.09547,218.273087 189.935632,215.345391 189.935632,211.578545 C189.935632,207.886291 189.09547,205.023862 187.415145,202.991257 C185.734821,200.958653 183.382366,199.94235 180.357782,199.94235 Z M161.370115,212.219512 L160.308327,212.219512 L159.780666,212.220488 C156.127451,212.234144 153.322881,212.391186 151.366956,212.691616 C149.317892,213.006352 147.883547,213.543254 147.063921,214.302322 C146.244296,215.061391 145.834483,216.18148 145.834483,217.662589 C145.834483,219.365865 146.46783,220.763661 147.734524,221.85598 C149.001218,222.948298 150.603214,223.494457 152.540511,223.494457 C154.217018,223.494457 155.725874,223.096409 157.06708,222.300312 C158.408286,221.504216 159.46076,220.402641 160.224502,218.995587 C160.929494,217.696768 161.309106,216.240198 161.363336,214.625877 L161.370115,214.21901 L161.370115,212.219512 Z M45.392429,212.865444 C43.5266419,212.972476 42.7660254,213.139285 41.6458147,213.687164 C41.0719303,213.967824 40.6758355,214.272405 40.3624332,214.673962 C39.9128023,215.250122 39.6414097,215.822669 39.452238,216.594152 C39.3145754,217.155545 39.3005277,218.625508 39.4282966,219.099123 C39.6435281,219.896923 39.8990291,220.348464 40.47356,220.946354 C41.2602742,221.765029 42.297363,222.311169 43.5837708,222.584262 C44.2415609,222.723916 44.2220939,222.722556 45.3234719,222.705573 C46.1226344,222.693149 46.4216362,222.670166 46.7485645,222.596046 C48.13648,222.281042 49.3733168,221.57103 50.2712026,220.573915 C51.0902351,219.664399 51.7620114,218.301846 52.1317218,216.800314 C52.2011891,216.51817 52.2859911,216.068323 52.365342,215.592125 L52.4235083,215.232245 C52.5553292,214.391302 52.6545421,213.577883 52.6097482,213.549545 C52.5844944,213.533539 52.4531506,213.509818 52.2981476,213.49198 L52.2029662,213.482092 C52.1599866,213.478074 52.0993336,213.471664 52.0257129,213.463427 L51.7706526,213.433792 C51.6758017,213.422461 51.5726883,213.409864 51.4660179,213.396566 L50.9778723,213.333888 C48.124395,212.955944 46.373822,212.8091 45.392429,212.865444 Z M62.7957197,201.561728 C61.7795529,201.752569 60.920593,202.100419 60.1630255,202.627828 C58.7633994,203.60225 57.7974657,205.071098 57.2595789,207.042931 C57.048301,207.817449 56.99198,208.11474 56.8036098,209.44981 L56.6298495,210.681362 L56.8626076,210.707751 C57.5655978,210.787983 59.1508217,210.985552 60.0714536,211.107704 L60.2686348,211.133421 L60.6740483,211.183904 C61.0777286,211.232702 61.4580078,211.27435 61.6510725,211.289958 C62.4882699,211.3576 63.9892778,211.351305 64.8102952,211.276764 C65.9663928,211.172027 66.677253,210.987283 67.550659,210.564936 C68.2770632,210.213632 68.699265,209.854588 69.0987991,209.248373 C69.6870075,208.355842 69.9160576,207.511203 69.9102883,206.256274 C69.9059724,205.361823 69.8323269,204.989738 69.532339,204.347591 C68.8620647,202.912861 67.2874981,201.885174 65.2223767,201.534572 C64.7070602,201.447107 63.3239297,201.462637 62.7957197,201.561728 Z M101.257883,185.911308 C102.148808,185.911308 102.868408,186.157362 103.416681,186.649367 C103.96494,187.125566 104.23908,187.760454 104.23908,188.554033 C104.23908,189.331803 103.96494,189.966691 103.416681,190.458699 C102.868408,190.934895 102.140241,191.172949 101.232184,191.172949 C100.324113,191.172949 99.5959456,190.934895 99.0476867,190.458699 C98.4994168,189.966691 98.2252874,189.331803 98.2252874,188.554033 C98.2252874,187.776327 98.4994168,187.141439 99.0476867,186.649367 C99.6130807,186.157362 100.349812,185.911308 101.257883,185.911308 Z M85.4825728,1.02838837 C87.9369467,-0.342753227 90.9359719,-0.342798886 93.3903883,1.02826797 L93.3903883,1.02826797 L162.006455,39.358037 C162.961081,39.8913482 164.082833,40.0505834 165.150212,39.8042985 C166.648995,39.4584723 167.884961,39.2842564 168.865477,39.2842564 C176.043581,39.2842564 181.917241,43.9305768 181.917241,49.7276994 C181.917241,55.524658 176.043475,60.1711425 168.865477,60.1711425 C167.81955,60.1711425 166.50282,59.9736849 164.907482,59.5817288 C163.823976,59.3155228 162.678782,59.4693788 161.70593,60.0118455 L161.70593,60.0118455 L63.5487173,114.74475 C63.0860892,115.002753 62.7737432,115.460609 62.7071107,115.939967 L62.7071107,115.939967 L62.687934,116.203415 C62.687934,116.883072 63.0575617,117.510042 63.6551398,117.843879 L63.6551398,117.843879 L126.91536,153.182102 C128.250337,153.927842 129.881595,153.927842 131.216571,153.1821 L131.216571,153.1821 L154.655794,140.088538 C155.566455,139.579826 155.888487,138.436067 155.37523,137.533772 C155.205592,137.23555 154.95681,136.989006 154.655835,136.820867 L154.655835,136.820867 L126.237831,120.945152 C123.560056,119.449214 122.612969,116.085122 124.122611,113.431352 C124.621503,112.55436 125.353071,111.829421 126.238023,111.335088 L126.238023,111.335088 L155.140849,95.1900208 C155.502397,94.9880443 155.746431,94.6300023 155.797613,94.2638045 L155.797613,94.2638045 L155.813464,94.049278 C155.813464,88.2523526 161.687434,83.605835 168.865477,83.605835 C176.043475,83.605835 181.917241,88.2523194 181.917241,94.049278 C181.917241,97.612093 179.698685,100.740235 176.322253,102.62227 L176.322253,102.62227 L175.974937,102.809336 C173.926123,103.875128 171.482494,104.492721 168.865477,104.492721 C167.781712,104.492721 166.418831,104.281226 164.76882,103.861416 C163.674354,103.583004 162.513666,103.734515 161.529356,104.284282 L161.529356,104.284282 L143.229558,114.505265 C142.318863,115.013916 141.996754,116.157653 142.509949,117.059983 C142.679605,117.358282 142.928443,117.604885 143.229494,117.773046 L143.229494,117.773046 L171.648777,133.647513 C174.326631,135.143311 175.273899,138.507352 173.764398,141.161201 C173.265556,142.038215 172.534031,142.763191 171.649111,143.25757 L171.649111,143.25757 L133.02001,164.838519 C130.56555,166.209754 127.56638,166.209778 125.111897,164.838583 L125.111897,164.838583 L56.5761689,126.551161 C55.6164207,126.015059 54.4880373,125.857067 53.4160057,126.108706 C51.8914095,126.466575 50.6338771,126.646858 49.635921,126.646858 C42.4578782,126.646858 36.583908,122.00034 36.583908,116.203415 C36.583908,110.406326 42.4577722,105.759972 49.635921,105.759972 C50.6645396,105.759972 51.9600015,105.951143 53.5300233,106.330628 C54.6090051,106.59147 55.747709,106.436296 56.7156163,105.896536 L56.7156163,105.896536 L155.016357,51.0784608 C155.444765,50.8395573 155.734005,50.4155697 155.79541,49.9745749 L155.79541,49.9745749 L155.813464,49.7276994 C155.813464,49.0091939 155.422717,48.3464054 154.790975,47.9935107 L154.790975,47.9935107 L91.5861151,12.6850344 C90.2511137,11.9392553 88.6198068,11.9392539 87.2848042,12.6850308 L87.2848042,12.6850308 L63.855521,25.7734082 C62.9448661,26.2821304 62.6228484,27.4258933 63.1361155,28.3281824 C63.3057552,28.6263975 63.5545352,28.8729355 63.8555059,29.0410714 L63.8555059,29.0410714 L92.2782994,44.9193285 C94.9560797,46.4152576 95.9031794,49.7793453 94.393547,52.4331207 C93.894731,53.3099868 93.1633047,54.0348484 92.2785218,54.5291811 L92.2785218,54.5291811 L63.3854656,70.6718792 C63.0105211,70.8813674 62.7574509,71.2526979 62.7042236,71.6339544 L62.7042236,71.6339544 L62.687934,71.8549808 C62.687934,77.6519063 56.8139639,82.2984239 49.635921,82.2984239 C46.2712134,82.2984239 43.1930453,81.2774606 40.8721015,79.5956221 L40.8721015,79.5956221 L40.5671709,79.3674923 C38.1142251,77.4729654 36.583908,74.8138282 36.583908,71.8549808 C36.583908,66.0578913 42.4577722,61.4115378 49.635921,61.4115378 C50.7110415,61.4115378 52.0633723,61.6197836 53.7008713,62.0331433 C54.7931518,62.3088165 55.9506195,62.1565997 56.932464,61.6081613 L56.932464,61.6081613 L75.2823202,51.3583048 C76.1929962,50.8496197 76.5150612,49.7058698 76.0018315,48.8035599 C75.8321793,48.5052942 75.5833621,48.2587184 75.2823409,48.0905692 L75.2823409,48.0905692 L46.8610705,32.2145593 C44.1832333,30.71873 43.2360059,27.3546776 44.7455376,24.7008459 C45.2443928,23.8238338 45.9759302,23.0988643 46.8608618,22.6044952 L46.8608618,22.6044952 Z" id="Combined-Shape" fill="#FFFFFF" fill-rule="nonzero"></path>
    </g>
</svg>