<?xml version="1.0" encoding="UTF-8"?>
<svg width="71px" height="63px" viewBox="0 0 71 63" version="1.1" xmlns="http://www.w3.org/2000/svg" xmlns:xlink="http://www.w3.org/1999/xlink">
    <!-- Generator: Sketch 60.1 (88133) - https://sketch.com -->
    <title>Slice 1</title>
    <desc>Created with Sketch.</desc>
    <defs>
        <path d="M33.7706658,49.6933321 L36.5973324,60.0306652 C36.7253324,60.5066652 36.5493324,60.7439985 36.0733324,60.7439985 L28.2133326,60.7439985 C27.7373326,60.7439985 27.4333326,60.5066652 27.3053327,60.0306652 L24.5239994,49.6426654 L16.9933329,49.6426654 C16.5173329,49.6426654 16.2133329,49.4039988 16.0853329,48.9266654 L13.9946663,41.1213323 C13.8666663,40.6453323 14.0426663,40.407999 14.5199996,40.407999 L22.0479994,40.407999 L15.0226663,14.1879996 C14.4039996,11.8786664 13.3066663,10.3759997 11.7279997,9.68133309 C10.3986664,9.09466644 9.07733311,9.2973331 7.76533314,10.2839997 C7.45866648,10.5039997 7.12799982,10.4319997 6.77333316,10.0653331 L0.421333323,3.79866657 C-0.0173333329,3.39466658 -0.0493333321,3.06399992 0.321333325,2.80799993 C2.44399994,1.01466664 4.93066654,0.115999997 7.79066647,0.115999997 C9.73199976,0.115999997 11.6999997,0.554666653 13.6946663,1.43466663 C16.2253329,2.5346666 18.4359995,4.21999989 20.3253328,6.49199984 C21.4986661,7.9279998 22.4279994,9.49599976 23.1653328,11.1666664 C23.5946661,12.1386664 23.9746661,13.1359997 24.2559994,14.1879996 L25.9359994,20.4519995 L31.2826659,40.407999 L43.1333323,40.407999 L44.8106655,46.6733322 C45.0919989,47.7239988 45.4719989,48.7213321 45.9026655,49.6933321 L33.7706658,49.6933321 Z" id="path-1"></path>
        <linearGradient x1="61.9077691%" y1="106.456863%" x2="38.621691%" y2="-16.6985551%" id="linearGradient-3">
            <stop stop-color="#EC5E1B" offset="0%"></stop>
            <stop stop-color="#E22029" offset="100%"></stop>
        </linearGradient>
    </defs>
    <g id="Page-1" stroke="none" stroke-width="1" fill="none" fill-rule="evenodd">
        <g id="Group" transform="translate(0.733327, 1.733338)">
            <path d="M57.3399986,51.1186654 C58.6706652,51.705332 59.9906652,51.5039987 61.3013318,50.5159987 C61.6093318,50.2959987 61.9399985,50.3679987 62.2946651,50.7346654 L68.6453316,57.0013319 C69.0839983,57.4053319 69.1173316,57.7359986 68.7466649,57.9919986 C66.6239983,59.7853318 64.1359984,60.6839985 61.2773318,60.6839985 C59.3359985,60.6839985 57.3666652,60.2453318 55.3719986,59.3666652 C52.8426653,58.2666652 50.6319987,56.5786653 48.7426654,54.309332 C47.5693321,52.8719987 46.6386655,51.3039987 45.9013322,49.6333321 C45.4719989,48.6613321 45.0919989,47.6639988 44.8106655,46.6133322 L43.1333323,40.347999 L37.7853324,20.3919995 L25.9359994,20.3919995 L24.2559994,14.1279996 C23.9746661,13.0759997 23.5946661,12.0786664 23.1653328,11.1066664 L35.2973325,11.1066664 L32.4706659,0.769333314 C32.3439992,0.293333326 32.5199992,0.0559999986 32.9946658,0.0559999986 L40.855999,0.0559999986 C41.3306656,0.0559999986 41.6346656,0.293333326 41.7613323,0.769333314 L44.5453322,11.1573331 L52.0746654,11.1573331 C52.5506654,11.1573331 52.8546653,11.397333 52.981332,11.873333 L55.073332,19.6786662 C55.1999986,20.1546662 55.0239986,20.3919995 54.5479986,20.3919995 L47.0199988,20.3919995 L54.045332,46.6133322 C54.6639986,48.9213321 55.7599986,50.4253321 57.3399986,51.1186654" id="path14" fill="#171B37" fill-rule="nonzero" transform="translate(46.083466, 30.369999) scale(-1, 1) rotate(-180.000000) translate(-46.083466, -30.369999) "></path>
            <g id="g16" transform="translate(22.999999, 30.399999) scale(-1, 1) rotate(-180.000000) translate(-22.999999, -30.399999) translate(0.000000, -0.000000)">
                <g id="g18-Clipped">
                    <mask id="mask-2" fill="white">
                        <use xlink:href="#path-1"></use>
                    </mask>
                    <g id="path20"></g>
                    <g id="g18" mask="url(#mask-2)" fill="url(#linearGradient-3)" fill-rule="nonzero">
                        <path d="M33.7706658,49.6933321 L36.5973324,60.0306652 C36.7253324,60.5066652 36.5493324,60.7439985 36.0733324,60.7439985 L28.2133326,60.7439985 C27.7373326,60.7439985 27.4333326,60.5066652 27.3053327,60.0306652 L24.5239994,49.6426654 L16.9933329,49.6426654 C16.5173329,49.6426654 16.2133329,49.4039988 16.0853329,48.9266654 L13.9946663,41.1213323 C13.8666663,40.6453323 14.0426663,40.407999 14.5199996,40.407999 L22.0479994,40.407999 L15.0226663,14.1879996 C14.4039996,11.8786664 13.3066663,10.3759997 11.7279997,9.68133309 C10.3986664,9.09466644 9.07733311,9.2973331 7.76533314,10.2839997 C7.45866648,10.5039997 7.12799982,10.4319997 6.77333316,10.0653331 L0.421333323,3.79866657 C-0.0173333329,3.39466658 -0.0493333321,3.06399992 0.321333325,2.80799993 C2.44399994,1.01466664 4.93066654,0.115999997 7.79066647,0.115999997 C9.73199976,0.115999997 11.6999997,0.554666653 13.6946663,1.43466663 C16.2253329,2.5346666 18.4359995,4.21999989 20.3253328,6.49199984 C21.4986661,7.9279998 22.4279994,9.49599976 23.1653328,11.1666664 C23.5946661,12.1386664 23.9746661,13.1359997 24.2559994,14.1879996 L25.9359994,20.4519995 L31.2826659,40.407999 L43.1333323,40.407999 L44.8106655,46.6733322 C45.0919989,47.7239988 45.4719989,48.7213321 45.9026655,49.6933321 L33.7706658,49.6933321" id="path30"></path>
                    </g>
                </g>
            </g>
        </g>
    </g>
</svg>