<?xml version="1.0" encoding="UTF-8" standalone="no"?>
<!DOCTYPE svg PUBLIC "-//W3C//DTD SVG 1.1//EN" "http://www.w3.org/Graphics/SVG/1.1/DTD/svg11.dtd">
<svg width="100%" height="100%" viewBox="0 0 1046 643" version="1.1" xmlns="http://www.w3.org/2000/svg" xmlns:xlink="http://www.w3.org/1999/xlink" xml:space="preserve" xmlns:serif="http://www.serif.com/" style="fill-rule:evenodd;clip-rule:evenodd;stroke-linejoin:round;stroke-miterlimit:2;">
    <g transform="matrix(1,0,0,1,-232.187,-139.638)">
        <g transform="matrix(4.16667,0,0,4.16667,0,0)">
            <path d="M192.081,75.938C195.247,73.361 197.204,69.708 197.169,65.665C197.102,57.958 189.824,51.757 180.914,51.757C172.004,51.757 164.727,57.958 164.659,65.665C164.624,69.708 166.581,73.361 169.747,75.938C173.663,79.127 176.872,85.577 177.061,92.62C177.27,100.436 176.736,109.482 176.408,114.084C172.221,114.68 169.28,116.077 169.28,117.708C169.28,119.879 174.488,122.381 180.914,122.381C187.339,122.381 192.548,119.879 192.548,117.708C192.548,116.077 189.607,114.679 185.42,114.084C185.092,109.482 184.559,100.436 184.768,92.621C184.956,85.577 188.164,79.127 192.081,75.938Z" style="fill:white;fill-rule:nonzero;"/>
            <path d="M211.897,121.416C212.453,121.183 213.105,120.994 213.822,120.855C214.491,120.706 215.237,120.613 216.05,120.585C216.05,120.585 216.014,120.334 215.965,119.961C215.942,119.593 215.768,119.104 215.601,118.618C215.516,118.381 215.431,118.143 215.354,117.923C215.255,117.702 215.129,117.5 215.039,117.325C214.851,116.984 214.726,116.755 214.726,116.755C213.922,116.625 213.163,116.446 212.426,116.235C211.677,116.024 210.971,115.781 210.352,115.521C209.175,115.004 208.07,114.425 207.486,113.778C206.781,113.162 206.651,112.548 206.674,111.99C206.714,111.717 206.84,111.452 207.056,111.205C207.253,110.962 207.514,110.742 207.891,110.554C207.891,110.554 207.608,110.397 207.194,110.163C206.983,110.051 206.755,109.916 206.485,109.777C206.202,109.642 205.906,109.498 205.609,109.36C205.026,109.081 204.442,108.803 203.952,108.618C203.485,108.43 203.176,108.304 203.176,108.304C202.61,108.38 201.995,108.421 201.37,108.43C200.724,108.444 200.064,108.425 199.422,108.376C198.16,108.268 196.876,108.093 195.767,107.765C195.191,107.617 194.702,107.442 194.276,107.249C193.85,107.061 193.468,106.871 193.162,106.66C192.578,106.234 192.179,105.803 192.184,105.367C192.184,105.367 191.828,105.309 191.299,105.219C190.751,105.134 189.583,104.977 188.843,104.878C188.829,105.003 188.748,105.12 188.722,105.327L188.532,106.234C188.147,108.048 189.197,109.889 190.98,110.406C195.345,111.676 198.645,113.769 199.597,116.337C201.523,121.532 193.432,126.612 181.128,126.612C168.819,126.612 160.728,121.532 162.649,116.337C163.579,113.832 166.749,111.78 170.957,110.5C172.82,109.934 173.925,108.017 173.525,106.113L173.265,104.878C172.775,104.937 172.205,105.008 171.621,105.08C170.89,105.16 170.193,105.291 169.659,105.376C169.125,105.462 168.766,105.525 168.766,105.525C168.802,105.947 168.501,106.423 167.926,106.831C167.625,107.037 167.293,107.253 166.884,107.447C166.476,107.644 165.973,107.81 165.447,107.986C164.904,108.156 164.298,108.281 163.691,108.39C163.094,108.506 162.457,108.592 161.801,108.646C160.494,108.748 159.184,108.776 157.993,108.627C157.993,108.627 157.912,108.658 157.777,108.713C157.647,108.771 157.437,108.848 157.226,108.95C156.79,109.157 156.201,109.441 155.608,109.723C155.024,110.015 154.504,110.329 154.082,110.563C153.871,110.68 153.695,110.779 153.574,110.846C153.462,110.922 153.399,110.962 153.399,110.962C154.221,111.344 154.68,111.861 154.769,112.408C154.976,112.988 154.692,113.589 154.158,114.245C153.849,114.577 153.431,114.892 153.004,115.197C152.551,115.507 151.984,115.799 151.352,116.077C150.166,116.638 148.631,117.132 146.982,117.429C146.982,117.429 146.839,117.662 146.731,118.013C146.605,118.367 146.439,118.848 146.269,119.337C146.196,119.823 146.129,120.321 146.075,120.702C146.004,121.088 146.04,121.34 146.04,121.34C147.741,121.358 149.255,121.645 150.386,122.099C151.702,122.534 152.497,123.186 153.112,123.981C153.597,124.838 153.79,125.736 153.359,126.774C153.059,127.783 152.231,128.91 150.885,129.935C150.885,129.935 150.961,130.002 151.092,130.116C151.239,130.222 151.455,130.374 151.716,130.56C152.25,130.927 152.923,131.448 153.714,131.919C154.549,132.377 155.397,132.84 156.04,133.195C156.358,133.374 156.682,133.487 156.884,133.581C157.095,133.675 157.217,133.725 157.217,133.725C159.115,132.911 161.154,132.494 163.193,132.279C164.213,132.171 165.214,132.144 166.17,132.206C167.145,132.256 168.137,132.332 169.066,132.553C169.987,132.795 170.885,133.024 171.671,133.374C172.471,133.72 173.18,134.173 173.854,134.609C175.196,135.526 176.229,136.819 176.673,138.179C176.673,138.179 177.365,138.206 178.402,138.246C179.443,138.274 180.831,138.367 182.215,138.296C183.598,138.251 184.985,138.229 186.014,138.161C187.028,138.062 187.706,137.999 187.706,137.999C187.85,137.29 188.164,136.62 188.596,136.015C188.807,135.718 189.049,135.436 189.318,135.17C189.579,134.897 189.853,134.618 190.158,134.371C190.76,133.877 191.447,133.45 192.224,133.11C192.979,132.754 193.786,132.422 194.721,132.211C195.672,132.023 196.566,131.834 197.536,131.767C198.492,131.691 199.534,131.736 200.5,131.776C202.471,131.883 204.657,132.337 206.558,133.056C206.558,133.056 206.98,132.822 207.608,132.472C208.21,132.113 209.076,131.686 209.741,131.156C210.419,130.653 211.133,130.177 211.564,129.782C211.986,129.387 212.26,129.127 212.26,129.127C210.846,128.152 210.032,127.106 209.512,126.073C209.27,125.574 209.202,125.108 209.189,124.645C209.152,124.178 209.251,123.742 209.512,123.338C209.88,122.512 210.823,121.902 211.897,121.416Z" style="fill:white;fill-rule:nonzero;"/>
            <path d="M170.249,95.884C170.249,95.884 172.076,88.963 164.139,80.032L163.875,79.757C160.53,75.793 158.689,70.764 158.689,65.595C158.689,53.462 168.571,43.588 180.721,43.588L181.232,43.588C193.381,43.588 203.266,53.462 203.266,65.595C203.266,70.764 201.423,75.793 198.082,79.753C198.043,79.798 197.953,79.89 197.818,80.026C190.771,87.083 191.704,95.884 191.704,95.884C204.572,91.447 213.267,79.347 213.34,65.773C213.433,48.804 199.734,34.339 182.808,33.527C182.597,33.517 182.388,33.513 182.178,33.513C181.923,33.513 180.97,33.531 180.976,33.531C180.947,33.531 180.03,33.513 179.775,33.513C179.566,33.513 179.356,33.517 179.148,33.527C162.218,34.339 148.521,48.804 148.613,65.773C148.686,79.347 157.38,91.447 170.249,95.884Z" style="fill:white;fill-rule:nonzero;"/>
            <path d="M72.916,184.816C70.972,186.732 68.462,187.622 65.737,187.622C58.72,187.622 55.752,182.792 55.725,177.88C55.698,172.942 58.909,167.922 65.737,167.922C68.3,167.922 70.73,168.894 72.672,170.81L70.298,173.104C69.056,171.889 67.383,171.323 65.737,171.323C61.176,171.323 59.206,174.723 59.233,177.88C59.26,181.011 61.068,184.277 65.737,184.277C67.383,184.277 69.246,183.602 70.487,182.361L72.916,184.816Z" style="fill:white;fill-rule:nonzero;"/>
            <path d="M80.908,168.3L80.908,183.898L90.624,183.898L90.624,187.191L77.345,187.191L77.345,168.3L80.908,168.3Z" style="fill:white;fill-rule:nonzero;"/>
            <path d="M97.94,177.935C98.021,181.037 99.695,184.357 104.147,184.357C108.601,184.357 110.274,181.011 110.327,177.907C110.382,174.723 108.601,171.16 104.147,171.16C99.695,171.16 97.86,174.749 97.94,177.935ZM113.836,177.854C113.782,182.738 110.786,187.622 104.147,187.622C97.508,187.622 94.432,182.846 94.432,177.88C94.432,172.914 97.617,167.922 104.147,167.922C110.651,167.922 113.89,172.914 113.836,177.854Z" style="fill:white;fill-rule:nonzero;"/>
            <path d="M135.728,168.327L135.728,179.149C135.728,184.736 132.301,187.595 127.551,187.595C123.017,187.595 119.157,184.843 119.157,179.149L119.157,168.327L122.693,168.327L122.693,179.149C122.693,182.549 124.636,184.357 127.577,184.357C130.52,184.357 132.192,182.387 132.192,179.149L132.192,168.327L135.728,168.327Z" style="fill:white;fill-rule:nonzero;"/>
            <path d="M145.205,183.764L149.091,183.764C153.382,183.764 155.082,180.633 155.001,177.556C154.92,174.615 153.193,171.673 149.091,171.673L145.205,171.673L145.205,183.764ZM158.537,177.583C158.617,182.361 155.703,187.191 149.091,187.191L141.67,187.191L141.67,168.3L149.091,168.3C155.567,168.3 158.455,172.914 158.537,177.583Z" style="fill:white;fill-rule:nonzero;"/>
            <path d="M168.641,177.379L179.525,177.379L179.525,178.756L168.641,178.756L168.641,187.32L167.182,187.32L167.182,168.384L179.904,168.384L179.904,169.843L168.641,169.843L168.641,177.379Z" style="fill:white;fill-rule:nonzero;"/>
            <path d="M224.556,168.375L224.556,180.089C224.556,189.945 210.122,189.972 210.122,180.089L210.122,168.375L211.55,168.375L211.55,180.089C211.55,188.194 223.129,188.167 223.129,180.089L223.129,168.375L224.556,168.375Z" style="fill:white;fill-rule:nonzero;"/>
            <path d="M231.179,168.375L243.862,183.967L243.862,168.375L245.289,168.375L245.289,187.225L244.724,187.225L232.014,171.66L232.014,187.225L230.56,187.225L230.56,168.375L231.179,168.375Z" style="fill:white;fill-rule:nonzero;"/>
            <path d="M252.827,169.748L252.827,185.824L257.755,185.824C263.356,185.824 265.94,181.623 265.86,177.584C265.779,173.654 263.194,169.748 257.755,169.748L252.827,169.748ZM267.314,177.584C267.422,182.378 264.352,187.225 257.755,187.225L251.373,187.225L251.373,168.375L257.755,168.375C264.137,168.375 267.207,172.953 267.314,177.584Z" style="fill:white;fill-rule:nonzero;"/>
            <path d="M274.099,178.715L280.777,178.715C284.063,178.715 285.517,176.858 285.544,174.219C285.57,172.011 284.063,169.722 280.939,169.722L274.099,169.722L274.099,178.715ZM287.671,187.225L285.759,187.225L279.242,180.089L274.099,180.089L274.099,187.225L272.645,187.225L272.645,168.375L280.939,168.375C285.032,168.375 287.105,171.311 287.132,174.245C287.159,177.316 285.139,180.008 281.02,180.008L287.671,187.225Z" style="fill:white;fill-rule:nonzero;"/>
            <path d="M297.848,179.685L290.496,168.403L290.496,168.375L292.192,168.375L298.574,178.284L304.983,168.375L306.68,168.375L306.68,168.403L299.302,179.685L299.302,187.225L297.848,187.225L297.848,179.685Z" style="fill:white;fill-rule:nonzero;"/>
            <path d="M186.813,177.734C186.84,181.962 189.516,186.084 194.842,186.084C200.194,186.084 202.897,181.962 202.897,177.734C202.897,173.399 200.221,169.41 194.842,169.41C189.462,169.41 186.786,173.319 186.813,177.734ZM204.289,177.761C204.263,182.685 201.131,187.422 194.842,187.422C188.553,187.422 185.395,182.658 185.395,177.707C185.395,172.676 188.525,168.073 194.842,168.073C201.157,168.073 204.316,172.702 204.289,177.761Z" style="fill:white;fill-rule:nonzero;"/>
        </g>
    </g>
</svg>
