<?xml version="1.0" encoding="UTF-8" standalone="no"?>
<!DOCTYPE svg PUBLIC "-//W3C//DTD SVG 1.1//EN" "http://www.w3.org/Graphics/SVG/1.1/DTD/svg11.dtd">
<svg width="100%" height="100%" viewBox="0 0 64 64" version="1.1" xmlns="http://www.w3.org/2000/svg" xmlns:xlink="http://www.w3.org/1999/xlink" xml:space="preserve" xmlns:serif="http://www.serif.com/" style="fill-rule:evenodd;clip-rule:evenodd;stroke-linejoin:round;stroke-miterlimit:2;">
    <g id="Artboard1" transform="matrix(1,0,0,1,-387.031,-188.687)">
        <rect x="387.031" y="188.687" width="64" height="64" style="fill:none;"/>
        <g transform="matrix(1,0,0,1,419.062,221.374)">
            <g transform="matrix(1,0,0,1,-32,-32)">
                <path d="M35.5,21.7L30.9,21.7C30.3,21.7 29.7,22.2 29.7,22.9C29.7,23.6 30.2,24.1 30.9,24.1L35.5,24.1C36.2,24.1 36.7,23.6 36.7,22.9C36.7,22.2 36.2,21.7 35.5,21.7ZM34.5,12.8C34.3,12.4 33.9,12.2 33.4,12.2L28.8,12.2C28.4,12.2 28,12.4 27.7,12.8C27.5,13.2 27.5,13.6 27.7,14C27.9,14.4 28.3,14.6 28.8,14.6L33.4,14.6C33.8,14.6 34.2,14.4 34.5,14C34.7,13.6 34.7,13.2 34.5,12.8ZM35.5,16.9L28.8,16.9C28.4,16.9 28,17.1 27.7,17.5C27.5,17.9 27.5,18.3 27.7,18.7C27.9,19.1 28.3,19.3 28.8,19.3L35.5,19.3C36.1,19.3 36.6,18.7 36.6,18.1C36.6,17.4 36.1,16.9 35.5,16.9ZM47.7,32.3C47.5,32.2 47.3,32.2 47.1,32.2L17.7,32.2C17.2,32.2 16.7,32.3 16.3,32.6C15,33.2 14.4,34.7 14.6,36.1C14.9,37.5 16.1,38.5 17.5,38.6C18.9,38.7 20.2,37.8 20.7,36.5L20.7,44.7C21.7,45.6 22.8,46.4 24,47L24,35.5L27.3,35.5L27.3,49.8C28.4,50.1 29.5,50.4 30.6,50.5L30.6,35.5L33.9,35.5L33.9,50.5C35,50.4 36.1,50.2 37.2,49.8L37.2,35.5L40.5,35.5L40.5,46.8C41.7,46.2 42.8,45.4 43.8,44.5L43.8,35.4C43.9,37 45.1,38.3 46.7,38.4C48.3,38.5 49.7,37.4 50,35.8C50.2,34.3 49.3,32.8 47.7,32.3ZM18.8,35.8L18.1,36.5L17.2,36.5L16.5,35.8L16.5,34.9L17.2,34.2L18.1,34.2L18.8,34.9L18.8,35.8ZM47.9,35.8L47.2,36.5L46.3,36.5L45.6,35.8L45.6,34.9L46.3,34.2L47.2,34.2L47.9,34.9L47.9,35.8Z" style="fill:rgb(50,108,230);fill-rule:nonzero;"/>
                <path d="M58.2,32C57.2,32 56.2,32.1 55.3,32.3C55.1,28.5 53.9,24.9 52,21.7C52.9,21.3 53.7,20.7 54.5,20.1C57,18.1 58.5,15.7 57.8,14.8C57.1,13.8 54.4,14.7 51.9,16.7C51.2,17.3 50.5,17.9 49.9,18.6C48.9,17.5 47.8,16.4 46.6,15.4C45.1,14.2 43.3,13.1 41.6,12.3C41.5,12.3 41.5,12.3 41.4,12.2C40.5,8.9 37.5,6.6 34.1,6.6L25.8,6.6C24.3,6.6 23,7.9 23,9.4L23,12.2C21.2,13 19.6,14 18.1,15.2C16.8,16.2 15.7,17.3 14.7,18.6C14.1,17.8 13.3,17.1 12.5,16.5C10,14.5 7.3,13.6 6.6,14.6C5.9,15.5 7.3,17.9 9.9,19.9C10.7,20.6 11.6,21.1 12.6,21.6C10.7,24.8 9.6,28.4 9.4,32.2C8,32.2 6.9,32 5.8,32C2.6,32 0,33 0,34.2C0,35.4 2.6,36.4 5.8,36.4C6.9,36.4 8,36.3 9.1,36C9.4,39.5 10.5,42.9 12.4,45.9C11.4,46.4 10.5,46.9 9.6,47.6C7.1,49.6 5.6,52 6.3,53C7,53.9 9.7,53.1 12.2,51.1C13,50.5 13.8,49.7 14.4,48.9C14.7,49.3 15.1,49.7 15.5,50.1C19.7,54.6 25.6,57.2 31.8,57.3L32.1,57.3C38.2,57.3 44,54.9 48.3,50.6C48.8,50.1 49.2,49.7 49.6,49.2C50.2,49.9 50.9,50.6 51.7,51.2C54.2,53.2 56.9,54.1 57.6,53.1C58.3,52.2 56.9,49.8 54.3,47.8C53.5,47.2 52.7,46.6 51.8,46.2C53.6,43.2 54.8,39.8 55.1,36.2C56.1,36.4 57.1,36.5 58.1,36.5C61.3,36.5 63.9,35.5 63.9,34.3C64,33 61.4,32 58.2,32ZM26,21.9L26,10.1L33.9,10.1C36.3,10.1 38.2,12 38.2,14.5L38.2,26.3L30.3,26.3C27.9,26.3 26,24.3 26,21.9ZM46.1,48.1C40.6,53.6 32.4,55.3 25.1,52.5C17.8,49.7 12.9,42.9 12.4,35.1C11.9,27.3 16,19.9 22.8,16.1L22.8,22C22.8,26.2 26.2,29.7 30.4,29.7L38.7,29.7C40.2,29.7 41.5,28.4 41.5,26.9L41.5,16.1C48,19.7 52,26.4 52,33.8C52,39.2 49.9,44.4 46.1,48.1Z" style="fill:rgb(50,108,230);fill-rule:nonzero;"/>
            </g>
        </g>
    </g>
</svg>
