<svg enable-background="new 0 0 64 64" height="64" viewBox="0 0 64 64" width="64" xmlns="http://www.w3.org/2000/svg"><path d="m35.5 21.7h-4.6c-.6 0-1.2.5-1.2 1.2s.5 1.2 1.2 1.2h4.6c.7 0 1.2-.5 1.2-1.2s-.5-1.2-1.2-1.2zm-1-8.9c-.2-.4-.6-.6-1.1-.6h-4.6c-.4 0-.8.2-1.1.6-.2.4-.2.8 0 1.2s.6.6 1.1.6h4.6c.4 0 .8-.2 1.1-.6.2-.4.2-.8 0-1.2zm1 4.1h-6.7c-.4 0-.8.2-1.1.6-.2.4-.2.8 0 1.2s.6.6 1.1.6h6.7c.6 0 1.1-.6 1.1-1.2 0-.7-.5-1.2-1.1-1.2zm12.2 15.4c-.2-.1-.4-.1-.6-.1h-29.4c-.5 0-1 .1-1.4.4-1.3.6-1.9 2.1-1.7 3.5.3 1.4 1.5 2.4 2.9 2.5s2.7-.8 3.2-2.1v8.2c1 .9 2.1 1.7 3.3 2.3v-11.5h3.3v14.3c1.1.3 2.2.6 3.3.7v-15h3.3v15c1.1-.1 2.2-.3 3.3-.7v-14.3h3.3v11.3c1.2-.6 2.3-1.4 3.3-2.3v-9.1c.1 1.6 1.3 2.9 2.9 3s3-1 3.3-2.6c.2-1.5-.7-3-2.3-3.5zm-28.9 3.5-.7.7h-.9l-.7-.7v-.9l.7-.7h.9l.7.7zm29.1 0-.7.7h-.9l-.7-.7v-.9l.7-.7h.9l.7.7z"/><path d="m58.2 32c-1 0-2 .1-2.9.3-.2-3.8-1.4-7.4-3.3-10.6.9-.4 1.7-1 2.5-1.6 2.5-2 4-4.4 3.3-5.3-.7-1-3.4-.1-5.9 1.9-.7.6-1.4 1.2-2 1.9-1-1.1-2.1-2.2-3.3-3.2-1.5-1.2-3.3-2.3-5-3.1-.1 0-.1 0-.2-.1-.9-3.3-3.9-5.6-7.3-5.6h-8.3c-1.5 0-2.8 1.3-2.8 2.8v2.8c-1.8.8-3.4 1.8-4.9 3-1.3 1-2.4 2.1-3.4 3.4-.6-.8-1.4-1.5-2.2-2.1-2.5-2-5.2-2.9-5.9-1.9-.7.9.7 3.3 3.3 5.3.8.7 1.7 1.2 2.7 1.7-1.9 3.2-3 6.8-3.2 10.6-1.4 0-2.5-.2-3.6-.2-3.2 0-5.8 1-5.8 2.2s2.6 2.2 5.8 2.2c1.1 0 2.2-.1 3.3-.4.3 3.5 1.4 6.9 3.3 9.9-1 .5-1.9 1-2.8 1.7-2.5 2-4 4.4-3.3 5.4.7.9 3.4.1 5.9-1.9.8-.6 1.6-1.4 2.2-2.2.3.4.7.8 1.1 1.2 4.2 4.5 10.1 7.1 16.3 7.2h.3c6.1 0 11.9-2.4 16.2-6.7.5-.5.9-.9 1.3-1.4.6.7 1.3 1.4 2.1 2 2.5 2 5.2 2.9 5.9 1.9.7-.9-.7-3.3-3.3-5.3-.8-.6-1.6-1.2-2.5-1.6 1.8-3 3-6.4 3.3-10 1 .2 2 .3 3 .3 3.2 0 5.8-1 5.8-2.2.1-1.3-2.5-2.3-5.7-2.3zm-32.2-15.5v-6.4h7.9c2.4 0 4.3 1.9 4.3 4.4v11.8h-7.9c-2.4 0-4.3-2-4.3-4.4zm20.1 31.6c-5.5 5.5-13.7 7.2-21 4.4s-12.2-9.6-12.7-17.4 3.6-15.2 10.4-19v5.9c0 4.2 3.4 7.7 7.6 7.7h8.3c1.5 0 2.8-1.3 2.8-2.8v-10.8c6.5 3.6 10.5 10.3 10.5 17.7 0 5.4-2.1 10.6-5.9 14.3z"/></svg>