<?xml version="1.0" encoding="UTF-8" standalone="no"?>
<!DOCTYPE svg PUBLIC "-//W3C//DTD SVG 1.1//EN" "http://www.w3.org/Graphics/SVG/1.1/DTD/svg11.dtd">
<svg width="100%" height="100%" viewBox="0 0 355 178" version="1.1" xmlns="http://www.w3.org/2000/svg" xmlns:xlink="http://www.w3.org/1999/xlink" xml:space="preserve" xmlns:serif="http://www.serif.com/" style="fill-rule:evenodd;clip-rule:evenodd;stroke-linejoin:round;stroke-miterlimit:2;">
    <g id="Artboard1" transform="matrix(1,0,0,1,-222.754,-211.377)">
        <rect x="222.754" y="211.377" width="354.493" height="177.246" style="fill:none;"/>
        <g transform="matrix(2.95411,0,0,2.95411,400.754,300.377)">
            <g transform="matrix(1,0,0,1,-60,-30)">
                <path d="M15.7,43.3C17.8,43.3 18.9,44.6 18.9,44.6L17.9,46.3C17.9,46.3 17,45.4 15.8,45.4C14.2,45.4 13.4,46.7 13.4,48C13.4,49.3 14.2,50.7 15.8,50.7C17.1,50.7 18,49.6 18,49.6L19.1,51.2C18.2,52.2 17,52.7 15.7,52.7C13.1,52.7 11.3,50.7 11.3,48.1C11.3,45.3 13.2,43.3 15.7,43.3Z" style="fill-rule:nonzero;"/>
                <path d="M20.9,43.4L22.9,43.4L22.9,47L26,47L26,43.4L28.1,43.4L28.1,52.4L26,52.4L26,48.9L22.9,48.9L22.9,52.4L20.9,52.4L20.9,43.4Z" style="fill-rule:nonzero;"/>
                <path d="M44,49.3C43.9,49.1 43.8,48.9 43.7,48.8C44.5,48.3 45,47.3 45,46.4C45,45.1 44.4,44.2 43.4,43.8C43,43.7 42.6,43.6 41.8,43.6L38.9,43.6L38.9,52.6L41,52.6L41,49.6L42,49.6L43.5,52.6L45.8,52.6L44,49.3ZM41.8,47.5L40.9,47.5L40.9,45.3L41.6,45.3C42.6,45.3 42.9,45.7 42.9,46.4C42.9,47.1 42.4,47.5 41.8,47.5ZM34.5,43.4L32.3,43.4L29.4,52.4L31.5,52.4L32,50.5L34.6,50.5L35.1,52.4L37.2,52.4L34.5,43.4ZM32.6,48.8L33.1,47.1C33.3,46.5 33.4,45.6 33.4,45.6C33.4,45.6 33.6,46.6 33.7,47.1L34.2,48.8L32.6,48.8Z" style="fill-rule:nonzero;"/>
                <path d="M49,45.3L46.4,45.3L46.4,43.4L53.6,43.4L53.6,45.3L51.1,45.3L51.1,52.4L49,52.4L49,45.3Z" style="fill-rule:nonzero;"/>
                <path d="M77.4,46C77.4,45.5 77.9,45.3 78.3,45.3C79.3,45.3 80.2,46.1 80.2,46.1L81.1,44.3C81.1,44.3 80.2,43.3 78.4,43.3C76.7,43.3 75.4,44.4 75.4,46C75.4,48.8 79.2,48.7 79.2,49.8C79.2,50.3 78.7,50.5 78.3,50.5C77.2,50.5 76.3,49.6 76.3,49.6L75.2,51.3C75.2,51.3 76.3,52.6 78.3,52.6C80.2,52.6 81.3,51.3 81.3,49.8C81.2,46.9 77.4,47.1 77.4,46ZM71.3,43.4L71.3,49.1C71.3,50 70.7,50.5 69.8,50.5C68.9,50.5 68.3,50 68.3,49.1L68.3,43.4L66.2,43.4L66.2,49.1C66.2,51.1 67.6,52.5 69.7,52.5C71.8,52.5 73.2,51.1 73.2,49.1L73.2,43.4L71.3,43.4ZM63.6,43.4L61.4,43.4L60.2,47.2C60,47.8 59.8,48.7 59.8,48.7C59.8,48.7 59.6,47.8 59.4,47.2L58,43.4L55.8,43.4L55.1,52.4L57.2,52.4L57.5,48.4L57.5,46.9C57.5,46.4 57.8,47.8 58,48.4L58.9,51L60.7,51L61.6,48.4C61.8,47.8 62.1,46.9 62.1,46.9L62.1,48.4L62.4,52.4L64.5,52.4L63.6,43.4Z" style="fill:rgb(50,108,230);fill-rule:nonzero;"/>
                <path d="M83.1,43.4L88.3,43.4L88.3,45.3L85.1,45.3L85.1,46.9L87.7,46.9L87.7,48.8L85.1,48.8L85.1,50.5L88.5,50.5L88.5,52.4L83,52.4L83.1,43.4Z" style="fill:rgb(50,108,230);fill-rule:nonzero;"/>
                <path d="M108,43.4L105.8,43.4L104.6,47.2C104.4,47.8 104.2,48.7 104.2,48.7C104.2,48.7 104,47.8 103.8,47.2L102.6,43.4L100.4,43.4L99.7,52.4L101.8,52.4L102.1,48.4L102.1,46.9C102.1,46.4 102.4,47.8 102.6,48.4L103.5,51L105.3,51L106.2,48.4C106.4,47.8 106.7,46.9 106.7,46.9L106.7,48.4L107,52.4L109.1,52.4L108,43.4ZM95.3,43.4L95.3,49.1C95.3,50 94.7,50.5 93.8,50.5C92.9,50.5 92.3,50 92.3,49.1L92.3,43.4L90.2,43.4L90.2,49.1C90.2,51.1 91.6,52.5 93.7,52.5C95.8,52.5 97.2,51.1 97.2,49.1L97.2,43.4L95.3,43.4Z" style="fill:rgb(50,108,230);fill-rule:nonzero;"/>
                <path d="M62.3,13.8L59.3,13.8C58.9,13.8 58.5,14.2 58.5,14.6C58.5,15 58.9,15.4 59.3,15.4L62.3,15.4C62.7,15.4 63.1,15 63.1,14.6C63.1,14.2 62.7,13.8 62.3,13.8ZM61.6,8C61.4,7.7 61.2,7.6 60.9,7.6L57.9,7.6C57.6,7.6 57.3,7.7 57.2,8C57.1,8.3 57.1,8.6 57.2,8.8C57.4,9 57.6,9.2 57.9,9.2L60.9,9.2C61.2,9.2 61.5,9.1 61.6,8.8C61.8,8.6 61.8,8.3 61.6,8ZM62.3,10.7L57.9,10.7C57.6,10.7 57.3,10.8 57.2,11.1C57.1,11.4 57.1,11.7 57.2,11.9C57.4,12.1 57.6,12.3 57.9,12.3L62.3,12.3C62.7,12.3 63,11.9 63,11.5C63,11.1 62.7,10.7 62.3,10.7ZM70.3,20.8C70.2,20.7 70,20.7 69.9,20.7L50.6,20.7C50.3,20.7 49.9,20.8 49.7,20.9C48.9,21.3 48.4,22.3 48.6,23.2C48.8,24.1 49.6,24.8 50.5,24.9C51.4,25 52.3,24.4 52.6,23.5L52.6,28.9C53.3,29.5 54,30 54.8,30.4L54.8,23L57,23L57,32.4C57.7,32.6 58.4,32.8 59.2,32.9L59.2,23.1L61.4,23.1L61.4,32.9C62.1,32.8 62.9,32.7 63.6,32.4L63.6,23L65.8,23L65.8,30.4C66.6,30 67.3,29.5 68,28.9L68,23C68.1,24.1 68.9,24.9 69.9,25C70.9,25.1 71.9,24.3 72.1,23.3C71.9,22.2 71.3,21.1 70.3,20.8ZM51.3,23.1L50.9,23.5L50.3,23.5L49.9,23.1L49.9,22.5L50.3,22.1L50.9,22.1L51.3,22.5L51.3,23.1ZM70.4,23.1L70,23.6L69.4,23.6L69,23.1L69,22.5L69.4,22.1L70,22.1L70.4,22.5L70.4,23.1Z" style="fill:rgb(50,108,230);fill-rule:nonzero;"/>
                <path d="M77.2,20.7C76.5,20.7 75.9,20.8 75.3,20.9C75.1,18.4 74.4,16 73.1,13.9C73.7,13.6 74.2,13.3 74.7,12.9C76.4,11.6 77.3,10 76.8,9.4C76.3,8.8 74.6,9.3 72.9,10.7C72.4,11.1 72,11.5 71.6,12C71,11.2 70.2,10.5 69.5,9.9C68.5,9.1 67.4,8.4 66.2,7.9L66.1,7.9C65.5,5.7 63.5,4.3 61.3,4.3L55.8,4.3C54.8,4.3 54,5.1 54,6.2L54,8C52.8,8.5 51.8,9.2 50.8,10C50,10.7 49.2,11.4 48.6,12.2C48.2,11.7 47.7,11.2 47.2,10.8C45.5,9.5 43.8,8.9 43.3,9.5C42.8,10.1 43.8,11.7 45.4,13C45.9,13.4 46.5,13.8 47.2,14.1C46,16.2 45.2,18.6 45.1,21C44.4,20.8 43.7,20.8 43,20.8C40.9,20.8 39.2,21.4 39.2,22.2C39.2,23 40.9,23.6 43,23.6C43.7,23.6 44.4,23.5 45.2,23.3C45.4,25.6 46.1,27.8 47.3,29.8C46.7,30.1 46,30.5 45.5,30.9C43.9,32.2 42.9,33.8 43.4,34.4C43.9,35 45.6,34.5 47.3,33.1C47.8,32.7 48.3,32.2 48.8,31.7C49,32 49.3,32.2 49.5,32.5C52.3,35.5 56.1,37.1 60.2,37.2L60.4,37.2C64.4,37.2 68.2,35.6 71.1,32.8C71.4,32.5 71.7,32.2 72,31.9C72.4,32.4 72.9,32.8 73.4,33.2C75.1,34.5 76.8,35.1 77.3,34.5C77.8,33.9 76.8,32.3 75.2,31C74.7,30.6 74.1,30.2 73.6,29.9C74.8,27.9 75.6,25.7 75.8,23.4C76.4,23.5 77.1,23.6 77.8,23.6C79.9,23.6 81.6,23 81.6,22.2C81,21.3 79.3,20.7 77.2,20.7ZM56.1,14L56.1,6.3L61.3,6.3C62.9,6.3 64.1,7.6 64.1,9.2L64.1,16.9L58.9,16.9C57.3,16.9 56.1,15.6 56.1,14ZM69.2,31.2C65.6,34.8 60.2,35.9 55.4,34.1C50.6,32.3 47.4,27.8 47.1,22.7C46.8,17.6 49.4,12.7 53.9,10.3L53.9,14.1C53.9,16.9 56.1,19.1 58.9,19.1L64.4,19.1C65.4,19.1 66.2,18.3 66.2,17.2L66.2,10.2C70.4,12.5 73.1,17 73.1,21.8C73.1,25.4 71.7,28.7 69.2,31.2Z" style="fill:rgb(50,108,230);fill-rule:nonzero;"/>
            </g>
        </g>
    </g>
</svg>
