<svg enable-background="new 0 0 120 60" height="60" viewBox="0 0 120 60" width="120" xmlns="http://www.w3.org/2000/svg"><path d="m15.7 43.3c2.1 0 3.2 1.3 3.2 1.3l-1 1.7s-.9-.9-2.1-.9c-1.6 0-2.4 1.3-2.4 2.6s.8 2.7 2.4 2.7c1.3 0 2.2-1.1 2.2-1.1l1.1 1.6c-.9 1-2.1 1.5-3.4 1.5-2.6 0-4.4-2-4.4-4.6 0-2.8 1.9-4.8 4.4-4.8z"/><path d="m20.9 43.4h2v3.6h3.1v-3.6h2.1v9h-2.1v-3.5h-3.1v3.5h-2z"/><path d="m44 49.3c-.1-.2-.2-.4-.3-.5.8-.5 1.3-1.5 1.3-2.4 0-1.3-.6-2.2-1.6-2.6-.4-.1-.8-.2-1.6-.2h-2.9v9h2.1v-3h1l1.5 3h2.3zm-2.2-1.8h-.9v-2.2h.7c1 0 1.3.4 1.3 1.1s-.5 1.1-1.1 1.1zm-7.3-4.1h-2.2l-2.9 9h2.1l.5-1.9h2.6l.5 1.9h2.1zm-1.9 5.4.5-1.7c.2-.6.3-1.5.3-1.5s.2 1 .3 1.5l.5 1.7z"/><path d="m49 45.3h-2.6v-1.9h7.2v1.9h-2.5v7.1h-2.1z"/><path d="m77.4 46c0-.5.5-.7.9-.7 1 0 1.9.8 1.9.8l.9-1.8s-.9-1-2.7-1c-1.7 0-3 1.1-3 2.7 0 2.8 3.8 2.7 3.8 3.8 0 .5-.5.7-.9.7-1.1 0-2-.9-2-.9l-1.1 1.7s1.1 1.3 3.1 1.3c1.9 0 3-1.3 3-2.8-.1-2.9-3.9-2.7-3.9-3.8zm-6.1-2.6v5.7c0 .9-.6 1.4-1.5 1.4s-1.5-.5-1.5-1.4v-5.7h-2.1v5.7c0 2 1.4 3.4 3.5 3.4s3.5-1.4 3.5-3.4v-5.7zm-7.7 0h-2.2l-1.2 3.8c-.2.6-.4 1.5-.4 1.5s-.2-.9-.4-1.5l-1.4-3.8h-2.2l-.7 9h2.1l.3-4c0-.5 0-1 0-1.5s.3.9.5 1.5l.9 2.6h1.8l.9-2.6c.2-.6.5-1.5.5-1.5v1.5l.3 4h2.1z"/><path d="m83.1 43.4h5.2v1.9h-3.2v1.6h2.6v1.9h-2.6v1.7h3.4v1.9h-5.5z"/><path d="m108 43.4h-2.2l-1.2 3.8c-.2.6-.4 1.5-.4 1.5s-.2-.9-.4-1.5l-1.2-3.8h-2.2l-.7 9h2.1l.3-4c0-.5 0-1 0-1.5s.3.9.5 1.5l.9 2.6h1.8l.9-2.6c.2-.6.5-1.5.5-1.5v1.5l.3 4h2.1zm-12.7 0v5.7c0 .9-.6 1.4-1.5 1.4s-1.5-.5-1.5-1.4v-5.7h-2.1v5.7c0 2 1.4 3.4 3.5 3.4s3.5-1.4 3.5-3.4v-5.7z"/><path d="m62.3 13.8h-3c-.4 0-.8.4-.8.8s.4.8.8.8h3c.4 0 .8-.4.8-.8s-.4-.8-.8-.8zm-.7-5.8c-.2-.3-.4-.4-.7-.4h-3c-.3 0-.6.1-.7.4s-.1.6 0 .8c.2.2.4.4.7.4h3c.3 0 .6-.1.7-.4.2-.2.2-.5 0-.8zm.7 2.7h-4.4c-.3 0-.6.1-.7.4s-.1.6 0 .8c.2.2.4.4.7.4h4.4c.4 0 .7-.4.7-.8s-.3-.8-.7-.8zm8 10.1c-.1-.1-.3-.1-.4-.1h-19.3c-.3 0-.7.1-.9.2-.8.4-1.3 1.4-1.1 2.3s1 1.6 1.9 1.7 1.8-.5 2.1-1.4v5.4c.7.6 1.4 1.1 2.2 1.5v-7.4h2.2v9.4c.7.2 1.4.4 2.2.5v-9.8h2.2v9.8c.7-.1 1.5-.2 2.2-.5v-9.4h2.2v7.4c.8-.4 1.5-.9 2.2-1.5v-5.9c.1 1.1.9 1.9 1.9 2s2-.7 2.2-1.7c-.2-1.1-.8-2.2-1.8-2.5zm-19 2.3-.4.4h-.6l-.4-.4v-.6l.4-.4h.6l.4.4zm19.1 0-.4.5h-.6l-.4-.5v-.6l.4-.4h.6l.4.4z"/><path d="m77.2 20.7c-.7 0-1.3.1-1.9.2-.2-2.5-.9-4.9-2.2-7 .6-.3 1.1-.6 1.6-1 1.7-1.3 2.6-2.9 2.1-3.5s-2.2-.1-3.9 1.3c-.5.4-.9.8-1.3 1.3-.6-.8-1.4-1.5-2.1-2.1-1-.8-2.1-1.5-3.3-2h-.1c-.6-2.2-2.6-3.6-4.8-3.6h-5.5c-1 0-1.8.8-1.8 1.9v1.8c-1.2.5-2.2 1.2-3.2 2-.8.7-1.6 1.4-2.2 2.2-.4-.5-.9-1-1.4-1.4-1.7-1.3-3.4-1.9-3.9-1.3s.5 2.2 2.1 3.5c.5.4 1.1.8 1.8 1.1-1.2 2.1-2 4.5-2.1 6.9-.7-.2-1.4-.2-2.1-.2-2.1 0-3.8.6-3.8 1.4s1.7 1.4 3.8 1.4c.7 0 1.4-.1 2.2-.3.2 2.3.9 4.5 2.1 6.5-.6.3-1.3.7-1.8 1.1-1.6 1.3-2.6 2.9-2.1 3.5s2.2.1 3.9-1.3c.5-.4 1-.9 1.5-1.4.2.3.5.5.7.8 2.8 3 6.6 4.6 10.7 4.7h.2c4 0 7.8-1.6 10.7-4.4.3-.3.6-.6.9-.9.4.5.9.9 1.4 1.3 1.7 1.3 3.4 1.9 3.9 1.3s-.5-2.2-2.1-3.5c-.5-.4-1.1-.8-1.6-1.1 1.2-2 2-4.2 2.2-6.5.6.1 1.3.2 2 .2 2.1 0 3.8-.6 3.8-1.4-.6-.9-2.3-1.5-4.4-1.5zm-21.1-10.2v-4.2h5.2c1.6 0 2.8 1.3 2.8 2.9v7.7h-5.2c-1.6 0-2.8-1.3-2.8-2.9zm13.1 20.7c-3.6 3.6-9 4.7-13.8 2.9s-8-6.3-8.3-11.4 2.3-10 6.8-12.4v3.8c0 2.8 2.2 5 5 5h5.5c1 0 1.8-.8 1.8-1.9v-7c4.2 2.3 6.9 6.8 6.9 11.6 0 3.6-1.4 6.9-3.9 9.4z"/></svg>