<?xml version="1.0" encoding="UTF-8"?>
<svg width="740px" height="743px" viewBox="0 0 740 743" version="1.1" xmlns="http://www.w3.org/2000/svg" xmlns:xlink="http://www.w3.org/1999/xlink">
    <title>chef-stacked-color</title>
    <g id="Page-1" stroke="none" stroke-width="1" fill="none" fill-rule="evenodd">
        <g id="chef-stacked-color" transform="translate(0.438609, 0.515790)" fill-rule="nonzero">
            <path d="M371.014711,538.07901 C278.886861,538.07901 203.921501,463.12802 203.921501,371.00017 C203.921501,278.85793 278.886861,203.89257 371.014711,203.89257 C447.073401,203.89257 511.364381,254.9772 531.519151,324.61975 L596.169771,324.61975 C574.648321,220.01926 481.887491,141.12651 371.014711,141.12651 C244.274181,141.12651 141.155451,244.24525 141.155451,371.00017 C141.155451,497.74069 244.274181,600.85942 371.014711,600.85942 C481.887491,600.85942 574.648321,521.9811 596.169771,417.38059 L531.519151,417.38059 C511.364381,487.00874 447.073401,538.07901 371.014711,538.07901" id="path16" fill="#FFFFFF"></path>
            <path d="M258.372451,483.62805 C287.230731,512.48634 327.079911,530.36811 371.014711,530.36811 L371.014711,463.7466 C345.407661,463.7466 322.217451,453.34553 305.429001,436.5715 L258.372451,483.62805 L258.372451,483.62805 L258.372451,483.62805 Z" id="path18" fill="#FFFFFF"></path>
            <path d="M211.646771,370.98579 C211.646771,393.78757 216.509231,415.48164 225.169601,435.11851 L286.108631,408.31741 C281.073531,396.89494 278.253881,384.27843 278.253881,370.98579 C278.253881,319.75729 319.786221,278.23933 371.000321,278.23933 L371.000321,211.61784 C283.130731,211.61784 211.646771,283.11619 211.646771,370.98579" id="path20" fill="#F38B00"></path>
            <path d="M428.788841,222.47926 L404.620381,284.58356 C424.357951,292.28006 440.829921,306.47903 451.302881,324.60536 L523.462981,324.60536 C509.220861,277.83653 474.003961,240.13087 428.788841,222.47926" id="path22" fill="#FFFFFF"></path>
            <path d="M404.649141,457.38801 L428.803211,519.4923 C474.018381,501.8407 509.235271,464.12065 523.491761,417.35181 L451.331671,417.35181 C440.829921,435.49256 424.372321,449.70589 404.649141,457.38801" id="path24" fill="#F38B00"></path>
            <path d="M76.1739514,460.13575 C75.1237814,456.65433 74.1167614,453.14415 73.1816714,449.6052 C73.1241714,449.38941 73.0665714,449.17362 73.0090414,448.95783 C72.1458814,445.67783 71.3546414,442.39783 70.5921814,439.08904 C70.4339214,438.41288 70.2900814,437.73677 70.1462214,437.06061 C69.5132314,434.22656 68.9378014,431.36376 68.3767414,428.50096 C68.1321714,427.22059 67.9163914,425.94023 67.7006014,424.6599 C67.2978114,422.37253 66.8949814,420.09954 66.5353414,417.78339 C66.2332314,415.81252 65.9742814,413.85602 65.7153414,411.88514 C63.9027014,398.44863 62.9244514,384.79632 62.9388414,370.9714 L0,370.9714 C-0.0142385921,386.0479 0.935241408,400.9374 2.70472141,415.63988 L2.70472141,415.63988 C2.73352141,415.95636 2.79102141,416.27286 2.83419141,416.58936 C3.32332141,420.58866 3.86998141,424.58796 4.48858141,428.54412 C4.66121141,429.63744 4.84823141,430.73076 5.03525141,431.83849 C5.58192141,435.08972 6.14297141,438.34098 6.77596141,441.57783 C7.09245141,443.30414 7.46649141,445.00167 7.82614141,446.71362 C8.35842141,449.28868 8.90509141,451.86379 9.49491141,454.42448 C10.0128114,456.6687 10.5738614,458.91291 11.1493014,461.15712 C11.6528114,463.1568 12.1419314,465.15644 12.6742114,467.15608 C13.3935114,469.80312 14.1559714,472.42134 14.9184314,475.05398 C15.2349214,476.14734 15.5226414,477.26946 15.8535114,478.34841 L15.8823114,478.34841 C20.2268814,492.72 25.3770614,506.74634 31.3616314,520.32668 L89.0350414,494.96421 C84.0718814,483.71436 79.7848514,472.06171 76.1739714,460.13575 L76.1739714,460.13575 L76.1739514,460.13575 Z" id="path26" fill="#FFFFFF"></path>
            <path d="M371.014711,679.07605 C286.079851,679.07605 209.086071,644.49211 153.311601,588.7033 L108.729431,633.28546 C175.868821,700.42483 268.572111,742.00035 371.014711,742.00035 C560.204811,742.00035 716.292721,600.38468 739.123281,417.38059 L675.609181,417.38059 C653.167051,565.31169 525.131761,679.07605 371.014711,679.07605" id="path28" fill="#F38B00"></path>
            <path d="M371.014711,62.92429 C440.024291,62.92429 503.768581,85.72608 555.184081,124.20859 L592.889761,73.67063 C531.001251,27.4053 454.208881,-2.84217094e-14 371.014711,-2.84217094e-14 C213.588881,-2.84217094e-14 79.0799214,98.05487 25.2187914,236.43366 L83.9279914,259.2786 C128.740341,144.46406 240.533831,62.92429 371.014711,62.92429" id="path30" fill="#F38B00"></path>
            <path d="M675.609181,324.61975 L739.123281,324.61975 C732.318741,270.02494 713.645721,219.11294 685.765681,174.54516 L632.278601,207.92064 C654.116521,242.77788 669.178651,282.29619 675.609181,324.61975" id="path32" fill="#FFFFFF"></path>
            <path d="M604.053301,324.61975 L667.783181,324.61975 C651.153001,217.76066 577.971481,129.40193 479.902231,91.12083 L457.143611,149.64301 C531.720571,178.76025 588.128011,244.46104 604.053301,324.61975" id="path34" fill="#F38B00"></path>
            <path d="M371.014711,133.40124 L371.014711,133.40124 L371.029011,70.64957 L371.014711,70.64957 C243.799441,70.64957 134.825601,150.14652 91.1209814,262.08388 L149.600021,284.84251 C184.183931,196.29677 270.384751,133.40124 371.014711,133.40124" id="path36" fill="#FFFFFF"></path>
            <path d="M133.430171,370.98579 L133.430171,370.98579 L70.6785014,370.98579 C70.6785014,497.19401 148.952651,605.41979 259.494551,649.78618 L282.799851,591.53731 C195.347451,556.43551 133.430171,470.8245 133.430171,370.98579" id="path38" fill="#F38B00"></path>
            <path d="M371.014711,609.323205 L371.014711,672.33637 C520.859131,672.33637 645.412991,561.590305 667.783181,417.35181 L604.038881,417.35181 C582.416751,526.682504 486.160141,609.323205 371.014711,609.323205" id="path40" fill="#FFFFFF"></path>
        </g>
    </g>
</svg>