<?xml version="1.0" encoding="UTF-8" standalone="no"?>
<!DOCTYPE svg PUBLIC "-//W3C//DTD SVG 1.1//EN" "http://www.w3.org/Graphics/SVG/1.1/DTD/svg11.dtd">
<svg width="100%" height="100%" viewBox="0 0 129 116" version="1.1" xmlns="http://www.w3.org/2000/svg" xmlns:xlink="http://www.w3.org/1999/xlink" xml:space="preserve" xmlns:serif="http://www.serif.com/" style="fill-rule:evenodd;clip-rule:evenodd;stroke-linejoin:round;stroke-miterlimit:2;">
    <g id="gke-icon-color" transform="matrix(0.380232,0,0,0.437907,5.64412,171.255)">
        <rect x="-14.844" y="-391.075" width="337.162" height="263.069" style="fill:none;"/>
        <g transform="matrix(2.62997,0,0,2.28359,-14.5809,-405.69)">
            <g>
                <path d="M126.47,58.12L100.17,12.38C98.16,8.815 94.402,6.574 90.31,6.5L37.7,6.5C33.608,6.572 29.849,8.814 27.84,12.38L1.53,58C-0.503,61.537 -0.503,65.903 1.53,69.44L27.83,115.44C29.818,119.055 33.567,121.371 37.69,121.53L90.3,121.53C94.423,121.388 98.179,119.082 100.17,115.47L126.47,69.73C128.517,66.136 128.517,61.714 126.47,58.12Z" style="fill:rgb(66,133,244);fill-rule:nonzero;"/>
                <path d="M89.63,48.44L64,37L39.5,50.31L38.5,79.64L80.33,121.5L90.33,121.5C94.453,121.358 98.209,119.052 100.2,115.44L120.81,79.59L89.63,48.44Z" style="fill-opacity:0.07;fill-rule:nonzero;"/>
                <g id="art">
                    <path d="M89,48L65.35,34.32C64.515,33.842 63.485,33.842 62.65,34.32L39,48C38.165,48.482 37.649,49.376 37.65,50.34L37.65,77.67C37.651,78.631 38.167,79.521 39,80L62.65,93.68C63.484,94.162 64.516,94.162 65.35,93.68L89,80C89.836,79.52 90.353,78.625 90.35,77.66L90.35,50.34C90.351,49.376 89.835,48.482 89,48ZM85.78,75.05L77.52,70.28L77.52,57.72L65.32,64.72L65.32,78.85L76.2,72.57L84.46,77.34L64,89.15L43.54,77.34L51.8,72.57L62.68,78.85L62.68,64.76L50.48,57.76L50.48,70.28L42.22,75.05L42.22,51.43L62.68,39.62L62.68,49.15L51.8,55.44L64,62.44L76.2,55.44L65.32,49.15L65.32,39.62L85.78,51.43L85.78,75.05Z" style="fill:white;fill-rule:nonzero;"/>
                </g>
            </g>
        </g>
    </g>
</svg>
