<svg xmlns="http://www.w3.org/2000/svg" width="425.197" height="178.399" viewBox="0 0 425.197 178.399">
  <g id="Group_2" data-name="Group 2" transform="translate(-208.347 -208.438)">
    <g id="Group_1" data-name="Group 1">
      <path id="Path_1" data-name="Path 1" d="M397.994,293.605h73.974v16.312H397.994V293.605Zm-11.76-28.452H443.9v16.313H369.921V236.7h16.313Z" fill="#0090d0" fill-rule="evenodd"/>
      <path id="Path_2" data-name="Path 2" d="M443.9,224.751H369.921V208.438H443.9v16.313Zm11.76,28.452H397.994V236.89h73.974v44.765H455.656Z" fill="#0090d0" fill-rule="evenodd"/>
    </g>
    <path id="Path_3" data-name="Path 3" d="M223.767,386.734a24.041,24.041,0,0,1-8.152-1.429,21.565,21.565,0,0,1-7.268-4.386l4.724-5.66a23.752,23.752,0,0,0,5.114,3.219,13.686,13.686,0,0,0,5.738,1.194,6.981,6.981,0,0,0,3.867-.908,2.859,2.859,0,0,0,1.376-2.518v-.1a3.159,3.159,0,0,0-.285-1.376,2.888,2.888,0,0,0-1.091-1.116,11.843,11.843,0,0,0-2.24-1.039c-.953-.346-2.2-.709-3.721-1.09a45.518,45.518,0,0,1-5-1.506,14.089,14.089,0,0,1-3.8-2.05,8.312,8.312,0,0,1-2.423-3.038,10.569,10.569,0,0,1-.857-4.517v-.1a10.6,10.6,0,0,1,.927-4.491,10.3,10.3,0,0,1,2.6-3.452,11.721,11.721,0,0,1,4.007-2.233,16.079,16.079,0,0,1,5.13-.779,21.743,21.743,0,0,1,7.348,1.195,21.305,21.305,0,0,1,6.152,3.426l-4.154,6.023a26.336,26.336,0,0,0-4.776-2.622,12.214,12.214,0,0,0-4.673-.96,5.652,5.652,0,0,0-3.505.908,2.761,2.761,0,0,0-1.168,2.259v.1a3.29,3.29,0,0,0,.337,1.532,3.075,3.075,0,0,0,1.221,1.168,11.746,11.746,0,0,0,2.422.987q1.545.468,3.877,1.09a36.811,36.811,0,0,1,4.924,1.636,13.7,13.7,0,0,1,3.643,2.18,8.343,8.343,0,0,1,2.242,2.986,10.163,10.163,0,0,1,.753,4.1v.1a11.327,11.327,0,0,1-.978,4.8,9.919,9.919,0,0,1-2.735,3.53,12.346,12.346,0,0,1-4.188,2.181,18.188,18.188,0,0,1-5.391.753Zm39.21-36.864h8v15.888l14.745-15.888h9.657l-14.8,15.421,15.472,20.923h-9.6l-11.266-15.472-4.206,4.361v11.111h-8V349.87ZM340.712,371l-4.828-11.786L331.055,371ZM332.3,349.611h7.373l15.576,36.6h-8.359l-3.323-8.151H328.2l-3.322,8.151h-8.152l15.576-36.6Zm47.518.259h27.673v7.217H387.815v7.84h17.341v7.217H387.815v14.07h-8V349.87Zm53.021,0h27.674v7.217H440.836v7.84h17.341v7.217H440.836v14.07h-8V349.87Zm70.778,29.6a10.911,10.911,0,0,0,4.413-.883,10.076,10.076,0,0,0,3.453-2.44,11.511,11.511,0,0,0,2.233-3.609,11.907,11.907,0,0,0,.8-4.386v-.1a12.121,12.121,0,0,0-.8-4.414,10.895,10.895,0,0,0-5.789-6.1,10.659,10.659,0,0,0-4.414-.909,10.883,10.883,0,0,0-4.439.883,10.133,10.133,0,0,0-3.426,2.44,11.506,11.506,0,0,0-2.233,3.608,11.893,11.893,0,0,0-.8,4.387v.105a12.09,12.09,0,0,0,.8,4.412,10.953,10.953,0,0,0,5.763,6.1,10.6,10.6,0,0,0,4.439.909Zm-.1,7.372a19.827,19.827,0,0,1-7.736-1.479,19.232,19.232,0,0,1-6.1-4,17.883,17.883,0,0,1-4-5.919,18.651,18.651,0,0,1-1.428-7.294v-.1a18.365,18.365,0,0,1,1.454-7.3,18.594,18.594,0,0,1,10.15-10.021,21.029,21.029,0,0,1,15.5,0,19.244,19.244,0,0,1,6.1,4,17.9,17.9,0,0,1,4,5.919,18.666,18.666,0,0,1,1.428,7.294v.105a18.364,18.364,0,0,1-1.454,7.294,18.594,18.594,0,0,1-10.15,10.021,20.024,20.024,0,0,1-7.763,1.479Zm45.441-36.967h8V379h18.12v7.217H548.955V349.87ZM614.229,379a12.342,12.342,0,0,0,4.465-.778,9.591,9.591,0,0,0,3.453-2.232,10.5,10.5,0,0,0,2.233-3.427,11.6,11.6,0,0,0,.8-4.413v-.1a11.855,11.855,0,0,0-.8-4.414,10.369,10.369,0,0,0-2.233-3.479,9.894,9.894,0,0,0-3.453-2.258,11.993,11.993,0,0,0-4.465-.8h-6.178V379ZM600.055,349.87h14.174a21.475,21.475,0,0,1,7.815,1.377,18.439,18.439,0,0,1,6.126,3.816,17,17,0,0,1,3.972,5.737,18.061,18.061,0,0,1,1.4,7.138v.105a18.258,18.258,0,0,1-1.4,7.165,16.944,16.944,0,0,1-3.972,5.763,18.81,18.81,0,0,1-6.126,3.842,21.147,21.147,0,0,1-7.815,1.4H600.055Z" fill="#070203" fill-rule="evenodd"/>
  </g>
</svg>
